<svg xmlns="http://www.w3.org/2000/svg" width="40" height="40" fill="none" viewBox="0 0 40 40"><g transform="translate(-4.145, -4.246) scale(0.965801)"><path fill="#3784ff" d="M36.711 22.58c-.025.247-.126.282-.095.081.01-.057.075-.118.095-.081m-.139 1.827c.006.303-.1.143-.102.091-.006-.218.12-.392-.016-.475 0-.13.05-.003.06-.082.02-.147-.031-.299-.016-.45l.004-.03c.032-.013.07-.049.1-.039.009.157-.038.906-.03.985m.083-1.25c-.021.068-.062.03-.056.167-.042.024-.056-.11-.045-.176.001-.002.027.011.03-.004.02-.115.02-.292.099-.28-.064.103-.007.225-.028.293m.296-1.382c-.045-.042-.026-.088.025-.151l.032.023q-.03.062-.057.128m.085-.267c-.047-.073.073-.356.089-.295zM21.98 42.392c-.218.079-.907-.193-1.062-.236-.733-.189-1.31-.324-1.983-.572a6.5 6.5 0 0 1-1.429-.746q-.044-.27-.064-.542c.054.053.076.09.147.14.072.05.239.18.318.153-.035-.094-.257-.256-.324-.306-.13-.093-.084.017-.183-.038-.099-.056-.188-.238-.31-.3-.287-.15.126.278.23.331-.12.092-.225-.209-.376-.193.007.053.084.226.152.248.066.02.04-.108.133-.004.023.118.057.246.088.366-.129-.066-.272-.233-.369-.31a7 7 0 0 1-1.441-1.585q-.385-.685-.67-1.418l-.003.02a.1.1 0 0 0-.005.032h.002q0 .022.01.05c.008.026.015.053.01.07l-.031-.034-.064-.08.052-.134q-.084-.214-.162-.43a.1.1 0 0 0 .008-.03l.005-.028-.008-.036a2 2 0 0 0-.054-.196l-.014-.046-.031-.106-.003-.012.007-.01c.016-.032.002-.058-.025-.078l-.009-.006-.013-.044a2 2 0 0 1-.065-.304l-.012-.074-.02-.105a1 1 0 0 0-.035-.116l-.234-.601c-.027-.074-.083-.133-.131-.144l-.04-.128a.03.03 0 0 1-.016-.006.2.2 0 0 1-.034-.04c-.023-.032-.05-.068-.075-.06l.053.115.003.008c-.004.033-.12-.078-.118-.137.001-.046.077-.068.124-.073l-.019-.06-.027-.002c-.015 0-.031 0-.048-.01-.089-.047-.14-.255-.035-.21-.017-.054-.035-.054-.056-.053-.023 0-.049.002-.083-.061a.25.25 0 0 1-.036-.15c0-.02.002-.039-.004-.062a1 1 0 0 0-.037-.092c-.038-.083-.086-.184-.057-.228.031-.05.066-.016.094.016l-.113-.305-.043.023c-.08-.12-.061-.16-.01-.162q-.075-.19-.154-.378l-.058-.057c-.011.018.003.044.017.07.012.02.024.04.018.052-.05.095-.276-.09-.143-.113.032-.005.07-.012.078-.046.005-.026-.024-.096-.044-.116l.004-.001q-.001-.003-.012-.004l-.025-.004a.4.4 0 0 1-.066-.015l-.06-.033c-.23-.14-.079-.014-.142-.271-.005-.02-.019-.037-.03-.054a.2.2 0 0 1-.026-.042c-.01-.025-.014-.05-.02-.073a.3.3 0 0 0-.055-.134q-.002 0-.003.01c-.025.17-.027-.094-.03-.1l-.001-.013c.015-.013.053.02.097.06.042.037.089.08.128.093l-.034-.063a.12.12 0 0 1-.055-.066c-.003-.008.004-.012.01-.016l-.03-.056-.013.005-.003.001c-.029-.023-.11-.151-.102-.179a.04.04 0 0 1 .009-.018l-.008-.012-.088-.144a.04.04 0 0 1-.015-.01.1.1 0 0 1-.017-.043l-.047-.075-.004.002c-.01.006-.02.012-.025.01.097.119.058.113.013.106-.02-.003-.042-.006-.051.002-.012.012.002.038.015.062.017.03.032.06-.007.056-.032-.084-.078-.12-.125-.158-.148-.12-.09-.208-.01-.1.018.024.035.048.058.057.025.012.051-.001.075-.012l.031-.013-.004-.003a2 2 0 0 1-.111-.1c-.05-.057-.042-.06-.027-.067q.012-.003.02-.018l-.008-.022c-.006-.012-.01-.024-.006-.026a.04.04 0 0 1 .023-.002l-.031-.048a.1.1 0 0 1-.03-.014q-.024-.045-.043-.09l.003-.001q-.159-.24-.325-.477l-.001-.006-.001-.01-.003-.03a1 1 0 0 0-.015-.134.44.44 0 0 0-.16-.278.4.4 0 0 0-.143-.082.22.22 0 0 0-.133-.003l-.017.01h-.036c-.05-.024-.033-.04-.02-.051l.007-.008.038-.068q-.196-.26-.402-.519-.207-.263-.43-.523l-.29-.336c-.006.02-.015.038-.06.02-.061-.026-.141-.182-.152-.205l-.02-.003a.14.14 0 0 1-.078-.029c-.068-.05-.464-.233-.496-.33l-.15-.184-.047-.072q.001-.018-.004-.037c-.03-.14-.143-.38-.159-.547.039.023.079.053.118.077l.01-.114.033-.002a6 6 0 0 1-.099-.264l-.003.002c-.023-.024-.023-.042-.016-.056l-.042-.132-.034-.03-.09.01.01-.09c-.051-.057-.087-.122-.067-.185l-.056-.117a.3.3 0 0 1-.043-.083c-.047-.029-.294-.094-.38-.308l.215-.034a4 4 0 0 1-.079-.178l-.143-.022.102-.042a4 4 0 0 1-.067-.366h-.001a.1.1 0 0 1-.003-.036l-.005-.05.092.003.001-.006a.2.2 0 0 0-.02-.098l-.038.04a4 4 0 0 1-.085-.495l.066-.057v-.022h.025l.027-.023.001-.01-.157-.129q.014-.117.033-.234l-.011.122-.001-.04.03-.191q.059-.154.124-.304a.3.3 0 0 1-.054-.038l.015-.063-.037-.018c.015-.05.054-.116.004-.253l.198.034a.3.3 0 0 1 .031-.04 8 8 0 0 1-.165-.435l.319-.139c.039-.149.08-.286.128-.432q0-.025.004-.05l-.147.12a9 9 0 0 1-.231-.198q.134-.117.272-.22c.007-.481.509-.766.06-.764l-.021.193a7 7 0 0 1-.088-.295q.112-.081.225-.155.027-.14.062-.283l.168-.004a5 5 0 0 1-.012-.267 5 5 0 0 1 .307-.04q.265-.483.619-.907c.508-.268.133-.276.365-.598a7 7 0 0 1 .508-.21q.032-.114.068-.227l.183-.034q.33-.222.667-.417l-.258-.123.1-.12q.241.024.48.054l.21-.228.385-.156.101.146-.01-.322.48-.325-.236.283.315-.04.234-.224.025-.144q.31-.11.61-.225.327-.196.64-.405c.043-.102.15-.163.242-.226.132-.09.234-.178.115-.362q.276-.15.544-.303l.067-.135.148.072.12-.268.284-.229-.02.153q.443-.283.88-.59l-.152-.243.345-.211-.082-.162q.23-.233.46-.473l.656-.306c.104-.304.488-.857.817-.691q.39-.404.818-.783l.049.174.108-.017-.077-.253q.214-.04.425-.07l-.036.199-.129.093q.14.007.277.02l-.006.008c.315-.152.605-.242.867-.31l.063-.014c.31-.065.494.011.588.1q.032.03.051.066c.06.11.037.262-.07.427l-.028.041c-.163.22-.354.4-.546.562a.7.7 0 0 1 .138-.012c-.012.031-.03.064-.044.095l.092.023c.003.017.009.03.01.049-.12.08-.232.261-.333.339-.096.072-.19.045-.269.096-.076.05-.245.31-.293.152-.016.004-.037.013-.054.015.087.139-.08.115-.163.211-.04.046-.088.267-.112-.011-.016.01-.028.008-.045.014 0 .261-.099.256-.287.328-.105.04-.298.15-.124.2-.016.146-.222.125-.274.187-.052.06.084.05.014.131q-.075.077-.164.139c-.04.021-.045-.062-.093-.005-.205.245-.326.552-.555.815a16.5 16.5 0 0 1-2.35 2.188c-.058.045-.2.158-.372.285-.29.216-.636.435-.713.444-.428.05.215-.463-.294-.236.151.52-.216.565-.599.791-.284.169-.697.483-.955.558-.275.08-.11-.084-.31-.098.01.241-.085.344-.267.467-.191.128-.416.189-.613.3-.067.038-.125.133-.204.167-.099.041-.149-.073-.212-.05-.062.025.066.105.025.165-.02.026-.184.16-.253.147-.016-.003-.014-.063-.047-.09-.019-.015-.128-.152-.16-.106.063.15.16.272.053.383-.168.175-.373.282-.536.467-.038.042-.022.212-.163.182-.042-.009-.16-.104-.205-.023-.038.07.013.116.023.2.004.03-.061 0-.049.063s.065.166-.113.106c.047.032.091.056.136.085-.029.074-.277.119-.11.168-.035.076-.07.159-.1.24l-.188-.023c-.036-.072.07-.12-.033-.174-.04.072-.076.141-.111.215.293.086.367.356.077.21-.056-.029-.054.144-.043.186.01.04.128.08.035.13-.053.029-.132.037-.07.156.046-.054.102-.107.153-.155-.035.081-.02.209-.099.274-.02.016-.05-.07-.082-.038-.034.03-.046.188.078.176-.243.031-.052.057-.067.207-.002.017-.244.147-.132.236.04.03.201 0 .123.114-.058.086-.185-.02-.27.077.184-.033.275.133.275.23 0 .166-.111.136-.163.19-.092.096.056.186-.082.242-.003-.03-.014-.058-.02-.087l-.03.107-.02.22-.035.062.222.03c.012.08-.081.098-.106.16-.004.01.05.006.05.015-.002.07-.031.092.073.144-.188-.001-.065.088-.143.16-.023.02-.118.038.088.022-.037.131-.005.215-.13.361.19-.086.227.05.207.155-.006.028-.133.1-.089.144.052-.038.11-.08.165-.117.058.09-.126.143-.066.225.028.036.206-.084.158.03-.027.066-.238.218.047.08.047.052-.063.066-.05.114.01.032.13.001.142.049.023.091-.084.33.11.202.054.048-.055.063-.007.108.063.06.319.143.2.287h.002c.128-.007.26.21.098.266-.055-.133-.254-.102-.166.002.09.106.1.146.06.202.07.033.138.026.211.094.051.048.095.147.155.21.022-.02.044-.034.07-.029.064.013.12.205.16.248l.003.002c.03-.011.062-.045.118-.013.016.008.013.07.027.125a.6.6 0 0 1 .103.078.3.3 0 0 1 .03.04c.084.036.219.095.261.14.025.025.031.116.038.128.027.04.073-.034.106-.008.247.188.486.476.711.683.216.197.333.304.549.513.2.195.464.269-.013.398.115.201.15.056.255.014.061-.025.06.055.077.057.058.005.028-.096.072-.09.133.017.342.307.473.5.046.065.085.122.107.15.41.495.726.87 1.04 1.347.198.305.344.612.518.915q-.1.23-.204.456c-.015-.05-.014-.082-.042-.13s-.081-.176-.148-.165c-.024.085.056.247.083.294.053.09.069-.007.116.046.048.054.04.211.108.267.163.13.012-.235-.036-.288.125-.07.08.186.202.173.014-.044.026-.189-.014-.21-.04-.019-.075.09-.1 0 .034-.1.066-.209.098-.31.06.063.091.207.131.272.45.73.793 1.456 1.162 2.135.034.062.1.185.114.254.01.054-.083.09-.034.12.007.003.05-.047.095.003.085.097.226.327.296.44.643 1.043 1.273 1.647 1.997 1.991q.146.068.295.132c.062.03.315.113.35.16.108.14.045.262.187.085.078.012-.004.093.023.13.011.014.141-.1.164-.038.051.14-.096.108-.163.146.108.104.271.029.38.056.032.008.006.119.012.124.12.073.165-.147.183-.24l-.183-.085c.133.003.209.092.329.154.029.014.013-.096.073-.04q.007.114.012.231c.181-.021.247-.05.07-.21l.245.062c-.047.066-.03.193.067.142.023-.013-.01-.102.02-.12.029-.017.201.04.215.05.126.084.116.248.251.188-.037-.002-.176-.119-.065-.142.122-.024.579.153.715.204.23.088.34.144.533.287.036.028.022.128.094.177.096.064.282.116.393.193a1 1 0 0 1-.084.054l.071.072c-.005.015-.006.03-.013.046-.15-.001-.343.08-.478.077-.124-.002-.196-.085-.29-.095s-.396.07-.34-.082c-.016-.008-.04-.016-.055-.026-.012.163-.136.03-.265.04-.061.004-.243.124-.082-.09-.02-.005-.028-.015-.045-.023-.17.184-.249.106-.439.01-.107-.053-.32-.134-.23.037-.114.082-.25-.097-.327-.1-.08-.004.022.1-.085.093-.018 0-.169-.028-.211-.049-.043-.02.013-.074-.058-.08-.312-.022-.612.053-.94.002a8 8 0 0 1-.365-.065c.222.165.355.418.802.12q.324.06.653.11l.021.076.04.004c.087.01.19.025.301.043.223.034.51.081.841.129.663.096 1.53.195 2.452.23h.017l.105.01c.017.002.082.009.15.026.02.005.146.036.233.114a.3.3 0 0 1 .036.038l.212.066-.003.097.175-.004.022-.035q.271-.029.543-.063l.153.065q.253-.015.485-.033l.015-.116q.128.05.254.094l.437-.036-.016-.044q.234-.096.463-.2l.21.07q.07-.052.138-.108.32-.064.637-.143.097.073.197.145l.182-.07-.175-.075q.261-.078.518-.164l-.031-.171a1 1 0 0 1-.139.055c-.037.01-.044-.058-.052-.058-.154.016-.136.148-.128.203q.119-.018.234-.039c-.152.06-.267.048-.422.067-.037.004.013.055-.072.05l-.078-.116c-.199.082-.271.123-.022.139l-.3.06c.038-.053-.012-.114-.111-.053-.024.015.034.053.004.073a1.3 1.3 0 0 1-.264.047c-.165-.007-.184-.101-.33-.028.043-.009.229.013.102.06-.142.055-.713.072-.88.068a2.6 2.6 0 0 1-.656-.07c-.045-.011-.03-.073-.117-.091-.116-.025-.332-.034-.46-.07l.032-.013a3 3 0 0 1 .34-.006c.367-.155.785-.178.919-.206l-.004.012c.019.001.046 0 .064.003-.002-.042.026-.055.068-.061h.075l-.003-.005a.7.7 0 0 0 .142-.017q.061.015.116.022l-.006.007c.022-.002.033.001.053.001l.002-.001.009.001.029.004c.054.007.119.015.179.02a.8.8 0 0 0 .213-.02q.055-.01.137-.031c-.074.075.09.163.335.108.025-.055-.062-.008-.068-.035-.005-.026.093-.014.05-.057-.153.016-.072.058-.185.091.022-.034-.017-.082-.002-.11.026-.045.095-.032.104-.06l.026-.008q.101-.015.202-.034c.06-.042.34.026.475.045l-.02.014.056-.01.023.001a.12.12 0 0 1 .07.022q-.006.01-.001.018.14-.029.283-.063a.04.04 0 0 1-.002.023 7 7 0 0 0 .985-.367q.285-.133.556-.28l-.01-.087c-.006-.013-.013-.029.01-.035l.028-.002.034.013.012.017a.22.22 0 0 0 .124.051.5.5 0 0 0 .17-.016.46.46 0 0 0 .268-.189c.027-.038.054-.084.071-.115l.015-.026.005-.008.003-.006q.255-.144.494-.29-.003 0-.003-.002.037-.031.077-.06a.1.1 0 0 1 .034-.002l.052-.03a.1.1 0 0 1-.02-.012c-.004-.004.007-.013.018-.021a.1.1 0 0 0 .017-.017c.003-.012-.004-.02-.01-.025-.01-.012-.015-.02.058-.05q.075-.024.15-.043h.005l-.05-.056a.06.06 0 0 0-.037-.014.2.2 0 0 0-.079.026c-.046.024-.09.046-.11-.018.06-.043.113-.055.166-.068.06-.014.121-.028.19-.09.037.015.01.034-.02.054-.024.016-.049.034-.043.05.004.012.026.019.046.025.044.013.083.025-.063.09.006 0 .013.01.019.02l.003.004.078-.049c.01-.013.021-.026.035-.03a.04.04 0 0 1 .02-.003l.155-.097a.04.04 0 0 1 0-.02c.008-.028.147-.11.185-.118l.001.002s.003.007.01.011l.057-.036c-.005-.007-.01-.013-.002-.02a.13.13 0 0 1 .082-.032l.062-.041a.5.5 0 0 0-.162.023c-.06.016-.111.029-.118.01q0-.004.007-.01c.017-.018.048-.05-.05-.073.169-.107.14-.035.128-.006q-.004.01-.002.011a.3.3 0 0 0 .118-.094.4.4 0 0 1 .055-.055.2.2 0 0 1 .044-.026.2.2 0 0 0 .06-.035 1 1 0 0 0 .07-.106c.03-.05.058-.098.066-.1.032.035.092.032.15.03h.073c.018.002.045.012.067.02l.038.01-.004-.002c.03-.007.093-.054.103-.079s-.005-.046-.023-.063l-.037-.032c-.015-.015-.022-.03-.003-.045.088-.073.211-.026.206.036-.001.014-.022.025-.044.037-.025.014-.052.029-.052.05l.081-.02c.115-.08.22-.156.335-.238-.044-.028-.035-.073.104-.135l.024.043q.138-.1.27-.2c-.04.013-.09.022-.088-.037 0-.053.097-.112.172-.16q.041-.025.08-.055a.2.2 0 0 0 .036-.048l.013-.022.15-.1q.012 0 .023.003a.1.1 0 0 1 .021.012c.018.012.033.023.078-.014-.044-.007-.047-.034-.029-.063l.133-.091a.1.1 0 0 1 .04-.004q.03.005.045.02.012.008.024.012l.046-.038a.3.3 0 0 1-.053-.06l.056-.04c.02.01.053-.002.083-.014l.047-.014a.03.03 0 0 1 .015.004l.095-.08c.043.018.116.001.171-.042l.173-.132c.013.01.035.016.095-.001a.4.4 0 0 1 .02-.089l.183-.146a.5.5 0 0 0 .074-.074l.055-.073.038-.053.066-.089c.165-.12.326-.222.477-.346.07-.057.137-.155.212-.212.095-.072.126-.002.184-.044.056-.042-.048-.056-.006-.118.022-.03.188-.21.243-.226.013-.003.005.046.03.054.015.005.095.07.125.022-.04-.096-.113-.15-.01-.29.157-.215.315-.385.415-.586.025-.049.002-.174.09-.193.026-.006.11.028.127-.046.013-.063-.024-.082-.043-.138-.008-.02.035-.018.016-.06-.018-.04-.069-.095.042-.107l-.093-.018c0-.056.12-.166.02-.147a2 2 0 0 0-.016-.2l.102-.053c.041.04.002.113.07.115q0-.097-.011-.202c-.173.05-.304-.129-.111-.131.037 0-.03-.14-.053-.169-.021-.029-.092-.012-.07-.097.01-.048.043-.09-.04-.168.004.067.003.139 0 .203-.02-.088-.084-.19-.081-.288 0-.024.056.044.056 0 0-.042-.075-.198-.125-.133.093-.134-.003-.072-.08-.229-.009-.019.028-.248-.073-.29-.035-.015-.09.084-.123-.07-.026-.115.096-.054.077-.188-.065.106-.206-.033-.265-.137-.104-.184-.033-.193-.04-.269-.016-.138-.143-.188-.11-.296q.03.045.063.089l-.09-.23-.106.083c-.077-.112-.06-.193-.107-.302-.006-.015-.025.016-.033.002-.067-.12-.073-.166-.173-.222.09-.066-.056-.185-.08-.343-.008-.043.03-.094-.071-.025-.103-.264-.205-.456-.221-.718-.07.142-.21-.166-.256-.37-.012-.055.046-.138-.008-.239l-.068.146c-.095-.213.024-.216-.053-.398-.034-.082-.131.026-.134-.159 0-.107.124-.222-.059-.182-.048-.129.032-.07.012-.166-.012-.06-.095-.1-.111-.194-.031-.182.045-.468-.087-.434-.035-.124.038-.05.01-.163-.04-.149-.18-.531-.078-.621-.078-.115-.075-.562.025-.47-.018.237.098.389.082.162a2 2 0 0 1-.002-.212l.002.088c.006-.134.05-.115.14-.18.018-.012.025-.112.049-.092.023.02.056.232.102.11.008-.022-.034-.13.018-.153-.012-.022-.025-.032-.037-.05.112-.191.147-.207.169.14l-.075-.026c.032.05.064.091.097.145l.005.082-.002-.064c.01.387.142.845.171 1.16.027.298-.066-.102-.07-.11-.06-.068-.058.073-.089.081s-.107-.156-.066-.005c.005.021.138.204.153.208.073.02.093-.027.121.011a6.7 6.7 0 0 1-.078-1.345l.001.057a8 8 0 0 1 .075-1.115q.038-.28.09-.554a8.5 8.5 0 0 1 .431-1.483q.024-.187.052-.373l.076-.104q.093-.308.19-.608l.069-.007c-.083-.396.369-.354.129-.747l.083-.366.164-.034-.027-.045q.075-.146.146-.293l-.034-.26c.16-.014.123-.667.212-.517q.03-.128.058-.255l.04.075.05-.03-.024-.204c.235-.04.09-.184.084-.23-.008-.075.011-.205.008-.214-.005-.014-.084.092-.1-.012q.068-.067.133-.137l-.056-.028.052-.1.067.011.033-.059-.054-.044a7 7 0 0 0 .003-.27q.062-.094.12-.19l-.008-.103-.118-.026q.075-.132.148-.27l-.036-.148-.059.038.04.05-.051.013a4 4 0 0 0-.092-.217l.047-.095-.056-.063a3 3 0 0 0-.063-.283l.082-.093-.037-.08-.043.082a3 3 0 0 0-.086-.22l-.127.033-.018-.122.066-.032a8 8 0 0 0-.07-.52l-.135.037c-.027-.24-.188-.429-.271-.619-.034-.08.017-.24-.083-.165a9 9 0 0 0-.227-.458l-.138-.086L38 13.28c-.137-.043-.525-.455-.411-.526-.105-.08-.077-.09-.212-.178l-.01-.136-.118-.157-.23-.141-.028-.214q-.039.03-.078.064l-.13-.085c-.216.024.24-.209-.217-.364l.14.141-.03.142q-.115-.075-.234-.149l-.116-.157-.145-.077a9 9 0 0 0-.282-.328 9 9 0 0 0-.343-.213l-.014-.105-.2-.02-.05-.051.02-.07a9 9 0 0 0-.293-.134l-.162-.165-.022.057a8 8 0 0 0-.916-.451l-.002-.002c-.01-.073-.227-.004-.136-.184l-.05.044-.092-.071.03-.063-.079-.031-.035.08.069.085-.211-.105.049-.045c-.08-.085-.44.052-.085-.32l.144.105-.052-.146.055-.089.128.113.098-.038-.04-.058.11-.023q.153.046.305.096l.035.061q.25.114.493.243l-.093.041.129.065.073-.042.138.048-.089.11-.166.024.08.09.065-.08.14.083-.034-.103.074-.054q.113.039.224.081l-.01.066.186.024.051.08.053-.013q.083.054.164.111l.065.123.136.019q.288.235.557.491c.209.01.385.403.444.301q.232.215.451.444.026.063.048.128.232.213.452.442.216.333.404.68l.052-.138.14.205.013.172.141.073c-.139.167.157.17.209.389.213.004.034.301.262.327l-.062.011.06.12q.096.105.189.211l-.069.044.039.112-.09-.028q.014.05.026.1.116.147.227.298l-.022.111.075.023.033.219.052-.037-.032-.091.058-.018q.054.154.103.31l.03-.038a8 8 0 0 1 .076.259l.002-.007c.02-.04.134-.051.103-.195l-.013-.04c-.058-.156-.123-.165-.213-.285-.035-.046.017-.08-.055-.165s-.205-.191-.086-.31c-.05.005-.09.018-.136.026-.078-.162-.058-.514-.166-.405a10 10 0 0 0-.267-.497l.088-.159c.101.076.127.261.224.237q-.108-.224-.227-.443c-.203.159-.584-.198-.292-.244.056-.01-.17-.268-.227-.316-.057-.05-.154-.007-.188-.164-.02-.088 0-.168-.184-.285.053.114.104.238.151.356-.1-.155-.275-.32-.336-.48-.015-.04.117.06.087-.011-.03-.073-.242-.3-.278-.187.06-.232-.054-.116-.262-.33-.025-.028-.1-.375-.275-.402-.061-.008-.09.146-.222-.056-.1-.15.115-.108.014-.287-.039.17-.326.03-.465-.078-.247-.193-.15-.235-.203-.33-.099-.17-.306-.164-.32-.316.047.03.092.05.138.077a10 10 0 0 0-.258-.234l-.098.161c-.172-.09-.196-.195-.325-.292-.018-.014-.023.035-.043.024-.16-.092-.2-.142-.364-.13.074-.142-.19-.166-.328-.311-.039-.041-.028-.126-.104.03-.309-.19-.565-.28-.794-.503.037.197-.352.06-.57-.048-.059-.03-.077-.162-.218-.176l.067.188c-.194-.038-.197-.119-.27-.176a.27.27 0 0 0-.135-.05c-.104-.013-.08.175-.254.062-.1-.065-.125-.29-.216-.033-.157-.01-.045-.082-.153-.107-.068-.015-.16.074-.262.05-.195-.044-.452-.249-.482-.054-.144.007-.034-.07-.164-.065-.177.006-.611.136-.682-.015v.001c-.143.09-.607.087-.498-.055.248.02.44-.133.188-.12-.412.027-.332-.022-.416-.198-.013-.026-.131-.032-.105-.067s.287-.085.149-.15c-.027-.013-.165.052-.187-.022-.028.02-.042.038-.064.058-.227-.144-.251-.202.195-.252l-.044.11c.066-.049.123-.095.197-.143.484-.023 1.174-.15 1.614-.062.38.076-.157.05-.17.059-.113.062.058.103.051.15-.007.044-.237.098-.039.089.026-.002.312-.116.328-.133.107-.142-.07-.178.358-.175.154 0 .596.05.765.077.085.013.16.043.225.073.08.036.145.072.204.082.11.017.02-.056.15-.032.257.047.602.205.826.284.254.09.355.047.598.147.168.07.365.225.557.294.025.059-.126.157-.002.208.15.063-.009-.125.085-.129.159.055.021.063.026.068.058.063.189.11.269.173a5 5 0 0 0-.133-.178c.217.177.147.012.35.102.054.024.108.19.293.269.045.016.48.21.6.305.051.04.104.145.12.161.061.057.097-.006.16.038.469.327.926.796 1.302 1.183.356.369.543.578.866.989.298.384.635.684.044.465.17.328.196.183.323.215.075.02.082.115.103.132.074.055.027-.093.083-.05.237.172.627 1.09.709 1.296.178.39.325.753.45 1.113.196.574.285 1.146.282 1.742-.007.653-.129 1.22-.262 1.793q-.21.15-.422.29c.029-.075.053-.112.075-.203.023-.09.088-.306.047-.374-.07.073-.147.36-.17.448-.042.168.036.074.017.193s-.14.29-.156.436c-.034.342.187-.254.204-.374.106.07-.106.308-.048.44.04-.033.157-.185.155-.256s-.1.013-.041-.122c.089-.076.183-.163.272-.243-.02.148-.114.353-.147.476-.375 1.38-.897 2.563-1.225 3.78-.03.112-.087.332-.127.429-.033.076-.104.013-.1.105 0 .011.058-.001.047.112-.024.212-.088.651-.103.87a6 6 0 0 0-.022.612l.001.044c-.071 1.6.84 3.166 1.556 4.961l.014-.08.172.127q.146.28.276.58l-.034.134c.114.356.209.737.255 1.135a4 4 0 0 0-.161-.118q.024.15.04.305.068.042.135.089.032.155.05.32l-.248-.059a4 4 0 0 0-.123-.182l-.002.004c-.007.023.118.264.068.322l-.022.02-.015.174q.072-.078.14-.162.075.045.148.093.021.265.006.534l-.118.034q.026.203.033.407a4 4 0 0 1-.131.159l.036.104a4 4 0 0 1-.187.397 4 4 0 0 1-.232.178q-.016.14-.042.279c-.325.433-.68.777-1.068 1.1-.083.395-.903.641-.727.767-.325.247-.669.483-1.01.7l-.263.051c-.32.232-.656.46-.998.68-.443.178-.951.377-1.396.53l.232.132-.422.198-.33-.014a8 8 0 0 0-.18.239c-.265-.289-.346.237-.77.295-.064.382-.573.025-.664.411l.018.006.007.064c-.044 0-.09.007-.134.011-.003-.09.035-.101.104-.082l-.008-.099-.23.092q-.21.16-.429.323l-.073-.127-.144.042q.015.023.01.047c-.088.05-.155.055-.19.038q-.037-.02-.025-.058c.01-.025.038-.053.09-.075.018-.008.043-.004.066.007l.04-.097-.2.042-.037.026q-.254.175-.516.342a.2.2 0 0 1 .043.086c-.07.062-.318.16-.525.228v.004l-.112.032-.186.057a.3.3 0 0 1-.091.018l-.205.052-.018.01.065.052a15 15 0 0 1-.53.122c-.066.056-.067.129.052.1.306-.078.257-.01.363.189.015.028.107.024.095.068s-.2.127-.078.19c.023.012.113-.077.148.007.017-.025.023-.047.035-.072.208.15.24.213-.09.312l.007-.132c-.039.063-.071.122-.116.186-.363.074-.841.324-1.178.313-.293-.01.101-.092.108-.102.066-.094-.068-.11-.074-.164-.007-.054.147-.161.006-.113a1.5 1.5 0 0 0-.204.222c-.04.191.094.19-.21.287-.11.036-.43.099-.551.122-.135.027-.255-.052-.333-.033-.08.02.003.07-.091.091-.187.041-.463.007-.636.022-.196.018-.247.114-.438.127-.133.008-.312-.053-.46-.019-.036-.048.026-.237-.072-.222-.119.02.05.127-.009.185-.12.032-.037-.053-.04-.056-.06-.035-.16-.008-.235-.025l.15.108c-.203-.057-.099.072-.26.102-.043.007-.138-.132-.284-.093-.036.01-.381.098-.492.089-.048-.004-.123-.07-.14-.074-.06-.014-.057.072-.113.074-.42.012-.893-.072-1.29-.107a18 18 0 0 1-.963-.105c-.355-.049-.698.033-.245-.33-.259-.103-.202.035-.293.126-.054.053-.105-.014-.126-.007-.069.027.031.094-.022.113m15.033-18.329c.086.14.125.012.027.293-.087-.281-.16.114-.245.117-.049 0-.017-.14-.04-.183-.036-.066-.104.026-.125-.052-.023-.08.043-.345.05-.43.01-.163-.005-.305.01-.439.013-.134.086-.334.105-.416a.8.8 0 0 0 .02-.179c-.015-.084-.094-.043-.075-.155.07-.001.208-.142.218.024.006-.023.025-.05.027-.073.013-.106-.093-.059-.099-.11-.01-.087.05-.021.055-.022.073-.075 0-.042-.022-.081a.8.8 0 0 1 0-.215c.01-.033.037.014.043-.008.03-.093.062-.188.076-.282s-.036-.156.055-.14c.015.003.015.058.053.047.013-.004.083-.07.089.038a.4.4 0 0 1-.008.096l-.029-.041-.02.074c-.03-.019-.06-.04-.088-.054-.043.027-.006.07-.007.076-.034.085-.099.067-.034.139q.038-.087.08-.169l.048.012-.01.034.045-.013a1.3 1.3 0 0 1-.106.237l-.041-.09c-.007.104-.035.04-.073.108.075.03.047.068.03.128-.02.06.056-.012.05.05-.013.127-.147.334-.038.379-.1.157-.074-.045-.1-.06-.112-.06-.121.29-.062.347-.046.045-.1.041-.104.174-.005.18.114-.201.091.04-.014.162-.068.137-.091.218-.043.15-.035.424.053.328.036-.039.004-.154.043-.198.021-.024.18.035.067-.107-.01-.014-.08.058-.068-.054.003-.033.07-.137.067-.228-.002-.04-.052-.211-.008-.308.047-.104.035.06.068.023.032-.039.053-.17.107-.16.049.076-.048.076-.048.1.003.09.108.026.076.154-.053.016-.17-.113-.166.082.003.001.041-.041.043.021.003.11-.013.319-.028.455.076-.008.09-.173.152-.253-.01.18-.007.38-.09.514l-.012-.207-.01.243c-.03-.03-.095-.213-.123-.083.08.01.081.191.122.259m-.422.947-.002-.003.002.093c-.065-.097-.058-.252-.059-.41.065.026.041.286.061.41l-.002-.093zm.717-3.682c.129-.066.028.267-.02.403l.025-.096-.079.03.019-.107c-.034.038-.07.07-.104.106-.076-.107-.012-.104.037-.232.032-.082.006-.12.031-.224.118-.481.214-.963.366-1.413.083.017.1.031.086.118l-.071-.024-.02.17.09-.142-.02.1c-.006.03.025.044.01.083-.035.084-.169.177-.17.278-.001.059.113.002.049.13-.045-.092-.088-.16-.12.052.094-.108.043-.018.061.031.012.032.055-.145.061-.024 0 .025-.062.387-.114.363-.114-.056-.096-.072-.09.175.13-.286.137-.002.067.123-.036.064-.063-.061-.094.1m.406-1.729c-.03.083.019.117-.037.171-.006.004-.046-.063-.036-.104.01-.042.11-.294.12-.3.121-.054-.036.204-.047.233m.084-.258.08-.3.033.02zm-1.043 6.194c-.087-.024-.084.114-.077.167.028.19-.023.316.07.375.031-.12-.035-.186-.037-.243-.001-.124.066-.14.044-.299m.077.714c-.008.053-.054.041-.052.11.001.071.029.267.061.331.033.065.091.033.129.08a9 9 0 0 1-.138-.521m.275.991c-.024-.097-.141-.18-.058.032.004.01.08.066.07.143-.01.05-.04.028-.047.093-.006.066.147.151.035-.268m.759 1.967c-.02-.037-.077-.06-.074-.039.026.17.163.207.074.039m-.198-9.29.001-.004.002-.001zm.031 8.917.147.19-.027-.152zm.097-.2c-.052.016-.09.048-.078.151.055-.008.067-.077.078-.151m.433 1.15c.006.115.217.067.065-.02-.014-.008-.065.011-.065.02m-1.052-7.854v-.003l.01.006zm-19.49 14.064c-.042.098.174.055.18.036.025-.087-.151-.105-.18-.036M37.47 27.53c-.021-.296-.184-.282-.206-.296-.112-.075.011-.159.003-.183-.039-.116-.14.081-.137.099.042.272.134.158.176.17.092.025.092.217.164.21m-.258-5.579.015-.058.006.01.048-.106-.008.137zm2.04 9.904c.076-.136-.174-.467-.122-.208.008.043.033.01.043.035.012.03.025.274.079.173m-2.336-6.454c-.049.063-.023.156-.002.265l.053-.044zm-19.753 9.661c.05.057.07.193.167.138l-.046-.178zm-.517-.62c.064.047.09-.05.147-.049.058.003.136.218.184.023.015-.06-.201-.258-.163-.374-.244.068-.017.131-.062.276-.014.043-.162.013-.106.124m22.66-2.256.048.126-.012-.13zm-4.94 4.753.027-.03.098-.052.06.021zm5.003-3.918c.052-.059-.008-.167-.064-.127-.065.043-.02.217.064.127m-.02-.4c-.03.14.081.259.064.065-.002-.011-.066-.031-.064-.065m-5.559 4.632c.112.018-.194.272-.313.294l.035-.157.037-.03.175-.094.067-.01zm-18.438-5.787c-.055.355.166.295.119.114-.006-.022-.081-.143-.119-.114m22.457-3.203c.02-.018.18.01.019-.093-.056-.036-.085-.01-.154-.157.07.134-.03.157-.031.176-.002.15.166.223.202.176.01-.014-.054-.084-.036-.102m-.377-6.723.065-.221.047.036zM15.569 32.604c.07-.02.213-.345.214-.382.006-.233-.194-.244-.22-.45-.133.142.042.2.019.345-.008.043-.205.013-.16.187.014.056.154.208.147.3m17.76 5.005c.059 0 .018.154-.123.113q-.008-.005-.008-.018-.002-.012-.007-.015a.6.6 0 0 0-.11.02c-.11.025-.254.058-.22.005l.19-.096q.03.005.056.016a.2.2 0 0 0 .077.018.3.3 0 0 0 .13-.037l.02-.008zM13.98 30.566c-.004.018.01.05.028.079.026.039.063.077.08.072.03-.008.035-.04.04-.07l-.025-.05.03.036c.007-.03.018-.052.065-.028q.124.17.241.343l.1-.133-.095-.032-.013-.098c.29-.114.182.281.42.378-.052.035-.104.073-.155.106.153.346.074.094.186-.014.064-.061.07.087.094.098.17.07.056-.326-.022-.425-.076-.1-.271-.173-.36-.28-.052-.063-.008-.112-.062-.176l-.072-.087c-.07-.083-.159-.183-.232-.22-.035-.018-.105.084-.11.1-.008.04.072.039.083.068.01.03-.04.046-.02.078.012.018.063.07.109.113q.037.036.077.067c.097.03.064-.111.128-.017-.164.252-.229.114-.273-.002-.015-.045-.029-.09-.044-.097-.114-.052-.126-.016-.118.032.034.065.066.13.063.139l-.011.018q-.024.027-.042.028c-.02.005-.039-.019-.055-.05-.017.003-.033.008-.036.023zm-2.407-3.3c-.139-.141.07-.175.094-.153.1.096.024.313.242.2.067.054-.062.056-.035.102.056.09.225.09.288.182-.032.042-.055.099-.099.13-.12-.044-.459-.428-.49-.461m25.527-.904q.068.166.142.326c-.05-.16-.072-.22-.03-.338zm2.256 5.393c.006-.011-.068-.193-.108-.179.002.038.07.258.108.179m-26.85-3.589c-.153-.116-.053-.247.052-.14.03.03-.001.13-.052.14m8.522 10.692c.02.009.303.081.303-.025-.149-.054-.305-.11-.455-.169 0 .034.033.08.051.098.045.047.025.067.101.096m-8.861-10.966c-.02-.05.054-.083-.04-.13l.015-.017c.044-.03.128.001.153.033 0 .002-.04.027-.035.037.05.065.174.13.073.217.003-.111-.147-.09-.166-.14m25.292-.783c-.034-.12-.127-.17-.17-.131l.104.232zM22.694 39.225l-.082-.049.058-.02-.068-.047-.11.138zm-7.813-7.32c-.011.114.165-.03.157-.086s-.104-.113-.05-.198c.074.036.067.134.135.194.082.072.118-.081.078-.09-.081-.016-.123.083-.13-.072-.007-.132.225-.13.182-.22-.055-.115-.131-.008-.17.07l-.171-.163c.127.192.017.293-.115.427.032.091.093-.05.13.042.014.033-.044.086-.046.096m2.036 2.993c.076.15.203.086.079-.012-.026-.02-.052-.006-.079.012m20.37-8.175q.023.1.05.203l.036-.007-.049-.202zm-.204-1.402c.015.096-.01.263.05.26l.006-.258zm-.004-.327.016.08-.002-.068.024.141.012-.141.002.065.004-.074zm-5.474 13.533c-.009.012-.04.024-.082.036l-.1.022c-.05.01-.097.019-.121.028.008-.132.106-.144.188-.128.066.009.12.035.115.042m-9.653.892c.373.109.28-.31-.017-.363-.04.077.046.045.041.092-.005.045-.079-.025-.06.066.13.055.079-.056.18-.053-.03.044-.014.142-.035.18-.041.07-.107-.02-.109.078m-8.497-9.793-.001-.004c-.011-.075.148-.228.146-.242-.048-.143-.245-.06-.25.054-.002.067.154.04.05.133-.046-.096-.084-.111-.112-.102zm-1.947-2.539c-.098.056-.162-.108-.222-.154.12-.015.16.075.222.154m26.203.834c.059.142.087.093.12.107l-.036-.099zm-27.46-3.023c.001.021.07.047.082.036.092-.077-.082-.137-.081-.037m3.576 5.052c.112.045.196.262.309.146-.047-.21-.044-.116-.161-.128-.08-.008-.063-.144-.148-.018m7.6 9.023-.136-.054.028.106zm10.464-.45c.01.07-.248.139-.33.132q-.027-.003-.018-.019l.01-.003c.144-.046.125-.068.103-.095-.012-.013-.024-.027-.019-.046.03-.1.244-.041.254.031m5.565-11.661v.145l.066.037-.03-.124zm-24.278 2.423c.029-.227.096-.322-.018-.233.01.033.006.058-.017.058l-.021-.027-.066.055zm-2.807-3.316c.016.054.175.042.098-.054-.004-.004-.107-.002-.067-.06.028-.038.07-.038.101-.084.035-.043-.19-.034-.132.198m.13.238q.087.123.191.243c.009-.04.077-.07.073-.111-.004-.043-.037-.148-.08-.167-.042-.019-.133.042-.184.035m20.137 13.147c-.051.027-.166.087-.154.036.006-.02.039-.027.068-.033.035-.006.065-.012.04-.039-.133-.028-.226.015-.354.073l-.012.005q0 .002.014.01c.022.013.062.036.049.062l-.025-.002c-.065-.001-.05-.02-.14 0l-.055.017a.1.1 0 0 0-.037-.006.4.4 0 0 0-.073.008.3.3 0 0 1-.123.004c.01-.04.103-.04.178-.04.047-.001.088-.002.098-.012a.1.1 0 0 0 .007-.034c.004-.03.009-.069.02-.084a.1.1 0 0 0-.043.015c-.036.016-.079.035-.08.004v-.009c-.004-.049-.01-.129.072-.154q.01-.002.022.007c.009.006.02.013.034.01a.3.3 0 0 0 .062-.022c.028-.012.056-.025.082-.027q.012 0 .03.01.023.015.044.013a.1.1 0 0 0 .04-.03c.03-.028.067-.065.115-.068.032-.002.113.067.06.102-.032.022-.044.012-.054.003a.02.02 0 0 0-.018-.007.2.2 0 0 0-.054.02c-.044.02-.086.039-.102-.018-.045.013-.022.073-.006.082.046.03.449-.033.476-.072l-.006-.006c-.017-.01-.055-.035 0-.113.042-.06.111-.08.143-.09q.015-.004.017-.007 0-.005-.017-.02c-.043-.042-.133-.129.107-.115.022-.016.012-.03.003-.042-.007-.009-.012-.016-.005-.023a.5.5 0 0 1 .126-.068l.035.042a.1.1 0 0 1-.025.016c-.047.027-.143.08-.126.11.113-.067.164-.066.274-.064q.01 0 .026.005c.036.008.09.02.087-.042 0-.014-.02-.011-.043-.009-.03.003-.063.007-.058-.026a.3.3 0 0 0 .126-.097l.006-.007c.023.008.013.026.004.043-.007.01-.013.02-.007.026q.063.012.128.015a1 1 0 0 0 .114-.044c.03-.014.062-.027.085-.036a.4.4 0 0 1 .084-.02c.02-.005.038-.008.045-.011a.1.1 0 0 0 .038-.035.2.2 0 0 1 .053-.042.1.1 0 0 1 .043-.002l-.02.032-.026.045a1 1 0 0 1-.049.078l-.023-.01c-.04-.035-.134-.002-.268.068-.032.016-.031.028-.03.039q.004.01-.006.019l-.028.019a1 1 0 0 1-.13.069c-.066.032-.134.064-.184.1.01.02.04.003.063-.011a.1.1 0 0 1 .027-.013c.016 0 .053.056.01.087-.079.056-.12.034-.16.013a.14.14 0 0 0-.06-.021c-.147-.002-.311.098-.186.16-.122.003-.122.014-.121.03 0 .008 0 .017-.009.026-.076.08-.099.082-.139.084a.3.3 0 0 0-.077.012zM10.906 26.82c.128-.068.093-.144.072-.167-.073-.083-.01-.205-.152-.16-.033.1.073.082.084.114.022.071-.071.142-.004.213m2.013 2.002c.02.002.042.063.109.137l-.038-.051a.1.1 0 0 1 .085.02c-.065-.073-.111-.115-.145-.112zm0 0q-.008-.002-.015.006v.001zm10.047 10.664-.037-.118-.08.144zm9.17-1.097c-.039.005-.082.005-.085-.013a.23.23 0 0 0 .116-.078v.005l-.002.003zm.367-.116a.1.1 0 0 1-.04.01l.006-.024a.3.3 0 0 0 .013-.085l.08-.03c.026.035.024.09-.059.129M20.696 13.438l.082.071c-.02-.022-.04-.057-.06-.09zm-9.793 7.55c-.098.038-.046.208.056.197.118-.01.1-.255-.056-.197m6.106 14.344c-.068.129.014.352.046.142.009-.053-.03-.097-.046-.142m-6.781-10.225a2 2 0 0 1-.086-.12l-.07.083q.078.02.156.037m.185-2.794c-.209.054-.101.486.023.25.022-.038-.04-.03-.035-.057.005-.03.165-.233.012-.193m-.21 2.189c.092-.046-.246-.16-.11-.03a.3.3 0 0 0 .11.03m.56-3.017c.122-.143 0-.367-.064-.122-.002.014.086.083.064.122m-.197.494.01-.16-.068.135zm21.42 16.508a.6.6 0 0 1 .135-.06l-.01.022-.013.029zM12.6 28.571v-.005l-.002-.005-.002-.002zm.004.122c.044.01.022-.037-.004-.122-.006.017-.054.032-.045.044q.024.04.049.078m-.37-.256.048.043c.041-.029.08-.071.107-.065l.021.008a.2.2 0 0 0-.057-.11c-.034.056-.07.109-.12.124M9.94 25.206c.091-.004.17-.02.223-.076a.4.4 0 0 0-.223.076m2.418 3.301c.037-.007.052-.034.053-.067-.015.02-.069.044-.07.047l-.005.02zm-.438-.42c.019.013.041.018.062.006.038-.023.023-.066-.002-.099-.063-.039-.051.046-.06.093m.194.235q.03.021.054.048c.048-.037.051-.077.032-.11a.2.2 0 0 0-.086.062M29.087 8.867c.077-.005.207-.098.248-.04-.077.033.067.13.141.088.071-.036.056-.064-.01-.091.259-.031.556-.108.764-.053-.039.015-.044.042-.049.07v.002c.082-.003.13.04.224.018-.016-.039-.048-.06-.08-.078.207.007.498-.081.642.019-.16-.003-.28-.008-.237.126l.195-.029c.101.082-.096.137.02.15.111-.036.135.035.243 0 .008-.09-.018-.174-.115-.29a8 8 0 0 1 1.105.024c-.126.05-.258 0-.32.005-.056.004-.051.053-.1.064.009-.004-.138-.06-.117.006l.147.083c.155.027.09-.078.217-.067.06.066.388.141.317 0-.072-.007-.19.03-.175-.06.125-.008.18.052.325.034.051.058-.093.097.029.122.052.002.024-.052.066-.057.025.07.076.117.14.153.103.059.243.088.37.132-.124.027-.277.137-.405.054.011.032 0 .046-.017.057-.013.01-.03.016-.04.03-.1-.056-.39-.017-.313-.07.026-.019.122.019.107-.028-.124-.08-.374.077-.123.118H32.1c-.07-.129.077-.118.06-.212-.05-.034-.18-.008-.221.034.192.014.016.017.108.118-.188-.05-.29.054-.46-.01.118-.012.203-.105.288-.197-.09-.036-.27.041-.268.135-.092-.004-.183-.05-.178.044a.4.4 0 0 1 .132.05c-.336.09-.706.04-1.226.17-.076-.012-.14-.045-.225-.044-.105.079-.292.029-.36.023s-.166.025-.2.021c-.208-.03-.338-.178-.506-.263h-.003c.067-.105-.004-.25.046-.36M11.775 27.83c-.049-.07-.329-.07-.103.023l-.049.074v.004zm-.1-.076-.005-.001.005.008zm-.642-.492c.023.047.04.113.104.117l.064-.148a.2.2 0 0 1-.121-.023zm25.682 9.05c-.102-.018-.336.106-.145.074.048-.008.1-.049.145-.074M10.187 26.164a.7.7 0 0 0 .13-.122c-.002-.142-.121-.074-.197-.044l.03.055h.005c.044.004.037.025.016.05l.01.03zm3.213 3.551a1 1 0 0 1 .071.074c.02-.023.007-.056-.069-.11zm1.131 1.46.01-.071-.167.033.036.055zm-1.647-2.062c.02.035.047.046.079.06a1 1 0 0 0-.09-.086zM27.966 39.76l-.128.043.056.06zm-17.78-17.444c-.017.004-.045.2.023.218.029-.03.093-.25-.023-.218m.644-1.849c.059.028.205.142.252.123.075-.031.056-.136-.04-.162-.028-.008-.156.071-.212.04m3.442 10.384c-.017.005-.046-.037-.06-.038q.014.026.026.053zm24.656 3.81-.075.074.037-.035zm-.14.315c-.004-.023-.06-.017.004-.065l.057-.011q.045-.064.092-.125l-.137.008c-.132.13-.208.2-.275.265.047-.01.203-.146.237-.19.046.073-.143.126-.141.216a.4.4 0 0 0 .102-.038l.037-.035zm.58-.7.137-.235a.2.2 0 0 1-.046.035q-.01.003-.017-.013-.084.114-.175.223.05-.003.101-.01m-.471-19.465.069.055-.016-.069zm-1.756 21.3c-.16.108-.13.188-.006.058.025-.027.017-.043.006-.058m2.658-2.645-.041.084.003.002zm-27.792-13.97c-.083-.002-.125.103-.048.123.076.02.148-.12.047-.123m1.182 10.646c.043 0 .196-.028.236-.068.063-.063.054-.182-.025-.206-.022.016-.045.025-.063.008-.048.03-.1.098-.126-.026a.3.3 0 0 1 .007-.055.7.7 0 0 1-.165-.166.17.17 0 0 0-.086.068c-.04.062.08.14.108.195.011.023-.025.073-.023.078.023.058.081.033.121.07.018.017-.027.102.016.102m15.22 9.673-.226.069.101.005-.063.028.086.007zM10.34 21.576l-.06.045.092.031-.042-.156-.068.025zm-.525 3.935.002.01c.04-.019.086-.028.091-.034.074-.085-.08-.127-.178-.122a.5.5 0 0 1 .04.09l-.123.022c.056.013.11.021.168.034m-.14-3.427q-.045.202-.076.41c.141.018.166.139.29.15.07.006.063-.124.092-.17.012-.019.072-.008.075-.012.033-.041-.019-.08-.01-.128.003-.022.096-.015.072-.05s-.126-.157-.178-.177c-.094-.037-.2.037-.14.129.029.045.178.053.073.14-.015.01-.175.037-.178.094-.075-.087-.021-.302.03-.386a.06.06 0 0 0-.05 0m4.919 9.998c.02.1.129.116.17.014.011-.03-.046-.206-.004-.258-.038.057-.178.182-.166.244m-4.51-5.894c.011.018.033.016.058.003l-.03-.032c-.017.014-.03.025-.028.029m5.388 7.17c-.024.086.11.184.119.069.006-.094-.094-.155-.119-.069m-3.408-4.754c.03.11-.002.154.099.213-.003-.076-.006-.232-.1-.213m18.238 10.964a.4.4 0 0 0 .06-.04.4.4 0 0 0-.11.02l.04-.005zM10.86 27.498c.056-.048.165-.125-.003-.089a.2.2 0 0 0-.048.017c.01.016.064.033.051.072m-1.137-1.95a.13.13 0 0 1 .043.064c-.015-.03-.005-.052.015-.069v-.014zm4.132 5.26q0-.023-.002-.047v-.036l-.078.053-.024-.087-.06.078.12.029zm17.457 8.58-.148.05c-.082.028-.39.135-.45.132-.175-.007-.15-.1-.238.06-.092.034-.031-.047-.075-.051-.009 0-.04.03-.073.058l.011.027q.504-.024 1.012-.089zM9.848 26.291c.056.021.14.003.189-.034l-.055-.057a.1.1 0 0 1-.03.047c-.043.031-.156-.017-.104.044m29.386-7.044c.019-.054.034-.119.05-.186l-.048.012-.01.093-.074-.024-.064.112.077.148.025-.04zM10.23 26.618l-.04-.07-.034.026q0 .015-.005.034l.024.04zm.274-6.294c.079-.004.16.056.256.122.066-.045-.07-.081-.003-.132.023-.018.084.03.093.03.097-.005-.07-.154-.116-.139-.045.016-.065.119-.152.082.009-.08.093-.089.126-.165q.014-.035.002-.056l-.064.076c.011.021.01.035-.04.05zm28.163.623q0-.069.01-.144l-.07.016-.032.07q.03.008.055.024.02.015.037.034M9.706 23.719c-.054.044-.168.127-.091.19.06-.082.114-.079.091-.19m.479 3.098.018-.02c.045-.03.176.022.098-.05a.4.4 0 0 0-.071-.014.2.2 0 0 0-.077.06zm27.898-1.994a.5.5 0 0 1-.123-.13l-.081.146-.03-.013v.008q.033.041.053.09c.048-.091.089.003.127.101v-.02q.017.059.033.105l.016-.104v.017l.013-.112zm1.526-6.945-.07-.05-.007.196-.077.053.058.095q-.06.075-.124.146l.101.082.001-.03c.005-.04.054-.238.1-.384zm.684 14.305-.002.038.008-.01zm-2.404-7.645-.03.045v.013l.04-.028zM9.525 22.894q-.015.117-.026.239c.074.046.084-.051.094-.131q-.037.054-.078.107l.026-.179.062.014q.004-.026.014-.034c.038-.028.195.01.139-.093-.021-.039-.102-.01-.118.033-.053-.171-.101-.144-.134-.054zm4.276-4.89c.117.075.347-.008.145-.047-.05-.01-.1.03-.145.047m-3.414 2.956.032-.045-.058-.11-.063.007zm-.508.48c.032.002.074-.046.1-.058.047-.019.062.078.1.074l.001-.001c.04-.006.098-.115.079-.14-.044-.055-.139.028-.14-.072.058-.1.123-.206.188-.302l-.079-.034q-.14.259-.249.533m29.69-2.889c.043-.104-.07-.058-.078-.15l-.117.18.083-.034.048.074a.12.12 0 0 0 .064-.07M9.994 26.458a.2.2 0 0 1 .007-.04l-.013-.029-.053.036.023.05zM17.19 37.31c.089.024.155.044.042-.181l-.009.004c.038.086.039.148-.033.177m23.033-3.755a.1.1 0 0 0 .007-.042l-.024.071c-.058.057-.082.092-.086.118a.5.5 0 0 0 .103-.147M9.538 25.476l.013-.009-.02-.003q0 .005.007.012m30.19-8.32.005-.002.003-.02zm-28.986 10.39h-.006l.001.002zm2.388 2.642v-.003c.001-.008-.03-.041-.069-.071zm26.556-14.606.016.02-.01-.05zm-25.464 16.19a.15.15 0 0 0 .004-.072.13.13 0 0 0-.106-.11zM39.8 16.282l.011.012v-.062zm-28.818 3.485q.03.013.08-.008c.045-.021.152-.18.234-.18-.007-.018-.031-.038-.063-.058q-.13.12-.251.246m28.921-1.947c-.045-.05-.093-.086-.131-.133l-.039.195-.034-.01c.009.01.02.019.032.016.02-.004.163.036.172-.068M28.065 40.35l-.036.029.06-.001zm-8.549-1.011-.015-.004v.006zm-9.22-18.687c.142-.132.134-.135.074-.139l-.085.13zm1.173-1.345a.55.55 0 0 0 .218-.108c.06-.048.018-.065.02-.096q-.12.1-.238.204m1.512-1.242q-.118.101-.239.202a.1.1 0 0 1 .064.002c.04.014.002.17.11.11.049-.067-.042-.093-.037-.154.005-.05.14-.112.102-.16m18.375 21.524-.114.12.133-.025zm6.758-14.44-.013.02q.007 0 .013-.015zm-24.743-7.053c.15-.079.102-.214-.005-.084-.022.028-.01.056.005.084m-1.586.942c.059-.022.135-.038.168-.088q.03-.05.02-.066-.095.076-.188.154m2.745-1.814c0 .03.01.056.03.066.06.03.079-.057.08-.124zm25.448-2.29c-.007-.178-.201-.37-.221-.23-.023.163.231.516.221.23m-11.99-6.213c.178-.094 1.04-.23 1.127-.237.344-.05.158.125.102.134-.237.04-.447-.1-.526.116-.144.034-.008-.071-.1-.065-.179.013-.351.152-.535.176-.022-.04-.072-.078-.068-.124m7 .656c-.05-.026-.14-.007-.12.014.144.164.347.109.12-.014m-7.998-.396c.292-.106.367.018.13.083-.068.019-.164-.034-.13-.083m.68-.221c.084-.001.052.072.207.005l.005.009c.014.048-.121.117-.193.13-.003 0 .005-.043-.013-.04-.136.024-.336.114-.352.002.14.033.261-.104.346-.106m11.82 5.255c.125.355.402.555.156.112-.014-.025-.118-.03-.156-.113m-.895-1.585c.01-.265-.595-.758-.34-.338.043.072.058.01.092.052.035.041.243.477.248.286m.367.627q.098.123.194.25l-.143-.268zm-6.442-4.69c-.116-.03-.285.066-.013.093.011.002.129-.057.194.01.041.044-.006.066.05.12h-.002c.013.013.034.015.053.01.035-.009.063-.043.02-.092-.037-.041-.124-.093-.302-.141m-3.09.14c.034-.098.328-.077.464-.1-.118.095-.286.086-.464.1m1.883-.261c.053.028.018.088.092.11s.29.065.375.053c.086-.014.09-.106.163-.132a8 8 0 0 0-.63-.031m3.205.865q.16.038.32.082l-.145-.142zm1.322.695c.076.137.346-.039.08-.062-.026-.002-.086.052-.08.062M30.5 8.19c-.05.121.102.135.161.133.213-.008.326.1.428-.016-.117-.076-.215.004-.276-.006-.133-.022-.13-.121-.313-.11m9.976 7.434c-.048.034-.203.053-.21.145-.011.146.07.281.137.194.023-.027.025-.314.073-.339m-5.992-6.804c-.051.062-.071.127.021.223.061-.055.024-.136-.021-.223m5.66 9.706c.071-.1.069-.29-.004-.218-.072.072-.085.34.004.218M28.685 7.922c.168-.158.01-.19.367-.105-.349.181.144.208.14.335 0 .07-.165.046-.215.089-.076.065.033.143-.057.19-.089.046-.4.021-.502.04-.192.037-.354.111-.512.147-.16.035-.414.029-.518.046a.8.8 0 0 0-.216.066c-.092.068-.014.151-.15.188-.028-.094-.252-.196-.06-.306-.03.005-.07-.004-.098.005-.131.047-.03.16-.087.2-.097.066-.046-.057-.05-.061-.12-.05-.048.027-.084.08-.019.027-.207.13-.25.14-.042.009-.001-.058-.03-.053-.122.025-.25.049-.366.097-.116.05-.159.16-.192.03-.004-.02.057-.06.023-.1-.011-.014-.129-.055-.004-.143a.5.5 0 0 1 .118-.06l-.034.067.1-.027c-.007.05-.014.104-.016.152.055.036.085-.043.093-.045.117-.015.128.082.179-.052q-.12.01-.239.014l-.012-.07.045-.013-.04-.048c.11-.026.23-.03.336-.026l-.084.115c.126-.061.064.018.163.023-.001-.118.056-.107.136-.121.079-.014-.04-.068.036-.1.158-.066.459-.004.47-.176.227.048-.025.125-.031.168-.027.184.383.009.433-.098.069.041.082.117.238.062.213-.075-.272-.067.021-.145.198-.052.181.035.282.035.186-.001.507-.097.38-.193-.052-.038-.186.046-.246.009-.033-.022.006-.269-.143-.055-.014.022.088.09-.05.118-.04.009-.183-.041-.292.005-.048.02-.238.173-.367.164-.141-.01.059-.08.002-.105s-.223.02-.232-.059c.075-.11.11.023.14.01.11-.052-.009-.162.161-.186.037.066-.078.291.156.187 0-.003-.065-.035.012-.068.132-.058.394-.13.564-.159-.025-.105-.233-.057-.35-.109.227-.066.484-.146.664-.071l-.257.09q.153-.036.306-.068c-.034.051-.248.203-.084.2-.001-.118.223-.176.303-.25m-9.64 31.765-.004.024.287.136a5 5 0 0 1-.283-.16m6.732-30.476c.058-.004.12-.015.179-.022-.023.088-.085.096-.187.079.004-.02.003-.038.008-.057m12.9 3.019c.002-.02-.24-.314-.291-.283.026.061.288.428.291.283M25.214 9.4q.195-.065.39-.12c-.055.113-.45.188-.39.12m15.915 22.972a1 1 0 0 0-.033-.119 1 1 0 0 0-.015.11zm-1.606-18.94-.032-.124-.068.046q.098.09.194.182l-.004-.102zM8.699 24.75c.012.06.021.139.032.228q.028-.094.06-.183l-.081-.105zm15.779 16.615c-.043-.158.126-.242.261-.262l-.052-.05-.026-.002-.147.117-.228-.13-.115-.006-.096.157-.169-.073c.077.068.204.17.29.093.042-.04-.008-.205.165-.12.129.064-.025.187.116.276m8.654-33.223a.5.5 0 0 0-.217-.084c-.172-.018-.247.101-.271.114-.17.089-.157-.115-.19-.12-.153-.022-.023.223-.005.231.308.121.27-.06.319-.103.035-.031.08-.037.127-.033.097.008.196.053.237-.005M25.1 41.261l.075-.14-.195.022c.045.035.05.083.083.117zm14.061-29.644c-.087-.206-.34-.25-.322-.116.01.077.212.156.09.192-.15-.28-.214-.193-.224-.179-.08.103-.256-.048-.326.035-.038.047.136.217.18.3.02.034-.019.068-.015.075.04.083.111.095.168.167.027.033-.02.1.036.131.055.03.246.108.29.091.081-.031.038-.215-.102-.292-.069-.037-.14.073-.205-.128-.009-.026.026-.19-.044-.265.141.05.387.38.465.535.085-.036-.11-.252-.142-.366-.027-.096.157-.162.151-.18M20.424 40.35l-.016.016c-.004.055-.007.127.075.158zm3.308.723a.3.3 0 0 1 .057-.008l-.087-.039zm15.46-18.706c-.128.07-.259.433-.087.223.043-.053.06-.151.087-.223M9.597 27.36l-.017-.027-.015-.004zM22.4 40.952c-.03.058.236.054.295.043.025-.005.048-.03.072-.049l-.01-.025-.125-.013-.207-.02a.4.4 0 0 1-.025.064M25.228 9.08c-.16-.108.297-.252.486-.289l-.128.04.08.077-.135.059c.064.014.123.034.184.05-.078.178-.112.093-.29.132-.115.025-.143.087-.277.14-.63.248-1.245.575-1.881.842-.047-.111-.044-.146.067-.214q.016.053.028.105.108-.07.212-.143l-.235.035.13-.073c.04-.021.033-.072.09-.091.124-.042.331.028.449-.064.068-.053-.082-.136.113-.176-.073.137-.119.248.146.095-.19-.014-.052-.035-.007-.102.027-.042-.208.067-.073-.05.027-.024.494-.271.5-.183.015.185-.017.174.265-.04-.42.082-.094-.169.1-.185.098-.008-.032.128.176.035M31.2 40.517c.092-.016.169-.095.25-.155l-.097-.021-.056.133-.128.015c.002.018.007.032.031.028m2.99-32.08c.007-.036.223-.16-.06-.109-.099.019-.107.07-.318.004.2.054.106.176.122.194.127.14.383.059.388-.022 0-.023-.137-.033-.131-.068m-12.01 32.42-.012-.002.01.005zm8.739-.26c.09.008.163.01.183-.1l-.233.023zm10.099-24.97c-.02-.222-.118-.161-.17-.1a5 5 0 0 0-.133-.407c.095.396-.041.411-.19.448.006.155.097.033.104.197.002.058-.064.064-.068.075-.045.136.146.142.158.06.012-.083-.055-.265.013-.32.058.13.023.254.058.412.04.19.124.028.094-.03-.062-.115-.126-.03-.086-.245.03-.187.233.082.22-.09m-18.391-5.271c-.165-.08.268-.165.31-.18.12-.05.118-.139.226-.128.01.002-.036.115-.09.144-.057.03-.43.17-.446.164m9.276 30.03c-.066.003-.06-.082-.165-.002l-.006-.01c-.023-.055.066-.138.12-.155.002 0 .006.05.02.047.102-.03.238-.134.28-.005-.12-.037-.182.121-.249.125m-5.338.973c.013.011.02.005.021-.063l-.056-.012zM30.39 7.947c.061.075.174.047.309.035l-.035-.082q-.137.022-.274.047m9.785 6.418.035.098.129.087.015-.08zm-17.608-4.024-.42.222-.006-.059q.212-.083.426-.163m18.246 4.162c-.069-.19-.273-.453-.364-.655-.054-.12-.003-.14-.06-.26-.085-.181-.237-.497-.36-.643-.044-.052-.123.013-.127.03-.007.04.088.108.102.153s-.047.02-.021.078c.027.057.2.361.216.381.107.116.077-.076.144.089-.277.222-.3-.324-.363-.395-.224-.264-.116-.006-.112.066.004.071-.108-.048-.117-.004v.002c-.008.044.093.258.127.274.076.032.018-.18.127-.04.09.198.174.406.252.613l.116-.074-.102-.122-.01-.127c.325.114.185.492.42.827a4 4 0 0 1-.17-.008c.03.132.048.213.06.258.03.104.037.048.06-.016.014-.04.036-.08.073-.09.025-.006.04.014.05.044.022.064.023.16.038.186.096.169.119-.006.092-.226a1.7 1.7 0 0 0-.071-.341m-2.591-3.41c.548.392-.2-.449-.304-.453-.177-.02.215.296.235.363.021.065-.103.13.058.219.06.034.06-.063.011-.129m-1.229-.997c-.034-.086-.103-.262-.234-.28.09.134.064.17.234.28m-13.654-.182-.005.003.001-.002zm-1.462 31.042-.139-.034-.003.006.163.049zm18.268-20.284c-.147-.211-.113.129-.248.236-.04.032-.07-.177-.14.015-.015.13.075.048.095.119s-.124.405.051.242c.054-.05.132-.526.242-.612m-.652 1.087c-.087.26.015.335.042.079.006-.055-.017-.069-.042-.08m-27.89 8.57c-.108-.148-1.395-1.023-.798-1.046q.008 0 .008-.002c-.031-.195-.74-.098-.533-.588a.1.1 0 0 0 .012-.035c-.004-.014-.04-.04-.082-.068-.067-.046-.152-.106-.14-.145a.3.3 0 0 1 .11.08.4.4 0 0 0 .06.051c.025.017.049.02.072.024a.16.16 0 0 1 .11.058c.098.111.01.105-.031.103h-.017l.008.012c.086.124.152.216.287.262.035-.01.011-.031-.017-.056-.024-.021-.051-.045-.047-.065.014-.052.089.063.123.114l.015.023a.4.4 0 0 0 .066.052c.035.023.055.036.089.146q.004.02-.004.028c-.008.015-.013.025.1.09-.144-.007-.037.166.102.237.022.01.044.01.067.01.045 0 .093-.001.144.088.027.048-.031.082-.047.075a.1.1 0 0 1-.02-.025c-.016-.024-.036-.053-.053-.04.03.057.082.12.131.18.043.053.085.105.112.151.005.009.001.014-.002.02-.033.052.165.23.218.212h.025a1 1 0 0 1 .011.091l.005.052.003.035c-.071-.023-.046-.071-.086-.124M31.577 7.921q.227-.026.458-.041c-.215-.015-.293-.01-.406-.116zm9.565 8.534c-.157.028-.064.316-.157.474-.028.046-.138-.23-.202.046-.02.088-.025.445-.089.548.052.061.332-.167.353-.213.142-.289.021-.55.095-.855m-15.128-7.67-.006.002.003-.016q0 .008.003.014M20.54 40.85c.107.096.327.02.258-.086-.082-.125-.428-.07-.258.086m18.606-16.644c.065-.08-.026-.301-.085-.25-.083.073.07.268.085.25m-6.47-16.357c-.164-.039-.293.052-.283.128q.165.007.335.02zm-1.371 33.543c-.094.193.037.22-.261.143.229-.233-.162-.234-.188-.381-.016-.082.117-.065.146-.118.044-.08-.06-.166-.001-.226.057-.058.307-.043.382-.07.142-.05.251-.14.368-.185s.321-.04.4-.061a.4.4 0 0 0 .158-.078c.056-.078-.029-.174.071-.216.047.108.251.227.127.351.022-.005.057.005.076-.005.093-.052-.017-.183.019-.227.06-.074.05.065.054.07.109.06.032-.03.047-.089a.5.5 0 0 1 .164-.15c.03-.009.015.066.036.06.091-.021.186-.042.265-.09s.086-.17.143-.02c.009.023-.03.065.006.113.012.016.114.072.038.162a.24.24 0 0 1-.077.06l.009-.075-.07.025a3 3 0 0 0-.026-.171c-.052-.045-.056.044-.061.044-.088.012-.121-.1-.128.05q.092-.005.184-.003l.027.081-.033.012.043.057a.7.7 0 0 1-.257.011l.038-.126c-.084.063-.055-.024-.134-.033.03.134-.018.12-.077.133-.06.014.048.078-.004.112-.108.07-.363-.002-.327.196l-.02-.006c-.095-.031-.077-.073-.047-.112.022-.029.05-.055.047-.076-.01-.082-.059-.1-.115-.086-.09.023-.2.128-.207.204-.066-.046-.096-.133-.206-.067-.15.09.233.071.019.168-.145.064-.153-.037-.232-.035-.148.006-.376.13-.253.236.05.042.135-.06.191-.018.031.024.06.311.127.059.006-.025-.092-.1.01-.139.03-.01.157.044.233-.013.034-.024.146-.203.253-.193.116.009-.027.092.025.12.05.026.16-.018.197.048l.006.016c-.032.127-.095-.024-.115-.009-.076.062.047.187-.084.216-.047-.075-.011-.336-.173-.213-.002.003.061.04.008.08a1.6 1.6 0 0 1-.413.197c.046.121.2.06.307.116-.166.082-.35.184-.511.105l.182-.114-.226.091c.015-.061.148-.246.019-.237.029.138-.134.214-.179.306m-1.453-.153c.009-.149-.11-.143-.153-.132-.157.04-.267-.065-.314.088.105.068.159-.041.206-.04.105.006.127.122.261.084M26.018 8.725l-.076.022.007-.014-.152.016.169-.09zM22.689 41.27c.11.191.61.125.448.016l-.132-.019c-.006.01-.012.018-.028.016-.04-.005-.379-.17-.288-.013m-1.349-.33c-.268-.116-.544.034-.153.077.022.002.085-.098.153-.077m.813.178-.242-.003.221.063zm4.56.35-.083.03.002.003h-.012l-.15.051.147.074zm12.751-19.233c-.022.125-.118.307-.033.355l.115-.26zM28.332 41.468c.09 0 .186-.161-.016-.112-.01.003-.076.106-.141.052a.1.1 0 0 1-.025-.044l-.056.052c.041.029.115.051.238.052m6.19-33.318c-.178.004-.319-.043-.506-.132a9 9 0 0 0-.251.192c.291.104.125-.102.376.006.047-.027-.106-.06-.072-.072.166-.063.284.14.478.151zm-.827 31.608c-.1.04-.185.067-.28.099.016-.123.31-.169.28-.099m-6.308 1.69c.134.316.382.202.355.009l-.205.014zm4.72-33.61q.133.023.266.05l.02-.05-.265-.052zm-6.526 33.68c-.104-.09-.209.264-.028.113.017-.014.035-.106.028-.113m3.189-.105c.158-.031.31-.066.467-.104-.022-.011-.03-.035-.041-.058l-.285.062-.102-.01c-.008.04-.014.084-.039.11m-1.933.352c.013-.093.004-.175-.091-.23-.022.09.03.159.091.23m3.498-34.063c.121-.018.318.043.334-.045a11 11 0 0 0-.316-.036zm5.573 1.166c-.12-.09-.568-.154-.15-.001l-.035.073zM32.394 7.7l.165.09q.101-.06.205-.118a9 9 0 0 0-.37.028m-2.54.004.277-.057-.262-.024zm10.066 5.2c-.068-.294-.059-.176-.204-.287-.098-.075-.092-.227-.185-.143.146.145.258.474.39.43m-2.764-3.063c.225.038-.279-.485-.45-.314.115.07.348.295.45.314M19.87 41.017c.003-.066.067-.242.01-.288-.088-.071-.218-.029-.19.077.008.032.19.147.18.211m13.882-.897c.149.138-.17.252-.308.28q.045-.015.09-.035l-.08-.093.091-.055c-.052-.022-.104-.05-.155-.072.02-.195.066-.096.195-.123.084-.019.084-.082.188-.132.476-.23.878-.496 1.37-.697.058.132.062.17-.02.23l-.043-.123a3 3 0 0 0-.15.129c.057 0 .126-.004.189-.004l-.098.063c-.03.019-.012.074-.054.087-.09.026-.27-.084-.346.001-.044.05.094.164-.055.182.031-.144.045-.262-.138-.127.158.042.05.046.027.115-.013.044.154-.046.069.066-.017.023-.345.244-.369.146-.05-.211-.02-.197-.208.018.326-.051.113.198-.044.2-.078 0-.006-.141-.151-.056m-11.015 1.383c.01.016.294.045.31-.023-.045-.03-.378-.096-.31.023m13.65-32.28c.088-.022-.138-.178-.175-.179-.141-.004.089.199.175.179m4.767 6.866c.005-.038-.016-.294-.058-.299-.16.415.02.598.058.299M27.97 41.93c.28.115.312-.17.33-.2.093-.154.14.086.165.083.114-.02-.045-.266-.06-.27-.251-.046-.173.153-.195.218-.048.142-.224.048-.24.169m-10.214-2.06c.05.102.217.148.19.051-.026-.094-.25-.177-.19-.051m17.88-.821c.153.119-.192.135-.224.147-.092.034-.075.134-.168.105-.009-.004.01-.122.051-.146.042-.025.327-.115.342-.105m-23.668-8.198c.088.106-.07.21-.035-.002l.003-.024a.1.1 0 0 1 .033.026m9.66 10.518.083.058.016-.096-.207.055.055.067zm14.06-2.291.305-.163.015.065zm-12.953 3.34c.147.09.318-.088.246-.183-.042-.056-.2.053-.143-.08.22.1.217-.024.217-.046 0-.154.176-.175.18-.304.002-.072-.182-.067-.248-.096-.028-.013-.021-.072-.026-.076-.064-.033-.113.019-.181.011-.032-.004-.037-.098-.084-.074s-.2.131-.219.185c-.033.097.082.202.202.14.059-.03.05-.182.183-.076.018.014.074.178.151.181-.11.077-.409.024-.53-.026-.034.103.186.101.258.166.061.054-.018.268-.006.278m4.425-.377c.007.042-.096.278.076.09.059-.065.047-.127.211-.146-.152.028-.128-.148-.144-.16-.132-.1-.277.113-.253.203.007.026.102-.029.11.013m7.957-2.617.004-.002v.002zm-5.125 2.085c-.064-.08-.142-.032-.239.001l.046.091q.097-.045.193-.092m3.219-1.124.004-.001.002.017zm-17.838-2.92c.066-.134-.046-.427-.068-.187-.005.061.044.128.068.187m4.235 4.138c.136.066.149-.061.139-.145.1.015.195.031.293.045-.261-.09-.212-.231-.16-.41-.098-.059-.067.09-.17.033-.037-.02-.01-.094-.016-.103-.064-.1-.156.11-.11.152.047.041.188.039.188.136-.106.009-.161-.074-.279-.09-.138-.018-.073.127-.023.114.1-.028.078-.13.19-.007.095.106-.158.222-.052.275m9.516.138q-.157.08-.318.155c.157-.037.213-.06.32.04q0-.097-.002-.195m4.098-1.288a.3.3 0 0 0 .054-.02l-.002.015.115-.007-.11.09zm-12.47.933-.074-.026-.121.077.037.064zm3.974.638c.058.056.171.175.26.1-.11-.065-.107-.118-.26-.1m3.638.088c.124-.005.19-.146.163-.23l-.24.076zm-4.826-.05c-.508.113.322.224.386.156.118-.121-.262-.093-.304-.133-.041-.039.005-.197-.133-.142-.052.02-.007.102.051.119m-3.218-.118c.144.042.399-.001.558.04.096.024.076.087.171.11.143.037.392.108.535.098.052-.004.065-.125.059-.14-.017-.037-.106.005-.137-.014-.03-.018.017-.058-.027-.074a2 2 0 0 0-.322-.053c-.121.027-.004.124-.128.08.04-.417.341-.074.413-.081.264-.029.07-.108.03-.153-.038-.046.088-.07.07-.11h-.001c-.017-.039-.189-.09-.217-.067-.06.05.085.139-.051.15q-.236-.074-.472-.154l-.025.161.123-.024.074.073c-.245.245-.368-.133-.688-.087.033-.055.065-.114.099-.168-.39-.202-.14-.038-.192.109-.03.084-.133-.035-.166-.03-.229.03.152.295.294.334m8.445.021q-.1.008-.2.012l-.001.065.2-.012zm-1.73.55c.115-.092.223-.107.375-.09l.108-.322c-.229.01-.052.166-.254.159-.023.051.09.018.071.047-.09.143-.233-.025-.364.058q.03.073.064.148m-7.99-1.037c.045-.173-.156-.153-.242-.258l-.02-.025c-.01-.016.02-.033.054-.055.036-.033.078-.075.046-.129a.2.2 0 0 0-.061-.056c-.069-.044-.374-.136-.44-.233-.077.043.013.413.045.448a.6.6 0 0 0 .328.185c.098.024.2.04.29.123m-3.145-2.371c.282-.042-.028-.162-.015-.333.005-.05.195.017.093-.131-.092-.072-.095.044-.167.029s-.225-.303-.233-.07c-.004.072.325.367.322.505m-.356-1.088c-.116-.203-.257-.161-.093-.007.036.033.065.022.093.007m14.548 3.772c-.087.035-.247-.008-.238.098q.12 0 .244-.002zm.362-.059-.196.098.204-.001zm-1.853.47-.139-.057-.108.198zm-2.708.313c.11.017.419-.179.095-.089l-.005-.098zm-10.67-4.769c-.069-.086-.106-.26-.216-.225l.077.236zm9.508 4.638c-.154.123.366.267.406-.012-.1.008-.334-.044-.406.012m.725.075c-.047.078.154.088.178.067.092-.086-.131-.145-.178-.067m-3.788-.34c.189.148.122.072.262.02.094-.036.165.085.18-.064-.158.023-.386-.109-.442.044m-2.397-.528c.021.015.187.079.207.035-.178-.322-.38-.162-.207-.035"/></g></svg>