<svg xmlns="http://www.w3.org/2000/svg" width="40" height="40" fill="none" viewBox="0 0 40 40"><g transform="translate(-4.517, -4.722) scale(1.001473)"><path fill="#3784ff" d="M21.587 8.765c-.201.026-.243-.069-.08-.076.046-.002.106.05.08.076m-1.43.09c-.226.013-.107-.096-.07-.099.16-.011.299.104.354-.038.097-.011.005.049.065.053.112.008.224-.06.34-.063h.024c.013.03.044.062.04.094-.123.038-.696.05-.753.054m.965-.04c-.055-.01-.031-.056-.137-.03-.022-.038.08-.071.132-.071.002.001-.005.029.007.03.092.001.23-.03.234.049-.091-.044-.18.032-.236.022m1.164-.003c.025-.055.067-.048.131-.015-.005.012-.006.024-.012.036a1 1 0 0 0-.119-.021m.241.011c.05-.064.316-.028.27.004q-.135 0-.27-.004m-7.629 22.908c.185.092.391.692.46.815.314.567.598.99.89 1.512.186.332.329.657.512.988l-.232.42c-.017-.053-.016-.086-.046-.14-.03-.053-.087-.192-.16-.193-.03.08.057.26.087.311.058.101.076.007.128.069s.044.22.12.29c.182.161.011-.237-.04-.298.138-.049.087.201.222.21.016-.041.029-.186-.015-.213s-.083.076-.11-.02c.037-.094.074-.197.112-.291.065.073.097.221.141.294.273.45.524.9.77 1.353q.246.596.486 1.193l.004-.018a.1.1 0 0 0 .006-.03h-.002a.2.2 0 0 0-.008-.044c-.006-.022-.012-.045-.005-.06l.028.027.058.066-.055.124.003.008-1.48-.86.392.055.02.021.02.017.032.009c.055.016.124.03.18.04l.042.007q.06.01.1.019l.01.002.005.012c.02.027.047.026.074.011l.009-.005.04.008a2 2 0 0 1 .28.073l.163.048a1 1 0 0 0 .112.019c.09.006.442.03.613.046.075.007.15-.018.18-.056l.129.019a.03.03 0 0 1 .01-.012.2.2 0 0 1 .05-.013c.039-.007.082-.015.085-.041l-.123-.002h-.009c-.027-.02.12-.075.171-.048.04.022.027.099.012.144l.06.009a.1.1 0 0 0 .014-.023.1.1 0 0 1 .029-.04c.08-.058.288-.012.202.063.055.009.063-.007.072-.027s.02-.045.09-.047a.25.25 0 0 1 .151.036q.024.015.057.025c.02.005.058.007.1.01.09.004.204.01.23.056.029.05-.018.066-.059.075l.325.046v-.049c.147-.011.174.026.15.07l.412.058.08-.02c-.01-.019-.04-.02-.07-.02-.024-.001-.048-.002-.055-.013-.059-.092.228-.189.176-.063-.013.03-.027.065-.001.09.02.018.097.031.125.024l-.001.005q.003 0 .01-.009l.017-.019a.4.4 0 0 1 .05-.048l.063-.032c.255-.115.058-.06.32.032q.03.01.065.005.03-.001.052.004.038.011.075.026a.35.35 0 0 0 .149.034q.002 0-.007-.009c-.13-.12.097.035.104.037l.012.006c.002.02-.05.03-.112.043a.5.5 0 0 0-.157.048l.074.01a.13.13 0 0 1 .089-.006c.009.003.008.01.007.018l.066.01a.03.03 0 0 0 .004-.015v-.003c.039-.009.196.006.215.029q.006.007.009.017l.175.023a.04.04 0 0 1 .018-.006q.023 0 .044.013l.087.011v-.005c.002-.01.004-.022.01-.025-.154.001-.124-.026-.091-.056.015-.014.03-.03.03-.042-.002-.017-.031-.022-.058-.027-.035-.006-.066-.012-.04-.04a.35.35 0 0 0 .202.002c.184-.04.216.062.082.055-.028-.001-.057-.003-.078.008-.025.013-.032.042-.038.067l-.01.033.005-.002c.006-.002.133-.024.146-.023.074-.002.072.007.068.022-.003.007-.006.016.001.027l.022.008c.012.003.024.006.023.012q-.002.009-.013.018l.056.007q.015-.009.03-.013c.004 0 .094.021.095.024l-.002.004.562.065.004.003.009.006.022.018c.027.021.069.053.107.077.089.06.197.084.303.067a.4.4 0 0 0 .152-.05.2.2 0 0 0 .088-.097l.004-.02.023-.025c.05-.021.05.002.05.019v.01c.004.01.017.052.023.075l.625.06q.526.047 1.054.054c-.011-.018-.017-.035.023-.056.058-.03.211.015.235.021l.015-.012a.12.12 0 0 1 .066-.04c.077-.017.432-.203.514-.169l.208-.005.074.006a.1.1 0 0 0 .027.02c.115.06.338.104.466.178-.034.02-.075.038-.111.057l.079.07-.014.03.243.053v-.004c.03-.008.042.001.05.014l.12.026.038-.016.028-.085.065.049c.064-.02.126-.026.17.017l.111-.008a.2.2 0 0 1 .08-.01c.038-.035.155-.242.333-.273l-.016.217.157-.036.04-.137.02.108.301-.017v-.002a.1.1 0 0 1 .03 0l.04-.002-.006.092.005.002a.16.16 0 0 0 .083-.015l-.032-.04.404-.096.051.06.018-.002s0 .013.002.025l.021.025h.008l.09-.172.227-.006.17.027.28.113a.3.3 0 0 1 .03-.055l.056.011.015-.037c.045.011.105.046.226-.015l-.016.2a.2.2 0 0 1 .04.028l.37-.213.166.296.41.047.044-.006-.132-.12.127-.266.247.212a.7.7 0 0 1 .22-.023l-.406.235c.166-.263.431-.386.078-.451l-.039.165-.057-.275.224-.094.064-.24.162.014-.023-.239.294-.02.434-.863c.398-.326.049-.269.148-.597l.372-.321-.035-.217.144-.09.374-.609h-.277l.024-.139.429-.157.06-.284.237-.307.162.074q-.09-.132-.178-.264l.227-.5-.047.35.242-.185.08-.3-.054-.135.408-.484.372-.645c-.013-.26.395-.467.077-.679l.38-.48.01-.147.164.013.014-.289.186-.307.034.149.627-.814-.218-.185.26-.292-.127-.128.288-.56.511-.448c.002-.307.147-.896.504-.847l.396-.946.12.131.087-.053-.18-.189.33-.219.063.184-.067.129.247-.09v.01c.2-.256.401-.46.586-.637l.045-.041c.226-.197.42-.228.545-.2a.3.3 0 0 1 .078.03c.109.062.173.199.166.396l-.004.05c-.03.262-.097.518-.2.76a.7.7 0 0 1 .117-.078q.005.052.006.107l.092-.025q.017.018.033.038c-.07.132-.09.35-.151.47-.056.11-.156.132-.206.213s-.105.397-.21.27c-.014.01-.03.027-.045.036.133.095-.031.14-.074.266-.02.06.013.287-.109.033-.012.016-.023.019-.037.03.093.248-.003.283-.157.418-.086.076-.234.244-.052.234.031.145-.172.192-.202.267-.03.074.097.022.055.12a1 1 0 0 1-.113.181c-.032.033-.062-.044-.09.023-.12.291-.141.61-.274.91-.395.89-.84 1.692-1.324 2.575-.08.146-.483.908-.58.966-.33.2-.05-.464-.36-.085.385.372.11.544-.086.899-.144.262-.318.718-.498.91-.192.206-.137-.016-.314.07.131.203.104.339.003.541-.106.213-.281.386-.418.592-.046.07-.062.191-.125.265-.08.091-.17.005-.222.059-.052.055.102.07.082.15-.009.037-.13.257-.203.277-.018.004-.033-.06-.075-.071-.023-.007-.173-.095-.19-.035.107.124.241.206.157.377-.134.27-.338.482-.507.755-.037.06-.022.265-.176.266-.046 0-.17-.085-.22.018-.043.089.008.136.01.236.002.038-.065.01-.058.085.005.075.045.2-.135.142.045.035.087.06.131.092-.045.1-.317.16-.152.216l-.164.293-.189-.04c-.017-.087.103-.138.009-.206l-.167.238c.279.13.263.468.017.25-.017-.015-.036.003-.052.033l-.425.679-.694-.029a.6.6 0 0 0-.173.04c-.043.02-.054.145-.142.066-.05-.044-.08-.118-.2-.033.073.034.15.077.224.115-.11-.014-.25.028-.347-.037-.024-.017.07-.062.026-.089s-.226-.01-.188.109c-.084-.235-.073-.04-.25-.034-.022 0-.2-.223-.282-.103-.029.042.025.2-.115.133-.103-.05.003-.186-.111-.262.053.18-.126.284-.231.289-.186.008-.158-.106-.217-.156-.108-.09-.2.06-.26-.077.031-.004.06-.015.09-.021l-.2-.053.009.225c-.113.024-.16-.066-.253-.085-.014-.002 0 .05-.014.051-.108.005-.143-.024-.222.083-.005-.189-.145-.063-.256-.146-.031-.024-.049-.12-.046.086-.21-.046-.37-.03-.54-.187.063.206-.18.209-.32.153-.038-.016-.07-.16-.15-.135l.068.196c-.16.02-.125-.17-.262-.15-.06.01-.022.223-.136.128-.065-.055-.103-.313-.127.003-.09.016-.034-.087-.098-.1-.04-.007-.085.11-.146.096-.117-.028-.275-.251-.282-.02-.083.017-.023-.08-.099-.068-.1.017-.35.17-.393-.014-.082.106-.351.069-.285-.092.142.044.251-.13.108-.128s-.182-.018-.2-.084c-.073.032-.11.089-.212.098-.072.007-.172-.026-.26-.024 0 .03-.004.056-.025.071-.053.04-.229-.049-.287-.048h-.003c-.011.03-.009.077-.069.097-.016.005-.057-.038-.106-.065a.6.6 0 0 1-.123.021.2.2 0 0 1-.049-.005c-.078.037-.21.095-.267.096-.034 0-.1-.057-.114-.06-.045-.008-.024.076-.063.083-.288.051-.636.03-.915.058-.266.027-.41.044-.68.07-.252.023-.455.179-.267-.269-.206-.043-.126.078-.157.185-.018.063-.073.011-.084.023-.037.041.05.083.02.113-.118.122-.651.04-.767.047-.532.028-.94.093-1.43.12-.313.018-.61.001-.92.017l-.283-.39c.046.009.072.025.123.022.05-.003.175.008.193-.057-.057-.06-.222-.063-.272-.06-.095.008-.022.065-.085.083s-.189-.059-.263-.021c-.173.089.189.114.251.096.006.142-.184-.013-.223.103.03.032.144.107.176.08s-.042-.107.042-.088c.067.074.142.152.21.227-.075.025-.203-.012-.272-.005-.772.077-1.528.092-2.307.119q-.143.01-.284-.013c-.054-.016-.043-.115-.094-.086-.005.006.02.067-.047.083-.041.01-.098.019-.161.025l-1.076-.044-.43-.83c-.08-.11-.168-.25-.22-.334-.742-1.209-1.49-2.381-2.11-3.68-.032-.069-.173-.314-.17-.375.012-.185.144-.228-.084-.2-.051-.066.066-.066.072-.114 0-.018-.175-.03-.15-.091.06-.14.145-.01.222.011-.01-.154-.18-.217-.242-.318-.017-.029.08-.09.08-.098-.035-.14-.223-.017-.302.036l.074.198c-.096-.102-.088-.223-.131-.358-.01-.031-.078.058-.08-.026l.157-.171c-.143-.122-.21-.155-.201.093l-.128-.231c.082-.01.163-.109.058-.149-.025-.009-.069.077-.102.066s-.11-.185-.113-.202c-.022-.155.108-.256-.028-.322.023.03.03.218-.063.145-.103-.08-.269-.562-.315-.704a1.8 1.8 0 0 1-.106-.612c0-.046.09-.094.084-.182-.006-.118-.074-.3-.075-.436.03.01.063.026.093.038l.018-.1.045-.015c.085.122.263.23.341.339.071.099.049.206.098.287s.296.265.144.315c.003.018.012.041.014.06.135-.092.107.086.197.179.042.043.25.105-.017.12.009.018.007.03.011.048.25.012.24.12.293.324.03.115.113.327.18.146.136.03.093.245.145.305.05.06.058-.084.126-.002.011.014.094.138.108.183s-.063.042-.017.096c.2.236.464.388.667.64q.113.142.223.285c-.054-.266.026-.529-.498-.615l-.375-.53.04-.068-.023-.03a6 6 0 0 1-.17-.244 24 24 0 0 1-.448-.703 92 92 0 0 1-1.234-2.076l-.009-.015-.007-.014-.04-.078c-.007-.015-.035-.072-.055-.139-.005-.018-.044-.14-.02-.253a.3.3 0 0 1 .015-.05l-.048-.21.086-.047-.087-.144-.041-.001-.306-.433-.01-.162q-.125-.21-.237-.406l-.111.036-.018-.263q-.114-.203-.204-.373l-.033.032-.355-.343-.007-.218-.149-.087-.335-.547.082-.227-.116-.15-.025.186-.293-.445-.158.074q.053.06.09.119c.019.032-.045.058-.043.065.057.144.179.09.23.067l-.1-.212c.097.129.116.24.178.382.015.034.049-.028.07.054l-.09.108c.138.164.198.218.14-.02l.148.261c-.062-.018-.105.048-.015.121.021.018.038-.049.067-.028.028.021.126.214.13.23.05.154-.03.206.09.314-.024-.037-.069-.216.019-.116.098.112.328.623.394.773.112.256.157.383.211.616.01.044-.05.06-.029.144.03.114.121.31.15.439l-.026-.023a2 2 0 0 1-.164-.298c-.305-.255-.504-.634-.583-.745l.013-.002c-.007-.017-.018-.042-.023-.06-.038.018-.062-.002-.084-.039l-.03-.07-.004.005a1 1 0 0 0-.07-.127 1 1 0 0 0-.025-.116l.009.003c-.011-.02-.012-.031-.02-.05l-.002-.001-.002-.01-.007-.028c-.014-.054-.03-.117-.048-.175a.8.8 0 0 0-.095-.194l-.077-.12c.097.044.121-.139-.008-.352-.061-.007.012.06-.012.074s-.044-.083-.07-.029c.064.141.078.05.147.147-.04-.01-.073.043-.104.037-.05-.009-.062-.08-.091-.079l-.016-.022-.098-.183c-.06-.046-.079-.336-.098-.472l.02.016-.026-.051-.005-.023a.12.12 0 0 1 .001-.074.02.02 0 0 0 .02-.003l-.136-.257a.04.04 0 0 1 .023-.004 16 16 0 0 0-.812-1.233l-.226-.437.226-.36.085-.19-.053-.056-.01-.006c-.014-.009-.034-.02.008-.052l.035-.008.019.007c.024.003.071 0 .127-.029a.4.4 0 0 0 .12-.107.42.42 0 0 0 .091-.296 1 1 0 0 0-.018-.161l-.002-.009v-.006q.112-.26.222-.52H8.63q.01-.048.026-.094a.1.1 0 0 1 .026-.02l.022-.052q-.014.005-.023.002c-.005-.001-.002-.014.001-.026a.1.1 0 0 0 .004-.023q-.01-.013-.023-.014c-.015-.004-.024-.006.015-.07q.046-.06.096-.118l-.072-.017a.06.06 0 0 0-.037.008c-.02.013-.034.04-.047.064-.022.044-.042.085-.098.046a.4.4 0 0 1 .091-.144c.04-.044.08-.088.098-.176.038-.009.027.021.016.054-.01.026-.02.054-.005.064.01.007.031 0 .05-.006.044-.014.081-.025.004.107q.01-.003.027.005l.004.002.034-.082q0-.026.01-.044a.04.04 0 0 1 .014-.013l.068-.163a.04.04 0 0 1-.011-.017c-.011-.027.055-.171.081-.2l.003.001q0 .002.014.004l.026-.062c-.007-.003-.015-.006-.013-.015a.13.13 0 0 1 .049-.074l.028-.07a.5.5 0 0 0-.12.113c-.04.047-.075.087-.092.075v-.013c.004-.024.012-.068-.082-.03.077-.184.095-.11.102-.078l.004.01a.34.34 0 0 0 .044-.146l.015-.078a.2.2 0 0 1 .023-.047.2.2 0 0 0 .027-.06 1 1 0 0 0-.004-.121c-.005-.056-.01-.11-.004-.116.046.011.093-.023.139-.056l.059-.039c.017-.008.044-.014.066-.019l.038-.011h-.005c.02-.022.048-.095.041-.121s-.029-.036-.054-.04l-.048-.007c-.02-.004-.034-.012-.027-.035.033-.11.163-.139.192-.084.007.012-.005.033-.016.055-.014.026-.028.053-.017.07l.058-.06.154-.386c-.051-.001-.07-.043.013-.164q.024.015.043.023l.12-.305c-.028.031-.064.065-.094.014-.028-.045.024-.147.065-.228a1 1 0 0 0 .041-.09.2.2 0 0 0 .007-.063v-.026l.084-.169a.06.06 0 0 1 .045-.009c.021.002.04.004.059-.049-.041.015-.057-.007-.057-.04l.07-.143a.1.1 0 0 1 .032-.023c.018-.009.034-.007.05-.006h.026l.022-.057a.3.3 0 0 1-.076-.027l.03-.062c.023-.002.046-.03.068-.055a.2.2 0 0 1 .036-.037.03.03 0 0 1 .015-.004l.047-.121c.049-.007.107-.06.139-.129l.092-.196c.016.004.039-.001.085-.045a.4.4 0 0 1-.021-.09l.107-.223a1 1 0 0 0 .078-.272l.025-.11c.105-.185.228-.364.338-.556.048-.083.084-.209.145-.3.076-.116.126-.056.175-.126s-.063-.039-.032-.125c.014-.039.146-.294.204-.335.013-.01.013.048.041.048.016 0 .11.043.134-.022-.055-.092-.138-.133-.042-.329.151-.309.343-.58.52-.902.04-.072.068-.27.182-.318.034-.013.109.035.166-.083.049-.1.02-.133.037-.231.007-.038.05-.03.06-.103.011-.072.006-.184.128-.18-.026-.022-.053-.036-.079-.054.054-.112.264-.252.154-.26l.179-.34.13-.016c-.003.081-.102.168-.046.207l.17-.286c-.18-.047-.103-.388.036-.244.026.026.104-.186.115-.234s-.05-.088.04-.158c.051-.04.108-.054.125-.195-.057.066-.121.133-.181.2.066-.108.118-.26.205-.343.022-.02-.004.085.034.046s.128-.226.042-.216c.172-.029.06-.063.152-.243.011-.023.228-.151.207-.262-.008-.039-.123-.022-.01-.148.082-.093.099.047.201-.051-.126.011-.087-.194-.034-.301.095-.19.142-.135.2-.184.107-.087.075-.216.182-.244-.015.032-.024.064-.037.096l.136-.19-.127-.044c.047-.12.121-.146.182-.237.008-.012-.028-.011-.021-.025.055-.11.089-.139.074-.244.105.04.112-.132.216-.225.03-.026.091-.021-.022-.066.072-.107.127-.202.189-.289l.59-.94.962.039c.096.01.188.027.286.068-.085-.118.192-.129.356-.101.044.007.092.091.181.073l-.09-.113c.182-.017.154.096.309.079.068-.008.01-.132.147-.08.078.03.137.18.145-.007.103-.012.045.05.119.055.046.003.09-.068.16-.062.137.012.332.138.325.002.093-.013.031.046.116.036.114-.014.391-.113.451-.006.087-.066.398-.054.333.043-.166-.02-.28.086-.116.08.268-.011.219.024.282.149.009.018.085.027.07.05-.016.024-.18.049-.088.1.018.008.102-.031.12.021.016-.012.024-.025.038-.037.15.112.164.15-.112.167l.022-.074c-.039.03-.073.06-.116.092-.302 0-.707.1-.98.07-.238-.026.09-.046.095-.05.06-.05-.05-.07-.052-.102s.133-.081.012-.064a1 1 0 0 0-.18.114c-.027.068.007.096-.027.117.763.038 1.382.077 1.982.109l.473.023c.567.025 1 .069 1.355.108l.337-.052.112.043.587.002.026.064c.328-.2.423.241.706-.108l.359-.035.08.146.033-.04.313.05.235-.109c.056.147.672-.067.552.06l.265-.009-.063.058.041.041.196-.072c.094.219.204.047.25.031.073-.024.21-.03.22-.034.013-.008-.112-.066-.007-.1l.168.106.02-.06.114.036-.002.068.068.024.038-.06.292-.028.217.105.113-.012.025-.12.305.148.169-.029-.04-.061-.06.037-.013-.051.263-.077.107.056.082-.047.355-.011.087.102.104-.015-.082-.063.295-.02.01-.13.132.024.007.072.538.13.021-.139c.244.072.495.01.713.028.093.007.212.13.195.006l.533.04.154-.069.23.107c.116-.094.71-.154.693-.017.132-.032.122-.003.282-.05l.103.072.552.023.22.425v.014l.086.183.196.198-.022.22.092-.042.107.121c.216.042-.286.13.108.423l-.094-.181.069-.13.184.222.065.195.114.127.152.426.235.35-.03.105.173.113.023.072-.049.053.2.271.063.234.048-.038.528.94v.002c-.036.065.181.157-.004.237h.068l.027.119-.064.028.04.077.08-.036.002-.114.096.23-.068-.001c.005.119.365.278-.153.297l-.035-.177-.06.144-.1.028-.02-.168-.098-.036-.009.069-.096-.053-.171-.262.01-.068-.248-.479.1.018-.07-.124-.084-.005-.087-.114.134-.044q.076.036.153.07l-.018-.12-.099.033-.074-.145-.025.104-.093.007-.145-.181.041-.052-.147-.111-.005-.093-.052-.013-.09-.172v-.136l-.112-.076-.304-.662c-.186-.083-.216-.503-.307-.426l-.296-.543-.012-.135-.335-.517-.083-.16-.207-.009h-.003l-.771-.107.078.123-.243-.007-.146-.088-.137.075c-.062-.208-.224.036-.433-.034-.11.18-.275-.124-.407.063l.02-.06q-.066 0-.131-.004l-.27.07-.009-.081-.116-.015.064-.067-.101-.022-.363.083-.094-.063-.05.06-.214-.05.015.062.097.004-.006.06-.322-.012.026.04-.273-.01.006.005c.035.034.009.161.197.158.16-.002.189-.06.332-.1.054-.016.066.044.168.01s.253-.112.31.045c.016-.047.02-.089.032-.134.179-.005.474.175.429.029l.551.008.088.157c-.112.047-.279-.023-.304.074l.474.032c-.029-.26.472-.38.348-.111-.022.05.304.013.375-.003.07-.016.094-.12.234-.052.08.04.127.103.326.035-.117-.032-.241-.07-.36-.104.178.015.411-.016.567.042.039.014-.118.05-.046.073q.03.009.062.01l.087.004.035.067c.048.1.158.25.207.17-.111.21.026.12.17.371.018.033-.01.375.145.446.054.025.132-.112.19.116.044.167-.142.066-.11.26.095-.145.314.072.4.221.152.264.044.268.053.372.017.188.203.265.146.403-.027-.044-.058-.08-.087-.122q.06.154.118.309l.162-.098c.108.152.076.254.136.396.009.02.038-.019.049 0 .089.154.094.214.237.288-.138.08.067.233.091.425.007.054-.052.115.101.032.132.322.269.544.285.85.105-.17.298.178.367.402.018.06-.066.162.016.267l.094-.173c.142.225-.03.246.093.434.054.083.185-.053.203.147.01.115-.155.267.102.182.084.125-.038.083.003.18.026.06.15.079.187.173.071.18.027.492.207.414.077.113-.043.063.026.166.091.139.404.442.299.572.145.078.328.48.155.447-.08-.222-.297-.314-.182-.108.187.336.108.29-.02.434-.02.021.018.123-.024.115s-.18-.204-.19-.061c-.001.027.107.115.047.163.028.015.05.02.075.03-.055.248-.098.286-.297-.058l.114-.009c-.067-.034-.13-.061-.2-.1-.193-.385-.59-.852-.724-1.214-.118-.316.118.087.129.094.105.052.061-.097.103-.116s.196.127.095-.018a1.7 1.7 0 0 0-.27-.172c-.173.001-.112.144-.325-.157-.076-.107-.272-.431-.348-.553-.084-.134-.079-.284-.133-.362-.053-.078-.053.024-.115-.069-.122-.183-.234-.484-.335-.66-.115-.2-.215-.22-.325-.412-.077-.134-.128-.343-.235-.482.016-.056.19-.065.124-.16-.08-.117-.066.1-.14.063-.092-.113.019-.06.018-.064-.008-.076-.085-.17-.114-.252q0 .096.005.197c-.07-.231-.108-.072-.22-.225-.03-.04.017-.195-.095-.328-.027-.032-.292-.343-.352-.458-.025-.05-.023-.155-.03-.173-.027-.067-.086-.025-.12-.08-.26-.413-.5-.92-.732-1.323-.118-.206-.209-.36-.301-.52l.95.551-.531.003c-.418 0-.8.115-.347-.244-.322-.051-.23.055-.315.142-.05.052-.123.004-.145.013-.074.031.055.073-.003.096-.233.093-1.075-.015-1.266-.02-.876-.016-1.562.007-2.37-.007-.516-.008-.993-.045-1.505-.056l-.335-.346c.072.01.11.026.193.027s.283.02.335-.033c-.075-.055-.343-.07-.425-.07-.157-.002-.058.052-.166.063-.109.01-.288-.064-.42-.038-.312.06.27.11.377.099-.037.12-.296-.024-.398.069.04.029.2.1.262.08.06-.02-.034-.092.096-.07l.268.205c-.13.016-.326-.025-.441-.024-1.283.006-2.52-.04-3.8-.076a4 4 0 0 1-.456-.032c-.083-.018-.034-.1-.126-.079-.01.003.013.058-.105.066-.22.017-.691.007-.929 0-1.188-.036-2.366-.066-3.542-.113l.65-.378a77 77 0 0 1-1.314 2.044l.071-.03.006.198-.249.505-.116.046-.514.826-.064-.17-.13.22.069.136-.096.239-.19-.167-.02-.195-.004.002c-.02.013-.021.251-.087.27l-.028.005-.08.125.186-.056.096.137-.15.393-.117-.017-.038.33-.14.093.028.093-.184.297-.21.126-.016.243-.75 1.08c.04.365-.583.798-.38.867l-.572.959-.198.142-.498 1-.857 1.112.262-.011-.229.372-.268.15-.005.284c-.38-.089-.144.382-.439.647.18.33-.428.319-.271.681l.018-.006.043.047c-.034.025-.066.056-.098.084-.056-.068-.034-.1.033-.123l-.066-.074-.125.202-.132.485-.135-.058-.082.11a.06.06 0 0 1 .036.03c-.081.202-.238.145-.154-.006q.015-.024.055-.03l-.03-.096-.125.14-.086.288v-.42l.21.228a.2.2 0 0 1 .079-.055c.068.053.195.258.294.43l.004-.002.05.094.087.154q.027.045.034.077l.089.17.013.014.037-.072.23.438c.069.041.137.02.082-.076-.142-.247-.064-.224.103-.372.024-.02.002-.1.047-.101.044-.002.16.136.196.014.006-.024-.096-.076-.022-.13-.027-.006-.05-.005-.075-.01.106-.22.16-.26.313-.01l-.126.031c.066.016.13.026.198.045.14.287.486.602.566.881.069.244-.114-.05-.124-.054-.105-.022-.085.095-.134.12s-.19-.07-.107.033c.01.014.24.096.263.092.188-.036.149-.144.325.068.062.075.216.31.276.398.067.096.034.225.078.28.044.054.063-.032.113.035.098.13.165.363.242.491.089.146.193.142.278.283.059.098.076.265.166.361-.027.05-.219.093-.165.16.066.083.09-.098.165-.08.079.075-.03.053-.032.057-.005.062.061.126.078.19l.031-.165c.035.18.104.039.198.145.025.028-.055.17.043.26.024.021.254.231.298.317.019.036-.003.126.001.14.017.05.089.003.117.043.206.297.372.68.55.973.17.28.265.43.436.716.16.265.423.44-.122.365.07.235.145.113.268.116.072.001.05.076.068.085.06.028.055-.078.101-.055M20.442 9.28c-.107.095-.004.128-.232.044.219-.1-.096-.155-.098-.242 0-.048.108-.02.14-.046.049-.04-.024-.103.035-.128s.265.02.332.017c.127-.005.236-.037.342-.042s.273.035.342.038a.5.5 0 0 0 .146-.012c.065-.032.02-.101.112-.105.012.068.15.174.017.218.02.001.046.014.064.012.089-.01.031-.104.072-.12.068-.03.026.044.027.048.075.055.034-.01.062-.04a.6.6 0 0 1 .176-.049c.028.002-.005.04.015.04.082.007.167.014.248.005s.12-.076.128.017c0 .015-.044.03-.027.063.006.011.078.062-.012.096a.3.3 0 0 1-.081.017l.027-.039h-.066a1 1 0 0 0 .026-.1c-.032-.033-.06.013-.065.013-.078-.012-.076-.079-.122.001q.08.017.157.036v.05h-.03l.02.039a1 1 0 0 1-.218-.045l.066-.062c-.088.018-.04-.023-.104-.044-.01.079-.046.061-.1.057-.052-.004.02.053-.031.061-.107.017-.298-.073-.317.042-.143-.067.024-.08.032-.11.03-.12-.25-.063-.288.004-.043-.038-.048-.092-.153-.075-.142.023.175.081-.02.096-.13.01-.117-.047-.183-.059-.122-.022-.334.012-.252.09.033.032.121-.011.16.021.02.018-.01.184.09.054.01-.013-.054-.072.037-.075.026-.001.117.05.19.033.032-.008.162-.086.246-.06.09.027-.043.046-.008.071.036.025.146.02.147.075-.054.063-.07-.032-.089-.028-.074.02-.005.111-.114.103-.021-.05.066-.187-.091-.15 0 .003.04.034-.011.046-.088.021-.26.037-.37.038.014.075.149.066.222.117-.148.016-.311.043-.425-.026l.165-.035-.196.015c.022-.032.162-.115.056-.13 0 .082-.146.1-.196.145m-.799-.408c.074-.063.186-.05.305-.05-.02.066-.215.037-.305.05m3.102.164c.089.106-.22.102-.345.09h.087l-.044-.068.094-.01c-.04-.023-.075-.05-.113-.072.072-.103.084-.04.204-.027.076.007.102-.028.196-.033.438-.025.885-.084 1.338-.08.009.084 0 .105-.081.119v-.076a3 3 0 0 0-.159.036l.155.04-.096.012c-.029.003-.032.037-.072.035-.085-.006-.206-.105-.296-.075-.051.017.03.109-.1.086.069-.07.116-.132-.078-.098.12.056.027.035-.011.068-.024.02.142.008.038.05-.022.009-.353.058-.346 0 .018-.125.036-.111-.174-.034.28.041.038.131-.088.1-.064-.017.036-.078-.109-.063m1.634-.136c-.084-.003-.1.054-.167.018-.006-.005.044-.063.085-.067.04-.004.303.014.312.023.087.098-.2.027-.23.026m.265 0 .309-.014-.01.038zm-5.381.116c.022-.085-.08-.093-.118-.09-.138.008-.224-.061-.277.023.085.048.14-.01.18-.005.09.012.097.08.215.072m-.532-.012c-.037-.017-.023-.06-.074-.071a.8.8 0 0 0-.25-.007c-.052.017-.039.081-.08.107q.203-.014.404-.029m-.781.038c.078.004.164-.085-.012-.066-.007 0-.067.059-.122.024-.036-.023-.012-.046-.059-.073s-.148.097.193.115m-2.924 1.312c.017-.032.001-.088-.014-.075-.115.1-.065.226.014.075m.185-.305-.056.203.1-.093zm.21-.02c-.044-.033-.092-.047-.161.012.04.038.098.015.16-.013m-.64.896c-.091.063.067.21.052.043-.002-.016-.045-.047-.052-.043m7.426-1.854h.003l-.003.01zm-6.805 30.41c.039-.101-.179-.06-.184-.041-.022.092.157.113.184.041M17.64 9.296c.235.076.263-.088.279-.104.082-.086.117.056.138.055.096-.006-.031-.156-.045-.16-.214-.037-.15.082-.17.12-.04.08-.189.02-.202.09m4.559-.187h.051l-.006.008.1.02-.118.026zm-8.565 4.044c.165-.08.29-.561.1-.294-.032.046.013.036-.003.067s-.22.286-.097.227m5.72-3.97c-.045-.052-.115-.032-.2-.022l.03.057zm-1.716 31.178c-.072.02-.202-.023-.196.089l.18.037zm.757-.198c-.067.037.007.102-.018.153-.026.052-.245.03-.095.157.046.039.303-.072.387.013.04-.25-.105-.072-.21-.175-.032-.03.055-.15-.064-.148m-5.012-26.599-.07.193.101-.172zm-4.275 7.537.005-.04.053-.097.06-.015zm3.687-6.267c.086-.085.09-.257.007-.204-.1.065-.146.342-.007.204m.253-.63c-.142.211-.113.427.01.122.006-.017-.039-.069-.01-.121M8.812 21.67c.104-.05-.007.338-.089.422l-.061-.148.012-.047.092-.178.05-.048zm12.513 18.718c-.237-.233-.292-.011-.137.04.019.007.142.006.137-.04m-4.362-31.04c.008.025-.069.162.067.054.047-.038.036-.074.173-.083-.127.014-.113-.088-.127-.095-.116-.06-.23.065-.206.117.008.015.085-.017.093.008m5.63-.133h.206l-.019.055zm-2.231 30.793c-.013.073.18.352.208.371.177.118.271-.05.438.03-.049-.186-.17-.065-.27-.155-.03-.028.08-.186-.076-.232-.05-.014-.23.037-.3-.014M8.639 22.225c.047-.033.104.114-.034.159q-.007 0-.016-.01-.008-.009-.014-.009c-.012.005-.041.039-.076.078-.072.079-.165.182-.17.122l.093-.18a.3.3 0 0 1 .053-.017.2.2 0 0 0 .072-.028.3.3 0 0 0 .082-.102l.012-.017zm14.008 17.551c-.025-.033-.157-.036-.168-.007-.01.028.01.053.027.075l.048.01-.04.002c.017.024.026.046-.016.069l-.364-.013.044.16.07-.058.074.047c-.068.3-.286-.02-.472.123v-.187c-.326-.065-.104.008-.08.161.013.088-.097.011-.116.026-.129.103.207.224.311.219s.25-.122.367-.129c.07-.003.08.061.15.057.104-.005.29-.002.38-.047.032-.016 0-.135-.01-.148-.022-.032-.067.03-.093.021-.027-.01-.01-.06-.044-.064a1 1 0 0 0-.228.035c-.07.059.041.119-.055.112-.123-.407.196-.164.24-.189.1-.057.082-.09.043-.113a.5.5 0 0 1-.133-.037c-.033-.083.009-.093.063-.081.007-.016.013-.032.003-.044m3.81.399c.199-.01.085.17.052.172-.14.01-.25-.19-.311.047-.086.012 0-.085-.052-.095-.104-.02-.214.103-.322.088-.009-.053-.034-.108-.027-.162.11-.057.61-.048.66-.05m-7.845-30.93-.271.07c.131-.013.179-.022.263.043zm-4.823 3.891c.013-.007.117-.226.08-.245-.032.032-.174.288-.08.245m11.415 27.113c.177-.032.205.13.062.134-.04 0-.088-.09-.062-.134m-12.301-5.51c-.01-.021-.163-.278-.238-.203l.215.452c.023-.024.03-.081.03-.108-.001-.067.028-.066-.007-.141m12.71 5.452c.048.02.023.096.117.059l.001.023c-.007.053-.083.093-.123.09-.001-.001.008-.05-.003-.05-.08-.01-.204.037-.199-.097.075.079.16-.046.207-.025M17.968 9.418c.102.002.16-.076.14-.127l-.202.035zm-5.946 23.82.016.095-.053-.032.01.084.176-.005zm9.19 6.518c-.082-.069-.052.156-.006.178s.133-.03.172.06c-.06.045-.131-.012-.209.016-.09.033.01.143.034.113.048-.061-.007-.148.113-.074.101.064-.006.26.08.271.108.014.065-.107.025-.181l.2-.057c-.2.003-.224-.143-.263-.326-.085-.02-.006.106-.094.09-.03-.006-.045-.084-.052-.09m-3.326.455c-.162.004-.16.145-.023.076.03-.014.028-.045.023-.076m.418-30.86-.166-.003-.003.038.166.003zm1.103.004c-.074.011-.201-.028-.203.033l.2.023zm-5.47 3.615a.1.1 0 0 0-.022.037zm5.77-3.61-.169.035.166.022zM7.83 23.93c.002.025-.054.092-.107.154a1 1 0 0 0-.081.103c-.13-.194.187-.278.188-.257m4.83 9.744c-.168-.35-.421-.005-.256.258.083-.023.002-.066.039-.093s.035.076.09 0c-.047-.133-.095-.02-.161-.099.052-.008.114-.085.157-.095.08-.017.058.094.13.03m10.955 6.3.003.001c.058.04.069.262.08.27.125.057.188-.145.112-.224-.045-.046-.12.09-.122-.05.093.028.128.01.138-.018zm3.023.273c.023-.11.19-.052.27-.068-.07.101-.167.074-.27.068m-9.373-30.86c-.13.002-.1.045-.121.071l.09.003zm12.657 30.749c-.032 0-.072.068-.056.08.12.093.205-.082.056-.08m-6.751-.09c-.097.057-.295-.015-.279.146.173.096.105.04.18-.044.051-.056.137.044.099-.102m-10.473-5.681q.03.068.058.137l.056-.094zm-4.65-10.6c.062.062-.193.349-.198.282.089-.123.06-.13.026-.139-.017-.004-.035-.008-.043-.025-.04-.095.162-.169.214-.117M18.161 9.48l-.114-.039-.044.053.104.005zm5.853 30.508c.138.173.162.287.17.142-.028-.015-.043-.034-.028-.051l.031.002.003-.085zm4.383-.007c-.068-.01-.15.135.004.112.007-.002.064-.095.109-.035.029.043.006.08.044.128.039.049.138-.156-.157-.205m-.33-.004c-.12.008-.235.018-.355.028.031.03.015.103.058.124.043.02.17.05.217.024s.042-.135.08-.176M8.479 25.963c.037.045.12.144.068.143-.02-.001-.035-.032-.047-.06-.014-.032-.026-.06-.046-.03 0 .136.064.219.15.331l.009.01.006-.015c.007-.025.02-.07.049-.063q0 .015.004.025c.014.063-.009.053.035.136l.03.05a.1.1 0 0 0 .002.038.4.4 0 0 0 .027.068c.018.04.038.082.036.119-.04 0-.065-.09-.086-.164-.012-.045-.023-.084-.035-.092a.1.1 0 0 0-.036.001.3.3 0 0 1-.085.002.1.1 0 0 0 .025.038c.024.03.054.068.024.078h-.004l-.004.002c-.046.015-.123.04-.169-.035q-.005-.01.001-.023c.004-.01.008-.023.002-.036a.3.3 0 0 0-.038-.057c-.018-.024-.038-.05-.046-.076a.1.1 0 0 1 .003-.031c.004-.016.008-.033.002-.047a.1.1 0 0 0-.04-.034c-.033-.023-.077-.053-.091-.1-.01-.033.041-.127.087-.081.028.028.02.041.015.053a.02.02 0 0 0-.003.02c.006.016.019.033.031.05.03.038.058.076.006.104.023.042.076.006.081-.012.018-.051-.13-.437-.173-.457l-.004.008c-.007.018-.023.06-.112.02-.067-.031-.101-.098-.117-.129q-.006-.015-.01-.016-.004 0-.016.02c-.033.05-.103.157-.134-.089-.02-.02-.032-.007-.042.003-.007.008-.014.015-.022.008a.5.5 0 0 1-.09-.119l.036-.041.02.023c.035.045.105.134.132.112-.087-.103-.094-.157-.11-.269v-.01l-.294-.57.294-.47.014-.007c.034-.016.084-.04.044-.09-.008-.01-.023.005-.04.021-.021.022-.046.047-.062.018a.3.3 0 0 0 .043-.16v-.01c.023-.008.026.014.028.033.002.013.003.025.011.025.006 0 .105-.063.11-.067a1 1 0 0 0 .06-.096l.043-.075a1 1 0 0 1 .052-.062q.015-.016.028-.034a.1.1 0 0 0 .009-.048.14.14 0 0 1 .015-.063.1.1 0 0 1 .032-.025l.004.035.008.05c.004.03.008.057.01.089l-.025.005c-.052-.006-.104.073-.163.2-.015.03-.006.04.002.047q.01.005.007.018c-.015.05-.043.107-.072.167l-.045.094-.257.412.257.498q.032.044.069.084c.018-.012-.004-.04-.021-.06a.1.1 0 0 1-.017-.026c0-.008.01-.021.024-.03.017-.01.041-.013.061.007.067.072.052.116.038.158a.14.14 0 0 0-.011.064c.021.148.152.294.19.16.025.12.036.118.053.114a.03.03 0 0 1 .027.004c.092.06.099.082.109.12.005.02.01.042.028.074zm18.775 13.992c-.028.143.06.162.093.16.121-.008.19.115.243-.026-.069-.085-.121.01-.157 0-.076-.026-.075-.143-.179-.134m-2.761.151c-.014.014-.07-.011-.162-.012l.059.006a.1.1 0 0 1-.067.05c.09.002.148-.005.168-.032zm0 0q.005-.005.004-.015zM12.049 32.86l-.068.103.163-.03zm-3.894-9.335c-.027.026-.06.051-.074.038a.22.22 0 0 0 .044-.127v.002l.002.002v.003q.015.039.028.082m.22-.303a.1.1 0 0 1-.026.032l-.009-.023a.3.3 0 0 0-.04-.076q.021-.036.045-.07c.042.011.072.058.03.137m32.14 4.495.101.037c-.026-.014-.057-.04-.088-.064zM34.431 38.19c-.101.055-.058.241.05.22.128-.027.116-.309-.05-.22m-16.967 1.913c-.083-.118-.317-.145-.146-.021.044.03.1.016.146.021m12.146-.002.183-.077-.11-.075zm3.046-.093c-.122-.185-.552.008-.271.081.048.013.024-.045.055-.047.03 0 .307.104.216-.034m-2.191.046c.082.084.144-.269.015-.114a.3.3 0 0 0-.015.114m3.775-1.287c.15-.167.044-.417-.05-.138-.004.016.079.094.05.138m-.308.55.049-.179-.1.143zM8.098 23.686a.5.5 0 0 1 .068-.124l.006.024.007.03zM24.865 40.04l.003.004.005.002h.002zm-.086-.08c-.035.026.012.041.086.08-.008-.016.012-.06-.002-.063zm.413-.096q-.03 0-.061.006c-.007.05-.003.108-.024.123l-.019.01c.029.02.07.033.112.032-.017-.062-.03-.125-.008-.171m4.33-.06c-.011.09-.006.172.066.23.017-.09-.022-.159-.066-.23m-4.461.103c-.018.033-.01.062.013.085-.005-.025.014-.08.013-.084l-.011-.017zm.577-.032q-.035.006-.046.04c-.008.045.032.063.071.067.068-.02.003-.068-.025-.107m-.291-.02a.4.4 0 0 1-.069.007c-.005.06.02.09.056.098a.2.2 0 0 0 .013-.105m12.45-21.02c-.032-.068-.163-.151-.124-.21.057.059.096-.109.03-.16-.06-.05-.08-.025-.081.044-.123-.22-.31-.448-.35-.655.03.028.056.02.083.013l.002-.001c-.038-.07-.019-.131-.081-.205-.028.032-.032.07-.034.106-.084-.186-.296-.391-.28-.562.076.137.127.243.224.142l-.12-.155c.021-.127.167.016.12-.091-.086-.078-.036-.135-.122-.211-.083.04-.14.107-.191.247-.197-.302-.4-.607-.584-.908.116.067.152.202.19.249.035.042.073.01.109.043-.007-.005.027.146.07.093l-.013-.168c-.067-.142-.115-.027-.18-.136.02-.086-.123-.39-.19-.248.039.06.14.13.058.173-.08-.093-.067-.173-.171-.27.012-.076.134.009.076-.1-.032-.04-.056.015-.086-.013.097-.169-.038-.371-.131-.567.105.07.293.11.318.264.03-.057.07-.008.105-.012.027.115.243.323.152.296-.031-.01-.064-.11-.09-.069.018.148.298.256.171.024l.118.154c-.059.136-.141.009-.205.08.004.061.103.15.162.16-.105-.166.005-.023.03-.16.074.187.219.213.264.396-.077-.095-.203-.114-.328-.13.024.095.19.201.267.148.048.08.06.184.137.129a.4.4 0 0 1-.033-.142c.268.243.425.597.782 1.02.025.076.023.149.062.228.118.065.152.261.174.326.022.067.09.147.1.18.053.208-.038.384-.06.569l.002.003c-.121-.026-.233.092-.352.086m-11.883 21.11c.08.01.265-.195.051-.093l-.02-.085-.004-.003zm.12-.023.003-.002-.009-.002zm.784-.15c-.051-.014-.11-.043-.156.001l.07.146a.2.2 0 0 1 .097-.077zm-16.04-20.414c-.1.034-.242.256-.091.136.038-.03.063-.092.091-.136m17.517 20.368q.014.09.054.172c.156.064.147-.075.153-.156l-.074.003-.002.004c-.028.037-.047.022-.06-.008a.4.4 0 0 1-.071-.015m-4.71.145a1 1 0 0 1-.095.006c.005.03.036.041.118.02zm-1.66-.015.047.048.06-.154-.058-.002zm2.39.028c-.036-.01-.061.004-.09.018a1 1 0 0 0 .115-.01zM9.68 28.406l.09.103.032-.076zm22.91 11.383c-.01-.014-.223.002-.226.072.037.023.293.033.226-.072m1.747-2.15c.062.02.222.112.27.08.074-.05.042-.16-.059-.164-.03-.002-.151.108-.211.084M22.29 39.835c.005-.016.05-.015.057-.025l-.05-.011zM12.22 16.914l-.056.098.028-.046zm-.054.352c-.01-.02-.063.002-.014-.064l.05-.027.057-.149-.13.048c-.091.16-.154.273-.197.357.04-.024.16-.223.18-.273.067.052-.109.178-.08.264a.5.5 0 0 0 .09-.074l.026-.047zm.436-.862q.06-.141.128-.282a.2.2 0 0 1-.046.044q-.01.005-.018-.012l-.03.052-.136.23a1 1 0 0 0 .102-.032m17.339-6.575-.08.041.071.013zm-18.878 9.154c-.09.163-.025.22.022.054.01-.035-.005-.045-.022-.054m2.026-3.541-.06.1.003.002zm22.16 20.847c-.078.032-.08.15 0 .137s.095-.177 0-.137M23.41 39.434c-.025.033-.097.168-.092.224.007.089.095.159.159.114.003-.027.01-.05.033-.053.007-.056-.009-.14.093-.078.006.003.019.02.035.04a.6.6 0 0 1 .215-.015.2.2 0 0 0 .006-.11c-.02-.07-.148-.031-.203-.046-.023-.007-.036-.066-.04-.068-.055-.02-.073.04-.123.046-.023.003-.058-.087-.083-.054M9.564 27.974l.147.184-.033-.096.05.049-.025-.083zm24.232 10.874-.068.043.086.042-.016-.17-.073.02zm-4.62.776h-.012c.01.043.007.09.013.097.083.093.178-.05.19-.148a.6.6 0 0 1-.113.022l.005-.126c-.028.052-.052.103-.083.155m3.514-.385q-.21.007-.414.02c.011.141-.106.188-.093.312.007.07.141.039.193.057.022.008.025.068.029.07.05.023.08-.036.13-.04.024-.001.041.09.073.06.031-.033.125-.163.13-.22.01-.1-.088-.181-.165-.101-.038.039-.01.186-.122.103-.015-.011-.077-.162-.132-.153.068-.09.29-.087.383-.061a.06.06 0 0 0-.012-.047m-11.48.18c-.088-.034-.153.052-.091.139.018.026.182.068.201.131-.025-.062-.056-.247-.11-.27m7.116.207c-.023.002-.032.022-.034.05l.049-.012c-.006-.022-.01-.038-.015-.038m-8.538-.047c-.062-.06-.2.017-.106.075.074.048.167-.015.106-.075m5.398.05c-.094-.054-.105-.107-.21-.073.054.05.163.154.21.073M8.76 26.243a.4.4 0 0 0-.053-.049q.016.054.045.103l-.014-.04zm17.993 13.246c0 .074-.014.207.068.056l.018-.048c-.019-.002-.065.026-.086-.008m2.408.04a.16.16 0 0 1-.085.024c.037-.006.06.01.073.033l.017.005zm-6.618.004.061.05.006-.094.077.034-.022-.096zM8.387 25.293l.072.136c.04.076.202.355.212.412.03.172-.065.168.108.218.054.08-.039.04-.033.083.002.01.038.031.073.057l.024-.017-.278-.957zm19.96 14.074a.22.22 0 0 0-.063.183l.083-.022c-.014-.015-.027-.031-.03-.049-.007-.051.092-.13.01-.112M25.153 10.24c.055.003.119-.002.186-.006l-.025-.042-.089.017.002-.078-.122-.028-.115.117.044.012zm2.694 29.289.083.004-.003-.042a.1.1 0 0 1-.027-.023l-.048-.002zm6.146-1.989c.078-.013.166.035.27.088.062-.058-.08-.072-.02-.135.022-.023.09.015.098.014.099-.025-.093-.144-.135-.12s-.049.131-.14.106c-.002-.08.08-.102.1-.185q.009-.038-.008-.054l-.05.085c.015.02.016.033-.031.056zM23.445 10.222q.065-.021.133-.034l-.035-.062-.073-.009a.16.16 0 0 1-.025.105m7.627 29.289c-.046-.052-.137-.162-.197-.084.085.058.087.112.197.084m-3.368-.133a.1.1 0 0 1 .007.027c0 .054-.123.13-.016.109a.4.4 0 0 0 .054-.05.2.2 0 0 0-.007-.098zm-7.877-29.01a.5.5 0 0 1 .117-.12l-.128-.084.012-.03h-.007a.3.3 0 0 1-.08.051c.107.07-.086.116-.186.155l.192.035zm6.716-.109.036-.079-.193.033-.069-.063-.078.077-.17-.087-.054.118.029-.006a3 3 0 0 1 .39.01q.055 0 .11-.003M14.16 14.18l-.025.035.013-.004zm5.921-4.004-.04-.029h-.011l.025.04zm11.793 29.077-.24.005c-.036.078.06.078.141.077l-.116-.064.18.002-.004.064q.026 0 .036.009c.034.033.018.194.112.123.036-.027-.006-.102-.05-.112.159-.078.122-.122.031-.14zm4.222-5.107c.137.006.285-.172.096-.108-.048.016-.067.073-.096.108m-2.192 4.053.034-.048-.059-.11-.063.008zm-.55.458c.03.006.078-.036.106-.045.049-.014.051.086.09.086l.001-.001c.04-.001.114-.109.097-.136-.039-.06-.142.017-.132-.085l.206-.297-.077-.034q-.148.255-.291.512M25.89 10.372c.108.016.038-.083.123-.113l-.2-.068.053.072-.057.065c.017.02.038.038.081.044m2.23 29.042q.016.01.033.026l.034.004-.005-.065-.057-.005zm-12.198-1.257c-.086-.03-.154-.054-.053.178l.009-.004c-.034-.087-.03-.15.044-.174m-2.418-22.59a.1.1 0 0 0 .015-.041l-.036.071c-.07.057-.098.093-.106.121.053-.054.104-.105.127-.151m15.782 23.795.006.014.009-.018q-.005-.002-.015.004m-2.01-29.094.003.005h.02zm-.484 29.098.004-.005h-.002zm-3.377-.006.001.002c.006.006.048.004.093-.006zm5.492-29.047-.024.01q.027 0 .053.003zm-7.273 28.956a.13.13 0 0 0 .053.042.116.116 0 0 0 .14-.026 3 3 0 0 0-.193-.016m6.537-28.95-.014.01.064.005zm6.186 26.583q.033.005.075-.029c.039-.032.096-.215.173-.241-.012-.015-.041-.026-.078-.036zm-7.704-26.367c.04-.053.066-.107.105-.152l-.195-.002.002-.036c-.008.01-.014.023-.01.034.009.02-.002.167.098.157M10.185 28.09l.039.021-.023-.053zm4.166 7.3.01.013.003-.005zm19.458 2.497c.138-.14.127-.144.067-.144l-.078.135zm.867-1.566a.5.5 0 0 0 .16-.18c.037-.066-.008-.065-.018-.095zm.764-1.733a8 8 0 0 1-.098.282.1.1 0 0 1 .055-.027c.04-.007.087.143.15.042.007-.08-.084-.06-.11-.114-.021-.044.06-.16.003-.183M8.579 25.22l.135.088-.044-.123zm10.939-14.828-.018-.014q0 .008.014.014zm16.266 24.036c.085-.138-.027-.228-.047-.068-.005.034.02.052.047.068m-.922 1.528c.045-.043.107-.088.115-.146q.005-.058-.01-.068zm1.434-2.807c.016.025.037.043.06.042.065-.002.036-.084.003-.14zM29.43 10.787c.159.054.394-.052.28-.123-.138-.085-.537.034-.28.123m8.56 9.095c-.13-.137-.517-.86-.558-.931-.163-.283.061-.187.09-.14.118.197.051.432.279.43.077.118-.064.031-.03.11.066.158.246.27.319.43v.002c-.032.032-.055.088-.1.099m-3.312-5.902c.026.046.108.077.105.05-.025-.21-.223-.264-.105-.05m3.796 6.747c-.164-.244-.063-.345.052-.142.032.058.001.161-.052.142m-.366-.567c-.023-.077.055-.069-.047-.19l.007-.008c.041-.027.142.077.173.14 0 .002-.043.007-.036.023.057.118.19.279.085.323 0-.139-.16-.212-.182-.288m-7.698-9.456c-.356-.045-.633.13-.159.09.026-.002.073-.093.159-.09m1.721.07c.192.159.906.01.45-.061-.08-.012-.044.038-.093.038-.05 0-.5-.097-.357.022m-.684-.056-.296.034q.143.008.284.02zm4.313 5.513c.044.101.22.166.08-.048-.005-.01-.121-.056-.11-.144.009-.057.055-.038.062-.112.006-.073-.227-.14-.032.304m1.585 2.434c-.102.008-.189-.255-.264-.362.132.061.188.212.264.362m-1.029-1.457c-.002-.056.066-.061.048-.131s-.095-.264-.152-.322-.135-.009-.196-.049c.1.17.198.332.3.502m-1.42-2.769-.202-.234.03.187zm-.708-1.212c0-.15-.316-.106-.098.02.021.013.098-.008.098-.02m2.454 4.662c.129-.014.075-.147.046-.194-.1-.172-.062-.317-.21-.341-.01.132.104.171.123.226.041.12-.048.164.04.31m-7.932-6.814c-.021-.054-.012-.21-.094-.233-.131-.036-.264.031-.192.108.022.023.274.07.286.125m6.033 3.606c.077-.02.134-.058.121-.183-.08.01-.102.092-.121.183m-8.693-3.76c.106.046.277.001.197-.054s-.33-.002-.198.055m10.994 8.606c-.197-.087-.177.06-.21-.274.278.23.149-.2.265-.246.065-.025.097.126.153.154.085.042.123-.082.195-.02s.143.348.19.432c.089.16.202.281.277.414s.13.366.169.456a.7.7 0 0 0 .111.18c.085.066.149-.027.213.09-.084.05-.138.278-.283.131.01.026.01.065.025.088.071.108.16-.012.21.03.083.074-.046.057-.05.06-.025.123.036.039.094.06q.105.085.18.198c.016.037-.056.014-.045.039.045.108.089.22.154.319.066.097.18.115.059.171-.02.009-.068-.04-.102 0-.011.012-.035.129-.138.032a.4.4 0 0 1-.076-.096l.07.017-.041-.086c.05-.004.103-.008.15-.017.026-.058-.055-.07-.058-.076-.034-.105.058-.137-.08-.154q.028.108.052.217l-.066.026-.02-.039-.04.046a1.2 1.2 0 0 1-.08-.301l.125.052c-.08-.102.008-.063-.005-.155-.114.028-.114-.027-.142-.097s-.058.053-.103-.01c-.091-.127-.093-.416-.261-.381-.001-.218.125-.011.168-.016.183-.023-.074-.352-.189-.366.024-.073.093-.107.003-.232-.123-.17.003.264-.144.023-.097-.161-.011-.172-.037-.263-.05-.167-.232-.42-.285-.275-.021.058.095.148.075.213-.011.036-.255.08-.014.144.024.006.061-.106.125.008.018.033.006.175.077.259.03.036.22.163.24.283.022.13-.09-.031-.1.027-.012.058.066.195-.008.224-.12-.037 0-.105-.02-.127-.073-.085-.153.05-.212-.093.055-.052.296-.012.143-.193-.003 0-.019.068-.068.01a3 3 0 0 1-.289-.451c-.092.055.005.222-.016.34-.117-.179-.258-.373-.238-.554l.153.193-.147-.243c.058.011.26.149.212.006-.111.04-.228-.135-.321-.177M14.933 35.391l.017-.017a4 4 0 0 1-.135-.269zm23.975-13.588c-.012-.052-.031-.109-.048-.162.09.003.107.06.105.159-.02 0-.037.004-.057.003M32.232 10.96c.014.012.365.004.373-.054-.06-.02-.479-.037-.373.054m6.936 11.338a11 11 0 0 1-.167-.344c.118.03.241.389.167.344m-24.414-7.502a1 1 0 0 0 .03-.106.5.5 0 0 0-.066.074zm16.121-3.79.114.034-.005-.082-.234.08q.043.022.084.046zm-.827 27.574c-.05.014-.12.025-.196.034l.16.06.088-.086zm-17.355-7.996c-.11.12-.269.037-.355-.057l-.015.068.013.02.174.05.012.248.057.09.181-.015.033.169c.013-.097.029-.25-.08-.272-.056-.01-.166.122-.188-.06-.016-.133.167-.084.168-.241m22.52-14.62c.049.338.287.29.32.303.169.06 0 .178.014.204.07.12.192-.12.187-.138-.087-.292-.207-.15-.27-.156-.135-.012-.147-.231-.251-.213M12.287 30.16l-.155.014.116.143c.007-.054.045-.084.057-.128zm20.114-18.443c.186.058.355-.106.255-.178-.058-.041-.223.066-.18-.05.275.058.25-.044.247-.062-.019-.095.091-.14.142-.2l-.467-.271a.09.09 0 0 0 .073-.014q.012-.011.01-.034l.384.223c-.061-.028-.222-.015-.29-.029-.037-.007-.039-.058-.045-.06-.082-.02-.132.028-.216.03-.039 0-.063-.077-.116-.052s-.213.133-.224.18c-.019.084.136.156.267.091.063-.032.024-.156.204-.083.024.01.12.139.21.133-.115.074-.48.065-.631.04-.019.088.238.06.334.106.082.038.028.224.043.23m-18.03 22.364.023-.002c.042-.036.094-.084.06-.158zm-1.518-2.769a.3.3 0 0 1-.038-.038l.017.087zm9.438-20.183c-.098-.105-.47-.145-.232-.029.06.03.158.021.232.029m5.315 27.456.028.002.011-.01zm-14.073-6.232c.062-.016-.1-.202-.144-.237-.02-.015-.052-.015-.081-.02l-.014.022.065.097.109.16a.4.4 0 0 1 .065-.022m25.32-10.014c-.086.167-.28-.229-.345-.394l.057.11q.03-.045.064-.09l.075.115c.005-.062.017-.12.023-.18.185.038.107.086.168.245.04.102.104.117.172.234.315.546.682 1.086.968 1.665-.108.054-.141.054-.212-.044l.102-.037a5 5 0 0 0-.15-.185l.044.217-.077-.115c-.023-.035-.072-.023-.094-.075-.047-.111.01-.315-.088-.414-.057-.058-.128.093-.181-.085.14.052.252.08.082-.15 0 .182-.03.054-.099.022-.044-.02.08.185-.043.074-.026-.023-.307-.422-.223-.441.18-.042.173-.011-.066-.24.124.377-.153.114-.19-.062-.02-.09.127.007.013-.17M9.507 25.187c-.029-.08-.117-.134-.187-.196l-.006.093.137.024.034.113c.017-.006.03-.013.022-.034m25.2-10.058c-.028.023-.262-.005-.028.113.081.04.123.007.223.177-.1-.154.047-.187.048-.21.005-.176-.236-.26-.292-.201-.015.017.077.099.049.121m-21.11 17.438.006.01-.002-.01zm-3.964-7.142c-.01-.084-.02-.15-.129-.145l.062.209zm18.995-13.818c.173.02.142-.084.102-.15l.344-.031c-.327-.013-.32-.136-.325-.292-.132-.024-.043.088-.181.067-.05-.007-.046-.073-.055-.078-.113-.064-.136.126-.068.148.067.022.227-.015.26.063-.114.033-.21-.02-.345-.003-.16.021-.032.12.017.097.099-.047.038-.124.209-.053.144.061-.094.216.042.232m11.646 13.025c-.077.162-.166-.242-.183-.28-.05-.109-.138-.1-.132-.203.002-.01.114.024.145.074s.176.392.17.409M9.29 24.571c.01.06-.073.07.017.151l-.01.008c-.05.031-.141-.037-.163-.083 0-.002.048-.015.043-.027l-.028-.052v.502c.042-.079.083-.17.175-.108-.076.025-.077.1-.082.16v-.606c.024.018.045.034.048.055m2.406 4.368c.004-.015-.004-.018-.065.012l.014.052zm24.773-10.847c.042-.085-.03-.163-.098-.265l-.057.066zm-6.618-6.913-.094-.006-.116.087.062.044zM40.26 24.69l.218.386-.057.008zM29.53 11.72c.171.002.447-.083.639-.08.114.002.11.057.225.059.171.003.472.02.634-.011.059-.012.045-.113.034-.124-.027-.028-.12.02-.16.01s.004-.05-.05-.056a4 4 0 0 0-.384.011c-.133.044.029.103-.125.09-.07-.349.372-.122.451-.14.3-.066.056-.1-.002-.13s.084-.071.053-.1-.246-.043-.273-.02c-.056.052.135.1-.02.132l-.589-.038.019.136.134-.043.105.046c-.209.245-.46-.039-.808.067q.028-.08.058-.157c-.509-.079-.172 0-.183.129-.006.074-.16.002-.195.012-.244.077.264.203.436.206m2.977-.338c-.41-.44.066.435.15.465.157.055-.108-.309-.11-.371s.132-.1.004-.209c-.048-.04-.072.049-.044.116m.793 1.18c-.002.087-.014.26.092.316-.022-.144.016-.168-.092-.316m6.52 11.433.004.005-.002.001zm-25.96 8.719q.03.06.062.117.004 0 .007-.002l-.066-.143q0 .015-.003.028m10.268-21.172c.146-.206-.15-.068-.288-.163-.041-.028.14-.121-.055-.128-.121.025-.021.086-.08.127-.058.04-.407.005-.205.123.062.036.519-.036.628.041m-1.186-.291c-.266-.01-.31.11-.062.062.053-.01.06-.036.062-.063m1.333 26.866c.182.014 1.63-.327 1.256.125q-.005.006-.003.007c.158.111.538-.474.743.009a.1.1 0 0 0 .016.032c.013.006.053-.004.098-.016.074-.019.165-.041.185-.006a.3.3 0 0 1-.121.027.4.4 0 0 0-.073.011.2.2 0 0 0-.062.038c-.026.022-.052.044-.107.042-.14-.003-.079-.064-.052-.092q.012-.011.01-.013l-.012-.002c-.141-.02-.244-.034-.363.033-.016.032.014.03.05.026.03-.004.063-.008.075.01.027.045-.101.022-.159.011l-.024-.003c-.037 0-.06.007-.078.011-.039.01-.061.017-.16-.034-.012-.006-.014-.014-.016-.022-.005-.016-.008-.027-.126.011.099-.1-.093-.14-.232-.087a.14.14 0 0 0-.05.042c-.03.034-.06.069-.157.046-.05-.014-.037-.08-.022-.086q.015 0 .03.003c.028.004.062.01.064-.012-.06-.016-.137-.021-.212-.026a1 1 0 0 1-.18-.02c-.01-.003-.011-.01-.013-.016-.014-.06-.272-.033-.294.019l-.017.018a1 1 0 0 1-.071-.052l-.04-.032-.029-.02c.064-.038.082.013.146.018M35.91 17.179l-.27-.311c.102.161.145.217.112.357zm-7.945-5.527c-.02-.159-.256-.067-.39-.15-.04-.025.19-.149-.05-.199-.077-.016-.386.013-.483-.034-.045.06.18.307.219.325.25.112.458-.022.704.058M38.46 21.673l.002.004-.016.001zM14.646 33.66c-.003-.133-.202-.22-.233-.104-.036.138.238.32.233.104m5.813-22.243c.091.06.312-.055.252-.108-.084-.074-.27.095-.252.108m14.802 5.03c.063.13.206.164.261.112l-.176-.24zm-24.928 8.447c.199.034.203-.087.177.189-.26-.138-.199.2-.334.261-.076.035-.082-.087-.138-.099-.084-.02-.149.094-.216.056s-.092-.266-.127-.327c-.067-.117-.169-.198-.226-.295-.037-.065-.057-.168-.074-.25v.783a1 1 0 0 0 .075-.074.3.3 0 0 0 .067-.142c-.007-.088-.13-.116-.081-.202.102.057.33.04.314.202.014-.016.046-.027.054-.046.038-.088-.126-.13-.127-.183 0-.088.079.023.085.025.12-.011.006-.04-.02-.094a.5.5 0 0 1 .033-.204c.018-.024.052.042.065.027.056-.067.117-.134.15-.215.033-.082-.036-.182.098-.096.021.014.016.068.073.085h.001c.019.006.132-.006.127.107a.2.2 0 0 1-.024.089l-.037-.063-.04.058a3 3 0 0 0-.124-.12c-.067-.006-.016.065-.02.068-.061.058-.155-.011-.07.109q.07-.054.142-.103l.07.049-.018.027.068.021a.6.6 0 0 1-.19.148l-.049-.118c-.026.094-.057.01-.123.046.105.088.06.103.023.145-.036.042.085.034.066.088-.038.111-.274.192-.123.323-.179.06-.1-.103-.136-.137-.152-.147-.235.157-.163.257l-.035-.003v-.933c-.04.053-.09.094-.026.17.102.118.046-.223.16-.049.077.117-.02.144-.007.215.022.132.173.309.259.176.034-.053-.076-.107-.042-.166.02-.033.293-.119.042-.124-.025 0-.087.101-.135.018-.013-.024.026-.147-.036-.203-.015-.015-.08-.043-.134-.082v1.024c.005-.05.02-.099.057-.12.09-.053.038.084.095.077.056-.006.112-.108.189-.054.057.11-.086.029-.09.05-.016.085.153.115.077.204-.074-.029-.196-.204-.247-.11V24.26q.01.015.029.033c.003.001.032-.061.076-.021.074.069.179.22.231.324.111-.066.035-.188.08-.292.095.128.213.265.158.422l-.132-.133.115.176c-.06.002-.255-.074-.23.037.129-.056.224.07.318.086m.134 1.304c-.143.038-.11.14-.087.175.078.125.009.255.166.246.035-.114-.081-.125-.092-.167-.023-.093.082-.148.013-.254M38.4 21.68q.014.035.033.066l-.014-.003.037.136-.112-.136zM13.61 31.952c.083-.195-.253-.51-.249-.33l.061.106c.011-.002.022-.002.03.01.019.033.088.375.158.214m.578 1.131c.087.255.377.33.155.05-.012-.015-.127.009-.155-.05m-.377-.664.148.168-.088-.192zm-2.082-3.652.06.053.003-.003.005.01.108.097.003-.152zm10.759-17.41c-.125.013-.322-.033-.349.06l.28.045zM11.12 27.425c-.03-.077-.21-.096-.097.057.005.007.122.023.094.099a.1.1 0 0 1-.03.038q.032.014.066.027c.012-.046.007-.117-.033-.221m23.163-12.26c.129.087.198.196.263.362l.303.007c-.126-.241-.154 0-.254-.216-.05-.007.033.1.001.09-.156-.045-.102-.255-.236-.363zm-24.077 8.562q-.078.12-.161.233c-.062-.107.144-.307.161-.233m1.234 4.497c.233-.247.041-.4-.125-.3l.09.165zM35.567 16.84l-.103-.214-.052.015.102.214zM12.275 29.65c-.027.127.326.027.111-.037-.02-.006-.108.027-.11.037m-1.346-2.577c-.077-.124-.154-.241-.234-.364-.004.023-.024.039-.043.056l.141.223.022.091c.04-.007.082-.018.114-.006m1.012 1.458c-.088.032-.157.076-.167.18.09-.025.129-.1.167-.18m24.332-10.283c-.063-.09-.092-.271-.176-.242l.097.265q.04-.01.079-.023m-2.62-4.271c.05.12.37.36.12.063l.068-.045zm1.649 2.745-.02-.164-.209-.062zm1.156 1.91-.155-.198.076.221zm-5.352-7.019c.25.094.158.041.308-.023.101-.042.209.047.193-.077-.177.04-.475-.035-.501.1m1.948 1.123c-.178-.096.039.492.258.406-.066-.098-.174-.361-.258-.406M15.22 33.947c-.048.045-.214.132-.206.198.013.104.132.149.185.058.016-.028-.03-.216.021-.256m-4.75-9.969c.199.027.014.297-.075.395l.05-.078-.12-.029.039-.094c-.055.013-.111.02-.165.03-.103-.165-.007-.113.08-.207.054-.06.02-.118.068-.206.22-.412.397-.865.665-1.261.123.075.148.104.119.19l-.105-.076q-.024.088-.043.175.072-.048.147-.095l-.04.096c-.012.028.034.066.007.098-.058.07-.266.078-.277.186-.006.063.17.082.063.174-.06-.13-.118-.232-.184-.028.15-.05.066.011.09.077.015.042.094-.117.093.017-.001.028-.125.37-.201.305-.165-.14-.135-.142-.15.12.22-.206.206.097.088.176-.06.04-.087-.109-.15.035m3.296 7.797c.006-.017-.134-.234-.198-.205.001.05.143.326.198.205M33.44 13.51c-.084-.014.027.196.056.21.116.057.027-.196-.056-.21m-5.186-1.826c.029.007.228.015.237-.024-.312-.213-.473-.031-.237.024M11.665 27.54c.01-.275-.26-.188-.293-.191-.173-.018.032-.151.022-.17-.055-.087-.23.14-.228.154.04.23.197.085.264.077.146-.017.119.166.235.13m4.403 8.188c.007-.094-.105-.176-.131-.093-.027.084.123.21.131.093M11.323 22.17c.189.02-.078.204-.097.23-.053.071.018.142-.072.165-.009 0-.062-.102-.044-.142s.195-.253.213-.253m12.333 15.874c-.134-.003-.11-.19.024-.026l.016.02a.1.1 0 0 1-.04.006m-9.33-5.433-.008-.093-.082.052.17.1.017-.08zm-2.945-10.445.159-.287.048.046zm3.106 9.052c-.01-.153-.245-.163-.282-.057-.021.062.153.103.016.146-.043-.21-.14-.134-.157-.121-.124.092-.239-.019-.344.055-.06.041.048.168.062.232.006.027-.044.058-.045.063v.001c.01.065.079.067.112.12.015.024-.056.085-.01.104.048.018.22.056.272.035.095-.038.111-.179-.006-.223-.057-.022-.172.077-.164-.08 0-.021.1-.16.059-.213.12.029.249.266.28.378.1-.041-.027-.188-.017-.276.009-.075.223-.15.224-.164m-2.427-3.072c.035-.025.286-.048.052-.101-.08-.019-.133.018-.21-.106.081.11-.086.168-.09.187-.04.15.209.173.28.113.02-.018-.066-.069-.032-.093m-.931-5.424v-.004l.003.001zm-.438 3.27c-.061.08.002.132.058.204l.075-.067zm-.485-1.503.002-.003.012.012zm7.5 13.503c-.071.124.028.385.058.164.008-.055-.037-.112-.058-.164m-1.903-4.31c-.045-.121-.142-.04-.194.024q-.083-.1-.163-.2c.11.216-.021.284-.181.38.025.098.107-.025.139.076.01.035-.058.072-.06.081-.025.11.182.01.18-.045-.004-.055-.102-.135-.034-.203.077.053.059.146.128.221.082.09.137-.05.094-.068-.087-.035-.144.05-.134-.101.008-.128.26-.069.225-.165m-4.672-7.03.235.21c-.08-.116-.117-.156-.055-.28zm-.875-2.116a.3.3 0 0 0 .03-.046l.007.014.085-.069-.03.131zm4.64 8.623.028.064.134.022.023-.066zm-1.779-3.124c.02-.073.064-.221-.04-.248-.003.117-.05.144.04.248m-1.415-2.892c-.045-.098-.194-.098-.264-.043l.148.167zm2.061 3.732c.365.291.008-.355-.077-.363-.161-.015.06.24.051.291-.01.052-.163.112-.043.178.045.025.087-.055.07-.106m1.815 2.168c-.062-.112-.256-.236-.325-.36-.041-.074.017-.103-.024-.178-.061-.111-.158-.312-.252-.397-.034-.03-.134.039-.142.053-.019.034.068.064.072.095.005.032-.054.027-.04.066.015.039.142.227.158.237.095.058.095-.08.14.026-.336.25-.267-.164-.316-.204-.183-.151-.125.024-.135.079s-.106-.011-.125.026c-.019.038.05.182.085.184.075.006.051-.144.144-.065l.183.397.135-.093-.096-.06.007-.093c.335-.013.135.314.377.474q-.094.029-.186.055c.111.37.065.11.204.04.08-.04.062.101.087.117.172.11.11-.287.049-.399M11.44 26.87l.073.16.06-.024-.073-.16zm1.089 1.16c-.125-.048-.18-.126-.22-.253l-.329.054c.093.179.168-.03.237.133.054-.005-.018-.079.015-.077.162.007.065.195.19.26zm3.57 6.046c-.157.106.028.202-.007.337-.012.04-.227-.032-.189.149.013.058.16.237.148.327.079-.006.251-.297.255-.332.021-.225-.197-.278-.207-.481m1.339 2.504c-.269.03-.014.135-.06.28-.013.042-.178-.017-.112.11.073.062.097-.037.162-.024s.16.256.206.058c.014-.062-.235-.308-.196-.424m.148.926c.092.174.231.131.088.002-.03-.027-.059-.016-.088-.002M10.934 25.82c.052.063.05.21.146.17l-.056-.205zm-.13-.29.131.138-.042-.172zm.905 1.385-.009.135.216.01zm1.287 1.991c-.033-.09-.335-.23-.118-.028l-.083.052zm4.874 8.825c.06.072.087.225.194.186l-.06-.204zm-4.451-7.894c.177.046.05-.409-.205-.292.054.07.122.27.205.292m-.277-.575c.088-.006.006-.16-.023-.167-.115-.025-.066.172.023.167m1.729 2.84c.002-.215-.017-.125-.14-.182-.083-.04-.03-.161-.154-.077.108.088.143.322.294.259m1.152 1.772c-.004-.022-.071-.155-.115-.136-.103.324.147.319.115.136"/></g></svg>