<svg xmlns="http://www.w3.org/2000/svg" width="40" height="40" fill="none" viewBox="0 0 40 40"><g transform="translate(-3.282, -4.052) scale(0.967939)"><path fill="#3784ff" d="M28.486 11.985c-2.89-1.565-6.587-2.854-9.718-2.209-3.149.658-5.735 3.278-6.697 6.077-.944 2.788-3.113 6.455-3.28 9.653-.008 5.19-3.277 7.363 10.723 13.262 4.04 1.702 8.78 1.128 11.77-.015 2.974-1.13 3.4-5.14 5.63-7.962 2.234-2.848 4.432-4.03 3.97-6.478-.013-4.98-3.437-5.384-6.16-7.36-2.707-1.96-3.361-3.418-6.238-4.968"/><path fill="#3784ff" d="M7.62 33.638c.457.662.967 1.152 1.614 1.666h.001q.138.108.29.221c.801.593 1.835 1.239 3.387 2.059 1.73.907 3.145 1.387 4.028 1.641.165.047.328.106.753.278.26.105.613.251 1.152.468l.138.055q.406.166.943.338c1.404.472 3.677.876 5.757.804a19 19 0 0 0 3.337-.377 16 16 0 0 0 2.73-.818c.434-.172.859-.408 1.245-.698 1.256-.943 1.982-2.292 2.636-3.657.502-1.058.835-2.072 1.263-3.03q.081-.183.168-.362a9 9 0 0 1 .504-.92 16 16 0 0 1 1.115-1.532c1.134-1.493 2.726-2.49 2.93-4.72a4 4 0 0 0-.052-.87l.012.127a9 9 0 0 0-.086-1.507c-.11-1.282-1.117-3.271-2.732-4.256q-.195-.134-.392-.258l-.002-.001c-1.23-.76-2.411-1.318-3.209-1.922a17 17 0 0 1-.369-.279c-1.362-1.079-1.78-1.612-2.177-2.018-.147-.155-.283-.301-.454-.472a13.4 13.4 0 0 0-2.876-2.175l-.014-.007c-.199-.113-.414-.1-.479.023-.063.123.042.305.233.413.612.345 1.187.73 1.67 1.113-.048.114.025.285.177.409.41.286 1.35 1.444 3.047 3.04l-.358-.212-.294-.169a4 4 0 0 1-.457-.3c-.402-.329-.989-.897-1.611-1.46-.158-.143-.361-.17-.451-.066s-.038.3.117.438l.009.008c.603.547 1.216 1.14 1.645 1.492.108.088.205.165.277.22a3 3 0 0 0 .206.144c.008.004.047.025.096.04.01.003.032.01.06.013l.016.01q.111.06.236.133c.224.127.535.314 1.053.624q.343.207.827.464c.933.573 2.809 1.132 4.22 2.79a5 5 0 0 0-.308-.31 6.5 6.5 0 0 0-.877-.678 10 10 0 0 0-.366-.226q-.3-.177-.618-.342a29 29 0 0 0-.431-.221h-.001q-.302-.152-.613-.306l-.217-.107a115 115 0 0 1-.895-.453 6 6 0 0 0-.224-.1l-.084-.037-.011-.005a6 6 0 0 1-.243-.114 3 3 0 0 1-.291-.174l-.025-.016a9 9 0 0 1-.327-.223.6.6 0 0 0-.267-.106c-.087-.008-.158.015-.197.066s-.045.126-.014.21a.56.56 0 0 0 .18.232l.069.054.04.032.112.086a9 9 0 0 0 .243.177 5 5 0 0 0 .386.24 5 5 0 0 0 .21.107l.011.005.083.04.15.077c.273.157.603.348.91.522l.115.064q.3.17.588.335.21.12.41.24.295.18.566.36.168.114.323.23.41.303.731.644.32.339.553.736c.157.264.29.561.398.87a9 9 0 0 1 .306 1.085 6 6 0 0 1 .111.74l.016.164q.04.129.064.255.058.287.031.569a2 2 0 0 1-.143.566c-.077.19-.18.378-.31.573-.173.256-.38.508-.61.765a27 27 0 0 1-.73.773l-.267.275v.002q-.25.256-.503.52-.388.408-.766.841a19 19 0 0 0-.743.912 10 10 0 0 0-.67 1.031 16 16 0 0 0-.618 1.21c-.186.396-.356.777-.53 1.146q-.256.553-.536 1.078A11 11 0 0 1 33.066 36a6 6 0 0 1-.698.859c-.25.25-.516.459-.8.617a3.5 3.5 0 0 1-.66.283 15 15 0 0 1-1.053.299q-.308.075-.605.13a9 9 0 0 1-.579.087 7 7 0 0 1-.548.042c-.469.03-.756.051-1.076.07q-.093.007-.194.01a25 25 0 0 1-1.14.032c-.38.001-.752-.007-1.128-.025a19 19 0 0 1-1.112-.087q-.553-.059-1.095-.154a15.4 15.4 0 0 1-2.261-.574l-.091-.032-.503-.189a13.514 13.514 0 0 1-1.575-.708 38.395 38.395 0 0 1-2.037-1.152c-.155-.095-.32-.198-.48-.301q-.239-.154-.461-.307c-.263-.18-.528-.345-.74-.479-.223-.139-.444-.276-.636-.4l-.108-.07a17 17 0 0 1-.47-.315c-.172-.12-.368-.263-.532-.39A10 10 0 0 1 12 32.84a7 7 0 0 1-.433-.42 5 5 0 0 1-.71-.966 3.3 3.3 0 0 1-.217-.478 3 3 0 0 1-.124-.456 4 4 0 0 1-.056-.51 7 7 0 0 1 .005-.626c.018-.361.06-.767.107-1.209.047-.438.097-.913.128-1.401.027-.414.04-.833.035-1.268l-.003.1.007-.16a8 8 0 0 1 .187-1.304q.093-.431.223-.875l.001-.006a19 19 0 0 1 .525-1.558 26 26 0 0 1 .675-1.613l.016-.037c.068-.148.143-.317.211-.477l.545-1.278c.184-.436.368-.881.546-1.353.06-.16.121-.327.179-.493l.015-.042a7 7 0 0 1 .256-.61q.24-.5.552-.978a9.2 9.2 0 0 1 1.481-1.736q.468-.428.99-.773a7 7 0 0 1 1.087-.586 6.3 6.3 0 0 1 1.154-.367c.4-.085.824-.132 1.259-.147q.392-.013.794.008.21.04.404.083c.956.221 1.642.463 2.544.806.085.036.154.069.237.11l.05.024c.108.053.232.114.408.191.352.156.896.373 1.643.605.188.059.36-.004.382-.144.016-.098-.047-.208-.153-.286q.332.135.661.279a.47.47 0 0 0 .26.04c.08-.014.14-.054.165-.114.026-.059.017-.133-.027-.206a.5.5 0 0 0-.204-.183 27 27 0 0 0-2.825-1.233 20 20 0 0 0-1.461-.464 14 14 0 0 0-1.44-.312 11 11 0 0 0-1.45-.14 8.4 8.4 0 0 0-1.73.131 7 7 0 0 0-1.077.297c-.448.16-.885.365-1.302.605a9 9 0 0 0-.93.617q-.183.12-.359.25c-.338.248-.67.515-.98.8a8.1 8.1 0 0 1 1.644-1.351 10.5 10.5 0 0 1 2.22-1.056q.398-.134.774-.215c2.247-.422 3.719.018 4.621.185 1.017.235 1.456.359 1.887.414.611.077 1.717.48 2.243.746.192.094.397.073.46-.05s-.044-.304-.24-.4c-.565-.287-1.787-.738-2.532-.827-.332-.038-.693-.138-1.726-.376-.92-.165-2.413-.628-4.815-.182q-.405.087-.835.231a11 11 0 0 0-2.49 1.213h-.001a8.6 8.6 0 0 0-1.946 1.75A9.8 9.8 0 0 0 11.92 15.8c-.556 1.47-1.203 2.726-1.413 3.158-.07.139-.14.273-.214.415-.275.548-.645 1.19-1.231 2.775-.125.348-.26.762-.38 1.225-.244.676-.427 1.37-.504 2l-.012.1v.032c-.035.45-.116.86-.213 1.261-.03.122-.062.25-.094.372-.08.3-.164.605-.237.908-.058.246-.122.505-.184.79-.22.968-.458 2.742.692 4.405 1.198 1.677 2.514 2.43 3.598 3.115-.799-.465-1.442-.889-1.949-1.269q-.147-.111-.277-.213c-.627-.503-1.07-.944-1.466-1.515a5.85 5.85 0 0 1-1.04-3.59c.035-.852.159-1.387.282-1.934.067-.288.147-.593.226-.914.107-.438.21-.91.268-1.416l.002-.052q.064-.435.157-.873c.18-.852.502-1.74.899-2.627v-.002q.116-.26.24-.521c.503-1.061 1.088-2.122 1.614-3.164l.203-.398c.251-.496.62-1.202.954-2.094a12 12 0 0 1 1.176-2.314c.26-.402.542-.815.907-1.26q.165-.202.359-.412a8.6 8.6 0 0 1 2.522-1.908 8.2 8.2 0 0 1 1.849-.655 9 9 0 0 1 1.937-.203c.694-.002 1.395.064 2.074.176 2.049.347 3.825 1.012 5.516 1.81.2.095.407.073.465-.053s-.06-.31-.263-.406c-1.726-.813-3.533-1.49-5.646-1.847a13 13 0 0 0-2.139-.18 9.7 9.7 0 0 0-2.043.213 8.7 8.7 0 0 0-1.992.706 9.1 9.1 0 0 0-2.687 2.048q-.212.232-.387.45c-.374.463-.649.87-.907 1.272-.533.83-.934 1.646-1.214 2.4-.309.821-.657 1.494-.903 1.98l-.21.411c-.514 1.019-1.095 2.07-1.609 3.146q-.125.262-.244.526v.001c-.407.903-.752 1.83-.948 2.735q-.114.516-.187 1.017l-.002.078c-.05.412-.132.79-.222 1.165-.077.324-.161.642-.239.973-.13.575-.265 1.144-.307 2.065a6.38 6.38 0 0 0 1.123 3.93m18.985-21.164c-.47-.15-.84-.291-1.111-.405a24 24 0 0 1 1.111.404M9.151 23.559q.043-.12.088-.238-.098.337-.176.676-.098.418-.161.84c.058-.449.148-.88.25-1.278m-.604 9.405c-.987-1.437-.845-2.914-.641-3.88.06-.295.126-.569.189-.837q.04-.167.083-.332c-.072.656-.131 1.277-.126 1.802.008 1.59.57 2.45 1.036 3.055.133.168.29.345.432.493.104.143.23.3.348.437.175.201.372.406.57.594.21.197.397.362.62.543q.309.252.645.493.297.212.614.422l.035.024c.205.135.415.269.613.395.204.13.35.227.494.328.173.122.375.257.543.37q.266.177.548.352c.196.12.362.223.548.333l.264.155c-.38-.185-.76-.372-1.17-.581a42 42 0 0 1-1.87-1.005c-1.117-.682-2.535-1.441-3.775-3.16m12.748 7.215a13 13 0 0 1-1.05-.314l.007.002a18 18 0 0 0 1.85.387q.597.09 1.195.142.6.052 1.196.07a23 23 0 0 0 1.573-.011q-.423.04-.89.056-.373.013-.783.012-.158 0-.381-.003a11.7 11.7 0 0 1-2.717-.342m7.941-.011a12 12 0 0 0 1.017-.233 16 16 0 0 0 1.047-.323 15.7 15.7 0 0 1-2.383.69l-.032.006z"/></g></svg>