<svg xmlns="http://www.w3.org/2000/svg" width="40" height="40" fill="none" viewBox="0 0 40 40"><g clip-path="url(#a)"><path fill="#fff5e1" fill-opacity=".2" d="M6.22 34.12c-7.732 0-14-6.269-14-14 0-7.733 6.268-14 14-14s14 6.267 14 14c0 7.731-6.268 14-14 14"/><path fill="#231f20" d="M-5.011 13.47c.385-.526 1.094-1.548 1.552-2.062l.025-.028c.106-.124.211-.237.337-.367.304-.305.7-.736 1.652-1.5q.433-.31.889-.586A13.44 13.44 0 0 1 6.22 6.976a13.4 13.4 0 0 1 4.34.649l.14.05c.915.328 1.982.892 2.63 1.283.83.491 1.357.891 1.78 1.229 2.359 2.017 3.99 4.91 4.445 8.015a13.2 13.2 0 0 1-.373 5.61c-.16.502-.346.968-.538 1.389-.27.592-.554 1.095-.795 1.506-.576.992-1.356 2.04-2.022 2.746q-.162.174-.31.321a13.4 13.4 0 0 1-1.81 1.425l-.119.103c-.503.429-1.202.864-2.387 1.34-.518.205-1.129.413-1.867.594-.476.116-.717.189-.917.25l-.17.05c-.192.05-.403.054-.651.052-.32-.004-.702-.016-1.206.029q-.086.008-.17.013c-1.498.088-2.169-.149-2.66-.297-.15-.05-.285-.096-.424-.138-.45-.133-1.1-.295-1.589-.436-.39-.106-1.123-.454-1.64-.78-.195-.122-.467-.274-.778-.469a10 10 0 0 1-1.047-.747c-.91-.761-1.32-1.24-1.653-1.617a14.883 14.883 0 0 1-1.134-1.501 12 12 0 0 1-.859-1.533 13.3 13.3 0 0 1-1.28-3.552c-.133-.638-.268-1.248-.414-1.71-.145-.459-.299-.73-.464-.73-.164-.001-.329.274-.425.777-.096.505-.103 1.195.016 1.902.236 1.42.688 2.81 1.34 4.102a14.2 14.2 0 0 0 3.2 4.182A14.4 14.4 0 0 0-.2 33.346c.915.494 1.894.866 2.6 1.065a8.4 8.4 0 0 0 1.4.271c.26.03.487.05.718.078a13.673 13.673 0 0 0 1.701.118c.728.007 1.572-.056 2.353-.207a13 13 0 0 0 1.816-.5c.861-.302 1.62-.677 2.01-.847.69-.294 1.43-.74 2.043-1.185.587-.422 1.062-.836 1.35-1.052.345-.259.605-.52.968-.927.25-.283.549-.637.93-1.136.437-.578.696-1.023.906-1.404.292-.538.49-.951.81-1.558a10 10 0 0 0 .797-2.037c.072-.278.152-.594.223-.929.095-.44.171-.91.204-1.343a6.5 6.5 0 0 0 0-.914l-.014-.234a15 15 0 0 0 .005-.849l.013-.144c.02-.25.04-.567.02-.95a8.5 8.5 0 0 0-.279-1.69c-.11-.426-.241-.864-.399-1.364a19 19 0 0 0-.38-1.105 10 10 0 0 0-.68-1.454 3 3 0 0 0-.248-.34l-.002-.002-.017-.02a14.7 14.7 0 0 0-1.762-2.433l-.169-.202c-.277-.325-.563-.627-.744-.833-.193-.224-.744-.726-1.377-1.19-.413-.305-.86-.596-1.23-.824a4 4 0 0 0-.673-.317c-.217-.084-.44-.165-.676-.272q-.177-.082-.38-.179a8 8 0 0 0-.382-.169 8 8 0 0 0-.79-.24c-.23-.06-.497-.123-.774-.182q-1.096-.285-2.223-.397a3 3 0 0 1-.397-.1c-.078-.026-.142-.055-.21-.085a2 2 0 0 0-.319-.113 1 1 0 0 0-.322-.025 1 1 0 0 0-.085.02q-.043.015-.091.017-.036-.001-.081-.013a.8.8 0 0 0-.213-.023c-.362.009-.779.041-1.18.09-.45.055-.885.13-1.23.193-.389.07-.932.22-1.462.405-.37.13-.733.273-1.044.401-.304.125-.624.247-.93.377-.367.155-.714.32-.988.497a1 1 0 0 0-.187.177q-.076.085-.178.189-.527.32-1.025.685l-.042.017c-.317.135-.761.334-1.208.82a1.6 1.6 0 0 0-.219.3c-.048.083-.091.157-.174.244-.093.1-.219.202-.354.316-.19.16-.398.346-.56.574l-.035.05a5.5 5.5 0 0 0-.42.679 14.35 14.35 0 0 0-2.655 6.351c-.109.694-.097 1.37 0 1.866.096.492.258.762.419.761.162 0 .313-.267.457-.715.145-.454.28-1.053.412-1.678.214-1.017.548-2.005.99-2.94l.075-.144c.188-.356.4-.667.622-.967q.076-.103.155-.205"/><path stroke="#231f20" stroke-linecap="round" stroke-linejoin="round" stroke-width="2" d="M7.215 14.977c1.946 1.946 4.571 4.07 5.277 4.393-1.134 1.761-3.09 3.099-4.063 3.764-.497.391-.998.892-1.514 1.408"/><path stroke="#231f20" stroke-linecap="round" stroke-width="2" d="M-.4 20.459c1.245-.015 3.533-.247 5.819-.37.576-.058 1.155-.23 1.732-.29.576-.061 1.132-.006 2.394-.02"/></g><defs><clipPath id="a"><path fill="#fff" d="M0 0h40v40H0z"/></clipPath></defs></svg>