<svg xmlns="http://www.w3.org/2000/svg" width="40" height="40" fill="none" viewBox="0 0 40 40"><g transform="translate(3.243, 2.999) scale(0.820041)"><circle cx="20" cy="20" r="20" fill="#fff5e1" fill-opacity=".2" transform="matrix(-1.01046 0 0 1.01046 40.63 .593)"/><path fill="#231f20" d="M3.515 10.792c.52-.828 1.615-2.357 2.318-3.12a19 19 0 0 1 .549-.592c.459-.457 1.06-1.106 2.519-2.217q.649-.468 1.334-.884A19.85 19.85 0 0 1 20.42 1.102c2.2-.014 4.395.334 6.48 1.04l.21.075c1.37.483 2.97 1.32 3.925 1.924a20.4 20.4 0 0 1 2.598 1.9c3.468 3.04 5.828 7.342 6.481 11.93a19.8 19.8 0 0 1-.553 8.284c-.222.745-.48 1.44-.75 2.07a21 21 0 0 1-1.134 2.253c-.84 1.482-2.02 3.024-3.02 4.055q-.244.256-.465.47a20 20 0 0 1-2.666 2.136l-.185.138c-.787.571-1.815 1.212-3.565 1.918-.765.303-1.668.61-2.758.873-.705.166-1.066.245-1.364.312l-.253.053a7 7 0 0 1-.955.102c-.467.026-1.031.044-1.774.077l-.252.009c-2.203.039-3.189-.24-3.926-.409-.225-.056-.428-.11-.636-.164a35 35 0 0 1-2.339-.68c-.567-.183-1.657-.669-2.438-1.121-.296-.169-.699-.393-1.159-.68a17 17 0 0 1-1.56-1.094c-1.372-1.098-1.996-1.798-2.502-2.348a20.83 20.83 0 0 1-1.725-2.206c-.53-.778-1-1.612-1.317-2.265a19.7 19.7 0 0 1-1.851-5.318c-.186-.953-.32-1.87-.428-2.558-.108-.681-.194-1.076-.294-1.076-.096 0-.2.397-.235 1.105-.036.712.014 1.677.192 2.67a20.35 20.35 0 0 0 6.46 11.601 20.5 20.5 0 0 0 4.75 3.183 20 20 0 0 0 3.668 1.424c.817.223 1.429.326 1.952.402.363.052.679.088 1.003.127a20.108 20.108 0 0 0 2.384.148c1.02.006 2.2-.08 3.296-.273.799-.138 1.71-.36 2.564-.635 1.221-.387 2.306-.883 2.852-1.133a18.3 18.3 0 0 0 2.887-1.66c.836-.585 1.516-1.162 1.908-1.483.468-.385.842-.745 1.365-1.307.36-.392.794-.883 1.336-1.585a18 18 0 0 0 1.316-1.963c.432-.75.73-1.33 1.154-2.203a17 17 0 0 0 1.086-2.897c.106-.392.218-.839.318-1.313.132-.623.238-1.287.297-1.897.048-.504.059-.92.06-1.29v-.33a21 21 0 0 0 .005-1.206l.004-.205c.005-.355.003-.801-.04-1.342-.07-.864-.204-1.61-.387-2.39a25 25 0 0 0-.545-1.935 23 23 0 0 0-.562-1.554 17 17 0 0 0-.98-2.047 7 7 0 0 0-.319-.499l-.001-.002-.022-.031a20.7 20.7 0 0 0-2.524-3.416l-.248-.276c-.405-.445-.823-.856-1.095-1.126-.292-.293-1.076-.985-1.975-1.62a23 23 0 0 0-1.746-1.122 10 10 0 0 0-.931-.466c-.297-.132-.602-.26-.936-.406q-.25-.112-.539-.236-.255-.11-.542-.22a15 15 0 0 0-1.101-.353 22 22 0 0 0-1.081-.276A20.5 20.5 0 0 0 22.17.237c-.218-.03-.41-.056-.56-.082-.109-.02-.2-.04-.295-.06A5 5 0 0 0 20.87.02a3 3 0 0 0-.448-.017 2 2 0 0 0-.117.012c-.043.005-.081.01-.128.01q-.05 0-.112-.006a2 2 0 0 0-.294-.01c-.503.014-1.082.055-1.64.12-.624.07-1.228.171-1.707.262-.537.1-1.295.29-2.036.53-.519.168-1.028.356-1.462.53a32 32 0 0 0-1.288.537c-.505.226-.982.466-1.37.698a3 3 0 0 0-.285.204q-.12.095-.278.215-.737.448-1.433.955l-.053.032h-.001c-.407.24-.967.583-1.622 1.218-.166.161-.26.274-.344.375s-.157.19-.275.309c-.134.135-.3.288-.478.457a8 8 0 0 0-.817.881c-.174.22-.426.55-.65.898A20.377 20.377 0 0 0 .19 17.1c-.17.976-.215 1.921-.178 2.62.038.693.139 1.083.233 1.082.098 0 .183-.387.289-1.055.106-.674.238-1.573.42-2.507a19.7 19.7 0 0 1 1.406-4.41l.105-.219a15 15 0 0 1 .84-1.496q.103-.163.21-.324"/><path stroke="#231f20" stroke-linecap="round" stroke-linejoin="round" stroke-width="1.176" d="M21.857 13.38c2.809 2.809 6.599 5.875 7.618 6.341-1.637 2.542-4.46 4.473-5.866 5.433-.716.565-1.44 1.288-2.184 2.033"/><path stroke="#231f20" stroke-linecap="round" stroke-width="1.176" d="M10.866 21.292c1.796-.022 5.099-.356 8.398-.534.832-.083 1.668-.33 2.5-.419.833-.087 1.636-.008 3.456-.027"/></g></svg>