<svg xmlns="http://www.w3.org/2000/svg" width="40" height="40" fill="none" viewBox="0 0 40 40"><g transform="translate(-2.853, 12.575) scale(1.142616)"><g clip-path="url(#a)"><path fill="#fff5e1" fill-opacity=".2" d="M20-7.62c7.733 0 14 6.268 14 14s-6.267 14-14 14c-7.731 0-14-6.268-14-14s6.269-14 14-14"/><path fill="#231f20" d="M31.232 13.03c-.386.525-1.094 1.547-1.553 2.06l-.024.03a9 9 0 0 1-.337.367c-.304.304-.7.735-1.652 1.498q-.434.31-.889.587a13.44 13.44 0 0 1-6.776 1.951 13.4 13.4 0 0 1-4.34-.648l-.14-.051c-.915-.328-1.982-.892-2.63-1.283-.83-.49-1.357-.891-1.78-1.229-2.36-2.017-3.99-4.91-4.445-8.015a13.2 13.2 0 0 1 .372-5.61c.16-.502.346-.968.539-1.389.27-.592.553-1.095.795-1.506.575-.992 1.356-2.04 2.022-2.746q.161-.174.31-.321a13.4 13.4 0 0 1 1.81-1.425l.119-.103c.502-.429 1.202-.863 2.387-1.34a14 14 0 0 1 1.866-.594c.477-.116.718-.189.918-.25q.087-.027.17-.05c.192-.05.402-.054.65-.052.32.003.703.016 1.206-.029q.087-.008.17-.013c1.499-.088 2.17.149 2.66.298.15.048.286.095.425.137.45.133 1.1.295 1.588.436.392.106 1.124.454 1.64.78.196.122.468.274.778.469.322.2.686.448 1.048.747.91.761 1.32 1.24 1.653 1.617a14.875 14.875 0 0 1 1.135 1.501c.348.528.656 1.091.858 1.533a13.3 13.3 0 0 1 1.28 3.552c.133.638.267 1.248.413 1.71.146.459.3.73.465.73.164.001.329-.274.425-.777.096-.505.103-1.195-.016-1.902a14.4 14.4 0 0 0-1.34-4.102 14.2 14.2 0 0 0-3.2-4.182 14.4 14.4 0 0 0-3.391-2.263 13.5 13.5 0 0 0-2.6-1.065 8.4 8.4 0 0 0-1.4-.271c-.26-.03-.487-.05-.719-.078a13.657 13.657 0 0 0-1.701-.118 12 12 0 0 0-2.352.207c-.568.108-1.215.286-1.816.5-.862.302-1.62.677-2.01.847-.69.294-1.43.74-2.043 1.185-.587.422-1.063.836-1.35 1.052-.345.259-.606.52-.968.927-.25.283-.549.637-.93 1.136a11 11 0 0 0-.906 1.404c-.292.538-.49.951-.81 1.558a10 10 0 0 0-.798 2.037c-.071.278-.151.594-.223.93-.094.44-.17.91-.203 1.342a6.5 6.5 0 0 0-.001.914l.015.234a15 15 0 0 0-.005.849l-.013.144c-.02.25-.04.567-.02.95.033.613.139 1.142.278 1.69.11.426.242.864.4 1.364.107.34.236.728.38 1.105.214.562.468 1.1.68 1.454.08.133.164.238.248.34l.001.002.018.02a14.7 14.7 0 0 0 1.762 2.433q.083.102.168.202c.278.325.564.627.744.833.194.224.744.726 1.378 1.19.413.305.86.596 1.23.824.217.134.441.227.673.317.217.084.44.165.676.272q.177.082.38.179.179.085.382.169c.126.05.415.142.79.24.23.06.497.123.774.182q1.096.286 2.223.397.235.046.397.1c.077.026.142.055.209.085.091.04.186.08.32.113a1 1 0 0 0 .322.025 1 1 0 0 0 .084-.02c.031-.009.058-.017.092-.017q.036.001.08.013a.8.8 0 0 0 .213.023c.363-.009.78-.041 1.181-.09.45-.055.884-.13 1.23-.193.388-.07.932-.22 1.461-.405.37-.129.734-.273 1.045-.401.304-.125.624-.247.93-.377.366-.155.713-.32.988-.497.055-.036.114-.098.186-.177q.077-.085.179-.189.528-.32 1.024-.685l.042-.017c.318-.135.762-.334 1.209-.82.113-.122.169-.216.218-.3.05-.083.092-.157.174-.244.094-.1.22-.202.355-.316.19-.16.398-.346.56-.574l.034-.05c.117-.164.285-.411.42-.678a14.36 14.36 0 0 0 2.656-6.352c.109-.694.097-1.37 0-1.866-.096-.492-.259-.762-.419-.761-.162 0-.313.267-.458.716-.144.453-.278 1.052-.41 1.677a13.3 13.3 0 0 1-.99 2.94l-.076.144c-.188.356-.4.667-.622.967z"/><path stroke="#231f20" stroke-linecap="round" stroke-linejoin="round" stroke-width="2" d="M19.006 11.522c-1.946-1.946-4.571-4.07-5.277-4.393 1.134-1.761 3.09-3.099 4.063-3.764.496-.391.997-.892 1.513-1.408"/><path stroke="#231f20" stroke-linecap="round" stroke-width="2" d="M26.62 6.04c-1.244.015-3.532.247-5.818.37-.576.058-1.155.23-1.732.29-.577.061-1.133.006-2.394.02"/></g><defs><clipPath id="a"><path fill="#fff" d="M0 0h40v40H0z"/></clipPath></defs></g></svg>