<svg xmlns="http://www.w3.org/2000/svg" width="40" height="40" fill="none" viewBox="0 0 40 40"><g clip-path="url(#a)"><mask id="b" width="40" height="40" x="0" y="0" maskUnits="userSpaceOnUse" style="mask-type:luminance"><path fill="#fff" d="M40 0H0v40h40z"/></mask><g fill="#a7c8fc" mask="url(#b)"><path d="M23.11 21.72c.773-.405 1.517 1.177 2.475.898.956-.28 1.04-1.143 2.166-1.011 1.13.132 2.197-.516 2.72-.193.52.324.493-.743 1.214-.546q.126.034.238.054c.58.1.966-.066 1.486-.402.238-.154.678-.311 1.176-.421a7 7 0 0 1 1.148-.154c.066-.003.129-.005.214-.012.055-.01.064.006.236-.052a1 1 0 0 0 .12-.059c.031-.023.17-.093.267-.314a.7.7 0 0 0 .024-.43c-.044-.143-.093-.2-.13-.248-.08-.096-.13-.125-.16-.147-.122-.079-.133-.075-.165-.093-.303-.146-.43-.22-.562-.34-.25-.235-.559-.282-.87-.246-.469.054-.913.308-1.208.379a1.1 1.1 0 0 0-.373.165c-.04.029-.065.095-.072.163-.008.084.01.17.057.185.227.078.566.252.914.615.144.15.259.238.365.29.178.086.334.068.526.069.096 0 .201.006.317.032.103.022.293.09.302.14-.005 0-.011 0-.043-.012-.016-.007-.032-.013-.075-.038-.04-.029-.092-.041-.23-.2-.052-.067-.172-.22-.197-.488a.87.87 0 0 1 .176-.601c.222-.252.247-.214.317-.262.1-.048.121-.051.142-.06-.688-.237-1.593-.778-2.73-.33-.487.184-.84.03-1.208-.148-.527-.258-1.064-.567-2.045.023-1.658.997-1.965-.654-3.697-.784-1.731-.129-3.832.895-4.872.866-1.039-.028-2.438-.16-3.887.114-.8.15-1.718.067-2.638.03-.753-.029-1.512-.028-2.226.158-1.59.42-3.86.9-4.918 1.205-1.058.308-1.32.374-2.335.136-.582-.137-1.393-.061-2.089.337-.35.201-.28.504.062.663.5.231.921.108 1.174.493.504.77.725 1.067 1.397.653.671-.414.972.585 1.364.48.392-.107.384-.68 2.364-.212 1.983.46 3.076.553 3.83.649.374.047.948-.064 1.578-.172.633-.108 1.323-.211 1.937-.14 1.224.142 3.674-.13 4.683.122 1.01.253.968-.4 1.741-.805"/><path d="M34.335 19.017a.9.9 0 0 1-.253.157c-.853.355-2.115-.58-3.149.033-1.144.677-.995 1.545-2.485 1.904-1.453.352-2.611 1.408-3.389 1.409q-.033 0-.065-.003c-.786-.057-.399.943-1.393 1.124-1 .192-1.5.594-2.082 1.325-.24.301-.74.761-1.27 1.236-.01.005-.034.026-.043.032-.687.71-1.527 1.428-2.113 1.614-1 .314-1.299 1.636-1.476 2.34q-.03.112-.037.207l.006-.011q0 .009.002.012t.007-.002l.012-.012.021-.022c.039-.008-.053-.044.229-.078.167.007.264.18.264.22.01.05.007.05.008.066 0 .025-.003.032-.004.038-.003.013-.004.016-.006.019q-.004.007-.006.004-.003-.002-.005-.011c-.005-.021-.009-.048-.012-.072a2 2 0 0 0-.027-.144c-.013-.058-.07-.105-.136-.131-.082-.032-.175-.03-.21.025l-.066.106c-.013.02-.025.038-.04.065l-.013.03c-.002.012-.006.003-.01.063q0 .013.003.037c.006.027.01.099.113.167.109.064.21.027.242.01.044-.024.035-.021.047-.03.03-.027.03-.03.038-.038l.044-.053.006-.01c.19-.214.49-.396.929-.524 1.084-.29.707-.812 1.942-1.497.6-.325 1.157-.506 1.683-.758l-.084.064a4.6 4.6 0 0 0 1.638-1c1.064-.942 2.029-.007 3.414-.99q.256-.179.543-.452c1.784-1.69 2.682-.225 4.933-.84 1.22-.332 2.48-1.028 3.618-1.696.346-.201.67-.397 1-.595l.538-.321c.12-.077.178-.095.508-.334a3 3 0 0 0 .334-.304c.06-.067.128-.142.234-.306a2.1 2.1 0 0 0 .307-.843c.097-.418-.132-1.282-.477-1.634-.729-.756-.987-.657-1.184-.75-.341-.081-.416-.067-.51-.075-.082-.003-.127-.002-.16 0-.227.01-.222.02-.297.02a1 1 0 0 1-.175-.015c-.847-.152-2.412-.956-4.148-1.639a8.2 8.2 0 0 1-1.368-.712c-1.34-.84-2.703-1.975-4.238-2.615-2.068-.862-4.958-2.185-6.351-2.716s-1.73-.667-2.77-1.61c-.597-.54-1.575-1.066-2.597-1.236-.514-.085-.6.22-.291.6.451.558 1.003.76 1.08 1.264.157 1.01.242 1.415 1.24 1.558.997.142.778 1.19 1.279 1.388.503.198.829-.284 2.793 1.559 1.968 1.842 3.148 2.736 3.945 3.373.705.562 2.39 1.18 3.73 1.996.197.12.374.236.553.363 1.42 1.035 4.67 2.465 6.7 2.92.205.053.402.087.581.104a2.4 2.4 0 0 0 .359.013c0-.002-.02-.002-.105-.01-.045-.005-.108-.01-.22-.03-.132-.033-.268-.025-.742-.254a2.58 2.58 0 0 1-1.039-.983 2.5 2.5 0 0 1-.332-1.092 2.3 2.3 0 0 1 .099-.83c.287-.784.48-.834.588-.975.214-.203.272-.222.332-.262.174-.091.14-.036.143-.01-.017.07-.073.174-.126.284a2.4 2.4 0 0 1-.581.776"/></g></g><defs><clipPath id="a"><path fill="#fff" d="M0 0h40v40H0z"/></clipPath></defs></svg>