<svg xmlns="http://www.w3.org/2000/svg" width="41" height="74" fill="none" viewBox="0 0 41 74"><circle cx="20" cy="20" r="20" fill="#fff5e1" fill-opacity=".2" transform="matrix(1.00003 0 0 -1.00003 .238 40.448)"/><path fill="#231f20" d="M36.97 30.355c-.515.818-1.599 2.332-2.294 3.088l-.037.042c-.162.181-.319.35-.507.543-.454.452-1.048 1.094-2.493 2.194q-.642.463-1.32.874a19.64 19.64 0 0 1-10.08 2.848c-2.178.014-4.35-.33-6.414-1.03l-.207-.074c-1.356-.478-2.94-1.305-3.886-1.904a20 20 0 0 1-2.57-1.88C3.73 32.047 1.393 27.79.747 23.25a19.6 19.6 0 0 1 .548-8.2c.22-.736.476-1.424.743-2.047a21 21 0 0 1 1.121-2.231c.832-1.466 2-2.993 2.99-4.013q.24-.252.459-.466A19.7 19.7 0 0 1 9.247 4.18l.183-.136c.778-.566 1.797-1.2 3.529-1.899.756-.3 1.65-.604 2.729-.863.697-.165 1.054-.243 1.35-.31l.25-.051c.282-.055.586-.081.945-.102.463-.025 1.02-.044 1.756-.076l.25-.009c2.18-.038 3.155.238 3.885.404.222.056.424.11.629.164.666.17 1.612.433 2.315.672.561.18 1.64.662 2.413 1.11.293.166.691.389 1.147.673.471.294 1.004.656 1.544 1.082 1.357 1.087 1.975 1.78 2.476 2.324a20.61 20.61 0 0 1 1.707 2.183c.524.77.99 1.596 1.304 2.241a19.5 19.5 0 0 1 1.831 5.264c.185.943.317 1.85.424 2.53.107.675.192 1.066.29 1.066.096 0 .198-.392.234-1.093.035-.705-.015-1.66-.19-2.643a20.14 20.14 0 0 0-10.62-14.394q-.237-.121-.475-.237A19.7 19.7 0 0 0 25.523.67a15 15 0 0 0-1.932-.398c-.359-.052-.672-.088-.993-.126A19.936 19.936 0 0 0 20.238 0a19 19 0 0 0-3.261.271c-.79.136-1.693.356-2.537.628-1.21.383-2.282.874-2.823 1.121A18 18 0 0 0 8.76 3.664c-.827.578-1.5 1.149-1.888 1.467A13 13 0 0 0 5.52 6.425c-.357.388-.786.874-1.323 1.569a18 18 0 0 0-1.302 1.942 32 32 0 0 0-1.142 2.18 17 17 0 0 0-1.075 2.867c-.105.389-.216.83-.314 1.3-.13.616-.236 1.273-.294 1.877-.048.499-.059.91-.06 1.277v.327a21 21 0 0 0-.005 1.193l-.004.203c-.005.35-.003.793.04 1.328.07.855.202 1.594.383 2.365a25 25 0 0 0 1.095 3.454c.314.78.682 1.526.97 2.025.108.188.212.342.316.494l.001.002.021.03a20.5 20.5 0 0 0 2.499 3.381q.12.138.245.273c.401.44.814.848 1.083 1.115.29.29 1.066.975 1.956 1.604.58.415 1.205.808 1.727 1.11.306.177.607.32.922.46.293.131.596.258.926.403q.247.11.533.233.253.109.537.218c.175.067.573.202 1.09.349.318.09.686.186 1.07.274q1.524.381 3.09.522c.216.03.405.055.555.082.107.019.198.038.291.058.127.026.26.053.443.075.143.016.313.023.428.018l.015-.001q.068-.005.116-.012c.043-.005.08-.01.127-.01q.048 0 .11.006c.069.006.157.013.292.01.497-.014 1.07-.055 1.622-.119.618-.07 1.216-.17 1.69-.26.532-.099 1.281-.287 2.015-.525a23 23 0 0 0 1.447-.523c.42-.167.857-.345 1.274-.532.5-.224.972-.46 1.357-.691q.115-.07.281-.202.119-.093.275-.212.73-.442 1.418-.946l.054-.03v-.001a8 8 0 0 0 1.605-1.206c.164-.16.258-.27.341-.371.082-.099.155-.187.272-.305.132-.135.297-.285.473-.453.248-.236.518-.506.757-.806l.052-.066c.172-.218.421-.545.643-.889a20.168 20.168 0 0 0 3.801-8.78c.167-.963.212-1.899.175-2.59-.037-.687-.137-1.072-.23-1.072-.097 0-.18.384-.286 1.045-.105.667-.236 1.557-.416 2.48a19.5 19.5 0 0 1-1.391 4.364l-.104.217a15 15 0 0 1-.832 1.482z"/><path stroke="#231f20" stroke-linecap="round" stroke-linejoin="round" stroke-width="1.176" d="M18.817 27.793c-2.78-2.78-6.53-5.815-7.54-6.276 1.62-2.516 4.414-4.427 5.806-5.377.709-.56 1.424-1.274 2.162-2.012"/><path stroke="#231f20" stroke-linecap="round" stroke-width="1.176" d="M29.695 19.962c-1.778.022-5.047.352-8.312.529-.823.082-1.651.327-2.475.414-.823.087-1.618.008-3.42.027"/></svg>