<svg xmlns="http://www.w3.org/2000/svg" width="40" height="40" fill="none" viewBox="0 0 40 40"><g transform="translate(3.036, 3) scale(0.809524)"><path fill="#d8e6fc" d="M.5 20.765C.5 9.475 9.651.321 20.942.321c11.29 0 20.444 9.153 20.444 20.444s-9.153 20.444-20.444 20.444S.5 32.056.5 20.765"/><path fill="#3784ff" d="M39.934 24.79c-.04.25-.101.29-.061.09.011-.057.054-.124.061-.09m-.404 1.748c-.079.274-.09.114-.077.068.054-.193.162-.341.108-.429.028-.118.027.002.05-.07.043-.135.045-.28.08-.42l.007-.03c.02-.011.047-.045.062-.036-.015.156-.208.85-.23.917m.301-1.173c-.022.066-.038.031-.057.162-.026.023-.013-.105.003-.169.001-.001.013.011.017-.004.029-.111.05-.285.093-.28-.048.107-.034.224-.056.29m.289-1.432c-.024-.035-.012-.086.018-.164.005.007.012.01.017.018zm.053-.298c-.025-.066.04-.394.048-.334a12 12 0 0 1-.048.334M9.056 38.674c-.237-.077-.907-.633-1.058-.754-.714-.548-1.263-.992-1.865-1.565-.382-.366-.711-.73-1.063-1.12q-.034-.2-.065-.402c.044.06.062.094.119.157s.186.22.247.235c-.027-.079-.204-.285-.259-.347-.106-.118-.064-.021-.143-.098-.079-.078-.163-.246-.263-.338-.235-.215.125.255.204.33-.083.024-.187-.235-.3-.275.012.042.085.196.136.235.05.038.022-.065.099.044.026.094.057.197.084.291-.097-.091-.21-.259-.288-.348a18 18 0 0 1-1.318-1.706 20 20 0 0 1-.872-1.538l.003.019q.001.014.007.033h.001q.007.024.023.055c.012.028.026.057.027.073l-.032-.042-.068-.098-.005-.126a21 21 0 0 1-.243-.498q0-.011-.003-.03l-.005-.028-.017-.04c-.028-.072-.065-.159-.096-.23l-.023-.053-.053-.126-.006-.013.002-.01c.001-.03-.016-.064-.04-.093l-.008-.01-.103-.266-.05-.148v-.001l-.029-.086-.042-.127a3 3 0 0 0-.055-.143c-.048-.113-.229-.56-.307-.78a.6.6 0 0 0-.119-.217l-.054-.169-.011-.012-.031-.061c-.022-.048-.047-.102-.062-.101l.063.17c.004.04-.097-.14-.107-.21-.008-.057.038-.054.068-.042l-.024-.08q-.009-.009-.018-.013c-.01-.006-.02-.012-.034-.03-.067-.093-.136-.37-.06-.272-.02-.073-.031-.08-.045-.088-.015-.008-.032-.018-.064-.11a.8.8 0 0 1-.046-.202q-.002-.033-.01-.078c-.007-.029-.021-.077-.037-.131-.035-.12-.076-.27-.062-.31.015-.046.04.013.062.065a22 22 0 0 1-.099-.431q-.011.001-.025.005c-.059-.19-.049-.231-.017-.205a21 21 0 0 1-.106-.551l-.036-.105c-.007.015.002.057.011.096.007.032.015.063.011.075-.03.09-.17-.28-.088-.226.02.013.043.028.048-.01a.7.7 0 0 0-.025-.168l.003.001-.007-.012-.055-.082-.035-.08c-.13-.329-.049-.072-.068-.43-.001-.028-.008-.059-.013-.088a1 1 0 0 1-.011-.07l-.004-.103c-.001-.06-.002-.12-.016-.203q0-.002-.003.01c-.035.186-.004-.134-.004-.143L.2 24.08c.01-.004.027.066.047.146.019.076.04.162.062.206l-.012-.1a.4.4 0 0 1-.023-.118c0-.012.003-.011.008-.01l-.01-.09q-.007-.006-.008-.005H.262a1.4 1.4 0 0 1-.029-.288q.003-.01.008-.014l-.021-.236-.006-.024a.2.2 0 0 1 0-.059l-.01-.117H.202q-.011-.002-.016-.011c.027.206.008.168-.014.126-.01-.02-.02-.04-.028-.038-.008.004-.006.043-.004.08.003.046.006.09-.014.056-.001-.117-.018-.194-.034-.272-.05-.247 0-.295.017-.114a.5.5 0 0 0 .017.105c.01.032.027.04.041.046a.1.1 0 0 1 .02.01l-.003-.005a5 5 0 0 1-.035-.194c-.012-.101-.007-.098.001-.093.005.002.01.006.015-.004v-.03c0-.016 0-.033.004-.031q.004.001.012.016l-.005-.076a.2.2 0 0 1-.01-.04l.002-.125Q.15 22.4.144 22.02l.002-.007.002-.01.008-.032c.01-.037.024-.094.034-.146a1.4 1.4 0 0 0 .02-.406 1.3 1.3 0 0 0-.033-.203.3.3 0 0 0-.054-.117q-.006-.005-.01-.005l-.015-.032c-.012-.066 0-.067.01-.067h.005l.04-.032a24 24 0 0 1 .04-.84 39 39 0 0 1 .12-1.407c-.01.015-.021.022-.027-.034a1.5 1.5 0 0 1 .045-.312q0-.009-.004-.02c-.006-.019-.013-.045-.011-.092.002-.103-.033-.589.004-.696q.02-.139.042-.278l.02-.098.016-.034c.058-.147.138-.437.212-.596v.152l.058-.096.012.021q.046-.157.095-.313H.773c.004-.039.013-.055.022-.064l.049-.152.003-.052-.036-.046.045-.078a.5.5 0 0 1 .063-.218l.033-.145a1 1 0 0 1 .022-.104c-.005-.054-.073-.236-.022-.47l.106.053.04-.208-.055-.072.063-.007q.054-.195.112-.39a26.484 26.484 0 0 1 .028-.09l.043.025.003-.006a.5.5 0 0 0 .028-.108q-.018.016-.034.033.06-.264.128-.527l.054-.054.008-.023.013.002.023-.022.003-.01-.044-.145q.052-.143.107-.287.05-.108.098-.206l.2-.323a.2.2 0 0 1-.011-.05l.035-.066-.01-.025c.03-.053.079-.12.115-.28l.09.063.035-.042q.051-.249.107-.498l.24-.128q.134-.24.273-.474l.024-.054-.139.126-.047-.218q.127-.118.258-.235c.209-.504.648-.848.355-.8l-.09.2.06-.294.205-.178.146-.29.117-.032q.04-.13.084-.26l.233-.106q.356-.537.745-1.05c.48-.439.177-.3.435-.67q.236-.21.477-.408l.1-.219q.084-.06.169-.117.333-.343.681-.67l-.223.036.111-.144q.225-.106.45-.206.119-.143.241-.284.202-.16.409-.316l.077.06.046-.24q.275-.245.558-.481a21 21 0 0 0-.3.328q.165-.093.333-.182.146-.14.293-.278l.061-.12q.355-.225.718-.433.412-.278.84-.537c.21-.219.722-.353.655-.55q.37-.176.744-.337l.145-.11.119.03.282-.213q.22-.1.443-.196l-.117.113a21 21 0 0 1 1.292-.446l.014-.167q.249-.068.5-.13.014-.055.032-.11.4-.142.806-.267.435-.065.868-.11c.326-.168 1.087-.414 1.296-.265.447-.102.893-.19 1.347-.263l-.063.1.123.012.085-.145q.242.023.483.052-.083.046-.166.093l-.192.02.275.067-.011.004a10 10 0 0 1 1.2.045c.376.042.54.127.59.192q.015.022.016.045c0 .067-.115.133-.341.186l-.058.012a12 12 0 0 1-.975.152c.06.006.118.014.164.024-.035.013-.077.025-.114.038l.088.03c-.007.01-.01.018-.02.028-.192.014-.44.082-.61.102-.156.018-.249-.013-.37-.001-.121.01-.496.118-.434.026l-.07-.001c-.008.09-.17.047-.332.086-.077.018-.294.13-.111-.026-.026.003-.037 0-.06 0-.196.144-.298.126-.548.137-.14.006-.42.041-.279.096-.128.08-.322.04-.42.068s.047.041-.084.08a4 4 0 0 1-.264.06c-.056.007 0-.043-.088-.015-.382.12-.713.293-1.103.437-1.152.428-2.222.889-3.339 1.506-.189.096-1.116.667-1.233.717-.415.148.325-.386-.217-.088.012.326-.334.454-.748.76-.305.224-.76.634-1.028.82-.286.197-.096-.01-.292.08-.03.18-.141.306-.347.504-.216.208-.457.39-.685.606-.076.073-.159.193-.25.273-.112.1-.134.028-.204.089s.04.054-.02.136c-.027.037-.24.274-.306.306-.016.008.006-.053-.02-.059-.013-.003-.082-.067-.128-.003.017.107.076.166-.076.354-.24.296-.498.552-.749.873-.056.072-.135.281-.25.319-.034.01-.091-.05-.173.071-.07.105-.05.142-.09.247-.015.04-.053.028-.079.105-.026.078-.045.2-.156.187.02.025.041.041.06.064-.071.117-.292.256-.192.27q-.115.18-.226.363l-.123.012c.017-.089.123-.18.079-.225q-.106.154-.205.308c.157.057.036.428-.07.269-.022-.03-.123.202-.14.255-.016.053.035.098-.055.175-.052.044-.106.06-.137.215.06-.073.127-.148.19-.22-.074.117-.138.286-.226.38-.022.022.012-.096-.027-.052-.039.043-.137.253-.057.24-.16.038-.061.071-.157.275-.013.025-.22.179-.205.3.006.044.112.017.004.163-.078.109-.09-.045-.186.072.116-.022.074.208.024.331-.088.219-.13.163-.184.223-.096.108-.065.247-.162.292.013-.039.02-.075.032-.112l-.12.228.117.033c-.039.138-.105.178-.156.286-.007.016.025.01.02.026-.045.13-.074.166-.053.28-.098-.027-.092.163-.18.284-.023.034-.08.039.027.07-.107.248-.157.443-.299.629.129-.046.045.25-.03.416-.02.044-.106.065-.118.167l.124-.059c-.04.201-.129.133-.16.304-.012.076.11.055.028.184-.048.074-.194.09-.035.158-.017.115-.055.033-.079.111-.015.05.035.118.012.194-.045.142-.201.317-.08.349-.01.105-.048.02-.059.116-.015.128.014.456-.09.494.039.113-.028.448-.102.354.048-.177-.024-.329-.05-.148-.024.183-.04.23-.08.248.006.096.03.147.02.277-.007.093-.04.22-.05.331.017.002.03.009.036.036.014.07-.053.289-.058.363v.005c.014.015.04.014.045.091 0 .022-.026.072-.045.134q.004.082.001.159l-.006.062c.014.102.037.271.035.344-.002.043-.036.127-.038.144-.006.057.04.032.042.081.009.18.01.378.012.576.003.208.007.414.02.596.026.337.044.52.082.865.036.318.147.566-.116.35.002.265.057.156.118.19.036.02.016.092.024.106.027.044.037-.069.057-.033.078.145.122.819.15.963.12.666.26 1.166.425 1.763.106.381.2.744.326 1.116q-.046.202-.087.408c-.015-.058-.017-.092-.039-.153-.022-.06-.065-.214-.105-.227-.009.08.055.282.077.342.042.114.042.017.077.09.035.072.049.238.1.32.12.191-.024-.247-.057-.32.07-.032.07.224.146.25.003-.041-.007-.191-.033-.225s-.037.07-.062-.034l.031-.291c.042.085.075.245.107.326.359.909.744 1.782 1.213 2.646.043.08.13.236.163.318.025.064-.028.078.017.127.006.004.019-.04.068.03.094.134.282.442.38.596.951 1.513 2.086 2.853 3.366 4.13.067.067.331.306.368.362.11.17.037.203.196.189.084.064-.008.058.02.1.011.017.155.037.177.091.048.125-.107.003-.18-.02.11.141.287.206.404.299.033.026 0 .078.005.085.125.127.186.02.211-.024l-.193-.179c.144.094.221.201.35.32.03.03.02-.049.082.026l-.002.148c.2.108.275.136.09-.08l.266.2c-.056.01-.048.096.064.129.026.007-.003-.067.03-.058.034.008.223.156.238.17.133.13.109.22.265.27-.04-.025-.188-.182-.06-.124.14.066.64.451.792.56.254.187.375.282.582.471.039.036.009.082.087.15.104.09.312.22.431.32q-.05-.006-.106-.016l.074.077c-.008.005-.012.013-.022.017-.173-.081-.405-.144-.56-.221-.14-.07-.213-.157-.32-.217-.106-.059-.453-.19-.374-.242-.017-.015-.043-.033-.059-.047-.032.083-.155-.065-.3-.137-.069-.034-.283-.076-.083-.1-.021-.015-.03-.025-.048-.04-.206 0-.284-.09-.484-.265-.113-.098-.34-.282-.255-.124-.13-.024-.26-.214-.344-.268-.085-.053.016.075-.099.002a3 3 0 0 1-.22-.167c-.044-.04.02-.036-.057-.086-.328-.218-.645-.372-.977-.627a15 15 0 0 1-.367-.291c.216.26.334.509.813.619q.335.255.679.497l.017.06.042.028.319.217c.236.161.544.368.905.594a22 22 0 0 0 2.788 1.478l.02.01a8 8 0 0 1 .275.133c.022.012.166.088.255.168l.034.036.24.131-.023.047.207.077.034-.008q.329.108.659.204l.17.096q.305.097.588.178l.047-.05.283.143q.294.08.537.143l-.008-.027q.309.037.619.064l.236.104.2-.009q.411.072.825.127l.189.126.246.017-.186-.085q.346.037.692.06l.028-.09a3 3 0 0 1-.192-.01c-.05-.005-.032-.04-.042-.042-.197-.033-.223.035-.233.064l.302.044c-.21-.011-.345-.048-.542-.083-.047-.009-.003.03-.106.004q-.029-.04-.055-.08c-.272-.017-.373-.019-.075.062a18 18 0 0 1-.387-.06c.064-.015.023-.06-.12-.06-.034 0 .025.035-.017.036s-.319-.055-.339-.06c-.199-.057-.194-.109-.396-.123.057.011.277.083.109.064-.191-.02-.892-.212-1.093-.278a6 6 0 0 1-.781-.29c-.052-.024-.02-.049-.122-.093-.135-.06-.396-.157-.543-.23l.042.007c.15.05.292.097.416.143.48.077 1.005.227 1.177.263l-.007.004.077.026c.01-.021.047-.018.101-.005l.094.028-.003-.004c.054.015.117.032.18.043q.072.03.138.052l-.01.001c.03.007.042.012.067.02h.002l.012.003.035.012c.065.022.143.049.216.07.079.025.155.042.27.062q.072.014.181.03c-.115.012.06.108.38.157.05-.02-.074-.023-.072-.038s.12.022.08-.012c-.195-.04-.109.005-.26-.014.039-.01.006-.045.035-.054.045-.013.128.015.148.004l.035.004.264.045c.09-.001.413.112.574.158l-.03.001q.036.007.073.01l.028.008a.3.3 0 0 1 .08.03q-.012.003-.01.008.183.023.373.044-.001.006-.011.011a14 14 0 0 0 1.908.039l.267-.013.029-.04.001-.006c0-.009 0-.021.063-.011l.031.013q0 .006.005.011c.012.012.046.033.115.049a1.19 1.19 0 0 0 .723-.081l.029-.012.01-.004.005-.002a18 18 0 0 0 .716-.095c.002-.002.114-.024.12-.025a.2.2 0 0 1 .039.002l.071-.01q-.014-.004-.017-.01c-.002-.002.013-.005.029-.009.012-.002.024-.005.027-.007.008-.007.003-.011 0-.015-.006-.007-.01-.011.086-.021.017-.003.179-.01.186-.01h.007l-.032-.035a.1.1 0 0 0-.035-.011c-.027-.003-.064.003-.1.008-.062.008-.12.016-.116-.02.087-.018.152-.02.216-.022a1 1 0 0 0 .256-.035c.035.01-.004.019-.047.028-.034.007-.07.015-.072.024 0 .007.022.012.042.017.044.01.083.02-.112.045q.01.003.013.013l.001.002.11-.02a.2.2 0 0 1 .054-.015h.024l.22-.044q.003-.005.01-.011c.021-.015.221-.054.27-.058v.001q-.002.002.007.007l.084-.018c-.003-.004-.005-.008.006-.012a.4.4 0 0 1 .113-.016l.093-.022c-.046-.004-.13.003-.203.01-.078.006-.145.011-.144 0l.014-.006c.028-.009.079-.026-.025-.043.247-.054.18-.015.153.002l-.009.006c.079-.012.131-.031.185-.05l.091-.032q.028-.008.065-.013a1 1 0 0 0 .081-.019 2 2 0 0 0 .123-.06c.054-.027.106-.055.116-.056.02.02.09.02.156.018h.083c.02.001.046.007.067.012l.024.005.015.001-.003-.002a.6.6 0 0 0 .153-.048c.022-.015.015-.027.002-.037l-.028-.019c-.01-.008-.012-.017.016-.026.135-.045.258-.022.224.016a.2.2 0 0 1-.068.024c-.036.009-.074.018-.084.03l.103-.013q.252-.075.502-.16c-.037-.015-.008-.042.172-.086l.009.025q.195-.069.39-.14c-.052.01-.111.02-.084-.017.024-.033.161-.078.27-.115a2 2 0 0 0 .12-.043.5.5 0 0 0 .09-.05l.224-.082a.07.07 0 0 1 .042.005c.014.006.026.012.09-.016-.044 0-.036-.018-.003-.038l.186-.073.047-.007q.028.001.042.008l.02.005.07-.03a.1.1 0 0 1-.032-.034l.082-.033a.3.3 0 0 0 .101-.02q.04-.013.062-.017h.015L28.16 39a.5.5 0 0 0 .222-.057c.066-.03.156-.07.25-.114.009.005.03.006.105-.016a1 1 0 0 1 .066-.065l.281-.137a2 2 0 0 0 .23-.133l.07-.046.116-.076c.241-.118.489-.234.735-.367.106-.057.239-.15.362-.215.153-.082.143-.031.238-.081.094-.051-.017-.036.076-.101.043-.03.35-.224.427-.254.018-.007-.028.04-.006.042.012 0 .05.041.122-.01.028-.079-.003-.116.223-.272.355-.249.706-.475 1.074-.758.082-.063.244-.239.366-.284.035-.013.061.029.186-.08.107-.092.106-.12.186-.21.03-.034.06-.03.116-.096.056-.067.125-.17.218-.174-.006-.018-.018-.029-.027-.044.115-.106.367-.253.286-.251q.176-.166.349-.337l.11-.027c-.051.078-.18.169-.162.201q.155-.143.306-.29c-.11-.026.149-.362.172-.24.005.023.188-.192.223-.241s.012-.08.12-.16c.06-.047.112-.068.202-.21a13 13 0 0 1-.248.221c.11-.114.233-.272.343-.368.028-.023-.048.086.002.041s.215-.246.145-.221c.146-.059.08-.073.24-.271.02-.025.247-.195.284-.304.013-.04-.081 0 .063-.15.105-.111.052.028.175-.093-.1.037.024-.182.112-.304.154-.218.164-.172.229-.236.116-.115.146-.244.237-.3-.025.039-.044.075-.067.111q.09-.116.177-.233l-.075-.015c.082-.138.147-.185.225-.297.01-.015-.015-.005-.005-.021.082-.132.117-.172.144-.28.062.013.129-.171.236-.302.03-.036.073-.049.006-.064.167-.258.272-.46.438-.664-.107.063.055-.244.163-.421.029-.047.096-.08.139-.185l-.106.075c.096-.21.134-.15.212-.33.033-.078-.058-.043.04-.185.057-.081.162-.115.075-.166.048-.12.048-.04.09-.123.025-.053.013-.118.052-.199.075-.153.233-.354.161-.374.039-.11.038-.026.074-.127.048-.135.124-.478.203-.529.007-.115.142-.479.164-.385-.079.192-.075.346-.008.152.107-.32.103-.256.193-.31.013-.008.048-.098.053-.075.006.023-.047.223.016.122.012-.02.025-.128.059-.14 0-.022-.003-.034-.004-.053.116-.162.143-.174.04.164l-.028-.04v.156c-.124.364-.26.87-.409 1.184-.13.275.021-.114.021-.122.005-.08-.058.044-.075.04s.023-.172-.026-.027c-.007.02-.036.227-.033.236.02.045.052.011.045.057a20 20 0 0 0 1.068-2.96c.188-.703.31-1.245.402-1.696q.02-.216.035-.433l.042-.14q.048-.376.083-.752l.037-.03c-.072-.427.171-.54 0-.912q.001-.23-.004-.461l.08-.102-.02-.043a20 20 0 0 0 .028-.407q-.03-.152-.064-.302c.081-.075-.071-.861.004-.711l-.028-.342.037.08.018-.055q-.028-.125-.059-.249c.107-.132.002-.264-.013-.321-.023-.095-.045-.27-.05-.282-.005-.016-.018.148-.052.015l.03-.222-.034-.02v-.15l.036-.002v-.088l-.038-.045-.072-.37.01-.285-.033-.143-.07-.02q.004-.2.002-.401l-.06-.21-.022.056.037.073-.024.021-.113-.322q0-.07-.002-.14l-.05-.098a19 19 0 0 0-.117-.441l.024-.123-.044-.128-.004.112-.114-.363-.071.007-.036-.165.035-.02a20 20 0 0 0-.148-.68l-.08-.002c-.065-.308-.21-.601-.305-.865-.04-.112-.037-.28-.09-.233q-.12-.321-.253-.639l-.117-.164-.075-.293c-.107-.115-.487-.775-.415-.79-.097-.142-.077-.138-.2-.305l-.035-.15-.125-.23q-.105-.138-.212-.275l-.065-.234-.052.019-.124-.163c-.177-.105.164-.063-.25-.486q.074.11.144.22v.122l-.226-.289-.13-.224-.141-.164q-.15-.244-.308-.486a20 20 0 0 0-.348-.415l-.029-.101-.191-.151-.055-.078.01-.045q-.147-.159-.299-.313l-.177-.246-.016.03a20 20 0 0 0-.969-.995l-.002-.003c-.011-.059-.241-.168-.146-.227l-.054-.007-.098-.115.033-.021-.084-.078-.038.028.073.109-.226-.225.054.005c-.082-.113-.477-.286-.08-.27l.148.17-.049-.13.06-.02.13.162.101.043-.039-.066.112.06q.155.135.307.271l.035.065q.252.249.495.505l-.09-.032.13.135.07.016.135.127-.079.025-.162-.093q.043.06.085.123l.059-.018.142.158-.04-.102.068.007.218.208q0 .023-.003.046.09.07.177.14l.055.096.048.023.163.195.072.142.127.102q.288.378.559.769c.182.133.39.596.424.537q.229.335.444.677l.06.152q.224.339.434.685.225.453.428.914l.013-.121.14.286.04.192q.059.072.115.145c-.067.12.142.256.218.522.147.094.08.356.238.477l-.039-.011.062.16q.083.157.163.316l-.036.026.045.144-.063-.065.035.128q.103.214.2.431l.007.127.051.052q.031.137.06.275.014-.015.026-.03l-.036-.12.033-.004.119.405.01-.04q.05.172.096.346v-.008c.005-.05.081-.035.01-.272-.062-.203-.102-.228-.18-.4-.03-.066-.003-.09-.063-.213s-.164-.294-.109-.392c-.03-.011-.054-.01-.082-.015-.08-.22-.13-.617-.182-.533a20 20 0 0 0-.27-.67l.032-.14c.083.125.133.343.194.354-.074-.194-.153-.391-.232-.581-.11.09-.447-.475-.248-.391.038.015-.168-.363-.219-.442-.05-.078-.114-.08-.166-.26-.03-.103-.029-.174-.188-.386.06.143.12.296.176.443-.101-.21-.264-.47-.338-.664-.019-.048.1.121.064.033-.035-.089-.237-.425-.246-.332.006-.198-.061-.142-.263-.466-.025-.04-.14-.411-.287-.533-.052-.043-.052.086-.193-.179-.105-.194.08-.034-.03-.254-.008.133-.27-.161-.406-.34-.241-.32-.162-.297-.22-.41-.107-.206-.29-.326-.32-.46.045.052.088.097.132.147a21 21 0 0 0-.255-.349l-.073.07c-.166-.18-.198-.28-.324-.436-.018-.022-.02.013-.039-.009-.156-.173-.196-.236-.352-.334.063-.058-.19-.247-.328-.442-.038-.054-.03-.108-.1-.045-.304-.338-.559-.568-.778-.864.03.153-.359-.198-.574-.41-.057-.058-.063-.149-.204-.25l.049.155c-.275-.214-.154-.227-.392-.404-.106-.077-.109.042-.274-.138-.095-.104-.079-.238-.22-.165-.164-.111-.033-.073-.14-.159-.069-.053-.183-.07-.288-.151-.198-.156-.417-.423-.499-.35-.154-.093-.017-.056-.157-.14-.188-.114-.694-.34-.723-.452-.182-.053-.682-.349-.515-.34.26.165.514.221.242.068-.449-.248-.346-.217-.372-.342-.004-.019-.127-.093-.087-.092s.332.14.21.027c-.024-.021-.191-.077-.188-.121-.036-.009-.057-.01-.088-.015-.184-.195-.184-.233.294.012l-.084.02c.085.02.16.034.253.058.509.283 1.239.651 1.65.967.359.273-.168-.074-.184-.079-.13-.041.032.086.014.104-.019.016-.266-.104-.063.017.027.016.343.143.362.144.14-.003-.026-.13.394.137.15.095.567.394.722.512.173.128.282.27.384.346.101.076.026-.02.145.072.236.182.544.485.748.669.23.209.325.24.543.45.15.144.328.365.5.525.023.056-.11.038.001.146.136.133-.01-.094.074-.042.143.131.02.057.024.063.054.08.172.19.245.282-.04-.069-.08-.135-.124-.207.197.254.13.093.312.275.047.048.102.203.266.367.04.038.423.43.53.57.046.06.1.173.114.195.055.08.08.048.136.117.414.517.829 1.156 1.164 1.691.317.51.483.792.771 1.332.266.502.541.943.098.477.169.403.164.267.256.35.055.05.073.15.09.175.057.084.004-.084.049-.018.186.264.569 1.347.648 1.593.398 1.122.656 2.02.868 3.1.132.686.208 1.33.273 2.022q-.07.233-.146.467c-.002-.098.002-.148-.007-.26-.01-.111-.027-.38-.063-.446-.017.104.01.462.018.57.017.211.034.075.052.22s-.008.39.014.567c.051.415.042-.366.023-.51.068.043.013.399.068.532.014-.052.04-.273.024-.355s-.046.049-.046-.127c.028-.119.056-.251.082-.37.024.174.02.44.03.597.024.414.035.822.033 1.234a20.3 20.3 0 0 1-.398 3.884c-.03.155-.097.462-.14.602-.033.108-.062.033-.078.157-.002.014.034-.01.003.145-.057.292-.226.908-.324 1.212-.806 2.587-2.103 4.979-3.832 7.01l.071-.05q-.049.108-.1.214-.232.3-.475.59l-.118.07q-.443.483-.914.937.03-.083.058-.164-.121.12-.246.24l-.032.127q-.117.127-.236.25l-.042-.143.113-.192-.005.003c-.023.016-.182.251-.248.277l-.026.008-.148.13.187-.074-.016.125q-.194.2-.394.397l-.083-.006q-.132.159-.268.318l-.182.097-.046.085q-.185.144-.374.285l-.269.122q-.1.111-.202.221-.732.492-1.501.919c-.28.31-1.176.594-1.075.666q-.67.342-1.36.636l-.296.066q-.683.303-1.388.556-.905.247-1.82.41l.21.072q-.286.066-.574.125l-.364-.012-.313.134c-.181-.173-.529.13-1.039.127-.24.206-.663-.037-.962.157l.018.006c-.008.011-.012.023-.022.034-.052-.005-.11-.007-.165-.01.039-.048.09-.05.163-.03l.038-.055q-.158.011-.317.02-.324.057-.65.102l-.023-.078-.183-.003q.007.015-.01.025c-.29.023-.329-.065-.098-.07.025-.001.052.005.072.015l.09-.042-.244-.015q-.195.022-.393.04-.204.02-.407.034c.011.017.02.035.012.051a5 5 0 0 1-.696-.001v.002l-.143-.01-.238-.015a1 1 0 0 1-.112-.013l-.257-.025h-.024l.055.042q-.329-.033-.659-.077c-.096.01-.122.045.026.062.383.043.302.063.35.186.008.018.113.039.084.057-.03.019-.271.012-.156.073.022.012.155-.01.164.04.027-.008.042-.017.065-.026.18.124.189.163-.213.13l.056-.063c-.066.021-.124.042-.196.062-.436-.056-1.052-.067-1.43-.173-.329-.092.142-.014.153-.017.105-.026-.043-.074-.034-.102.01-.028.219-.034.042-.053a2 2 0 0 0-.3.047c-.102.08.05.12-.322.075a14 14 0 0 1-.658-.118c-.159-.03-.274-.11-.368-.128-.094-.017-.015.035-.126.013-.221-.045-.526-.161-.725-.218-.225-.065-.304-.037-.522-.105-.152-.047-.341-.149-.514-.192-.03-.039.078-.107-.035-.14-.138-.04.03.084-.048.088-.141-.033-.032-.041-.034-.044-.06-.042-.18-.07-.259-.11q.07.057.146.116c-.215-.113-.124-.005-.31-.058-.05-.015-.13-.125-.3-.17a6 6 0 0 1-.563-.174c-.052-.024-.123-.092-.14-.102-.065-.034-.077.01-.14-.014-.463-.188-.968-.466-1.39-.687-.4-.212-.617-.332-1.014-.568-.368-.221-.735-.371-.22-.319-.26-.202-.217-.094-.321-.094-.062 0-.107-.067-.13-.075-.074-.024.022.07-.036.05M39.85 26.26c.011.144.066.025-.062.29.03-.283-.114.09-.16.078-.025-.007.03-.132.028-.175-.002-.065-.061.013-.053-.062.008-.074.104-.317.125-.398.04-.155.058-.293.088-.423.031-.13.1-.329.122-.413.02-.084.033-.166.033-.18.001-.084-.047-.036-.025-.15.04-.007.13-.166.12.003.005-.025.018-.055.022-.078.017-.111-.046-.05-.045-.102.002-.087.03-.028.033-.028.047-.087.003-.044-.006-.081-.005-.02.008-.186.015-.221s.02.009.025-.015c.022-.101.044-.206.056-.308.01-.1-.016-.157.035-.157.008 0 .007.057.028.038.007-.007.048-.091.048.023a1 1 0 0 1-.007.104l-.015-.038-.014.083q-.024-.024-.047-.041c-.025.037-.007.075-.007.081-.023.096-.059.087-.026.152l.053-.191.026.003-.007.038.026-.022c-.017.09-.045.186-.072.268l-.018-.087c-.01.11-.022.047-.047.124.04.02.022.063.007.128s.032-.02.024.046c-.016.134-.114.361-.058.397-.075.17-.036-.04-.05-.051-.055-.05-.101.3-.078.355-.032.047-.061.047-.084.177-.03.178.095-.203.044.038-.034.16-.06.135-.087.215-.05.147-.104.41-.035.32.027-.035.034-.15.063-.191.016-.023.093.037.058-.105-.004-.014-.055.057-.028-.055.007-.032.063-.136.075-.228.006-.04.003-.21.04-.31.04-.109.012.058.035.018s.051-.178.08-.173c.018.075-.036.083-.039.107-.01.094.057.019.022.154-.033.02-.08-.104-.105.094.002 0 .03-.045.02.019a5 5 0 0 1-.093.459c.043-.007.082-.174.13-.257-.036.183-.076.39-.15.52l.036-.208-.058.243c-.009-.032-.004-.216-.048-.088.042.013.002.193.007.261m-.515.895c-.002-.098.05-.23.096-.371.026.035-.065.263-.096.37m.988-3.775c.071-.104.017.283-.014.438l.016-.109-.045.05.012-.119q-.03.069-.059.135c-.04-.098-.005-.107.023-.255.017-.096.003-.13.016-.247.057-.552.073-1.112.1-1.681.045-.01.056.001.059.105l-.041-.003.009.201q.014-.098.032-.193v.12c0 .037.018.042.013.093-.009.107-.072.256-.065.37.004.065.062-.034.036.13-.03-.09-.058-.151-.061.093.043-.148.022-.033.035.017.009.03.02-.179.032-.046.003.028-.012.447-.043.434-.065-.029-.054-.051-.044.217.063-.348.077-.038.04.117-.02.08-.035-.05-.051.133m.092-2.06c-.005.107.025.128.003.21-.003.008-.032-.056-.032-.107s.017-.38.021-.392c.054-.11.01.252.008.29m.007-.333-.008-.391.021.012-.005.157zm-1.177 6.645c-.033-.042-.082.076-.098.121-.058.165-.134.251-.117.33.064-.09.06-.165.082-.212.047-.102.085-.098.133-.239m-.253.621c-.026.04-.04.015-.07.072s-.11.223-.129.287c-.018.065.02.063.012.117.066-.16.126-.315.187-.476m-.382.91c.044-.088.047-.206-.038-.002-.004.009-.008.09-.055.145-.032.035-.03.002-.068.049-.04.046-.035.191.161-.192m-1.08 1.93c.025-.039.033-.094.017-.076-.118.14-.128.26-.016.077m2.9-9.391v-.006h.001zm-2.66 9.01-.11.235.104-.13zm.157-.087c-.021-.021-.05-.022-.12.063.016.03.066-.013.12-.063m-.791 1.143c-.092.09-.035.205.022.032.005-.017-.015-.039-.022-.032m3.104-7.714v-.004l.005.005zM4.013 30.77c.006.098.15.118.147.099-.015-.092-.15-.168-.147-.099m34.548-1.193c.17-.25.105-.322.106-.343.003-.114.091-.122.102-.146.048-.112-.093 0-.102.015-.134.235-.043.19-.035.22.016.067-.096.221-.07.254m1.699-5.508q.007-.033.01-.065l.004.009.03-.123-.01.15zm-5.067 10.202c.175-.1.531-.6.241-.305-.05.05-.01.034-.04.067-.029.034-.33.313-.201.238m4.178-6.715c-.046.044-.067.13-.1.232l.042-.025q.03-.104.058-.207M3.336 29.575c.05.077.106.234.155.2l-.085-.212zm-.508-.828c.053.07.047-.03.085-.012.039.02.142.277.127.076-.006-.062-.192-.338-.19-.454-.144.005.016.139.02.284 0 .044-.104-.033-.042.106m31.932 5.956q-.084.098-.17.193l.182-.176zm-9.504 5.225.044-.018.136-.032.06.01q-.12.022-.24.04m8.235-3.988c.126-.081.244-.24.143-.186-.12.064-.346.317-.143.186m.614-.596c-.245.207-.366.404-.07.113.016-.017.014-.062.07-.113m-9.641 4.76c.126.012-.357.15-.504.155l.113-.087.058-.016.25-.047.084-.005zM1.768 25.168c-.054.323.08.363.061.165-.002-.024-.038-.175-.06-.165m36.416 5.182c.016-.002.033.12.066-.061.011-.062-.012-.06.066-.215-.07.146-.11.104-.122.118-.098.113-.111.272-.072.26.012-.005.045-.1.062-.102m2.21-6.769.035-.258.026.028q-.03.117-.062.23m-38.511 2.83c.042.005.117-.275.118-.31 0-.234-.118-.327-.127-.543-.083.085.019.218.005.354-.004.042-.123-.072-.094.127.009.065.098.279.098.372m21.879 13.872c.066.004-.05.088-.192.054q-.006-.004 0-.01.003-.007-.001-.01c-.014-.002-.07 0-.134.003-.134.005-.308.008-.247-.017q.128-.017.254-.036l.056.014q.033.012.079.016a1 1 0 0 0 .19-.014zM1.139 23.564c-.014.035.01.203.027.214s.026-.016.035-.04l-.004-.061.008.05c.01-.023.02-.036.04.015.02.152.044.31.068.463l.076-.069q-.024-.041-.046-.084l.01-.098c.173.06.05.364.17.583q-.05.012-.099.02c.047.416.03.13.105.084.043-.026.03.119.043.141.087.15.065-.28.04-.41-.028-.13-.121-.302-.148-.449-.016-.087.016-.106 0-.193-.022-.13-.053-.363-.09-.475-.015-.04-.073.009-.079.021-.013.032.028.084.027.118 0 .035-.03.016-.026.06.003.045.052.272.06.286.044.083.055-.062.07.06-.193.19-.125-.234-.145-.288-.048-.123-.062-.098-.068-.047.004.084.008.167.004.172-.038.048-.051-.003-.055-.073-.01-.008-.019-.015-.024-.002zm.129-4.89c.023-.254.103-.099.1-.056-.014.179-.135.306-.015.396-.002.108-.045-.005-.056.06-.022.131.034.277.017.413-.03.01-.061.04-.09.03-.024-.145.036-.78.044-.843m37.787 9.768-.103.333c.062-.156.08-.214.155-.3zm-3.732 5.79c.015-.008.216-.24.199-.255-.042.038-.295.312-.199.256M1.205 20.273c-.011-.227.078-.258.074-.077-.001.051-.051.11-.074.078m7.148 15.722c.021.02.32.258.327.191a22 22 0 0 1-.477-.418c-.002.02.031.073.05.097.045.061.021.06.1.13M1.193 19.75c.014-.06.053-.026.04-.148h.012c.028.01.044.109.04.16 0 .001-.026-.012-.027.002-.01.1.009.259-.063.25.046-.094-.016-.203-.002-.264m37.611 9.479c.057-.117.05-.202.014-.19l-.093.24zm-28.657 8.073-.088-.079.068.025-.073-.07-.135.011zM1.47 25.387c-.011.113.097.046.095-.014s-.055-.163-.018-.223c.04.072.03.167.069.26.044.11.072-.03.049-.056-.046-.053-.076.026-.072-.132.005-.134.138-.024.12-.132-.023-.136-.074-.07-.102-.01q-.044-.123-.084-.246c.054.252-.014.298-.1.37.014.11.057-.006.075.107.006.04-.03.067-.032.076m1.653 3.939c.092.186.16.15.05.008-.024-.03-.037-.021-.05-.008m35.828-.5-.09.192.017.011.09-.192zm.53-1.303c-.026.091-.103.236-.074.25q.051-.117.1-.234zm-3.952 6.524a.4.4 0 0 0-.036.039zm4.083-6.883-.054.21.08-.195zM21.376 40.556a1.3 1.3 0 0 1-.24-.006c-.068-.004-.132-.01-.167-.01.133-.11.429.01.407.016M9.311 36.948c.399.301.333 0 .01-.225-.05.02.047.057.038.08-.01.025-.084-.065-.07.002.135.114.09.017.2.083-.035.008-.026.076-.053.084-.05.016-.116-.08-.125-.024M1.109 22.314l.001-.003c.016-.077.134-.1.137-.113.02-.162-.094-.237-.13-.135-.02.06.059.15-.016.157.006-.12-.006-.164-.021-.176zm.222-3.864c-.056-.038.002-.246.007-.347.042.095.012.216-.007.347m37.055 11.574c-.077.146-.04.124-.04.155l.056-.1zM2.199 14.353c-.013.039.006.098.018.082.097-.13.044-.263-.018-.082m-.998 8.525c.043.12.035.377.119.346.025-.226.005-.136-.05-.227-.038-.061.004-.177-.069-.12m7.574 13.46-.143-.126.023.084zm12.92 4.266c-.026.049-.51.017-.439-.005.195.005.184-.01.17-.028-.005-.009-.012-.018.002-.027.078-.045.29.022.267.06M38.94 29.02l-.08.123q0 .032.002.063l.058-.12zM1.085 21.8c.084-.182.144-.214.066-.222-.006.036-.016.056-.026.038v-.04l-.046-.002zm.495-5.594c-.026.083.027.205.06.009 0-.01-.032-.092.014-.14.03-.03.043.003.08-.039.037-.04-.04-.192-.154.17m-.094.413c-.029.152-.052.297-.076.45.024-.036.059-.009.08-.06.021-.053.068-.207.067-.27-.002-.062-.06-.067-.071-.12m18.32 24.146c-.076.002-.242.003-.206-.019.016-.008.06-.004.098 0 .046.005.085.01.066-.01-.152-.044-.285-.046-.467-.05h-.017q-.002 0 .013.008c.022.012.062.033.035.042l-.03-.007c-.079-.017-.052-.022-.172-.035l-.075-.006-.043-.012q-.04-.008-.092-.015a1 1 0 0 1-.154-.031c.027-.016.143.008.236.027a1 1 0 0 0 .125.02.1.1 0 0 0 .022-.015c.017-.013.038-.031.057-.035l-.058-.004c-.05-.001-.111-.003-.101-.019l.001-.002.001-.002c.016-.025.04-.065.152-.056q.014 0 .024.009a.1.1 0 0 0 .038.014l.087.004q.061 0 .114.008.015.002.033.012.022.012.05.016a.3.3 0 0 0 .064-.005c.047-.006.11-.015.171-.005.042.007.113.06.031.064-.05.003-.06-.005-.068-.011a.04.04 0 0 0-.02-.008l-.076-.003c-.062 0-.122-.002-.119-.033-.06-.005-.058.03-.041.038.044.027.57.09.619.076l-.005-.004c-.016-.009-.052-.03.05-.056.08-.02.175-.015.219-.013h.024q.002-.001-.012-.013c-.034-.03-.106-.092.186-.034.035-.003.029-.013.024-.02-.004-.006-.007-.01.005-.013a2 2 0 0 1 .19-.007l.023.028-.04.002c-.07.004-.215.01-.209.03.172-.01.236 0 .372.023l.012.003.017.005c.04.011.1.028.13-.004.006-.007-.02-.01-.05-.013-.038-.004-.081-.009-.06-.024.095 0 .146-.011.206-.024l.012-.003c.023.008.001.016-.018.022-.014.005-.026.009-.021.012.003.003.137.03.145.032.025.002.086 0 .146-.001l.11-.003c.032 0 .071.002.104.004l.055.002c.019 0 .038-.006.059-.01a.4.4 0 0 1 .079-.014q.02 0 .048.006l-.035.013-.051.02-.091.031-.022-.009c-.028-.024-.148-.024-.329-.013-.042.002-.047.009-.05.014-.002.004-.004.007-.015.009a3 3 0 0 1-.234.013l-.135.005q-.076.003-.14.01c.003.011.048.008.083.006l.04-.001c.008.002.017.01.017.019v.001c0 .01-.012.022-.047.026-.124.012-.164-.008-.202-.026a.2.2 0 0 0-.065-.023c-.179-.032-.427-.019-.3.04-.152-.026-.156-.02-.163-.012-.003.004-.006.008-.022.01a.5.5 0 0 1-.206.01 1 1 0 0 0-.133-.011M1.282 17.647c.07.047.098-.062.104-.105.022-.154.102-.229.04-.31-.061.08-.022.155-.035.199-.03.094-.092.084-.109.216m-.157 3.536c.008.019-.004.09-.001.208l.001-.075c.016.016.025.048.03.085-.003-.115-.008-.19-.023-.214zq-.002-.007-.008-.006v.001zm9.3 16.432-.029-.088-.105.033zm11.607 2.96c-.048-.003-.097-.01-.092-.02q.096-.002.17-.023l-.002.001-.002.002h-.002zm.478-.01a.3.3 0 0 1-.052 0l.02-.011a.3.3 0 0 0 .055-.044l.107-.006c.015.021-.015.05-.13.061M17.465 1.203l.033.052c-.004-.015.001-.037.005-.06zM4.648 9.315c-.1.084-.144.273-.055.221.106-.061.217-.357.055-.221M3.311 29.833c-.008.124.12.396.076.171-.01-.057-.051-.117-.076-.171m-1.255-15.11.034-.236-.083.122zm1.503-3.598c-.165.09-.33.627-.128.327.035-.051-.007-.04.011-.074.018-.035.238-.319.117-.253m-1.164 2.557c.08-.082-.068-.226-.05-.041.002.018.043.047.05.04m1.878-3.697c.174-.222.197-.461.017-.135-.01.018.021.079-.017.135m-.423.688q.047-.105.097-.21l-.123.187zm17.968 29.929c.05-.006.116-.01.18-.01l-.022.01-.028.013zM1.088 20.706l.002-.01v-.004zm-.044.11c.01.036.018.007.03-.051l.013-.06c-.009.01-.032-.015-.034.003l-.005.057zm-.046-.533.001.078c.027.01.058.005.066.032l.005.025a.5.5 0 0 0 .02-.143c-.034.02-.068.036-.092.008m.871-5.497c.043.027.087.034.144-.045-.039-.035-.09.002-.144.045m-.851 5.664c.017.024.033.013.046-.016-.014.007-.043-.018-.045-.017l-.01.015zm.008-.74c0 .028.006.052.018.06.024.012.036-.04.04-.09-.005-.088-.036-.005-.058.03m-.027.373v.088c.033.008.05-.024.056-.07a.05.05 0 0 0-.056-.018M29.523 2.348c.087.045.266.087.289.136-.098-.035.023.093.121.122.092.03.086.01.025-.042.296.147.645.303.856.463-.047-.019-.062-.011-.077-.002.09.053.127.102.24.155-.006-.028-.034-.057-.064-.087.227.14.568.292.697.435-.174-.11-.304-.19-.297-.103l.224.12c.088.106-.146-.003-.02.082.133.06.14.109.269.168.032-.038.025-.096-.05-.216.406.243.81.5 1.187.77-.143-.06-.276-.178-.344-.22-.06-.035-.066-.007-.12-.035.009.004-.137-.126-.13-.079l.143.145c.163.122.113.022.25.117.05.075.393.347.339.22-.076-.054-.21-.116-.177-.154.135.083.185.154.341.244.047.068-.114-.01.013.088.055.038.034-.012.078.014.047.15.302.339.514.526-.133-.07-.31-.115-.441-.256.016.05-.05.004-.075.008-.104-.106-.43-.295-.337-.269.032.01.132.1.122.063-.123-.134-.427-.23-.154-.025l-.208-.136c-.055-.119.106-.007.103-.07a.65.65 0 0 0-.25-.14c.21.145.014.02.098.14-.201-.163-.336-.184-.513-.338.134.079.249.093.36.106-.09-.083-.306-.171-.326-.123-.101-.067-.193-.154-.21-.105.052.04.101.08.137.119-.401-.198-.808-.486-1.444-.783-.084-.058-.145-.115-.243-.171-.148-.038-.344-.182-.419-.228-.074-.047-.198-.097-.235-.12-.226-.146-.314-.286-.466-.421l-.003-.002c.118 0 .098-.102.197-.116M1.084 19.356c.013-.103-.078-.349-.045-.07l-.048.023-.001.005zm0-.154-.002-.005-.001.011zm.023-1.015c-.016.065-.041.14-.024.2l.088-.08a.4.4 0 0 1-.025-.13zM28.21 39.355c-.109.003-.429.115-.2.07.059-.012.137-.047.2-.07M1.416 16.304a.23.23 0 0 0 .106-.048c.08-.187.004-.193-.036-.211l-.02.093v.003c.012.04-.002.062-.022.076l-.013.044zm-.358 6.052q.008.061.013.12c.016-.006.018-.047-.002-.151zm.274 2.12.014-.064-.096-.061.013.074zm-.32-3.06c-.003.047.005.079.015.114l-.01-.146zM16.35 40.174l-.17-.026.053.05zM3.413 11.146c-.013.007-.135.253-.104.274.033-.036.196-.323.104-.274M4.82 8.751c.039.005.118.065.168.021.08-.07.107-.178.032-.16-.022.005-.166.15-.2.139m-3.58 15.264c-.01-.005-.019-.062-.025-.07l.004.065zm30.247 13.72-.124.077.06-.036zm-.331.282c.008-.018-.05-.004.041-.053l.063-.018q.083-.059.167-.117l-.143.03c-.201.123-.346.207-.45.27a3 3 0 0 0 .368-.203c.01.047-.233.134-.282.204.022-.006.08-.027.132-.05l.06-.037zm1.04-.693.318-.24a1 1 0 0 1-.07.038c-.009.003-.008-.002-.006-.01a20 20 0 0 1-.348.237c.036-.007.075-.016.105-.025m7.65-23.053.055.09-.023-.09zM28.78 39.158c-.22.095-.223.145-.034.04.04-.022.04-.031.034-.04m4.52-2.678-.12.092v.002zM6.217 7.173c-.079.045-.145.164-.076.138s.173-.192.076-.138M.842 22.6c.021.032.102.118.132.109.046-.014.073-.13.042-.21-.014-.002-.027-.01-.032-.04-.03-.006-.074.017-.051-.117l.018-.046a1.6 1.6 0 0 1-.027-.28c-.019-.012-.038-.02-.06-.003-.036.028-.004.194-.007.265-.001.03-.032.05-.032.056-.006.071.029.093.037.157.004.03-.04.078-.02.11m16.04 17.755-.299-.045.124.038-.086-.009.104.033zM3.915 10.202l-.066.067.048.02.05-.18-.06.042zm-2.266 4.985-.005.015c.026-.006.05.004.055-.002.077-.09.04-.228-.006-.26a2 2 0 0 1-.031.145l-.063-.026c.016.043.034.08.05.128m1.57-4.3q-.13.241-.249.483c.074.022.026.17.093.185.038.01.103-.153.144-.207.017-.024.047-.012.05-.016.042-.052.032-.1.062-.159.014-.027.068-.023.073-.067s.003-.184-.02-.205c-.041-.037-.142.052-.153.162-.005.053.081.06-.027.166-.014.014-.124.047-.154.114-.002-.102.138-.357.211-.457q-.014-.01-.03.002M1.295 25.435c.008.116.074.186.1.098.008-.027-.02-.239.009-.271-.026.04-.114.1-.109.173m.078-9.18q-.008.041.016.048l.008-.063q-.021.007-.024.014m.513 10.935c-.005.086.093.241.083.117-.008-.1-.077-.203-.083-.117m-1.015-6.9c-.032.121-.06.136-.044.273.027-.071.086-.212.044-.274m18.435 20.498q.052-.001.09-.005a1 1 0 0 0-.144-.018l.052.008zM.945 18.253c.04.005.108.032.04-.083q-.01-.018-.022-.028c-.004.025.004.086-.018.111m.647-3.062a.5.5 0 0 1-.017.11c.01-.048.026-.073.043-.087l.009-.02zm-.563 8.526.015-.082-.052-.001.005-.101-.047.035zM20.614 40.93l-.202-.007a8 8 0 0 1-.6-.035c-.212-.044-.144-.084-.316-.027-.126-.005-.019-.03-.07-.043-.011-.002-.06.005-.113.01q0 .008.003.016.624.112 1.258.187zM1.242 16.194c.008.065.043.107.078.102l.012-.107c-.012.015-.024.03-.034.031-.03.004-.041-.133-.056-.026m39.898 4.134c0-.072-.005-.156-.01-.243l-.022.033.012.116-.041-.002-.012.16.065.15.006-.059zM1.19 16.851l.024-.106h-.023l-.019.032-.013.06zm3.413-8.123c.066-.034.11-.003.165.029.074-.077-.027-.058.048-.14.027-.029.061-.004.068-.008.087-.05-.003-.13-.046-.096-.044.036-.1.151-.157.146.036-.085.11-.128.164-.22q.024-.042.02-.057l-.079.103c.002.017-.004.031-.051.067zm36.453 13.828a3 3 0 0 1-.004-.173l-.036.042-.013.094a.04.04 0 0 1 .031.01.1.1 0 0 1 .022.027m-38.64-9.708c-.05.044-.15.13-.14.219.07-.09.098-.081.14-.22m-1.34 4.17q.008-.007.015-.006c.029.007.04.17.054.032a1 1 0 0 0-.013-.074.05.05 0 0 0-.054-.002zm39.097 10.175a.8.8 0 0 1-.014-.166l-.095.145-.01-.02-.003.008q.001.06-.007.107c.08-.12.023.127-.001.258l.1-.231zm.858-8.675-.047-.041.044.248-.025.092.05.098q-.012.113-.027.224l.069.065-.007-.037c-.006-.052-.027-.31-.04-.508zm-6.038 16.695-.042.037.013-.006zm5.184-8.368-.031.045-.005.014.03-.025zM2.728 11.839q-.068.14-.134.283c.017.061.07-.052.117-.148l-.097.121.103-.211.029.02a.2.2 0 0 1 .025-.04c.035-.033.104.024.124-.103.008-.047-.053-.017-.083.033.055-.205.013-.174-.05-.071zM8.261 5.02c.105 0 .351-.167.155-.103-.05.017-.106.07-.155.103M4.248 9.461l.045-.06.003-.105q-.026.014-.051.026zm-.59.662c.022-.002.072-.063.096-.081.041-.03.006.079.035.067v-.002a.5.5 0 0 0 .124-.178c-.006-.054-.112.061-.066-.054q.134-.194.273-.384l-.044-.017q-.216.321-.417.65m37.51 9.239c-.001-.142-.047-.046-.072-.157q-.008.131-.018.263l.034-.071.04.073a.3.3 0 0 0 .017-.108M1.204 16.489l.023-.039.011-.042-.035-.002-.019.073zm2.922 15.573c.077.055.136.1-.033-.18l-.005.002c.06.105.084.172.038.178M33.54 36.58a.3.3 0 0 0 .042-.039l-.08.067a1 1 0 0 0-.173.114 2 2 0 0 0 .211-.142M1.552 15.008l.01-.006-.007-.013a.04.04 0 0 0-.003.019m39.356 2.56.002-.004-.003-.026zm-40.023.624q0-.002-.002-.004v.003zM.802 22.6l.001-.003a1 1 0 0 0-.014-.12zm39.685-7.12.014.03-.017-.067zM1.094 24.91a.323.323 0 0 0-.04-.248q.018.129.04.247m39.625-8.495.01.015-.016-.081zM5.194 7.967q.024-.003.073-.046c.046-.042.186-.245.26-.286-.001-.013-.018-.02-.041-.022a26 26 0 0 0-.292.354m35.97 10.39c-.035-.05-.069-.08-.099-.127l.029.255-.02-.002c.008.01.015.017.02.01.01-.011.09-.006.07-.137M16.307 40.493h-.052l.072.021zm-9.523-5.235-.016-.014v.004zM4.31 9.148c.165-.188.16-.189.114-.173q-.06.082-.118.166zm1.443-1.849c.073-.048.189-.169.227-.21.067-.075.03-.066.04-.095q-.134.152-.267.305M7.43 5.477l-.267.28a.2.2 0 0 1 .062-.032c.037-.01-.026.13.09.027.06-.077-.026-.05-.01-.1.012-.04.156-.158.125-.175m13.14 35.56-.19.036.17.016zM40.054 27.58l-.002.005zM7.814 5.3c.165-.135.139-.212.01-.06-.027.032-.02.047-.01.06M6.106 6.897c.06-.05.136-.105.177-.166.027-.04.035-.06.032-.066zM9.168 4.12c-.007.022-.004.038.014.037.055-.001.095-.073.114-.123zm31.374 10.629c-.033-.21-.185-.49-.174-.333.014.187.226.671.174.333M28.382 1.655c.238.058 1.23.504 1.324.557.39.186.123.146.058.115-.274-.128-.443-.306-.62-.267-.173-.07.02-.033-.081-.083-.202-.1-.45-.143-.663-.236-.007-.028-.044-.07-.019-.086m7.367 4.968c-.048-.05-.132-.094-.113-.066.146.215.334.302.113.066m-8.584-5.397c.373.108.396.196.103.098-.084-.027-.164-.097-.103-.098m.85.27c.094.045.025.056.225.115l.002.006c-.007.026-.187-.021-.273-.055-.002-.001.027-.014.005-.022-.16-.065-.422-.135-.386-.186.138.086.334.097.428.142m12.066 12.04c.142.45.349.765.119.181-.013-.032-.08-.074-.12-.18m-.888-2.093c-.035-.268-.568-1.057-.306-.51.044.095.045.04.076.098v.001c.034.057.26.608.23.411m.368.827q.09.175.176.35l-.144-.347zm-6.21-7.914c-.114-.093-.305-.154-.03.042.012.009.141.054.198.134.035.053-.016.034.034.101h-.001c.048.068.29.135-.202-.277m-3.313-1.944c.074-.02.382.17.536.246-.16-.034-.338-.143-.536-.246m2.09 1.086c.048.048-.003.054.069.113s.289.224.38.275c.093.05.117.006.198.042-.215-.15-.425-.29-.647-.43m3.166 2.633q.154.13.306.262l-.14-.193zm1.272 1.354c.082.158.304.176.065-.002-.023-.017-.071-.01-.065.002M31.29 2.948c-.09.021.067.125.13.162.227.134.317.257.457.27-.103-.111-.228-.137-.29-.181-.134-.097-.1-.139-.297-.251m9.66 12.682c-.02.035-.105.043-.09.152.023.172.098.335.117.233.006-.031-.05-.362-.026-.385M35.26 5.91c-.049.01-.069.041.021.167.058 0 .023-.079-.02-.167m6.188 13.224c.014-.144-.031-.366-.051-.258s.035.435.051.258M29.473 1.735c.24.034.085-.072.428.17-.439-.13.07.17.018.22-.028.027-.195-.08-.265-.093-.107-.018-.021.077-.137.043-.114-.035-.441-.226-.56-.276-.222-.095-.43-.156-.62-.23-.188-.073-.462-.212-.583-.26a2 2 0 0 0-.268-.087c-.133-.021-.087.051-.255-.004.015-.05-.179-.203.084-.149-.035-.013-.075-.037-.11-.047-.166-.048-.11.047-.192.033-.139-.022-.023-.044-.024-.047-.107-.08-.066-.014-.132-.011-.034 0-.292-.051-.343-.067s.027-.023-.007-.035c-.147-.049-.299-.1-.452-.134s-.257-.009-.226-.075c.006-.01.094.002.078-.03-.006-.01-.112-.08.069-.058q.077.01.16.03l-.072.012.123.035c-.034.016-.07.034-.096.052.042.04.116.023.125.025.137.05.1.092.223.064L26.171.71l.022-.034.056.016-.018-.037c.133.04.266.096.38.149-.05 0-.103.002-.151.004.169.036.06.037.167.087.058-.047.115-.015.208.018.094.034-.01-.046.09-.02.202.05.501.228.595.167.223.136-.086.036-.114.05-.118.056.413.2.516.187.055.052.034.088.23.15.265.087-.265-.172.089-.044.237.087.18.112.288.168.203.102.59.247.493.137-.04-.044-.219-.086-.266-.134-.027-.027.123-.102-.13-.1-.025 0 .055.082-.106.018-.047-.019-.178-.117-.318-.157-.06-.019-.336-.06-.472-.132-.148-.077.102 0 .052-.039-.05-.04-.25-.108-.222-.143.132-.004.108.066.145.076.143.037.068-.067.26.012.01.046-.218.072.082.155.002 0-.054-.048.043-.02.17.047.483.161.677.245.019-.055-.223-.151-.325-.234.272.097.576.207.736.339l-.31-.109.353.145c-.057 0-.351-.06-.175.031.05-.047.313.058.427.074M6.322 35.182q0 .008-.003.014l.277.287q-.14-.15-.274-.301M25.716.737c.065.024.14.049.207.072-.07.025-.143 0-.246-.053.015-.006.023-.013.038-.019M39.22 11.275c-.002-.02-.225-.429-.26-.423.03.074.282.57.26.423M24.992.568q.248.055.494.12c-.12.02-.597-.118-.494-.12m10.08 35.183c.035-.039.069-.077.092-.108a2 2 0 0 0-.1.08zm4.932-22.849-.04-.146-.039.023q.08.135.158.27l-.02-.113zm-38.542 1.02c-.015.065-.04.156-.067.253q.049-.096.1-.191l-.006-.126zM11.89 39.461c-.024-.104.18-.063.337-.007l-.052-.052-.03-.013-.184-.013q-.12-.092-.238-.185-.066-.03-.129-.062l-.13.033-.18-.127c.077.076.204.197.312.2.053.002.02-.111.204.023.136.098-.056.084.09.203M33.99 4.625c-.29-.32-.451-.283-.486-.295-.183-.06-.137-.163-.168-.187-.15-.11-.063.105-.045.121.292.268.281.144.336.15.12.017.293.222.363.21M12.61 39.71l.11-.035-.227-.083c.046.04.044.067.075.1zm26.863-28.828c-.091-.237-.282-.394-.25-.257.02.08.177.248.094.228-.15-.342-.184-.286-.19-.277-.043.063-.197-.169-.236-.122-.022.027.134.278.18.381.02.044-.003.06 0 .068.043.101.097.147.15.246.024.046.002.093.047.15.045.055.193.22.222.222.052.003-.006-.201-.119-.34-.055-.068-.089.01-.167-.22-.01-.031-.01-.178-.073-.283.112.115.337.55.416.74.054.001-.116-.3-.156-.426-.034-.107.089-.09.082-.11M7.643 36.523h-.017c-.008.032-.016.075.065.146zm3.452 2.396q.03.01.065.027l-.091-.068zm30.257-14.792c-.076.12-.186.605-.068.303.03-.077.048-.206.068-.303M.633 17.067l.008-.037-.003-.016zm9.018 21.038c-.038.015.249.169.314.196.028.012.055.01.084.014l-.009-.02-.355-.212a.1.1 0 0 1-.034.022M25.18.445c-.118-.11.46.026.685.098L25.705.5l.047.067-.18-.037c.063.034.118.068.177.101-.18.036-.173-.013-.39-.075-.14-.039-.204-.026-.38-.06-.825-.163-1.694-.252-2.547-.333.013-.064.036-.079.197-.073L22.6.146l.315.007-.278-.062.186.01c.055.004.076-.02.15-.01.159.024.35.126.53.129.106.002-.013-.088.226-.034-.16.031-.271.06.107.094-.203-.077-.038-.034.048-.046.054-.008-.265-.048-.052-.048.043-.002.694.076.653.116-.087.082-.115.063.311.09-.505-.136-.01-.109.21-.034.11.037-.104.037.174.088m-5.194 41.017c.111.013.232-.01.351-.022l-.102-.031-.12.053-.153-.02c-.005.008-.006.016.024.02M34.99 5.469c.007-.019.216.033-.054-.108-.093-.048-.104-.02-.303-.194.19.159.092.178.107.199.117.171.366.28.372.229.001-.015-.13-.107-.122-.126M9.427 37.922l-.014-.009.01.009zm10.2 3.515c.102.025.186.042.255-.007l-.282-.043zm21.628-25.772c-.047-.229-.092-.175-.111-.113a25 25 0 0 0-.138-.444c.111.427.04.434-.038.462.032.174.06.043.095.226.011.064-.024.069-.024.082.002.153.108.16.099.07-.01-.092-.08-.294-.05-.349.054.144.057.277.107.45.06.208.073.029.045-.033-.055-.124-.075-.035-.092-.266-.015-.196.143.095.107-.085M21.595.075c-.133-.084.391 0 .446.007.16.014.211-.026.325.012a.44.44 0 0 1-.185.037c-.08-.005-.57-.05-.585-.056m-.749 41.47c-.077-.011-.032-.052-.188-.034l-.002-.006c-.003-.032.137-.055.206-.053.002 0-.015.027.002.028h.08c.119 0 .252-.007.241.052-.08-.027-.168-.007-.242.006a.3.3 0 0 1-.097.008m-6.562-1.132c.012.01.021.01.037-.023l-.063-.029zM31.253 2.771c.04.072.166.13.309.21l-.011-.058zm9.319 11.38.036.12.093.133-.003-.086zM21.538.05a21 21 0 0 0-.594-.01l.029-.028q.283.015.565.038m19.444 14.421c-.068-.224-.23-.563-.318-.808-.05-.145-.021-.15-.075-.297a8 8 0 0 0-.325-.796c-.037-.07-.08-.032-.08-.016.001.04.074.146.09.198.015.052-.028.004-.002.074s.183.452.196.479c.086.159.038-.057.105.141-.142.152-.24-.446-.292-.541-.187-.36-.077-.05-.063.03.013.077-.079-.09-.078-.047l.001.002c.002.045.102.313.126.342.053.06-.017-.189.075-.001.089.245.174.5.254.75l.06-.048-.08-.162-.026-.142c.22.22.188.59.38 1.023-.034-.018-.069-.031-.103-.05.156.665.066.22.137.215.041-.003.062.207.08.251.13.307.01-.374-.062-.597m-2.277-4.53c.47.637-.214-.518-.298-.572-.14-.11.208.38.232.453.025.071-.06.071.076.235.051.063.036-.03-.01-.116m-1.111-1.545c-.039-.093-.115-.279-.227-.366.09.161.072.177.227.366M22.637.09h-.008L22.63.09zM9.094 37.796l-.144-.104-.004.002.168.127zM41.824 21.7c-.102-.202-.044.198-.107.382v-.001c-.019.054-.054-.19-.074.07.003.164.044.032.06.112.018.08-.04.546.045.282.029-.082.031-.702.077-.846m-.286 1.577c-.048.352.006.419.024.086.003-.07-.01-.081-.024-.086M.064 21.5c0-.088-.032-.396-.05-.735-.034-.604-.012-1.286.127-.958q.002.007.003.005c.068-.206-.212-.746.074-.997a.1.1 0 0 0 .019-.02c.005-.017.004-.07.004-.132 0-.1.001-.223.023-.247.006.042.001.105-.003.163q-.004.056-.004.098c0 .036.006.06.012.085a.4.4 0 0 1 .01.145c-.018.185-.044.102-.056.064q-.005-.016-.006-.015l-.002.018c-.027.187-.044.325-.018.488.016.022.017-.019.018-.067 0-.04.002-.085.012-.1.027-.034.003.136-.007.213l-.004.033a1 1 0 0 0 0 .105.6.6 0 0 1-.029.212c-.004.016-.008.02-.012.022-.01.006-.015.01 0 .168-.05-.134-.081.123-.056.311.004.029.013.048.022.068.017.04.035.082.022.21-.008.07-.043.05-.046.03l.001-.04c.003-.037.006-.083-.006-.086a3 3 0 0 0-.015.286c-.002.09-.003.176-.008.244-.002.013-.005.015-.008.017-.033.02-.01.368.02.396l.01.022q-.012.052-.025.097-.007.026-.014.055l-.01.039c-.024-.085.003-.111.002-.197M32.48 3.512q.237.134.47.273c-.211-.144-.292-.193-.38-.316zm8.999 13.022c-.078.043.032.345.02.532-.004.056-.124-.237-.094.084.01.103.092.512.084.644.04.055.128-.263.129-.317.006-.346-.115-.61-.14-.943M26.193.676l-.006-.001.01-.005q0 .003-.004.006M7.727 36.906c.1.127.328.218.267.111-.074-.126-.43-.316-.267-.11m33.235-10.348c.065-.109.084-.412.035-.342-.067.098-.048.362-.035.341M33.589 4.175c-.152-.124-.296-.157-.3-.111q.165.111.328.225zm-13.834 37.74c-.18.073-.043.117-.348.01.346-.06-.092-.152-.067-.23.014-.045.159-.005.212-.024.081-.03-.004-.095.087-.11.09-.016.37.048.464.051.182.007.345-.015.497-.013.1.001.235.02.343.035a1.037 1.037 0 0 0 .348.006c.099-.029.048-.093.18-.096.003.063.179.16-.02.201.028.002.062.013.09.011.128-.01.065-.096.126-.112.102-.027.028.042.029.045.095.05.05-.01.095-.037a1.4 1.4 0 0 1 .259-.052c.04 0-.013.037.013.037.117.003.238.006.355-.009s.183-.079.179.008c0 .013-.067.03-.047.06.007.01.1.053-.033.091a1 1 0 0 1-.12.021l.046-.037q-.047 0-.095.003a1 1 0 0 0 .053-.094c-.04-.03-.088.016-.095.015-.109-.006-.094-.07-.174.007l.218.026-.007.046-.044.002.023.036c-.104 0-.213-.014-.307-.032l.105-.06c-.128.02-.053-.02-.14-.038-.029.074-.077.06-.152.056-.074-.002.02.048-.057.057-.156.018-.411-.065-.463.041-.192-.064.053-.075.069-.101.068-.11-.343-.062-.414-.003l-.02-.017c-.034-.033-.05-.067-.18-.058-.21.014.23.083-.053.087-.19.002-.155-.05-.246-.065-.17-.028-.478-.017-.383.062.039.032.177 0 .222.033.025.018-.062.167.117.056.017-.011-.06-.07.07-.066.038 0 .156.054.265.04.027-.002.105-.025.188-.039a.5.5 0 0 1 .18-.006c.125.027-.072.04-.026.065.046.024.205.021.194.071-.093.058-.093-.03-.122-.027-.11.017-.031.103-.189.092-.016-.042.108-.146-.037-.145l-.06.004c-.003.002.051.032-.026.042a4 4 0 0 1-.541.013c0 .07.197.071.29.121-.217.007-.461.018-.607-.057q.125-.007.248-.017-.144 0-.287-.004c.04-.027.264-.089.116-.112-.024.074-.235.076-.321.11m-1.597-.436c.06-.07-.078-.1-.133-.107-.195-.024-.29-.107-.395-.047.102.064.199.026.254.04.12.033.105.095.274.114M26.23.655l-.096-.027.015-.002-.173-.063.23.042zM9.927 38.45c.098.171.647.41.485.261l-.141-.083c-.007.002-.015.003-.032-.007-.044-.025-.393-.31-.312-.17m-1.392-.988c-.268-.235-.559-.316-.165-.05.022.015.097-.004.165.05m.838.593-.258-.146q.115.085.229.168zm5.06 2.474-.101-.017-.015-.005-.183-.036.154.097zm27.08-16.641c-.017.166-.086.425-.043.468q.045-.183.085-.368zm-25.196 17.24c.106.03.263-.016.012-.06-.011-.002-.117.026-.178-.023-.014-.012-.017-.021-.018-.03l-.079.006c.04.028.12.065.263.106M35.31 5.482a2.6 2.6 0 0 1-.463-.387l-.25-.034c.27.245.125.013.356.234.046.012-.096-.101-.064-.089.158.06.259.262.439.387zM23.217 41.494q-.19.015-.38.025c.079-.064.452-.06.38-.025m-7.996-.714c.08.206.394.24.412.136l-.243-.068zM33.03 3.81q.128.096.253.194l.03-.013-.252-.195zM13.118 40.066c-.104-.092-.286.04-.053.045.022 0 .06-.038.053-.045m3.727 1.177c.193.035.38.065.575.093-.023-.012-.025-.026-.03-.04l-.351-.057-.116-.037c-.022.017-.041.036-.078.04m-2.333-.52c.035-.04.043-.083-.055-.15-.045.037 0 .092.055.15M31.274 2.63c.13.067.312.216.355.187l-.312-.211zm5.288 4.168c-.109-.136-.508-.443-.131-.088l-.028.035zM33.34 3.919l.145.15.217.064q-.18-.109-.362-.214m-2.562-1.581q.152.07.304.143l-.262-.17zm9.407 10.15c-.089-.33-.065-.204-.179-.374-.078-.116-.096-.268-.147-.22.122.206.246.59.326.595M37.7 8.27c.188.151-.275-.551-.405-.506.103.12.32.435.405.506M7.052 36.584c.007-.04.08-.11.028-.174-.083-.104-.21-.16-.19-.076.006.026.176.216.162.25m16.065 5.112c.113.09-.33.12-.507.117l.124-.008-.051-.06.136-.018c-.053-.018-.1-.039-.15-.057.116-.102.124-.044.293-.044.108-.001.15-.036.284-.053.628-.075 1.265-.213 1.898-.322.01.078-.003.1-.12.133l.005-.072-.226.07.216.003q-.052.014-.136.034c-.04.01-.047.042-.104.049-.12.013-.284-.054-.414-.009-.074.026.035.097-.15.1.105-.08.176-.145-.102-.078.166.032.035.029-.022.066-.036.025.202-.017.05.041-.032.014-.51.114-.492.057.038-.12.064-.11-.245-.008.394 0 .038.12-.139.104-.09-.008.063-.077-.148-.045m-13.165-3.09c.009.014.312.189.338.16-.045-.04-.398-.265-.338-.16M36.998 7.34c.073.032-.13-.216-.162-.237-.124-.084.09.204.162.237m4.413 8.807c-.004-.04-.062-.304-.085-.31-.014.435.124.629.085.31m-25.635 25.08c.292.153.404.024.432.016.151-.044.14.088.17.095.137.028.021-.144.004-.15-.28-.107-.242.015-.285.04-.093.053-.27-.054-.32 0M5.218 34.644c.05.099.186.205.158.122s-.22-.245-.158-.122m20.552 6.521c.122.068-.282.084-.323.09-.119.02-.143.078-.236.06-.008-.001.065-.07.122-.084.058-.014.424-.07.437-.066M.07 22.338c.013.18-.09.156-.015-.033l.008-.021a.3.3 0 0 1 .008.053m8.727 15.548.08.084q.014-.023.026-.046-.11-.046-.22-.093l.051.073zm17.021 3.294q.217-.052.431-.11v.001l-.012.039q-.21.037-.418.07M9.847 39.11c.144.13.348.124.283.034-.038-.053-.218-.08-.142-.122.222.175.234.105.236.093.02-.084.213 0 .234-.068.011-.037-.19-.135-.257-.187-.028-.022-.014-.051-.018-.056h-.001c-.064-.054-.123-.052-.196-.095-.033-.02-.028-.075-.082-.088s-.228-.04-.253-.02c-.046.035.063.158.198.19.066.016.074-.072.205.06.018.018.058.14.14.182-.126-.017-.44-.212-.563-.308-.047.039.186.16.255.236.06.063-.05.137-.04.149m4.975 1.877c0 .023-.173.1.067.073.082-.01.084-.044.276.007-.18-.042-.112-.12-.128-.132-.129-.098-.344-.05-.337.003.002.016.123.025.122.049m10.198.398.005-.001v.001zm-6.792.264c-.046-.057-.151-.055-.274-.065l.023.056q.125.005.251.009m4.116.125h.005l-.007.01zM2.852 31.7c.005-.119-.165-.454-.106-.21.016.063.07.144.106.21m3.912 5.088c.125.126.146.055.142-.004q.14.107.28.211c-.25-.22-.189-.276-.127-.355-.091-.098-.07.015-.168-.088-.033-.035-.003-.065-.008-.074-.057-.105-.156-.03-.115.026.042.056.179.144.172.205-.102-.06-.152-.15-.262-.233-.129-.099-.077.035-.029.057.096.044.082-.033.182.115.085.127-.165.041-.067.14m10.394 4.726a20 20 0 0 1-.41-.024c.19.032.261.038.355.118zm5.164.299q.038 0 .074-.004l-.01.008.14.012-.174.033zM7.899 37.364l-.072-.061-.127-.028.032.06zm4.167 2.563c.055.056.162.172.274.176-.112-.086-.101-.113-.274-.177m4.116 1.524c.142.038.257-.009.25-.059q-.15-.02-.298-.042zm-5.43-2.103c-.566-.207.319.29.398.283.146-.004-.272-.184-.312-.227s.032-.104-.126-.147c-.06-.016-.021.052.04.091m-3.326-1.913c.137.112.394.241.55.36.092.072.067.097.162.168.14.107.385.294.533.371.054.028.08-.033.075-.046-.013-.03-.11-.058-.14-.087-.029-.03.023-.024-.02-.06a7 7 0 0 0-.323-.22c-.125-.057-.015.07-.137-.03.078-.22.353.16.427.197.275.14.083-.02.046-.07-.036-.05.097.012.083-.021l-.002-.001a.8.8 0 0 0-.216-.17c-.067-.006.073.132-.066.057a22 22 0 0 1-.465-.375l-.038.08.125.061.068.087c-.267-.002-.358-.301-.677-.471.037-.013.073-.03.11-.04-.368-.366-.135-.111-.197-.054-.036.033-.127-.103-.159-.12-.223-.123.123.273.261.383m9.256 4.074-.233-.058-.02.031q.117.03.234.058zm-2.108-.337c.149-.001.275.033.444.097l.198-.119c-.263-.079-.098.063-.326-.015-.038.016.097.041.07.05-.135.036-.259-.1-.427-.11zM6.24 36.355c.056-.087-.162-.21-.223-.343-.017-.04.206.064.054-.127-.05-.06-.285-.268-.332-.36-.06-.006-.012.27.008.305.13.231.344.317.493.525M3.679 33.39c.195.042-.057-.147-.09-.297-.009-.044.147.069.036-.093-.086-.09-.058.014-.114-.02-.057-.032-.242-.337-.187-.126.017.067.327.418.355.536m-.54-1.094c-.142-.228-.23-.225-.068-.03.035.04.053.037.068.03m15.106 9.516c-.11-.006-.277-.07-.3-.017q.136.035.275.066zm.43.066-.255-.003.23.053zm-2.248-.306-.143-.072-.177.06zm-3.142-.864c.119.056.505.088.124-.004l.013-.05zM2.83 31.944c-.074-.103-.153-.29-.219-.282l.125.258zm9.18 8.17c-.19-.009.362.31.454.184-.112-.041-.365-.179-.453-.184m.795.374c-.066.019.156.113.187.112.118-.003-.12-.13-.187-.112M8.764 38.34c.178.194.119.113.269.164.101.034.162.142.193.066-.166-.076-.39-.286-.462-.23m-2.319-1.77c.019.023.169.164.192.15-.146-.313-.346-.34-.192-.15"/><path fill="#3784ff" d="M12.207 22.379c.013-.002.067.012.09.013-.026.032-.138-.007-.09-.013m2.374-2.726-.058.036c.054.002.13-.012.183-.007.009 0-.013.032.006.032s.015-.04.043-.048c.03-.007.175.008.228.003.188-.02.388-.06.571-.058-.19.048 0 .063.056.045.013-.004.007-.083.21-.08.13.003.01.127.216.053-.157-.068-.004-.075.123-.087.02-.003.207-.004.277-.014.026-.003.065-.05.1-.054.024-.002.042.02.078.016.17-.018.336-.033.5-.037-.097.122.077.043.085.048.04.029-.14.05-.07.065l.307-.032c-.083-.008.105-.105.139-.07-.02-.102.46.06.53.022.015-.009-.081-.055.14-.045.025 0 .016.033.028.03.008-.003.054-.108.104-.054.018.02-.1.093.158.05-.102-.097.358-.078.437-.056l-.05-.04c.082.034.097-.003.116-.002.075.003.179.034.25.027.084-.009.086-.076.183-.055-.021-.014-.047-.027-.07-.04l.196-.001c-.15.098.032.002.044 0 .02-.005-.008.034.024.027.003 0-.002-.035.048-.042.104-.014.088.031.132.028.004 0-.01-.03.067-.042.245-.037-.002.024-.011.028-.012.007.07.133-.135.098.069.01.076.068.084.07.006 0 .127-.014.134-.016.06-.023.007-.06.019-.068.009-.006.157.039.192-.083.071.107-.042.103-.16.125-.017.024.113.04.12.04.17-.009.074-.096.11-.155.019-.032.084.027.024-.052.145-.016.057.036.066.043.014.01.065-.017.072-.014.01.004-.024.034.014.042.006.002.066-.05-.012-.07.103.002.095-.04.13.043.072-.163.052.092.08.1.076.02.055-.105.059-.111.027-.041.239-.008.293-.028-.022.092-.17.009-.203.028-.11.063.155.038.075.156l.102-.098c.061.07-.024.107.14.073.027-.065-.117.015-.088-.037.018-.03.112-.04.113-.056.002-.019-.081.007-.069-.022.03-.064.333-.018.102.026.064-.004.098.119.154.078.037-.027-.17-.19.14-.171.006.058-.124.022-.128.027a1 1 0 0 0 .023.145c.014.02.333-.063.403.002-.029-.077.251-.023.274-.048.008-.006-.02-.053-.012-.058.05-.032.187.048.251.048.072 0 .063-.041.067-.041.032.001.007.03.026.03.03-.002.233-.003.244-.009.003-.002-.03-.048.014-.059.008-.002.003.055.136.026.162-.034-.112-.066-.045-.128.104.081.1-.002.129.004.009.002.086.07.159.064l-.168.04c.057.01.163-.009.205.004.022.006.004.066.05.063.01-.001.05-.145-.072-.078-.01-.05.048-.019.075-.034.004-.002.02-.088.054-.036.009.012-.082.264.151.077.008-.006-.019-.036-.011-.043.005-.005.065.006.071.002.007-.005-.022-.039-.014-.046.042-.035.096.099.01.09l.086.048c-.03-.1.045-.03.085-.034.257-.026.085-.089.129-.124.071-.058.017.12.123.064.01-.005-.12-.077.133-.04l-.112.01c.021.1.135-.01.144-.011.097-.016.03.021.172-.033.012-.005.04.019.066.006.112-.054-.147-.027-.153-.067-.004-.02.274-.022.284-.013.041.04-.127.021-.095.072.01.018.413-.028.496-.01.095.022.138.157.139.004.027.15.05.047.063.048.148.011.149.013.27-.004.026-.003.049.042.059.034.005-.005-.005-.053.022-.069.037-.021.265.026.283.053s-.097.013-.077.057c.082.003.162-.009.246-.005.035.002.017.033.032.034.006 0 .127-.029.122-.04-.013-.027-.383-.005-.286-.06.019-.011.085.06.075-.027.332.015.67.032.992.05-.19.066-.39.01-.599.018-.028 0-.121-.007-.11.037.173.01.384-.015.542.013.005 0-.014.04.005.047.036.012.153-.054.173-.037.003.004-.063.057-.043.09.052.086.065-.105.11-.102.035.001.27.092.33.034.063-.062-.175-.036-.157-.086.16-.052.324.002.478-.005.003 0-.02-.04.014-.045.06-.01.075.046.103.055.024.008.102.004.135.014q.01.003.015.008a.2.2 0 0 1-.023.06c-.046.024-.063-.049-.067-.05-.016-.003-.031.025-.046.024-.024-.003-.035-.029-.068-.031-.023-.002-.001.048-.023.045-.008 0-.095-.113-.103.002-.001.017.155.036.315.048.187.014.4.028.436.014l-.176-.047c.119.036.263-.048.274.087.453.032.891.09 1.336.172.08.023.036.095.168.094l-.103-.092c.067.028.369.115.418.11.007 0 .015-.067.091-.057a.1.1 0 0 1 .068.035c.016.017.027.035.046.044.03.014.062.009.071.014.007.003.01.034.026.042.05.028.01-.065.06.042l-.037.003c.062.027.146.088.056.09-.016 0-.003-.025-.014-.028a1 1 0 0 0-.208-.03q-.029.002 0 .014a.8.8 0 0 0 .276.047c.04.05.271.076.279.086.01.013-.029.037.023.075.01.007.319.056.208.081-.023.005-.17-.038-.206-.044.084.1.28.026.302.036.09.032-.171.03.03.083.154.041.01-.042.069-.05.033-.004.207.093.203.023.06.009.025.036.032.04s.126.015.163.04c.005.002-.01.032-.005.036.01.007.124.03.128.029.003-.001-.024-.037-.013-.04.012-.005.123.033.128.027.01-.01-.126-.041-.104-.066a.44.44 0 0 0 .205.027.3.3 0 0 1-.092-.024c.012-.042.14.003.096.022.028-.009.009-.025.025-.036.004-.003.044.01.052.006.001-.001-.041-.032-.033-.037.016-.01.136.039.147.046.028.021-.07-.002-.08.012-.001.003.084.065.084.068.006.032-.088-.021-.078.011l.07.04c-.088 0-.255-.064-.297-.04.133.026.271.07.271.142 0 .03-.058.035-.055.043.007.03.089.019.09.021q.004.004.004.006c0 .016-.113.002-.119.008-.01.012.041.079.04.09 0 .002-.081.001-.054.028s.098.039.1.041c.014.015-.11.007-.113.015-.002.004.065.037.066.044s-.048.016-.069.036c-.015.015.03.032.021.034-.006 0-.122-.011-.127-.009-.009.004.018.027.014.032-.005.007-.043-.004-.038.004.004.007.148.087.149.104-.003.03-.156-.047-.013.08.002.002.035-.006.037-.006.021.022-.09.057.047.05-.255.041-.032.047-.07.099-.016.02-.112.034-.114.037.01.026.041.004.052.016.006.006-.083.04-.063.058.01.008.105-.003.108-.002.038.013-.008.035 0 .046.006.007.063.002.064.003.003.002-.076.043-.09.056-.012.01.032.018.024.023-.051.03-.16-.013-.055.054.006.004.047-.004.047-.003.025.019-.049.033-.061.054-.022.038.082 0-.005.04.066.008.102 0 .18-.022-.214.057-.289.165-.053.106-.075.016-.066.062-.089.068-.014.005-.122-.017-.073.08.006.012.073-.024.052.01-.158.037-.003.018-.003.021-.002.066-.39.127-.456.15-.078.03-.146.11-.163.115-.055.015-.01-.029-.022-.037s-.17.094-.178.093c-.03-.005 0-.052-.002-.053-.038-.015-.249.067-.308.07.002.027.12 0 .046.062-.086.071-.09-.047-.093-.052a15 15 0 0 1-1.195.218c.005.076.265-.02.271-.012.034.053-.405.12-.457.097l.122.034c-.07.098-.222.003-.321.055-.032.016.03.044.028.046-.036.04-.094.02-.05-.033-.088.056-.075.005-.142.008-.004 0 .025.034-.028.055-.025.01-.155.024-.176.058-.007.015.062.153.07.027.143.046.045-.061.101-.064.009 0-.011.071.13.022-.027.127-.19.054-.217.071-.057.038.179.075.223-.028-.02.1.016.011.07.008.057-.003.032.028.064.024.086-.012.05-.073.121-.024-.07-.176.122-.042.179-.005q-.138.038-.273.072l.015.027-.071.007.011-.03c-.122.08-.152.013-.162.014-.128.008-.275.025-.412.036-.02.002-.006.066-.152.027-.047-.013-.003-.066-.056-.055-.066.14-.064.032-.084.033-.056.003-.09.039-.095.04-.07.008-.17.007-.245.014-.001 0 .038.042-.01.031-.018-.004-.171-.181-.303-.122l.103.036a.3.3 0 0 0-.109.003c-.088.013-.19.043-.145.075.035.025.115-.055.145-.012q.009.012.012.037l-.012-.003c-.11-.027-.625.018-.661-.008-.006-.003.03-.04.021-.044-.006-.004-.128.004-.144-.01-.01-.009.044-.03.04-.044-.004-.01-.156-.026-.165.02.037-.018.142-.001.087.037-.007.005-.044-.025-.052-.02-.08.056.158.044.196.045-.151.058-.381-.012-.551.024-.069-.038.102-.057.024-.09-.161-.066-.043.053-.048.058-.04.038-.174-.169-.177-.013-.061-.024-.042-.043-.128-.024l.034.033c-.096.09-.296-.14-.281-.158.04-.046.145.028.154.026.013-.002.05-.16.196-.017.06-.106-.232-.074-.1-.145-.09.01-.452-.067-.503-.02-.006.005.023.111-.066.056-.042-.025.06-.026.04-.05-.057-.074-.864-.037-1.02-.036-.01 0-.007-.033-.016-.033-.03 0-.14.047-.193.031.11.062-.104.063-.157.055-.082-.011-.077-.068-.112-.08-.134-.05-.361.08-.468-.047.005.124-.188-.065-.275-.068-.068-.002-.166.077-.075.13-.118-.01-.235.01-.35.015-.019.001.007-.035-.025-.032-.003 0-.007.036-.035.039-.227.025-.116-.047-.159-.07a.2.2 0 0 0-.053-.023c.13-.003.284-.014.326-.014-.036-.08-.295.008-.37-.015-.002 0 .007-.043.005-.044-.029-.004-.206.008-.17.06.01.014.091.016.19.014-.027.009-.008.058-.012.06-.057.022-.194-.029-.242-.037-.011-.001-.01.03-.012.03-.044-.009-.026-.096-.07-.007-.08-.111.148-.012.132-.084-.015-.055-.512-.039-.518.047q-.003-.015-.024-.035c-.033-.03-.178-.024-.202-.01-.005.003-.003.086-.008.087-.013.001-.188-.069-.252-.023l.105.039c-.21-.007-.178.019-.108.046q.006.001.01.004c.055.02.125.04.126.046.003.026-.352.026-.284-.048.01-.01.173.03.092-.027-.014-.01-.119.002-.124-.005-.037-.04.192-.085.164-.143-.056.052-.127.021-.19.033-.03.005-.036.046-.04.047-.053.008-.023-.034-.04-.033-.009 0-.12.088-.1-.037-.361.08-.099.089.121.09-.066.043-.208.016-.268.024-.022.003-.009.045-.046.052-.078.014-.434-.048-.523-.063.055-.012.04-.058-.004-.056-.043.001-.007.063-.015.069-.007.006-.223-.031-.258-.025.16-.015.124-.06-.011-.07l.058-.037c-.08.015-.244-.059-.288-.04-.007.002.018.04.014.042-.04.014-.172-.03-.178-.017-.005.01.051.044.03.058-.004.003-.058-.05-.111-.04-.02.005-.008.04-.013.041-.042.015-.014-.042-.095-.036-.058.005-.102.06-.182.037.264.084.041.044-.067.06-.017.003-.003.066-.106.031.22-.102-.063-.062-.12-.067-.003 0-.004-.04-.031-.043-.003 0 0 .028-.025.029-.243.007-.088-.016-.134-.045-.019-.013-.146.02-.178.02-.008-.001-.005-.03-.034-.03-.052 0-.099.028-.133.028-.004 0-.004-.044-.068-.033-.018.003-.038.018-.013.032.084.046.248-.018.348.028.09.044-.195.033-.208.032-.005 0 .05-.02-.006-.026-.048-.006-.133.065-.202.045a.4.4 0 0 1-.058-.073c.003-.002.087-.012.075-.031-.002-.002-.055-.005-.062-.02-.009-.017-.032-.184-.043-.188-.03-.012-.01.027-.03.023-.037-.007-.186-.062-.19-.006l.073.014c-.137 0-.078.026-.098.036s-.014-.039-.06-.046c-.01-.001-.197 0-.193.021.102-.028.065.032.07.033.017.005.04-.028.065-.026.173.013-.002.06.04.075.013.006.041-.022.047-.02.02.005.02.044.033.042.03-.006-.005-.063-.003-.065.027-.034.135.014.068.07.04.024.045-.048.077-.017.06.06-.03.04-.057.05-.093.029-.12 0-.247.002-.046.001-.1.033-.12.034-.013 0-.136-.127-.14.06-.044-.02-.126-.149-.177-.146-.047.003-.032.07-.036.072-.007.004-.062-.005-.08.004-.023.01-.012.035-.046.043-.086.02-.083-.047-.092-.051-.1-.057-.056.04-.078.047-.016.006-.32-.05-.38-.03l.076-.034c-.046-.044-.094.02-.095-.054-.01.118-.102.033-.129.034-.01 0-.01.02-.023.02-.05 0-.177-.023-.207-.015-.13.034.205.129.224.135-.044-.005-.345 0-.208.066.022.01.06-.04.071-.04.081-.008.018.034.024.039.012.008.06-.034.073-.027.005.002-.024.042.049.049-.033.038-.247-.012-.275-.004-.01.003.051.094-.128-.004l.006.024c-.1-.004-.191-.01-.298-.014.011-.017.069-.05-.004-.047-.041 0-.01.044-.014.045-.04.008-.677-.06-.807-.067-.044-.003-.161.017-.17.017-.045-.002-.251-.04-.284-.039-.023 0-.001.034-.022.03-.019-.002 0-.03-.005-.033-.045-.015-.42-.011-.507-.048.052.014.321-.02.315-.042-.001-.003-.066-.031-.078-.022-.02-.027-.097.044-.14.025-.005-.002.013-.044-.061-.059-.027-.005-.085.023-.159-.021-.091.009-.611-.092-.644-.051-.002.002.075.024.023.037-.066.018-.006-.057-.081-.071a5 5 0 0 0-.227-.01c-.034.021.005.041.047.056.034.013.073.021.07.024a.673.673 0 0 1-.164.001c-.006-.004.118-.05-.031-.043l.051.026c-.07.007-.077-.034-.094-.039-.053-.012-.11.042-.195-.04-.022-.023.015-.041.012-.044-.027-.03-.06.038-.101-.019-.003-.004.09-.027-.074-.042l.034.018c-.023.01-.19 0-.212-.005-.066-.014-.008-.044-.074-.046.042.053-.158.04-.147 0-.028.049-.198-.008-.278-.017-.05-.005-.153.006-.17.002-.019-.005-.013-.038-.048-.05-.01-.002-.115.012-.207-.031-.018-.009-.055-.068-.022-.078.057-.02.164.035.163.002-.002-.036-.147-.027-.186-.035-.18-.037-.076-.064-.08-.076-.012-.028-.11-.035-.115-.038-.017-.012.053-.028.054-.044.001-.022-.093-.067-.072-.072.031-.009.118.03.124.028.071-.016-.027-.073-.054-.098-.008-.008.024-.019.018-.021-.105-.04-.022.068-.092.057-.062-.01.018-.037.016-.04-.003-.001-.077-.007-.089-.02-.005-.005.187-.058.178-.087l-.183.01c-.005-.037.083-.006.092-.01.018-.006-.033-.027-.03-.038 0-.008.06-.032.006-.045-.018-.004-.057.02-.125-.009.236-.025.072-.051.065-.064s.106-.04-.03-.039c-.007-.07.002-.022.041-.034.048-.014-.062-.04.112-.019-.01-.034-.15-.033-.157-.036s.024-.018.013-.024c-.131-.065-.04-.035-.079-.076-.003-.004-.127-.019-.033-.025.172-.01.244.037.273-.065-.127-.043-.281.023-.32.024-.06.002.002-.019-.005-.024-.003-.002-.054 0-.055-.002-.036-.074.228-.003.31-.016l-.066-.034.09-.003c-.143-.021-.005-.008.031-.072.008-.014-.086.012.022-.03-.08-.007-.055-.02-.127-.001.002-.025.164-.058.228-.073-.225-.021-.097.067-.292.024-.036.032.057.023.05.028-.028.02-.092-.008-.169.057-.012.01.04.042-.038.041a.2.2 0 0 1-.058-.028c.007-.021.056-.014.059-.023.001-.008-.054-.002-.054-.005-.002-.026.046-.01.04-.019-.016-.018-.215-.069.045-.06-.216.037-.028.03.056.017.021-.004.027-.02.057-.027.04-.008.085-.002.106-.006.022-.004-.102-.038.077-.033-.091-.035-.253.012-.342-.012-.181-.045.126-.07.158-.076.008-.002-.02-.022-.014-.024.009-.003.183 0 .2-.02.017-.019-.064.004-.069-.014-.004-.013.207-.047.093-.05-.079-.001-.223.057-.248.004l.347-.033-.19-.053c.13-.015.242.003.364-.037-.295-.05.096-.062.1-.071.002-.005-.114-.054-.133-.063.103-.03.416-.066.233-.123.033.014.114-.034.113-.037-.01-.03-.186.006-.157-.025.033-.037.08.004.13-.004.262-.043.19-.207.453-.208l-.015-.017.81-.054.044-.003c.111-.067.408-.134.555-.142a1.4 1.4 0 0 1 .184.02c.02.009-.086.023-.038.038.004.003.259-.006.236-.038-.023-.002-.116.023-.129.017-.094-.048.657-.074.693-.1l-.049-.03zM12.4 22.315c-.029.028-.1-.003-.143.001-.058.006-.157.11-.115 0zm1.251.174c-.06-.024-.013-.092.036-.057.004.004.045.09-.036.057m-.602-.093.052.007c.045.032-.105.012-.053-.007m2.91.218c-.061-.001-.017.079.021.05a.2.2 0 0 0-.02-.05m-.043-.005c-.044-.072-.152.058-.07.05.01 0 .072-.047.07-.05m-2.471-.169c.006-.021.07-.005.092.003 0 .02-.066-.003-.092-.003m1.503.132c.001-.019-.203-.036-.215-.012.03-.007.211.03.215.012m.531.017c-.004-.004-.076-.004-.074.013.038.026.096.005.074-.013m1.047.083c.004-.004-.049-.127.077-.04.018.014-.048.04-.041.044q.02.014.033.016c-.059.005-.118.005-.124-.002-.027-.036.053-.016.055-.018m.552-.05c.012-.02.089-.003.107.006.003.002-.01.053.025.052.028-.002-.015-.058.04-.046.057.012-.018.046-.013.049.006.004.093-.015.09.017-.001.023-.095 0-.117.004-.03.004.006.045-.043.034-.03-.008-.013-.074-.02-.078-.005-.003-.11.028-.07-.038m-.467.068a.03.03 0 0 1-.016.002zm-4.045-.38c.03.018-.059.03-.093.006 0-.017.088-.01.093-.006m4.1.33c.089.023.023.041-.055.05.025-.01.025-.057.055-.05m-2.48-.174q.005.007.006.023-.013-.019-.006-.023m.207.038c.07-.027-.075-.038-.075-.014 0 .009.071.015.075.014m1.646.12c-.007-.004.091-.11-.05-.035.075.019-.005.025-.004.035.003.028.13.011.16.025.023-.049-.086-.011-.106-.025m2.038.091c-.015.032-.075.018-.113.013.018-.031.078-.017.113-.013m9.812.297c-.254.04-.287-.117-.055-.058.005.001.07.041.055.058m-2.207-.05c-.024-.068.056-.078.109-.05.012.007.056.077.006.09.001-.083-.077-.115-.115-.04m-8.966-.353c.026-.035.107-.003.15.005-.026.028-.113.009-.15-.005m10.328.323c-.027-.005-.046.054-.04.06.02.022.072-.026.04-.06m-10.58-.347c-.004-.021.098-.035.106.02-.023-.006-.104-.006-.106-.02m1.541.108c-.016-.012.07-.028.093-.015-.001.024-.08.024-.093.015m8.603.257c-.024-.005-.084-.007-.09.017-.009.03.08.02.09-.017m4.523-.603c.004.006-.09.09-.132.09-.08-.002.13-.094.133-.09m-3.826.555c.078.057-.009.002-.005.061.052.003.184.006.093-.053-.017-.011-.064-.004-.088-.008m-.072-.02c-.008.02-.064.08-.016.076.022-.002.059-.07.016-.076m3.316-.345c-.068-.023.247-.086.256-.083l.01.007c.01-.015.07-.035.077-.006-.018.003-.066.02-.072.018l-.006-.003c-.02.035-.251.072-.265.067m-.523.08c.08-.082.095.027.087.032-.087.065-.03-.03-.033-.034-.006-.005-.068.047-.054.003m.417-.07a1 1 0 0 1 .072-.014c.054.02-.133.06-.072.015m-12.946.026c.046.013 0 .05-.03.034-.002-.001-.01-.047.03-.034m9.698.322c-.012-.01-.294-.045-.277.029.023-.009.345.03.277-.029m-2.087-.036c.048 0-.004.069-.03.043-.01-.01.018-.044.03-.043m-8.78-.333c-.054.027-.043-.073.003-.035a.1.1 0 0 1-.004.035m9.167.378c-.168.04-.129-.178.091-.102l-.02.029c.255.036.017.016-.045.027-.024.004-.004.041-.026.046m-.65-.054c-.168-.157.153-.051.243-.07-.086.063-.205.051-.046.119-.232.009-.135-.051-.144-.056-.011-.006-.046.014-.053.007m.432.006c.01-.005.08.028.105.023-.036.053-.167.007-.105-.023m4.196-.102c.006-.04.02-.07.077-.065-.017.022-.053.045-.077.065m-17.127-.577c-.04-.005-.117-.021-.093.007.003.002.092.008.092-.007m14.038.68c-.009-.005-.216-.01-.145.036.022.015.212.01.145-.036m1.108.01c-.017 0-.091.007-.093.017-.005.034.086.016.093-.017m-15.342-.733c-.005-.003-.124-.01-.11.004.024.025.127.007.11-.004m5.515.368c.01-.001.023.037.026.038.008.001.19-.003.12.042a3 3 0 0 1-.302-.034c-.013-.052.095.003.122 0 .005 0 .008-.044.034-.046m12.104.16c.007-.037.224-.1.222-.06zm-.11.014c-.046-.017.062-.044.093-.04 0 .024-.086.043-.093.04m-2.578.042c-.022.01.045.068.03.079-.01.007-.058-.015-.073.003-.005.006.045.06.059.058.02-.003 0-.046.023-.046.073 0 .139.03.209.03.006 0-.043-.031.01-.03.009 0 .06.044.123.038.06-.061.112-.07.166-.063.07.007.145.038.243.008a.7.7 0 0 0-.144-.048l-.099-.011a6 6 0 0 0-.466-.015c-.04 0-.02.03-.038.03-.014.001.003-.053-.043-.033m-14.715-.557c-.018-.034-.083-.02-.125-.025.015.03.085.014.125.025m16.343.606c-.021.004-.087-.007-.093.01-.006.021.089.026.093-.01m-10.017-.197a.3.3 0 0 1 .055.005c.044.04-.107.025-.055-.005m1.19.067c.037-.005.076-.019.089.022-.025-.007-.094.005-.09-.023m1.647.064c-.008-.055.107-.015.129-.01-.008.024-.123.05-.129.01m7.936-.112c.07-.007.055-.085.1-.056.006.005.03.167-.047.117-.014-.009.04-.056-.053-.06m-3.843.215c.018-.038.073-.026.111-.022-.008.028-.084.02-.11.022m-13.686-.715c-.033-.034-.184-.024-.146 0 .005.003.125-.003.146 0m4.961.392c.06-.03-.065-.05-.109-.018.02-.001.107.02.109.018m4.242.176a1 1 0 0 1 .07.007c.053.044-.129.026-.07-.007m-1.645-.101c.023-.03.175.002.21.035-.034.044-.239.003-.21-.035m9.685.096a.4.4 0 0 1 .142.003c-.01.03-.137.018-.142-.003m-7.803.01.01.005zm6.69.062c-.043-.01-.034.043-.031.045.031.016.077-.034.03-.045m-15.747-.615c-.015-.03-.085-.014-.125-.024.011.023.092.024.124.024m12.348.64c-.053-.053.162-.11.208-.076.003.032-.2.083-.208.076m-7.967-.339c-.004-.03-.094 0-.075.016.012.01.078.003.075-.016m8.285.286c.02-.011.069.027.052.05-.022.028-.057-.047-.052-.05m1.789-.013c-.009-.006-.126.033-.078.072.034.027.04-.028.047-.028.009 0 .198.068.03-.044m-3.3.01c.043-.014.098.004.145.004-.02.023-.127.026-.146-.005m-6.43-.27c-.01-.014-.295-.038-.133.01.009.003.166.03.134-.01m12.42.166h-.03zm-.784.088c.017-.028-.066-.029-.09-.013-.008.034.088.017.09.013m-5.058-.018c.027-.015.076.003.11.002-.006.025-.098.024-.11-.002m-1.879-.077c.054.016.121.011.122-.019q.002.007.009.015c.004.005.063-.007.088.004.15.065-.584.018-.159-.053zm-2.464-.101c-.03-.036-.116.003-.094.017.015.01.125.018.094-.017m1.16.026c-.008-.006-.089.015-.09.034.045.021.131-.003.09-.034m-1.394-.076c-.019-.006-.042.047-.04.05.019.02.072-.018.04-.05m10.276.024c-.029-.013-.118.04-.137.08q-.005-.01-.031-.025c-.024-.009-.738.038-.259.07.015.001-.005-.032.056-.032.003 0 .006.029.018.029.028 0 .181 0 .212-.027q0 .009.007.014c.038.036.155-.1.134-.11m-8.72.053c-.016-.01-.068-.003-.073.021.025.013.112.005.074-.02m-3.565-.174c-.034-.02-.117.009-.092.028.016.011.13-.006.092-.028m3.042.167c.2.036.048 0 .078-.034zm10.15-.104c-.031-.001.005-.072.039-.044.01.008-.022.044-.04.044m1.397-.374c-.026-.033.103-.048.052-.006zm-.977.242c-.02.04-.034.048-.093.053.087-.03.006-.044.093-.053m-8.783.294v.004zm-3-.126c-.023-.035-.09-.035-.07 0 .002.003.06.025.07 0m10.32.102q.003.008-.005.015 0-.008.004-.015m-9.955-.114c-.003.026.103.04.107.038.061-.043-.064-.037-.107-.038m-2.874-.158c-.005.002.027.064.048.042.016-.017-.03-.05-.048-.042m14.493-.06c.033-.007.08-.019.088.005-.022.002-.088.015-.088-.004m.725-.195a.44.44 0 0 1-.184.075c0-.035.148-.056.184-.075m-2.165.454c-.002-.001-.084-.006-.073.027.016.049.097-.011.073-.026m-12.898-.158c.036-.018-.047-.085-.085-.04-.02.024.078.043.085.04m2.144.075c-.05.017.076.055.09.022-.02-.003-.073-.028-.09-.022m1.652.031c-.148-.107-.068.082-.042.067a.3.3 0 0 0 .042-.067m-8.75-.48c-.022.006.058.045.069.025.006-.013-.056-.03-.07-.026m11.048.62h-.019a.04.04 0 0 1 .02 0m-4.393-.319c.105.14.095.035.104.036.02.003.067.041.105.037l-.13.04c.032.01.335.075.343.053.01-.031-.087-.025-.09-.028-.004-.005-.02-.093-.028-.096-.016-.006-.266-.018-.304-.042m1.771.184c.025.011.032.048.044.04.004-.003.004-.038.018-.046zm-1.96-.072c-.03-.04.105-.02.109-.015.021.028-.08.049-.11.015m1.154.046c-.005-.003-.11-.02-.11.003.028.019.17.03.11-.003m.884.018c.038.006.11.043.102-.01zm-3.425-.193c-.069-.077-.036.017.025.044.018-.032-.014-.032-.025-.044m-.216-.066c-.015-.013-.217-.01-.186.03.01.015.13-.014.132-.011.007.004-.027.045.03.04-.003-.015.03-.054.024-.058m.16.016c-.068-.059-.083.043-.032.046.02.001.041-.037.031-.046m.282.023c-.025-.011-.093-.029-.138.003l.183.018c.006-.02-.023-.012-.045-.021m15.12-.477c-.053-.006.072-.043.076-.04.017.011-.051.043-.076.04m-20.847-.443c-.015-.008-.025-.033-.058-.02l.1.058c.025-.043-.026-.029-.042-.038m-.127-.158c.005-.002-.02-.067.04-.024.04.03-.182.059-.222.03.044-.013.142.002.182-.006m-.39-.273a.3.3 0 0 1 .092-.012c.051.017-.078.038-.092.012m.27.003c-.04-.011.048-.022.074-.016.003.012-.068.018-.074.016m20.548-.146c-.043-.06-.082.053-.015.037a.1.1 0 0 0 .015-.037m-20.735.076c.04.01-.048.022-.075.016-.002-.012.069-.018.075-.016m20.705-.209c-.058-.049-.037.087-.03.093.03.025.13-.012.15-.02-.15-.004-.093-.05-.12-.073m-.263.042c-.053.008.082.054.108.019-.027-.002-.093-.022-.108-.02m-.321-.091c-.029-.01-.113-.034-.127-.011.03 0 .115.034.127.011m-.064-.081c-.045-.04-.056.055-.004.034a.1.1 0 0 0 .003-.034m-.25-.072c-.03-.045-.063.05-.016.058.014.003.019-.053.016-.058m.826.046c-.042-.023-.095.025-.006.049l-.094.01c.117.053.109-.029.142-.018.047.014.043.077.034.096.037-.033.202-.002.295.01-.082-.031-.217-.087-.299-.115-.023-.008-.046.006-.066 0-.032-.01-.003-.03-.005-.032m-1.155-.092q-.03-.02-.04-.017-.01.005 0 .024c.01.018.034.038.057.032a.2.2 0 0 0-.017-.039m-19.592.27c.115.02.031.06.271-.008-.1.045-.006.028-.025.045-.016.013-.075.006-.04.029-.046-.024-.242-.006-.25-.01-.005-.002.008-.061.044-.055m20.234-.312c-.028-.118-.04.059-.096-.046-.074.124.207.04.241.157-.306-.065.202.144-.011-.057.176.092.057-.01.085-.025s.128.029.123-.011l-.183-.03c.06.097-.064.048-.107-.033zm.345.145c-.006-.003-.139-.015-.13.004.017.013.205.034.13-.004m.582.103c-.048-.01-.12-.04-.147-.019.047.01.12.04.147.02m-2.454-.392c-.06.03.125.056.071.01a1 1 0 0 0-.071-.01m1.39.136c-.062-.046-.033.072.013.05a.2.2 0 0 0-.013-.05m-20.004.306c.004-.018.17-.016.2-.018-.017.018-.205.04-.2.018m21.152-.105c-.095-.098-.223-.045-.238-.049s.009-.034.005-.036a2 2 0 0 0-.163-.037c-.005.001.022.058-.009.067.06-.016.332.066.346.064.011 0-.072-.069.058-.009m-.272-.068c.037.029-.067.007-.093-.006-.056-.03.088.002.093.006m-.252-.078c-.011-.008-.119-.038-.128-.014.05.043.155.03.128.014m-1.197-.228c-.028 0-.107-.036-.111-.009.028 0 .107.036.111.01m-18.864.29c-.047-.01.06-.025.092-.02.002.011-.088.021-.092.02m19.426-.356a2.5 2.5 0 0 0-.4-.06c.045.029.38.097.395.093.004-.002.007-.032.005-.033m.73.173c.031-.022.05.02.055.022.039.015.118.031.1.054-.067-.03-.217-.032-.155-.076m-1.316-.293c-.082-.004.004.035.053.042.02.003.033 0 .024-.013l-.024-.012a.3.3 0 0 0-.053-.017m.624.118c.025-.025.363.083.417.098-.049.037-.088-.01-.153-.024-.018-.004-.013.019-.015.018-.03-.006-.007-.025-.026-.03-.012-.004-.259-.03-.223-.062m.71.159c.018-.013.23.044.238.052.063.05-.222-.042-.238-.052m-.74-.215c.035-.054.203.03.088.032-.01 0-.057-.038-.089-.032m-.582-.127c-.006-.003-.128-.04-.13-.017.018.011.196.052.13.017m.063-.062c-.003 0 .022.043-.022.033l-.009-.002c-.005-.001-.014-.051-.086-.048-.014.001-.037.03-.035.032.03.036.085.04.13.034.064-.01.109-.046.022-.05m1.262.376c-.01-.02.016-.056.041-.025.01.013-.01.033-.04.025m-1.71-.401c.07-.027-.15-.07-.161-.062.007.025.154.064.16.062m-18.359.437c.059 0 .022.023.025.024.124.017.091-.025.11-.032.043-.015.036.04.106.011-.116.045-.01.02-.007.04.013.08-.155-.024-.213-.001-.008.003.052.023.031.032-.067.028-.276-.073-.052-.074m20.13-.06c.026-.017.232.075.177.078-.008 0-.218-.051-.178-.077m-9.601-.573c.05-.037-.067-.073-.088-.046-.011.014.066.061.088.046m-.8-.118c-.06.01-.124.153-.049.129.009-.003.056-.11.049-.129m3.85-.033c-.063-.053-.06.047-.013.045.016 0 .015-.043.013-.045m-2.343.066c-.006-.003-.077.005-.074.028.026.012.114-.006.075-.028m2.363-.08c-.038.018.026.09.072.018-.023.006-.069-.02-.072-.019m5.6.37c-.03.025-.117-.006-.167-.012-.005-.045.131.01.166.012m-9.227-.275c-.055.037.063.062.052.015a.2.2 0 0 0-.052-.015m5.578-.121c-.04.032.088.075.053.018a.3.3 0 0 0-.053-.018m.568.017c-.03-.01-.165-.007-.113.024.008.005.113.006.113-.024m-15.979.777c-.016-.029.08-.03.093-.027.006.002-.071.065-.093.027m13.037-.756c-.032.008-.114-.004-.128.025.038-.007.138.032.128-.025m-2.952.073c-.049-.055-.13-.046-.11.027.09-.008-.012-.066.11-.027m3.579-.153c-.025-.004-.044.07-.041.074.027.034.066-.045.04-.074m-1.912.1c-.001-.03-.082-.014-.07.006.003.006.071.02.07-.005m6.23.095c-.037-.033.078-.04.112-.002.016.047-.107.006-.111.002m-3.618-.186c.004-.047-.125-.019-.074.02.013.01.073-.004.074-.02m1.22-.066c-.087.058.277.097.181.026a1 1 0 0 0-.182-.026m.588.035c-.015-.006-.008-.168.052-.105.008.008-.029.05-.022.06a1 1 0 0 0 .14.027c.007-.005 0-.056.006-.062.007-.006.088.041.13.043.08.004.09-.039.096-.038.02 0 .052.032.09.034.197.008.508 0 .662.106-.136-.05-.276-.025-.415-.023.041-.086-.205.054-.061-.039a5 5 0 0 1-.678-.003m-6.819.105c.036-.052-.15-.032-.166.027a.6.6 0 0 0 .166-.027m.853-.16c.017-.01.033-.112.125-.064.028.014-.003.04.002.048.002.004.086.05.016.062-.107.016-.01-.075-.067-.074-.007 0-.113.059-.107.07 0 .002.032-.01.038-.006.02.018.01.05.013.051.009.004.178-.056.204-.01.007.015-.271.06-.281.052-.007-.004-.004-.092-.011-.1-.004-.004-.114.033-.128.026l-.01-.007c.017.026-.082.028-.079-.002.002-.012.07-.008.072-.006q.002 0 .003.003c-.014-.033.218-.04.168-.088.068-.03-.01.073.042.044m.327-.068-.02.029c.113-.027.246.012.38.007.035-.001-.004-.057.04-.043.036.011.076.063.057.076-.005.003-.078-.03-.115-.024-.107.014-.08.062-.086.064-.007.001-.075-.03-.111-.028-.093.008-.13.039-.261.005.075-.035.036-.103.116-.086m4.372.004c.004-.032.08-.004.107-.009-.004.032-.08.004-.107.01m-11.446.5c-.025.041.159.036.11.008a.5.5 0 0 0-.11-.007m.794-.041c.024-.013-.073-.035-.072-.003 0 .01.069.004.072.003m7.79-.464a.4.4 0 0 1 .073.01c.043.055-.172.029-.072-.01m-6.825.338c-.084.034.17.027.093-.003a1 1 0 0 0-.093.003m.345-.034c-.02.003-.106-.004-.107.009-.002.021.097.028.107-.009m8.118-.357c-.01-.06.104-.016.143-.024.01.059-.104.016-.143.024m-.736-.03c.49-.056.38.072-.029.03 0-.038-.002-.026.029-.03m.633-.005c-.017.038-.075.028-.113.026.006-.027.086-.018.113-.026m-10.327.553c.028-.037.162-.007.139.01-.007.003-.15.01-.14-.01m8.834-.516c-.012-.056.136-.037.148-.025.046.05-.136.012-.148.025m2.284-.063c.026-.046.1-.023.149-.023-.022.039-.108.023-.149.023m-.342-.03a.4.4 0 0 1 .071.003c.054.043-.131.034-.071-.004m-14.247.927.054-.005c.045.018-.105.031-.054.005"/></g></svg>