<svg xmlns="http://www.w3.org/2000/svg" width="40" height="40" fill="none" viewBox="0 0 40 40"><path fill="#3784ff" d="M35.339 21.564c-.126.198-.376.372-.59.48-.067.035-.114-.063-.163-.043-.096.04-.124.139-.225.173-.034.01-.121-.132-.154-.118-.18.077-.271.228-.426.333-.76.52-1.433 1.106-2.134 1.702-.23.196-.595.352-.77.618-.02.031.096.117.1.13.05.204-.128-.025-.205-.002a1.3 1.3 0 0 0-.69.535c-.065.099.217.218.023.187-.014-.002-.1-.13-.134-.119-.076.025-.153.14-.201.171-.093.06-.104.073-.177.143-.1.096-.27.159-.352.288-.016.028.123.108.106.163s-.121.14-.179.146-.13-.094-.156-.108c-.214-.12-.092.22-.1.24-.16.355-.512.444-.753.685-.183.184-.335.424-.516.592-.215.2-.45.317-.642.529-.02.022.134.126.11.154-.262.291-.55.551-.913.74-.037.018-.114-.131-.158-.12-.262.076-.753.12-.359.714-.134.095-.292.214-.494.216-.13.002-.19-.185-.218-.052-.007.03.125.115.107.152-.075.155-.236.245-.295.416-.011.034.092.125.103.15.086.196-.24.054-.277.057-.28.026-.341.188-.486.327-.034.032.135.123.107.16a1.56 1.56 0 0 1-.547.446c-.049.022-.127-.122-.156-.117-.127.025.066.251-.052.278-.025.006-.111-.097-.124-.105-.208-.12-.014.15-.02.166-.072.212-.405.06-.508.232-.012.021.145.104.104.155-.274.341-.632.633-1.033.841-.062.033-.119-.091-.133-.1-.222-.125-.02.14-.027.164-.059.185-.368.103-.173.463-.49.337-.818.834-1.32 1.153l-.336.406-.49-.406a2 2 0 0 1-.199-.409c-.003-.009.123-.112.115-.13-.091-.22-.24-.013-.561.102-.081.03.103-.313.115-.34.046-.096.243-.24.248-.263.038-.179-.515.397-.61.302-.003-.004.114-.095.116-.114.008-.057-.058-.04-.047-.1.027-.139.282-.433.037-.359-.032.01-.335.347-.406.247-.027-.04-.183-.185-.204-.248-.022-.063.11-.137.112-.145.023-.25.123-.263.268-.522.144-.258-.32.238-.397.268-.076.03-.047-.165-.028-.225s.11-.1.114-.14c.024-.265-.292.186-.407.222-.274.087.009-.342-.042-.462-.014-.033-.076.067-.104.054-.11-.053-.049-.213-.244-.204-.031.002-.32.14-.212-.065.016-.03.124-.099.11-.154-.023-.082-.097-.195-.183-.22-.063-.02-.162.173-.169.076-.002-.043.126-.086.114-.16-.013-.075-.127-.181-.172-.22s-.133.095-.143.099a.4.4 0 0 1-.205-.012c-.372-.345-.515-.863-.926-1.15-.032-.022-.13.113-.137.11-.143-.044.242-.281.28-.45-.227.246-.223.164-.315.124-.044-.019-.119.09-.131.097-.187.092-.04-.12-.011-.166.104-.167-.09-.04-.02-.153.068-.11.25-.195.185-.257-.102.067-.277.336-.361.324-.318-.045-.483-.558-.61-.722-.128-.164-.19-.195-.245-.31-.098-.21-.206.011-.377-.008-.17-.02.281-.38.355-.48s-.031-.026 0-.09c.031-.065.127-.088.105-.145-.02-.058-.283-.01-.388.067-.223.164-.377.415-.41.24-.002-.01.124-.098.112-.131-.1-.264-.283-.458-.392-.713-.015-.035.126-.131.118-.153-.075-.227-.221.027-.526.166.314-.277.45-.503.336-.62-.068-.07-.185.07-.32.117-.042.014-.002-.124-.071-.072-.228.17-.404.438-.434.23-.001-.009.124-.1.113-.125-.073-.16-.295.034-.446-.066-.118-.079-.166-.38-.257-.513.334-.33.152-.36-.12-.173-.063-.082-.154-.148-.193-.25-.013-.035.099-.115.106-.129.116-.21-.138-.018-.162-.025-.256-.085-.225-.393-.553-.39-.011 0-.251.222-.126.01.009-.014.167-.066.1-.15-.07-.085-.09-.352-.302-.351-.052 0-.304.122-.21-.076.013-.027.087-.086.114-.133.085-.15-.166.066-.006-.17s.23-.464-.014-.434c-.007 0-.218.16-.248.124-.05-.059-.087-.173-.144-.228-.028-.026-.125.106-.132.103-.245-.116-.27-.347-.42-.584-.027-.044-.285.01-.23-.182.06-.21.702-.697.394-.736-.123-.016-.927.611-.682.115-.335-.152-.37-.566-.745-.679-.017-.005-.251.16-.275.131-.033-.043.039-.157.018-.19-.087-.143-.271-.168-.37-.29-.037-.047.074-.13.03-.185-.045-.055-.205.039-.212-.09-.004-.098.204-.409.167-.507-.26.253-.3.201-.451.186-.03-.003-.101.104-.12.107-.076.015-.03-.087-.11-.066-.019.005-.107.092-.127.1-.178.08-.063-.198-.042-.246.076-.183-.062-.095-.052-.187s.135-.095.119-.174c-.035-.163-.176-.276-.273-.38-.04-.042-.128.102-.137.099-.112-.053-.072-.261-.35-.075.543-.659-.11.008-.107-.23 0-.02.272-.316.35-.322s.043.138.158.122c.027-.003.361-.202.386-.209.199-.054-.216.381-.235.408-.209.295.16.09.202.093.19.008.215.152.363.17.096.013.38-.26.414-.209.114.17-.225.608.246.406.1-.044.376-.376.24-.034-.01.021-.152.316.03.222.024-.012.112-.1.127-.1.097 0 .06.103.146.123.088.02.202.033.233.124.019.054-.1.267-.122.325-.067.166.177.028.066.2s-.386.327-.397.5c.234-.227.477-.457.713-.684.17.186.271.436.46.604.023.021.125-.125.153-.106.12.08.12.256.258.324.108.053.327.01.445.061-.213.315.002.35.068.465.023.04-.049.108-.05.154 0 .17.194-.103.254-.116.257-.056-.262.48-.131.584.007.006.364-.198.392-.205.181-.047-.087.109-.065.171.038.115.024.235.196.242.05.002.289-.11.204.076-.011.025-.108.114-.108.125.007.188.301-.102.456-.145.154-.043.039.244-.002.32-.104.196-.099.029-.116.041-.205.147-.112.18-.079.242-.279.293-.195.343.036.064.025-.03-.04-.041-.036-.064.323-.239.433-.201.252.142-.085.162-.265.269-.097.332.077.029.253-.189.353-.196.229-.017.182.305.32.385.05.029.12-.118.158-.101.1.042.083.186.197.217.01.003.107-.126.131-.105.183.157.259.377.434.556.085.087.3.178.377.28.133.175.158.528.33.62.111.06.205-.072.319-.112.22-.078.078.315.054.373-.001.002-.101-.045-.12.052-.098.144.119-.053.12-.052-.016.038.106.21.157.219.028.004.126-.112.138-.108.293.101.518.272.668.522.001.005-.124.12-.12.132.063.169.284.096.466.105s.23.113.08.375c.098.046.11.24.115.355s.246-.11.256-.11c.31.017.271.244.42.434.07.091.264.217.376.279.09.048.076.144.175.173.013.004.108-.109.115-.11.195-.053-.093.166-.123.226-.112.218-.167.338.001.352.039.003.465-.302.524-.285.077.023-.073.135.011.155.007.002.087-.08.115-.044.134.164.249.373.412.52.021.02.122-.135.156-.108.159.128.31.29.39.49.02.049-.092.117-.11.151-.116.207.183.038.198.044.368.143.351.55.712.71.02.008.38-.134.214.13-.011.017-.183.286.01.178.012-.007.096-.15.136-.086.041.063.201.072.148.268-.016.063-.182.336.061.229.017-.008.518-.299.282.012-.039.05-.334.333-.105.266.044-.013.08-.106.162-.105.124 0 .13.16.335.109.037-.01.29-.149.187.046-.017.03-.127.114-.113.148.063.167.248.223.298.407.018.064-.16.2-.158.284.001.085.048.212.164.186.117-.026.316-.324.404-.276l.033.018h-2.477c.214-.355.635-.5.94-.764.047-.04-.078-.093-.015-.159.23-.243.554-.735.948-.75.316-.014.225.308.412.244.09-.03-.134-.386-.128-.41.05-.235.278-.206.367-.374.019-.035-.125-.126-.108-.154.057-.098.19-.126.255-.21.029-.038-.067-.12-.03-.144a.5.5 0 0 1 .346-.072c.014.001.081.156.14.107.093-.081.284-.107.3-.293.003-.055-.2-.261.005-.184.043.016.272.279.134-.008-.022-.048-.183-.46.063-.336.064.032.307.191.311.124 0-.01-.13-.1-.11-.14.068-.141.19-.24.263-.381.02-.038-.137-.109-.105-.162.089-.147.265-.265.416-.344.055-.03.12.094.134.102.216.117.02-.138.023-.167.024-.181.208-.154.275-.276.018-.034-.107-.122-.112-.137-.04-.148.113.085.168.072.156-.035.254-.15.336-.26.03-.04-.134-.125-.105-.16a1.7 1.7 0 0 1 .627-.509c.047-.021.122.096.15.11.203.104.068-.178.064-.214-.014-.167.1-.112.152-.195.25-.407.712-.757 1.056-1.033.45-.36.854-.582 1.216-.992.023-.026-.129-.128-.11-.152.242-.304.56-.522.797-.833.02-.025-.134-.113-.107-.158a.5.5 0 0 1 .27-.215c.054-.018.109.135.162.114a.6.6 0 0 0 .293-.236c.029-.046-.151-.113-.104-.163.318-.342.621-.688 1.115-.862.034-.012.305.22.305.122-.066-.073-.148-.155-.22-.23.44-.522 1.003-.91 1.499-1.38.02-.02-.148-.117-.108-.156.23-.226.414-.484.78-.585.035-.01.258.236.29.132.006-.018.077-.152.053-.23-.004-.01-.132-.1-.102-.137.175-.209.402-.385.66-.51.042-.02.126.129.157.116.218-.095.3-.354.554-.397.172-.03.336.209.587.354.035.02.101-.038.22.074.298.282.585.629.906.925.069.064.08-.09.192.12.007.014 0 .127.04.196.027.048.163.147.19.216.027.07-.094-.006-.072.086s.17.21.117.295m-19.94 7.386c-.056.167.362-.234.204-.196-.008.002-.2.188-.203.196m-6.727-6.598c-.109.253.206.036.295-.154s-.262.077-.295.154m-.879-.614c-.058.226.536-.342.329-.314-.012.001-.325.3-.329.314m25.763-1.783c.006.004.056-.035.051-.041-.106-.154-.206-.076-.051.04M6.909 21.14c-.052.105.114.09.18-.04.051-.105-.115-.09-.18.04m10.926 11.12c-.005.007.021.045.055.01.109-.114.033-.127-.055-.01M5.643 19.888c.164.208-.203.8-.351.544-.027-.046.232-.074.228-.164-.006-.164-.364.08-.29-.168.014-.046.405-.225.414-.212m9.296 9.586c-.004.007.035.056.041.052.154-.106.076-.206-.04-.052m4.506 4.903c-.01.014.082.127.096.12.266-.16.081-.39-.096-.12m-7.782-7.58c-.18.083-.252.04-.127-.162.04.056.087.106.127.163"/><path fill="#3784ff" d="M35.339 7.982c-.126.197-.376.371-.59.48-.067.034-.114-.064-.163-.044-.096.04-.124.14-.225.173-.034.011-.121-.132-.154-.118-.18.078-.271.228-.426.334-.76.52-1.433 1.106-2.134 1.701-.23.197-.595.352-.77.618-.02.032.096.117.1.13.05.205-.128-.025-.205-.002a1.3 1.3 0 0 0-.69.536c-.065.098.217.217.023.187-.014-.002-.1-.13-.134-.12-.076.026-.153.141-.201.172-.093.059-.104.072-.177.143-.1.095-.27.158-.352.288-.016.028.123.108.106.162s-.121.14-.179.146-.13-.094-.156-.108c-.214-.12-.092.22-.1.24-.16.355-.512.444-.753.686-.183.184-.335.423-.516.591-.215.2-.45.317-.642.53-.02.021.134.126.11.153-.262.291-.55.552-.913.74-.037.018-.114-.13-.158-.119-.262.076-.753.119-.359.713-.134.095-.292.214-.494.217-.13.002-.19-.186-.218-.052-.007.03.125.114.107.151-.075.155-.236.246-.295.416-.011.035.092.126.103.15.086.196-.24.055-.277.058-.28.026-.341.187-.486.326-.034.033.135.124.107.16a1.56 1.56 0 0 1-.547.446c-.049.023-.127-.121-.156-.116-.127.024.066.25-.052.278-.025.006-.111-.098-.124-.105-.208-.12-.014.15-.02.166-.072.212-.405.06-.508.232-.012.02.145.104.104.155-.274.34-.632.633-1.033.84-.062.033-.119-.09-.133-.099-.222-.125-.02.14-.027.163-.059.185-.368.104-.173.464-.49.336-.818.833-1.32 1.152l-.336.406-.49-.406a2 2 0 0 1-.199-.408c-.003-.01.123-.113.115-.13-.091-.221-.24-.013-.561.102-.081.029.103-.314.115-.34.046-.097.243-.241.248-.264.038-.178-.515.398-.61.303-.003-.004.114-.096.116-.114.008-.057-.058-.04-.047-.1.027-.14.282-.434.037-.36-.032.01-.335.348-.406.247-.027-.04-.183-.185-.204-.248-.022-.062.11-.137.112-.144.023-.25.123-.264.268-.523.144-.258-.32.238-.397.269-.076.03-.047-.166-.028-.225.019-.06.11-.1.114-.14.024-.266-.292.185-.407.222-.274.087.009-.342-.042-.463-.014-.032-.076.068-.104.055-.11-.053-.049-.213-.244-.204-.031 0-.32.14-.212-.066.016-.03.124-.099.11-.153-.023-.082-.097-.195-.183-.221-.063-.02-.162.174-.169.076-.002-.043.126-.086.114-.16-.013-.074-.127-.18-.172-.22-.044-.039-.133.095-.143.1a.4.4 0 0 1-.205-.012c-.372-.345-.515-.863-.926-1.15-.032-.023-.13.112-.137.11-.143-.045.242-.282.28-.451-.227.247-.223.165-.315.125-.044-.02-.119.09-.131.097-.187.092-.04-.121-.011-.167.104-.166-.09-.04-.02-.152.068-.111.25-.196.185-.258-.102.068-.277.337-.361.325-.318-.046-.483-.559-.61-.723-.128-.163-.19-.195-.245-.31-.098-.209-.206.012-.377-.008-.17-.02.281-.379.355-.48s-.031-.025 0-.09.127-.088.105-.145c-.02-.057-.283-.01-.388.068-.223.163-.377.414-.41.239-.002-.01.124-.097.112-.131-.1-.264-.283-.458-.392-.712-.015-.035.126-.132.118-.153-.075-.228-.221.027-.526.166.314-.277.45-.504.336-.62-.068-.07-.185.07-.32.116-.042.014-.002-.123-.071-.071-.228.169-.404.437-.434.23-.001-.01.124-.101.113-.126-.073-.159-.295.035-.446-.066-.118-.078-.166-.38-.257-.512.334-.33.152-.36-.12-.174-.063-.082-.154-.147-.193-.25-.013-.034.099-.114.106-.128.116-.21-.138-.018-.162-.025-.256-.085-.225-.393-.553-.39-.011 0-.251.221-.126.01.009-.015.167-.066.1-.15-.07-.085-.09-.353-.302-.352-.052 0-.304.123-.21-.076.013-.027.087-.085.114-.132.085-.15-.166.066-.006-.17s.23-.464-.014-.434c-.007 0-.218.16-.248.123-.05-.058-.087-.173-.144-.228-.028-.026-.125.106-.132.104-.245-.117-.27-.347-.42-.585-.027-.044-.285.011-.23-.181.06-.211.702-.697.394-.736-.123-.016-.927.61-.682.114-.335-.151-.37-.566-.745-.679-.017-.005-.251.16-.275.132-.033-.043.039-.157.018-.19-.087-.144-.271-.169-.37-.291-.037-.047.074-.129.03-.184-.045-.055-.205.038-.212-.09-.004-.099.204-.41.167-.508-.26.254-.3.202-.451.187-.03-.003-.101.103-.12.106-.076.016-.03-.087-.11-.066-.019.005-.107.092-.127.101-.178.08-.063-.198-.042-.246.076-.184-.062-.095-.052-.187s.135-.095.119-.174c-.035-.163-.176-.277-.273-.381-.04-.041-.128.103-.137.1-.112-.054-.072-.262-.35-.075.543-.66-.11.008-.107-.231 0-.02.272-.316.35-.321s.043.137.158.122c.027-.004.361-.203.386-.21.199-.054-.216.382-.235.409-.209.295.16.09.202.092.19.009.215.153.363.171.096.013.38-.26.414-.209.114.17-.225.608.246.405.1-.043.376-.376.24-.034-.01.022-.152.317.03.222.024-.011.112-.1.127-.1.097 0 .06.104.146.123.088.02.202.033.233.124.019.055-.1.267-.122.325-.067.166.177.028.066.2s-.386.328-.397.5c.234-.227.477-.456.713-.683.17.186.271.436.46.604.023.02.125-.126.153-.107.12.08.12.256.258.325.108.053.327.01.445.06-.213.316.002.35.068.466.023.04-.049.108-.05.153 0 .17.194-.102.254-.116.257-.056-.262.48-.131.585.007.006.364-.199.392-.206.181-.047-.087.11-.065.172.038.114.024.235.196.242.05.002.289-.11.204.076-.011.024-.108.113-.108.124.007.188.301-.101.456-.145.154-.043.039.245-.002.32-.104.196-.099.03-.116.042-.205.146-.112.179-.079.241-.279.293-.195.343.036.064.025-.03-.04-.041-.036-.064.323-.238.433-.2.252.143-.085.161-.265.268-.097.331.077.03.253-.188.353-.195.229-.017.182.304.32.384.05.03.12-.117.158-.101.1.043.083.187.197.218.01.002.107-.127.131-.106.183.157.259.377.434.557.085.087.3.178.377.279.133.175.158.529.33.62.111.06.205-.071.319-.111.22-.079.078.314.054.372-.001.002-.101-.045-.12.052-.098.144.119-.052.12-.052-.016.038.106.211.157.219.028.004.126-.112.138-.108.293.102.518.272.668.522.001.006-.124.12-.12.132.063.169.284.097.466.105.183.009.23.114.08.376.098.046.11.24.115.355s.246-.11.256-.11c.31.016.271.244.42.434.07.09.264.216.376.278.09.049.076.145.175.173.013.004.108-.108.115-.11.195-.053-.093.167-.123.226-.112.218-.167.339.001.352.039.003.465-.301.524-.284.077.022-.073.134.011.155.007.002.087-.08.115-.045.134.165.249.374.412.52.021.02.122-.135.156-.107.159.128.31.29.39.489.02.05-.092.117-.11.152-.116.206.183.037.198.043.368.143.351.55.712.71.02.008.38-.134.214.13-.011.018-.183.286.01.178.012-.006.096-.15.136-.086s.201.072.148.269c-.016.062-.182.335.061.228.017-.008.518-.298.282.012-.039.051-.334.334-.105.267.044-.014.08-.106.162-.106.124.001.13.161.335.11.037-.01.29-.15.187.046-.017.03-.127.113-.113.148.063.167.248.223.298.406.018.065-.16.2-.158.285.001.085.048.212.164.185.117-.026.316-.324.404-.276l.033.019h-2.477c.214-.356.635-.5.94-.765.047-.04-.078-.093-.015-.159.23-.243.554-.734.948-.75.316-.013.225.309.412.245.09-.031-.134-.386-.128-.41.05-.235.278-.206.367-.374.019-.035-.125-.126-.108-.155.057-.097.19-.126.255-.21.029-.037-.067-.12-.03-.144a.5.5 0 0 1 .346-.071c.014 0 .081.156.14.106.093-.081.284-.107.3-.292.003-.056-.2-.262.005-.184.043.016.272.278.134-.009-.022-.047-.183-.459.063-.336.064.033.307.192.311.125 0-.01-.13-.1-.11-.141.068-.14.19-.239.263-.38.02-.039-.137-.11-.105-.163.089-.146.265-.264.416-.344.055-.029.12.095.134.102.216.117.02-.137.023-.167.024-.18.208-.153.275-.276.018-.033-.107-.122-.112-.137-.04-.147.113.086.168.073.156-.035.254-.15.336-.26.03-.041-.134-.126-.105-.16a1.7 1.7 0 0 1 .627-.51c.047-.02.122.097.15.111.203.104.068-.178.064-.215-.014-.167.1-.111.152-.195.25-.407.712-.757 1.056-1.033.45-.36.854-.582 1.216-.991.023-.026-.129-.129-.11-.153.242-.303.56-.522.797-.832.02-.025-.134-.114-.107-.158a.5.5 0 0 1 .27-.216c.054-.017.109.135.162.115a.6.6 0 0 0 .293-.236c.029-.046-.151-.113-.104-.163.318-.343.621-.689 1.115-.862.034-.012.305.219.305.122-.066-.073-.148-.155-.22-.231.44-.521 1.003-.91 1.499-1.379.02-.02-.148-.117-.108-.156.23-.226.414-.484.78-.585.035-.01.258.236.29.132.006-.018.077-.152.053-.23-.004-.01-.132-.101-.102-.138.175-.208.402-.385.66-.51.042-.02.126.13.157.116.218-.094.3-.353.554-.397.172-.029.336.21.587.354.035.02.101-.037.22.075.298.281.585.628.906.925.069.064.08-.091.192.119.007.014 0 .127.04.197.027.048.163.146.19.216.027.069-.094-.006-.072.085.022.093.17.21.117.296m-19.94 7.386c-.056.167.362-.235.204-.196-.008.002-.2.188-.203.196M8.673 8.77c-.109.252.206.036.295-.155.089-.19-.262.078-.295.155m-.879-.615c-.058.227.536-.341.329-.314-.012.002-.325.3-.329.314m25.763-1.783c.006.005.056-.035.051-.041-.106-.154-.206-.075-.051.041M6.909 7.558c-.052.105.114.09.18-.04.051-.106-.115-.09-.18.04m10.926 11.12c-.005.007.021.044.055.01.109-.114.033-.127-.055-.01M5.643 6.305c.164.208-.203.801-.351.544-.027-.046.232-.074.228-.164-.006-.164-.364.08-.29-.168.014-.045.405-.224.414-.212m9.296 9.587c-.004.006.035.056.041.051.154-.106.076-.205-.04-.051m4.506 4.902c-.01.014.082.128.096.12.266-.159.081-.389-.096-.12m-7.782-7.579c-.18.083-.252.04-.127-.163.04.057.087.107.127.163"/></svg>