<svg xmlns="http://www.w3.org/2000/svg" width="40" height="40" fill="none" viewBox="0 0 40 40"><path fill="#c0d8ff" fill-opacity=".3" d="M7 19.97C7 12.808 12.807 7 19.97 7s12.971 5.807 12.971 12.97v.435c0 7.163-5.807 12.97-12.97 12.97S7 27.568 7 20.405z"/><path fill="#3784ff" d="M31.328 22.641c-.012.153-.086.17-.066.049.005-.035.05-.072.066-.049m-.194 1.067c-.04.167-.09.058-.084.03.026-.117.135-.196.046-.263.012-.073.036.006.05-.038.028-.08.002-.174.02-.26l.005-.017c.024-.004.052-.022.073-.013.008.097-.098.52-.11.561m.157-.715c-.017.04-.045.014-.046.096-.03.01-.036-.07-.027-.109.001 0 .02.01.022 0 .017-.067.016-.175.073-.165-.046.06-.006.138-.022.178m.16-.867c-.037-.024-.027-.055.003-.1l.025.013q-.016.042-.028.087m.033-.18c-.04-.043.01-.24.028-.202a5 5 0 0 1-.028.202M11.938 32.343c-.183-.02-.61-.433-.711-.517-.478-.375-.856-.668-1.26-1.06-.255-.251-.466-.51-.7-.775l.07-.37c.027.043.034.07.071.113.038.043.118.153.176.147 0-.068-.113-.21-.15-.252-.07-.08-.06.001-.116-.048s-.087-.182-.162-.236c-.178-.127.046.2.103.249-.096.05-.117-.165-.224-.166-.003.036.022.16.063.18.04.02.046-.069.09.01-.005.083-.007.172-.012.255-.07-.058-.133-.182-.186-.243-.324-.37-.613-.757-.878-1.16a13 13 0 0 1-.524-1.076l-.002.015-.002.026h.002q.001.016.01.04c.006.02.013.04.01.053l-.025-.026-.051-.063.032-.105q-.073-.172-.141-.346l.005-.023q0-.012.002-.022l-.008-.03a2 2 0 0 0-.05-.16l-.013-.037-.028-.088-.003-.01.006-.008c.01-.025-.002-.047-.023-.065l-.007-.005-.011-.037a2 2 0 0 1-.061-.255l-.011-.06-.019-.09A1 1 0 0 0 7.171 26c-.03-.077-.137-.38-.182-.529-.02-.065-.061-.122-.097-.138l-.028-.115-.011-.007a.2.2 0 0 1-.025-.04c-.017-.03-.035-.066-.054-.062l.036.107.003.007c-.004.029-.089-.085-.085-.135.002-.04.06-.047.095-.045l-.012-.054-.02-.006c-.012-.003-.024-.005-.036-.016-.065-.056-.092-.247-.016-.19-.01-.049-.023-.052-.039-.055s-.036-.008-.058-.07a.3.3 0 0 1-.016-.138q.005-.024.002-.055-.003-.032-.02-.088c-.02-.08-.044-.181-.018-.213.029-.035.05.003.067.037l-.045-.292-.034.008c-.041-.126-.02-.156.016-.143a15 15 0 0 1-.044-.37l-.03-.068c-.012.011-.006.039-.001.065.004.021.008.042.002.051-.054.067-.179-.173-.08-.146.025.007.052.014.065-.013a.23.23 0 0 0-.006-.114l.004.001-.008-.008-.017-.012a.3.3 0 0 1-.043-.037l-.034-.051c-.125-.21-.053-.044-.029-.288q.002-.03-.006-.058a.2.2 0 0 1-.005-.047l.008-.07c.006-.041.013-.082.003-.136q0-.002-.005.007c-.07.128.012-.09.013-.096q0-.01.003-.011c.014-.004.028.041.045.093a.5.5 0 0 0 .056.134l-.003-.067a.14.14 0 0 1-.016-.077q.001-.01.012-.008l-.002-.06-.01-.001h-.003a.5.5 0 0 1-.006-.192.03.03 0 0 1 .012-.01l-.003-.156-.006-.016a.1.1 0 0 1 .005-.039v-.078H6.46q-.014 0-.02-.006c.016.136-.006.112-.031.085-.012-.012-.024-.025-.033-.023-.012.003-.013.029-.014.053 0 .031-.001.06-.025.039a.4.4 0 0 0-.018-.18c-.046-.162.025-.196.032-.077a.2.2 0 0 0 .013.069c.012.02.033.024.052.028q.014.002.024.006 0-.003-.002-.004a2 2 0 0 1-.029-.127c-.008-.066-.002-.065.01-.062.005.002.012.004.02-.003l.003-.02c.001-.01.003-.022.007-.02q.007 0 .014.01v-.05l-.01-.026.01-.085.002.002q.005-.25.017-.498l.002-.005.004-.007.012-.02a1 1 0 0 0 .053-.096.45.45 0 0 0 .042-.266.4.4 0 0 0-.038-.133.2.2 0 0 0-.057-.07l-.013-.007-.014-.003-.019-.02c-.016-.042.001-.042.014-.042h.008a.4.4 0 0 1 .054-.02l.044-.536.084-.917c-.013.009-.027.013-.039-.024-.017-.052.027-.182.034-.202l-.008-.014a.1.1 0 0 1-.023-.06c-.005-.069-.102-.396-.066-.465l.022-.182.014-.064.018-.022c.059-.093.125-.282.199-.38.009.031.015.068.023.102l.062-.058.02.016.077-.2H6.99c0-.026.008-.035.019-.04l.04-.098-.005-.034-.055-.037.047-.047c-.003-.058.006-.112.045-.141l.017-.095q0-.034.01-.068c-.017-.038-.139-.175-.119-.332l.149.055.011-.14-.086-.06.08.006.063-.256h-.001l.008-.024.009-.035.062.025.002-.003a.2.2 0 0 0 .012-.072l-.037.017q.021-.179.045-.356l.057-.028q0-.009.003-.015c.001-.001.01.002.018.004l.023-.012.003-.006-.091-.116q.031-.095.065-.189l.072-.132.167-.197a.2.2 0 0 1-.027-.04l.027-.041-.02-.022c.022-.033.066-.072.068-.186l.127.07.033-.023a13 13 0 0 1-.007-.358q.127-.02.255-.037.093-.153.189-.301l.013-.036-.129.062-.122-.187q.118-.06.237-.118c.095-.35.492-.51.167-.557l-.042.14-.022-.227.18-.09q.035-.101.073-.203l.122.008.01-.198.227-.02q.22-.356.463-.698c.363-.245.086-.216.23-.479q.176-.117.355-.228l.025-.177q.065-.03.132-.057.218-.222.446-.434l-.209-.04.06-.107q.184-.03.368-.057.065-.106.134-.211.137-.099.278-.193l.094.089-.041-.237q.173-.17.35-.333-.083.127-.163.255.121-.045.244-.085.084-.104.171-.206l.014-.113q.244-.13.49-.25.27-.183.546-.352c.11-.189.49-.196.376-.448q.249-.102.502-.194l.084-.094.102.07.162-.185.291-.126-.06.109q.429-.137.862-.245l-.029-.208a13 13 0 0 1 .337-.058V7.09q.262-.1.527-.188.298-.003.591.007c.198-.165.689-.39.848-.169q.433-.124.875-.22l-.034.129.082.026.045-.188q.164.048.323.1l-.103.116-.125.015.184.107-.007.004a4 4 0 0 1 .78.11c.242.064.346.176.378.265q.01.03.01.06c0 .091-.072.18-.214.25l-.036.016a3 3 0 0 1-.606.174.6.6 0 0 1 .104.04c-.021.015-.047.03-.07.045l.057.046q-.004.017-.011.035c-.12.01-.27.089-.374.104-.096.014-.156-.035-.23-.03-.076.007-.302.116-.272-.002-.013-.003-.031-.004-.044-.009.004.12-.102.046-.202.08-.046.016-.171.141-.073-.046-.016.001-.024-.004-.038-.006-.108.168-.175.13-.334.112-.09-.01-.267-.006-.167.087-.07.088-.203.004-.262.026-.06.023.037.062-.043.09a1 1 0 0 1-.163.035c-.035 0-.007-.055-.06-.035-.233.091-.42.25-.654.352-.692.301-1.34.589-2.017.975-.115.06-.672.421-.755.433-.295.03.14-.329-.212-.17.123.371-.12.399-.371.59-.185.14-.441.414-.62.51-.19.102-.09-.043-.24-.02.038.173-.017.264-.138.389-.127.131-.291.224-.434.353-.048.044-.084.13-.144.175-.075.055-.125-.022-.173.01-.048.034.061.067.032.124-.014.025-.14.172-.198.178-.013.001-.014-.048-.042-.062-.015-.008-.11-.093-.133-.05.057.107.14.184.052.302-.14.186-.318.326-.473.522-.035.043-.045.198-.158.191-.034-.002-.117-.073-.165.004-.04.066-.006.104-.012.18-.003.03-.05.007-.051.063-.002.058.02.153-.11.105.03.028.06.049.09.074-.04.074-.243.117-.124.162l-.135.223-.138-.029c-.01-.067.081-.107.015-.158l-.134.186c.202.096.184.353.006.194-.034-.03-.077.123-.08.16-.002.036.073.087-.01.12-.046.019-.105.015-.093.127.048-.04.103-.078.155-.116-.05.07-.072.182-.149.228-.019.01-.015-.07-.048-.047-.033.022-.086.154.005.166-.182-.016-.051.038-.106.164-.007.015-.214.075-.16.17.018.032.14.041.051.12-.066.06-.122-.056-.21.005.137.013.151.172.124.247-.05.136-.118.085-.168.115-.092.054-.017.161-.127.17.007-.024.007-.048.011-.072l-.091.135.155.05c-.013.088-.087.1-.124.165-.006.01.034.012.031.022-.025.08-.053.1 0 .183-.13-.04-.079.093-.162.158-.024.018-.095.01.05.053-.082.147-.104.27-.25.369.157-.008.11.175.043.272-.018.025-.126.025-.123.09l.151-.018c-.015.125-.143.066-.153.175-.004.047.154.052.068.123-.05.042-.24.032-.019.098-.003.072-.067.014-.086.061-.011.03.066.08.046.125-.037.085-.219.18-.053.214 0 .066-.061.008-.062.068-.002.081.08.29-.057.304.068.074.014.279-.095.214.045-.107-.069-.21-.082-.097-.013.114-.03.143-.08.151.017.061.054.095.053.177-.001.057-.033.134-.037.204.022.001.04.006.05.023.025.045-.05.179-.051.226v.002c.02.01.055.01.066.06.004.013-.03.043-.052.081a.5.5 0 0 1 .011.098l-.005.039a1 1 0 0 1 .063.213c0 .026-.044.079-.046.089-.006.036.055.02.06.05q.01.075.016.154c.01.142.01.293.015.434q.003.086.011.165c.023.21.04.32.07.532.028.196.155.345-.181.222-.018.166.064.095.144.113.047.01.013.057.022.065.033.025.057-.045.08-.024.095.083.083.501.102.589.078.407.184.708.29 1.071.068.23.116.456.196.68q-.105.145-.205.296c-.005-.037 0-.06-.014-.097s-.035-.133-.084-.134c-.03.056.007.181.022.218.028.07.05.003.078.046s.006.155.051.202c.105.107.03-.167.003-.21.097-.037.037.14.127.142.014-.03.037-.13.011-.149-.026-.017-.063.056-.07-.01.034-.067.07-.14.107-.205.034.05.039.151.06.2.24.546.473 1.077.761 1.6.027.047.08.142.092.196.01.042-.058.069-.02.093.005.001.035-.037.07.003.067.076.184.261.244.354.583.915 1.28 1.71 2.02 2.52.038.043.197.188.21.233.04.134-.04.194.112.123.053.035-.03.062-.02.097.004.013.13-.019.13.03-.003.113-.1.041-.16.043.05.108.189.113.26.17.02.015-.029.082-.026.088.066.09.16-.044.199-.1l-.109-.12c.096.047.126.133.196.216.016.019.035-.06.063-.003q-.026.08-.056.16c.137.047.194.05.11-.118l.16.124c-.053.03-.076.12.008.118.02 0 .022-.072.048-.074s.135.094.143.105c.066.098.015.206.13.21-.027-.014-.096-.139-.009-.118.096.025.378.292.463.369.144.133.209.205.312.362.02.03-.02.093.021.149.054.074.176.166.237.252q-.037.006-.077.01l.034.07q-.01.015-.022.028c-.11-.047-.274-.052-.373-.096-.09-.04-.121-.119-.187-.156-.067-.036-.309-.079-.227-.163l-.033-.035c-.054.106-.108-.024-.205-.06-.045-.016-.211.006-.035-.086-.013-.01-.016-.02-.026-.03-.175.068-.21-.01-.323-.137-.062-.072-.196-.198-.177-.052-.106.017-.153-.148-.21-.178s-.011.076-.087.035a1 1 0 0 1-.139-.104c-.025-.029.03-.046-.02-.074-.219-.12-.456-.173-.678-.322a7 7 0 0 1-.245-.17c.113.188.14.407.544.358q.219.153.441.297l-.005.059.027.016.207.13c.152.098.348.226.577.365.458.282 1.068.622 1.745.92l.013.005.012.006.064.032c.011.006.058.03.105.062.013.009.1.067.144.145l.016.036.142.107-.028.065.132.047.026-.017q.211.06.424.112.048.044.098.087l.374.113.043-.074.166.134.34.094v-.034q.201-.002.403-.01l.142.104.132-.037q.26.042.523.073l.11.15h.157l-.112-.097q.22.017.439.026l.023-.124a1 1 0 0 1-.12.001c-.032-.003-.018-.051-.024-.053-.123-.03-.145.064-.154.104l.19.035c-.133 0-.217-.038-.34-.066-.03-.007-.006.04-.07.015l-.027-.1c-.173.003-.238.012-.054.089q-.121-.018-.244-.039c.043-.026.021-.081-.071-.066-.022.004.012.045-.016.05a1 1 0 0 1-.213-.038c-.123-.049-.113-.117-.243-.107.035.006.17.07.062.068-.123-.001-.56-.143-.685-.192a2.2 2.2 0 0 1-.477-.23c-.03-.02-.004-.057-.065-.094-.08-.049-.241-.116-.328-.177h.028c.094.03.183.06.258.092.316-.002.639.097.747.115l-.005.007c.014.006.034.013.047.02.01-.03.034-.031.068-.023l.057.02-.002-.005q.051.019.113.028a1 1 0 0 0 .082.046l-.007.003c.018.005.025.01.04.016h.002l.007.003.02.01c.04.02.087.043.132.062.048.02.095.032.167.044q.044.008.113.015c-.076.032.024.135.226.163.034-.031-.045-.022-.042-.042s.075.015.053-.025c-.121-.03-.07.02-.166.012.026-.017.01-.06.029-.075.03-.024.08.003.095-.013l.022.001q.082.017.164.03c.057-.011.251.109.35.158l-.02.004.046.008.017.007a.1.1 0 0 1 .048.033q-.008.005-.007.012l.234.032q-.001.008-.008.015a6.7 6.7 0 0 0 1.198-.011l.167-.016.018-.062c0-.013 0-.03.04-.014l.019.018q0 .008.003.014a.16.16 0 0 0 .073.068.4.4 0 0 0 .124.034.37.37 0 0 0 .242-.06 1 1 0 0 0 .111-.083q.225-.037.445-.084l-.002-.002.074-.025q.012 0 .025.007l.044-.01q-.01-.006-.011-.013c-.002-.003.007-.007.017-.01q.012-.004.016-.008c.005-.008.002-.014 0-.02-.006-.01-.008-.016.051-.021.01-.002.112 0 .117.002h.004l-.023-.048a.04.04 0 0 0-.023-.018.14.14 0 0 0-.062.001c-.039.007-.075.012-.075-.037a.3.3 0 0 1 .134-.01.3.3 0 0 0 .157-.023c.024.018 0 .025-.026.033-.021.007-.043.014-.043.026 0 .01.015.018.028.027.029.018.054.035-.067.05.005.001.007.01.01.017v.004l.069-.017a.1.1 0 0 1 .032-.015q.008 0 .015.002.069-.017.136-.036 0-.007.005-.013c.012-.019.134-.049.165-.047v.001s.001.006.005.01l.052-.015c-.002-.006-.004-.011.003-.014a.1.1 0 0 1 .07-.008l.057-.017c-.03-.013-.083-.013-.13-.014-.048 0-.09 0-.091-.015q0-.003.008-.006c.017-.01.047-.026-.02-.06.15-.044.112.001.097.02l-.005.007a.3.3 0 0 0 .111-.045l.055-.029a.2.2 0 0 1 .04-.01.2.2 0 0 0 .049-.014 1 1 0 0 0 .07-.061.4.4 0 0 1 .066-.059c.017.03.061.04.104.047l.053.013c.014.004.031.016.046.025l.026.014-.002-.002c.023 0 .08-.023.092-.04.012-.016.005-.033-.005-.048l-.02-.029c-.01-.013-.012-.024.005-.032.08-.038.165.014.15.058-.005.01-.023.014-.041.02-.023.006-.046.012-.05.027l.065-.001q.153-.059.303-.122c-.027-.026-.013-.057.099-.08l.01.034q.119-.05.234-.104c-.032.003-.07.003-.06-.039.01-.038.093-.067.16-.092l.07-.03a.2.2 0 0 0 .037-.031l.014-.014.135-.055c.016.002.023.01.03.016.011.011.02.02.059 0-.031-.01-.03-.03-.012-.049q.056-.023.112-.049.017 0 .031.003.02.006.031.019l.016.012.042-.023a.2.2 0 0 1-.032-.05l.05-.021c.013.009.04.003.066-.002q.024-.005.04-.005.006 0 .01.005l.088-.05c.031.018.092.013.144-.014l.15-.077c.008.009.024.016.072.01a.3.3 0 0 1 .03-.064l.169-.09.072-.05a1 1 0 0 0 .098-.085l.065-.058c.147-.073.3-.137.45-.219.064-.035.138-.103.214-.14.095-.047.104.008.163-.02s-.025-.047.028-.092c.024-.02.208-.144.261-.153.013-.001-.01.037.01.046.01.006.056.064.096.029-.003-.08-.042-.133.092-.233.21-.16.43-.288.651-.463.05-.04.129-.17.221-.175.027 0 .066.052.14-.017.063-.06.051-.089.091-.155.015-.024.044-.009.07-.058.027-.05.053-.13.138-.1q-.02-.03-.042-.056c.067-.067.25-.124.174-.152l.206-.21.097.013c-.02.058-.111.102-.08.142l.186-.178c-.118-.066.009-.299.078-.172.014.024.113-.118.13-.152.018-.033-.018-.072.06-.11.043-.022.087-.024.125-.125-.053.04-.112.08-.168.12.068-.069.133-.174.21-.223.019-.012-.018.063.017.039.034-.024.129-.151.065-.154.13-.001.054-.04.147-.163.012-.015.188-.088.187-.173 0-.03-.086-.028.01-.112.072-.062.068.044.155-.021-.094-.002-.042-.152.008-.228.088-.135.117-.092.165-.124.086-.06.073-.159.154-.176q-.019.036-.035.072l.114-.138-.09-.038c.043-.088.099-.106.148-.172.007-.01-.02-.01-.013-.02.046-.082.072-.103.066-.182.075.03.088-.098.167-.169.022-.02.067-.016-.015-.05.106-.153.163-.279.292-.387-.106.016-.014-.172.06-.275.02-.027.09-.032.11-.1l-.105.026c.05-.13.115-.075.154-.187.017-.049-.083-.048-.006-.125.045-.045.163-.042.042-.102.023-.076.047-.017.073-.067.016-.031-.018-.082.007-.13.049-.09.19-.194.095-.226.018-.07.04-.01.057-.072.023-.085.03-.306.116-.322-.021-.079.062-.297.113-.229-.054.115-.01.222.026.103.059-.197.07-.154.172-.172.014-.002.038-.057.051-.04s-.009.143.048.087c.01-.011.003-.083.043-.084-.004-.015-.01-.024-.016-.037.111-.087.143-.09.089.12q-.023-.015-.046-.033c.012.036.024.068.036.108-.074.225-.116.551-.217.743-.088.167-.005-.077-.007-.083-.016-.057-.06.018-.083.01-.022-.006-.017-.117-.04-.025a1 1 0 0 0 .024.162c.038.038.067.021.07.052a12 12 0 0 0 .687-1.826c.12-.437.208-.772.276-1.05l-.002-.273.041-.086q.027-.235.046-.469l.047-.017c-.127-.272.196-.334-.05-.57l-.022-.289.064-.038.042-.027-.029-.028.037-.266-.08-.194c.11-.048-.062-.538.034-.445l-.018-.212.045.048.028-.035q-.03-.078-.063-.154c.153-.088.022-.168.007-.203-.023-.058-.037-.167-.041-.174-.007-.01-.039.094-.072.013l.063-.143-.045-.01.014-.095.05-.004.01-.057-.047-.025-.052-.23.05-.184-.024-.089-.09-.005q.032-.13.062-.261l-.047-.13-.037.04.036.043-.035.017-.097-.195.022-.093-.048-.057-.074-.275.055-.085-.032-.08-.027.077-.075-.226-.094.018-.011-.105.048-.02a12 12 0 0 0-.038-.44l-.1.015c-.012-.202-.122-.376-.173-.544-.021-.07.027-.193-.052-.146q-.066-.204-.138-.406l-.096-.092-.007-.2c-.099-.057-.351-.46-.259-.493-.07-.083-.048-.086-.14-.182l.007-.109-.071-.147-.155-.16.004-.171q-.033.014-.066.032l-.087-.096c-.165-.031.206-.104-.115-.33l.086.141-.041.102-.156-.17-.066-.15-.099-.094a13 13 0 0 0-.163-.322q-.11-.129-.224-.254l.007-.082-.147-.072-.03-.053.028-.045-.196-.187q-.044-.086-.092-.17l-.027.035a12 12 0 0 0-.598-.63c.01-.055-.17-.083-.058-.177l-.049.013-.05-.083.038-.033-.051-.05-.047.043.03.084-.133-.15.05-.014c-.037-.087-.344-.128.023-.25l.078.124.001-.119.065-.04.063.122.082.008-.013-.054.085.023q.1.082.2.168l.01.054q.156.162.306.329h-.078l.08.087.064-.008.091.076-.089.052-.129-.034.04.09.066-.038.087.102-.004-.084.067-.017.148.124-.02.045.133.071.022.073.042.005.1.126.025.108.098.05q.172.25.33.507c.153.059.225.395.284.332q.14.214.274.436l.019.108q.144.212.281.43.122.3.228.602l.052-.098.084.184-.006.137.098.08c-.117.11.1.158.122.339.156.034.003.244.17.295h-.046l.036.103q.064.096.126.193l-.053.027.022.093-.063-.033.013.084q.078.131.154.265l-.02.088.054.026.017.18.039-.026-.02-.077.042-.008q.036.128.068.258l.022-.029.054.222.002-.006c.016-.035.112-.037.067-.189-.039-.13-.085-.14-.148-.246-.024-.04.015-.062-.034-.137-.05-.075-.143-.175-.05-.256-.037-.002-.067.005-.101.006-.05-.139-.014-.415-.1-.343a13 13 0 0 0-.163-.429l.076-.112c.069.073.074.223.147.216a13 13 0 0 0-.132-.378c-.163.095-.414-.246-.194-.235.041.002-.1-.235-.138-.283-.037-.048-.113-.031-.122-.159-.005-.072.018-.129-.105-.253.027.097.05.202.074.302-.058-.138-.17-.298-.197-.432-.006-.034.08.069.066.008s-.143-.277-.184-.198c.072-.165-.025-.098-.152-.305-.015-.026-.024-.304-.149-.363-.044-.02-.087.09-.156-.092-.052-.134.1-.054.053-.21-.054.117-.245-.054-.33-.169-.153-.204-.074-.211-.097-.294-.043-.15-.197-.2-.18-.314.03.034.06.06.088.092l-.146-.237-.103.09c-.11-.111-.107-.194-.182-.3-.01-.015-.024.018-.036.005-.1-.112-.118-.159-.241-.2.085-.078-.104-.173-.171-.318-.019-.041.009-.097-.084-.01-.18-.23-.344-.377-.448-.606-.027.147-.272-.08-.396-.232-.033-.04-.006-.136-.101-.196l-.01.15c-.178-.136-.062-.19-.217-.301-.069-.049-.114.083-.2-.059-.048-.08.012-.235-.14-.106-.106-.07-.003-.07-.069-.13-.042-.036-.137-.017-.2-.074-.12-.109-.22-.343-.313-.234-.1-.056.004-.058-.088-.11-.122-.07-.47-.177-.457-.3-.133-.006-.446-.21-.314-.25.159.121.35.111.175.01-.288-.162-.214-.157-.198-.3.002-.02-.075-.076-.042-.085s.225.073.16-.027c-.013-.019-.131-.04-.116-.093-.026 0-.043.005-.066.006-.09-.184-.082-.229.233-.067l-.074.047c.063 0 .12-.003.188 0 .33.194.832.404 1.089.633.224.198-.123-.031-.134-.032-.099-.007 0 .088-.022.114-.022.025-.196-.035-.06.04.018.009.251.053.268.049.123-.048.018-.139.302.03.1.059.377.255.48.332.115.083.168.2.237.248.068.049.03-.03.111.03.159.117.348.332.481.455.152.138.233.14.377.278.099.097.199.26.318.36.004.047-.127.074-.05.144.091.085.022-.09.09-.067.1.082 0 .05.002.054.027.06.11.129.152.194l-.054-.16c.114.181.102.047.226.163.033.03.035.162.152.263.028.024.3.267.369.362.03.04.048.128.057.143.033.055.07.018.108.064.277.34.533.775.752 1.13.207.34.316.527.502.886.173.335.389.609-.02.356.09.274.124.168.214.21.053.025.048.099.062.114.048.051.028-.066.065-.026.153.162.36.9.41 1.062.246.747.417 1.342.542 2.058.078.457.108.885.14 1.341q-.114.159-.23.316c.004-.065.012-.098.008-.172-.005-.073-.006-.25-.05-.29-.032.069-.023.303-.02.374.009.138.042.048.056.143.013.096-.033.254-.011.37.052.271.072-.24.057-.334.09.028-.004.26.065.348.02-.035.067-.18.05-.234-.017-.053-.066.034-.055-.082l.134-.248c.02.115 0 .293.004.395q.014.293.011.585 0 .218-.004.434a13 13 0 0 1-.248 2.33c-.02.103-.063.306-.098.395-.028.07-.077.015-.079.098 0 .01.044-.003.027.1a7 7 0 0 1-.201.801c-.528 1.7-1.379 3.275-2.536 4.58l.06-.022q-.015.083-.033.164-.146.201-.299.398l-.099.028q-.291.315-.602.608l-.001-.144-.16.157.013.117-.144.174-.092-.16.042-.156h-.003c-.018.008-.09.193-.145.197h-.022l-.097.083.155-.012.03.123-.24.28-.081-.035-.142.246-.137.043-.014.076q-.12.094-.246.185l-.203.045q-.052.09-.107.177-.49.308-1.001.57c-.14.275-.786.356-.682.472q-.438.222-.89.413l-.209.009q-.439.21-.896.389a13 13 0 0 1-1.205.2l.157.128q-.187.041-.376.077l-.25-.065-.194.138c-.143-.251-.34.109-.68.062-.144.253-.441-.104-.625.14l.013.01-.013.045q-.053-.013-.11-.024c.024-.062.057-.061.107-.032l.021-.07-.206.01q-.21.06-.422.114l-.018-.106-.119-.008q.005.018-.006.034c-.189.026-.215-.094-.065-.098q.026.002.047.023l.058-.055-.159-.025-.254.052q-.133.026-.265.048.013.035.007.07c-.07.022-.282.023-.455.014v.003l-.093-.008c-.08-.004-.14-.01-.156-.01a.3.3 0 0 1-.073-.012l-.167-.019-.015.002.033.053a14 14 0 0 1-.43-.058c-.065.021-.085.07.012.082.25.028.196.062.22.224.003.023.072.044.051.071s-.182.034-.11.109c.015.014.106-.023.108.043.02-.013.03-.026.046-.04.112.157.117.207-.152.188l.041-.087c-.045.032-.086.064-.136.095-.29-.045-.712 0-.963-.097-.216-.084.1-.036.109-.04.075-.047-.022-.093-.012-.132.01-.038.154-.07.035-.075-.016 0-.202.083-.212.097-.08.119.02.153-.233.14a6 6 0 0 1-.446-.066c-.108-.018-.177-.104-.241-.112-.065-.008-.016.048-.093.037-.15-.023-.35-.122-.484-.16-.152-.042-.216.009-.363-.036-.102-.032-.222-.124-.342-.143-.014-.043.082-.154.004-.17-.094-.022.004.1-.055.121-.099-.012-.014-.046-.016-.05-.036-.04-.12-.05-.17-.083q.04.058.084.116c-.137-.097-.093.02-.223-.006-.034-.007-.069-.13-.19-.146-.028-.004-.311-.046-.393-.085-.034-.017-.073-.084-.084-.092-.042-.027-.063.032-.105.016-.318-.118-.652-.322-.937-.47a13 13 0 0 1-.688-.38c-.25-.15-.525-.208-.091-.304-.163-.154-.16-.043-.251-.012-.054.018-.073-.044-.09-.045-.058-.005-.004.073-.049.068m19.552-8.76c.044.097.09.027-.019.182-.023-.184-.129.04-.19.023-.034-.01.01-.084-.002-.113-.017-.044-.076-.003-.082-.051-.005-.048.069-.19.08-.24.02-.096.017-.181.033-.26s.071-.198.085-.249a.4.4 0 0 0 .014-.111c-.013-.053-.07-.029-.058-.098.05.001.146-.088.158.018.004-.015.016-.033.017-.047.006-.068-.069-.037-.075-.07-.011-.055.035-.014.039-.014.049-.049-.003-.027-.02-.052a.5.5 0 0 1-.012-.138c.004-.02.027.008.03-.006.015-.061.031-.125.033-.187s-.04-.099.027-.094c.01 0 .016.036.042.026.009-.003.053-.052.068.02q.006.03.003.063l-.025-.025-.008.05-.068-.03c-.028.02.002.046.001.05-.017.058-.065.049-.014.093l.045-.115.036.005-.004.023.03-.011a.7.7 0 0 1-.059.162l-.035-.058c.002.069-.022.028-.046.074.056.017.039.042.028.081-.01.04.04-.008.04.033-.003.083-.095.214-.016.245-.07.098-.054-.03-.073-.04-.081-.04-.084.178-.043.217-.034.026-.073.021-.079.102-.008.11.088-.117.065.031-.016.1-.054.08-.075.126-.037.087-.054.25.017.204.029-.02.015-.093.045-.115.016-.013.128.04.055-.06-.008-.009-.06.029-.047-.04.004-.019.057-.078.057-.136 0-.025-.033-.135-.002-.195.034-.064.026.04.05.017.023-.024.037-.108.076-.1.036.05-.034.048-.034.063.002.059.079.02.055.103-.04.008-.122-.079-.121.045.002 0 .03-.024.03.016 0 .07-.019.201-.039.284.056.003.075-.1.123-.147-.015.115-.027.243-.098.317l.008-.131-.028.15c-.018-.022-.049-.143-.08-.066.057.016.04.128.062.175m-.462.5c-.026-.066.01-.145.036-.23.041.028-.023.164-.036.23m.63-2.282c.084-.06.053.178.03.272l.01-.067-.054.027.002-.073-.063.079c-.066-.064-.02-.067 0-.157.013-.058-.01-.08-.005-.152.02-.334 0-.677.012-1.02.062-.005.077.002.085.065l-.055-.002.021.122.034-.117.006.073c.002.022.026.026.023.056-.007.065-.083.154-.066.223.01.04.08-.018.058.082-.048-.057-.09-.095-.076.054.047-.088.027-.019.049.012.014.02.014-.109.039-.027.005.018.02.275-.022.265-.09-.021-.078-.035-.038.13.05-.21.098-.019.064.076-.017.048-.052-.034-.054.078m-.018-1.256c-.003.065.038.078.01.129-.003.004-.044-.035-.047-.066a3 3 0 0 1 .019-.242c.03-.033.038-.005.037.039-.001.051-.019.127-.02.14m.001-.21-.01-.26.027.007zm-.61 4.058c-.052-.037-.084.033-.092.061-.03.101-.102.145-.06.204.057-.048.032-.102.046-.13.033-.06.082-.048.106-.135m-.153.377c-.021.022-.047 0-.069.034a.6.6 0 0 0-.077.173c-.005.042.042.051.047.088.036-.1.067-.195.1-.295m-.21.562c.027-.053-.005-.14-.048-.012-.002.006.017.065-.024.093-.027.017-.034-.007-.067.017-.033.023.015.134.138-.098m-.656 1.175c.014-.025.004-.067-.007-.058-.088.076-.057.172.007.058m1.663-5.73v-.002zm-1.517 5.498-.047.154.076-.071zm.155-.02c-.032-.023-.067-.033-.12.013.03.028.073.01.12-.013m-.514.68c-.07.044.035.16.036.033 0-.012-.03-.037-.036-.034m1.829-4.722v-.002l.007.003zM9.644 26.355c-.025.076.134.047.137.033.014-.07-.118-.087-.137-.033m21.088-.726c.13-.142.03-.212.024-.228-.03-.084.075-.066.081-.081.027-.07-.113-.025-.12-.016-.093.138.006.13.024.155.04.054-.05.138-.01.17m.923-3.404.006-.04.005.006.025-.073.006.092zM28.66 28.5c.137-.034.314-.376.129-.203-.032.03.002.029-.015.05-.017.02-.214.179-.114.153m2.51-4.131c-.048.02-.052.075-.068.139l.047-.008zM9.224 25.624c.038.044.055.148.125.108l-.037-.137zm-.377-.48c.045.037.066-.035.108-.031s.095.166.134.023c.01-.044-.14-.197-.108-.28-.18.039-.017.095-.055.2-.01.031-.118.002-.08.087m19.548 3.619-.094.128.112-.108zm-5.786 3.231.025-.017q.044-.012.083-.02.02.01.04.024zm5.047-2.433c.085-.04.135-.164.062-.144-.088.023-.2.209-.062.144m.349-.396c-.154.122-.193.283-.025.09.01-.011-.009-.058.025-.09m-5.879 2.947c.082.033-.208.156-.3.148l.061-.103.035-.015.152-.033.053.005zM8.308 22.908c-.126.218.043.224.052.099.002-.016-.02-.109-.052-.099m22.216 3.208c.018.003.077.104.059-.028-.007-.045-.034-.05.01-.148-.037.093-.098.048-.108.055-.08.06-.044.18-.001.182.012 0 .021-.064.04-.061m1.249-4.184.02-.158q.019.009.037.02-.027.07-.057.138m-23.55 1.78c.053-.005.208-.206.217-.23.047-.155-.089-.195-.062-.335-.123.068-.015.14-.06.231-.013.029-.146-.028-.148.1 0 .042.073.17.053.234m13.48 8.56c.043.013-.022.112-.114.053q-.005-.005-.002-.014.001-.008-.001-.012c-.009-.004-.044-.006-.084-.01-.083-.005-.191-.015-.156-.044l.156-.025a.2.2 0 0 1 .036.023q.021.019.05.03a.3.3 0 0 0 .103 0h.016zM7.697 21.95c-.022.024-.01.13.012.135s.037-.012.05-.028q.003-.02.003-.04l.005.033c.016-.017.031-.026.052.005q.014.144.033.29l.11-.053-.051-.049.026-.063c.223.021.019.227.148.355l-.134.024c0 .264.02.08.126.042.061-.022.022.073.035.085.093.085.13-.188.113-.267s-.119-.18-.136-.269c-.01-.053.034-.068.025-.121-.015-.08-.03-.224-.07-.291-.016-.024-.098.01-.107.018-.021.021.028.051.024.073-.005.021-.043.012-.042.04s.039.167.047.176c.05.048.082-.044.087.031-.28.138-.14-.137-.16-.17-.052-.074-.073-.057-.086-.024a.4.4 0 0 1-.014.109c-.057.034-.068.002-.065-.042-.012-.005-.024-.008-.032 0zm.242-3.069c.008-.156.13-.054.129-.029-.003.11-.155.184.013.245.004.067-.06-.005-.071.035-.02.08.064.173.049.256-.039.005-.08.023-.118.016-.04-.09-.005-.484-.002-.523m23.068 6.041-.035.215c.032-.098.04-.134.108-.178zm-2.23 3.589c.012-.004.13-.152.106-.171-.029.02-.181.19-.105.17M7.946 19.87c-.022-.142.097-.16.098-.05 0 .033-.066.07-.098.05m4.283 9.762c.012.013.197.16.226.087-.092-.087-.19-.18-.281-.27-.01.022.002.064.01.083.019.048-.002.054.045.1m-4.32-10.086c.017-.037.071-.015.047-.09h.017c.038.007.065.067.061.098 0 .001-.035-.007-.036 0-.009.063.023.16-.074.155.058-.058-.03-.126-.015-.163m23.013 5.887c.034-.072.001-.136-.04-.137l-.042.154zm-17.59 5.006-.046-.06.048.005-.037-.054q-.058.03-.118.057zm-5.453-7.345c-.034.076.12.016.128-.023.007-.04-.045-.1.013-.144.042.04.013.105.046.16.04.066.1-.03.075-.043-.052-.028-.104.028-.071-.077.028-.088.185-.034.179-.102-.007-.085-.087-.035-.133.007l-.071-.147c.032.154-.067.195-.19.254 0 .07.075-.012.078.06.002.025-.05.048-.054.055m1.162 2.401c.057.114.15.069.058-.007-.02-.017-.039-.006-.058.007m21.944-.322-.055.119.024.013.055-.119zm.317-.803c-.011.057-.072.141-.03.158l.067-.142zm-2.385 4.037a.1.1 0 0 0-.022.024zm2.464-4.259-.018.134.056-.118zm-11.143 8.349c-.016.01-.085 0-.148-.01-.042-.007-.082-.014-.103-.014.082-.15.264.016.251.024m-7.498-2.172c.24.198.289-.115.089-.25-.05.039.02.045.004.075-.017.03-.05-.043-.061.025.077.08.072-.012.144.023-.033.021-.049.092-.075.11-.05.035-.073-.049-.1.017m-4.973-9.162v-.002c.027-.049.188-.066.192-.075.037-.101-.112-.144-.166-.08-.032.037.07.091-.032.098.017-.076.002-.102-.018-.11zm.237-2.418c-.078-.027-.022-.154-.026-.217.067.063.038.137.026.217m22.655 7.176c-.046.09-.007.085.002.109l.035-.062zM8.461 16.202c-.008.024.03.07.042.06.093-.069-.007-.172-.042-.06m-.614 5.31c.048.072.013.234.128.208.055-.143.02-.084-.046-.138-.045-.036.021-.11-.082-.07m4.638 8.335-.084-.083-.01.08q.047.003.094.003m7.952 2.722c-.015.064-.316.013-.272-.016.12.01.113-.01.105-.035-.004-.012-.009-.025 0-.036.047-.06.18.035.167.087m10.588-7.256-.062.07.02.048.037-.073zm-23.262-4.47c.121-.115.204-.134.099-.139-.01.023-.024.035-.037.024l.001-.025h-.062zm.271-3.504c-.02.05.07.137.08.014 0-.006-.057-.065-.006-.09.035-.016.058.008.099-.014.041-.02-.087-.133-.173.09m-.056.256a6 6 0 0 0-.032.282c.025-.02.076.001.096-.03.021-.03.06-.125.049-.165-.012-.04-.09-.051-.113-.087m11.28 15.202c-.047.005-.152.015-.128-.016.01-.012.037-.008.061-.004.029.005.053.008.042-.016-.094-.054-.177-.05-.291-.045h-.01q-.002.003.007.011c.013.015.037.04.02.055l-.019-.008c-.049-.018-.031-.027-.106-.036l-.047-.004a.1.1 0 0 0-.026-.014q-.024-.009-.058-.013a.3.3 0 0 1-.095-.03c.018-.024.09 0 .148.02.035.011.066.022.077.018l.015-.022a.2.2 0 0 1 .038-.051.1.1 0 0 0-.036-.001c-.032.001-.07.003-.063-.02l.001-.002.001-.003c.012-.034.03-.09.1-.085q.008.001.014.01.007.011.023.017a.3.3 0 0 0 .054 0c.025 0 .05-.002.07.004q.01.004.02.015.014.015.03.02a.1.1 0 0 0 .04-.01c.03-.01.07-.025.108-.015.025.007.067.076.017.085-.032.006-.038-.004-.043-.012q-.004-.008-.012-.01a.2.2 0 0 0-.047 0c-.039.001-.076.003-.073-.04-.038-.003-.037.044-.028.054.026.032.354.097.385.077l-.003-.005c-.01-.011-.032-.038.033-.077.05-.029.109-.024.136-.023h.015q.002-.002-.007-.018c-.02-.04-.064-.122.116-.049.022-.005.018-.017.015-.028-.002-.007-.004-.014.003-.016a.4.4 0 0 1 .118-.012l.014.038-.024.003c-.045.006-.134.017-.13.041.106-.015.146 0 .23.03l.008.004.01.006c.025.016.063.038.08-.004.004-.01-.012-.014-.03-.018-.024-.006-.05-.012-.037-.033a.25.25 0 0 0 .134-.035c.015.011.001.021-.01.03-.009.006-.017.011-.014.016.002.003.086.043.09.044a1 1 0 0 0 .091.001l.07-.002q.03.002.064.009.024.004.034.004.018-.003.036-.013.024-.014.049-.016.014.001.03.01l-.021.017-.031.024-.056.04-.014-.013c-.018-.034-.093-.036-.205-.025-.027.003-.03.011-.031.019q0 .008-.01.011c-.04.01-.092.013-.145.017q-.043.002-.084.006l-.087.012c.001.016.029.012.05.01l.025-.002q.01.005.012.025v.002c0 .014-.008.03-.03.035-.078.016-.103-.01-.126-.035a.1.1 0 0 0-.04-.03c-.112-.04-.266-.017-.19.059-.093-.031-.096-.024-.1-.012a.02.02 0 0 1-.014.015c-.081.034-.1.029-.13.02a.3.3 0 0 0-.063-.013zM7.853 18.235c.1.036.123-.03.126-.057.008-.095.105-.135.011-.193-.07.044-.008.097-.02.123-.027.057-.112.044-.117.127m-.012 2.225c.01.011-.008.056-.008.129l.004-.047q.03.017.037.053c0-.072-.005-.117-.024-.133zq-.003-.005-.011-.004zm5.617 10.243.006-.092-.098.072zm7.188 1.837c-.03-.006-.06-.017-.058-.03a.2.2 0 0 0 .104-.024v.002l-.002.001-.001.002zm.297.01a.1.1 0 0 1-.032-.002l.011-.015a.2.2 0 0 0 .032-.056l.067-.002c.01.03-.007.068-.078.075m-3.13-24.58q.016.038.028.075c-.004-.02-.004-.05-.004-.08zm-7.942 5.057c-.082.04-.066.186.016.171.097-.017.116-.234-.016-.171m-.756 12.8c-.047.098.021.273.039.111.004-.04-.026-.076-.039-.11m-.753-9.399-.01-.155-.079.067zm.87-2.254c-.166.022-.199.393-.05.218.026-.03-.02-.032-.01-.054.011-.023.181-.18.06-.164m-.687 1.601c.08-.04-.142-.176-.073-.04a.2.2 0 0 0 .073.04m1.136-2.304c.122-.128.064-.323-.027-.107-.004.012.052.073.027.107m-.255.43.043-.14-.08.114zM20.513 32.57a.5.5 0 0 1 .112-.007l-.014.013-.017.017zM7.793 20.15l.005-.007v-.002zm-.057.072c.018.03.03-.01.058-.072-.012.006-.044-.01-.046.001zm-.07-.345q0 .027.004.05c.036.005.078.002.09.019l.006.015a.2.2 0 0 0 .025-.089c-.046.013-.092.023-.125.005m.469-3.442c.061.028.119.04.176-.002-.059-.032-.116-.017-.176.003m-.438 3.547c.024.016.045.009.061-.01h-.016c-.02-.003-.042-.011-.044-.01l-.012.008v.002zm-.015-.463q.003.029.028.037c.032.008.046-.023.05-.055-.012-.054-.05-.003-.078.018m-.02.233a.3.3 0 0 1 .003.056c.044.004.065-.015.072-.044a.13.13 0 0 0-.076-.012M25.427 8.396c.054.032.18.034.184.087-.066-.016-.009.107.059.114.063.01.064-.013.032-.059.187.096.419.18.54.305-.033-.008-.048.006-.063.02v.002c.057.034.071.08.146.109.004-.031-.01-.057-.025-.083.14.096.374.167.434.29-.11-.07-.19-.125-.212-.025q.075.033.146.068c.039.094-.12.042-.043.1.09.026.08.081.17.106.039-.053.052-.116.029-.23.26.15.523.307.764.476-.106-.018-.182-.104-.227-.127-.04-.02-.055.013-.093 0 .007 0-.075-.097-.085-.046l.074.115c.1.081.09-.013.177.047.019.067.228.249.225.129-.05-.034-.145-.058-.104-.11.091.046.11.107.22.152.018.058-.099.027-.02.091.037.022.035-.024.066-.011-.01.146.153.261.283.386-.098-.029-.245-.015-.313-.12-.003.048-.047.021-.07.034-.057-.078-.281-.172-.208-.175.026 0 .083.063.088.026-.064-.102-.299-.105-.13.027l-.135-.079c-.007-.111.095-.043.115-.111-.024-.043-.126-.08-.171-.07.134.089.006.017.037.12-.119-.11-.229-.088-.328-.202.089.044.183.021.276-.002-.052-.06-.207-.088-.24-.028-.064-.042-.112-.11-.143-.05q.047.042.076.09c-.275-.09-.52-.284-.934-.436-.049-.042-.08-.09-.139-.128-.105 0-.214-.113-.258-.147s-.125-.059-.146-.076c-.13-.112-.157-.258-.234-.382l-.002-.002c.09-.032.102-.15.182-.195M7.74 19.3c.012-.063-.128-.221-.064-.044l-.063.012-.002.003zm-.01-.096-.002-.003-.001.007q0-.003.003-.004m-.054-.639c-.015.04-.041.086-.013.126l.111-.045a.2.2 0 0 1-.046-.084zM24.5 31.854c-.078-.022-.279.043-.126.04.039 0 .086-.025.126-.04M7.835 17.382a.4.4 0 0 0 .132-.017c.072-.112-.028-.127-.084-.145l-.011.059.002.002c.022.028.008.04-.016.047l-.01.027zm-.14 3.81.01.076c.02-.005.027-.032.007-.096zm.144 1.325.029-.043-.12-.03.007.048zm-.158-1.912c-.006.03.004.05.015.072a1 1 0 0 0-.01-.091zm9.428 11.757-.108-.006.027.055zM9.065 14.147c-.013.002-.082.16-.038.185.028-.019.131-.197.038-.185m.796-1.554c.044.018.152.098.191.076.062-.036.052-.122-.022-.132-.022-.003-.127.077-.17.056M7.777 22.23c-.012-.003-.017-.038-.025-.043l-.002.041zm18.768 8.62-.04.026zm-.18.22c0-.018-.043-.02.017-.049h.045q.048-.043.1-.083l-.108-.01c-.126.077-.215.13-.28.171a1 1 0 0 0 .234-.12c.024.057-.146.082-.163.15a.4.4 0 0 0 .09-.02l.038-.022zm.638-.455.192-.16a.2.2 0 0 1-.048.018q-.008 0-.008-.014l-.04.028-.178.12zm4.7-14.502.047.053-.009-.059zm-6.84 15.64c-.137.061-.126.122-.013.042.023-.018.02-.03.013-.042m2.816-1.688-.075.057.001.003zm-16.913-18.44c-.064.014-.088.104-.027.104.062 0 .106-.123.027-.105m-3.379 9.73c.026.019.129.07.169.063.064-.012.109-.086.073-.136-.02 0-.037-.005-.04-.023-.041-.003-.102.013-.062-.073a.2.2 0 0 1 .028-.03.5.5 0 0 1-.02-.174.12.12 0 0 0-.08-.001c-.05.018-.018.122-.026.167-.003.02-.046.033-.047.037-.012.046.033.058.04.099.004.019-.06.05-.035.07m10.045 11.163-.19-.015.075.032h-.055l.064.03zm-8.089-18.98-.053.034.063.032-.003-.134-.055.017zm-1.41 3.13-.003.01c.032 0 .064.011.07.008.083-.047.004-.148-.061-.178a1 1 0 0 1-.01.093l-.088-.029c.03.033.061.062.091.097m.82-2.783a7 7 0 0 0-.148.311c.096.039.083.14.167.172.05.017.078-.09.109-.122.013-.014.053.005.056.002.034-.028.007-.069.024-.107.008-.017.073.002.065-.031a.5.5 0 0 0-.088-.17c-.06-.041-.152 0-.13.085.01.04.115.07.02.123-.014.007-.135.002-.15.046-.033-.08.055-.243.11-.302a.04.04 0 0 0-.036-.007M7.64 23.15c-.009.076.064.114.114.05.015-.018.016-.155.058-.18-.04.029-.166.082-.172.13m.129-5.809c-.003.019.01.03.03.035q-.003-.02-.001-.04c-.016 0-.029.002-.03.005m.288 6.904c-.026.061.062.15.079.065.013-.068-.052-.126-.079-.065m-.564-4.364c-.021.042-.043.064-.053.09-.01.021-.01.045 0 .085.017-.022.042-.053.059-.085.018-.035.025-.07-.006-.09M18.94 32.852a.4.4 0 0 0 .056-.011.4.4 0 0 0-.089-.016l.033.008zM7.467 18.595c.053.006.148.028.046-.05q-.016-.012-.033-.02c-.003.016.013.056-.013.07m.394-1.933a.14.14 0 0 1 0 .072c.004-.03.02-.045.039-.052l.006-.012zm-.329 5.395.03-.055-.069.004.017-.065-.067.026zM19.762 33l-.127-.007c-.07-.003-.333-.012-.378-.03-.132-.05-.087-.107-.199-.023-.08 0-.01-.04-.042-.054-.007-.002-.039.01-.072.02v.022q.39.116.792.208.015-.069.026-.136M7.59 17.284c.02.044.075.077.12.078l-.002-.07q-.02.016-.04.017c-.038-.002-.076-.094-.078-.025m25.026 2.622a1 1 0 0 0-.006-.154l-.03.02.013.074-.057-.001-.02.101.022.025.063.072.01-.037q0-.018.002-.035 0-.032.003-.065m-24.99-2.195.015-.067-.031-.003-.02.019-.009.038zm1.991-5.21c.06-.008.12.034.192.08.053-.043-.05-.06.003-.108.02-.017.065.017.072.016.076-.015-.05-.118-.086-.101s-.054.101-.12.078c.01-.064.075-.078.102-.143q.01-.03.002-.043l-.05.065c.008.016.007.027-.032.043zm22.953 8.826a1 1 0 0 1-.017-.11l-.047.024-.01.06q.02-.001.042.007a.1.1 0 0 1 .032.018m-24.214-6.15c-.049.02-.151.06-.117.126.065-.049.102-.035.117-.127m-.86 2.63a.04.04 0 0 1 .02-.002c.04.008.078.116.077.027a.3.3 0 0 0-.029-.05.14.14 0 0 0-.07-.007zm24.612 6.476a.4.4 0 0 1-.054-.12l-.09.083-.018-.016-.001.005q.014.043.015.074c.075-.068.058.094.058.182l.074-.143zm.465-5.524-.06-.023.038.155-.041.06.06.06-.053.144.089.04-.006-.024a3 3 0 0 1-.017-.323zM28.814 29.35l-.027.022.01-.001zm3.221-5.31-.03.026-.002.009.033-.012zM8.452 14.495l-.08.182c.039.051.071-.021.1-.083l-.083.068.064-.135.04.023q.01-.019.02-.024c.033-.015.133.047.12-.045-.005-.035-.069-.027-.091.002.006-.143-.035-.13-.08-.068zm3.505-4.329c.096.035.26-.059.104-.057-.04 0-.072.037-.104.057m-2.483 2.856.03-.037-.033-.09-.049.007zm-.45.371c.022.005.06-.03.083-.038.037-.012.032.067.062.066s.093-.089.082-.11c-.024-.048-.108.016-.093-.066q.089-.12.181-.24l-.055-.027q-.136.206-.26.415m23.67 5.9c.006-.091-.062-.028-.089-.098l-.04.167.05-.045.05.045a.1.1 0 0 0 .029-.07m-25.11-1.819.024-.022.008-.027-.046-.005-.014.045q.015.004.028.01m1.753 9.913c.068.023.12.042.024-.142l-.006.003c.033.07.036.12-.018.14m18.595 2.868a.1.1 0 0 0 .024-.027l-.049.044c-.069.025-.101.044-.116.063.056-.027.109-.05.141-.08M7.772 16.53l.012-.002-.012-.01q-.002.003 0 .012m24.733 1.627.004-.002-.002-.017zm-25.124.396-.003-.003v.002zm-.048 2.803.002-.002c.004-.004 0-.039-.01-.076zm24.942-4.529.012.018-.009-.043zm-24.815 6a.1.1 0 0 0 .023-.049.11.11 0 0 0-.04-.11q.006.084.017.159m24.956-5.407.01.01-.008-.053zm-22.43-5.407q.024.006.06-.017h.001c.034-.023.11-.163.172-.176q-.01-.018-.051-.035zm22.776 6.635c-.042-.03-.084-.048-.12-.076l.015.162h-.026q.014.01.026.006c.013-.008.12-.01.105-.092m-15.734 14.14-.035.009.046.015zm-6.025-3.354-.01-.009-.002.004zM9.436 12.772c.12-.11.112-.112.067-.113l-.075.106zm.899-1.19a.5.5 0 0 0 .157-.122c.042-.048.008-.052.007-.076zm1.007-1.224q-.077.099-.156.196a.1.1 0 0 1 .049-.01c.032.002.023.124.097.059.029-.06-.044-.06-.047-.107-.003-.037.092-.11.057-.138m8.392 22.789-.122.05.108.02zm12.309-8.615-.001.003zM11.642 10.308c.105-.086.053-.176-.013-.061-.014.024-.002.043.013.06m-1.09 1.012c.043-.028.1-.055.119-.1q.018-.044.008-.053zm1.902-1.828q.003.035.026.047c.047.015.058-.05.057-.1zm20.038 6.82c0-.142-.133-.31-.154-.201-.024.128.152.428.154.2m-7.74-8.486c.16.022.795.32.855.355.252.12.054.144.013.125-.176-.082-.257-.257-.402-.163-.111-.043.025-.046-.039-.082-.126-.072-.3-.065-.433-.13h-.001c.002-.034-.015-.079.008-.105m4.706 3.238c-.03-.033-.1-.046-.09-.026.069.16.23.18.09.026M23.97 7.548c.243.063.24.17.053.106-.054-.018-.096-.091-.053-.106m.552.163c.057.036.005.065.137.093v.008c-.012.034-.132.016-.186-.007-.002-.001.022-.023.008-.03-.101-.045-.274-.078-.236-.151.08.08.219.051.277.087m7.653 7.828c.071.294.265.479.108.105-.01-.02-.085-.036-.108-.105m-.529-1.361c.034-.201-.354-.686-.214-.32.024.064.042.02.062.057s.13.41.152.263m.211.542.122.222-.083-.228zM27.97 9.544c-.07-.064-.22-.068-.04.055.007.005.108.012.132.08.014.045-.026.041-.005.098.02.055.216.05-.087-.233m-2.16-1.21c.064-.044.252.097.353.143-.118.005-.227-.074-.353-.143m1.375.65c.025.04-.021.063.021.107.042.045.175.16.239.187.063.027.099-.03.159-.017a10 10 0 0 0-.42-.277m1.994 1.752q.107.076.212.154l-.07-.142zm.815.874c.03.12.26.062.07-.024-.019-.008-.072.015-.07.024m-3.337-3.002c-.082.052.016.126.056.15.147.086.183.2.296.171-.05-.096-.147-.088-.184-.12-.083-.07-.04-.13-.169-.201m6.197 8.25c-.033.026-.145.045-.145.117 0 .115.071.215.113.143.013-.022-.003-.241.032-.26m-3.627-6.334c-.053.027-.084.066-.04.161.057-.02.05-.087.04-.16m3.858 8.614c.028-.094-.016-.238-.05-.166-.035.07.017.281.05.166m-7.527-11.48c.177-.02.085-.109.287.098-.307-.044.008.187-.046.261-.03.041-.13-.045-.181-.041-.078.006-.038.1-.118.089-.078-.012-.276-.164-.352-.197-.144-.063-.284-.09-.405-.137-.122-.049-.29-.164-.367-.198a.7.7 0 0 0-.174-.055c-.09.001-.073.084-.181.048.021-.068-.086-.225.091-.208-.022-.01-.046-.033-.069-.04-.108-.028-.088.083-.144.082-.093-.001-.007-.053-.007-.057-.06-.082-.044-.005-.091.012a1 1 0 0 1-.229-.023c-.032-.013.024-.035.002-.044-.093-.038-.19-.077-.29-.096s-.175.03-.143-.062c.005-.014.064-.013.058-.051-.002-.013-.064-.087.058-.088q.052 0 .106.014l-.052.026.08.025q-.043.042-.076.085c.023.044.077.01.082.012.087.04.053.103.145.044l-.169-.092.022-.048.036.012-.006-.045c.086.03.169.078.239.126-.034.01-.072.021-.106.033.111.017.035.038.1.082.05-.07.084-.04.144-.014.06.025.002-.058.067-.044.135.028.312.194.393.097.131.127-.07.064-.093.087-.097.097.253.17.333.129.028.054.004.104.133.14.174.049-.155-.158.076-.077.154.055.106.1.173.144.125.08.38.165.335.052-.018-.046-.143-.054-.166-.103-.014-.026.118-.156-.073-.094-.018.006.021.09-.084.048-.03-.013-.104-.105-.197-.125-.041-.009-.234 0-.317-.062-.09-.067.075-.022.047-.061-.028-.04-.158-.086-.13-.136.096-.033.064.062.089.066.096.017.064-.1.188-.04-.004.056-.177.139.024.179.002-.002-.028-.05.037-.036.114.023.32.095.445.153.028-.074-.13-.137-.187-.218.18.06.384.124.473.248l-.21-.06q.117.045.233.094c-.044.016-.252.012-.141.082.05-.07.223-.006.308-.016M10.57 29.517l-.008.016q.09.093.173.19-.083-.102-.165-.206M23.054 7.174c.04.021.087.041.13.061-.053.044-.098.023-.16-.03.011-.01.018-.021.03-.031m8.675 6.864c.003-.015-.141-.28-.183-.266.012.051.166.377.183.266m-9.141-6.982q.16.04.317.087c-.085.045-.387-.07-.318-.087m6.498 22.863a1 1 0 0 0 .052-.078l-.07.047zm3.153-14.83-.013-.1-.054.026.128.166.005-.08zm-24.819.657a2 2 0 0 1-.03.169l.085-.118-.035-.091zm6.647 16.701c.01-.12.16-.125.264-.098l-.025-.05-.02-.008-.14.034-.134-.159-.084-.039-.114.076-.106-.1c.039.069.106.177.19.151.043-.013.05-.14.155-.029.08.082-.068.118.014.222M28.464 9.619c-.159-.246-.317-.155-.345-.156-.145-.006-.068-.133-.088-.149-.098-.072-.093.135-.083.147.172.196.206.063.254.053.104-.022.193.14.262.105M14.559 32.564l.093-.072-.152-.043c.025.037.016.071.032.104zm17.592-18.91c-.04-.168-.218-.243-.221-.14-.002.06.136.152.043.159-.077-.236-.133-.181-.143-.172-.07.064-.18-.082-.242-.032-.034.028.073.189.096.258.01.03-.022.05-.02.055.02.07.07.091.105.156.016.03-.025.073.012.106.038.032.169.122.203.116.063-.011.05-.157-.044-.238-.046-.04-.11.032-.136-.13-.003-.022.042-.14 0-.209.096.063.238.352.28.48.065-.013-.054-.207-.065-.298-.008-.077.134-.097.132-.111M11.375 30.436l-.016.005c-.018.036-.04.084.01.133zm2.216 1.582.044.013-.053-.053zm19.526-9.65c-.087.072-.169.386-.052.196.03-.049.037-.134.052-.196M6.914 17.792l.005-.024-.006-.01zm5.728 13.717c-.037.029.159.114.205.125.02.006.044-.004.067-.01l-.001-.02-.088-.049-.146-.081a.2.2 0 0 1-.037.035m10.09-24.64c-.065-.131.312-.03.456.026l-.104-.03.022.08-.118-.02c.038.034.07.071.105.106-.13.075-.116.01-.255-.04-.089-.032-.135-.006-.25-.029-.535-.105-1.1-.144-1.652-.212.012-.086.028-.107.133-.108l-.022.076q.104-.003.206-.01l-.179-.066q.048 0 .121.003c.037.002.052-.032.1-.023.104.02.221.143.34.132.07-.006 0-.116.152-.065-.108.056-.184.106.063.116-.127-.083-.022-.042.036-.066.037-.015-.172-.04-.03-.059.029-.005.457.029.425.085-.068.12-.085.1.199.082-.324-.118.005-.14.145-.072.071.036-.075.065.108.094m-3.384 26.863c.072.014.152-.02.23-.039l-.066-.04-.08.076-.1-.023c-.003.012-.003.022.016.026m9.77-23.564c.013-.023.198-.04-.015-.093-.073-.018-.094.014-.223-.1.125.102.025.155.032.171.051.138.255.163.28.109.006-.016-.089-.065-.075-.088m-16.61 21.204-.009-.005.006.006zm6.607 2.34c.065.029.12.05.166-.02l-.182-.045zm14.131-16.876c-.021-.153-.09-.109-.126-.063q-.047-.145-.098-.288c.064.282-.027.296-.135.327.01.116.07.021.084.142.005.043-.043.051-.045.06-.024.105.115.095.118.034s-.055-.19-.006-.233c.046.092.027.183.065.296.044.134.091.01.065-.03-.052-.078-.094-.013-.077-.17.014-.135.172.045.155-.075M20.395 6.66c-.086-.11.254-.008.29-.003.104.013.139-.043.211.003.007.005-.071.059-.122.057a4 4 0 0 1-.38-.057m-.488 27.17c-.05-.015-.02-.07-.122-.045l-.002-.008c0-.043.09-.075.135-.072.002 0-.01.035.001.037h.052c.078 0 .164-.009.157.071-.052-.038-.11-.01-.157.007-.025.01-.047.016-.064.01m-4.274-.773c.007.01.014.008.032-.037l-.039-.024zM26.68 8.41c.011.072.097.103.192.153l.01-.065q-.101-.046-.202-.088m5.98 7.471.02.08.09.077.015-.06q-.062-.05-.126-.097M20.357 6.629a14 14 0 0 0-.387-.006l.019-.04q.185.021.368.046m12.759 9.407c-.041-.148-.176-.365-.23-.527-.032-.096.007-.106-.027-.203-.049-.146-.135-.402-.211-.527-.028-.045-.091-.006-.096.006-.009.03.055.094.062.13.006.035-.036.01-.022.056.015.047.118.298.13.315.07.1.06-.05.098.082-.217.143-.196-.278-.236-.34-.143-.228-.085-.019-.087.037s-.075-.05-.085-.017v.001c-.01.033.049.21.073.227.053.033.025-.137.095-.018q.078.246.146.497l.089-.046-.068-.103.001-.098c.23.117.105.394.265.667-.042-.007-.084-.01-.124-.018.068.446.041.146.134.13.054-.01.04.136.055.164.11.196.082-.267.038-.415m-1.586-2.938c.348.394-.086-.371-.159-.396-.126-.051.115.262.12.316.008.052-.092.077.014.174.04.037.052-.037.025-.094m-.747-.994c-.011-.071-.03-.214-.122-.258.042.118.016.138.122.258m-9.71-5.462h-.005V6.64zm-8.816 24.696-.092-.07-.004.003.105.088zM33.555 20.79c-.146-.134-.053.13-.128.249-.022.034-.082-.125-.095.044.013.107.061.021.088.074.028.054-.02.36.078.187.032-.054 0-.46.057-.554m-.28 1.027c-.031.23.05.278.04.059-.002-.047-.02-.055-.04-.06M6.398 20.66c.002-.037-.011-.133-.026-.255a8 8 0 0 1-.048-.434c-.024-.318.004-.578.168-.402l.005.003c.084-.132-.323-.496.041-.653l.024-.012c.006-.01.001-.046-.004-.087-.008-.066-.017-.146.01-.161a.3.3 0 0 1 .01.107q0 .037.003.064c.003.024.013.04.022.057a.14.14 0 0 1 .024.096c-.01.12-.051.065-.07.04q-.008-.011-.009-.01l-.002.011c-.023.123-.039.214.006.32.022.015.021-.012.02-.042-.001-.026-.002-.056.011-.066.034-.021.011.09.002.139l-.004.021c0 .032.003.052.006.068.006.034.01.054-.03.139a.02.02 0 0 1-.016.014c-.012.004-.02.006.006.11-.071-.088-.105.08-.065.204a.1.1 0 0 0 .025.04l.005.004c.024.025.05.052.033.133-.01.043-.058.031-.062.018l.002-.025c.003-.023.007-.052-.01-.054-.01.052-.014.116-.018.18-.003.055-.006.11-.015.152q-.003.011-.01.01-.009.003-.015.016c-.024.054-.003.229.03.245q.006.009.013.014l-.036.064-.022.037-.015.025c-.028-.056.008-.073.01-.13M27.482 8.888q.163.075.323.155c-.14-.092-.194-.12-.23-.232zm5.919 8.519c-.11.038-.006.232-.047.36-.012.038-.134-.147-.136.066 0 .07.06.333.036.422.048.035.2-.186.208-.223.049-.23-.078-.4-.061-.625M23.394 7.017l-.004-.002.008-.008zM11.32 30.813c.05.102.23.124.21.03-.024-.112-.29-.195-.21-.03m21.67-6.835c.064-.066.033-.276-.018-.234-.07.057.006.246.019.234M28.25 9.265c-.098-.085-.216-.075-.236-.022q.111.067.221.137zm-9.071 25.087c-.123.106-.034.158-.233.028.234-.098-.054-.201-.033-.308.011-.06.105-.013.142-.041.055-.043.002-.128.062-.153s.24.051.303.053c.12.005.226-.028.326-.027.066.001.154.026.225.045q.055.016.09.02a.3.3 0 0 0 .138-.01c.064-.037.03-.124.117-.126.002.085.12.22-.01.271.018.002.04.019.059.017.085-.011.04-.129.08-.15.067-.034.02.058.02.063.065.069.034-.012.063-.049a.5.5 0 0 1 .168-.06c.027 0-.007.048.01.05.078.007.157.016.234.002.076-.014.117-.097.119.019 0 .018-.043.038-.028.08.005.013.07.075-.017.12a.2.2 0 0 1-.08.023l.03-.049H20.9c.011-.04.022-.084.03-.124-.028-.042-.057.017-.062.016-.072-.013-.065-.097-.114.003q.073.02.145.043l-.002.062h-.03l.017.05a.6.6 0 0 1-.205-.055q.034-.037.067-.077c-.084.022-.036-.03-.094-.056-.016.099-.049.077-.098.071-.05-.006.014.066-.037.075-.103.02-.273-.096-.305.047-.128-.09.034-.1.043-.136.044-.149-.226-.088-.272-.007l-.013-.023c-.023-.044-.033-.09-.12-.078-.137.02.152.11-.034.118-.125.005-.102-.065-.161-.084-.111-.036-.315-.013-.254.091.025.042.116-.004.146.04.016.024-.044.225.076.072.012-.015-.038-.092.048-.09.025 0 .102.071.174.053.018-.004.07-.035.125-.054.042-.015.086-.024.119-.009.082.038-.048.055-.018.088s.136.031.13.099c-.061.076-.062-.043-.081-.038-.074.021-.02.139-.125.123-.011-.057.07-.197-.025-.196a.2.2 0 0 0-.04.006c-.002.002.034.043-.017.056a1.4 1.4 0 0 1-.36.023c0 .094.13.094.192.16-.145.011-.31.031-.404-.064l.165-.03q-.096.003-.19.002c.027-.037.177-.127.08-.155-.018.1-.159.11-.218.16m-1.037-.486c.046-.099-.043-.126-.079-.13-.128-.014-.183-.114-.26-.023.061.075.13.014.166.028.077.031.061.116.172.125m5.282-26.883-.062-.02.01-.005-.11-.054q.078.007.154.017zM12.767 31.818c.029.166.416.281.326.155l-.092-.055c-.007.005-.014.009-.025.003-.029-.017-.234-.239-.21-.103m-.894-.67c-.163-.17-.403-.161-.133 0 .015.008.09-.038.133 0m.544.392-.177-.083.144.116zm3.3 1.633-.07-.004v.003l-.01-.003-.125-.008.091.091zm17.588-10.95c-.005.11-.065.275-.001.309l.068-.24zM16.936 33.618c.069.024.183-.06.017-.08-.007-.001-.085.05-.119-.003a.06.06 0 0 1-.008-.037l-.055.02c.023.03.073.066.165.1m12.49-23.545a.8.8 0 0 1-.315-.243q-.116.023-.23.048c.174.165.116-.028.261.124.04-.003-.057-.073-.03-.071.132.01.16.183.293.25zm-7.965 23.772a5 5 0 0 1-.25.007c.047-.081.294-.049.25-.007m-5.232-.499c.018.252.235.243.266.104l-.159-.046zM27.87 9.045l.161.133.032-.024-.16-.134zM14.853 32.88c-.055-.09-.226.118-.05.07.016-.006.054-.062.05-.07m2.43.818c.126.02.249.038.378.053-.014-.013-.014-.032-.016-.05l-.23-.033-.074-.034c-.017.025-.033.053-.059.064m-1.55-.29c.034-.059.049-.117-.009-.181-.04.056-.018.116.01.181M26.74 8.238c.087.042.193.16.239.114l-.195-.155zm3.493 2.72c-.067-.095-.37-.26-.106-.041l-.041.043zM28.11 9.065l.08.119.177-.002q-.128-.06-.257-.117m-1.69-1.03q.104.04.206.084l-.164-.127zm6.151 6.7c-.023-.232-.027-.142-.122-.245-.065-.07-.046-.184-.122-.134.092.13.145.395.244.379m-1.627-2.78c.155.077-.115-.413-.27-.331.07.078.2.294.27.33M10.792 30.697c.02-.044.115-.141.088-.192-.044-.079-.148-.094-.158-.014-.003.025.095.166.07.206m10.618 3.41c.082.129-.213.14-.332.127l.083-.004-.038-.083.09-.017-.104-.085c.072-.13.08-.051.192-.042.072.006.098-.039.186-.05.413-.055.827-.172 1.245-.231.017.103.011.13-.064.159l-.006-.094q-.074.03-.146.065l.148.03-.088.027c-.027.008-.027.051-.065.053-.081.004-.2-.106-.283-.06-.048.028.034.133-.09.119.062-.096.102-.176-.079-.116.116.06.028.042-.007.087-.022.028.135-.004.038.06-.02.013-.334.103-.327.029.015-.158.033-.142-.165-.031.264.032.035.162-.085.13-.061-.018.035-.1-.103-.072m-8.671-2.118c.003.015.205.127.236.085-.025-.034-.254-.187-.236-.085m17.765-20.66c.066.006-.064-.16-.09-.17-.101-.04.023.163.09.17m2.868 5.82c0-.027-.032-.202-.062-.203-.09.304.065.418.062.203m-16.83 16.684c.181.154.28-.03.3-.046.112-.08.085.096.104.1.091.018.036-.192.026-.198-.178-.1-.171.056-.205.095-.073.084-.18-.028-.224.05M9.629 29.37c.017.079.123.136.123.065 0-.07-.144-.162-.123-.065M23.15 33.7c.095.108-.183.068-.21.07-.08.01-.088.084-.154.048-.006-.004.034-.085.071-.096.038-.01.283-.03.293-.022M6.366 21.211c.005.12-.132.107-.02-.02l.013-.015q.006.015.007.035m5.598 10.323.045.068.038-.06-.167-.033.022.065zm11.223 2.193.284-.075-.003.049q-.14.014-.281.026M12.49 32.609c.085.109.26.044.232-.044-.016-.05-.162-.028-.084-.1.135.139.167.054.172.04.042-.105.179-.063.217-.149.02-.048-.117-.104-.158-.144-.017-.018.004-.055.002-.06h-.001c-.037-.043-.088-.023-.136-.051-.023-.013 0-.078-.042-.078-.042.001-.183.024-.212.054-.05.055.005.163.11.16.052 0 .087-.106.157.01.01.014.006.144.062.17-.1.017-.31-.117-.385-.19-.052.058.11.13.146.196.03.057-.086.176-.08.186m3.415 1.078c-.006.03-.145.162.033.083.061-.028.07-.074.197-.041-.121-.023-.057-.136-.066-.149-.073-.104-.238 0-.244.068-.001.02.085.009.08.04m6.758.196.004-.001v.002zm-4.49.205c-.026-.072-.097-.06-.179-.062l.01.073zm2.725.082h.003l-.004.013zM7.99 27.468c.043-.102-.053-.333-.059-.146-.001.048.038.1.059.146m2.45 3.539c.078.091.123.01.139-.051q.098.067.197.13c-.163-.151-.086-.228 0-.332-.053-.073-.072.038-.13-.036-.02-.026.019-.067.017-.075-.018-.09-.142.02-.12.065.02.044.123.091.095.157-.077-.03-.095-.106-.173-.156-.093-.06-.088.061-.049.069.078.015.092-.062.137.06.04.104-.174.097-.113.169m7.02 3.01-.279.02c.127.016.175.016.23.112zm3.424.203.05-.001-.007.01.094.022-.115.036zm-9.563-2.97-.046-.042-.108.01.008.056zm2.757 1.72c.028.055.082.17.168.146-.065-.077-.05-.113-.168-.147m2.713 1.095c.095.03.181-.048.183-.113l-.2-.012zm-3.61-1.437c-.409-.086.18.253.245.226.12-.045-.17-.145-.19-.185s.056-.132-.061-.139c-.044-.002-.033.068.005.098m-2.327-1.148c.092.077.289.136.393.217.062.049.03.084.093.133.094.073.255.205.363.246.04.015.082-.062.082-.075-.002-.03-.079-.032-.096-.055s.028-.034 0-.06a2 2 0 0 0-.22-.144c-.095-.023-.037.083-.115.011.145-.268.268.066.323.084.202.07.081-.048.065-.093-.016-.044.083-.017.081-.05s-.113-.125-.14-.12c-.058.015.023.123-.079.085q-.15-.13-.3-.264l-.063.1q.048.015.096.026l.033.074c-.245.083-.23-.214-.473-.293l.119-.08c-.224-.27-.09-.073-.169.008-.045.047-.086-.069-.11-.077-.173-.057.024.251.117.327m6.278 2.592-.154-.045-.018.043.154.046zm-1.445-.099c.11-.03.195-.01.305.043l.165-.188c-.175-.057-.082.098-.232.038-.03.028.062.036.04.051-.104.073-.168-.082-.289-.062zm-5.613-3.243c.086-.109-.088-.162-.104-.278-.003-.034.184-.003.099-.146-.028-.045-.194-.175-.21-.25-.06.013-.107.272-.099.302.053.19.239.207.314.372M8.39 28.698c.205-.024-.014-.117-.001-.24.004-.037.141.016.07-.095-.066-.054-.07.03-.122.019-.053-.013-.164-.226-.17-.055-.002.053.232.272.223.37m-.254-.805c-.091-.155-.195-.125-.069-.006.027.025.049.017.07.006m10.036 6.41c-.075.002-.182-.069-.204.005l.182.063zm.285.056-.172.015.152.053zm-1.51-.17-.089-.076-.134.105zm-2.12-.541c.077.043.361 0 .094-.033l.023-.068-.118.1M7.89 27.682c-.054-.066-.09-.201-.169-.176l.066.183zm6.096 5.532c-.148.037.205.292.308.114-.077-.024-.24-.13-.308-.114m.525.268c-.055.04.093.105.117.097.091-.031-.06-.136-.117-.097m-2.725-1.428c.096.163.07.09.186.102.08.007.098.112.149.016-.121-.036-.253-.204-.335-.118m-1.582-1.17c.01.018.11.116.136.094-.035-.278-.223-.238-.136-.094"/><path fill="#3784ff" d="M15.776 18.555c.164.092.294.297.37.477.024.056-.068.11-.055.151.026.082.112.097.132.184.007.029-.13.122-.121.15.051.152.177.219.256.346.39.626.846 1.166 1.31 1.73.152.186.255.496.476.625.026.014.114-.099.127-.104.188-.067-.036.118-.023.184a.83.83 0 0 0 .41.562c.082.047.217-.219.17-.041-.003.012-.126.103-.12.133.015.065.11.122.133.162.044.076.055.085.11.143.076.08.115.226.223.284.023.012.11-.122.156-.112.048.01.114.094.113.145 0 .051-.097.127-.112.151-.13.205.188.059.205.064.301.105.345.412.538.602.146.144.345.255.478.399l.021.023-1.2-.003c.167-.142.355-.22.5-.382.016-.017-.132-.128-.113-.15.207-.232.44-.433.747-.56.03-.013.114.13.152.123.227-.038.663-.021.254-.599.11-.07.241-.159.422-.138.116.013.187.188.2.07.003-.025-.123-.116-.11-.147.052-.13.188-.194.224-.34.007-.03-.094-.123-.106-.146-.096-.186.209-.022.242-.02.247.008.287-.13.404-.239.027-.025-.133-.126-.111-.155a1 1 0 0 1 .447-.339c.042-.015.126.123.151.122.112-.007-.083-.232.02-.243.022-.003.109.1.121.108.198.131-.002-.133.002-.147.044-.182.357-.008.433-.15.009-.018-.14-.11-.108-.152.213-.274.506-.496.845-.637.052-.023.114.095.128.104.211.138.005-.122.009-.143.035-.16.32-.051.11-.397.508-.307.765-.866 1.42-1.016.008-.002.112.123.128.118.189-.058-.012-.214-.145-.516-.034-.075.29.128.315.142.09.052.239.245.26.253.163.053-.405-.508-.33-.583.004-.001.097.114.113.118.053.013.031-.048.086-.031.127.04.414.302.324.073-.012-.029-.342-.34-.259-.391.034-.02.149-.144.203-.156s.133.115.14.117c.226.05.247.14.493.3.245.158-.243-.314-.278-.387-.034-.072.144-.023.199 0 .055.024.1.11.136.118.24.052-.194-.282-.238-.39-.103-.256.307.047.41.015.028-.009-.067-.076-.058-.1.037-.093.186-.02.16-.195-.005-.029-.157-.304.038-.183.028.017.1.122.147.115.072-.01.166-.065.181-.139.011-.054-.171-.165-.085-.16.039.003.09.123.155.12.065-.002.15-.093.18-.129s-.098-.13-.102-.14a.4.4 0 0 1-.009-.182c.273-.294.723-.365.94-.701.018-.026-.112-.13-.11-.135.026-.123.274.249.43.302-.243-.232-.17-.219-.142-.297.013-.038-.092-.117-.1-.129-.1-.178.105-.021.149.01.159.112.027-.077.134-.002.106.074.2.247.248.196-.07-.1-.327-.287-.324-.361.01-.28.454-.37.588-.466.135-.096.157-.149.255-.184.178-.064-.03-.187-.029-.337.002-.151.366.294.463.372.097.077.02-.025.081.01.06.035.09.124.14.11.049-.012-.018-.252-.098-.356-.167-.218-.406-.384-.253-.394.01 0 .1.123.128.116.227-.06.383-.203.6-.272.03-.01.13.127.149.123.196-.042-.045-.201-.199-.49.278.313.494.46.587.37.057-.052-.08-.173-.135-.3-.016-.038.11.013.057-.055-.173-.224-.43-.412-.247-.416.008 0 .102.123.123.116.136-.048-.058-.268.017-.392.06-.097.324-.107.434-.174.327.338.337.178.144-.087.068-.048.118-.122.205-.145.03-.008.113.101.126.11.199.127.003-.123.007-.144.052-.219.33-.157.296-.45 0-.011-.222-.252-.02-.116.013.01.074.158.144.106.069-.051.306-.04.285-.23-.005-.047-.138-.287.048-.18.026.015.085.088.13.117.142.093-.075-.156.151.014.227.17.437.258.387.036 0-.006-.164-.213-.134-.236.048-.038.147-.058.19-.104.022-.021-.106-.124-.104-.13.08-.206.284-.203.483-.31.037-.02-.037-.257.14-.186.195.078.691.708.697.436.002-.109-.635-.9-.168-.624.104-.284.472-.269.537-.593.003-.014-.167-.243-.144-.26.035-.026.145.052.173.036.12-.061.124-.224.225-.298.038-.028.122.08.167.047.045-.034-.054-.189.06-.18.088.007.386.23.47.207-.251-.261-.209-.292-.21-.426 0-.025-.101-.102-.106-.119-.02-.07.075-.018.049-.091-.006-.018-.093-.106-.103-.126-.088-.169.172-.034.217-.01.171.09.079-.045.162-.025.084.02.098.132.167.126.143-.013.231-.127.315-.202.034-.03-.104-.127-.102-.134.037-.095.227-.035.034-.306.641.562-.018-.098.196-.07.017.003.309.28.321.35.013.071-.119.024-.094.129.005.024.215.346.224.37.067.184-.362-.237-.388-.258-.284-.22-.066.135-.064.172.01.17-.116.175-.118.306-.002.085.27.37.227.395-.142.083-.566-.27-.34.175.048.095.372.38.053.219-.02-.01-.297-.172-.196.003.013.022.101.111.103.124.008.087-.088.042-.097.118s-.01.177-.089.194c-.047.01-.248-.12-.303-.146-.154-.079-.008.156-.172.037-.165-.119-.33-.384-.486-.412.226.235.454.479.68.716-.15.132-.364.194-.497.344-.016.02.124.127.11.15-.06.098-.218.078-.266.195-.037.09.022.292-.012.392-.302-.226-.314-.038-.41.009-.034.016-.102-.056-.142-.062-.153-.019.11.185.128.24.074.237-.455-.289-.536-.183-.005.005.212.35.221.375.06.168-.105-.09-.16-.078-.098.021-.207-.005-.198.149.004.045.127.271-.048.174-.023-.013-.112-.11-.121-.11-.168-.016.119.281.172.425s-.215.007-.286-.038c-.186-.116-.036-.092-.048-.11-.15-.2-.171-.12-.224-.097-.289-.283-.326-.213-.054.025.03.026.033-.03.054-.025.244.317.221.41-.104.21-.152-.095-.265-.268-.306-.124-.018.065.193.248.21.339.036.206-.256.129-.315.243-.021.042.117.12.106.153-.029.086-.16.054-.176.152-.002.01.123.11.106.13-.122.146-.312.19-.456.327-.07.066-.131.25-.215.306-.143.1-.458.083-.523.226-.044.093.083.192.13.299.09.206-.274.035-.329.006-.001 0 .031-.085-.058-.113-.137-.104.059.112.058.113-.035-.018-.178.072-.18.117-.001.024.112.125.11.136-.064.251-.195.433-.404.54-.005 0-.12-.125-.13-.122-.145.037-.06.243-.05.406s-.08.193-.328.03c-.032.082-.205.071-.307.062s.122.233.122.242c.015.277-.192.216-.348.328-.075.053-.169.212-.213.306-.035.075-.123.052-.139.137-.002.012.108.11.11.116.066.18-.158-.102-.215-.136-.205-.125-.318-.188-.314-.038 0 .034.313.45.304.502-.013.066-.127-.08-.137-.008-.001.006.08.087.05.108-.134.102-.31.181-.426.31-.016.018.132.126.111.154a.8.8 0 0 1-.4.294c-.043.012-.115-.096-.147-.117-.196-.126-.016.16-.02.174-.093.314-.46.253-.568.56-.005.016.156.355-.096.176-.017-.012-.274-.197-.159-.011.008.012.144.102.09.132s-.045.172-.226.102c-.057-.021-.318-.2-.199.03.009.015.317.497.016.25-.049-.04-.33-.337-.248-.124.016.042.102.085.11.157.01.112-.132.099-.066.29.012.033.16.276-.024.161-.029-.018-.113-.126-.143-.118-.144.038-.176.198-.335.222-.057.009-.194-.166-.27-.174s-.185.02-.15.127c.034.107.32.32.285.392-.15.318-.527.4-.783.608-.038.03.08.092.03.144-.183.192-.427.597-.778.567-.282-.024-.23-.303-.392-.267-.078.018.156.362.153.382-.022.206-.229.154-.293.295-.013.03.124.127.111.15-.041.082-.158.093-.208.16-.022.03.072.116.04.133-.073.042-.162.054-.302.025-.013-.002-.088-.15-.135-.11-.076.061-.245.063-.24.228.001.049.203.256.011.164-.04-.02-.269-.28-.119-.008.025.046.209.433-.023.295-.061-.037-.294-.207-.29-.147 0 .009.125.105.111.139-.048.118-.147.192-.2.311-.013.032.134.114.11.158-.066.121-.212.207-.34.261-.046.02-.116-.098-.129-.106-.205-.13-.005.12-.005.147-.005.16-.172.114-.22.217-.013.027.108.121.113.135.05.137-.109-.09-.157-.084-.136.014-.213.106-.276.196-.023.033.131.127.11.155a1.1 1.1 0 0 1-.513.386c-.041.014-.119-.1-.146-.116-.191-.116-.043.152-.037.185.03.152-.078.09-.116.158-.185.338-.566.6-.848.808l-.054.039-1.457 1.122-.895-1.13c-.253-.343-.412-.663-.726-.93-.02-.018-.128.13-.148.116-.247-.184-.411-.446-.665-.625-.02-.015-.115.132-.153.112a.33.33 0 0 1-.165-.218c-.01-.047.131-.113.119-.159a.38.38 0 0 0-.183-.236c-.038-.021-.116.147-.156.11-.275-.248-.554-.483-.66-.907-.007-.029.227-.297.14-.287-.072.067-.154.15-.23.223-.422-.34-.713-.802-1.084-1.196-.015-.017-.12.145-.15.113-.18-.182-.393-.32-.446-.636-.006-.031.237-.257.147-.275-.015-.003-.128-.052-.2-.022-.01.004-.104.129-.134.106a1.3 1.3 0 0 1-.39-.537c-.014-.036.128-.127.12-.153-.064-.185-.287-.23-.3-.455-.01-.15.22-.323.375-.563.022-.034-.023-.088.09-.206.281-.297.621-.592.919-.911.064-.069-.073-.063.126-.185.013-.008.114-.014.18-.057.046-.03.148-.162.213-.194.064-.032-.015.085.07.056.084-.03.205-.176.276-.137m14.369-2.13c-.155-.07.244.351.195.205a4 4 0 0 0-.195-.204m5.266-5.29c-.236-.127-.012.18.166.281.18.101-.094-.244-.166-.282m.467-.72c-.208-.078.356.52.312.33-.002-.01-.3-.325-.312-.33m-21.724 9.912c.005-.007-.025-.047-.031-.042-.149.111-.088.192.031.042M36.33 9.689c-.1-.059-.07.092.053.165.099.06.07-.092-.053-.165m-8.916 8.548c-.006-.005-.037.014-.003.049.112.11.117.044.003-.049m9.916-9.542c-.17.124-.736-.273-.52-.377.04-.019.088.217.169.224.146.012-.107-.336.123-.242.041.018.24.389.229.396zm-7.697 7.258c-.006-.004-.047.025-.042.032.11.15.191.09.042-.032m-3.96 3.49c-.013-.01-.106.06-.098.073.168.257.356.117.098-.073m6.045-6.127c-.091-.17-.06-.23.133-.095-.047.029-.087.065-.133.095"/></svg>