<svg xmlns="http://www.w3.org/2000/svg" width="40" height="40" fill="none" viewBox="0 0 40 40"><g transform="translate(-11.354, -14.168) scale(1.627239)"><path fill="#ffcb83" d="M27.463 31.175c-.142-.07-.244-.248-.297-.407-.017-.05.072-.105.064-.143-.017-.073-.094-.079-.105-.157-.003-.026.13-.123.124-.148-.034-.135-.143-.186-.204-.296-.3-.542-.672-.999-1.046-1.478-.123-.158-.19-.433-.38-.533-.023-.011-.114.1-.126.105-.178.077.043-.11.037-.17a.6.6 0 0 0-.326-.481c-.07-.037-.217.218-.159.051.004-.011.125-.105.122-.131-.008-.06-.09-.104-.108-.138-.033-.067-.042-.074-.088-.122-.062-.067-.085-.197-.179-.242-.02-.01-.11.12-.153.115s-.095-.076-.09-.123.1-.125.116-.148c.137-.198-.167-.039-.182-.042-.267-.072-.28-.35-.44-.508-.12-.12-.293-.205-.402-.326-.13-.144-.185-.32-.328-.442-.015-.013-.128.133-.147.117a1.44 1.44 0 0 1-.457-.63c-.01-.027.127-.117.125-.151-.018-.204.03-.604-.53-.176-.056-.095-.127-.206-.095-.373.02-.107.186-.189.08-.19-.023 0-.116.124-.143.116-.116-.037-.164-.155-.295-.174-.027-.004-.12.097-.141.11-.178.106-.005-.189-.001-.219.026-.227-.097-.25-.188-.348-.02-.022-.125.134-.15.117a.7.7 0 0 1-.277-.377c-.01-.037.122-.127.123-.15.002-.101-.22.098-.222.004 0-.019.1-.108.109-.12.135-.193-.122.014-.135.012-.163-.024.02-.326-.105-.382-.015-.006-.111.138-.146.113a1.47 1.47 0 0 1-.521-.713c-.017-.046.096-.114.105-.127.142-.206-.112.006-.13.005-.144-.017-.023-.287-.355-.064-.243-.436-.737-.617-.825-1.203-.001-.007.121-.114.118-.128-.038-.167-.197.031-.483.181-.072.038.14-.277.154-.301.054-.088.243-.242.25-.261.062-.155-.495.418-.558.355 0-.003.111-.099.117-.114.016-.05-.042-.024-.022-.076.046-.12.307-.407.092-.303-.028.014-.338.345-.379.274-.016-.03-.12-.123-.127-.171s.115-.133.118-.14c.062-.21.146-.239.311-.478.164-.239-.306.252-.375.29-.068.038-.01-.13.015-.182s.108-.101.119-.135c.065-.224-.274.203-.376.253-.242.12.066-.285.045-.376-.006-.025-.075.069-.096.063-.082-.025-.004-.168-.167-.128-.026.007-.29.172-.165-.018.018-.027.12-.103.117-.145-.005-.064-.047-.146-.113-.153-.05-.005-.165.173-.153.093.005-.035.118-.093.12-.152.004-.06-.073-.129-.103-.153-.031-.025-.127.101-.137.106a.35.35 0 0 1-.167.025c-.25-.222-.28-.627-.572-.794-.022-.014-.127.115-.132.114-.11-.012.249-.275.31-.422-.231.244-.214.175-.283.158-.034-.008-.114.095-.126.102-.17.109-.012-.093.02-.135.115-.157-.068-.019.009-.123.076-.104.241-.206.198-.246-.097.074-.288.327-.355.331-.256.017-.305-.38-.383-.495-.077-.114-.124-.129-.15-.215-.044-.157-.172.045-.31.058-.138.012.297-.363.376-.459.078-.096-.022-.016.015-.075s.12-.094.112-.138-.233.04-.334.123c-.212.173-.383.408-.38.268 0-.008.12-.102.115-.128-.037-.201-.157-.33-.203-.523-.007-.027.126-.13.124-.147-.024-.176-.188.06-.465.227.308-.283.459-.494.385-.572-.044-.046-.166.09-.286.152-.036.019.02-.102-.046-.047-.218.18-.41.432-.4.265.001-.007.12-.105.116-.123-.034-.12-.25.079-.358.021-.085-.045-.073-.287-.126-.381.333-.33.188-.324-.07-.123-.038-.058-.103-.096-.117-.174-.005-.027.101-.113.11-.125.132-.194-.112.008-.13.006-.198-.027-.12-.287-.392-.228-.01.002-.247.226-.107.03.01-.014.15-.084.108-.142-.042-.059-.013-.277-.19-.24-.042.01-.272.154-.16-.027.015-.024.086-.086.117-.129.096-.139-.15.083.024-.14.173-.223.27-.424.062-.358-.006.002-.207.17-.227.145-.03-.04-.042-.129-.08-.164-.018-.017-.122.109-.127.108-.183-.055-.165-.241-.248-.413-.015-.032-.238.058-.16-.111.086-.185.701-.698.453-.678-.1.008-.873.665-.585.212-.252-.068-.21-.406-.502-.435-.014-.002-.236.175-.25.155-.021-.03.058-.136.047-.16-.048-.104-.196-.093-.257-.178-.023-.033.083-.12.056-.158s-.177.067-.16-.039c.013-.08.239-.374.224-.448-.257.254-.283.218-.405.23-.024.004-.101.104-.117.11-.066.025-.011-.067-.08-.036-.017.007-.105.094-.123.105-.162.097-.018-.153.007-.197.095-.165-.035-.068-.011-.146s.129-.102.128-.165c0-.129-.099-.199-.16-.269-.026-.027-.125.107-.131.106-.085-.025-.016-.204-.278-.002.563-.64-.092.025-.05-.173.004-.016.28-.308.346-.326s.012.106.11.074c.023-.008.334-.23.356-.24.174-.078-.244.354-.265.38-.224.28.118.047.152.041.156-.025.152.09.272.08.078-.006.36-.28.379-.244.065.121-.29.542.134.294.09-.053.376-.376.205-.07-.011.02-.18.29-.012.18.02-.014.11-.103.122-.106.08-.015.031.077.1.078s.161-.007.171.063c.007.042-.128.238-.157.29-.083.15.143-.007.022.155-.122.162-.377.337-.415.482.232-.228.473-.46.708-.688.11.125.15.315.278.422.016.013.125-.126.145-.115.086.047.055.192.159.226.08.025.27-.048.358-.026-.23.297-.058.29-.023.374.013.029-.06.098-.067.136-.03.14.178-.118.23-.14.222-.09-.3.443-.209.507.005.004.336-.227.36-.237.159-.07-.09.105-.083.153.012.088-.02.19.121.167.042-.007.258-.14.156.028-.013.022-.108.113-.11.122-.027.155.267-.136.402-.198.136-.062-.01.196-.056.266-.12.18-.087.04-.103.054-.195.156-.123.167-.107.213-.281.291-.22.318.019.047.026-.03-.026-.027-.019-.046.309-.254.393-.241.184.075-.098.148-.265.268-.136.291.058.011.242-.2.326-.223.192-.052.099.222.2.265.036.015.119-.118.147-.111.077.018.038.14.127.147.008 0 .11-.123.126-.11.125.099.15.268.265.387.056.057.22.096.265.167.08.123.04.411.167.458.082.031.183-.094.284-.147.196-.103.011.247-.019.3-.001.002-.076-.02-.108.064-.106.135.107-.064.108-.064-.02.034.052.157.093.154.022-.001.123-.114.133-.113.226.034.383.137.464.319 0 .004-.123.12-.12.13.022.13.217.032.367.007.15-.024.17.055.002.298.074.021.05.18.035.275-.016.094.222-.134.23-.135.255-.04.184.156.275.288.042.063.181.134.264.166.066.025.039.107.116.114.01.001.108-.108.114-.11.17-.078-.106.153-.141.208-.13.2-.196.309-.06.291.032-.004.438-.329.484-.325.06.005-.083.124-.018.126.006 0 .086-.08.104-.056.082.113.142.267.252.36.014.014.125-.132.148-.115.11.079.208.187.24.339.007.037-.096.113-.118.145-.131.19.146 0 .157.002.28.056.197.396.47.466.015.004.338-.175.154.072-.012.017-.2.268-.022.146.011-.008.105-.14.128-.095s.154.026.077.198c-.024.054-.209.309.011.179.015-.01.48-.336.232-.039-.041.05-.334.334-.133.24.04-.02.085-.102.152-.116.104-.02.08.111.26.033.032-.014.265-.172.147.007-.019.028-.124.115-.12.142.025.128.168.142.178.286.004.05-.166.193-.18.263-.012.07.004.167.105.126s.318-.323.382-.298c.28.107.326.444.497.659.026.031.091-.081.135-.04.162.148.514.334.46.658-.043.26-.294.238-.273.383.01.07.342-.177.361-.176.187.001.124.195.248.24.026.01.126-.125.146-.116.072.031.073.137.13.176.027.017.113-.077.126-.05.032.064.037.144 0 .275-.003.012-.143.094-.112.134.05.064.04.218.191.198.045-.006.25-.21.152-.026-.021.038-.278.273-.017.11.044-.028.413-.231.269-.006-.038.059-.212.287-.157.28.008-.003.105-.125.136-.117.104.034.165.117.27.154.029.01.114-.133.153-.115.106.049.174.175.214.286.014.041-.1.116-.107.128-.134.2.11-.006.134-.008.146-.011.091.146.182.18.024.01.12-.11.132-.116.13-.058-.09.108-.089.152.003.123.082.184.159.234.028.018.127-.132.15-.115a.78.78 0 0 1 .315.433c.01.036-.1.117-.117.144-.12.186.136.025.167.016.141-.04.076.064.136.092.295.138.506.461.676.7.221.31.337.609.614.839.018.014.129-.13.146-.118.21.149.337.375.554.518.017.012.117-.13.149-.115.067.03.122.099.132.186.006.043-.13.114-.122.155a.27.27 0 0 0 .146.202c.033.016.12-.144.152-.114.23.206.465.398.525.777.004.026-.234.29-.154.275.072-.068.154-.15.23-.223.356.276.582.677.886 1.007.013.014.123-.142.149-.116.148.152.33.261.351.547.002.028-.24.254-.16.264.015.001.114.037.182.004.01-.005.107-.127.132-.108.143.11.25.267.31.46.01.031-.128.126-.123.15.042.164.242.188.235.392-.006.137-.231.313-.394.546-.023.033.013.078-.1.196-.284.295-.62.592-.921.909-.065.068.061.05-.132.18-.013.008-.106.021-.17.066-.044.031-.15.16-.211.195-.062.034.02-.08-.059-.046-.08.035-.204.178-.265.148M16.756 16.766c-.076.148.34-.256.202-.197-.007.003-.199.19-.202.197m-4.45-4.32c-.134.227.164-.006.27-.179s-.23.109-.27.178m-.624-.36c-.087.198.503-.375.326-.317-.01.004-.321.305-.326.317m17.42 17.335c-.005.006.02.04.026.036.145-.114.097-.184-.026-.036M11.051 11.74c-.062.097.079.056.155-.063.061-.097-.08-.056-.155.064m7.158 7.354c-.005.006.01.033.044-.002.11-.113.05-.11-.044.002m-7.994-8.175c.1.144-.305.698-.384.51-.015-.033.205-.1.217-.174.023-.135-.316.129-.212-.09.02-.04.374-.256.38-.247m6.07 6.36c-.005.005.019.04.025.035.146-.114.098-.183-.025-.036m2.897 3.294c-.01.013.047.092.06.083.248-.177.134-.336-.06-.083m-5.157-4.954c-.162.1-.216.077-.077-.113.023.04.054.073.077.113"/><path fill="#ffcb83" d="M8.825 28.463c.07-.142.248-.244.407-.297.05-.017.105.072.143.064.073-.017.079-.094.157-.105.026-.003.123.13.148.124.135-.034.185-.143.296-.204.542-.3.999-.672 1.478-1.046.158-.123.433-.19.533-.38.011-.023-.1-.114-.105-.126-.077-.178.11.043.17.037a.6.6 0 0 0 .481-.326c.037-.07-.218-.217-.051-.159.011.004.105.125.131.122.06-.008.104-.09.138-.108.067-.033.074-.042.122-.088.067-.062.197-.085.242-.179.01-.02-.12-.11-.115-.153s.076-.095.123-.09.125.1.148.116c.198.137.039-.167.042-.182.072-.267.35-.28.508-.44.12-.12.205-.293.326-.402.144-.13.32-.185.442-.328.013-.015-.133-.128-.117-.147a1.44 1.44 0 0 1 .63-.457c.027-.01.117.127.151.125.204-.018.604.03.176-.53.095-.056.206-.127.373-.095.107.02.189.186.19.08 0-.023-.124-.116-.116-.143.037-.116.155-.164.174-.295.004-.027-.097-.12-.11-.141-.106-.178.189-.005.219-.001.227.026.25-.097.348-.188.022-.02-.134-.125-.117-.15a.7.7 0 0 1 .377-.277c.037-.01.127.122.15.123.101.002-.098-.22-.004-.222.019 0 .108.1.12.109.193.135-.014-.122-.012-.135.024-.163.326.02.382-.105.006-.015-.138-.111-.113-.146.17-.236.416-.417.713-.521.046-.017.114.096.127.105.206.142-.006-.112-.005-.13.017-.144.287-.023.064-.355.436-.243.617-.737 1.203-.825.007-.001.114.121.128.118.167-.038-.031-.197-.181-.483-.038-.072.277.14.301.154.088.054.242.243.261.25.155.062-.418-.495-.355-.558.003 0 .099.111.114.117.05.016.024-.042.076-.022.12.046.407.307.303.092-.014-.028-.345-.338-.274-.379.03-.016.123-.12.171-.127s.133.115.14.118c.21.062.239.146.478.311.239.164-.252-.306-.29-.375-.038-.068.13-.01.182.015s.101.108.135.119c.224.065-.203-.274-.253-.376-.12-.242.285.066.376.045.025-.006-.069-.075-.063-.096.025-.082.168-.004.128-.167-.007-.026-.172-.29.018-.165.027.018.103.12.145.117.064-.005.146-.047.153-.113.005-.05-.173-.165-.093-.153.035.005.093.118.152.12.06.004.129-.073.153-.103.025-.031-.101-.127-.106-.137a.35.35 0 0 1-.025-.167c.222-.25.627-.28.794-.572.014-.022-.115-.127-.114-.132.012-.11.275.249.422.31-.244-.231-.175-.214-.158-.283.008-.034-.095-.114-.102-.126-.109-.17.093-.012.135.02.157.115.019-.068.123.009.104.076.206.241.246.198-.074-.097-.327-.288-.331-.355-.017-.256.38-.305.495-.383.114-.077.129-.124.215-.15.157-.044-.045-.172-.058-.31-.012-.139.363.297.459.375s.016-.02.075.016.094.12.138.112-.04-.233-.123-.334c-.173-.212-.408-.383-.268-.38.008 0 .102.12.128.115.201-.037.33-.157.523-.204.027-.006.13.127.147.125.176-.024-.06-.188-.227-.465.283.308.494.459.572.385.046-.044-.09-.166-.152-.286-.019-.036.102.02.047-.046-.18-.218-.432-.41-.265-.4.007.001.105.12.123.116.12-.034-.079-.25-.021-.358.045-.085.287-.073.381-.126.33.333.324.188.123-.07.058-.038.096-.103.174-.117.027-.005.113.101.125.11.194.132-.008-.112-.007-.13.027-.198.288-.12.23-.392-.003-.01-.227-.247-.03-.107.013.01.083.15.141.108s.277-.013.24-.19c-.01-.042-.154-.272.027-.16.024.015.086.086.129.117.139.096-.083-.15.14.024.224.173.424.27.358.062-.002-.006-.17-.207-.145-.227.04-.03.128-.042.164-.08.017-.018-.109-.122-.108-.127.054-.183.241-.165.413-.248.032-.015-.058-.238.111-.16.185.086.698.701.678.453-.008-.1-.665-.873-.212-.585.068-.252.406-.21.435-.502.002-.014-.175-.236-.155-.25.03-.021.136.058.16.047.104-.048.093-.196.178-.257.033-.023.12.083.158.056s-.067-.177.039-.16c.08.013.374.239.448.224-.254-.257-.218-.283-.23-.405-.003-.024-.104-.101-.11-.117-.026-.066.067-.011.036-.08-.007-.017-.094-.105-.105-.123-.097-.162.154-.018.197.007.165.095.068-.035.146-.011s.102.129.165.128c.129 0 .199-.099.269-.16.027-.026-.107-.125-.106-.131.025-.085.204-.016.002-.278.64.563-.025-.092.173-.05.016.004.308.28.326.346s-.106.012-.074.11c.008.023.23.334.24.356.078.174-.354-.244-.38-.265-.28-.224-.047.118-.041.152.025.156-.09.152-.08.272.006.078.28.36.244.379-.121.065-.542-.29-.294.134.053.09.376.376.07.205-.02-.011-.29-.18-.18-.012.014.02.103.11.106.122.015.08-.077.031-.078.1s.007.161-.063.171c-.042.007-.238-.128-.29-.157-.15-.083.007.143-.155.022-.162-.122-.337-.377-.482-.415.228.232.46.473.688.708-.125.11-.315.15-.422.278-.013.016.125.125.115.145-.047.086-.192.055-.226.159-.025.08.048.27.026.358-.297-.23-.29-.058-.374-.023-.029.013-.098-.06-.136-.067-.14-.03.118.178.14.23.09.222-.443-.3-.507-.209-.004.005.227.336.237.36.07.159-.105-.09-.153-.083-.088.012-.19-.02-.167.121.007.042.14.258-.028.156-.022-.013-.113-.108-.122-.11-.155-.027.136.267.198.402.062.136-.196-.01-.266-.056-.18-.12-.04-.087-.054-.103-.156-.195-.167-.123-.213-.107-.291-.281-.318-.22-.047.019.03.026.027-.026.047-.019.253.309.24.393-.076.184-.148-.098-.268-.265-.291-.136-.011.058.2.242.222.326.053.192-.22.099-.264.2-.015.036.118.119.111.147-.018.077-.14.038-.146.127 0 .008.122.11.11.126-.1.125-.27.15-.388.265-.058.056-.096.22-.167.265-.123.08-.411.04-.458.167-.031.082.094.183.147.284.102.196-.247.011-.3-.019-.002-.001.02-.076-.063-.108-.136-.106.063.107.063.108-.034-.02-.157.052-.154.093.001.022.114.123.113.133-.034.226-.137.383-.319.464-.004 0-.12-.123-.13-.12-.13.022-.032.217-.007.367.024.15-.055.17-.298.002-.021.074-.18.05-.275.035-.094-.016.134.222.135.23.04.255-.156.184-.288.275-.063.042-.134.181-.166.264-.025.066-.107.039-.114.116-.001.01.108.108.11.114.078.17-.153-.106-.208-.141-.2-.13-.309-.196-.291-.06.004.032.329.438.325.484-.005.06-.124-.083-.126-.018 0 .006.08.086.056.104-.113.082-.267.142-.36.252-.014.014.132.125.115.148a.56.56 0 0 1-.339.24c-.037.007-.113-.096-.145-.118-.19-.131 0 .146-.002.157-.056.28-.396.197-.466.47-.004.015.175.338-.072.154-.017-.012-.268-.2-.146-.022.008.011.14.105.095.128s-.026.154-.198.077c-.054-.024-.309-.209-.179.011.01.015.336.48.039.232-.05-.041-.334-.334-.24-.133.02.04.102.085.116.152.02.104-.111.08-.033.26.014.032.172.265-.007.147-.028-.019-.115-.124-.142-.12-.128.025-.142.168-.286.178-.05.004-.193-.166-.263-.18-.07-.012-.167.004-.126.105s.323.318.298.382c-.107.28-.444.326-.659.497-.031.026.081.091.04.135-.148.162-.334.514-.658.46-.26-.043-.238-.294-.383-.273-.07.01.177.342.176.361-.001.187-.195.124-.24.248-.01.026.125.126.116.146-.031.072-.137.073-.176.13-.017.027.077.113.05.126-.064.032-.144.037-.275 0-.012-.003-.094-.143-.134-.112-.064.05-.218.04-.198.191.006.045.21.25.026.152-.038-.021-.273-.278-.11-.017.028.044.231.413.006.269-.059-.038-.287-.212-.28-.157.003.008.125.105.117.136-.034.104-.117.165-.154.27-.01.029.133.114.115.153-.049.106-.175.174-.286.214-.041.014-.116-.1-.128-.107-.2-.134.006.11.008.134.011.146-.146.091-.18.182-.01.024.11.12.116.132.058.13-.108-.09-.152-.089-.123.003-.184.082-.234.159-.018.028.132.127.115.15a.78.78 0 0 1-.433.315c-.036.01-.117-.1-.144-.117-.186-.12-.025.136-.016.167.04.141-.064.076-.092.136-.138.295-.461.506-.7.676-.31.221-.609.337-.839.614-.014.018.13.129.118.146-.149.21-.375.337-.518.554-.012.017.13.117.115.149a.23.23 0 0 1-.186.132c-.043.006-.115-.13-.155-.122a.27.27 0 0 0-.202.146c-.016.033.144.12.114.152-.206.23-.398.465-.777.525-.026.004-.29-.234-.275-.154.068.072.15.154.223.23-.276.356-.676.582-1.007.886-.014.013.142.123.116.149-.152.148-.261.33-.547.351-.028.002-.254-.24-.263-.16-.002.015-.038.114-.005.182.005.01.127.107.108.132a.9.9 0 0 1-.46.31c-.031.01-.126-.128-.15-.123-.164.042-.188.242-.392.235-.137-.006-.313-.231-.546-.394-.033-.023-.078.013-.196-.1-.295-.284-.592-.62-.909-.921-.068-.065-.05.061-.18-.132-.008-.013-.021-.106-.066-.17-.031-.044-.16-.15-.195-.211-.034-.062.08.02.046-.059-.035-.08-.178-.204-.148-.265m14.409-10.707c-.148-.076.256.34.197.202a5 5 0 0 0-.197-.202m4.32-4.45c-.227-.134.006.164.179.27s-.109-.23-.178-.27m.36-.624c-.198-.087.375.503.317.326a7 7 0 0 0-.317-.326M10.58 30.102c-.006-.005-.04.02-.036.026.114.145.184.097.036-.026m17.68-18.051c-.097-.062-.056.079.064.155.096.061.055-.08-.065-.155m-7.353 7.158c-.007-.005-.034.01.001.044.113.11.11.05-.002-.044m8.174-7.994c-.144.1-.698-.305-.51-.384.033-.015.1.205.174.217.135.023-.129-.316.09-.212.04.02.256.374.247.38m-6.36 6.07c-.005-.005-.04.019-.035.025.114.146.183.098.036-.025m-3.294 2.897c-.013-.01-.092.047-.083.06.177.248.336.134.083-.06m4.954-5.157c-.1-.162-.076-.216.113-.077-.04.023-.073.054-.113.077"/></g></svg>