<svg xmlns="http://www.w3.org/2000/svg" width="40" height="40" fill="none" viewBox="0 0 40 40"><path fill="#3784ff" d="M5.637 32.58c.084-.21.293-.418.48-.556.058-.044.122.043.166.016.086-.054.094-.154.185-.203.031-.015.143.108.172.09.16-.103.22-.263.349-.39.638-.62 1.177-1.291 1.741-1.976.186-.226.51-.434.628-.718.014-.033-.116-.097-.121-.11-.089-.188.128.004.199-.03.279-.137.462-.379.566-.625.043-.105-.253-.175-.059-.177.014 0 .122.11.153.094.07-.036.122-.16.162-.197.079-.071.087-.086.144-.166.08-.108.232-.195.286-.333.01-.03-.14-.085-.134-.14s.09-.154.145-.169.145.07.172.08c.231.082.047-.227.051-.248.087-.367.411-.508.598-.78.142-.205.244-.46.386-.651.17-.227.377-.376.521-.611.016-.025-.154-.1-.135-.131.197-.322.427-.619.742-.857.032-.024.136.107.176.089.24-.115.707-.234.21-.744q.036-.037.075-.074l.525-.94.876.885c.063.118.12.253.103.409-.013.127-.204.17-.076.208.028.009.127-.113.16-.093.143.087.213.252.373.323.033.014.134-.08.159-.088.202-.068.025.238.024.275-.007.274.144.348.263.501.027.036.137-.122.168-.092.163.158.298.349.373.571.017.05-.133.114-.132.143.01.126.254-.043.266.074.003.024-.108.1-.117.112-.142.193.145.026.16.033.2.088.012.4.168.515.019.013.119-.133.164-.089.301.296.545.67.702 1.077.025.064-.103.108-.113.122-.149.206.134.031.157.04.174.072.058.367.433.207.176.326.424.592.647.878l-1.034.035c.202-.271.427-.525.76-.702.008-.005.131.102.147.092.198-.121-.032-.234-.202-.527-.043-.074.324.053.352.061.102.03.278.199.3.2.181.01-.48-.438-.404-.545.003-.002.113.097.131.096.057-.001.03-.062.09-.06.14.005.472.208.354-.018-.015-.029-.398-.272-.313-.355.034-.032.146-.204.203-.234s.154.086.161.087c.247-.015.279.08.557.181.277.101-.29-.274-.333-.343-.044-.07.152-.07.213-.061s.117.091.157.09c.262-.017-.234-.255-.29-.361-.135-.252.334-.042.441-.109.03-.018-.08-.063-.072-.092.031-.115.198-.079.154-.265-.007-.03-.195-.29.025-.215.031.01.118.105.169.082.075-.033.171-.122.181-.208.007-.064-.199-.131-.105-.152.041-.009.106.109.176.086s.153-.15.182-.198c.03-.05-.116-.115-.122-.124a.4.4 0 0 1-.026-.2c.267-.41.744-.625.947-1.064.016-.035-.133-.11-.132-.116.017-.145.318.192.49.204-.281-.184-.201-.192-.18-.286.011-.046-.109-.102-.117-.113-.124-.167.11-.056.16-.035.18.076.022-.093.144-.043.12.05.236.214.284.142-.084-.09-.378-.218-.381-.301-.014-.314.454-.549.59-.696.135-.148.154-.213.257-.282.185-.126-.05-.198-.062-.365-.012-.168.42.214.531.27s.02-.033.088-.013.108.11.16.08-.043-.275-.137-.365c-.2-.19-.471-.302-.307-.36.01-.003.117.106.148.09.238-.136.393-.343.62-.486.031-.02.15.103.17.092.207-.106-.066-.21-.257-.483.326.262.571.359.664.232.055-.076-.103-.168-.173-.292-.02-.038.12-.02.057-.08-.206-.194-.499-.324-.303-.384.009-.002.12.105.143.09.14-.094-.088-.279-.018-.44.055-.125.339-.216.451-.324.382.274.377.094.147-.141.068-.073.115-.171.207-.224.031-.018.13.079.144.084.225.08-.007-.136-.005-.161.036-.259.34-.275.278-.59-.003-.012-.262-.211-.033-.122.016.007.095.152.164.074.07-.079.326-.138.286-.343-.01-.05-.174-.275.036-.214.028.009.099.071.15.09.16.06-.095-.15.163-.03.26.119.493.152.42-.079-.002-.007-.196-.186-.166-.221.048-.056.152-.11.195-.173.02-.03-.125-.105-.124-.112.068-.253.287-.313.49-.492.038-.032-.062-.274.135-.249.216.027.805.574.787.271-.007-.121-.763-.804-.236-.641.085-.346.482-.442.523-.82.002-.018-.201-.22-.178-.246.035-.039.16.014.188-.012.123-.104.114-.286.215-.4.038-.042.138.053.184.002.045-.052-.075-.193.05-.218.094-.019.434.136.522.085-.293-.212-.25-.26-.263-.407-.003-.028-.12-.082-.126-.1-.029-.071.08-.042.044-.116-.008-.017-.109-.09-.121-.108-.11-.16.181-.09.232-.077.192.047.08-.074.172-.078s.117.117.19.09c.153-.059.237-.212.32-.32.034-.045-.123-.11-.121-.118.031-.117.24-.109.009-.35.739.427-.028-.103.204-.137.019-.003.356.216.376.29.02.075-.125.063-.09.171.009.026.263.319.274.342.09.184-.41-.152-.44-.167-.324-.158-.058.169-.052.21.026.184-.11.23-.1.375.006.095.323.328.28.369-.145.135-.633-.127-.35.297.06.09.435.308.077.227-.022-.005-.335-.1-.21.063.016.02.118.092.121.107.017.094-.09.072-.093.16-.003.086.005.199-.078.242-.05.026-.277-.056-.338-.07-.174-.04.005.176-.182.095-.188-.082-.389-.325-.559-.31.264.192.531.393.795.588-.15.191-.374.325-.503.533-.016.026.145.101.132.132-.056.128-.227.153-.269.297-.031.112.05.318.023.438-.345-.158-.34.054-.44.136-.034.028-.114-.032-.158-.026-.165.026.135.172.16.228.1.24-.515-.182-.593-.04-.004.008.26.322.272.348.079.168-.122-.067-.179-.037-.104.054-.223.058-.199.225.008.05.16.262-.036.208-.026-.007-.13-.087-.14-.085-.182.034.153.276.223.418.07.143-.23.074-.311.046-.21-.072-.046-.091-.062-.106-.18-.176-.194-.081-.249-.04-.335-.226-.368-.138-.055.043.034.02.033-.043.055-.043.291.276.275.387-.092.264-.172-.058-.31-.216-.34-.044-.014.078.23.216.255.312.058.218-.262.22-.315.366-.02.052.136.098.127.137-.023.104-.166.108-.175.222 0 .01.142.085.126.111-.119.2-.319.306-.461.502-.069.095-.118.317-.203.405-.145.155-.484.232-.542.41-.038.117.107.188.167.292.116.201-.291.123-.352.108-.002 0 .025-.105-.073-.108-.157-.073.073.106.073.108-.04-.01-.186.133-.184.184.001.027.132.105.13.117-.045.298-.17.54-.385.722-.005.002-.139-.101-.15-.095-.152.086-.042.288-.017.465s-.068.238-.35.133c-.027.101-.213.142-.323.164-.111.02.151.22.152.23.042.302-.186.299-.344.47-.075.081-.162.287-.201.405-.031.093-.127.095-.136.194-.002.014.125.089.127.095.088.18-.178-.065-.242-.086-.232-.075-.36-.11-.341.054.004.038.377.404.372.464-.008.077-.144-.05-.149.033 0 .007.094.072.064.105-.135.153-.317.295-.43.474-.015.024.154.099.134.136a1.17 1.17 0 0 1-.404.449c-.045.026-.131-.072-.168-.085-.222-.08-.003.183-.006.198-.072.377-.47.421-.56.794-.003.02.2.347-.086.225-.02-.008-.312-.134-.172.036.01.011.164.07.11.12-.055.048-.035.204-.235.182-.063-.007-.36-.126-.21.093.01.015.384.455.04.273-.057-.03-.386-.273-.279-.061.021.04.118.062.132.14.022.12-.133.15-.044.34.015.034.197.258-.011.187-.033-.01-.133-.105-.165-.087-.15.086-.171.273-.34.348-.06.027-.223-.124-.305-.11-.083.014-.198.078-.15.186.046.109.372.257.341.349-.07.21-.213.366-.371.513l-1.593 1.845-1.167-1.752c-.088-.171-.166-.35-.274-.506-.034-.05-.1.068-.158.002-.21-.244-.654-.602-.624-.988.025-.309.33-.193.289-.38-.02-.091-.394.098-.416.09-.225-.069-.17-.288-.324-.39-.032-.02-.138.112-.164.093-.088-.063-.101-.196-.175-.265-.034-.031-.127.055-.145.017a.5.5 0 0 1-.03-.343c.003-.014.163-.067.12-.128-.068-.098-.07-.287-.25-.316-.054-.009-.28.172-.18-.021.02-.041.305-.242.008-.132-.05.018-.471.142-.322-.088.04-.06.224-.284.158-.294-.01 0-.113.118-.15.096-.13-.078-.212-.205-.342-.288-.035-.022-.123.125-.171.089-.133-.099-.228-.28-.288-.434-.022-.057.106-.11.115-.122.14-.202-.132-.032-.16-.037-.175-.039-.127-.216-.239-.29-.03-.021-.132.094-.147.097-.149.026.097-.103.091-.158-.016-.152-.114-.256-.21-.344l2.624-.103-.003.007c-.022.044.154.1.133.138a1.6 1.6 0 0 1-.51.59c-.042.028-.137-.074-.168-.083-.216-.068-.03.182-.02.217.046.158-.075.123-.109.212-.164.432-.545.842-.826 1.162-.366.418-.716.697-.988 1.148-.018.03.15.104.137.13-.176.33-.443.592-.613.928-.014.027.152.088.134.136a.48.48 0 0 1-.22.25c-.05.026-.132-.113-.18-.085a.55.55 0 0 0-.238.274c-.019.049.168.085.132.14-.242.381-.47.762-.915 1.008-.03.017-.338-.163-.32-.07.078.06.174.127.26.188-.328.572-.799 1.036-1.19 1.566-.015.023.167.09.135.134-.179.254-.308.532-.643.687-.033.015-.296-.186-.307-.081-.002.018-.046.158-.007.23.006.01.147.076.125.116-.13.229-.315.435-.542.596-.037.026-.146-.104-.174-.087-.193.126-.222.388-.461.47-.16.056-.366-.148-.637-.248-.038-.014-.092.052-.228-.037-.343-.224-.688-.513-1.057-.748-.08-.05-.06.1-.209-.084-.01-.012-.025-.123-.077-.183-.036-.042-.186-.116-.226-.178-.04-.063.092-.01.054-.094-.04-.086-.207-.176-.171-.266m17.434-9.6c-.173-.03.294.314.228.167a3 3 0 0 0-.228-.167m5.179-7.475c-.265-.068.003.204.204.262.2.057-.123-.242-.204-.262m.436-.94c-.23-.022.43.467.365.27a5 5 0 0 0-.365-.27M7.677 33.848c-.007-.003-.048.043-.042.048.133.132.214.04.042-.048m21.428-20.225c-.112-.035-.067.123.072.167.111.035.066-.124-.072-.167m-8.804 12.2c-.008-.005-.04.026.001.054.13.088.129.013-.001-.055m9.789-13.608c-.172.189-.815-.078-.593-.259.04-.033.114.213.201.197.159-.031-.145-.34.11-.306.047.007.293.358.282.369zm-7.612 10.398c-.007-.003-.048.042-.043.047.132.133.214.043.043-.047m-3.939 5.078c-.015-.007-.108.098-.098.11.203.234.392.021.099-.11m5.94-8.639c-.113-.16-.086-.237.134-.146-.047.046-.087.1-.134.146"/><path fill="#3784ff" d="M21.504 11.995c.088-.088.247-.09.38-.06.04.008.06.11.09.121.06.02.083-.042.145-.015.02.01.06.17.08.176.11.035.175-.034.272-.034.483 0 .919-.099 1.372-.191.15-.03.372.043.495-.072.014-.014-.046-.144-.047-.156-.013-.187.072.088.118.112.185.092.336.049.443-.05.045-.043-.11-.288.001-.16.008.01.048.156.068.166.046.021.1-.028.13-.027.059.004.066 0 .114-.017.066-.02.17.02.227-.038.012-.013-.063-.15-.049-.184.015-.034.082-.045.116-.019s.068.144.082.169c.114.21.07-.124.077-.135.12-.193.332-.073.49-.134.12-.046.228-.153.346-.188.14-.042.286-.007.414-.07.014-.007-.067-.172-.051-.18a.86.86 0 0 1 .587-.092c.023.005.056.164.082.178.158.081.446.311.265-.368.085-.002.186-.01.303.096.076.068.096.248.123.158.006-.02-.064-.158-.05-.177.056-.081.156-.066.203-.168.01-.022-.043-.148-.047-.173-.035-.201.143.085.165.103.164.13.212.036.308.004.022-.007-.07-.17-.05-.183a.42.42 0 0 1 .352-.056c.03.008.064.163.082.175.075.049-.019-.233.052-.19.014.008.056.135.063.149.111.205.02-.111.025-.12.058-.129.24.17.313.09.008-.01-.076-.16-.048-.178a.88.88 0 0 1 .665-.106c.038.008.061.136.069.15.119.218.023-.098.029-.114.048-.114.221.117.137-.271.31-.001.54-.216.856-.197l.629-.377.162.928a.7.7 0 0 1-.15.212c-.004.005-.166-.005-.174.005-.092.109.16.09.469.164.077.02-.296.072-.323.077-.101.017-.342-.003-.362.003-.153.049.645.046.645.113-.001.002-.148-.007-.163-.002-.046.017.013.035-.038.052-.117.038-.506.05-.28.111.029.008.482 0 .46.06-.009.023-.002.129-.031.158-.03.03-.176.008-.182.01-.194.08-.273.048-.56.086-.284.038.395.032.47.049.076.017-.084.074-.14.088-.055.014-.147-.005-.179.008-.205.083.337.04.445.068.254.068-.25.116-.3.176-.013.016.102.003.113.018.04.058-.117.091.026.158.024.01.326.066.104.098-.032.005-.158-.01-.186.014-.042.037-.07.103-.029.142.031.03.238-.002.174.034-.029.016-.15-.015-.194.015s-.039.108-.035.138.161.014.172.017c.06.014.135.072.135.076.018.253-.248.484-.163.73.007.02.172.008.175.01.069.067-.37.012-.518.058.336-.005.275.022.311.069.018.022.148.01.161.013.198.035-.058.056-.11.062-.192.02.035.046-.094.06-.127.014-.316-.022-.313.023.12.013.434-.018.485.017.191.129-.057.365-.083.468-.026.102-.004.136-.048.195-.08.107.154.07.26.137.106.068-.467.032-.59.04s.003.02-.065.032c-.067.01-.15-.015-.177.012-.025.028.194.105.322.116.273.022.56-.01.459.063-.006.004-.157-.01-.172.005-.117.127-.125.26-.229.388-.014.017-.182 0-.192.01-.108.106.175.07.489.13-.418-.015-.674.015-.677.096-.002.049.18.042.309.074.039.01-.087.043-.001.05.28.023.595-.008.469.075-.006.003-.16-.01-.169.003-.061.082.232.094.267.182.027.07-.152.191-.182.27-.47-.005-.363.07-.039.103-.014.051.004.106-.04.156-.016.016-.152.004-.167.006-.23.032.084.056.097.067.119.12-.12.217.112.333.009.004.335.013.096.041-.016.002-.164-.036-.176.017-.012.054-.188.154-.037.23.036.018.3.066.094.1-.029.006-.122 0-.174.006-.166.022.163.037-.117.062-.28.024-.49.079-.298.155.006.003.267.022.263.046-.007.038-.062.091-.06.13 0 .02.162.008.165.012.09.127-.055.217-.119.352-.012.025.21.098.034.145-.192.052-.989-.008-.8.116.076.05 1.087.118.562.203.129.172-.14.329.044.502.008.008.29.034.286.052-.006.027-.138.041-.147.06-.04.08.072.155.054.233-.007.03-.143.018-.15.053-.009.035.17.06.084.107-.067.036-.434.07-.477.117.362.004.354.037.45.096.018.011.144 0 .16.006.064.022-.04.041.03.062.017.005.14.006.162.01.182.036-.097.092-.146.101-.184.037-.023.055-.096.084-.072.028-.163-.016-.207.018-.091.069-.072.158-.078.23-.002.027.164.01.167.013.042.06-.134.117.194.152-.85.034.083.035-.088.118-.014.006-.416.012-.475-.014-.059-.025.067-.063-.025-.098-.021-.009-.398-.06-.42-.066-.179-.052.422-.055.455-.057.357-.028-.049-.09-.077-.105-.128-.07-.043-.13-.134-.189-.06-.039-.453-.045-.44-.075.04-.1.59-.13.114-.228-.102-.021-.532-.004-.193-.074.021-.004.331-.056.136-.088-.025-.004-.15-.005-.161-.01-.068-.035.032-.058-.016-.096-.047-.037-.118-.083-.075-.125.025-.026.26-.058.317-.07.165-.034-.105-.073.094-.093.2-.02.505.024.635-.032-.326-.004-.66-.012-.988-.017.013-.125.119-.248.105-.374-.002-.016-.177 0-.184-.018-.027-.07.098-.131.05-.204-.04-.057-.225-.12-.27-.18.372-.034.246-.122.28-.186.013-.022.112-.02.145-.036.12-.059-.21-.033-.261-.05-.22-.072.525-.073.507-.156 0-.005-.398-.061-.422-.069-.162-.048.138-.007.168-.036.053-.053.149-.09.033-.154-.035-.019-.282-.065-.09-.1.025-.004.156 0 .164-.004.129-.068-.284-.072-.424-.112s.146-.1.228-.11c.213-.032.091.024.112.026.248.023.205-.022.227-.056.404-.002.38-.049.02-.034-.04.001-.002.028-.02.034-.397-.032-.448-.084-.076-.139.174-.025.376.001.303-.08-.034-.038-.312-.025-.388-.059-.173-.075.088-.17.047-.247-.014-.028-.167-.002-.182-.021-.041-.051.073-.095.015-.146-.005-.005-.165.005-.167-.01-.018-.12.085-.224.089-.349.002-.06-.086-.169-.068-.231.03-.108.264-.24.208-.333-.036-.06-.195-.049-.304-.075-.21-.052.168-.138.227-.15.001 0 .039.053.12.026.172-.015-.12-.024-.12-.025.037-.008.074-.111.044-.132-.017-.011-.168-.006-.174-.012-.134-.14-.172-.28-.1-.42.003-.002.172.003.177-.003.076-.08-.13-.135-.253-.203-.122-.068-.081-.12.21-.159-.036-.05.093-.122.17-.164.079-.041-.25-.05-.257-.053-.208-.116-.018-.181.012-.3.014-.057-.032-.17-.068-.231-.029-.05.049-.078 0-.123-.007-.006-.154 0-.16-.003-.175-.05.184-.024.248-.034.233-.036.357-.058.248-.123-.025-.015-.54-.061-.57-.088-.039-.036.146-.021.101-.058-.003-.003-.117-.003-.112-.026.022-.104.09-.218.079-.327-.001-.015-.182.003-.187-.019a.34.34 0 0 1 .072-.309c.022-.024.149-.008.186-.013.228-.03-.102-.078-.109-.086-.157-.18.143-.316.002-.5-.009-.01-.363-.09-.058-.122.02-.002.331-.034.119-.066-.014-.001-.174.019-.157-.018s-.09-.097.086-.146c.056-.016.367-.052.12-.101-.018-.004-.577-.081-.19-.105.063-.004.471.003.262-.055-.04-.011-.132.008-.188-.021-.088-.045.022-.103-.16-.158-.032-.01-.309-.052-.098-.083.033-.004.17.006.185-.01.073-.081-.017-.167.078-.248.033-.03.254-.013.313-.043.06-.03.116-.09.016-.123-.1-.032-.453 0-.48-.048l-.01-.018 2.37 1.65c-.153.164-.408.052-.606.096-.03.006.038.115-.003.133-.153.068-.38.28-.61.08-.184-.159-.105-.363-.218-.413-.055-.024.046.375.041.39-.048.159-.177.014-.242.098-.014.017.062.166.05.179-.04.046-.12-.003-.164.028-.02.014.029.131.005.13-.055-.003-.117-.037-.206-.13-.008-.008-.034-.166-.072-.158-.06.013-.173-.07-.197.068-.007.042.095.313-.018.142-.024-.036-.135-.365-.078-.066.01.05.07.46-.063.231-.035-.06-.163-.316-.17-.265-.001.008.066.148.052.17-.05.073-.129.085-.183.157-.014.02.071.16.048.184-.063.067-.174.066-.268.047-.034-.007-.062-.139-.07-.151-.115-.208-.022.096-.026.118-.029.13-.133.009-.181.07-.014.016.052.153.053.167.012.137-.058-.128-.091-.147-.093-.056-.159-.018-.215.024-.021.015.067.17.048.182a.47.47 0 0 1-.404.063c-.03-.008-.063-.14-.078-.168-.11-.19-.053.105-.054.135-.005.14-.067.034-.103.072-.178.186-.473.213-.695.244-.288.042-.54 0-.783.127-.015.008.065.17.052.18-.164.108-.366.109-.528.225-.013.01.069.161.05.181-.04.043-.105.058-.174.025-.033-.015-.052-.164-.085-.177q-.115-.044-.188.028c-.02.02.078.17.047.184-.211.099-.415.208-.714.079-.02-.009-.16-.336-.168-.26.033.093.074.201.11.3-.297.173-.654.176-.978.278-.014.005.076.172.05.181-.151.055-.279.158-.498.041-.022-.011-.13-.324-.158-.26-.005.012-.057.079-.049.152.002.011.069.151.048.164a.55.55 0 0 1-.423.046c-.026-.007-.062-.169-.081-.175-.134-.043-.202.117-.353.014-.101-.07-.178-.344-.312-.593-.018-.035-.062-.026-.121-.177-.15-.381-.289-.808-.451-1.213-.035-.088-.054.028-.102-.197-.003-.015.01-.1-.008-.177-.012-.052-.083-.202-.093-.271-.01-.07.054.055.049-.029-.006-.084-.082-.257-.044-.295m9.28 1.731c.159-.038-.42-.047-.282-.005.007.003.275.007.283.005m.06 4.693c.256-.05-.12-.087-.317-.052-.198.034.24.066.317.052m.183.527c.202-.058-.62-.073-.454-.009.01.004.442.012.454.009m-8.618-4.728c-.004-.007-.035-.003-.034.004.05.178.114.17.034-.004m8.818 5.25c.111-.017-.017-.071-.155-.05-.112.019.016.073.155.05m.19-7.76c.008-.001.016-.024-.033-.024-.157 0-.113.033.033.023m-.187 8.647c.032-.13.711-.205.634-.063-.014.026-.216-.057-.278-.025-.112.06.314.102.085.162-.041.011-.444-.066-.442-.074zm.25-6.647c.008 0 .016-.031.008-.032-.184-.018-.199.044-.007.032m.304-3.31c.016-.002.032-.074.017-.076-.3-.04-.333.106-.017.076m.107 5.41c.184.035.206.075-.027.1.013-.033.015-.067.026-.1"/></svg>