<svg xmlns="http://www.w3.org/2000/svg" width="40" height="40" fill="none" viewBox="0 0 40 40"><path fill="#3784ff" d="M4.312 19.152c.126-.197.376-.371.59-.48.066-.034.113.064.163.044.096-.04.124-.14.225-.173.034-.01.121.132.154.118.18-.077.271-.228.426-.334.76-.52 1.433-1.105 2.134-1.7.23-.197.595-.353.77-.62.02-.03-.096-.116-.1-.13-.05-.203.128.026.205.003.306-.093.537-.305.69-.535.065-.099-.218-.218-.023-.187.013.002.1.13.134.119.076-.025.153-.14.201-.172.093-.059.104-.072.177-.143.1-.095.27-.158.351-.288.017-.027-.122-.108-.105-.162s.121-.14.179-.146.13.094.156.108c.214.12.092-.22.1-.24.16-.355.512-.444.753-.685.183-.184.335-.424.515-.592.216-.2.451-.317.643-.529.02-.022-.134-.126-.11-.154.262-.291.55-.551.913-.74.036-.018.114.13.158.119.261-.076.753-.119.359-.713.133-.095.292-.214.494-.217.13-.001.19.186.218.052.006-.03-.126-.114-.108-.15.076-.156.237-.247.296-.417.011-.035-.092-.125-.103-.15-.086-.196.24-.054.277-.057.28-.026.34-.188.486-.327.034-.032-.135-.124-.107-.16.146-.183.328-.342.547-.446.049-.023.127.121.156.116.127-.024-.066-.25.052-.278.025-.006.111.098.124.106.208.12.014-.15.02-.167.072-.212.405-.06.508-.232.012-.02-.145-.104-.104-.155.274-.34.632-.632 1.033-.84.062-.033.118.091.133.1.222.125.02-.14.027-.164.058-.185.368-.103.173-.464.49-.336.818-.833 1.32-1.152l.336-.406.49.406q.12.184.199.408c.003.01-.123.113-.115.131.091.22.24.012.561-.103.081-.028-.103.314-.116.34-.045.097-.242.242-.248.264-.037.179.516-.398.612-.302.002.004-.115.095-.117.113-.008.058.058.041.047.101-.027.139-.282.433-.037.358.031-.01.335-.346.406-.246.027.04.183.185.204.248.022.063-.11.137-.112.145-.023.25-.123.263-.268.522-.145.258.32-.238.397-.268.076-.03.047.165.028.225s-.11.1-.114.14c-.024.265.291-.186.407-.222.274-.087-.009.342.042.462.013.033.076-.067.104-.054.11.052.049.213.243.204.032-.002.321-.14.213.065-.016.03-.124.099-.11.154.023.081.097.194.183.22.063.02.162-.174.168-.076.003.043-.125.086-.113.16s.127.181.171.22.133-.095.144-.099a.4.4 0 0 1 .204.012c.372.345.516.862.927 1.15.032.022.13-.113.137-.11.143.044-.242.281-.28.45.227-.246.223-.165.315-.125.044.02.119-.09.131-.096.187-.093.04.12.011.166-.104.167.09.04.02.152-.068.112-.25.196-.185.258.102-.067.277-.336.361-.324.318.045.482.558.61.722s.19.195.245.31c.097.21.206-.012.377.008.17.02-.281.38-.355.48s.03.026 0 .09c-.031.065-.127.088-.105.145.02.057.283.01.388-.067.223-.164.377-.415.41-.24.002.01-.125.098-.112.131.1.264.283.458.392.713.015.035-.126.13-.118.153.075.227.22-.027.526-.166-.314.277-.45.503-.336.62.068.07.185-.07.32-.117.042-.014.002.123.071.072.228-.17.404-.438.434-.231.001.01-.124.101-.113.126.073.16.295-.034.445.066.119.079.167.38.258.513-.334.33-.152.36.12.173.063.082.154.148.193.25.013.034-.099.115-.106.128-.117.21.138.019.162.026.255.085.225.392.552.39.012 0 .252-.222.127-.01-.009.014-.167.066-.1.15.069.085.09.352.302.351.052 0 .304-.122.21.076-.013.027-.087.085-.114.132-.085.15.166-.066.006.17s-.23.464.014.435c.007 0 .217-.16.248-.124.049.058.087.173.144.228.027.026.125-.106.132-.103.244.116.27.346.42.584.026.044.285-.01.23.182-.06.21-.702.697-.394.736.123.016.927-.611.682-.115.335.151.37.566.745.679.017.005.251-.16.274-.131.034.042-.038.157-.017.19.087.143.271.168.37.29.037.047-.074.129-.03.184.045.056.205-.038.212.091.004.098-.204.409-.167.507.259-.254.3-.202.45-.186.03.003.102-.104.12-.107.077-.015.032.087.11.066.02-.005.108-.092.128-.1.178-.08.063.197.042.246-.077.183.062.094.052.186-.01.093-.136.095-.119.174.035.164.176.277.273.381.039.042.128-.102.137-.1.112.054.072.262.35.076-.543.659.109-.008.107.23 0 .02-.273.316-.35.322-.078.006-.043-.138-.158-.122-.027.003-.361.202-.387.209-.198.054.217-.381.236-.409.209-.295-.16-.09-.202-.092-.19-.009-.215-.153-.363-.171-.097-.013-.38.26-.414.21-.114-.17.224-.609-.246-.406-.1.043-.376.376-.24.034.009-.021.151-.317-.031-.222-.023.012-.111.1-.126.1-.097 0-.06-.103-.146-.123-.088-.02-.202-.033-.233-.124-.019-.055.1-.267.122-.325.067-.166-.177-.028-.066-.2s.386-.327.396-.5c-.233.227-.476.457-.713.683-.17-.186-.27-.435-.459-.604-.024-.02-.125.126-.153.107-.12-.08-.12-.256-.258-.325-.108-.052-.328-.01-.445-.06.213-.315-.002-.35-.068-.465-.024-.04.049-.109.05-.154-.001-.17-.194.102-.254.116-.257.056.262-.48.13-.585-.006-.006-.363.2-.391.206-.181.047.086-.109.065-.172-.038-.114-.024-.234-.196-.242-.05-.001-.289.111-.204-.075.01-.025.107-.114.108-.125-.007-.188-.302.101-.456.145s-.039-.244.002-.32c.104-.196.099-.03.116-.041.205-.147.112-.18.079-.242.279-.293.195-.343-.036-.064-.025.03.04.041.036.064-.323.239-.433.201-.252-.143.085-.16.265-.268.096-.331-.076-.03-.253.188-.353.196-.228.016-.181-.305-.32-.385-.05-.029-.119.117-.157.101-.101-.042-.083-.187-.197-.217-.01-.003-.107.126-.131.105-.183-.157-.259-.377-.434-.557-.085-.086-.3-.177-.377-.279-.133-.175-.158-.528-.33-.62-.111-.06-.205.072-.319.112-.22.078-.078-.315-.054-.373 0-.002.101.045.12-.052.098-.144-.119.052-.12.052.016-.038-.106-.211-.157-.219-.028-.004-.126.112-.138.108a1.2 1.2 0 0 1-.668-.522c-.001-.005.124-.12.12-.132-.064-.169-.284-.096-.466-.105s-.23-.113-.08-.375c-.098-.047-.11-.24-.115-.355s-.246.11-.256.11c-.31-.017-.271-.244-.42-.434-.07-.091-.264-.217-.376-.279-.09-.048-.077-.144-.175-.173-.013-.004-.108.109-.115.11-.195.053.093-.166.123-.226.112-.218.167-.338-.001-.352-.039-.003-.465.301-.524.284-.077-.022.073-.134-.011-.154-.007-.002-.087.08-.116.044-.133-.164-.248-.373-.41-.52-.023-.02-.124.135-.157.107a1.25 1.25 0 0 1-.39-.489c-.02-.049.092-.117.11-.151.116-.207-.183-.038-.198-.044-.368-.143-.351-.55-.713-.71-.02-.008-.38.134-.213-.13.01-.018.183-.286-.01-.178-.012.007-.096.15-.136.086s-.201-.072-.149-.269c.017-.062.183-.335-.06-.228-.017.008-.518.299-.282-.012.039-.05.334-.334.105-.266-.044.013-.08.105-.162.105-.124 0-.13-.161-.335-.11-.037.01-.29.15-.187-.045.016-.03.127-.114.113-.149-.063-.166-.248-.222-.298-.406-.018-.065.16-.2.158-.284-.001-.085-.048-.212-.164-.186-.117.026-.316.324-.404.276l-.033-.019h2.477c-.215.356-.635.5-.94.765-.047.04.078.093.015.159-.23.243-.554.735-.948.75-.316.014-.225-.309-.412-.245-.09.032.134.386.128.41-.05.235-.278.207-.367.375-.019.034.125.126.108.154-.057.097-.19.126-.255.21-.029.037.067.12.03.144a.5.5 0 0 1-.346.072c-.014-.001-.082-.156-.14-.107-.093.081-.284.107-.3.293-.003.055.2.26-.006.184-.042-.016-.27-.279-.133.008.022.048.183.46-.063.336-.064-.032-.307-.192-.311-.124 0 .01.13.1.11.14-.068.14-.19.239-.263.38-.02.039.137.11.105.163-.09.146-.265.264-.416.344-.055.029-.12-.095-.134-.102-.216-.117-.02.138-.024.167-.024.181-.207.154-.274.276-.018.034.107.122.112.137.04.147-.113-.085-.168-.073-.156.036-.254.15-.337.26-.03.042.134.126.106.161a1.7 1.7 0 0 1-.627.509c-.048.021-.122-.096-.15-.111-.203-.103-.068.178-.064.215.014.167-.1.112-.152.195-.25.407-.712.757-1.057 1.033-.449.36-.854.582-1.215.992-.024.025.129.128.11.152-.242.303-.56.522-.797.832-.02.026.134.114.106.159a.5.5 0 0 1-.268.215c-.055.018-.11-.135-.163-.115a.6.6 0 0 0-.293.237c-.029.046.151.113.104.163-.318.342-.621.688-1.115.862-.034.011-.305-.22-.305-.123.066.074.148.155.22.232-.44.52-1.003.91-1.499 1.378-.02.02.148.118.108.157-.23.226-.414.484-.78.584-.036.01-.258-.235-.29-.132-.006.019-.077.153-.053.23.004.011.132.102.102.138a2 2 0 0 1-.66.51c-.042.02-.126-.13-.157-.116-.218.095-.3.353-.555.397-.17.03-.335-.209-.586-.354-.035-.02-.102.037-.22-.075-.298-.281-.585-.628-.906-.924-.069-.064-.08.09-.192-.12-.007-.014 0-.127-.04-.197-.027-.047-.163-.146-.19-.215-.027-.07.094.006.072-.086s-.171-.21-.117-.296m19.94-7.385c.056-.167-.362.234-.204.196.008-.003.2-.188.203-.196m6.727 6.598c.109-.253-.206-.037-.295.154-.089.19.262-.078.295-.154m.878.614c.059-.226-.535.341-.328.314.012-.001.325-.3.328-.314M6.095 20.762c-.006-.004-.056.035-.051.041.106.154.206.076.051-.04m26.647-1.186c.052-.105-.114-.09-.18.041-.052.105.115.09.18-.04M21.816 8.456c.005-.007-.021-.044-.055-.009-.11.114-.033.127.055.01M34.008 20.83c-.164-.208.203-.8.351-.544.027.046-.232.074-.229.164.007.164.365-.08.29.168-.013.046-.404.225-.413.212m-9.296-9.586c.004-.007-.035-.056-.041-.052-.154.106-.076.206.04.052M20.206 6.34c.01-.014-.082-.127-.096-.12-.267.16-.082.39.096.12m7.782 7.58c.18-.084.252-.041.127.162-.04-.057-.087-.107-.127-.163"/><path fill="#3784ff" d="M4.312 32.734c.126-.197.376-.37.59-.48.066-.034.113.064.163.044.096-.04.124-.14.225-.173.034-.01.121.132.154.118.18-.077.271-.228.426-.334.76-.52 1.433-1.105 2.134-1.7.23-.197.595-.353.77-.62.02-.03-.096-.116-.1-.13-.05-.203.128.026.205.003a1.3 1.3 0 0 0 .69-.535c.065-.099-.218-.218-.023-.187.013.002.1.13.134.119.076-.025.153-.14.201-.172.093-.058.104-.072.177-.143.1-.095.27-.158.351-.288.017-.027-.122-.108-.105-.162s.121-.14.179-.146.13.094.156.108c.214.12.092-.22.1-.24.16-.355.512-.444.753-.685.183-.184.335-.424.515-.592.216-.2.451-.317.643-.529.02-.022-.134-.126-.11-.154.262-.291.55-.552.913-.74.036-.018.114.13.158.119.261-.075.753-.119.359-.713.133-.095.292-.214.494-.216.13-.002.19.185.218.052.006-.03-.126-.115-.108-.152.076-.155.237-.246.296-.416.011-.035-.092-.125-.103-.15-.086-.196.24-.054.277-.057.28-.026.34-.188.486-.327.034-.032-.135-.123-.107-.16.146-.183.328-.342.547-.446.049-.022.127.122.156.116.127-.024-.066-.25.052-.278.025-.006.111.098.124.106.208.12.014-.15.02-.167.072-.212.405-.06.508-.232.012-.02-.145-.104-.104-.155.274-.34.632-.632 1.033-.84.062-.033.118.091.133.1.222.125.02-.14.027-.164.058-.185.368-.103.173-.463.49-.337.818-.834 1.32-1.153l.336-.406.49.406q.12.184.199.408c.003.01-.123.113-.115.131.091.22.24.012.561-.103.081-.028-.103.314-.116.34-.045.097-.242.242-.248.264-.037.179.516-.397.612-.302.002.004-.115.095-.117.113-.008.058.058.041.047.101-.027.139-.282.433-.037.358.031-.01.335-.346.406-.246.027.04.183.185.204.248.022.063-.11.137-.112.145-.023.25-.123.263-.268.522-.145.258.32-.238.397-.268.076-.03.047.165.028.225s-.11.1-.114.14c-.024.265.291-.186.407-.222.274-.087-.009.342.042.462.013.033.076-.067.104-.054.11.052.049.213.243.204.032-.002.321-.14.213.065-.016.03-.124.099-.11.154.023.081.097.195.183.22.063.02.162-.174.168-.076.003.043-.125.086-.113.16s.127.181.171.22.133-.095.144-.099a.4.4 0 0 1 .204.012c.372.345.516.862.927 1.15.032.022.13-.113.137-.11.143.044-.242.281-.28.45.227-.246.223-.165.315-.125.044.02.119-.09.131-.096.187-.093.04.12.011.166-.104.167.09.04.02.152-.068.112-.25.196-.185.258.102-.067.277-.336.361-.324.318.045.482.558.61.722s.19.195.245.31c.097.21.206-.012.377.008.17.02-.281.38-.355.48s.03.026 0 .09c-.031.065-.127.088-.105.145.02.058.283.01.388-.067.223-.164.377-.415.41-.24.002.01-.125.098-.112.131.1.264.283.458.392.712.015.036-.126.132-.118.154.075.227.22-.027.526-.166-.314.277-.45.503-.336.62.068.07.185-.07.32-.117.042-.014.002.123.071.072.228-.17.404-.438.434-.23.001.009-.124.1-.113.125.073.16.295-.034.445.066.119.078.167.38.258.513-.334.33-.152.36.12.173.063.082.154.148.193.25.013.034-.099.115-.106.128-.117.21.138.019.162.026.255.085.225.392.552.39.012 0 .252-.222.127-.01-.009.014-.167.066-.1.15.069.085.09.352.302.351.052 0 .304-.122.21.076-.013.027-.087.085-.114.132-.085.15.166-.066.006.17s-.23.465.014.435c.007 0 .217-.16.248-.124.049.058.087.173.144.228.027.026.125-.106.132-.103.244.116.27.347.42.584.026.044.285-.01.23.182-.06.21-.702.697-.394.736.123.016.927-.611.682-.115.335.151.37.566.745.679.017.005.251-.16.274-.131.034.042-.038.157-.017.19.087.143.271.168.37.29.037.047-.074.129-.03.184.045.056.205-.038.212.091.004.098-.204.409-.167.507.259-.254.3-.202.45-.186.03.002.102-.104.12-.107.077-.015.032.087.11.066.02-.005.108-.092.128-.1.178-.08.063.197.042.246-.077.183.062.094.052.187-.01.092-.136.095-.119.173.035.164.176.277.273.382.039.04.128-.103.137-.1.112.053.072.261.35.075-.543.659.109-.008.107.23 0 .02-.273.316-.35.322-.078.005-.043-.138-.158-.123-.027.004-.361.203-.387.21-.198.054.217-.381.236-.408.209-.296-.16-.091-.202-.093-.19-.009-.215-.153-.363-.171-.097-.013-.38.26-.414.21-.114-.17.224-.609-.246-.406-.1.043-.376.376-.24.034.009-.021.151-.317-.031-.222-.023.012-.111.1-.126.1-.097 0-.06-.103-.146-.123-.088-.02-.202-.033-.233-.124-.019-.054.1-.267.122-.325.067-.166-.177-.028-.066-.2s.386-.327.396-.5c-.233.227-.476.457-.713.684-.17-.187-.27-.436-.459-.605-.024-.02-.125.126-.153.107-.12-.08-.12-.256-.258-.325-.108-.052-.328-.01-.445-.06.213-.315-.002-.35-.068-.465-.024-.04.049-.109.05-.154-.001-.17-.194.102-.254.116-.257.056.262-.48.13-.585-.006-.005-.363.2-.391.206-.181.047.086-.109.065-.171-.038-.115-.024-.235-.196-.243-.05-.001-.289.111-.204-.075.01-.025.107-.114.108-.125-.007-.188-.302.102-.456.145s-.039-.245.002-.32c.104-.196.099-.03.116-.041.205-.147.112-.18.079-.242.279-.293.195-.343-.036-.064-.025.03.04.041.036.064-.323.239-.433.201-.252-.143.085-.16.265-.268.096-.331-.076-.029-.253.188-.353.196-.228.017-.181-.305-.32-.385-.05-.029-.119.117-.157.101-.101-.042-.083-.187-.197-.217-.01-.003-.107.126-.131.105-.183-.157-.259-.377-.434-.557-.085-.086-.3-.177-.377-.279-.133-.175-.158-.528-.33-.62-.111-.06-.205.072-.319.112-.22.078-.078-.315-.054-.373 0-.002.101.045.12-.052.098-.144-.119.052-.12.052.016-.038-.106-.211-.157-.219-.028-.004-.126.112-.138.108a1.2 1.2 0 0 1-.668-.522c-.001-.005.124-.12.12-.132-.064-.169-.284-.096-.466-.105s-.23-.113-.08-.375c-.098-.047-.11-.24-.115-.355s-.246.11-.256.11c-.31-.017-.271-.244-.42-.434-.07-.091-.264-.217-.376-.279-.09-.048-.077-.144-.175-.173-.013-.004-.108.109-.115.11-.195.053.093-.166.123-.226.112-.218.167-.338-.001-.352-.039-.003-.465.301-.524.285-.077-.023.073-.135-.011-.155-.007-.002-.087.08-.116.044-.133-.164-.248-.373-.41-.52-.023-.02-.124.135-.157.108a1.25 1.25 0 0 1-.39-.49c-.02-.049.092-.117.11-.151.116-.207-.183-.038-.198-.044-.368-.143-.351-.55-.713-.71-.02-.008-.38.134-.213-.13.01-.018.183-.286-.01-.178-.012.007-.096.15-.136.086s-.201-.072-.149-.269c.017-.062.183-.335-.06-.228-.017.008-.518.299-.282-.012.039-.05.334-.334.105-.267-.044.014-.08.106-.162.106-.124 0-.13-.161-.335-.11-.037.01-.29.15-.187-.045.016-.03.127-.114.113-.149-.063-.166-.248-.222-.298-.406-.018-.065.16-.2.158-.284-.001-.085-.048-.212-.164-.186-.117.026-.316.324-.404.276l-.033-.019h2.477c-.215.356-.635.5-.94.765-.047.04.078.093.015.159-.23.243-.554.735-.948.75-.316.014-.225-.308-.412-.244-.09.03.134.385.128.41-.05.235-.278.206-.367.374-.019.034.125.126.108.154-.057.097-.19.126-.255.21-.029.037.067.12.03.144a.5.5 0 0 1-.346.072c-.014-.002-.082-.156-.14-.107-.093.081-.284.107-.3.293-.003.055.2.26-.006.184-.042-.016-.27-.279-.133.008.022.048.183.46-.063.336-.064-.032-.307-.192-.311-.124 0 .01.13.1.11.14-.068.14-.19.239-.263.38-.02.039.137.11.105.163-.09.146-.265.264-.416.344-.055.029-.12-.095-.134-.102-.216-.117-.02.138-.024.167-.024.181-.207.154-.274.276-.018.034.107.122.112.137.04.147-.113-.085-.168-.073-.156.036-.254.15-.337.26-.03.041.134.126.106.161a1.7 1.7 0 0 1-.627.509c-.048.021-.122-.096-.15-.111-.203-.103-.068.178-.064.215.014.167-.1.112-.152.195-.25.407-.712.757-1.057 1.033-.449.36-.854.582-1.215.992-.024.025.129.128.11.152-.242.303-.56.522-.797.832-.02.026.134.114.106.159a.5.5 0 0 1-.268.215c-.055.018-.11-.135-.163-.115a.6.6 0 0 0-.293.237c-.029.046.151.113.104.163-.318.342-.621.688-1.115.862-.034.012-.305-.22-.305-.123.066.074.148.155.22.232-.44.52-1.003.91-1.499 1.378-.02.02.148.118.108.157-.23.226-.414.484-.78.584-.036.01-.258-.235-.29-.132-.006.019-.077.153-.053.23.004.011.132.102.102.138a2 2 0 0 1-.66.51c-.042.02-.126-.13-.157-.116-.218.095-.3.353-.555.397-.17.03-.335-.209-.586-.354-.035-.02-.102.037-.22-.075-.298-.281-.585-.628-.906-.924-.069-.064-.08.09-.192-.12-.007-.014 0-.127-.04-.197-.027-.048-.163-.146-.19-.215-.027-.07.094.005.072-.086-.022-.092-.171-.21-.117-.296m19.94-7.385c.056-.168-.362.234-.204.196.008-.003.2-.188.203-.197m6.727 6.598c.109-.253-.206-.037-.295.154-.089.19.262-.078.295-.154m.878.614c.059-.226-.535.342-.328.314.012-.001.325-.3.328-.314M6.095 34.344c-.006-.004-.056.035-.051.041.106.154.206.076.051-.04m26.647-1.186c.052-.105-.114-.09-.18.041-.052.105.115.09.18-.04M21.816 22.04c.005-.006-.021-.044-.055-.009-.11.114-.033.127.055.01m12.192 12.373c-.164-.208.203-.8.351-.544.027.046-.232.074-.229.164.007.164.365-.08.29.168-.013.046-.404.225-.413.212m-9.296-9.586c.004-.007-.035-.056-.041-.052-.154.106-.076.206.04.052m-4.506-4.903c.01-.014-.082-.127-.096-.12-.267.16-.082.39.096.12m7.782 7.58c.18-.083.252-.041.127.162-.04-.057-.087-.107-.127-.163"/></svg>