<svg xmlns="http://www.w3.org/2000/svg" width="40" height="40" fill="none" viewBox="0 0 40 40"><circle cx="14" cy="14" r="14" fill="#fff5e1" fill-opacity=".2" transform="matrix(-1 0 0 1 34 5.98)"/><path fill="#231f20" d="M8.77 13.33c.385-.525 1.093-1.547 1.552-2.061l.024-.029c.107-.123.211-.237.337-.367.304-.305.7-.735 1.652-1.499q.433-.31.889-.586A13.44 13.44 0 0 1 20 6.836a13.4 13.4 0 0 1 4.34.65l.14.05c.915.328 1.982.892 2.63 1.283.83.49 1.357.89 1.78 1.228 2.36 2.018 3.99 4.91 4.445 8.015a13.2 13.2 0 0 1-.373 5.611c-.16.501-.346.968-.538 1.388-.27.592-.553 1.096-.795 1.506-.575.993-1.356 2.041-2.022 2.746q-.163.175-.31.322a13.4 13.4 0 0 1-1.81 1.425l-.119.103c-.502.429-1.202.863-2.387 1.34a14 14 0 0 1-1.866.594c-.477.115-.718.188-.918.25l-.17.049c-.192.05-.402.054-.65.053-.32-.004-.703-.016-1.206.028q-.087.008-.171.014c-1.498.088-2.169-.15-2.66-.298-.15-.048-.285-.095-.424-.137-.45-.133-1.1-.296-1.589-.437-.39-.106-1.123-.453-1.64-.78-.195-.122-.467-.274-.777-.468a10 10 0 0 1-1.048-.747c-.91-.762-1.32-1.241-1.653-1.618q-.14-.16-.263-.315a15 15 0 0 1-.871-1.186 12 12 0 0 1-.859-1.532 13.3 13.3 0 0 1-1.28-3.552c-.133-.638-.267-1.249-.413-1.711-.146-.458-.3-.73-.465-.73-.164 0-.329.275-.425.777-.096.505-.103 1.196.016 1.903.236 1.42.688 2.81 1.34 4.102a14.2 14.2 0 0 0 3.2 4.182 14.4 14.4 0 0 0 3.391 2.263c.915.493 1.894.866 2.6 1.065a8.4 8.4 0 0 0 1.4.27c.26.03.487.05.719.079.124.015.293.036.497.055.326.031.739.06 1.204.063.727.007 1.571-.056 2.352-.208a13 13 0 0 0 1.816-.5c.861-.301 1.62-.676 2.01-.846.69-.295 1.43-.74 2.043-1.185.587-.422 1.063-.837 1.35-1.053.345-.258.606-.52.968-.926.25-.283.549-.637.93-1.136.438-.579.696-1.024.906-1.405.292-.538.49-.95.81-1.558a10 10 0 0 0 .798-2.036c.071-.279.151-.594.223-.93.094-.44.17-.91.203-1.343a6.5 6.5 0 0 0 .001-.913l-.015-.234a15 15 0 0 0 .005-.85l.013-.143c.02-.251.04-.567.02-.951a8.5 8.5 0 0 0-.279-1.69c-.11-.425-.241-.864-.399-1.363a19 19 0 0 0-.38-1.105 10 10 0 0 0-.68-1.455 3 3 0 0 0-.248-.34l-.002-.001q-.007-.01-.017-.021a14.7 14.7 0 0 0-1.762-2.433l-.169-.201c-.277-.325-.563-.627-.744-.833-.193-.224-.744-.726-1.377-1.19-.413-.306-.86-.596-1.23-.825a4 4 0 0 0-.673-.317c-.217-.084-.44-.164-.676-.271q-.177-.082-.38-.18a8 8 0 0 0-.382-.168 8 8 0 0 0-.79-.24 17 17 0 0 0-.774-.182q-1.096-.285-2.223-.397a3 3 0 0 1-.397-.1c-.077-.027-.142-.056-.209-.085a2 2 0 0 0-.32-.113A1 1 0 0 0 20 4.987a1 1 0 0 0-.084.02q-.044.014-.092.016-.036 0-.08-.012a.8.8 0 0 0-.213-.023c-.363.008-.78.04-1.182.09-.449.055-.884.13-1.23.193-.387.07-.93.22-1.46.405-.37.129-.734.273-1.045.4-.304.125-.624.248-.93.377-.366.155-.714.32-.988.498a1 1 0 0 0-.187.177q-.076.084-.178.188-.528.32-1.024.685l-.042.018h-.001c-.318.135-.761.334-1.208.819a1.6 1.6 0 0 0-.218.3c-.05.084-.092.158-.175.245-.093.1-.219.201-.354.316-.19.16-.398.346-.56.573l-.034.05a5.5 5.5 0 0 0-.42.68 14.35 14.35 0 0 0-2.656 6.351c-.109.694-.097 1.37 0 1.865.096.492.258.762.419.762.162 0 .313-.267.458-.716.144-.454.278-1.052.41-1.677.215-1.017.549-2.006.99-2.94l.076-.144c.188-.357.4-.668.622-.967q.077-.104.155-.206"/><path stroke="#231f20" stroke-linecap="round" stroke-linejoin="round" stroke-width="2" d="M20.995 14.838c1.946 1.946 4.571 4.07 5.277 4.393-1.134 1.76-3.09 3.098-4.063 3.763-.497.392-.997.893-1.513 1.409"/><path stroke="#231f20" stroke-linecap="round" stroke-width="2" d="M13.38 20.32c1.245-.016 3.533-.247 5.819-.37.576-.058 1.155-.23 1.732-.29.577-.061 1.133-.006 2.394-.02"/></svg>