<svg xmlns="http://www.w3.org/2000/svg" width="68" height="68" fill="none" viewBox="0 0 68 68"><path fill="#3784ff" d="M1.843 13.698c.02-.01.083-.065.113-.085-.053-.004-.18.119-.113.085m4.263-1.575-.06.102c.02-.07.048-.154.07-.232q.018-.066.029-.12c.003-.018-.032.02-.023-.02.01-.041.04-.025.058-.083.022-.066.06-.371.073-.471.06-.378.098-.73.097-1.064-.039.346-.049-.006-.036-.1.003-.02.066-.02.056-.354-.007-.211-.097-.019-.05-.367.06.268.058.004.06-.204.001-.037-.008-.325-.005-.452 0-.044.033-.108.034-.166l-.001-.022c-.004-.03-.016-.06-.015-.107.004-.273.005-.541 0-.815-.084.16-.036-.126-.04-.138-.023-.066-.029.23-.043.113l.008-.49c.01.134.07-.176.042-.234.074.026-.063-.742-.039-.86.005-.024.041.136.025-.234-.002-.04-.024-.025-.022-.046.001-.012.071-.088.033-.17-.015-.03-.06.16-.042-.256.071.166.039-.577.02-.713l.03.082c-.026-.135-.002-.16-.003-.19-.006-.123-.03-.291-.028-.406.003-.133.047-.134.03-.29l.03.111-.004-.125-.004-.197c-.059.248-.003-.053-.001-.072.002-.031-.022.013-.02-.038.001-.006.024.002.027-.078.006-.164-.022-.138-.021-.205 0-.006.02.014.027-.098.026-.344-.017-.002-.019.015-.004.02-.088-.113-.061.205-.01-.108-.047-.118-.047-.13-.001-.012.008-.19.01-.197.016-.083.039-.01.044-.025s-.02-.21.062-.235c-.063-.08-.07.028-.089.19-.016.02-.02-.15-.02-.155.018-.187.067-.074.109-.108.022-.016-.01-.074.035-.016.023-.106-.018-.046-.02-.055-.005-.012.015-.033.014-.034-.002-.005-.023.002-.026-.013 0-.003.035-.008.043.016.004-.027.025-.003-.024-.028l.016.008c.067.005-.06-.054-.058-.07.01-.045.07.01.075.01.026 0 .068-.092.096-.097-.047-.038-.057.054-.073.06-.064.02.028-.079-.052-.096q.04-.002.08.004c-.007-.055-.056-.044.026-.084.035.024-.054.032-.022.048.019.008.06-.016.066-.008.007.01-.035.022-.019.033.018.011.05-.011.068-.028Q6.6 2.318 6.599 2.3l-.024.007q.011-.008.015-.026c-.012-.018-.024-.05-.01-.037.02.012-.014.13.084.086-.01-.036-.06.003-.052-.001a1 1 0 0 1-.022-.09c0-.006.03-.01.12-.017.085-.007.217-.013.263-.036-.042.048.35 0 .403.015.012.004-.034.034-.02.037.08.018.304-.035.41-.036h.003c.116-.002.102.024.108.024.052-.002.01-.02.043-.02.048 0 .38-.003.396.001.005.001-.05.03.023.036.012 0 .004-.034.218-.019.258.018-.179.043-.072.08.166-.052.16-.001.205-.005.016-.002.132-.045.257-.042l-.27-.021c.088-.008.26.001.333-.007.036-.004.007-.04.084-.04.016.001.082.088-.121.05-.016.03.08.01.125.019.007.001.033.053.09.02.014-.007-.135-.158.25-.049.012.004-.03.022-.019.026.009.003.107-.005.118-.002s-.037.024-.023.028c.068.02.157-.061.017-.055l.14-.03c-.05.061.073.017.138.019.415.012.137.052.208.073.115.033.027-.072.197-.04.016.002-.19.047.212.022l-.178-.005c.034-.06.214.004.228.005.158.008.051-.014.285.017.021.003.067-.012.112-.005.185.03-.245.019-.257.043-.005.012.457.009.473.003.067-.025-.21-.01-.157-.042.02-.01.678.012.81 0 .153-.014.222-.095.223-.004.043-.09.08-.029.1-.03.236-.007.237-.008.44 0 .044.002.082-.025.097-.02.01.002-.008.031.037.04.063.012.44-.017.467-.033s-.159-.007-.125-.034c.135-.002.265.004.4.001.057 0 .028-.02.053-.02.01 0 .205.016.197.023-.02.016-.622.005-.463.038.03.006.138-.037.121.015l1.616-.035c-.31-.039-.658-.004-.982-.008-.044 0-.194.005-.176-.021.275-.007.618.006.883-.01.008-.001-.023-.025.009-.028.059-.007.252.03.285.02.005-.001-.105-.032-.071-.052.085-.05.107.061.181.06.057-.001.44-.055.536-.021.101.036-.283.021-.254.05.26.03.522-.001.768.002.004 0-.033.024.021.027.096.006.12-.027.167-.033.05-.005.227 0 .25-.012a.14.14 0 0 0-.038-.036c-.077-.013-.104.03-.111.03-.026.001-.052-.015-.076-.014-.04.002-.062.017-.114.018-.036.001-.001-.028-.036-.027-.013.001-.15.067-.163 0-.004-.022 1.12-.049 1.233-.032l-.29.024c.197-.02.432.035.448-.045l2.179-.02c.13-.007.058-.058.272-.043l-.166.05a7 7 0 0 1 .672-.024c.01.001.025.048.146.052.107.003.124-.032.182-.038.048-.006.102.003.116.001.012-.001.016-.022.042-.026.084-.012.016.048.099-.02l-.06-.008c.1-.01.238-.041.09-.057-.026-.002-.004.018-.023.018-.745-.004-.15-.044.11-.012.068-.03.443-.012.456-.018.017-.008-.047-.033.037-.054.018-.004.52.013.339-.028-.037-.008-.278 0-.336 0 .116-.055.364.003.458.02q.027.006.035.005c.067-.005.012-.017-.035-.03-.041-.011-.075-.023 0-.03q.03-.002.083-.003c.25-.006.015.037.111.056.055.01.332-.036.322.026.093.007.04-.026.05-.028.013-.002.191.02.245.01.007-.001-.013-.034-.006-.037.016-.004.173.012.177.016.004.002-.034.027-.02.035.019.008.152.016.154.025.011.013-.15-.013-.126.022.082-.002.185.036.206.067-.005-.008-.057-.02-.08-.02.01.046.106.067.082.024.015.024 0 .03.005.05.002.006.022.013.022.022 0 .001-.024.012-.023.022.01.02.037.027.038.023.01-.009 0-.03.001-.05.002-.004.04-.028.041-.03.02-.032-.022-.022-.008-.05l.035-.008c-.005-.044-.143-.062-.194-.104.153.032.199.06.237-.016.017-.032-.013-.066-.01-.074.02-.028.058.027.059.026l.004-.004c.012-.017-.06-.063-.066-.072-.004-.018.06-.062.065-.074.002-.004-.071-.043-.038-.058.037-.015.103.012.106.011.02-.008-.096-.069-.1-.076-.002-.006.079-.007.083-.013.005-.007-.044-.043-.062-.073-.013-.023.044-.02.036-.026-.004-.005-.157-.042-.167-.045-.01-.007.031-.021.027-.027-.006-.01-.061-.011-.053-.018.006-.008.228-.034.233-.05.01-.035-.24-.017.009-.091.002-.001.051.025.053.025.041-.011-.12-.11.09-.026-.387-.174-.034-.07-.075-.143-.017-.031-.186-.08-.187-.082.022-.024.073.009.095 0 .012-.006-.138-.067-.1-.079.02-.008.19.036.198.038.074.004-.005-.041.014-.049.013-.006.12.03.124.03.007-.002-.13-.085-.16-.104-.021-.015.073-.005.058-.013-.098-.056-.321-.032-.098-.077.014-.003.094.02.097.02.057-.01-.093-.054-.115-.078-.04-.045.175.024-.001-.041.14.007.224.029.39.108-.232-.112-.378-.157-.406-.19-.028-.027.054-.052.33.043-.175-.059-.14-.097-.192-.112-.035-.012-.279-.004-.15-.098.014-.013.163.038.121-.001-.36-.062-.007-.024-.002-.024.005-.035-.228-.086-.434-.097-.21-.013-.407-.003-.465-.009-.134-.011-.248-.065-.277-.066-.092 0-.015.027-.036.037-.022.01-.281-.042-.293-.04-.05.012 0 .044-.005.046a.2.2 0 0 1-.052.006c-.117.006-.37-.01-.45-.004.003-.021.197-.023.076-.056-.14-.04-.149.053-.152.057L19.53.264c.008-.049.429-.012.439-.018.056-.039-.655-.038-.743-.02l.2-.032c-.114-.057-.364.017-.528-.008-.053-.008.049-.03.047-.032-.06-.021-.155-.005-.084.025-.145-.028-.124.003-.235.005-.006 0 .042-.023-.046-.032-.041-.004-.262-.005-.291-.024-.012-.009.1-.097.113-.021.24-.037.077.034.17.033.014 0-.019-.043.215-.023-.044-.076-.314-.02-.36-.029-.096-.019.297-.058.37.002-.034-.06.027-.009.115-.011.096-.003.054-.02.106-.02.142 0 .083.041.2.003-.114.118.2.016.292-.015l-.447-.018.025-.018-.117.002.018.018c-.202-.038-.251.005-.268.005-.212.005-.458.005-.672.005-.033 0-.01-.038-.245-.008-.075.01-.005.04-.09.035-.106-.082-.104-.017-.135-.017-.09 0-.146-.02-.155-.02-.112-.003-.276 0-.399-.003-.002 0 .062-.025-.018-.018-.028.003-.28.11-.5.075l.172-.022c-.067.01-.539-.017-.423-.045.07-.018.243.051.262-.015-.157.02-1.024-.01-1.091.006-.01.002.048.023.035.026-.01.002-.208-.003-.235.005-.015.005.072.018.065.026-.006.005-.254.015-.268-.012.06.01.232.001.142-.021-.011-.003-.071.014-.085.01-.13-.032.258-.025.319-.025-.245-.034-.622.006-.905-.016-.115.022.17.034.04.053-.268.038-.072-.031-.08-.034-.066-.023-.293.098-.294.006-.097.014-.066.026-.203.014l.054-.02c-.152-.053-.475.082-.45.092.065.027.233-.015.247-.014.021.001.08.094.312.011.095.063-.368.042-.157.085-.143-.007-.729.036-.813.009-.01-.004.037-.066-.108-.034-.069.015.097.016.066.03-.097.043-1.414.016-1.664.013-.016 0-.01.02-.026.02-.049-.001-.227-.03-.315-.021.182-.036-.171-.039-.261-.035-.136.006-.128.04-.187.048-.226.027-.578-.053-.754.022.01-.075-.305.037-.448.038-.112 0-.275-.05-.123-.08-.194.004-.397-.01-.579-.015-.03 0 .012.022-.04.02-.004 0-.01-.023-.055-.025-.362-.019-.186.027-.254.041a1 1 0 0 1-.086.013c.211.004.455.012.52.013-.055.048-.468-.01-.59.004-.003 0 .011.027.007.027-.046.002-.334-.008-.275-.04.016-.008.149-.008.306-.005-.042-.006-.01-.035-.018-.037-.091-.014-.315.015-.394.018-.018.001-.017-.018-.02-.018-.058.004-.05.04-.084.024L7.736.204c-.053.028-.022.034.033.036.077.001.202-.008.186.018-.006.01-.082.015-.186.017-.25.002-.683-.014-.685-.05q-.004.008-.04.021a2 2 0 0 1-.37.02c-.008 0-.009-.053-.019-.052-.021-.002-.383.076-.566.1q.132-.045.251-.076c-.512.104-.464.107-.273.027l.027-.01c.14-.049.3-.082.3-.086.005-.008-.199.01-.422.08-.223.069-.424.196-.316.165.03-.022.479-.198.265-.09-.028.013-.215.082-.302.13l-.038.021c-.019.019.005.013.049-.001.147-.064.475-.138.425-.094a1.1 1.1 0 0 0-.402.138L5.556.57c-.066.034-.095.023-.104.028-.12.071-.039.05-.077.076-.022.01-.271.138-.179.167-.65.604-.259.089.207-.226-.166.07-.417.314-.518.43-.038.04-.038-.003-.102.067a2.2 2.2 0 0 0-.302.489c-.16.34-.19.67-.203.777.029-.127.051-.084.035.013-.014.096-.042.01-.049.028-.012.03-.023.44-.027.496.027-.29.052-.22.045.023l.03-.104c-.02.145.02.427.007.501-.002.012-.026-.03-.027-.024-.011.068.013.29.005.3-.007.009-.027-.085-.037-.05-.003.006.03.098.022.187-.003.033-.026.013-.027.021a.1.1 0 0 0-.001.033c.004.027.027.023.022.123-.004.092-.042.161-.03.29-.048-.421-.028-.068-.042.108-.003.028-.044.004-.024.172.075-.358.04.102.04.197 0 .005.028.006.029.053 0 .004-.019-.002-.02.04-.014.408.007.148.026.225.007.033-.019.23-.02.284 0 .012.02.007.019.054-.001.084-.022.16-.024.215 0 .006.03.006.02.111-.002.03-.013.063-.021.021-.03-.139.02-.403-.008-.56-.026-.143-.029.309-.029.332 0 .009.015-.08.018.01.003.077-.05.217-.039.33.001.01.046.1.048.097s.012-.144.025-.124c.001.003.001.092.01.103.012.014.127.053.13.072.007.048-.019.017-.017.048.004.068.038.303-.002.31l-.007-.116c-.004.216-.021.124-.029.154-.008.033.027.024.03.096.001.016-.006.32-.02.315.023-.168-.02-.106-.021-.114-.003-.03.021-.067.02-.106-.003-.278-.041.002-.051-.064-.004-.022.017-.067.016-.077-.003-.031-.03-.031-.028-.052.005-.049.043.008.045.004.024-.043-.006-.213-.047-.107-.016-.064.035-.071.015-.122-.04-.1-.03.05-.037.09-.024.146-.004.19-.01.396-.003.074-.028.162-.03.197 0 .021.086.226-.049.232.013.08.102.205.098.287-.004.074-.051.05-.053.057-.003.01 0 .1-.006.13-.008.035-.026.018-.033.074-.019.14.03.135.033.15.036.166-.033.093-.038.13-.005.035.021.516.004.618l.029-.124c.03.074-.02.152.035.153-.03.005-.043.027-.047.056-.007.054.017.127.016.157-.001.019-.016.017-.017.04-.002.087.01.286.002.333-.033.204-.087-.32-.09-.362.001.083-.02.55-.061.336-.006-.033.033-.093.034-.11.01-.127-.025-.028-.028-.038-.005-.016.029-.1.025-.122-.002-.007-.033.04-.034-.081-.03.06-.006.399-.014.443-.002.015-.068-.082-.005.204l-.018-.01-.013.473c.015-.016.044-.103.036.007-.004.063-.035.016-.036.022-.003.07-.038 1.017-.082 1.135-.009.052-.062.18-.065.19-.007.024-.018.077-.03.131a2 2 0 0 1-.056.195c-.012.027-.027-.008-.035.017-.007.024.025.008.024.015-.006.064-.221.472-.26.575.03-.059.218-.34.23-.33.001.003-.014.086-.03.098.008.035-.094.093-.106.145-.001.006.044.002.006.089-.014.03-.08.089-.096.179-.041.053-.154.25-.273.407-.086.116-.181.212-.208.213-.002 0 .047-.071-.004-.042-.07.04.032.042-.029.111-.006.01-.214.188-.227.19-.092.024.083-.148.075-.149a1.2 1.2 0 0 0-.176.13c-.005.008.161-.059-.01.056l.042-.06c-.082.052-.066.087-.083.104-.054.053-.154.058-.211.19-.015.036.041.02.04.024-.016.045-.1.021-.118.099-.002.006.133-.056-.07.094l.033-.042c-.034.012-.249.159-.276.181-.08.067.014.043-.074.1.027-.078-.237.1-.198.124-.067-.017-.268.172-.374.248-.058.04-.177.103-.223.131l-.015.01c-.024.021.004.045-.039.084-.012.011-.167.087-.27.203-.02.022-.035.107.018.088.09-.032.207-.171.225-.14.02.032-.187.148-.237.188-.227.186-.065.123-.064.137 0 .036-.132.126-.136.132-.015.026.091-.02.103-.006.015.018-.087.142-.054.128.048-.02.144-.13.152-.133.11-.048.009.088-.012.135-.007.015.045-.005.037.004-.118.127-.073-.043-.161.028-.08.063.048.018.046.022-.003.005-.101.075-.11.096-.003.01.294-.11.3-.077l-.257.154c.017.037.117-.07.132-.074.03-.01-.027.054-.017.063.006.005.103-.027.038.034-.023.02-.092.034-.166.12.338-.188.131-.017.13 0 0 .02.17-.058-.017.065.037.07.018.017.078-.007.074-.03-.059.093.163-.085.008.04-.18.168-.189.177-.007.008.045-.006.034.01-.135.18-.033.07-.058.143-.002.006-.158.136-.028.053.237-.15.303-.26.406-.194-.142.158-.39.242-.443.277-.08.053.015.015.01.027-.003.004-.073.05-.072.052 0 .105.305-.21.424-.275l-.067.094.122-.083c-.178.155-.001.013.086.037.02.005-.122.07.047.006-.1.082-.058.07-.166.121.018.021.253-.103.347-.151-.284.236-.17.032-.4.258-.069.005.06-.076.046-.074-.048.009-.115.095-.259.108-.023.002.027-.077-.077-.003a.5.5 0 0 0-.059.081c.023.014.084-.04.093-.033s-.07.053-.068.055c.015.027.068-.033.064-.019-.008.031-.237.27.1.013-.309.172-.057-.002.063-.07.03-.017.048-.007.093-.03.057-.03.113-.08.142-.096.032-.017-.11.134.123-.044-.098.12-.34.233-.443.34-.207.219.211-.056.257-.081.013-.007-.012.04-.003.036.014-.007.24-.178.275-.177.034 0-.086.058-.081.08.003.016.299-.16.152-.045-.101.078-.327.165-.325.239l.472-.31-.213.234c.177-.114.312-.24.496-.327-.353.337.162-.04.173-.036.005.003-.116.16-.135.187.07-.035.196-.113.294-.165.117-.062.19-.087.081.039.035-.045.167-.086.167-.082.004.026-.12.107-.173.152-.02.017-.03.03-.014.029q.015 0 .03-.007c.048-.022.08-.085.14-.122.364-.23.366-.019.708-.293l-.01.03c.383-.285.779-.576 1.191-.954.157-.08.493-.363.706-.63q.076-.092.128-.165c.036-.048.178-.304.184-.326.015-.039-.111.145-.07.052.013-.018.256-.442.261-.4-.023.051-.124.191-.133.219-.032.21.62-1.161.62-1.241q-.001.053-.006.104.043-.137.079-.276m-3.97 1.467c-.052.002-.13.085-.188.117-.082.044-.276.041-.155.096q.174-.107.343-.213m1.156-1.148c-.028.068.057.059.068-.006.001-.007-.032-.086-.068.006m-.442.562.047-.048c.023-.056-.109.075-.047.048m1.192-3.479c-.004.1-.062.028-.037-.035.001-.004.037.029.037.035m0 .072c.052.079-.056.233-.044.109a1 1 0 0 1 .044-.11m-.88 3.066c.02.006.058-.06.073-.088-.015-.01-.052.065-.073.088m.764-1.675c.018.002-.03.241-.057.249.02-.032.044-.247.057-.25m.089-.718c.002.007-.007.112-.021.108-.015-.05.01-.144.02-.108m.018-1.662c.003-.006.061.051.052-.038a1 1 0 0 0-.019-.088c-.008-.03-.031.078-.034.067a.2.2 0 0 1-.01-.055l-.005.076a.7.7 0 0 0 0 .13c.025.044.014-.09.016-.092m.066-.9a.5.5 0 0 0 0-.175c0-.005-.039.017-.036-.04.003-.046.041.022.035-.066-.006-.09-.034.03-.036.022-.002-.01.015-.15-.007-.145-.017.003-.006.152-.01.189-.004.047-.032-.01-.026.068.004.05.053.023.055.033.002.009-.026.182.024.114m-.075.76-.002.026zm-1.672 4.99c.026-.04-.09.024-.12.07.008.014.116-.065.12-.07m1.712-5.079c-.012-.142-.029-.037-.04.09.01-.04.044-.042.04-.09m-.387 3.509q-.001-.009-.014-.015.006.021.014.015m.084-.245c.058-.073-.007.096-.026.086a.3.3 0 0 1 .026-.086m.279-2.247c.002.01.09-.148.023.082-.009-.122-.02.007-.027.004-.021-.004 0-.211-.008-.257.038-.036.003.137.012.17m.038-3.309c-.023.029-.016.12-.014.18.022-.028.015-.119.014-.18M16.93.003c-.42-.02-.474.071-.09.035.007 0 .115-.026.09-.035m-3.597.024c-.04.04.091.047.177.03.02-.004.091-.044.01-.052.002.048-.125.067-.187.022M4.09 8.299c.027-.042.008-.17.004-.237-.022.041-.012.177-.004.237M15.553.05c-.045.003-.074-.032-.067-.035.034-.013.117.015.066.035M4.094 8.711c.012.005.024-.088.012-.141q-.005-.028-.02-.034v.034c.001.054 0 .138.008.141M4.09 6.203c.008.026.022-.11.014-.151-.017.003-.02.133-.014.15M14.84.039c-.04.003-.138.004-.149-.01-.014-.018.131-.012.15.01m7.362.03a.5.5 0 0 0-.218-.04c-.046.008-.033.016.003.023.067.012.211.02.215.018m-6.232 0c.124-.033-.014 0-.009-.036.084-.001.293-.003.15.032-.028.006-.102.002-.141.004m-.115.012c-.014-.011-.104-.047-.026-.045.036.002.094.041.026.045m5.397-.027c-.112.031.4.015.415.01l.016-.009c.019.01.116.012.127-.013-.03.002-.108 0-.118.003l-.009.003c-.034-.022-.41 0-.431.006m-.85.032c.129.046.151-.032.14-.034-.14-.032-.048.025-.053.028-.01.004-.108-.022-.086.006m.676-.019c.005.001.112-.001.117-.003.088-.026-.216-.019-.117.003M4.153 7.03c-.008-.077-.036-.001-.026.05 0 .004.033.018.026-.05M15.794.073c-.018.006-.474.026-.446-.017.038.005.557-.017.446.017m-3.408.01c.08 0-.007-.04-.05-.025-.016.005.03.026.05.026M4.131 8.94c-.023.082.053.065.027-.006-.001-.003-.026.003-.027.006M13.028.06c-.277-.024-.211.105.15.061l-.034-.017c.416-.02.028-.01-.074-.016-.039-.003-.006-.025-.041-.028m-1.065.026c-.267.092.243.032.39.044-.143-.038-.327-.032-.076-.07-.367-.008-.214.028-.23.031-.016.004-.072-.009-.084-.005m.705 0c.015.003.131-.015.173-.012-.058-.032-.276-.005-.173.013m6.845-.021c.01.024.034.042.126.033-.029-.012-.087-.023-.126-.033m-17.37 13.68c-.046.036-.14.114-.125.072.002-.004.118-.085.126-.073M14.47.092c-.014.003-.362.005-.242-.022.037-.008.353-.005.242.022m1.8-.003a1 1 0 0 1-.15-.01c-.007-.02.138-.01.15.01M1.908 13.944c-.005.007-.163.112-.153.09.02-.04.17-.113.153-.09M4.21 6.75c.001-.016-.025-.037-.026-.043 0-.013.01-.308-.024-.195-.006.018.007.444.01.499.037.021.003-.16.006-.205.001-.007.032-.012.034-.055M19.992.09c.013.024.36.04.356.011zm-.177.005c-.074.016.1.022.15.014.001-.015-.14-.017-.15-.014m-4.204.082c-.034-.006.073-.04.049-.046-.015-.004-.093.008-.118-.002-.007-.004.072-.036.095-.034.033.002.001.027.037.027.118 0 .223-.017.334-.017.01 0-.067.018.018.017.013 0 .093-.026.195-.022.226.082.392.001.679.031a3 3 0 0 1-.238.03c-.24.013-.67.014-.92.014-.065 0-.033-.017-.061-.018-.022 0 .004.032-.07.02M2.182 13.74c-.005.043-.1.086-.152.125.002-.037.105-.082.152-.126M18.255.12c-.034-.002-.138.008-.147-.002-.011-.012.14-.02.147.001M4.201 5.083c.001-.003 0-.085-.002-.088-.025-.072-.02.172.002.088M4.2 3.12c.005-.066.017-.135-.009-.158.003.044-.01.165.009.158M6.436.172c-.01.034.228-.014.268-.018-.014-.016-.255-.01-.268.018m13.064 0c.113-.002.09.05.162.026.011-.004.05-.111-.075-.071-.023.007.065.033-.087.045M13.236.12c.029.023.12.016.18.014-.013-.017-.136-.012-.18-.014M1.642 14.162c-.025.056-.239.176-.201.125.005-.007.173-.104.2-.125m2.55-6.152c.026-.101.033.108.009.175.001-.03-.01-.168-.008-.175M5.443.539 5.61.436c.023-.018.017-.02-.006-.01-.066.022-.272.163-.162.113M4.236 3.777c.021-.038.005-.296-.016-.355-.03.058-.01.403.016.355M19.032.157q.121 0 .233-.014c-.016-.017-.224.001-.233.014M6.067.265l.027-.01zM17.218.169c-.068.007-.053-.025-.05-.026.052-.01.127.018.05.026M2.148 13.821c-.002.037-.104.083-.153.126.002-.03.11-.098.153-.126M11.677.145c-.085.03.262.067.335.047.005-.02-.322-.051-.335-.047m-7.441 8.18c.022.006-.005.152-.016.121-.006-.02.002-.126.016-.122m7.95-8.146c.033.007.11-.015.083-.029-.035-.017-.09.027-.082.029m2.927.018c-.014.003-.206-.02-.126-.043.055-.016.063.017.076.017.015 0 .323-.04.05.026M9.733.164c.072.01.16-.001.235 0a.6.6 0 0 0-.236 0M4.241 7.762c.009.018.014.497-.014.225-.001-.016-.014-.278.014-.225M19.5.172l-.05.003q.028 0 .05-.003m-1.29.003c.026.016-.106.02-.145.012-.012-.02.141-.014.145-.012M9.974.186c.043.01.123 0 .177 0-.01-.014-.158-.015-.177 0M6.869.215c.099-.014.213-.012.216.007q.003-.004.013-.01c.008-.003.107.004.149-.003.274-.05-1.042.017-.27.036zM4.28 4.121c.023.05-.006.187-.014.151-.007-.025-.009-.2.014-.15m.146-2.132a1.4 1.4 0 0 1-.077.222c.005-.111.09-.333.077-.222m-.12 2.51c.004.031-.032.07-.034.067-.013-.031.014-.119.035-.067M19.266.27a.5.5 0 0 1-.225-.04.2.2 0 0 1-.05.018c-.04.01-1.224.02-.43-.026.025-.002-.009.02.092.016.007 0 .01-.018.03-.019.048-.001.301-.013.352.002q0-.006.01-.01c.063-.025.256.05.22.059M4.595 1.578a1 1 0 0 1-.03.064.5.5 0 0 1-.07.113 1 1 0 0 1 .052-.122c.033-.062.068-.112.048-.055m-.29 6.2c.013.054-.01.194-.023.152-.008-.026.009-.216.023-.153m-.001-5.006c.007-.376.007-.088.034-.144zM20.728.21c-.05.005.009.05.064.026.018-.008-.036-.029-.064-.026m2.342.036c-.056.035.204.035.106-.002-.005-.002-.102 0-.106.002M21.414.241c-.034-.027-.057-.03-.153-.023.143.007.01.031.153.023M7.084.225V.222zM4.3 4.797c.023.04.021.15-.002.117-.002-.003-.015-.101.002-.117M19.04.23q.008-.006-.006-.01 0 .006.006.01M4.318 4.2c-.017.005-.023-.164-.021-.17.03-.098.022.101.021.17m.012 4.693c-.002.01-.047-.048-.03-.081.014-.026.036.048.03.081M21.74.253c.054 0 .129 0 .143-.022-.036.004-.144.006-.143.021m1.23.017a1.1 1.1 0 0 0-.331-.033c-.004.032.26.02.331.033M19.41.258c-.005.001-.139.01-.12-.011.026-.032.157-.001.12.01M4.306 8.634c.015-.06.061.076.026.14-.019.033-.028-.13-.026-.14m.024-3.491c-.013.08-.035-.117-.012-.144.001.036.016.116.012.144m.083-2.82c.022.33-.073.14-.056.085a.5.5 0 0 1 .056-.086m-3.202 12.3c-.018.006-.001-.02.023-.045.02-.021.047-.041.06-.038.01.004-.019.034-.047.057a.2.2 0 0 1-.036.025M8.317.238h-.032zM4.418 5.86c-.093-.175-.021-.157-.022-.172 0-.033-.026-.11-.022-.172l-.031.214c-.007-.057-.041-.545-.026-.555.022-.015.015.139.017.143.002.007.062.03.064.045.004.024.005.432.02.497m-.067-2.916c-.006-.045-.03-.058-.023-.079.003-.007.025-.007.032-.03zm-.017 3.23c.028.05.018-.173.014-.18-.018-.038-.036.14-.014.18m.004-1.89c.002.008.01.18-.005.178-.011-.045-.015-.274.005-.178m.025-1.48c0-.067-.012-.203.02-.186zm.015 5.623c.054.111-.014.059-.032-.04.024-.03.023.022.032.04m.04.357c.01.03-.001.349-.03.3-.01-.017.016-.2.014-.209-.003-.012-.034.046-.028-.052.01.006.041-.05.044-.04m-.005-.265q.01.03.011.05c.006.067-.046.072-.046.002V8.57c.001-.032.029-.065.035-.05m-.007-.452a.5.5 0 0 1-.007.219l-.007-.294c.014-.01.008.04.014.075M23.816.624c-.135-.03.154.095.167.103.045.003-.105-.092-.167-.103M1.04 15.581c-.016.02-.013.053-.065.072l.097-.144c.062.015-.016.049-.032.072m-.07.261c.006-.003.014.08.067-.016.036-.065-.28.115-.315.18.068-.03.188-.134.248-.164m-.34.624a.7.7 0 0 0 .128-.077c.056-.066-.128.038-.129.077m.352-.263c-.045.049.078-.025.108-.056-.004-.014-.1.049-.108.056M22.687 1.518c-.069.048-.127-.06-.023-.037.005.002.026.035.023.037M.783 16.45c.045-.049-.078.025-.108.056.004.014.101-.049.108-.056M22.637 1.636c-.09.034-.057-.086-.045-.09.047-.02.202.033.232.046-.23-.026-.146.028-.187.044m-.418-.076c-.086-.014.133-.038.174-.004-.042-.002-.15.007-.174.004m-.523.038c-.046.004-.184.015-.207-.004.05.003.188-.015.207.004m-.105.057c-.072.026-.09-.05-.006-.027.003 0 .01.025.006.027m-.407.027c-.047.03-.101-.043-.024-.045.023 0 .03.042.024.045m1.34.082c-.066.012-.152-.041-.01-.045l-.149-.026c.187-.028.17.045.223.043.073-.003.069-.063.054-.082.06.038.309.046.429.068-.109.003-.309.02-.436.028-.036.002-.07-.015-.102-.014-.05.003-.006.027-.01.028m-1.875-.08c-.14.033-.051-.04.028-.027.003 0-.024.025-.028.026M.758 16.737c.135-.132 0-.088.357-.26-.16.058-.026-.02-.062-.017-.029.004-.101.068-.072.013-.043.067-.31.242-.318.254-.005.007.051.052.095.01M21.696 1.789c-.047.089-.065-.052-.157.022-.122-.107.337 0 .393-.09-.366.007-.017-.045.056-.02.016.006.02.015 0 .029a.4.4 0 0 1-.075.036l.075-.012c.173-.024.024.03.063.046.048.018.207-.001.2.032l-.296-.008c.097-.07-.106-.05-.175.009zm.56-.067c-.01.002-.225-.008-.21-.022.029-.01.331.002.21.022m.863.05c-.057-.008-.158-.002-.193-.031.068.004.166 0 .193.031m-3.899-.03c-.098-.021.205-.028.117-.002zm2.251.034c-.1.027-.053-.06.022-.037.004.001-.017.036-.022.037M.888 16.66c.017.014.231-.153.27-.18-.033 0-.29.165-.27.18m22.31-14.795c-.1.056-.265-.044-.287-.043-.02 0 .01.036.005.036-.008 0-.225-.011-.238-.013-.007-.002.034-.048-.012-.064.1.025.474.037.475.049.01.006-.083.04.057.035m-.337-.036c.055-.017-.096-.027-.135-.02-.084.013.13.021.135.02m-.38.008c-.018.004-.188.007-.203-.015.082-.028.247.005.204.015m-1.941-.005c-.046-.002-.17.014-.178-.005.046.003.17-.014.178.005M1.74 16.27c-.053.056.095-.039.132-.074-.005-.012-.127.069-.132.074M21.454 1.958a11 11 0 0 1-.653-.018c.075-.014.62-.015.645-.008.007.002.012.025.008.026m1.171.012c.047.03.077-.003.083-.004.057-.002.168.01.145-.019-.092.005-.32-.034-.228.023m-2.124-.01c-.187-.011.171-.04.124-.012a1 1 0 0 1-.124.011m1.015.006c.027.015.28.011.472.007l.206-.004c-.068-.036-.123-.018-.206-.013h-.042c-.029 0-.021-.017-.024-.017-.05-.001-.012.02-.043.02-.02 0-.421-.025-.363.007m1.136.024c.033.016.325.037.329.035.09-.027-.295-.043-.33-.035m-1.187.013c.06.049.332.016.146-.008-.018-.002-.094.019-.146.008m-.944.002c-.01.002-.204.011-.208-.004.029-.006.312-.011.208.004m.1.053c-.004 0 .041-.03-.05-.027-.007 0-.022.034-.136.022-.024-.003-.06-.025-.057-.026.12-.053.48.048.244.03m2.036-.04c-.017.013.022.056.059.036.015-.009-.013-.035-.06-.036m-2.753 0c.113.026-.242.031-.26.025.01-.016.248-.027.26-.024M1.999 16.33c.074-.059.014-.042.017-.046.149-.14.132-.07.161-.084.059-.027.026-.065.109-.107-.124.054-.04.002-.018-.025q.006-.008.005-.012-.008-.018-.023-.015c-.055.01-.176.198-.25.231-.012.006.052-.072.02-.059-.104.042-.309.343-.022.117M22.743 2.06c.046.024.308.02.24-.006-.003-.006-.293-.034-.24.006m-15.59.033c.074.02-.097.048-.127.033-.016-.008.093-.042.126-.033m-.648.186c-.028.014-.116-.027-.071-.047.005-.002.067.034.07.047m5.6-.144c-.1.032-.094-.027-.02-.026.025 0 .023.025.02.026m-3.81-.008c-.01.003-.126-.001-.122-.015.043-.008.186.001.121.015m3.842.017c-.06-.011.043-.054.115-.012-.037-.003-.109.013-.115.012m9.122-.008c-.05-.025-.19-.017-.27-.022-.01.032.212.016.27.022M6.569 2.2c-.026-.016.01-.047.017-.017zm8.758-.055c-.066-.019.143-.044.085-.011zm.912-.011c-.05.006-.263.004-.18-.014.013-.003.176-.003.18.014M2.195 16.215c-.003.04.102-.04.13-.065l.005-.005q.002-.003-.01-.001c-.03.003-.121.027-.125.071M11.457 2.14c-.052-.004-.186.004-.21-.013.064.003.227-.02.21.013m-4.705.029c-.053.04-.116.048-.108 0 .082-.01-.013.042.108 0m5.718.013c-.042.002-.074-.042-.069-.044.045-.02.11.026.069.044m-3.11-.037c-.002.02-.135.01-.117-.002.006-.004.12-.013.118.002m10.16.001c-.061.018.125.035.18.014.026-.029-.173-.016-.18-.014m-5.901.025c.006.028-.202.012-.12-.011.02-.006.117.001.12.01m1.987.033c-.14-.033.445-.057.292-.015-.011.003-.28.018-.292.015m.955-.02c-.024.003-.012.098.087.061.013-.005-.048-.03-.037-.035.006-.003.222-.017.232-.015s-.002.033.01.037c.011.003.144-.023.214-.023.131-.001.146.024.156.024.032 0 .085-.017.148-.017.32 0 .811.021 1.065-.032-.226.021-.442-.002-.667-.009.066.053-.33-.04-.098.02a17 17 0 0 0-1.11-.012m-10.134.201c.036.006-.03.077-.065.067.002-.016.06-.069.065-.067m.478-.086c.024.004.043.065.17.03.037-.01-.006-.025 0-.03.002-.003.122-.037.022-.04-.149-.003-.013.047-.091.05a.6.6 0 0 1-.14-.034c0-.001.04.004.047 0 .026-.013.012-.032.015-.033.009-.004.246.023.285-.007a2.4 2.4 0 0 0-.382-.011c-.008.003 0 .058-.008.064-.007.002-.123-.006-.13 0l-.007.006c.008-.018-.061-.005-.051.013 0 .008.042-.005.046-.007l.002-.002c-.024.021.223-.004.174.032.083.012-.016-.044.048-.031m.467.022-.032-.017c.128.009.274-.002.429-.01a4 4 0 0 1 .194-.004c.056 0-.008.035.065.025.059-.008.124-.04.092-.047-.008-.002-.128.019-.187.017-.177-.007-.132-.037-.143-.038l-.021.003c-.039.005-.115.018-.161.017-.15-.002-.22-.021-.413.006.112.018.05.062.177.048m7.123-.065c.008.019.133.002.178.005-.007-.02-.132-.002-.178-.005m-8.259 9.102c-.036.04.005-.307.018-.213.004.02-.01.168-.018.213M6.325 9.9c.01-.04.028.123.004.123a.6.6 0 0 1-.004-.123M9.837 2.29c.008 0 .114-.006.117-.008.07-.033-.279-.014-.117.008M6.371 8.305c-.02.134-.03-.27-.004-.146.002.006.005.14.004.146m.005-.562c0 .032.01.175 0 .177-.016.003-.026-.16 0-.177m6.122-5.445c-.016.036.173.009.238.013.016-.035-.173-.008-.238-.013m-1.191.026c.795.028.62-.047-.047-.017-.001.023-.003.016.047.017m1.018-.004c-.029-.022-.119-.016-.18-.014.011.016.136.01.18.014m-6.129 9.477c.046-.058.068-.345.046-.296-.003.01-.065.315-.046.296m3.708-9.478c-.019.034.22.02.239.012.073-.03-.22-.005-.239-.012m3.722.01c.043.026.162.013.24.012-.036-.023-.174-.013-.24-.012m-.556.02.117-.002c.088-.026-.216-.02-.117.002M2.037 16.616c.003-.001.069-.049.07-.051.046-.063-.152.08-.07.051m1.134.103c.014.015.09.058.119.08-.015-.051-.175-.133-.12-.08m.53 4.172-.002-.073c.03.059.054.143.081.198.005.01.02-.023.028-.001s-.024.028-.017.062c.004.018.024.066.045.118a1 1 0 0 1 .044.126c.046.2.056.431.088.687.004-.262.05-.004.044.074-.002.018-.061.014-.035.293.015.18.1.009.062.318-.067-.235-.057-.005-.057.185 0 .032.012.296.01.416-.002.04-.034.103-.035.156 0 .037.018.066.017.12a28 28 0 0 0 0 .775c.083-.152.036.12.04.132.022.061.029-.219.043-.108l-.008.465c-.01-.127-.07.168-.043.223-.073-.024.064.706.04.817-.005.023-.042-.129-.025.223.002.038.024.024.022.043-.001.012-.072.085-.033.162.014.028.06-.152.042.244-.072-.158-.039.548-.02.678l-.03-.078c.026.128.002.152.003.18.006.117.03.277.028.386-.003.127-.047.128-.03.276l-.03-.106.008.307c.059-.237.003.051.001.07-.002.03.022-.013.02.038-.001.005-.024-.003-.026.075-.006.163.023.137.022.206 0 .006-.02-.016-.025.102l-.002.04c-.008.235.006.09.015 0l.006-.056c.003-.019.089.11.058-.209.01.107.048.118.049.13a5 5 0 0 1-.006.207c-.013.092-.039.01-.043.029-.004.014.03.24-.048.296.073.11.065-.065.076-.246.015-.027.03.174.03.184 0 .263-.06.117-.096.176-.02.03.022.14-.032.04-.003.246.026.096.03.112.008.024-.006.112-.003.123.003.017.02-.041.028.024.001.01-.027.117-.046-.018.01.182-.017.17.04.232-.094.141.067.095.076.148.027.146-.055.114-.059.121-.027.046.075.532.13.694.027-.08-.11-.432-.104-.5 0-.251.09.349.13.153q-.007.123.004.263c.1.147.02-.087.186.34l.005.011c-.001.019-.009.014-.02-.003-.044-.068-.102-.287-.103-.22a1 1 0 0 0 .074.234c.017.041.03.073.028.076-.003.004-.022-.03-.041-.07-.03-.06-.058-.128-.059-.103 0 .018.013.06.037.114.084.21.361.57.108.134.085.15.2.177.268.307.055.083-.398-.267.166.344.035-.01-.217-.25-.217-.262-.004-.012.1-.016.11-.011.01.036.6.622.797.642q-.02.004.013.027c.13.11.652.233.692.241.018.008-.057.023-.038.03.131.048.433.026.549.03.134.005.115.029.122.03.057 0 .012-.019.047-.018.057.004.394.005.408.008.005.002-.049.03.023.036.012.001.006-.033.213-.018.248.018-.173.043-.07.08.161-.052.155-.001.198-.005.006 0 .03-.01.067-.019a.7.7 0 0 1 .177-.023l-.177-.015-.08-.006q.034-.003.08-.003c.084-.001.186.002.238-.004.033-.004.005-.04.079-.039.016 0 .078.087-.115.048-.016.031.076.011.119.02.006.001.031.053.086.02.013-.007-.13-.158.237-.049.012.004-.03.023-.018.027.008.002.102-.005.112-.003.01.003-.035.024-.022.028.065.02.15-.061.016-.055l.134-.03c-.048.062.07.017.13.02.395.011.131.051.199.072.109.034.025-.072.187-.04.015.003-.18.047.201.022l-.169-.005c.033-.06.204.004.217.005.15.008.049-.014.271.017.02.003.063-.012.106-.004.176.03-.233.018-.244.042-.005.012.435.009.45.003.064-.024-.2-.01-.15-.041.019-.011.645.011.771-.001.145-.014.21-.095.211-.004.041-.09.078-.028.096-.029.224-.008.225-.01.417 0 .043.001.079-.026.094-.021.008.002-.008.032.035.04.06.013.417-.017.443-.033s-.15-.007-.119-.033c.129-.003.252.003.381 0 .054 0 .027-.019.05-.02.01 0 .195.017.188.023-.019.016-.592.006-.441.038.029.006.132-.036.116.015l1.536-.035c-.295-.038-.626-.004-.934-.008-.042 0-.185.005-.168-.021.262-.007.588.007.84-.01.008 0-.022-.024.008-.028.057-.007.24.03.271.021.006-.002-.099-.033-.067-.053.082-.05.102.061.172.06.054 0 .419-.055.51-.02.096.036-.269.02-.242.05.247.03.497-.002.73.002.005 0-.031.023.02.026.092.006.115-.027.16-.032.047-.006.215-.001.238-.013a.1.1 0 0 0-.037-.035c-.073-.014-.099.029-.106.03-.025 0-.05-.016-.072-.015-.038.002-.058.017-.108.018-.034.001-.001-.028-.034-.026-.012 0-.143.067-.155-.001-.004-.021 1.065-.049 1.172-.032l-.275.025c.186-.02.41.034.425-.046l2.072-.02c.123-.006.055-.057.258-.043l-.157.05c.104-.012.564-.034.639-.024.01.002.023.048.138.052.102.003.119-.031.173-.038.046-.005.097.004.111.002.01-.002.014-.023.04-.027.079-.011.015.049.093-.02l-.057-.008c.096-.01.226-.041.085-.057-.024-.002-.003.018-.021.018-.708-.004-.143-.044.105-.012.064-.03.421-.011.433-.017.017-.01-.045-.034.035-.055.017-.004.495.013.323-.027-.036-.009-.265 0-.32-.001.13-.065.434.028.469.025.138-.01-.266-.056.045-.063.24-.006.015.037.107.056.052.01.322-.038.315.024.093.007.039-.026.05-.028s.194.016.253.003c.007-.002-.015-.034-.008-.036.014-.005.19.002.198.005.004.001-.038.03-.02.036.02.008.19.001.198.01.014.011-.196.003-.16.035a1 1 0 0 1 .316.038.6.6 0 0 0-.141-.006c.015.046.216.046.147.01.044.019.014.03.039.047.006.005.068.006.08.014.002.002-.062.019-.05.028.024.017.212.013.227.009.043-.013-.11-.028-.123-.047-.001-.003.129-.041.13-.044.008-.036-.137-.01-.12-.043l.108-.02c-.139-.033-.395-.016-.46-.053.204.01.42.01.419-.075 0-.035-.089-.056-.085-.065.012-.032.135.003.14.002q.006-.003.005-.006c0-.019-.175-.032-.184-.041-.014-.015.064-.078.064-.092-.003-.003-.128-.018-.086-.042s.152-.025.156-.028c.02-.014-.17-.028-.176-.036-.003-.005.1-.032.102-.04.003-.007-.075-.024-.106-.048-.023-.019.044-.033.032-.035-.008-.002-.188-.002-.197-.005-.013-.005.029-.027.023-.032-.01-.008-.067 0-.06-.008.006-.006.232-.081.23-.101-.002-.034-.241.044-.019-.09.002-.001.056.008.057.008.034-.025-.14-.063.072-.057-.395-.043-.049-.051-.107-.108-.023-.023-.176-.032-.177-.035.015-.028.064-.006.08-.02.01-.008-.127-.037-.096-.057.016-.01.161-.006.167-.008.058-.018-.013-.038 0-.05.008-.01.096-.01.098-.012.004-.003-.115-.038-.14-.05-.019-.01.052-.025.039-.029-.08-.025-.248.038-.086-.05.01-.006.072-.003.073-.004.038-.025-.075-.028-.095-.048-.035-.036.128-.016-.008-.04a.9.9 0 0 1 .278-.016c-.33-.018-.446-.11-.08-.108-.116.002-.104-.05-.138-.05-.022-.001-.19.05-.113-.065.01-.015.112.004.08-.026-.246.008-.005-.019-.005-.023-.003-.067-.604-.012-.707-.02-.12-.008-.226-.062-.252-.062-.086 0-.015.027-.034.037s-.262-.042-.275-.04c-.047.012.001.044-.004.046-.058.02-.385-.005-.477.002.003-.02.187-.022.072-.056-.134-.04-.141.053-.145.057l-1.836-.003c.008-.049.408-.012.417-.018.053-.038-.623-.038-.706-.02l.19-.032c-.108-.056-.346.017-.502-.008-.05-.008.046-.03.044-.031-.056-.022-.147-.005-.08.024-.137-.028-.117.003-.223.005-.005 0 .04-.022-.044-.032-.039-.004-.248-.004-.276-.024-.012-.009.095-.097.108-.02.227-.038.072.034.16.032.014 0-.017-.043.206-.023-.043-.076-.299-.02-.343-.028-.09-.02.283-.059.352 0-.032-.059.026-.007.11-.01.09-.002.05-.02.1-.02.135 0 .079.041.19.003-.108.118.19.016.278-.015l-.425-.018.024-.018-.112.003.018.017c-.192-.038-.24.005-.255.006-.202.005-.435.004-.64.004-.03 0-.01-.038-.233-.008-.07.01-.003.04-.084.035-.101-.081-.1-.016-.13-.016-.085 0-.138-.02-.146-.02-.107-.004-.263 0-.38-.004-.002 0 .06-.025-.017-.017-.026.002-.266.109-.475.074l.163-.022c-.064.01-.512-.016-.402-.045.067-.017.231.051.249-.015-.15.02-.973-.01-1.037.006-.009.002.046.023.033.026-.01.002-.198-.003-.223.005-.015.005.069.018.062.026-.006.006-.242.015-.255-.012.058.01.22.001.135-.021-.011-.003-.068.014-.081.01-.124-.032.246-.024.303-.025-.232-.034-.591.006-.86-.016-.109.023.16.034.038.053-.255.038-.068-.031-.076-.034-.063-.022-.28.098-.28.006-.092.014-.062.026-.192.014l.051-.02c-.145-.053-.452.082-.429.092.062.028.222-.015.236-.014.02.001.076.095.297.011.09.063-.35.043-.15.085-.135-.007-.693.037-.773.01-.01-.004.035-.067-.103-.035-.065.015.093.016.063.03-.092.044-1.344.016-1.582.014-.015 0-.01.019-.024.019-.047 0-.217-.03-.3-.02.173-.037-.163-.04-.248-.036-.13.006-.122.04-.178.048-.215.028-.55-.053-.717.022.01-.075-.29.037-.426.038-.106 0-.26-.05-.117-.08-.181.004-.372-.01-.542-.014H7.76c-.029-.001.01.02-.038.019-.005 0-.01-.022-.052-.024-.341-.02-.174.026-.238.04a1 1 0 0 1-.08.012l.416.013.073.001c-.011.01-.038.016-.073.018-.135.01-.393-.024-.48-.015-.003 0 .01.027.006.027-.044.002-.297-.013-.244-.044.014-.008.128-.005.273 0-.039-.007-.01-.036-.016-.038-.084-.015-.282.01-.346.01-.015.001-.013-.018-.015-.018-.058.002-.039.057-.093-.002-.108.061.195.02.176.062-.008.016-.199.015-.337-.009-.146-.024-.19-.066-.18-.09a.1.1 0 0 1-.016.017q-.012.007-.028 0a.2.2 0 0 1-.071-.054c-.001-.004.03-.045.027-.048-.006-.002-.127-.05-.133-.108l.065.036c-.1-.102-.067-.1-.027-.073q.004.002.006.004a.3.3 0 0 0 .075.037c.006-.004-.123-.18-.136-.122-.003.01.08.083.02.062-.011-.004-.043-.069-.048-.07-.038-.01.03.145-.007.151 0-.053-.046-.086-.062-.133-.008-.02.013-.038.012-.04q-.006-.019-.012-.019c-.007 0-.016.008-.017.004-.002-.003.037-.065-.036-.032-.003-.276.042-.03.067.021l.003.008v-.01c.013-.024-.017-.078-.02-.133 0-.019.027-.012.027-.045-.005-.043-.056-.53-.061-.678-.009.084-.038.06-.037-.006s.04-.01.045-.024c.004-.012-.015-.328-.01-.383-.014.241-.043.188-.046-.018l-.025.09c.004-.043.001-.102-.004-.164-.008-.114-.024-.236-.015-.281.002-.011.026.028.027.022.01-.061-.014-.27-.006-.28.007-.008.027.081.037.048.003-.006-.03-.092-.022-.177.003-.03.026-.012.027-.02.011-.066-.028-.027-.021-.147.004-.088.042-.154.03-.276.048.4.028.064.042-.103.003-.027.044-.004.024-.164-.075.34-.04-.097-.04-.186-.001-.005-.029-.007-.029-.05 0-.005.019 0 .02-.04.014-.387-.007-.14-.026-.213-.008-.031.019-.22.02-.27 0-.012-.02-.007-.02-.052.002-.08.023-.151.024-.204 0-.006-.03-.006-.02-.106.003-.028.013-.06.022-.02.029.133-.02.383.008.533.026.136.029-.294.029-.316 0-.008-.015.076-.018-.01-.003-.072.05-.205.038-.314a.5.5 0 0 0-.048-.09c-.002.003-.011.136-.024.117-.002-.003-.001-.087-.011-.098-.012-.014-.127-.05-.13-.068-.007-.047.02-.016.018-.046-.004-.065-.038-.288.002-.295l.007.11c.004-.205.021-.117.028-.146.009-.031-.026-.023-.03-.092 0-.015.007-.304.022-.299-.024.16.02.1.02.108.003.028-.021.064-.02.102.003.264.041-.003.051.06.003.021-.017.064-.016.073.003.03.03.03.028.05-.005.046-.043-.008-.045-.004-.024.041.006.203.047.102.015.06-.035.067-.015.115.04.096.03-.047.036-.086.024-.138.005-.18.012-.375.002-.07.027-.155.028-.187 0-.02-.085-.216.05-.221-.014-.076-.102-.195-.098-.273.004-.07.051-.048.053-.054.003-.01 0-.095.006-.124.008-.033.026-.017.033-.07.019-.132-.03-.129-.033-.142-.036-.159.032-.09.038-.125.002-.012 0-.09-.004-.184a3 3 0 0 1 0-.404l-.03.119c-.03-.072.02-.146-.034-.147.087-.015.028-.16.03-.205.001-.017.016-.016.017-.037.002-.086-.01-.276-.004-.325.031-.2.09.313.092.352 0-.08.015-.539.059-.328.007.034-.032.09-.033.109-.01.124.025.027.028.036.006.017-.028.097-.024.119.002.007.033-.038.034.078.031-.057.004-.389.01-.432.003-.016.07.081.002-.206l.019.01q0-.242-.006-.493c-.014.02-.038.113-.037-.005 0-.068.034-.02.035-.025.02-.042-.093-1.216-.192-1.486-.009-.035-.02-.096-.033-.157l-.035-.172c-.027-.1-.17-.438-.198-.506-.015-.043.026-.013.009-.05-.016-.035-.024.012-.03.002-.035-.085-.327-.735-.447-.861.066.082.265.557.24.557a.6.6 0 0 1-.08-.13c-.038-.026-.049-.185-.1-.247-.007-.007-.02.042-.099-.075-.026-.04-.069-.164-.167-.251a3 3 0 0 0-.267-.362c-.227-.283-.53-.55-.541-.595 0-.003.11.08.053.005-.076-.1-.044.029-.153-.061-.017-.017-.3-.266-.307-.274-.06-.103.201.088.202.084a1.7 1.7 0 0 0-.217-.198c-.01-.005.126.173-.065-.005l.082.04c-.088-.086-.12-.062-.145-.078-.075-.05-.119-.155-.273-.18-.042-.008-.004.046-.01.046-.051-.007-.056-.095-.14-.092-.005 0 .1.114-.116-.042l.053.02a3 3 0 0 0-.268-.21c-.089-.054-.035.027-.118-.036.082-.002-.172-.188-.181-.143-.007-.068-.247-.187-.35-.257a2 2 0 0 1-.112-.09c-.043-.036-.081-.07-.093-.076-.027-.014-.04.02-.089-.004-.014-.007-.132-.121-.27-.173-.027-.01-.11.006-.076.048.058.071.222.127.2.155-.023.03-.195-.117-.247-.148-.242-.14-.133-.015-.146-.009-.032.014-.156-.074-.163-.075-.029-.005.047.075.038.091-.012.02-.157-.028-.134-.002.033.036.164.084.17.09.078.082-.078.04-.128.038-.015 0 .019.04.009.036-.154-.062.015-.083-.077-.138-.083-.049-.002.051-.006.05-.005 0-.1-.064-.122-.064-.011 0 .194.227.166.246l-.223-.18c-.029.03.1.083.11.094.018.023-.059-.005-.063.008-.003.008.056.085-.02.047-.026-.014-.06-.072-.162-.108.28.24.058.114.04.12-.016.005.108.133-.063.007-.053.06-.01.023.031.07.051.055-.104-.02.129.117-.034.022-.21-.104-.222-.108-.01-.004.02.039.002.034-.208-.057-.074-.004-.149 0-.007 0-.174-.096-.058-.007.212.162.334.183.307.3-.19-.072-.345-.268-.394-.303-.074-.054-.01.02-.022.018-.004 0-.068-.047-.07-.046-.095.038.288.202.385.288l-.107-.028.115.082c-.198-.106-.012.003-.006.092.001.02-.104-.086.008.045-.106-.062-.082-.028-.163-.108-.013.025.175.194.248.262-.305-.174-.083-.144-.362-.272-.026-.06.088.028.082.016-.023-.04-.123-.07-.18-.197-.01-.021.079-.004-.022-.072a.4.4 0 0 0-.093-.024c-.005.026.063.062.06.072s-.07-.043-.072-.041c-.02.023.052.05.038.051-.031.004-.321-.118.02.096-.255-.219-.016-.052.083.033.025.021.022.041.057.073.045.042.109.075.133.096s-.157-.052.079.096c-.141-.046-.32-.226-.451-.28-.265-.11.118.171.156.204.01.01-.04.004-.034.01.01.01.238.155.249.187.01.032-.081-.057-.1-.045-.013.009.24.215.09.123-.104-.064-.255-.239-.321-.21l.432.319-.281-.11c.16.12.318.198.455.334-.419-.2.088.134.088.145-.001.006-.184-.047-.214-.055.076.071.266.216.317.282.022.028.02.042-.022.033a1 1 0 0 1-.061-.018.2.2 0 0 1 .05.032.4.4 0 0 1 .078.09c-.014.008-.059-.018-.106-.048-.064-.04-.13-.086-.118-.057.015.04.06.053.106.073q.035.014.065.036c.321.247.133.326.476.533l-.03.002c.36.241.712.48 1.004.71.086.137.308.392.4.503l.034.033c.046.044.112.108.12.113.022.014-.054-.094-.004-.056.012.006.186.241.148.24-.02-.025-.064-.118-.08-.128-.092-.079.39.674.366.737l-.05-.044q.04.075.078.151m-.327-3.924c-.02-.052-.127-.1-.177-.146-.07-.063-.132-.247-.143-.114zm1.723 1.503c-.08-.078-.078.029-.003.085.008.006.11.022.003-.085m-.837-.836.076.064c.08.035-.133-.144-.076-.064m2.054 4.89c0-.103.06-.03.037.035-.001.005-.037-.028-.037-.035m-.004-.073c-.054-.08.046-.248.04-.116 0 .012-.037.12-.04.116m-1.494-4.283c-.006.023.08.107.117.144.013-.013-.085-.106-.117-.144m1.33 2.542a1 1 0 0 1-.057-.172 1.2 1.2 0 0 1-.057-.236c.006.032.043.137.072.232a.8.8 0 0 1 .043.176m.138.999c-.003-.01-.011-.137.003-.135.024.062.013.175-.003.134m.05 1.721c-.004.006-.092-.077-.034.12.009.03.032-.074.035-.064q.009.033.01.053a1 1 0 0 0 .004-.198c-.025-.043-.014.087-.015.09m-.066.858c-.014.019-.006.139 0 .166 0 .005.038-.016.036.038-.003.044-.041-.021-.035.063.006.086.034-.028.035-.02.003.01-.014.141.008.137.017-.003.006-.145.01-.18.004-.044.031.01.025-.065-.003-.047-.052-.02-.055-.03-.002-.01.027-.174-.024-.109m.074-.725.002-.024zm-2.762-6.42c.049.017-.058-.085-.113-.1-.01.011.106.098.113.1m2.723 6.506c.012.135.029.036.04-.086-.01.039-.045.04-.04.086m-.71-4.283a.02.02 0 0 0 .021.002q-.024-.016-.022-.002m.184.34c.028.132-.081-.113-.063-.12a.6.6 0 0 1 .063.12m.542 2.95c-.003-.01-.086.152-.026-.082.013.124.02-.008.027-.006.022.005.005.215.014.26-.038.036-.005-.138-.015-.171m-.03 3.173c.023-.027.015-.114.014-.172-.023.027-.015.113-.014.172m9.247 4.471c-.399-.02-.45.072-.086.035.007 0 .11-.025.086-.035m-3.42.024c-.037.04.087.047.169.03.018-.003.086-.044.008-.052.003.049-.118.067-.177.022m-5.84-6.599c-.026.04-.007.16-.003.226.022-.04.012-.168.004-.226m7.95 6.623c-.042.003-.07-.031-.063-.034.033-.014.111.014.063.034M6.272 23.33c-.016-.005-.03.157.009.169-.003-.035.001-.164-.009-.169m.005 2.389c-.008-.025-.023.104-.015.143.017-.003.02-.127.015-.143m7.273 4.618c-.037.003-.131.003-.142-.01-.013-.018.125-.012.142.01m6.997.03a.45.45 0 0 0-.205-.04c-.123.022.2.044.205.04m-5.923 0c.118-.034-.013-.002-.008-.037.08 0 .278-.003.142.032-.027.007-.097.002-.134.004m-.11.011c-.012-.011-.098-.047-.024-.044.034 0 .09.04.024.044m5.132-.026c-.107.03.38.014.395.008l.015-.007c.018.01.11.011.12-.014-.027.002-.103 0-.111.003l-.009.003c-.032-.021-.39 0-.41.007m-.808.031c.122.046.143-.032.133-.034-.132-.032-.046.025-.05.028-.01.005-.103-.022-.082.006m.642-.019c.005.001.107-.001.111-.002.084-.026-.205-.02-.11.002M6.214 24.932c.008.073.036.002.026-.047-.001-.004-.033-.017-.026.047m8.242 5.438c-.017.006-.45.026-.424-.017.036.005.53-.017.424.017m-3.24.01c.076 0-.007-.04-.048-.025-.015.006.029.026.048.026m-4.982-7.27c.022-.08-.053-.064-.027.007.001.002.026-.003.027-.007m5.593 7.248c-.264-.025-.202.104.141.06l-.032-.017c.396-.02.027-.009-.07-.016-.037-.003-.006-.025-.04-.028m-1.013.025c-.254.092.23.032.37.044-.135-.038-.31-.032-.072-.07-.349-.008-.204.028-.218.032-.016.003-.07-.01-.08-.006m.67.001c.014.003.125-.016.165-.013-.056-.031-.263-.005-.165.013m6.508-.022c.01.025.032.043.12.034-.028-.013-.084-.023-.12-.034M3.228 17.022c-.052-.036-.157-.099-.112-.098.005 0 .12.085.112.097m9.969 13.368c-.013.003-.344.005-.23-.022.035-.008.336-.004.23.022m1.712-.003a1 1 0 0 1-.143-.01c-.007-.02.13-.009.143.01M2.959 16.862c-.007-.002-.158-.113-.134-.111.044.003.162.12.134.11m3.197 8.336c0 .016.026.036.026.041 0 .013-.01.294.025.186a9 9 0 0 0-.011-.474c-.037-.02-.002.152-.006.194 0 .007-.03.012-.033.053m12.29 5.19c.013.023.343.039.34.01zm-.167.004c-.07.016.095.022.143.015 0-.016-.133-.017-.143-.015m-3.997.082c-.033-.006.07-.04.046-.046-.014-.004-.088.008-.112-.002-.007-.003.069-.035.09-.034.032.002.002.027.036.027.112 0 .212-.017.318-.017.01 0-.065.018.017.018.012 0 .088-.027.185-.023.215.082.373.002.645.031a3 3 0 0 1-.226.03c-.228.013-.636.014-.875.015-.061 0-.031-.018-.058-.018-.02 0 .004.031-.066.02M3.244 17.054c-.042.01-.115-.067-.17-.104.036-.01.114.073.17.105m13.552 13.363c-.032-.002-.132.008-.14-.002-.01-.012.133-.02.14.002m-10.63-3.635c-.001.003 0 .08.001.084.026.069.02-.163-.002-.084m.006 1.852q-.004.046-.006.086 0 .037.018.052l-.001-.052c0-.043 0-.09-.011-.086m.241 1.64c-.026.023.045.051.057.055.004-.015-.038-.07-.057-.055m11.566.195c.108-.002.085.05.154.026.011-.004.047-.111-.071-.07-.022.006.062.032-.083.044m-5.955-.052c.028.023.113.016.171.014-.013-.016-.13-.012-.17-.014M2.67 16.691c-.06-.004-.24-.157-.18-.141.008.002.152.122.18.14M6.174 24c-.014.056-.023.01-.023-.05 0-.042.005-.091.015-.117-.001.018.003.074.006.117zm.068 6.087c0 .003.024.04.026.04.04.017-.026-.084-.026-.04m-.112-2.063c-.02.037-.004.279.017.333.03-.052.01-.378-.017-.333m11.405 2.43q.115 0 .22-.015c-.014-.017-.212.001-.22.014M6.33 30.22q.004.002.006.004zm9.48.246c-.065.007-.051-.024-.047-.025.048-.01.12.018.047.025M3.155 17.05c-.036.01-.114-.073-.17-.104.029-.008.13.071.17.104m7.387 13.393c-.081.031.249.067.318.047.005-.019-.306-.051-.318-.047m-4.41-6.741c-.023-.006.004-.146.014-.116.007.018 0 .12-.015.116m4.894 6.775c.031.007.104-.015.078-.029-.032-.017-.086.027-.078.03m2.783.018c-.014.004-.196-.02-.12-.042.052-.016.06.016.072.016.014 0 .307-.04.048.026m-5.116-.032c.069.008.152-.002.224-.001a.5.5 0 0 0-.224 0m-2.568-6.226a2 2 0 0 1-.003-.285q.002-.015.006 0 .005.016.01.072c.002.015.015.264-.013.213M17.98 30.47l-.047.003q.027 0 .047-.003m-1.226.003c.024.017-.101.021-.138.012-.011-.02.134-.014.138-.012m-7.83.012c.041.01.116 0 .168 0-.009-.015-.15-.016-.168 0m-2.443-.067q.006 0 .013.004c.012 0 .026.012.021.027l.007-.007c.001-.003.024.014.043.012.055-.007-.054-.038-.065-.042-.056-.024-.102-.035-.02.038l.008.01v-.025zm-.393-2.72c-.023-.046.005-.177.014-.143.006.024.008.19-.014.144m-.008 1.776c-.005-.012.009-.131.02-.135.014.07 0 .193-.02.135m-.019-2.135c-.003-.029.033-.066.035-.063.013.03-.015.113-.035.063m11.696 3.23a.44.44 0 0 1-.214-.04.2.2 0 0 1-.049.017c-.037.01-1.162.02-.407-.026.023-.001-.009.02.087.017.007 0 .01-.019.03-.02.044-.001.285-.012.333.002q0-.004.01-.01c.06-.025.243.051.21.06m-11.67-.873c-.009-.02-.006-.091.01-.1.008.037.007.148-.01.1m-.025-5.473c-.013-.052.011-.185.024-.145.008.024-.009.205-.024.145m.017 4.712c.02.296-.001.07-.024.116zm13.069 1.574c-.048.006.008.05.061.026.017-.008-.034-.029-.061-.026m2.164.014c-.04.04.16.017.081-.01zm-1.512.017c-.033-.028-.054-.03-.146-.024.136.008.01.032.146.024M6.513 30.45l.001-.003zm-.446-3.395c-.023-.038-.021-.143.002-.112.002.003.015.096-.002.112m11.475 3.471q.008-.006-.006-.01 0 .006.006.01M6.048 27.622c.018-.004.024.157.022.163-.03.092-.023-.097-.022-.163m-.012-4.466c.002-.008.046.045.029.079-.013.025-.036-.048-.03-.08M20.11 30.55c.05 0 .123 0 .136-.021-.034.003-.137.005-.136.02m1.123.001a.9.9 0 0 0-.285-.02c-.001.032.229.013.285.02m-3.34.004c-.004.001-.131.011-.114-.01.026-.033.15-.002.114.01M6.06 23.406c-.015.058-.061-.075-.026-.135.019-.032.029.125.026.135m-.023 3.32c.013-.075.035.112.012.138-.002-.035-.017-.11-.012-.138m-.021 2.55c-.068-.227.053-.104.043-.063a.3.3 0 0 1-.043.063M2.11 16.462c-.022-.027.1.018.1.045 0 .017-.086-.028-.1-.045m5.243 14.073h-.029zm-1.404-4.491c.093.166.021.149.021.163.001.032.027.105.022.164l.032-.203c.007.053.04.517.026.527-.022.014-.015-.132-.017-.136-.003-.007-.062-.03-.065-.043-.003-.022-.004-.41-.02-.472m.075 2.746c.007.038.031.05.025.067-.002.006-.024.007-.03.027zm.008-3.045c-.027-.047-.017.164-.014.171.019.036.037-.133.014-.171m-.004 1.797c-.001-.008-.01-.17.005-.17.012.044.015.261-.005.17m-.01 1.367c.002.057.025.163-.009.15zm-.03-5.307c-.053-.105.015-.056.033.038-.025.03-.023-.02-.032-.038m-.04-.34c-.01-.031-.001-.338.028-.292.01.018-.015.195-.013.203.003.012.035-.045.029.05-.01-.006-.041.049-.044.039m.006.253c-.041-.107.035-.13.035-.05 0 .03-.029.065-.035.05m.007.43a.5.5 0 0 1 .007-.209l.005.215.002.065c-.014.01-.009-.032-.013-.064zm15.905 6.8c-.084.022.108.03.117.025.024-.017-.08-.034-.117-.024M1.18 16.657c-.024-.006-.052.009-.086-.033l.162.037c.006.062-.05.003-.076-.004m-.26.032c.004.005-.07.042.035.056.071.009-.194-.215-.264-.223.048.051.182.123.228.167m-.678-.084a.6.6 0 0 0 .11.09c.078.027-.075-.103-.11-.09m.35.227c-.058-.023.049.062.087.078.01-.009-.077-.074-.086-.078m20.427 14.98c-.067.049-.126-.058-.024-.037.005.001.027.034.024.036M.304 16.737c.06.024-.047-.062-.085-.078-.011.009.077.075.085.078M20.972 31.93c-.088.036-.057-.085-.046-.09.045-.019.201.029.233.04-.233-.018-.145.033-.187.05m-.407-.072c-.082-.013.127-.038.167-.004-.04-.002-.144.007-.167.004m-.498.038c-.044.005-.175.015-.197-.004.049.003.179-.015.197.004m-.1.057c-.068.026-.085-.05-.005-.027.003.001.008.026.006.027m-.386.027c-.046.03-.097-.043-.024-.044.022-.001.029.04.024.044m1.28.08c-.064.013-.148-.04-.01-.045l-.145-.024c.18-.03.168.043.22.04.072-.004.067-.064.052-.083.06.037.312.038.458.044-.128.016-.337.042-.463.052-.036.003-.072-.013-.102-.012-.05.003-.006.027-.01.028m-1.79-.079c-.132.034-.048-.039.027-.026.003.001-.023.026-.026.026M.034 16.82c.163.076.08-.03.35.232-.103-.125.011-.031-.004-.063-.012-.025-.094-.068-.034-.06-.075-.015-.32-.195-.333-.199-.008-.002-.03.066.021.09m20.034 15.266c-.044.09-.062-.052-.149.022-.116-.107.32 0 .373-.09-.474.01.313-.09-.018.045.273-.049.09.017.132.034.045.018.199-.001.19.032l-.282-.007c.092-.072-.1-.05-.166.008zm.533-.066c-.01.001-.214-.009-.2-.023.027-.01.317.002.2.023m.902.015c-.074 0-.187.014-.227-.013.073 0 .187-.014.227.013m-3.789.005c-.094-.022.195-.028.112-.002zm2.14.033c-.095.027-.05-.06.02-.037.005.002-.015.036-.02.037M.146 16.911c-.007.02.213.155.25.181-.01-.03-.242-.205-.25-.181m21.486 15.203c-.146.076-.345-.012-.366-.01s.012.035.007.036c-.011.002-.242 0-.253-.003-.008-.002.034-.048-.014-.063.093.026.515.01.537.015.016.004-.111.053.09.025m-.42 0c.057-.02-.105-.022-.144-.014-.087.016.136.017.143.014m-.39.019c-.018.004-.185.008-.199-.014.08-.028.241.003.2.014m-1.853-.003c-.043-.003-.162.014-.17-.006.044.003.163-.014.17.006M.772 17.548c-.068-.028.065.073.109.094.01-.009-.104-.091-.11-.094m19.065 14.707a10 10 0 0 1-.621-.018c.072-.014.59-.015.613-.008.007.002.012.025.008.026m1.13.009c.049.028.08-.006.086-.006.059-.005.182.002.155-.025-.105.01-.336-.025-.24.03m-2.036-.008c-.178-.01.163-.04.118-.01-.002.002-.1.011-.118.01m.965.007c.039.023.562.003.646.003-.076-.041-.136-.01-.237-.012-.027 0-.02-.018-.023-.018-.047 0-.012.02-.041.02-.018 0-.4-.025-.345.007m1.099.02c.03.016.355.023.369.019.098-.032-.344-.024-.37-.019m-1.147.017c.056.049.316.016.138-.008-.017-.002-.089.019-.138.008m-.898.003c-.01.001-.194.01-.197-.005.026-.006.296-.011.197.005m.096.052c-.005 0 .038-.03-.048-.026-.008 0-.021.033-.13.021-.022-.002-.056-.025-.054-.026.114-.052.456.048.232.03M21 32.31c-.018.014.025.056.063.035.016-.009-.014-.034-.063-.035m-2.638.006c.108.026-.23.03-.247.024.01-.016.236-.026.247-.024M.798 17.806c.077.046.043-.003.047-.001.176.084.107.094.128.116.046.047.071-.007.147.075-.128-.132-.002-.026.014-.04.065-.058-.22-.104-.283-.17-.009-.01.083.021.06-.004-.07-.08-.41-.157-.113.023m20.295 14.543c.043.025.36 0 .276-.02-.013-.003-.337-.016-.276.02M5.916 32.22c.124.065-.189-.015-.24-.065-.025-.02.188.04.24.065M4.38 30.916c-.07-.163-.034-.35.02-.157.005.02-.002.169-.02.157m6.57 1.515c-.095.033-.09-.027-.02-.026.025 0 .023.025.02.026m-3.631-.008c-.01.002-.126-.003-.122-.017.044-.008.185.003.122.017m3.661.017c-.056-.01.04-.054.11-.012-.036-.003-.104.013-.11.012m8.673-.008c-.047-.025-.18-.017-.257-.021-.009.031.202.015.257.02m-14.91-.997c-.069-.122.13.097.092.094a1 1 0 0 1-.093-.094m9.27 1.008c-.063-.019.136-.044.081-.01zm.867-.01c-.047.006-.25.004-.171-.015.012-.003.168-.003.171.014M.965 17.942c-.04.012.087.09.107.098.008.003-.056-.114-.107-.098m9.367 14.494c-.049-.005-.176.003-.199-.014.06.004.215-.02.2.014m-5.14-.553c-.12-.046-.27-.196-.2-.193.167.157-.054.017.2.193m6.103.594c-.04.003-.07-.042-.065-.044.043-.02.104.027.065.044m-2.955-.037c-.003.02-.129.01-.112-.001.005-.005.113-.014.112.002m9.658.002c-.058.017.119.034.171.014.026-.03-.164-.016-.171-.014m-5.61.024c.005.028-.192.012-.114-.011.02-.006.112.002.114.01m1.889.034c-.132-.034.424-.058.277-.016-.01.003-.265.019-.277.016m.908-.021c-.023.003-.012.098.083.062.012-.005-.046-.03-.036-.036.006-.003.212-.017.221-.014.01.002-.002.033.009.036.011.004.138-.023.204-.023.125 0 .139.024.149.025.03 0 .08-.018.14-.018.305 0 .771.021 1.013-.032-.215.022-.42-.001-.634-.008.063.052-.315-.04-.094.02a15 15 0 0 0-1.055-.012M4.167 30.327c-.02.084-.076-.332-.035-.356.006.042.033.34.035.356m1.2 1.85c.027.02.036.068.128.125a.8.8 0 0 0 .18.077c.08.024-.002-.027.015-.027.007.003.252.061.06-.017-.295-.138-.048.034-.208-.042l-.032-.02c-.066-.042-.212-.162-.197-.16.002 0 .069.05.082.055.051.017.04-.014.046-.01.007.002.045.028.099.06.146.09.387.182.435.172.016 0-.214-.072-.424-.193-.137-.077-.253-.162-.264-.167-.016-.007-.041.042-.06.036-.012-.001-.226-.197-.255-.22l-.021-.014c.042.018-.144-.162-.151-.146-.004.01.127.134.134.137l.006.003c-.051 0 .44.373.32.316.142.113.002-.05.107.035m.855.362-.049-.028c.297.075.565.06.801.068.06.002-.009.035.069.027.063-.006.13-.038.097-.045-.008-.002-.133.017-.198.012-.195-.014-.146-.043-.157-.044-.013-.002-.144.012-.221.003a7 7 0 0 1-.634-.116c.194.075.08.091.292.123m7 .013c.006.02.125.002.168.005-.006-.019-.126-.002-.169-.005M3.88 21.288c.025-.034.075.157.039.112a1 1 0 0 1-.04-.112m.136.984c-.007.034-.035-.1-.011-.1.007 0 .012.096.011.1m4.777 10.314c.007 0 .108-.006.11-.008.067-.033-.264-.014-.11.008M3.996 23.72c.02-.127.03.256.004.139zm-.005.535c0-.031-.01-.167 0-.169.015-.002.026.153 0 .169m7.33 8.34c-.014.036.165.01.228.014.015-.035-.165-.009-.227-.013m-1.131.027c.756.027.59-.048-.045-.017-.001.022-.003.015.045.017m.968-.005c-.027-.022-.113-.015-.171-.014.01.016.13.01.171.014M3.766 21.072c-.01.027.019.093.04.131.013.02.024.032.026.022l-.007-.027c-.015-.05-.05-.14-.059-.126m5.09 11.544c-.018.034.21.02.227.013.07-.031-.209-.005-.227-.013m3.539.01c.04.027.154.013.227.012-.033-.023-.165-.013-.227-.012m-.529.02.112-.002c.083-.026-.206-.02-.112.003M.548 17.946l.07.046c.071.018-.122-.11-.07-.046m9.572-.442c-.007-.003-.033.004-.045.003.013.034.068.009.045-.003m-1.172-2.46.028.026c-.027.005-.063-.001-.088.007-.004.001.007.025-.003.026-.01.002-.008-.032-.022-.035-.016-.004-.088.02-.113.018-.094-.002-.188-.02-.282-.007.097.025 0 .05-.028.039-.006-.003-.005-.064-.102-.049-.062.01-.005.098-.108.054.08-.061.002-.057-.06-.06-.011 0-.098.01-.136.007-.013 0-.033-.033-.05-.034-.012 0-.021.017-.039.016a2 2 0 0 0-.246 0c.048.084-.038.036-.042.04-.02.023.07.029.034.043l-.148-.008c.04-.01-.053-.07-.07-.042.007-.074-.225.063-.26.039-.008-.005.04-.041-.072-.025-.012.002-.007.024-.013.022-.004-.001-.027-.071-.052-.033-.009.015.049.06-.077.042.05-.071-.175-.039-.216-.02l.025-.03c-.041.026-.048.002-.058.003-.037.006-.088.03-.122.028-.04-.002-.04-.047-.088-.03l.034-.03-.098.008c.075.059-.016.003-.022.002-.01-.003.004.021-.012.018-.002 0 0-.023-.024-.025-.052-.006-.044.023-.066.023-.002 0 .005-.02-.032-.026-.12-.015 0 .016.005.019.006.003-.035.089.066.059-.034.01-.037.047-.04.048l-.067-.006c-.029-.013-.003-.038-.009-.043-.004-.004-.075.03-.092-.048-.034.072.02.065.077.076.008.015-.055.03-.058.03-.08-.001-.036-.06-.054-.098-.01-.02-.042.02-.012-.032-.073-.006-.029.025-.033.03-.007.006-.033-.009-.036-.007-.005.003.011.021-.007.028-.003 0-.033-.03.005-.046-.051.005-.047-.022-.065.032-.035-.102-.025.06-.04.066-.037.015-.026-.065-.028-.069-.013-.025-.116.003-.142-.009.01.058.082 0 .098.012.053.037-.075.029-.037.102l-.048-.06c-.03.046.012.067-.068.05-.013-.04.057.006.043-.026-.009-.018-.055-.022-.056-.032-.001-.012.04.002.034-.016-.014-.04-.168-.002-.05.02-.033-.001-.05.077-.078.052-.019-.015.084-.123-.07-.104-.003.037.062.011.063.014a1 1 0 0 1-.011.092c-.007.013-.165-.031-.198.01.013-.048-.119-.008-.133-.023-.004-.004.01-.033.006-.037-.025-.018-.095.035-.127.036-.035.002-.03-.024-.033-.024-.016.002-.003.019-.013.019-.014 0-.115.003-.12 0-.001-.001.015-.03-.006-.036-.004-.001-.002.033-.067.019-.077-.018.055-.043.022-.08-.05.052-.048 0-.062.005-.004.001-.04.045-.077.042l.081.021c-.026.008-.078-.002-.1.007-.011.004-.002.04-.026.039-.005 0-.024-.088.037-.049.005-.03-.024-.01-.038-.02-.002 0-.01-.052-.027-.02-.005.008.04.159-.076.05-.004-.004.01-.023.006-.027-.003-.002-.032.005-.036.002-.003-.002.011-.023.007-.027-.02-.021-.047.06-.005.055l-.042.03c.015-.062-.022-.017-.042-.02-.125-.011-.041-.052-.063-.072-.035-.034-.008.072-.06.04-.004-.003.058-.048-.064-.022l.054.005c-.01.06-.065-.004-.069-.005-.047-.008-.015.013-.086-.017-.006-.003-.02.012-.034.004-.056-.03.074-.018.078-.042.002-.012-.138-.01-.143-.004-.02.025.063.011.047.042-.005.011-.205-.011-.245 0-.046.015-.067.096-.067.005-.013.09-.024.028-.03.029-.072.008-.072.009-.133 0-.013-.001-.025.026-.03.021-.002-.003.003-.032-.01-.04-.02-.013-.133.017-.142.033s.048.007.038.033c-.04.003-.08-.004-.121 0-.017 0-.008.019-.016.02-.003 0-.062-.017-.06-.024.006-.015.189-.005.14-.037-.009-.006-.041.036-.036-.015L3 15.145c.094.038.2.004.297.007.014 0 .059-.004.053.022-.083.007-.186-.007-.266.01-.003 0 .006.024-.003.028-.018.007-.077-.031-.086-.021-.002.002.031.033.021.053-.026.05-.032-.062-.055-.06-.017 0-.133.055-.162.02-.03-.036.086-.02.077-.05-.078-.03-.158.002-.232-.002-.001 0 .01-.023-.007-.027-.028-.005-.036.028-.05.033s-.069.001-.076.013c0 .002.01.034.012.035.023.014.031-.029.033-.03.008 0 .016.015.023.014.012-.001.02-.016.035-.018.01 0 0 .028.01.027.005 0 .046-.067.05 0 .001.022-.339.05-.373.033l.088-.025c-.06.02-.13-.034-.136.046l-.658.02c-.04.006-.018.057-.082.043l.05-.05a.7.7 0 0 1-.204.024c-.003-.002-.007-.048-.044-.052-.032-.004-.037.031-.055.038-.014.005-.03-.004-.035-.002-.003.002-.005.023-.013.027-.025.011-.004-.049-.03.02l.019.008c-.03.01-.072.041-.027.056.007.003 0-.018.007-.018.225.004.045.044-.034.012-.02.03-.134.012-.138.018-.005.009.015.033-.01.054-.006.005-.158-.012-.103.028.01.009.084 0 .101.001-.041.065-.138-.028-.149-.026-.044.01.085.056-.014.064-.076.006-.005-.037-.034-.056-.017-.01-.103.037-.1-.024-.03-.007-.013.026-.016.028s-.062-.016-.08-.003c-.003.001.004.033.002.036a.2.2 0 0 1-.063-.005c-.001-.002.012-.03.006-.036-.006-.008-.06-.002-.063-.01-.004-.012.063-.004.051-.035-.03.008-.08-.013-.1-.038.004.007.034.008.045.005-.005-.045-.07-.045-.047-.008-.014-.02-.005-.03-.013-.049-.002-.004-.021-.005-.025-.013 0-.002.02-.02.016-.028-.008-.017-.067-.014-.072-.01-.014.013.035.029.039.048 0 .003-.041.04-.042.044-.002.036.044.01.039.042l-.035.021c.044.033.126.016.147.053-.065-.01-.134-.01-.134.074 0 .036.029.056.027.065-.004.033-.043-.002-.044 0l-.002.005c0 .019.056.032.059.041.004.015-.02.078-.02.092 0 .003.04.018.027.042s-.049.025-.05.027c-.006.015.054.028.056.037.001.005-.032.031-.033.04 0 .007.024.024.034.048.008.018-.014.032-.01.035.003.002.06.002.063.005.004.005-.01.026-.007.032.002.008.02 0 .019.008-.002.006-.074.08-.074.1.001.035.077-.044.006.091 0 .001-.017-.009-.018-.008-.01.025.045.063-.023.057.126.043.016.05.035.108.007.022.055.032.056.035-.005.028-.02.006-.026.02-.003.008.04.037.031.056-.005.01-.051.007-.053.009-.019.018.004.038 0 .05-.003.01-.03.01-.031.012-.002.003.036.038.044.05.006.01-.016.025-.012.029.025.025.079-.038.027.05-.003.005-.023.003-.023.004-.012.025.024.027.03.048.011.035-.04.016.002.04-.032.024-.05.023-.088.016.105.018.142.11.026.108.037-.002.033.05.044.05.006.001.06-.05.035.065-.003.014-.035-.004-.025.026.078-.008.002.018.002.022 0 .068.192.013.224.02.038.01.072.063.08.063.028 0 .005-.027.011-.037s.084.042.088.04c.015-.012 0-.045.001-.046.019-.02.123.005.152-.002-.001.02-.06.022-.023.056.042.039.045-.053.046-.057l.584.002c-.002.05-.13.012-.133.019-.017.038.198.038.225.02l-.06.032c.034.056.11-.017.159.008.016.008-.015.03-.014.031.018.022.047.005.025-.024.044.028.038-.003.071-.005.002 0-.012.022.014.032.013.004.08.004.088.024.004.008-.03.096-.034.02-.072.038-.023-.034-.051-.032-.005 0 .005.043-.066.023.014.076.095.019.11.028.028.02-.09.059-.112 0 .01.059-.009.007-.035.01-.03.002-.017.02-.032.02-.043 0-.025-.042-.06-.004.034-.117-.061-.015-.089.016l.135.017-.008.019.036-.003-.006-.017c.062.038.076-.005.081-.006.065-.005.139-.004.204-.004.01 0 .003.038.074.008.023-.01.001-.04.027-.035.032.081.031.016.04.016.028 0 .045.02.048.02.033.004.083 0 .12.003 0 0-.018.026.006.018.008-.002.084-.109.15-.074l-.051.021c.02-.01.163.017.128.046-.021.017-.074-.052-.08.014.048-.02.31.01.33-.005.003-.002-.014-.024-.01-.026.003-.003.063.003.07-.006.006-.005-.021-.018-.019-.025.002-.006.077-.015.081.012-.018-.01-.07-.002-.043.021.004.003.022-.014.026-.01.04.032-.078.024-.096.024.074.035.188-.006.273.017.035-.023-.051-.035-.012-.053.081-.039.022.03.024.034.02.022.09-.099.09-.007.029-.014.019-.025.06-.013l-.016.019c.046.053.144-.081.136-.091-.02-.028-.07.015-.074.014-.007-.002-.025-.095-.095-.011-.029-.063.112-.043.048-.085.043.007.22-.037.246-.01.003.004-.012.067.032.035.021-.015-.03-.016-.02-.03.03-.044.428-.016.503-.014.005 0 .003-.019.008-.019.015 0 .069.03.096.02-.055.037.051.04.078.035.042-.006.039-.04.057-.047.068-.028.175.053.228-.023-.003.076.092-.036.135-.037.034 0 .083.05.038.08.058-.004.12.01.174.015.01 0-.003-.022.013-.02 0 0 .003.022.016.024.11.02.056-.027.077-.04a.1.1 0 0 1 .026-.013c-.064-.004-.137-.013-.157-.014.017-.047.141.01.178-.003l-.002-.027c.014-.002.101.007.083.039-.005.008-.045.008-.092.005.013.006.003.036.005.037.028.015.095-.014.12-.018.005 0 .004.018.005.018.022-.004.013-.058.036-.002.039-.068-.074-.01-.066-.054.006-.034.258-.016.257.037q0-.008.011-.02c.016-.018.086-.013.099-.003.002.002 0 .054.003.054.007.001.092-.04.124-.009l-.051.022c.104 0 .088.016.053.031q-.002.001-.005.003c-.027.011-.062.022-.062.026-.002.016.175.024.141-.023-.005-.007-.087.014-.046-.02.007-.006.06.004.062 0 .019-.025-.096-.058-.082-.094.028.034.064.016.096.025.014.004.018.03.02.03.027.007.011-.02.02-.02.005.001.058.059.048-.02.175.058.048.058-.059.053.034.03.1.015.13.022.01.002.005.029.023.034.037.011.214-.02.26-.026-.028-.01-.02-.039.002-.037s.003.04.008.045c.004.004.107-.014.124-.009-.077-.014-.06-.043.006-.046l-.029-.025c.039.012.12-.032.142-.02.003.003-.01.027-.007.029.019.01.085-.015.088-.007.003.007-.025.028-.015.038.002.002.03-.031.057-.023.01.003.003.026.006.027.02.011.009-.027.047-.021.028.004.049.042.087.03-.127.048-.02.028.033.042.009.003.001.044.052.024-.108-.075.031-.04.06-.04.001 0 .002-.028.016-.029.001 0 0 .019.012.02.123.014.045-.007.068-.026.01-.007.07.019.086.02.004 0 .002-.02.016-.019.026.001.048.022.065.024.002 0 .002-.03.034-.02.009.002.019.013.006.021-.042.03-.122-.02-.17.008-.042.026.094.029.101.029.003 0-.024-.015.003-.018.023-.003.066.05.1.039.003-.001.03-.046.03-.049-.002-.001-.044-.011-.038-.024 0-.002.027-.001.031-.01.004-.013.016-.127.022-.13.014-.007.005.019.014.017.02-.004.092-.038.094.002l-.035.007c.065.004.037.021.046.029s.008-.027.03-.03c.004-.001.096.006.095.02-.051-.023-.032.02-.035.021-.009.003-.02-.021-.032-.02-.084.003 0 .041-.02.051-.006.004-.02-.017-.022-.016-.01.003-.01.03-.016.028-.015-.005.002-.043.001-.045-.013-.024-.064.006-.032.048-.02.015-.022-.036-.037-.016-.03.04.015.03.027.037.044.024.057.004.12.01.022.003.049.028.06.03.006 0 .068-.086.07.049.024-.013.061-.102.086-.098.022.004.015.051.017.053.004.003.03 0 .04.006.01.008.005.026.022.034.042.018.041-.03.045-.034.05-.036.029.033.04.038s.156-.021.186-.004l-.037-.029c.022-.03.046.02.046-.035.005.087.051.029.065.031.005.001.005.016.012.017.026.002.087-.01.101-.002.063.033-.097.087-.11.09.025 0 .168.019.102.06-.01.007-.028-.032-.034-.034-.038-.01-.008.026-.01.029-.006.005-.031-.029-.038-.025-.002.002.012.034-.025.034.019.031.122.006.135.013.005.003-.025.069.063.005l-.003.018.148.007c-.006-.014-.033-.042.002-.036.02.004.005.035.007.036.018.009.336-.002.397.002.021 0 .08.026.084.026.027.003.121-.014.14-.01.012.002 0 .029.011.027.01 0 0-.026.003-.027.024-.01.206.024.25 0-.027.007-.159-.044-.156-.061 0-.003.032-.022.04-.013.01-.022.048.045.068.032.002-.002-.007-.039.03-.046.012-.002.045.027.078-.006.048.016.3-.032.318.008 0 .002-.035.016-.011.032.032.022.003-.052.04-.058.006-.001.11.006.112.01.032.042-.059.06-.057.064.003.012.078.02.08.017.004-.003-.057-.058.016-.037l-.025.02c.035.012.038-.026.046-.028.026-.008.054.05.096-.021.011-.02-.007-.04-.006-.043.014-.026.03.043.05-.008.002-.004-.045-.034.037-.035l-.017.015c.011.011.093.017.104.015.033-.008.005-.043.037-.038-.02.047.078.054.072.012.014.052.098.012.137.011.025 0 .076.022.084.02.01-.004.006-.04.024-.047.005-.003.056.023.102-.013.009-.007.027-.067.01-.082-.027-.026-.08.022-.08-.013.001-.038.072-.015.092-.02.088-.023.037-.064.04-.076.005-.03.054-.029.056-.031.008-.012-.026-.036-.027-.054 0-.023.046-.066.036-.074-.015-.011-.058.024-.061.023-.035-.023.013-.078.027-.105.004-.008-.013-.021-.01-.024.052-.037.011.077.046.07.03-.008-.01-.043-.008-.045s.038-.005.044-.017c.002-.006-.092-.076-.088-.107l.09.02c.003-.04-.04-.01-.045-.015-.01-.008.016-.029.015-.042 0-.008-.03-.037-.003-.05.009-.003.028.025.061-.004-.116-.037-.035-.06-.032-.075s-.052-.048.015-.042c.003-.08-.001-.025-.02-.039-.024-.017.03-.043-.055-.023.005-.037.074-.035.077-.038s-.012-.02-.007-.027c.065-.072.02-.039.04-.085.001-.004.062-.02.016-.027-.085-.012-.12.04-.135-.072.063-.05.139.023.158.025.03.002-.001-.021.003-.028 0-.002.026 0 .026-.002.018-.086-.112-.001-.152-.016l.032-.039-.044-.001c.07-.026.002-.01-.015-.08-.004-.015.042.012-.01-.032.038-.01.026-.024.061-.004 0-.028-.08-.06-.112-.074.111-.031.048.071.144.017.018.034-.028.028-.024.033.013.02.044-.012.082.06.007.012-.02.048.02.046a.1.1 0 0 0 .028-.033c-.003-.024-.028-.015-.029-.026 0-.009.026-.003.027-.006 0-.03-.023-.012-.02-.021.008-.02.106-.086-.022-.067.106.034.013.034-.028.02-.01-.003-.013-.021-.028-.027-.02-.008-.042 0-.052-.003-.011-.004.05-.047-.038-.034.045-.043.124.003.168-.027.09-.06-.062-.073-.078-.08-.004 0 .01-.025.008-.027-.005-.002-.09.01-.1-.011-.008-.02.032 0 .035-.02.002-.015-.102-.04-.046-.05.039-.006.11.051.122-.01l-.17-.016.093-.07c-.064-.007-.12.02-.18-.014.146-.075-.047-.06-.05-.07 0-.005.057-.065.067-.077-.051-.023-.206-.034-.115-.11-.017.018-.056-.024-.056-.027.005-.034.092-.012.078-.042-.017-.035-.04.012-.065.008-.129-.02-.093-.192-.223-.165l.008-.018-.422.03c-.055-.054-.202-.086-.274-.08a.5.5 0 0 0-.09.034c-.01.009.044.013.02.03-.006.004-.127.015-.118-.014.014-.004.056.011.063.004.048-.05-.323-.01-.342-.03l.025-.029zm1.077 2.376c.014.03.049.007.07.016.029.011.077.126.056.011zm-.618.044c.028-.016.006-.08-.017-.053-.002.003-.021.075.017.053m.297-.03c-.001-.001-.026 0-.026.002-.022.025.051.02.026-.002M8.27 17.4c.031.003.009.061-.01.037a.1.1 0 0 1 .01-.037m.022-.002c.025-.052.073.054.035.043a.2.2 0 0 1-.035-.043m1.217.04c-.003-.02-.032-.01-.045-.006 0 .019.033.004.045.006m-.741-.006c-.001-.015.1-.015.107.006-.016-.009-.106.008-.107-.006m-.26-.022c.002-.003.037.002.036.015-.017.019-.048-.003-.037-.015m-.518.001c-.002-.003.024-.091-.038-.034-.01.009.023.032.02.035q-.01.01-.017.01c.03.007.06.01.062.005.014-.025-.027-.014-.027-.016m-.272-.066c-.006-.014-.044-.006-.053 0-.002 0 .005.039-.012.036-.014-.003.006-.041-.02-.035-.028.006.009.034.006.036s-.045-.015-.044.007c.001.017.046.006.058.01.014.004-.003.032.02.026.015-.004.007-.053.01-.055s.055.026.035-.024m.23.075.007.002zm1.996-.022c-.015.015.029.034.045.014 0-.016-.043-.017-.045-.014M7.92 17.38c-.043.012-.012.029.027.04-.013-.01-.013-.044-.027-.04m1.223.02a.04.04 0 0 0-.003.019q.007-.015.003-.019m-.1.017c-.035-.029.035-.027.035-.007 0 .008-.034.008-.035.007m-.814-.014c.003-.003-.046-.089.025-.024-.038.01.002.02.002.027-.002.021-.066 0-.08.01-.01-.039.043-.004.053-.013m-1.002-.037c.008.023.036.016.054.014-.008-.022-.036-.015-.054-.014m-4.839.003c.127.021.143-.07.027-.034-.002 0-.035.025-.027.034m1.088-.023c.011-.04-.028-.047-.054-.03-.006.003-.028.044-.003.052 0-.049.038-.067.056-.022m4.42.008c-.013-.027-.052-.008-.072-.004.012.022.053.012.071.004m-5.092-.032c.014-.004.023.031.02.034-.01.014-.035-.015-.02-.035m5.216.028c.002-.016-.05-.032-.053.008.011-.003.052.002.053-.008m-.758.004c.008-.008-.034-.022-.046-.014 0 .017.04.02.046.014m-4.243-.02c.012-.004.042-.005.046.01.004.017-.04.011-.046-.01m-2.225-.031c-.001.006.045.052.066.04.039-.022-.064-.045-.066-.04m1.884 0c-.038.034.004.002.003.037-.026 0-.089.003-.046-.032.009-.007.031-.002.043-.005m.035-.011c.004.011.031.047.008.044-.011-.001-.029-.04-.008-.044m-1.632.026c.034-.03-.121-.014-.126-.009l-.004.008c-.006-.01-.035-.011-.039.014.01-.003.033 0 .036-.003l.003-.003c.01.021.124 0 .13-.007m.257-.032c-.039-.045-.046.032-.042.035.042.032.014-.026.016-.028.003-.005.032.022.026-.006m-.204.02-.036.002c-.026.026.066.02.036-.002m6.378-.015c-.023.008 0 .036.015.026.001 0 .005-.033-.015-.026m-4.78.008c.005-.005.143-.025.134.018-.011-.005-.168.017-.135-.018m1.03-.01c-.024 0 .002.041.015.026.005-.006-.009-.026-.015-.026m4.327.024c.025.022.02-.053-.002-.027zm-4.521 0c.083.024.064-.105-.045-.061l.01.017c-.126.02-.009.009.022.016.012.003.002.024.013.027m.322-.026c.08-.092-.074-.032-.118-.044.043.037.099.032.023.07.11.008.065-.029.07-.032.004-.003.021.01.025.006m-.213-.001c-.005-.003-.04.016-.053.013.018.031.084.005.053-.013m-2.07.022c-.003-.025-.01-.043-.038-.034.009.013.026.023.038.034m8.444-.018c.02-.002.058-.011.046.015-.001.002-.045 0-.046-.015m-6.92-.01c.005-.004.11-.006.074.022-.011.008-.107.004-.073-.023m-.544.003c.01 0 .045.004.046.01.002.02-.042.009-.046-.01m7.56-.018c.003-.003.062.002.055.014-.012.022-.063-.006-.054-.014m-2.72-.031c-.005-.001-.011.025-.013.026-.004 0-.093-.01-.059.024a1 1 0 0 0 .15-.01c.007-.037-.048-.003-.06-.006-.003-.001-.005-.032-.018-.034m-5.965.048c-.004-.023-.109-.039-.107-.01zm.054-.004c.022-.016-.03-.022-.046-.015 0 .016.042.017.046.015m1.27-.082c.011.005-.021.04-.014.046.005.004.028-.009.036.002.002.003-.022.035-.03.034s0-.027-.01-.027c-.036 0-.068.017-.101.017-.003 0 .02-.018-.006-.018-.004 0-.028.026-.059.023-.068-.082-.118-.002-.205-.031a.3.3 0 0 1 .072-.03c.073-.013.202-.014.278-.015.02 0 .01.018.019.018.006 0-.002-.031.02-.02m7.255.076c.01-.032.041-.012.062-.013-.008.029-.042.006-.062.013m-8.054-.019c.01.001.042-.008.045.001.003.013-.043.02-.045 0m4.936-.01c0-.001-.025 0-.026.002-.022.025.052.02.026-.002m-.588.006c-.02-.004-.038-.014-.044.012.012-.004.046.006.044-.012m-.813 0c.004-.035-.052-.013-.063-.01.004.015.06.034.063.01M1.611 17.2c-.034.002-.027-.05-.049-.026-.003.004-.015.111.023.07.007-.006-.02-.032.026-.044m1.894.052c-.009-.023-.036-.016-.055-.015.004.017.042.013.055.015m6.748-.014c.016-.032.09-.008.072.013-.002.003-.061-.014-.072-.013m-2.445.012c-.03-.024.033-.032.053-.008-.01-.001-.05.01-.053.009m-2.09-.021-.036.002c-.027.026.065.02.035-.002m.81-.022c-.012-.021-.088-.004-.106.016.017.03.12.01.106-.016m-4.776.008a.2.2 0 0 0-.07.014c.005.017.068-.002.07-.014m3.846.011q-.002.001-.005.003zm-3.297-.024c.02-.006.016.025.015.026-.016.01-.038-.018-.015-.026m7.764.022c.007-.029.041-.006.061-.013-.005.022-.045.016-.061.013m-6.089.003c.026-.031-.079-.067-.101-.047-.002.019.097.051.101.047m3.927-.02c.002-.022.046.005.037.016-.006.006-.038-.002-.037-.015m-4.08-.014c-.01-.007-.034.015-.026.029.01.017.028-.027.025-.03m-.886-.018c.005-.004.063.02.039.042-.017.016-.02-.016-.024-.016s-.097.04-.015-.026m1.627.032c-.022-.008-.048.002-.071.001.01.014.062.018.071 0m3.17-.005c.004-.01.15-.015.067.013-.005.002-.084.014-.068-.014M1.61 17.2l.015-.004zm.39-.003c-.008-.017.032-.021.044-.012.003.02-.043.014-.044.012m2.49-.012c-.013-.01-.037 0-.053 0 .002.015.047.016.053 0m.927-.017c-.027.01-.059.005-.06-.014l-.003.01c-.002.003-.03-.006-.043 0-.073.038.282.022.077-.03zm1.214-.005c.015-.023.057.005.046.014-.008.006-.06.009-.046-.014m-.572-.014c.004-.004.045.012.046.024-.023.013-.066-.005-.046-.024m.687-.013c.009-.003.02.033.02.035-.01.013-.036-.014-.02-.035m-5.065-.034c.014-.01.058.016.068.04a.1.1 0 0 1 .015-.018c.012-.01.37-.02.13.026-.007.001.003-.02-.028-.017-.002 0-.003.018-.009.02-.014.001-.09.012-.106-.002l-.003.01c-.02.025-.078-.051-.067-.06m4.297.044c.009-.006.034 0 .037.015-.013.008-.056 0-.037-.015m1.759-.008c.016-.013.059.01.046.023-.008.008-.066-.009-.046-.023m-1.5.017c-.095.018-.022-.002-.037-.025zm-4.998.006c.015-.006-.003-.05-.02-.026-.005.008.011.029.02.026m-.689-.014c.013-.04-.05-.017-.025.01 0 .002.024-.009.025-.01m.481-.017c.01.027.017.03.047.024-.044-.008-.004-.032-.047-.024m4.327.021v.003zm1.477-.008c.012-.023.046-.021.036.002-.001.002-.03.015-.036-.002m-5.086-.001q-.002.005.002.009 0-.004-.002-.01m4.906-.017c.002.017-.05.023-.052.021-.029-.03.031-.022.052-.021m1.42-.012c.002.002-.015.047-.026.03-.008-.014.015-.036.025-.03m-7.143.006c-.016 0-.039 0-.043.021.011-.003.044-.005.043-.02m-.357-.001c.02.024.063.024.09.02.001-.032-.072-.013-.09-.02m1.062-.004c.002-.002.042-.011.037.01-.008.033-.048.002-.037-.01m6.358.023c-.018-.015.024-.061.043-.026.01.019-.04.028-.043.026m-1.055-.024c.024.013-.035.035-.043.012.01-.001.035-.016.043-.012m-.814-.023c.076-.066.035.054.021.044a.2.2 0 0 1-.02-.044m4.313.016c.011.01-.029.043-.034.02-.003-.013.027-.026.034-.02m-3.282-.081c-.053.093-.047.021-.052.022-.01 0-.033.026-.052.022l.065.031c-.017.007-.165.041-.168.026-.004-.021.042-.015.044-.017s.009-.062.013-.064c.007-.004.13-.005.15-.02m-.873.075c-.012.008-.016.031-.021.026-.002-.002-.003-.025-.01-.03q.015.001.03.004m.968.009c.015-.028-.052-.018-.054-.014-.012.018.042.036.054.014m-.571-.004c.002-.002.054-.01.054.005-.014.011-.083.015-.054-.005m-.435-.011c-.018.002-.053.025-.049-.009zm1.687-.029c.034-.054.018.014-.012.032-.009-.024.007-.023.012-.032m.108-.04c.01-.01.106 0 .091.03-.005.01-.06-.016-.063-.014-.004.003.014.034-.016.028.002-.01-.015-.041-.012-.044m-.08.005c.034-.04.041.035.016.035-.01 0-.02-.029-.016-.035m-.136.007c.012-.007.044-.018.066.007l-.089.007c-.003-.014.012-.008.023-.014m-7.45-.114c.026-.021-.036-.03-.038-.024-.008.017.025.034.037.024m10.272-.507c.007-.008.012-.037.029-.022l-.05.063c-.012-.048.013-.031.021-.04m.063-.174c-.003-.002.01-.075-.02-.026-.02.033.09.065.11.033-.023-.015-.07.002-.09-.007m.192-.318c0-.006-.04-.015-.046-.01-.025.02.039.04.046.01m-.133.013c.02-.014-.024-.023-.037-.015-.001.014.034.018.037.015M.644 15.86c.022-.05.04.057.008.036a.2.2 0 0 1-.008-.036m10.218-.01c-.02.015.024.024.037.016 0-.014-.034-.018-.037-.016M.659 15.74c.028-.035.018.085.015.09-.014.02-.064-.028-.074-.04.074.019.046-.032.06-.05m.13.073c.026.013-.04.038-.053.004.013.002.045-.008.053-.004m.158-.039c.014-.004.056-.014.063.005-.016-.004-.057.015-.063-.005m.032-.056c.022-.026.027.049.002.027zm.123-.027c.014-.03.03.042.007.044-.007 0-.009-.041-.007-.044m-.408-.08c.021-.013.048.04.004.045l.046.024c-.058.03-.053-.043-.07-.04-.023.004-.021.064-.017.082-.018-.036-.099-.037-.145-.044.04-.015.107-.042.147-.051.012-.003.023.013.033.011.015-.003.001-.026.002-.027m.57.079c.042-.034.015.039-.009.026zm9.654-.062c-.057.03-.016.071-.134.01.05.043.003.031.013.049.008.014.037.002.02.03.022-.03.118-.022.123-.027.002-.003-.004-.071-.022-.062m-9.97-.045c.013-.088.019.053.046-.021.037.107-.101 0-.118.09.15-.01-.1.09.005-.045-.086.049-.028-.017-.041-.034-.015-.019-.064.001-.061-.032l.09.007c-.03.071.032.05.053-.008zm-.17.067c.003-.001.068.009.063.023-.008.01-.1-.002-.063-.023m-.287-.015c.023 0 .06-.014.072.013-.023 0-.06.014-.072-.013m1.205-.005c.03.022-.062.028-.036.002zm-.681-.033c.03-.027.016.059-.006.037a.2.2 0 0 1 .006-.037m9.857.02c-.002-.02-.084-.006-.098-.006.008.02.1.031.098.007M.45 15.557c.046-.076.11.012.116.01s-.004-.036-.002-.037a1 1 0 0 1 .08.004c.003.002-.01.048.005.063-.03-.027-.164-.01-.17-.015s.034-.053-.03-.025m.134 0c-.019.019.033.021.045.014.028-.016-.043-.017-.045-.015m.123-.019c.006-.004.059-.008.064.014-.026.028-.077-.003-.064-.014m.59.003c.013.003.051-.014.053.005-.013-.002-.051.014-.053-.005m9.296-.088c.023-.016-.03-.023-.046-.015 0 .013.044.016.046.015m-9.573-.037a1 1 0 0 1 .198.017.6.6 0 0 1-.195.009.1.1 0 0 1-.003-.026m-.36-.009c-.015-.028-.024.006-.026.006-.02.004-.058-.002-.05.025.034-.01.107.025.077-.03m.648.008c.057.01-.052.04-.037.01 0-.002.032-.012.037-.01m-.306-.007c-.013-.023-.18-.003-.206-.003.024.041.043.01.075.012.01 0 .007.018.008.018.015 0 .004-.02.013-.02.006 0 .127.025.11-.007m-.35-.02c-.01-.016-.113-.023-.117-.019-.031.032.109.024.117.019m.365-.017c-.018-.049-.1-.016-.044.008.005.002.028-.02.044-.008m.285-.003c.003-.001.062-.01.063.005-.008.006-.094.01-.063-.005m-.03-.052c.001 0-.012.03.015.026.002 0 .007-.034.041-.021.007.002.018.024.018.026-.037.052-.145-.048-.074-.031m-.622.045c.006-.015-.008-.056-.02-.035-.005.009.005.034.02.035m.839-.006c-.034-.026.073-.03.079-.024-.004.016-.076.026-.079.024m9.05-.099c-.028.006-.01.027-.012.028-.061.031-.045-.017-.054-.023-.021-.012-.018.046-.052.022.057.036.005.021.003.042-.006.084.076-.04.105-.022.004.002-.025.03-.015.037.033.025.136-.106.025-.084m-9.918.066c-.014-.025-.115 0-.088.02.004.003.107.016.088-.02m4.729-.037c-.024-.021.032-.046.042-.03.006.009-.031.04-.042.03m.395-.092c.03.005.06.094.024.08a.2.2 0 0 1-.024-.08m-1.898.046c.03-.032.028.028.006.027-.008 0-.007-.026-.006-.027m1.152.008c.003-.002.038.002.037.015-.013.009-.057 0-.037-.015m-1.162-.016c.018.01-.013.054-.035.012.011.003.033-.013.035-.012m-2.758.008c.015.024.058.017.082.021.003-.032-.064-.015-.082-.021m4.544-.01c.027.023-.032.041-.026.011 0-.001.024-.012.026-.01m-2.75-.001c.02.019-.044.044-.026.01 0 0 .025-.011.026-.01m-.276.01c.015-.006.08-.004.054.015-.004.002-.053.003-.054-.014m7.874 0c.008-.032-.04-.024-.046-.018-.003.002.035.061.046.019m-6.428-.004c.015.004.056-.003.063.014-.019-.004-.068.02-.063-.014m1.455-.005c.024-.035.064-.032.054.015-.045-.004.006-.042-.054-.015m-1.761-.036c.012-.003.022.041.02.044-.013.02-.033-.027-.02-.044m.94.036c0-.019.04-.01.035.002-.002.004-.036.014-.035-.002m-3.072 0c.018-.018-.038-.035-.054-.015-.008.03.052.016.054.014m1.784-.025c-.002-.028.061-.012.036.011-.006.006-.035-.002-.036-.011m-.6-.034c.041.034-.135.058-.089.016a.5.5 0 0 1 .088-.016m-.29.021c.008-.003.004-.098-.026-.062-.004.005.015.03.012.036a.3.3 0 0 1-.07.014c-.004-.002 0-.033-.003-.036-.004-.004-.044.023-.065.023-.04 0-.044-.025-.048-.025-.01 0-.025.018-.044.018-.097 0-.245-.022-.322.032.068-.022.133.001.201.008-.02-.053.1.04.03-.02.032.013.312.024.336.012m3.36-.024c-.017-.033.074-.025.081.012a.2.2 0 0 1-.08-.012m-.42-.079c-.009-.005-.017-.069-.061-.037-.013.01.002.025 0 .03-.002.003-.042.034-.008.04.05.007.004-.048.032-.048.003 0 .055.034.052.041 0 .001-.016-.006-.019-.003-.01.012-.005.032-.006.032-.004.003-.086-.03-.098-.002-.004.01.13.032.135.027.004-.003.002-.058.006-.063.002-.003.056.018.063.013l.004-.005c-.008.017.041.016.04-.003-.001-.008-.035-.003-.036-.002l-.002.002c.007-.02-.107-.02-.082-.05-.033-.017.005.044-.02.028m-.159-.034.01.018c-.058-.014-.124.013-.19.013-.018 0 .002-.035-.02-.026-.018.008-.038.04-.028.048.002.002.038-.02.056-.017.054.006.04.036.043.037.004.001.037-.02.056-.02.046.003.067.022.13-.002-.036-.02-.016-.063-.057-.05m-2.156.065c-.002-.02-.04-.003-.054-.005.002.019.04.002.054.005m5.64-.025c.012.031-.075.039-.052.013a.14.14 0 0 1 .053-.013m-.39.019c-.013-.009.034-.031.034-.007 0 .008-.033.008-.035.007m-3.842-.028a.2.2 0 0 0-.035.008c-.021.033.084.013.035-.008m3.365-.01c.04.02-.081.029-.044.003zm-.17-.006c.01 0 .053-.01.054 0 0 .016-.049.026-.054 0m-3.999.006c.005-.035-.052-.008-.072-.013-.005.035.052.009.072.013m.36-.026c-.24-.027-.187.048.014.017 0-.022.001-.015-.014-.017m-.308.004c.009.023.036.016.055.014-.004-.015-.041-.01-.055-.014m5.088-.007c-.015-.029-.082.006-.07.018.003.003.076-.003.07-.018m-4.356.009c.006-.034-.066-.02-.072-.013-.022.03.066.005.072.013m-1.125-.01c-.013-.027-.05-.013-.072-.013.01.023.052.014.072.013m.168-.02-.035.002c-.027.026.065.02.035-.003m7.024-.025-.026.001c-.022.026.052.02.026-.002M29.234 7.837c-.085-.017-.198.083-.291.09a3.5 3.5 0 0 0-.508.077.5.5 0 0 0-.088.026.3.3 0 0 1-.087.029.55.55 0 0 1-.257-.053c-.002.001-.044-.02-.082-.04-.04-.02-.095-.048-.084-.037-.14-.05-.285-.12-.488-.117-.085.004-.2-.006-.303.056l-.018.01c-.086.053-.144.174-.223.26a.5.5 0 0 1-.07.07c-.113.093-.945.573-.823.833.11.229.507.512.84.635.08.035.112.04.152.051a1.4 1.4 0 0 1 .227.089c.116.066.24.211.41.277.297.116.537.135.772.167q.093.01.16.029c.095.026.194.068.307.138l.124-.107.308-.27c.189.054.455-.106.547-.089.076.013.105.115.162.13.028.008.064-.005.107-.013a.3.3 0 0 1 .207.033c.186.123.082.343.116.44q0 .008.003.015c.018.053.267.159.32.425q-.014.062-.026.123l-.197.04c.037.12.177.102.239.205.04.066.037.133.034.195-.002.051-.004.098.018.136.04.068.18.112.226.204.053.106-.023.155-.05.212a.1.1 0 0 0-.006.049c.012.039.223.568.22.575.08.167.258.092.301.16q.015.02.019.036a.42.42 0 0 1-.083.337q-.055.015-.205.213c-.11.147-.225.36-.317.574.27-.025.406.133.43.262l-.037.069.002.004.037-.068c.027.164-.126.278-.413-.09a.42.42 0 0 1-.132.25c-.032.033-.068.061-.121.127-.093.11-.18.233-.226.389-.07.255-.02.452-.072.803q-.021.148-.044.298c-.01.084-.018.125-.028.17-.009.045-.02.087-.024.171-.032.382.069.714.43.715.034.238.128.45.226.631.041.076.058.105.077.143.079.16.113.309.007.485a1 1 0 0 1-.066.091c.038.12.444.23.537.313.052.047.247.293.3.38a.9.9 0 0 1 .088.299.7.7 0 0 1-.02.19.23.23 0 0 1-.066.11c-.093.085-.568-.097-.182.436-.129.167-.2.28-.26.416-.008.017-.034.065-.04.082l-.002.003.042-.082a4 4 0 0 0-.107.293c-.019.058.055.108.037.139-.02.035-.067.073-.116.119l.009-.015-.005.005-.009.015a.7.7 0 0 0-.105.117c-.115.174-.014.366-.247.202a2.5 2.5 0 0 1-.31.223l.076.176a.5.5 0 0 1-.205-.037c.122.101.15.162.127.186-.053.054-.21-.02-.253-.167a.95.95 0 0 1-.213.348.4.4 0 0 1-.04.051c.147.463-.415.097-.374-.168l-.08.002c-.175.093-.359.06-.573.066q-.118.002-.251.03a1.4 1.4 0 0 0-.18.053c-.051.026-.09.052-.155.092-.043.047-.067.107-.116.199a3 3 0 0 0-.305 0c-.505-.349-.457.139-.746.354a.5.5 0 0 1-.127.074c-.038.014-.074.019-.147.04a3 3 0 0 1-.186.034c-.019.35-.33.58-.606.883-.043.05-.072.078-.104.109l-.131.126c-.032.031-.096-.003-.142.035a.5.5 0 0 0-.088.116c-.081.133-.166.296-.311.204q.001.205.004.396a1.5 1.5 0 0 1-.237.133l-.176-.128c.067.126.051.203.023.247-.043.056-.1.09-.12.137-.01.02.044.107.002.163-.044.062-.167.095-.246.14l-.016.012q-.089-.147-.155-.303c-.114-.04-.176.255-.297.283a6 6 0 0 1-.485-.018c-.089-.021-.127-.082-.193-.138-.083-.072-.21-.138-.54-.108l-.027.004c-.093.02-.17.091-.256.094-.175.008-.61-.205-.577-.39-.058.09-.124.117-.162.123-.1-.006-.183-.07-.24-.063-.03.004-.115.122-.201.093q-.027-.01-.05-.048c-.028-.052-.043-.169-.102-.234-.084-.088-.216-.076-.256-.127-.039-.05.016-.15-.028-.227-.063-.108-.151-.2-.24-.288-.11-.107-.22-.204-.284-.315-.024-.042-.038-.08-.069-.152-.139-.348-.217-.77-.452-1.088-.09-.047-.2-.057-.289-.102l-.026-.014c-.057-.034-.09-.052-.127-.073-.04-.021-.071-.04-.153-.083a2.96 2.96 0 0 0-1.38-.324c-.079.001-.125.005-.172.008l-.411.027c-.354.024-.72.055-.925.053-.049 0-.098.01-.148.018-.19.015-.458-.06-.45-.206.01-.063.084-.131.213-.245.028-.048-.029-.052-.196-.23a8 8 0 0 1-.459-.526l-.037-.053c-.102-.17-.083-.363-.156-.5l-.003-.007c-.113-.202-.228-.362-.32-.516-.093-.153-.156-.305-.119-.364l.004-.023c.014-.073.15-.142.15-.17-.002-.035-.133-.093-.13-.155l.003-.021c-.038-.014.26-.476.398-.743.024-.047-.051-.116-.055-.197v-.022a.8.8 0 0 1 .134-.383.7.7 0 0 1 .117-.12c.097-.073.205-.09.32.01.073-.5.23-.9.296-1.353.01-.084.017-.125.023-.17s.012-.086.013-.171l-.001-.076a3.1 3.1 0 0 0-.407-1.407c-.037-.065-.057-.097-.076-.128l-.23-.378c-.264-.426-.478-.86-.395-.86a.3.3 0 0 1 .02-.06c.062-.124.18-.129.183-.2-.002.004-.026.008-.028-.08a1.3 1.3 0 0 1 .055-.353c.043-.155.06-.34.098-.502.05-.212.135-.387.384-.445l.039-.008c.147-.449.368-.688.208-.982q.103.06.19.137l.006-.004.044-.03a4 4 0 0 1-.114-.191c.08-.073.231-.064.348-.02a.38.38 0 0 0 .283.108l.694-.03q.216-.011.444-.025l.167-.01a3 3 0 0 0 1.421-.468c.07-.045.1-.07.134-.096l.13-.101.04-.033c.324-.284.449-.208.39-.602q.118-.075.232-.162.137-.003.278-.018.065-.091.121-.194c.037-.068.053-.106.071-.146.007-.014.03-.055.035-.07l.001-.002-.035.07c.055-.127.105-.26.156-.39.06-.153.12-.298.186-.415.12-.211.298-.425.371-.44.12-.074.249-.119.366-.16q.049-.019.208-.075c.11-.04.296-.19.45-.188.143 0 .218.103.332.176.062.04.136.072.24.074q.15.002.34-.024c.423-.056.955-.182 1.063-.162a.4.4 0 0 1 .12.04c.07.04.055.137.09.171q.063.062.113.123c.036.058.117.214.157.487.396.223.647.06.974.023l.061-.005-.006-.012h.005l.006.012c.277-.019.809-.017.99-.072.137-.042.24-.229.397-.267a1.4 1.4 0 0 0-.143-.353l.027.052-.001-.002-.027-.052c-.139-.228-.328-.343-.634-.548a3 3 0 0 0-.516-.663c-.3-.28-.66-.497-1.05-.63-.43-.142-.776-.142-1.063-.155a9 9 0 0 0-.22.25v.001a.4.4 0 0 1-.34-.03c-.086-.05-.156-.116-.234-.141a4 4 0 0 0-.345-.09c-.409-.062-.803-.21-1.67.01a2.86 2.86 0 0 0-1.122.655c-.576.589-.687 1.02-.903 1.424l-.18.377-.032.063v.002l.031-.063c-.018.038-.037.078-.04.088a1.06 1.06 0 0 1-.401.468l-.085.056a1 1 0 0 1-.211.106.8.8 0 0 1-.308.031l-.102-.006a14 14 0 0 0-.443-.02c-.286-.007-.553.005-.665.063-.07.037-.086.168-.163.176a2.5 2.5 0 0 0-.736.042c-.383.08-.756.245-1.083.487-.168.126-.31.27-.424.4-.195.364-.315.649-.47.934q-.136.255-.284.503c-.221.404-.528.719-.735 1.443a2.8 2.8 0 0 0-.024 1.236c.19.74.47 1.073.68 1.48l.256.454c.076.153.114.324.112.493l-.003.1c-.001.043-.002.089-.004.1a1.05 1.05 0 0 1-.151.466l-.053.084-.222.353c-.229.4-.528.713-.746 1.496-.1.42-.107.863-.022 1.288.194.795.48 1.12.691 1.53q.142.249.287.498c.222.362.365.718.835 1.236q.066.07.141.137c.303.274.688.523 1.118.67.677.208 1.09.153 1.432.129.103-.011.18-.05.256-.083a.48.48 0 0 1 .459-.008l.007-.17a.2.2 0 0 1 .053.02c.15.076.223.198.354.262q.034.018.084.046l.089.053.09.054c.126.08.238.203.291.258.037.037.095-.008.133.007.006 0 .011.002.019.015.01.018.022.047.035.079.043.107.084.254.13.401.047.148.1.3.165.415.127.226.518.647.773.897l.03.03c.284.298.638.562 1.048.739.77.285 1.22.253 1.677.248l.028-.002c.203-.013.46-.138.54-.145h.01c.13.008.168.14.258.158.31.046.772.049 1.438-.197.244-.1.457-.224.633-.334q.26-.161.488-.372c.584-.588.717-1.005.964-1.4l.207-.363c.022-.038.047-.083.048-.082a.95.95 0 0 1 .31-.304l.081-.047.082-.046a1 1 0 0 1 .418-.118h.095l.428.005c.442-.014.895.08 1.685-.146.452-.149.837-.404 1.106-.675.09-.089.166-.18.227-.263.152-.22-.01-.252.098-.405.11-.164.242-.194.293-.262.09-.122.201-.277.318-.447l-.011.02q0-.002.003-.005l.012-.02c.103-.148.212-.31.318-.474.012-.019.04-.08.05-.1l.001-.002-.05.1c.226-.355.461-.741.555-1.127.034-.142-.045-.284-.024-.37a.2.2 0 0 1 .034-.058c.033-.044.083-.109.1-.197.073-.371.061-.728-.01-1.057-.2-.772-.497-1.059-.754-1.487l-.226-.354-.053-.086a.97.97 0 0 1-.13-.488l.006-.202c.012-.168.066-.33.153-.472l.054-.084.22-.354c.01-.015.035-.065.044-.08l.002-.004-.044.081c.228-.401.524-.733.711-1.496q.043-.211.052-.424a1.24 1.24 0 0 0-.26-.796q-.041-.059-.048-.082c-.034-.148.078-.307-.007-.58-.108-.338-.267-.61-.431-.885q-.152-.246-.305-.489c-.17-.268-.322-.531-.483-.821-.088-.156-.2-.385-.39-.62-.214-.282-.498-.542-.772-.684a2 2 0 0 0-.311-.125c-.58-.175-1.062-.1-1.158-.176-.08-.051-.116-.215-.208-.235m1.183 8.34c.083-.018.118.033.122.086.003.042-.01.089-.032.163-.04.118-.11.21-.182.085a.394.394 0 0 1 .021-.247c.02-.042.045-.08.07-.087m-12.464 6.402q.011-.112.024-.224.135.051.26.113a3 3 0 0 0-.157.12zm-.113-7.998c-.03.034.047.119.039.166-.034.202.016.29.018.474-.013.263-.185 1.054.508 1.043h.02c.13-.003.273-.059.42-.064s1.097.012 1.152-.04c.07-.075-.154-.293-.135-.34.012-.03.103-.055.124-.09.07-.11.023-.193.277-.235a5 5 0 0 1-.32-.23c.073-.04-.05-.18-.028-.214.018-.027.116-.008.132-.035.018-.03-.058-.123-.016-.177.07-.088.306.011.362-.025.057-.037-.015-.19.104-.21l.087.02.15.12c.044-.015-.057-.099-.04-.129.021-.035.134.02.149-.002.011-.017-.05-.1-.028-.12.032-.027.14.068.173.068.013-.001.172-.067.179-.07.047-.044-.09-.183-.063-.235.077-.144.303-.13.444-.158.064-.014.108-.058.142-.116-.36-.363-.358-.824-.026-.11.003-.132.152.026.19-.034.025-.04.003-.15.06-.175.108-.044.317.207.159-.328.159.046.227-.18.392.285.035.022.053-.282.086-.329.025-.047.302-.217.354-.225.05-.01.136-.022.179.02.017.018.033.083.048.143.034.125.057.228.135-.173.106.053.142.04.252-.018.02-.01.033-.098.044-.097.023.003.052.073.09.087.062.024.135-.152.074.126q.049.082.09.166l.081-.15q.012.095.019.19c.082-.405.172-.127.054.085q.144-.09.305-.166c.158-.442.196.022.07.246l.025.01c.123-.08.144.043.267.016.127-.024.142-.067.28-.235l.046.072c-.222.56.342-.296.26.21.288-.247.317.034.32.196 0 .02-.05.07-.052.1-.007.067.137.085-.037.24q.112-.028.226-.05l-.038.154-.17.136c.23-.11.215.028.29.031.015.001.098-.055.138-.045.047.011.06.084.108.104q-.126.109-.257.215c-.017.09.25-.035.291-.006a.7.7 0 0 1 .053.154c-.017.08-.248.167-.134.302.02.024.11.017.123.042.025.047-.116.249-.288.307.233-.012.181.162.252.192.023.01.165-.016.203.023.032.032-.068.141-.044.183.027.044.149.05.16.071.01.02-.086.049-.083.076.01.087.17.163.172.238v.003c-.002.108-.29.186-.423.25.017.02.077.046.075.066-.016.256-.032.55-.073.821-.01.119.187.592-.352.209-.114-.021-.04.363-.078.416-.031.05-.152.016-.18.049-.086.099-.089.23-.277.271-.049.01-.174-.062-.19-.046-.019.02.046.141.022.173-.057.075-.22.14-.28.205-.01.012.05.114.049.159-.003.172-.11.216-.273-.124.004.242-.184.115-.279.141-.2.065-.574.245-.777.1-.126-.09-.124-.257-.282-.108l-.007.006c-.034.032-.07.072-.113.106-.105.087-.257.386-.287 0-.136.079-.21-.008-.384.279q.012-.117.027-.232l-.042-.018q-.037.104-.077.207c-.123-.015-.151-.35-.23-.382a5.5 5.5 0 0 0-.721-.172c-.099-.01 0-.134-.246.083v-.09l.115-.182c-.074-.07-.24-.08-.309-.159-.128-.144-.123-.471-.32-.561-.05-.023-.207-.007-.227-.05-.03-.064.183-.183.155-.257-.048-.121-.402-.29-.412-.442-.004-.043.08-.081.085-.11.017-.124-.004-.221.125-.343-.242-.096-.54-.075-.845-.105-.23-.021-.763-.134-.963-.157-.141-.015-.323.039-.478.02-.12.248.024.357.261.524.03.352.1.703.206 1.044q.135.005.27.005h.001c.136.087-.046.216-.063.303-.194.88 1.072 1.87 1.748 2.183.136.088.567.451.732.366.041-.02.101-.137.131-.13.216.177.454.34.711.48.4-.041.765.028 1.15.072.2.022.401.037.601.023 1.581-.09 3.142-1.034 3.875-2.476.142-.272.387-.606.415-.92.012-.132-.177-.233.013-.355l-.164-.043c.097-.12.241-.186.28-.346.033-.133.072-.496.05-.616-.009-.063-.115-.041-.114-.099q0-.016.006-.038c.029-.106.136-.29.125-.414-.009-.126-.156-.319-.155-.414.007-.342.078-.77-.11-1.108-.052-.093-.232-.158-.242-.188-.018-.059.093-.134.09-.18-.02-.238-.332-.456-.457-.62-.405-.55-.903-1.104-1.503-1.445-.368-.225-1.036-.53-1.447-.52-.088 0-.1.147-.167.13-.074-.016-.096-.12-.13-.135-.211-.1-.696-.237-.966-.171a.4.4 0 0 0-.074.023c-.046.02-.075.135-.102.136-.013 0-.046-.077-.09-.082-.386-.048-.665.042-1.018.161-.671.223-1.498.493-2.019 1.06-.114.123-.034.363-.05.376-.037.03-.167-.055-.265-.007-.328.165-.476.635-.698.872-.113.117-.388.23-.496.366-.088.108-.128.428-.225.457-.06.017-.221-.018-.255.02m4.083-1.06c-.118-.236.103-.092.106.06.001.033-.075 0-.106-.06m4.58 3.497-.219-.053q.053-.018.104-.04l.125.062z"/></svg>