<svg xmlns="http://www.w3.org/2000/svg" width="40" height="40" fill="none" viewBox="0 0 40 40"><path fill="#231f20" d="M29.77 25.263c-.018.04-.107.192-.144.258.027-.084.212-.4.144-.258m-5.118 6.506q.096-.047.192-.097c-.187.078-.439.183-.618.243-.029.01.041-.031-.028-.006-.068.024-.048.038-.147.076-.11.044-.633.198-.815.246-.678.19-1.378.336-2.082.401.724-.1-.009-.023-.21-.003-.045.002-.034.055-.765.074-.316.003-.22-.025-.368-.032-.07-.004-.196-.002-.443-.002.594.048.009.044-.459.011-.08-.002-.729-.07-1.012-.115-.097-.014-.25-.02-.378-.043-.088-.016-.153-.038-.284-.064a12 12 0 0 1-1.786-.508c.358.078-.262-.117-.287-.133-.134-.065.495.168.25.067q-.523-.191-1.025-.426c.272.136-.382-.136-.488-.216.017.087-1.438-.887-1.64-1.06-.044-.033.225.212-.43-.315-.07-.058-.035-.047-.072-.076-.023-.017-.183-.096-.307-.235-.042-.053.288.222-.412-.411.232.302-.941-.916-1.104-1.185q.052.078.105.155c-.184-.247-.227-.283-.27-.338-.169-.222-.38-.542-.524-.758-.168-.252-.192-.24-.366-.548l.116.225q-.192-.315-.366-.638c.306.48-.06-.107-.078-.149-.035-.063.026.022-.031-.084-.006-.011-.01.011-.096-.155-.175-.35-.13-.302-.2-.451-.005-.014.004.04-.112-.22-.349-.829.007.003.026.032.022.04-.065-.257.239.441-.105-.233-.093-.267-.105-.293a22 22 0 0 1-.196-.451c-.088-.2-.031-.016-.05-.055-.017-.03-.184-.537-.265-.643-.038-.257.077.13.238.527.03.056-.126-.388-.132-.412-.193-.574-.119-.246-.181-.366-.033-.063-.08-.307-.045-.079-.158-.53-.046-.213-.054-.248-.011-.052-.07-.237-.075-.26-.007-.036.035.081.003-.055-.005-.023-.078-.237-.015.047-.092-.377-.097-.344-.095-.48-.115-.25-.004-.197-.021-.3-.043-.276-.074-.189-.08-.203-.037-.097-.127-.868-.144-1.06.038.072.066.613.093.73.08.393-.06-.562.023-.28q-.04-.178-.076-.36c.01-.224.042.092-.009-.508-.031-.096.033.425.007.321-.017-.06-.041-.41-.046-.416-.009-.007.019.309.005.26-.04-.11-.044-1.26-.009-.384-.008-.212.026-.336.025-.504l-.003-.08c-.003-.05-.015.025-.027.08-.01.047-.02.078-.028 0a5 5 0 0 1 .007-.603c.021-.024-.009.462-.005.476.002.017.053-.07.056-.085-.004-.054.043-1.232.116-1.476-.049.093.133-.88.158-.986.003-.028-.036.073-.032.043.027-.192.181-.688.252-.917.077-.257.055-.229.059-.243.037-.113.018-.02.04-.089.028-.106.288-.81.305-.845.004-.01-.058.097 0-.056.012-.026.017-.004.207-.451.235-.535-.192.36-.11.13.181-.332.152-.33.198-.422.016-.032.154-.258.288-.509q-.14.273-.268.553c.09-.18.266-.529.352-.67.042-.07.027-.002.114-.155.019-.031.044-.188-.16.226-.034.023.082-.163.13-.253.006-.014.01-.082.093-.184.023-.022-.089.306.327-.464.014-.024-.05.051-.036.027.008-.017.136-.2.15-.22.012-.023-.059.06-.044.033.077-.134.233-.272.049-.013q.097-.126.198-.25c-.096.07.088-.141.177-.258.576-.742.168-.263.26-.397.151-.213.07-.022.308-.326.025-.026-.314.298.315-.363a13 13 0 0 0-.271.299c.076-.035.327-.36.35-.381.249-.258.083-.081.456-.462.033-.033.115-.097.188-.168.302-.296-.42.366-.443.38-.02-.003.762-.71.799-.722.126-.088-.36.314-.256.25.024-.039 1.198-.973 1.47-1.11.296-.182.456-.217.43-.265.111-.004.167-.079.206-.1.471-.256.473-.254.885-.458.092-.044.176-.065.208-.082.018-.01-.024-.01.067-.056.125-.072.93-.362.995-.367.063-.013-.338.124-.261.114.287-.104.567-.2.863-.284.124-.034.063-.006.117-.02.022-.008.448-.127.43-.125-.05-.017-1.357.389-1.018.266.065-.026.307-.075.26-.093a12.7 12.7 0 0 1 3.617-.532c-.7.027-1.49.078-2.213.216-.099.017-.433.084-.39.09.61-.131 1.382-.242 1.981-.262.02-.001-.05.017.022.015.133-.005.568-.039.643-.031.012 0-.236.022-.16.033a.6.6 0 0 0 .217-.01c.057-.012.11-.028.194-.026.13-.005.992.076 1.208.088.23 0-.635-.073-.57-.08.587.02 1.18.12 1.725.23.01.002-.072-.029.05-.006.214.042.265.075.366.102.11.028.498.13.547.153a1 1 0 0 1-.089-.003c-.17-.04-.224-.079-.24-.083-.057-.016-.116-.021-.168-.035-.087-.022-.133-.042-.248-.069-.08-.018-.007.016-.083-.002-.029-.007-.326-.108-.362-.073.003-.045 2.442.674 2.657.83q-.298-.138-.602-.257c.412.162.91.354.923.414a12.6 12.6 0 0 1 3.938 2.888c.193.22.067.117.385.476a13 13 0 0 0-.221-.3c.169.18.83 1.049.925 1.198.014.018.057.027.21.254.134.202.136.247.2.36.054.094.12.196.136.225.012.021.006.036.034.089.086.167.043.017.098.2l-.07-.117c.106.2.232.482.068.193-.029-.05.005-.012-.015-.05-.855-1.436-.172-.29.111.223.06.138.424.897.425.928.01.037-.058-.09.003.09.024.032.41 1.087.253.713-.029-.077-.213-.583-.266-.701.086.293.37.95.39 1.03.09.31-.221-.584-.005.113.154.54.032.027.102.231.043.115.164.739.193.715.05.214.004.093.008.12.006.025.097.444.11.584.001.017-.026-.033-.025-.015l.067.459c.003.01.007-.09.016-.05.013.046.05.443.056.464.012.03-.045-.459-.019-.38.024.228.066.593.089.744-.006-.037-.022-.257-.027-.333.032.033.061.508.03.347.017.102.02.032.033.09.004.014.011.16.016.188.002.004.006-.148.013-.118.014.054.022.5.017.537-.006.103-.018-.261-.032-.29 0-.005-.019.304-.022.309-.02.018-.01-.325-.029-.286l-.008.254c-.017-.326-.043-.927-.082-1.08.052.48.056.985.005.985-.02 0-.037-.207-.042-.199-.017.03.007.317.005.328Q32.19 20 32.19 20c-.01 0-.024-.409-.032-.429-.01-.033-.042.148-.05.148-.001-.006-.02-.294-.031-.196s-.006.35-.008.36c-.007.047-.025-.393-.032-.405-.003-.007-.01.23-.016.236-.004.006-.019-.173-.037-.242-.013-.052-.015.1-.018.074 0-.019-.023-.432-.028-.452-.005-.03-.01.067-.015.053-.006-.02-.011-.152-.015-.135 0 .014-.014.532-.029.528-.018-.005 0-.55-.055-.041l.01.129c-.013.076-.047-.316-.03.164-.056-.89-.032-.11-.071-.24-.014-.05-.039-.394-.042-.396-.014.035.006.143 0 .181-.003.02-.041-.285-.048-.215-.002.036.018.361.017.374-.006.129-.024-.028-.03 0-.005.02.001.215 0 .22-.001.008-.03-.256-.042-.31-.007-.042-.009.115-.012.086-.022-.174-.011-.552-.04-.188-.002.023.007.159.006.163-.01.084-.024-.166-.04-.21-.025-.076.008.283-.025-.015 0 .226.006.348.014.61-.03-.723-.107-.973-.067-.174-.007-.254-.038-.224-.042-.3-.002-.047.002-.417-.054-.244-.007.022.018.244-.004.176-.032-.534-.01-.011-.014-.01-.024-.007-.137-1.302-.204-1.52-.055-.253-.14-.47-.154-.524-.045-.18.008-.034.004-.076a9 9 0 0 0-.183-.566c-.024-.1.025-.006.023-.017-.021-.127-.272-.79-.349-.972-.008.01.137.38.028.157-.13-.259-.088-.294-.088-.303a11.5 11.5 0 0 0-2.164-3.316c-.004.027.578.669.581.692.068.092-.895-1.006-1.036-1.12q.141.147.276.301c-.183-.145-.523-.532-.79-.738-.086-.067.064.079.06.077-.1-.07-.244-.203-.121-.123-.24-.178-.194-.163-.373-.306-.01-.007.06.063-.087-.042-.067-.051-.433-.314-.49-.337-.024-.01.134.163.182.143.382.306.139.075.29.19.023.019-.041-.008.339.284-.097-.025-.512-.388-.594-.436-.162-.107.467.388.598.46-.076-.016.041.04.176.157.146.13.075.082.154.152.214.194.143.095.3.275-.119-.212.302.278.413.43q-.316-.33-.657-.631l.031.043-.177-.161.036.017c-.325-.254-.39-.332-.415-.354a11 11 0 0 0-1.116-.793c-.056-.034-.026.003-.431-.25-.13-.08.004-.025-.15-.106-.212-.06-.191-.09-.248-.12-.165-.084-.272-.121-.288-.129a12 12 0 0 0-.745-.32c-.004-.002.111.06-.038-.004-.052-.022-.511-.264-.95-.365q.166.054.33.114c-.125-.059-1.06-.281-.836-.206.137.042.487.095.513.144-.296-.137-2.036-.417-2.176-.404-.018-.003.099-.006.073-.01-.02-.004-.424-.03-.477-.036-.032-.005.147-.003.133-.008-.014-.007-.517-.032-.547-.013.125-.006.472.014.29.02-.024 0-.145-.014-.174-.012-.265.011.525.031.648.048-.256-.01-.58-.027-.918-.029-.32-.002-.644.01-.923.04-.233.004.343-.046.08-.038-.547.023-.144.03-.16.033-.133.022-.603.008-.595.064-.196.02-.135.003-.41.057l.111-.008c-.3.077-.956.151-.91.136.124-.05.466-.099.495-.104.042-.008.148-.095.627-.118.187-.071-.749.102-.327.002-.29.037-1.462.319-1.617.405-.019.009.083.011-.202.09-.136.04.184-.074.12-.06-.225-.032-2.654 1.182-3.022 1.562-.027.02-.024.003-.05.022-.082.06-.363.296-.504.408.302-.22-.258.24-.392.365-.208.186-.208.161-.299.242-.351.31-.794.883-1.05 1.142.046.01-.399.484-.559.733-.13.192-.278.493-.099.239-.215.334-.412.703-.575 1.038-.027.055-.001-.027-.046.068-.004.009.001.027-.036.108-.3.68-.172.342-.236.466q-.05.104-.075.162c.158-.405.377-.858.44-.976-.086.085-.413.872-.501 1.104-.004.008-.008-.026-.01-.018h-.001c-.04.086-.229.65-.17.54.015-.03.1-.288.219-.59-.03.082.011.028.006.043-.063.177-.23.603-.279.76-.011.035 0 .036-.001.041-.046.141-.06.074-.07.229-.114.246.138-.483.101-.438-.062.025-.457 1.699-.396 1.704a.3.3 0 0 0-.024.075c-.03.104-.087.578-.087.662 0 .014.03.011.03.028-.007.042-.074.623-.057.84q.01-.175.027-.35c-.03.707-.006.6.004.363l.002-.035c.011-.182.032-.415.035-.419.005-.007-.016.43-.017.726-.003.191-.004.32-.018.23a5 5 0 0 1-.002-.23c.001-.13.002-.239-.011-.084L8.375 20c0 .122.007.328.006.342-.006.072-.024-.153-.034-.342-.009-.141-.014-.26-.024-.22q.008.102.01.22c.002.142.002.293.01.433.006.1.023.122.024.134.014.183-.008.081-.004.142.001.034.064.389.012.325.175 1.174.047.323.003-.4.028.229.062.675.095.875.01.071.02.027.04.147.027.25.267 1.425.372 1.72-.06-.181-.061-.123-.017.019.046.141.03.015.041.042.007.03.226.69.278.794-.196-.486-.172-.369-.011.047l-.085-.175c.097.243.296.756.371.887.012.021-.012-.062-.006-.05.06.118.256.524.272.54.012.013-.068-.162-.03-.102.008.013.079.186.174.341.036.058.027.016.036.03.078.119.014.06.153.279.103.16.198.267.34.487-.452-.733-.07-.118.15.167.036.046.024-.007.222.274-.475-.56.103.185.232.329.007.008-.004.021.057.094.005.006.006-.01.064.057.56.618.197.227.294.353.042.054.336.334.416.409.018.017.001.017.072.084.125.119.247.213.333.288.01.008-.002.023.165.159.047.038.104.076.041.017-.208-.194-.625-.54-.835-.785-.196-.219.457.435.5.461.012.012-.127-.104.007.022.115.107.35.272.528.423.013.012.143.148.135.144-.007-.003-.234-.178-.207-.147.004.005.146.119.161.138.019.023.04.125.07.15.077.065.034.013.086.053.107.088.494.382.521.37l-.195-.14c.368.25.218.133.272.165.06.033.032.04.157.123.025.022.567.338.563.321-.308-.159-.183-.119-.197-.127-.051-.032-.125-.059-.195-.102-.484-.306.017-.018-.094-.095-.038-.026-.123-.065-.14-.077-.052-.036-.044-.05-.08-.073-.085-.052 0 .031-.008.028-.083-.036-.36-.25-.167-.147-.102-.082-.132-.066-.209-.136-.152-.14.093.046.164.09.255.157.32.217.685.433.13.076.295.152.358.185.037.022.387.261.435.194.142.08.351.235.508.299.14.058.106.012.12.017.02.007.188.078.247.096.069.022.039 0 .147.036.271.09.255.111.282.123.315.13.187.042.26.063.064.028 1.009.3 1.218.32q-.126-.016-.251-.036c.143.05.307.053.303.085.04-.044.34.045.433.058.037.005.035-.005.08.002.177.027.583.08.68.082.421.02-.65-.116-.73-.143.166.037 1.122.114.686.049-.067-.01-.19 0-.228-.003-.258-.025-.053-.021-.073-.026-.034-.007-.205-.009-.249-.018-.015-.003.083-.007-.16-.044.12.006.807.1.898.097.033-.001-.168-.046.422.022l-.02-.012a12 12 0 0 0 .989-.006c-.035.01-.22.034.013.021.134-.008.034-.022.046-.023.126.035 2.234-.27 2.618-.444.134-.038.501-.175.528-.187.17-.055.758-.28.87-.338.072-.034-.003-.017.062-.046.06-.026.004.016.022.008.156-.047 1.221-.64 1.462-.802-.145.1-.899.564-.882.559.004 0 .2-.092.235-.12.072-.023.27-.183.39-.248.014-.008-.026.045.184-.082.072-.044.248-.178.44-.29.28-.165 1.575-1.262 1.619-1.384.001-.003-.172.16-.066.04.14-.163.038.006.213-.172.03-.024.486-.55.494-.572.116-.177-.28.282-.28.271.011-.019.33-.406.343-.423.014-.014-.218.326.08-.066l-.114.125c.139-.186.169-.19.204-.234.11-.137.195-.307.387-.515.051-.055-.007.054 0 .047.062-.065.092-.182.19-.278.006-.008-.145.267.146-.197l-.067.092c.04-.067.314-.546.348-.613.106-.19.036-.012.135-.207-.087.112.204-.484.206-.441.014-.096.258-.604.346-.856.06-.156.153-.485.169-.536.02-.061.036-.036.073-.147.011-.031.094-.37.182-.664.017-.057.079-.172.064-.061-.025.189-.144.529-.124.53.026 0 .131-.472.159-.6.133-.587.087-.242.098-.256.026-.035.081-.362.084-.375.016-.056-.008.178.002.184.014.007.089-.307.082-.234-.008.105-.08.392-.083.41-.032.241.063-.08.093-.168.01-.027-.001.084.004.062.08-.347-.031-.082.01-.314.034-.206.016.063.018.056.003-.01.04-.258.052-.296.01-.02-.05.635-.03.61q.05-.31.083-.623c.027-.013-.031.284-.035.314-.004.063.034-.108.04-.1.005.005-.009.211.026.028.011-.063.015-.197.058-.428-.08.81.005.253.017.23.011-.022-.02.367.038-.103.05-.015.014.012.005.147-.014.165.06-.211-.043.385.03-.03.096-.512.099-.538.004-.022.002.087.01.049.094-.45.04-.14.08-.27.005-.01.051-.442.028-.113-.05.602-.132.843-.081.955.107-.436.114-.983.122-1.117.014-.208.012.008.018-.017.002-.009.013-.188.014-.19.063-.125-.058.798-.103 1.085l.055-.23q-.02.158-.044.316c.088-.498.01-.018.029.115.004.03.043-.303.006.078.052-.277.046-.187.07-.441.019.008-.05.581-.091.804.163-.786.03-.345.153-1.027-.005-.13-.04.2-.04.172 0-.097.047-.322.026-.596-.003-.045-.039.14-.017-.136.003-.03.032-.207.032-.204.014.024-.002.2.003.207s.014-.189.015-.19c.019-.005-.002.164.005.14.016-.052.095-.756.027.165.028-.768-.006-.098-.029.198-.005.075.004.096-.005.204-.01.14-.037.301-.045.372-.01.078.082-.356-.023.275.082-.317.12-.892.156-1.21.074-.644.018.454-.002.567-.003.031.023-.07.022-.05.001.036-.09.652-.092.716.002.063.036-.228.05-.244.016-.012-.1.737-.024.334.056-.28.085-.797.128-.882a12 12 0 0 1-.178 1.234q.089-.33.159-.666c-.065.465-.161.858-.253 1.293.294-1.03-.044.349-.057.362.003.007.15-.393.171-.457-.063.372-.425 1.46-.17.837-.046.113-.12.4-.118.396.035-.026.223-.645.206-.54-.016.123-.095.278-.155.456-.328.905-.13.704-.566 1.575l.036-.047c-.48.944-1.08 1.826-1.778 2.62-.239.34-1.008 1.137-1.437 1.472-.082.072-.515.39-.55.41-.063.04.263-.21.109-.106-.028.029-.773.543-.713.517.087-.053.343-.242.387-.27.346-.14-2.06 1.291-2.218 1.289l.177-.061q-.243.107-.49.204m4.848-5.93c.034-.088.165-.286.227-.41.088-.173.173-.496.17-.34q-.183.383-.397.75m-2.75 3.06c.156-.11.064.013-.07.095-.014.009-.14.052.07-.094m1.466-1.341-.12.13c-.111.099.224-.264.12-.13m-8.541 3.764c.21 0 .058-.035-.073-.023a.3.3 0 0 0 .073.023m.15.002c.164.032.49-.042.23-.028a5 5 0 0 0-.23.028m7.456-2.844c-.008.023-.16.147-.226.198-.005-.01.166-.143.226-.198m-4.311 2.377c-.005.016.644-.194.681-.226-.097.046-.675.22-.681.226m-1.705.367c.018 0 .25-.035.242-.042-.115.007-.32.045-.242.043m-3.461-.085c-.013 0 .15.085-.253-.028-.06-.017.157.012.137.006l-.108-.027c.191.035.39.065.41.071.088.03-.181-.021-.186-.022m-1.773-.428a3 3 0 0 1-.334-.123c-.009-.004.04-.009-.068-.05-.086-.033.033.04-.133-.03-.167-.074.064.004.05-.003-.02-.009-.283-.11-.27-.12.01-.005.286.119.356.143.09.033-.012-.024.136.037.093.037.03.045.05.053.016.01.352.111.212.093m1.498.37.051.01zm11.687-4.771c-.062.077.091-.173.16-.26.01.003-.15.248-.16.26m-11.87 4.757c-.28-.072-.07-.032.183.014-.081-.01-.088.009-.182-.014m7.952-1.16q-.018.007-.023 0c.03-.01.035-.009.023 0m-.603.3c-.201.115.222-.089.213-.1a4 4 0 0 0-.213.1m-5.29 1.107c.022.002-.309.043.17.02-.255-.013.014-.011.01-.016-.01-.012-.436-.015-.532-.03-.075.02.284.02.352.026m-6.273-2.144c.055.023.202.134.304.204a2 2 0 0 1-.304-.204m10.62-19.807c-.805-.27-.9-.346-.164-.082.014.005.215.094.165.082m-7.183-.25c-.084.001.17-.08.342-.113.04-.009.186-.021.026.025-.002-.03-.255.027-.368.089m.615 21.932c-.086-.003-.335-.078-.466-.119.084.011.35.087.466.119m3.856-22.35c-.09-.01-.152.005-.137.008.068.014.238.016.137-.007M18.006 31.21c.01.013-.332-.037-.35-.066.071.016.342.06.35.066m-4.687-1.898c.04.035-.19-.118-.255-.172.011-.004.227.15.255.172m6.273-20.673c-.081 0-.282.006-.304.016-.027.011.267-.003.304-.016m11.185 8.307c0 .01-.112-.281-.149-.415-.067-.255.153.402.149.415m-8.892-8.138c.245.067-.028-.005-.02.018.167.03.583.122.3.04-.055-.016-.202-.042-.28-.058m-.23-.047c-.029.002-.213-.005-.056.018.072.01.193.007.055-.018m8.44 6.38c-.075-.217.341.742.338.775l.007.032c.02.034.089.219.082.245-.018-.056-.076-.207-.081-.225l-.005-.017c-.03-.063-.32-.772-.341-.81m-.84-1.512c.167.202.151.268.139.249-.17-.228-.042-.091-.045-.1-.008-.018-.133-.176-.094-.148m.69 1.19c.006.01.102.206.105.215.066.167-.207-.389-.105-.215M14.748 30.203c-.138-.074.006-.02.097.031.008.004.025.034-.097-.03M21.53 8.746c-.033-.018-.959-.127-.905-.09.08-.01 1.126.137.905.09m-6.767 1.041c.148-.072-.002.028-.084.06-.03.012.047-.041.084-.06m3.7 21.509c.17.006.13.047-.015.014-.005-.001.008-.014.015-.014m-2.49-22.008c-.523.215-.43.082.276-.133l-.062.032c.814-.244.055-.019-.139.058-.074.027-.007.017-.074.043m-1.968.91c-.496.235.414-.275.684-.404-.249.15-.579.328-.117.107-.657.359-.391.197-.42.207-.031.016-.126.08-.147.09m1.279-.654c.028-.015.25-.096.33-.129-.105.06-.518.222-.33.129m12.828 2.675c.024.005.066.032.188.175-.044-.038-.13-.122-.188-.175m1.546 13.506c.066-.11.195-.334.143-.272-.004.008-.15.268-.143.272M18.833 8.647c-.027-.005-.734.079-.488.065.074-.01.716-.07.488-.065m3.652.276a5 5 0 0 0-.3-.062c-.017.008.273.066.3.062m7.498 16.237c.01-.014.18-.37.154-.334-.046.069-.185.384-.154.334m-15.756 4.806c-.03-.015-.06-.05-.07-.057-.025-.01-.543-.32-.336-.216.03.024.782.458.887.502.028.04-.292-.148-.371-.19-.014-.008-.032.003-.11-.039M28.76 12.95c.032.009.46.576.438.581q-.21-.297-.438-.581m-.226-.281c-.09-.122.142.147.202.233a3 3 0 0 1-.202-.233m-7.366-4.033c-.071-.005.145.042.096.04-.032-.002-.19-.028-.241-.027-.015 0 .145.037.192.042.066.007.004-.016.076-.007.24.031.45.076.673.118.02.004-.134-.036.038-.003.026.005.183.051.387.096.46.06.777.195 1.333.376a8 8 0 0 0-.455-.173 11 11 0 0 0-1.834-.426c-.13-.019-.069 0-.125-.007-.045-.005.01-.018-.14-.029m8.464 17.154c.048-.043.146-.236.212-.358-.038.035-.139.245-.212.358m-3.45-15.256c-.058-.039-.234-.16-.253-.165-.022-.007.234.166.253.165M11.547 27.878l-.122-.132c-.09-.119.25.247.122.132m-2.194-3.3c-.053-.115-.107-.23-.109-.276.027.076.124.285.109.276m-.93-5.363c-.022.024.021-.354.032-.425.005.028-.017.406-.031.425m19.717-7.06c.158.172.146.116.235.235.014.02.02.12-.134-.086-.028-.037.106.085-.101-.148M16.364 9.12c.052-.031.23-.08.35-.113-.025.016-.266.084-.35.113m13.935 15.402c.064-.091.234-.566.177-.454-.006.017-.146.39-.177.454m-13.7 6.432c-.203-.044.208.082.344.1-.06-.013-.33-.096-.344-.1M8.4 20.536l-.007-.239c.009-.18.027.44.007.24m1.526 5.22a5 5 0 0 1-.333-.635c.061.096.392.714.333.635m17.523-14.263q.184.165.342.331a6 6 0 0 1-.342-.331m-19.06 8.234.002-.034zM24.336 9.49c-.127-.059-.107-.03-.1-.026.095.046.243.093.1.026m5.4 16.176c.04-.033.142-.244.207-.361-.029.028-.154.267-.207.361M13.491 10.48c-.157.08.43-.327.568-.387.013 0-.548.37-.568.387m3.724 20.661c.01.017.306.065.246.045a2 2 0 0 0-.246-.045m-2.84-21.216c.057-.036.201-.096.156-.064a.4.4 0 0 1-.156.064m5.775-1.376c-.029-.005-.424.005-.26.02.112.01.13-.008.157-.008.03-.001.658.049.103-.012m-9.539 4.654c.084-.122.199-.26.296-.382-.034.054-.25.337-.296.382m5.497 17.625c.03.026.97.304.44.132-.032-.007-.54-.181-.44-.132M28.14 12.156l-.07-.076zm-2.018-1.703c.05.021-.174-.13-.245-.166-.027-.004.239.162.245.166m-15.218 2.35c.052-.073.16-.194.232-.278-.006.02-.201.254-.232.279m-2.457 5.703c.027-.176.06-.392.05-.397l.01-.026c.004-.014.032-.203.052-.283.086-.488-.26 1.896-.105.508zm1.83 7.863c.045.092.222.314.184.25-.028-.043-.229-.341-.184-.25m-1.584-3.53c.004.03.086.295.095.3-.037-.155-.118-.436-.095-.3m2.026 4.17a.4.4 0 0 0 .1.095c-.034-.055-.156-.187-.1-.095m17.123-15.24a2.6 2.6 0 0 0-.353-.298 1 1 0 0 0-.071-.078c-.026-.098-2.002-1.523-.693-.547.04.032-.007-.021.156.108.011.009.01.021.043.048.078.059.471.4.552.465q-.001.003.013.019c.086.095.403.338.353.284M8.57 22.306c.007.056.048.227.061.243-.016-.086-.078-.37-.061-.243m7.555 8.569c.105.044.384.116.303.083-.05-.018-.424-.133-.303-.083m-7.066-6.876c-.208-.615-.053-.146-.1-.235zm20.615-9.848c-.05-.09.035 0 .08.107.014.033-.052-.056-.08-.107m1.519 4.389c.013-.091.05.34.014.175zm-.86-3.144c-.043-.058-.062-.1-.142-.28.127.264.027.01.143.28M8.496 18.11l.002-.001zm2.613 9.37c.042.07.195.24.16.18a2 2 0 0 0-.16-.18M27.49 11.47q.01.014-.013-.004 0-.002.013.004M10.351 26.517c.012.002-.178-.289-.185-.3-.123-.159.101.183.185.3m8.004 4.885a.4.4 0 0 0-.164-.04c-.056 0 .097.036.164.04m12.236-15.385c.038.103.089.25.086.28-.021-.07-.095-.279-.086-.28m.595 2.352c-.032-.125-.08-.42-.115-.605.02-.009.097.485.115.605m-3.138-6.383c-.005-.007-.196-.207-.179-.17.027.051.229.23.18.17m-10.22 19.322c-.124-.012.152.064.285.061.067 0-.265-.058-.285-.06m-6.252-3.29c.12.111-.152-.188-.199-.221.05.056.157.181.2.22M8.781 23.29c.115.502.1.213.066.128a2 2 0 0 0-.066-.128m22.029.067c.016-.07-.083.182-.082.219.001.023.072-.174.082-.219M12.64 29.05c-.247-.27-.242-.216-.267-.236-.052-.044-.162-.159-.259-.243q.171.14.345.274c-.094-.069-.816-.768-.83-.784-.03-.012.197.208.203.215.009.01.02.07.04.091.03.04.663.598.768.683M9.141 24.3c-.027-.078-.022-.105-.039-.14-.006-.011-.02-.008-.038-.049q.037.096.077.19M13.19 29.4c.073.073-.296-.2-.305-.213-.056-.055.243.155.305.213m-2.75-2.733c.009.015.214.302.22.293-.053-.077-.324-.461-.22-.293m-1.397-2.605c-.043-.117-.107-.341-.117-.31q.057.157.117.31m8.362 7.209c.219.078.12.017-.077-.036-.063 0 .04.023.077.036m.72.153c.061.02.72.086.621.056-.034-.007-.414-.034-.431-.04-.026-.004.096-.007-.105-.03.011.008-.106.01-.085.014m-.538-.095c.22.067.279.03.11 0-.066-.012-.141-.01-.11 0m-.908-.22c.078.027.289.09.439.11a12 12 0 0 1-.585-.16c-.024.001.078.027.146.05M31.413 19.73c.01-.183.023.239.018.258-.01.053-.02-.176-.018-.258m.128 2.322c.014-.05.037-.081.046-.196q-.045.168-.095.335c.011.093.034-.083.05-.139m.17-.421c-.001.016.055-.067-.004.14-.037.14.046-.637.07-.775-.003.155-.05.495-.066.635m.296-1.358c.005-.009 0 .292-.005.326-.022.181-.012-.277.005-.326m-.066.957c.022-.14-.003.173-.02.265-.01.008.017-.243.02-.265m-.094-3.454c.001-.157-.088-.278-.03-.05.002.011.03.056.03.05m.194 2.793c-.015.14-.005-.172 0-.266a2 2 0 0 1 0 .266m-.144-2.912c-.019-.205-.076-.12-.073-.095.01.104.1.454.118.527-.1-.532-.039-.335-.046-.432m-.256-.91c-.058-.18.055.291.094.376-.023-.09-.078-.324-.095-.375m-.335-1.1a4 4 0 0 0-.172-.422c.046.101.147.386.172.422m-.052-.228c-.046-.154-.102-.172-.02-.007.003.007.021.013.02.007m-.35-.828c-.03-.102-.123-.19-.049-.037.023.045.052.048.049.037m1.017 2.798c-.025-.15-.098-.332-.031-.017q-.044-.164-.09-.327c.08.413.11.376.134.494.031.166-.007.16-.024.129.05.13.146.71.18 1.05a12 12 0 0 0-.127-1.073c-.014-.083-.04-.16-.054-.232-.022-.113.013-.015.012-.023m-1.587-3.835c-.146-.273-.078-.084.019.06a.3.3 0 0 0-.019-.06m1.851 6.61c-.031.415-.028.111-.056.977.005-.364-.017-.022-.021-.093-.003-.057.018-.269-.007-.147.036-.162.05-.865.049-.898v.001c.001-.019.043.028.035.16m-.773-4.558c.012-.116-.08-.124-.116-.328-.158-.229.275.696.252.834-.353-1.044.182.708.013-.047.167.614.073.195.113.286.043.097.128.447.142.425a12 12 0 0 0-.193-.634c.026.218-.1-.214-.122-.368q-.043-.085-.09-.168m.343 1.196c-.002-.022-.141-.479-.142-.446.018.06.202.713.142.446m.376 2.065c-.014-.169-.038-.436-.067-.526.024.17.044.436.067.526m-3.748-7.792c-.166-.143.312.33.184.183a8 8 0 0 0-.184-.183m2.835 4.071c-.073-.21-.078-.094-.001.053.004.008.005-.043.001-.053m.964 5.354c.016.014-.03.616-.045.72-.001-.06.036-.739.045-.72m.02-1.335c.024-.346-.086-.803-.092-.853s.024.026.023.014c0-.026-.086-.56-.095-.585-.004-.018-.014.082-.043-.025.067.209.178 1.19.176 1.24.005.04.012-.26.03.209m-.104-.98c.008.135-.049-.238-.062-.33-.025-.202.063.313.062.33m-.155-.897c-.005-.043-.095-.422-.117-.451.032.182.133.548.117.451m-1.663-3.987c-.055-.085-.202-.321-.221-.328.06.083.204.32.221.328m1.75 9.25c.044-.164-.032.222-.064.331-.008.005.062-.317.064-.331m-.727-7.482c-.008-.064-.56-1.164-.665-1.304a22 22 0 0 1 .643 1.292c.007.014.024.02.022.012m.787 2.54c.038.107.03.184.033.198.023.138.07.424.044.363-.026-.246-.153-.775-.077-.561m-1.794-4.422c-.233-.346.19.336.145.24a6 6 0 0 0-.145-.24m1.065 2.007c.062.074.463 1.242.5 1.437-.072-.164-.094-.305-.17-.532-.02-.06-.024-.041-.026-.048-.036-.105.002-.03-.02-.095-.006-.044-.346-.877-.284-.762m.752 2.476c.028.064.147.826.142.858.014.232-.123-.8-.142-.858m-.776-2.589c.082.11.286.69.12.303-.016-.037-.068-.198-.12-.303m-.993-1.871a5 5 0 0 0-.262-.385c.037.052.382.586.262.385m.147.175c-.006-.009.034.087-.073-.088-.01-.014-.008-.053-.157-.264a1 1 0 0 0-.084-.097c.13.235.599.896.314.449m1.64 4.296c.001-.043.044.051.048.143 0 .039-.026-.03-.047-.143m-2.595-5.596c.174.186-.334-.43-.369-.454.012.024.354.433.369.454m2.52 10.88c-.053.207-.034.075-.037.084-.132.438-.077.328-.092.398-.036.15-.06.116-.124.367.106-.415 0-.04-.015-.033-.06.031.187-.536.224-.748.006-.029-.064.179-.05.104.05-.24.288-.974.095-.172m.137-5.073c.037.096.117.844.08.648 0-.033-.122-.788-.08-.648m-24.781-.03c.018-.183-.068.232-.068.31 0 .039.059-.231.068-.31m-.211 2.94c.016.216.09.437.06.17-.004-.027-.054-.196-.06-.17m6.46-11.81c-.205.094-.176.118-.032.036.05-.029.04-.04.033-.037m-5.563 6.347c-.01.02-.101.264-.09.259.037-.09.152-.392.09-.26m5.624-6.387c-.114.07.1-.02.232-.117-.073.04-.22.11-.232.117m17.496 5.673c-.06-.095-.197-.381-.285-.54.009-.027.23.423.285.54m-24.02 5.258c.011.205.027-.234.01-.194-.002.006-.011.185-.01.194M20.665 7.414c-.149 0 .32.05.192.021zm2.035.311c-.108-.032-.58-.126-.399-.078.028.006.39.085.4.078m9.237 15.737c.036-.052-.068.285-.088.332-.006.018.043-.262.088-.332M12.427 9.777c-.095.07-.338.249-.374.29.11-.09.415-.297.373-.29M7.24 18.95c-.036.176-.05.482-.018.408.018-.337-.03.039.018-.408m7.14-10.363c-.084.039-.137.095-.127.091.096-.034.216-.121.128-.09M9.19 13.195a1.2 1.2 0 0 0-.14.225c.008-.01.15-.224.14-.225m19.835-1.81c-.087-.108.208.192.279.295.028.056-.267-.283-.28-.296M16.83 7.724c.009-.02-.444.107-.261.074.046-.01.257-.067.26-.073m4.467-.287c-.314-.026.992.177.653.103-.025-.01-.625-.105-.653-.103m2.114.446c-.052-.017-.01-.065.2.023.027.012-.11-.015-.088-.005l.498.173c.024.007.003-.02.027-.013.027.006.305.125.451.185.276.111.31.113.333.122.066.028.171.086.302.147.664.296 1.626.863 2.069 1.235a10 10 0 0 0-1.276-.805c.147.04-.673-.33-.191-.117-.2-.149-2.142-.929-2.325-.944M7.267 21.654c-.039-.13.064.547.1.599zm-.066-3.15c.004-.063-.029-.129.04-.456v-.001c.02-.096.012.015.018-.002.002-.006.07-.304.032-.054-.053.381-.034.032-.064.235a5 5 0 0 0-.024.392c.001-.002.01-.12.014-.138.016-.072.023-.035.025-.046.002-.033.073-.643.11-.728.002-.028-.13.97-.127 1.01-.004.024-.035.01-.041.036-.004.013-.025.418-.03.47l-.004.036c.012-.06-.006.306-.016.294a4 4 0 0 1 .011-.268l.002-.01c-.022.05.053-.802.02-.62.017-.25.022.038.034-.15m.175-1.182-.006.078c.08-.43.223-.912.38-1.389.041-.12-.026.012.034-.145.047-.125.117-.257.096-.187-.006.017-.108.269-.148.4-.118.384-.068.292-.075.315-.007.025-.089.264-.123.398-.083.336-.111.494-.212.956.039-.27-.016-.128.054-.426m11.406-9.96c.015-.013.3-.023.404-.029-.015.012-.301.018-.404.03m4.558 24.835c.08-.04-.555.126-.384.096.038-.005.305-.073.384-.096m-2.9.47c-.087.01.267.004.265-.011 0-.005-.254.01-.264.011M9.74 12.262c.01-.014.162-.201.168-.206.113-.114-.382.506-.167.206m7.146 20.105c.299.06-.592-.166-.323-.083.013.005.308.08.323.083m-1.23-.353c.068.024.377.13.383.125a2.5 2.5 0 0 0-.384-.125M14.407 8.498c-.041-.005.356-.17.494-.228.04.004-.36.16-.494.228m-2.32 1.393c1.474-1.054 1.158-.806-.08.074-.01-.009-.01-.003.08-.074M14.05 8.66c-.053.041-.237.133-.359.2.018-.022.27-.153.359-.2m10.042 23.325c-.1.057-.587.191-.504.157.02-.005.541-.178.504-.157M9.82 12.13c-.044.02.307-.397.34-.424.121-.117-.32.384-.34.424m7.005-4.501c.089-.039.359-.091.53-.124-.075.028-.386.088-.53.124m-1.22.346a9 9 0 0 1 .253-.084c.195-.05-.462.169-.253.084m16.667 14.73c0 .009-.042.19-.045.196-.05.159.074-.385.045-.195"/><path fill="#231f20" d="M21.984 21.112c-.003.01-.028.046-.036.063-.007-.028.048-.1.036-.063m-.84 2.62.059-.04c-.063.023-.146.06-.206.078-.01.002.01-.02-.013-.013s-.012.025-.044.039c-.037.016-.213.059-.273.075-.225.064-.456.12-.69.136.238-.044-.005-.028-.071-.017-.015.002-.01.044-.252.044-.105-.002-.073-.028-.122-.035a1 1 0 0 0-.146.002c.195.04.002.038-.153.027-.027 0-.242-.026-.336-.04-.032-.005-.085.006-.128-.001-.03-.005-.05-.02-.093-.028q-.305-.059-.595-.169c.13-.005-.081-.052-.09-.059-.04-.03.169.045.09.006a4 4 0 0 1-.34-.138c.088.05-.14-.02-.17-.056-.008.054-.463-.316-.534-.364-.015-.009.065.084-.148-.096-.023-.02-.005-.023-.018-.032-.008-.005-.08-.01-.11-.068-.01-.022.11.056-.125-.148.057.12-.323-.292-.37-.386l.025.059c-.053-.088-.075-.094-.088-.113-.055-.075-.117-.186-.165-.257-.056-.083-.08-.07-.131-.175l.028.08a4 4 0 0 1-.119-.213c.122.148-.019-.036-.025-.05-.013-.02.016.004-.004-.031-.002-.004-.012.008-.041-.047-.06-.116-.035-.105-.058-.154-.002-.004-.006.017-.047-.069-.121-.273.008-.001.016.008.008.012.011-.1.1.136-.031-.078-.013-.096-.017-.104l-.066-.148c-.034-.064-.025 0-.033-.011-.007-.01-.05-.182-.105-.207.014-.094.05.035.107.164.015.016-.031-.132-.033-.14-.063-.188-.061-.073-.096-.108-.019-.019-.02-.104-.027-.023-.055-.175-.006-.073-.007-.085-.001-.018-.027-.078-.027-.086-.002-.012.019.025.011-.021-.001-.008-.037-.076-.023.02-.029-.126-.04-.112-.019-.162-.078-.075.022-.07.02-.105-.009-.091-.05-.057-.054-.062-.023-.03-.041-.288-.052-.35.036.021.022.202.036.24.04.128-.008-.186.047-.097l-.048-.116c.021-.075.04.028.017-.168-.027-.031.013.139-.008.106-.013-.02-.023-.135-.028-.137-.008-.002.007.102-.005.087-.029-.036-.015-.416.005-.127-.003-.07.032-.111.031-.166q0-.013-.003-.026c-.003-.017-.014.008-.026.026-.01.015-.021.025-.029 0a.7.7 0 0 1-.002-.2c.022-.007.002.153.004.157.002.006.052-.022.055-.027.004-.017.002-.405.042-.484-.035.028.04-.29.043-.325 0-.01-.025.021-.025.01.002-.064.073-.223.097-.298.026-.084.009-.078.01-.083.013-.037.013-.004.02-.027.01-.035.097-.266.1-.278.002-.003-.03.028-.012-.024.003-.008.018.004.075-.146.07-.18-.08.112-.065.03.078-.101.05-.11.067-.14.006-.01.067-.077.11-.16a4 4 0 0 0-.08.186c.032-.058.086-.174.118-.22.015-.022.023.008.05-.043.007-.01-.015-.079-.069.065-.022.002.024-.056.036-.087.002-.005-.015-.038.024-.065.01-.006.025.134.125-.143.003-.009-.024.012-.021.003.002-.006.047-.065.05-.072.004-.008-.027.014-.023.005.019-.05.097-.076.034.008l.075-.075c-.052.008.024-.051.052-.09.186-.247.04-.1.063-.15.04-.078.045.012.114-.096.008-.01-.118.086.098-.126q-.046.048-.088.1c.043.004.107-.12.114-.127.08-.088.03-.023.146-.158.01-.012.041-.029.064-.055.092-.107-.144.116-.159.114-.01-.004.251-.239.265-.24.048-.023-.117.107-.074.095.01-.01.394-.326.486-.368.102-.056.171-.04.144-.086.055.029.061-.017.074-.023l.293-.152c.03-.015.062-.012.072-.02.005-.003-.013-.014.015-.033.04-.028.311-.113.334-.108.023.001-.11.043-.081.05.095-.034.186-.068.284-.094.04-.011.023.005.04 0 .008-.002.146-.047.14-.05-.018-.01-.448.127-.34.074.02-.01.105-.01.084-.036.39-.112.794-.166 1.196-.162-.23.024-.49.027-.729.074-.032.005-.143.026-.126.038.201-.04.454-.082.651-.082.006 0-.016.015.008.016.044 0 .186-.025.21-.019.004.001-.077.02-.052.032.032.015.052.005.07-.008.02-.012.037-.029.064-.028.043 0 .324.047.396.037.077-.014-.207-.032-.186-.046.195-.005.39.04.569.075.003 0-.022-.018.018-.012.072.012.085.035.118.046.036.012.164.043.179.056a.1.1 0 0 1-.033.012c-.057-.008-.07-.037-.076-.039-.018-.005-.04 0-.057-.006-.028-.008-.042-.02-.08-.03-.026-.006-.004.017-.029.01-.009-.002-.102-.061-.119-.023 0-.007.795.239.867.283a4 4 0 0 0-.194-.093c.133.06.305.104.296.153.483.229.92.553 1.278.947.06.073.004.053.112.166l-.057-.11c.052.061.26.349.294.395.005.006.034-.002.085.071.045.065.034.087.053.125.015.032.04.064.044.073s-.006.017.002.035c.024.056.031-.004.025.068l-.026-.036c.031.067.061.164.003.073-.01-.015.008-.007.001-.019-.277-.462-.07-.085.032.074.008.05.132.291.13.302 0 .013-.03-.023-.02.037.007.011.137.346.071.232-.012-.023-.068-.186-.085-.224.003.103.129.3.134.326.025.1-.092-.18-.026.044.047.172.025.004.054.067.018.036.038.24.072.227.018.067-.01.031-.009.04.001.008.038.14.036.187 0 .005-.021-.009-.022-.003 0 .011.022.14.023.146.002.003.015-.03.02-.018.007.014.017.142.021.148.01.01-.012-.147.009-.123.004.074.026.19.044.238a1 1 0 0 1-.011-.107c.029.009.038.162.013.111.013.033.018.01.03.028.003.005.006.052.01.06.002.002.01-.047.016-.038a.7.7 0 0 1 .01.174c-.008.034-.018-.084-.03-.094-.001 0-.023.1-.025.1-.02.006-.007-.104-.026-.091l-.011.082c-.019-.105-.02-.297-.048-.344.021.152.022.314-.028.314-.02 0-.035-.065-.04-.063-.018.01.003.1.002.104l-.003.004c-.01 0-.021-.128-.027-.134-.01-.01-.045.047-.053.047-.002-.002-.014-.091-.027-.06-.013.03-.012.108-.014.11-.008.015-.019-.12-.025-.123-.002-.002-.016.07-.02.072-.005.002-.017-.052-.032-.073-.011-.015-.018.032-.02.023 0-.005-.008-.13-.01-.136-.004-.009-.015.021-.018.017-.005-.005-.003-.046-.008-.04-.002.004-.038.161-.05.16-.02-.001.018-.164-.055-.01 0 0 .007.036.006.037-.014.022-.04-.091-.032.049-.034-.26-.03-.032-.066-.069-.014-.014-.025-.113-.027-.113-.016.01-.001.041-.009.053-.004.006-.027-.08-.037-.06-.005.01.002.103.001.106-.01.037-.023-.007-.03.001-.005.006-.004.06-.005.062s-.025-.071-.033-.086c-.006-.011-.013.033-.016.025-.016-.049.014-.155-.032-.052-.003.007 0 .044 0 .046-.014.023-.019-.046-.032-.057-.022-.02-.005.078-.024-.003a.6.6 0 0 0-.003.167c-.016-.198-.076-.261-.065-.046-.001-.069-.032-.06-.033-.08 0-.013.022-.113-.043-.063-.008.006.007.064-.012.047-.005-.141-.01-.002-.013-.002-.037 0-.042-.341-.063-.398-.018-.066-.063-.117-.067-.131-.011-.047.014-.012.017-.024s-.063-.136-.064-.143c-.002-.027.025-.007.025-.01.003-.035-.073-.205-.09-.254-.01.006.026.103-.016.05-.05-.06-.001-.085 0-.088a3 3 0 0 0-.567-.867c-.017.021.147.178.146.186.004.034-.245-.251-.277-.286l.062.088c-.065-.02-.13-.143-.207-.189-.025-.014.008.03.006.03-.032-.01-.064-.05-.024-.04-.07-.036-.05-.042-.095-.08-.002-.002.01.024-.03 0-.02-.011-.113-.08-.133-.078-.008.001.01.077.041.044.088.092.045.007.084.037.005.005-.023.014.08.081-.046.02-.136-.092-.16-.101-.045-.02.103.119.153.117-.036.016.008.012.042.043.037.034.013.028.033.046.055.05.05.01.078.068.005-.091.082.067.1.114a3 3 0 0 0-.172-.154l.002.017-.044-.041.014-.002c-.093-.051-.097-.085-.103-.091a2.4 2.4 0 0 0-.28-.203c-.015-.008-.016.016-.112-.06-.03-.023.01-.021-.03-.04-.071.017-.052-.017-.067-.024-.041-.021-.072-.023-.076-.024-.053-.024-.13-.06-.189-.08 0 0 .024.025-.012.006-.012-.006-.113-.112-.23-.123q.04.018.081.038c-.03-.02-.27-.064-.217-.033.033.018.13.002.128.043-.072-.043-.513-.1-.547-.104-.005-.002.026-.012.02-.015s-.108-.006-.121-.011c-.008-.003.038-.009.034-.014-.003-.004-.131-.014-.139.003.032-.007.12.003.073.014-.006.002-.036-.01-.044-.008-.067.018.133.02.164.024-.066.005-.147 0-.232-.002-.08-.002-.163 0-.233.011-.06-.008.086-.026.018-.032-.14-.011-.035.02-.039.023-.032.015-.158-.041-.15.013-.05 0-.036-.01-.105.009l.03.006c-.07.043-.25.003-.24-.005.03-.024.121-.019.128-.02.01-.003.03-.066.16-.035.044-.046-.196.007-.09-.037-.075.013-.383.067-.42.101-.005.004.03.03-.048.038-.037.003.046-.026.027-.029-.064-.026-.692.301-.786.4-.007.006-.011-.006-.018 0-.021.015-.086.087-.126.113.089-.045-.055.075-.091.106-.056.046-.066.029-.092.047-.1.073-.189.245-.28.291.037.023-.118.117-.16.183-.035.05-.055.14.003.08a2 2 0 0 0-.143.273c-.007.014-.009-.011-.02.014 0 .002.01.01 0 .032-.07.18-.055.084-.077.114l-.025.04c.04-.106.093-.226.11-.257-.042.013-.105.23-.133.287 0 .003-.013-.01-.014-.008-.01.022-.056.17-.028.146.008-.006.03-.073.06-.152-.006.022.017.013.016.017-.01.048-.065.154-.08.194-.003.009.008.012.008.013-.014.036-.04.012-.02.059-.058.056.032-.127.004-.12-.03 0-.126.442-.087.447q-.006 0-.015.018a.5.5 0 0 0-.024.172c0 .004.031.006.031.01-.001.01-.036.16-.018.218l.016-.09c-.007.182.006.154.015.093l.002-.009c.008-.046.018-.106.02-.107a1 1 0 0 1 0 .187c-.002.049-.007.082-.02.059v-.06c.001-.033 0-.061-.011-.021l-.001.021c0 .032.004.085.002.089-.008.019-.02-.04-.031-.088-.008-.037-.016-.069-.025-.058a.2.2 0 0 1 .01.058c.003.037.001.076.006.113.003.025.019.03.02.034.006.047-.012.021-.01.037 0 .009.042.099-.007.085.071.303.038.082.025-.105.02.058.022.174.034.225.004.018.018.005.025.036.012.063.06.366.084.444-.02-.046-.032-.027-.02.01.013.036.025-.002.03.004.004.008.052.18.068.206-.056-.123-.062-.09-.022.02l-.032-.042c.03.06.064.202.089.234.003.005.007-.02.009-.018.02.028.06.14.068.141.006.002-.007-.047.007-.034.003.003.008.055.036.093.01.015.017-.001.02.002.024.029-.007.022.031.077.029.04.067.06.1.12-.1-.202-.008-.038.053.031.01.011.022-.013.066.064-.149-.123.012.058.045.096.002.002-.01.013.005.032.002.002.008-.008.024.009.148.155.048.06.067.099.008.016.093.08.113.1.005.004-.005.01.013.027.033.03.07.048.093.067.003.002-.01.016.037.047.013.01.03.016.017-.003-.045-.059-.168-.132-.213-.204-.042-.064.127.103.137.11.004.002-.037-.023-.003.01.029.03.105.054.146.096a.3.3 0 0 1 .022.054c-.003 0-.064-.042-.06-.03 0 .002.037.031.038.04s-.024.076-.016.084c.018.02.014-.004.027.007.027.025.12.115.137.097l-.05-.04c.099.065.063.028.08.034.017.005.001.02.033.043.007.006.15.086.152.076-.085-.033-.043-.039-.046-.04-.013-.01-.038-.008-.056-.02-.126-.081.014-.02-.013-.044-.009-.008-.036-.01-.04-.014-.013-.01-.004-.024-.014-.03-.023-.011-.01.025-.013.025-.027-.001-.092-.068-.032-.056-.022-.026-.043-.004-.058-.03-.029-.05.032.002.052.01.072.032.084.055.18.108.034.019.081.029.098.037.01.005.083.1.121.03.033.025.07.1.112.116.037.013.037-.018.04-.017.006 0 .048.02.065.022s.014-.01.043-.005c.071.015.06.041.067.046.075.048.052-.003.071 0 .017.005.255.086.31.083l-.067.003c.034.026.08.006.075.037.018-.049.089 0 .113.002.01 0 .01-.008.022-.007.046.006.149.024.174.022.108-.01-.161-.068-.18-.076.041.01.283.02.175-.015-.017-.005-.05.015-.059.015-.065-.002-.012-.017-.017-.02-.008-.003-.053.011-.064.007-.003-.001.023-.016-.037-.026.032-.012.201.022.224.018.009 0-.04-.042.106.004l-.005-.011a3 3 0 0 0 .247-.005c-.009.009-.055.027.003.021.034-.003.008-.02.011-.021.031.005.555-.066.65-.111.032-.01.12-.055.126-.058.041-.014.19-.063.217-.079.017-.01-.006-.016.01-.022.015-.006.006.014.01.013.04-.008.297-.168.362-.198a1.5 1.5 0 0 0-.206.162c.002.001.055-.014.062-.025.022.003.057-.063.09-.074.004-.002.002.026.057-.003.018-.01.055-.055.112-.071.065-.046.406-.306.404-.35 0-.001-.048.035-.027 0 .028-.048.026.018.072-.025.008-.006.12-.14.121-.148.015-.055-.09.054-.091.05a1 1 0 0 1 .08-.11c.004-.003-.035.098.032-.006l-.035.025c.03-.05.05-.04.06-.05.03-.033.03-.09.105-.124.02-.009.013.024.015.023.026-.01.008-.057.052-.069.003 0-.024.077.05-.041l-.023.02c.006-.02.073-.143.082-.159.03-.046.026.006.05-.045-.041.02.03-.133.047-.114-.018-.034.06-.155.083-.219.016-.04.03-.126.035-.138.007-.015.025-.004.038-.031.004-.008.014-.097.052-.168.008-.014.05-.038.052-.008.004.052-.047.134-.027.139.023.004.041-.12.05-.154.044-.15.05-.057.058-.06.02-.007.034-.093.036-.096.01-.014.013.05.023.052.014.004.053-.077.054-.057.003.03-.031.104-.032.108.002.067.05-.015.07-.037.006-.007.009.024.011.019.038-.092-.04-.028-.027-.09.013-.055.023.02.024.018s.013-.07.022-.08c.005-.005.019.178.037.175q.01-.087.015-.173c.024-.002-.005.078-.004.087.002.018.022-.028.03-.025.004.002.012.061.027.01.005-.017-.006-.056.018-.119-.006.229.027.075.037.069s.015.107.029-.027c.047 0 .014.005.017.044.004.048.036-.058-.002.111.024-.006.042-.144.044-.152.002-.006.01.026.014.016.058-.127.028-.039.06-.074.002-.003.023-.129.019-.032-.01.176-.056.243.006.284.052-.126.024-.291.025-.33.004-.061.013.003.017-.004.002-.003.004-.056.005-.056.055-.035-.016.235-.023.32l.032-.065-.013.094c.037-.147.008-.006.042.04.008.01.008-.093.015.025.02-.083.024-.055.023-.133.017.004.009.18.002.248.063-.236-.02-.109.04-.312-.016-.04-.024.059-.026.05-.009-.03.02-.097-.017-.181-.006-.014-.031.04-.024-.043 0-.009.022-.06.023-.06.015.008.006.06.012.063.005.003.006-.056.007-.057.018 0 .004.05.01.043.013-.015.064-.227.036.052-.006-.234-.016-.031-.017.059 0 .023.01.03.01.063 0 .043-.012.091-.013.113-.002.024.044-.106.007.086.042-.094.036-.272.059-.368.047-.196.035.141.032.177 0 .01.017-.02.017-.014.002.01-.03.2-.023.221.009.021.01-.07.024-.074.01-.003-.016.232.012.107.02-.087.006-.25.044-.274q-.015.194-.05.386a4 4 0 0 0 .079-.204c-.018.147-.059.269-.074.41.122-.32.01.116.009.121.003.003.073-.118.084-.138-.01.121-.123.474-.012.282a.4.4 0 0 0-.027.133c.024-.005.077-.21.082-.171.009.044-.035.09-.053.147-.1.298.029.26-.126.544l.019-.013a4.2 4.2 0 0 1-.598.861c-.063.126-.31.401-.455.51-.028.025-.178.121-.191.126-.023.01.084-.073.029-.044-.01.008-.26.175-.233.176.03-.017.111-.084.127-.091.126-.03-.681.431-.73.438l.063-.01q-.082.033-.165.063m.806-2.459c-.003-.029.038-.073.05-.106.018-.045-.007-.148.038-.086a3 3 0 0 1-.088.192m-.699.749c.043-.022.038.03-.003.042-.004.001-.055-.013.003-.042m.374-.324-.031.032c-.036.017.05-.072.03-.032m-2.127.952c.052-.001.014-.036-.018-.022-.002 0 .014.022.018.022m.037.001c.042.031.123-.034.058-.026a.4.4 0 0 0-.058.026m1.855-.725c.004.013-.037.04-.055.052-.006-.009.04-.037.055-.052m-1.071.594c0 .01.162-.042.168-.059-.023.016-.169.051-.168.059m-.423.101c.004.001.062-.01.06-.017-.03-.006-.08.012-.06.017m-.866-.021c-.004 0 .03.061-.067.007-.014-.008.043-.01.038-.014l-.026-.01a1 1 0 0 1 .102.015c.02.018-.046.001-.047.002m-.452-.08c-.013.005-.072-.022-.085-.03-.002-.002.017-.019-.01-.028-.023-.007 0 .027-.04.007-.041-.021.022-.013.018-.016s-.073-.021-.066-.033c.006-.008.073.028.09.032.024.007.003-.02.039-.002.023.011 0 .034.004.037s.092.017.05.033m.384.061q.006 0 .013.002zm2.925-1.185c-.021.015.01-.052.034-.069.009.005-.03.067-.034.069m-2.974 1.199c-.07-.023-.015-.02.049-.014-.021.002-.026.022-.05.014m1.992-.299q-.006 0-.01-.007.014.002.01.007m-.154.069c-.045.04.06-.012.054-.023a.2.2 0 0 0-.054.023m-1.32.282c.005.002-.08.05.041.016-.064-.008.004-.012.003-.017-.002-.012-.11-.004-.133-.011-.02.022.071.006.088.012m-1.58-.523c.02-.002.055.028.08.046-.019.003-.055-.027-.08-.046m2.672-4.983c-.205-.058-.217-.117-.036-.035.003.002.05.035.036.035m-1.81-.072c-.026-.017.037-.04.083-.042.01 0 .052.014.013.029-.006-.029-.073-.022-.096.013m.156 5.532c-.024.01-.085-.017-.118-.029.024-.006.09.017.118.029m.975-5.648c-.023-.005-.04.015-.036.017.016.01.06-.003.036-.017m-.768 5.691c.001.01-.086.004-.088-.02.018.005.087.014.088.02m-1.18-.48c.008.012-.054-.022-.068-.038.007-.007.062.03.068.038m1.58-5.22c-.02-.002-.071 0-.076.008-.007.01.067.004.076-.009m2.842 2.096a.24.24 0 0 1-.055-.1c-.007-.067.058.096.055.1m-2.259-2.067c.06.032-.007 0-.008.02.042.008.147.033.08-.003-.014-.007-.052-.012-.072-.017m-.057-.017c-.008.006-.057.02-.018.024.019.002.052-.016.018-.024m2.137 1.63c-.007-.062.092.185.09.194l-.002.01c.009.006.027.053.015.063-.004-.014-.02-.052-.02-.057v-.005a1.4 1.4 0 0 1-.083-.206m-.201-.392c.06.04.026.076.022.072-.055-.05 0-.03 0-.032-.001-.006-.043-.04-.022-.04m.168.307.025.055c.007.047-.06-.095-.025-.055m-3.863 3.913c-.033-.022.01-.02.03-.003.002.002 0 .022-.03.003m1.726-5.458c-.007-.007-.243-.044-.23-.015.02-.005.284.042.23.015m-1.722.26c.038-.018.007.023-.017.025-.008.001.007-.02.017-.025m.942 5.466c.045-.008.031.035-.005.016-.001-.001.003-.016.005-.016m-.63-5.583c-.13.064-.127-.023.06-.06l-.013.016c.21-.054.015-.001-.033.021-.018.008.002.015-.015.023m-.506.22c-.148.026.1-.082.166-.12-.057.054-.141.096-.016.055-.165.094-.105.04-.113.04-.01.003-.03.024-.037.026m.326-.166c.006-.005.066-.018.086-.028-.022.028-.13.059-.086.028m3.26.688c.015-.006.031-.005.06.035-.016-.006-.041-.025-.06-.035m.4 3.433c.018-.028.054-.083.03-.073-.001.002-.037.068-.03.073m-2.757-4.352c-.007-.003-.187.017-.123.026.019.001.182-.016.123-.026m.932.071a.4.4 0 0 0-.077-.011c-.007.01.068.02.077.011m1.918 4.142c.003-.003.045-.095.033-.088-.02.013-.045.099-.034.088m-4.034 1.24c-.007-.003-.01-.022-.012-.024-.006-.003-.141-.078-.08-.064.009.004.197.12.224.132 0 .025-.075-.037-.096-.047-.004-.001-.015.014-.036.004m3.715-4.356c.016-.004.132.138.116.146a3 3 0 0 0-.116-.146m-.056-.072c-.018-.036.043.031.056.055-.006.006-.053-.05-.056-.055m-1.874-1.065c-.019 0 .035.028.022.03-.008.002-.048-.01-.062-.006-.004.002.035.025.047.026.017 0 .003-.016.021-.014.062.008.115.027.171.038.005 0-.032-.017.011-.009.007.002.045.025.097.035.127-.02.199.049.345.083a1 1 0 0 0-.113-.057c-.117-.048-.339-.1-.47-.116-.035-.005-.02.007-.034.006-.012-.001.004-.019-.035-.016m2.156 4.412c.025-.004.042-.058.06-.088-.021.002-.038.06-.06.088m-.876-3.902c-.015-.009-.058-.044-.065-.041-.01.003.054.05.065.041m-3.75 4.444-.03-.034c-.016-.038.07.057.03.034m-.56-.847c-.016-.029-.034-.057-.023-.072.005.02.034.071.023.072m-.239-1.374c-.02.005 0-.091.005-.11.007.009.01.106-.005.11m5.067-1.822c.04.044.054.015.07.052.002.007-.033.064-.059 0-.005-.012.038.011-.011-.052m-3.032-.762c.01-.018.057-.028.088-.035-.004.01-.067.027-.088.035m3.574 3.945c.03-.018.063-.144.04-.118-.003.004-.032.102-.04.118m-3.514 1.645c-.055 0 .05.035.087.03-.015-.003-.083-.03-.087-.03m-2.11-2.666v-.062c.014-.047.016.113 0 .062m.384 1.345a.4.4 0 0 1-.079-.167c.027.018.104.181.08.167m4.515-3.674q.048.043.084.09c-.013.001-.085-.081-.084-.09m-4.902 2.12.002-.009zm4.103-2.64c-.032-.018-.032.002-.03.003.022.016.065.017.03-.004m1.385 4.167c.02-.002.039-.061.058-.09-.016.003-.046.065-.058.09m-4.176-3.903c-.049.009.095-.11.136-.118a1 1 0 0 1-.136.118m.954 5.318c0 .014.08.015.065.005-.01-.006-.065-.013-.065-.005m-.734-5.474c.013-.012.055-.02.046-.005-.011.017-.05.008-.046.005m1.492-.363c-.008-.003-.11.01-.068.024.03.01.034-.01.04-.01.009 0 .17.03.028-.014m-2.46 1.214c.019-.034.052-.067.077-.098a.3.3 0 0 1-.077.098m1.416 4.545c.007.01.249.084.116.028-.008-.002-.137-.052-.116-.028m3.105-4.817-.017-.021zm-.52-.441c.017 0-.04-.041-.06-.048-.012.007.058.048.06.048m-3.933.604c.01-.022.042-.05.06-.072.004.009-.046.07-.06.072m-.642 1.473c.01-.045.018-.102.007-.104l.006-.006c.003-.004.006-.053.014-.074.039-.123-.058.493-.04.13zm.472 2.04c.003.03.06.08.053.06-.005-.012-.056-.09-.053-.06m-.416-.914c-.001.008.027.075.034.075-.004-.042-.032-.112-.034-.075m.521 1.087c.009.014.039.017.038.015-.004-.018-.045-.044-.038-.015m4.471-3.98a.2.2 0 0 0-.104-.065.1.1 0 0 0-.013-.027c-.004-.028-.517-.404-.188-.133.01.008.004-.013.045.022.003.003-.002.012.006.02.02.015.119.107.144.12v.008c.015.032.12.071.11.055m-5.026 2.755c-.001.014.012.059.022.061 0-.023-.02-.096-.022-.062m1.964 2.231c.025.017.1.026.082.012-.012-.008-.112-.03-.082-.012m-1.834-1.793c-.046-.162-.014-.038-.036-.057zm5.354-2.556c-.012-.025.028-.012.03.021 0 .01-.024-.008-.03-.021m.4 1.137c.02-.026.02.088-.002.046zm-.217-.82c-.022-.01-.028-.02-.047-.069.036.068.02-.003.047.07m-5.684.709h.002zm.676 2.438c.004.025.044.069.043.046 0-.002-.03-.046-.043-.046m4.263-4.166q0 .005-.006.002.002-.002.006-.002m-4.467 3.92c.01-.004-.037-.081-.04-.084-.043-.034.018.053.04.084m2.088 1.28c.005-.001-.022-.031-.041-.024-.016.006.023.025.04.023m3.196-4.02c.01.026.023.064.014.076-.005-.02-.023-.074-.014-.077m.156.613a.6.6 0 0 1-.04-.156c.02-.005.032.125.04.156m-.819-1.668c0-.002-.047-.057-.05-.041-.003.023.06.06.05.041m-2.67 5.04c-.033.003.036.043.073.027.02-.008-.067-.028-.072-.027m-1.634-.85c.035.025-.029-.06-.049-.061.013.015.036.052.049.06m-.74-1.233c.002.14.048.049.035.028a.2.2 0 0 0-.036-.028m5.77.016c0-.02-.04.042-.03.054.006.008.03-.041.03-.054m-5.655-1.996-.005.015q0-.006.005-.015m.879 3.513c-.04-.103-.058-.064-.065-.07-.013-.011-.035-.05-.062-.07l.1.06c-.023-.02-.201-.213-.21-.213-.014.004.047.06.048.062s-.013.038-.009.044c.007.012.174.16.198.187m-.896-1.27c-.004-.02.007-.032 0-.04-.002-.003-.015.002-.023-.008zm1.062 1.333c.013.029-.082-.047-.083-.05-.01-.022.073.027.083.05m-.72-.714c.001.004.052.081.059.075-.01-.023-.08-.124-.06-.075m-.37-.68c-.01-.031-.018-.093-.035-.08zm2.188 1.902c.053.043.033-.002-.017-.023-.019.01.009.015.017.023m.187.057c.016.01.191.023.166.002-.009-.006-.11-.002-.115-.004-.006-.003.027-.017-.026-.02.003.006-.03.02-.025.022m-.142-.027c.055.035.076-.007.032-.015-.017-.004-.04.01-.032.015m-.239-.061c.02.01.075.031.117.026a3 3 0 0 1-.154-.045c-.008.006.02.01.037.019m3.944-3.008c.011-.05.019.064.015.07-.01.013-.02-.048-.015-.07m.251.662c.008-.014.026-.021.022-.055l-.053.091c.023.03.023-.021.031-.036m.122-.111c0 .004.047-.016.01.042-.025.039-.014-.19.006-.229.006.046-.015.145-.016.187m.22-.396a.4.4 0 0 1 .003.1c-.015.054-.021-.085-.003-.1m-.026.29c.013-.041.009.054 0 .082-.008.002-.001-.075 0-.081m.004-1.054c.02-.052-.05-.08-.024-.012.001.003.023.015.024.012m.063.856c-.01.042-.011-.053-.006-.082.009-.002.008.075.006.082m0-.901c.009-.067-.057-.03-.058-.023a.5.5 0 0 0 .052.16c-.038-.163.002-.106.006-.137m-.108-.275c-.023-.054.002.093.028.116-.008-.028-.021-.1-.028-.116m-.088-.344a.4.4 0 0 0-.055-.13c.016.03.04.121.055.13m.005-.08c-.004-.051-.05-.045-.016.003.001.001.016 0 .016-.002m-.099-.262c.002-.038-.053-.052-.031-.004.007.015.031.008.032.004m.35.866c-.003-.048-.047-.1-.028-.001l-.038-.1c.014.131.052.113.059.15.007.053-.028.056-.041.048.03.038.06.219.074.324 0-.094-.007-.246-.02-.339-.002-.026-.017-.05-.02-.072-.007-.035.014-.007.014-.01m-.527-1.19c-.034-.092-.038-.018-.003.024.002.002.004-.022.003-.024m.603 2.063c-.022.13-.038.033-.022.306-.016-.115-.018-.008-.026-.03-.007-.019.005-.085-.015-.047.024-.05.025-.27.026-.28.002-.005.043.01.037.051m-.226-1.438c.037-.05-.045-.031-.029-.107-.09-.056.087.22.046.276-.107-.329.022.233.021-.021.034.2.03.06.049.086.02.028.04.141.057.13a4 4 0 0 0-.064-.2c-.019.078-.05-.06-.035-.117zm.082.385a.6.6 0 0 0-.053-.137c.002.02.064.222.053.137m.124.646c-.004-.053-.006-.137-.026-.164.008.053.008.137.026.164m-1.175-2.447c-.058-.038.09.112.058.058zm.903 1.273c-.013-.07-.047-.02-.014.022.002.003.015-.019.014-.022m.295 1.687c.014.004-.007.193-.011.226-.009-.02-.002-.233.011-.226m.032-.421c.038-.112-.032-.255-.034-.27 0-.016.022.006.023.003 0-.009-.028-.178-.032-.186-.002-.005-.024.03-.039-.003.032.064.06.375.062.39.003.013.025-.084.02.065m-.033-.31c-.005.043-.024-.074-.026-.104-.001-.065.027.098.026.104m-.042-.286c0-.014-.027-.135-.042-.142-.001.06.043.173.042.142m-.528-1.264c-.019-.026-.06-.105-.072-.103.02.026.06.105.072.103m.59 2.939c.02-.051-.002.073-.015.107a.5.5 0 0 1 .015-.107m-.22-2.399c0-.02-.182-.372-.219-.415.024.05.196.399.203.416.003.004.017.002.017 0m.257.816c.023.032.008.06.008.064.006.044.023.136.004.118-.004-.08-.058-.247-.012-.182m-.58-1.42c-.077-.109.048.116.044.08a1 1 0 0 0-.043-.08m.345.643c.029.02.15.4.162.462-.04-.048-.034-.097-.059-.17-.007-.019-.015-.01-.015-.013-.012-.033.008-.012 0-.033-.001-.014-.12-.278-.088-.246m.25.795c.015.02.056.265.053.275-.008.076-.05-.256-.053-.275m-.244-.837c.045.028.099.22.036.1-.006-.012-.015-.068-.035-.1m-.32-.604a.7.7 0 0 0-.085-.123c.01.018.12.192.086.123m.066.046c-.002-.003 0 .034-.032-.023-.003-.005.008-.025-.044-.09a.1.1 0 0 0-.036-.026c.024.087.21.28.112.139m.515 1.396c.006-.015.036.013.029.044-.003.013-.022-.007-.03-.044m-.836-1.808c.064.054-.1-.147-.112-.153-.001.012.106.147.112.153m.852 3.523c-.02.067-.021.022-.023.025-.055.14-.018.108-.02.132-.008.05-.038.032-.05.117.021-.14-.008-.016-.02-.016-.052 0 .075-.17.08-.24.002-.01-.032.055-.03.03.006-.08.135-.308.063-.048m.019-1.649c.022.03.038.274.018.21-.001-.01-.046-.253-.018-.21m-8.044-.013c-.003-.06-.04.073-.034.1.003.013.035-.073.034-.1m-.106.958c.008.071.067.14.052.054-.002-.01-.045-.062-.052-.054m2.129-3.858c-.074.02-.052.048-.006.021.017-.01.008-.022.006-.021m-1.814 2.074c-.004.006-.033.087-.024.087.015-.028.05-.128.024-.087m1.832-2.09c-.035.027.043.013.078-.034-.023.014-.074.031-.078.034m5.717 1.856c-.028-.027-.07-.122-.1-.173.013-.015.08.135.1.172m-7.85 1.717c.012.067.025-.076.008-.063zm4.403-4.077c-.05.007.103.034.062.011zm.664.106c-.035-.013-.19-.043-.131-.02.009.003.127.029.131.02m3.018 5.14c.024-.013-.013.096-.021.11-.003.007-.01-.092.021-.11m-6.375-4.471c-.03.024-.111.08-.118.099.035-.031.14-.09.118-.1m-1.696 2.998c-.027.056-.03.157 0 .133.004-.11-.027.012 0-.133m2.328-3.402c-.029.012-.038.046-.034.046.034-.004.066-.05.034-.046m-1.69 1.52c-.012-.006-.06.08-.046.073.004-.002.053-.07.045-.074m6.484-.593c-.023-.04.078.054.096.093 0 .026-.092-.088-.096-.093m-3.989-1.206c0-.018-.147.03-.084.029a.3.3 0 0 0 .084-.029m1.465-.107c-.104.004.322.08.214.04a3 3 0 0 0-.214-.04m.693.155c-.017-.007.008-.06.073-.016.008.005-.04.006-.033.011.004.003.155.06.162.063.008 0 .005-.02.014-.018.01 0 .097.05.145.07.09.036.106.027.114.03.021.01.053.035.096.055.219.097.541.278.674.417a2.2 2.2 0 0 0-.42-.261c.058-.005-.229-.094-.06-.046a8 8 0 0 0-.765-.305m-5.307 4.519c-.026-.041.01.182.038.196a4 4 0 0 0-.038-.196m-.053-1.039c-.001-.02-.037-.046-.002-.153.011-.032.014.006.018 0 .002-.001.037-.098.026-.015-.014.127-.03.008-.04.075a1 1 0 0 0 .009.132s0-.04.003-.046c.01-.023.02-.01.021-.013.002-.01.012-.214.036-.24.004-.009-.03.32-.032.334-.002.008-.034.001-.038.01-.003.003-.002.138-.005.155l-.003.012c.01-.02.004.1-.007.097a.5.5 0 0 1 .003-.089l.001-.003c-.015.016.01-.266-.013-.207 0-.084.025.014.023-.049m.045-.395.004.028c.022-.144.08-.302.132-.46.013-.04-.022 0 .001-.051.019-.04.054-.08.05-.056-.001.006-.043.087-.056.13-.036.128-.008.101-.01.109s-.037.085-.048.13c-.027.111-.029.165-.072.316.005-.091-.03-.047-.001-.145m3.794-3.286c.005-.012.1-.008.134-.011-.005.011-.1.007-.134.011m1.509 8.216c.022-.025-.188.027-.129.027.013 0 .102-.019.129-.027m-.961.149c-.03.007.088.013.087-.001 0-.005-.084 0-.087 0m-3.546-6.754c.002-.005.055-.065.058-.066.047-.03-.123.17-.058.066m2.367 6.67c.102.012-.193-.067-.106-.03.004.003.102.029.107.03m-.409-.116c.023.008.125.047.128.042.004-.008-.111-.052-.128-.042M17.74 16c-.02-.014.117-.06.162-.08.019.014-.119.056-.162.08m-.776.454c.484-.36.395-.252-.023.03-.008-.01-.007-.006.023-.03m.653-.408c-.014.022-.076.05-.117.071.003-.012.088-.054.117-.071m3.34 7.758c-.03.03-.196.061-.17.045a1 1 0 0 1 .17-.045M16.211 17.2c-.026-.002.096-.137.109-.144.05-.03-.105.129-.11.144m2.328-1.5c.027-.023.118-.035.175-.046-.023.018-.127.034-.175.046m-.41.108.085-.027c.069-.007-.151.063-.084.027m5.567 4.913c0 .002-.014.063-.016.065-.027.05.017-.13.016-.066"/><path fill="#231f20" d="M21.712 23.542c.003 0 .005.01.009.011-.018.012-.02-.012-.01-.011m1.31-.757-.017.004c.004.009.015.015.017.024 0 .002-.012.01-.01.012.002.003.015-.011.02-.01.005.002.013.03.019.035.023.021.053.036.07.063-.033-.012-.02.021-.01.023.002 0 .028-.025.045.004.01.019-.04.043.003.048.007-.044.023-.024.039-.01.003.002.019.026.03.034.003.003.021-.006.025-.002.003.003-.002.012.003.016a.4.4 0 0 1 .058.058c-.046.024-.006.024-.007.027-.005.014-.028-.004-.026.01l.038.032c-.005-.014.042-.017.035-.002.029-.032.026.08.045.078.004 0 .008-.027.027.007.002.003-.008.012-.006.012s.037-.024.026-.001c-.004.008-.037.014 0 .035.019-.041.058.025.06.043l.007-.018c-.001.02.01.012.012.015.007.01.009.033.018.04.01.009.029-.01.033.008l.004-.02.02.026c-.042.007.003.005.005.006.003.002-.01.008-.005.01 0 .001.01-.01.016-.004.015.01 0 .02.006.025 0 0 .008-.01.018-.003.035.022-.006.006-.009.006s-.029.046-.04.01c.004.012-.011.028-.01.03l.018.013c.012.001.017-.016.02-.016s.005.03.042.001c-.022.038-.032.023-.05.014-.009.004 0 .025.001.026.02.02.034-.016.054-.028.01-.006 0 .019.016-.01.02.014-.004.017-.005.02 0 .004.012.004.012.006s-.012.006-.01.013c0 0 .02-.005.018-.02.01.013.02.001.002.028.05-.035-.02.032-.019.037.003.015.034-.021.036-.022.014-.008.026.029.037.03-.026.022-.02-.02-.028-.018-.028.003.006.03-.034.05l.037-.013c-.013.027-.031.026-.005.037.02-.014-.016-.01 0-.02.01-.006.023.003.027-.001.005-.005-.01-.009-.001-.015.02-.013.04.039.004.02.008.008-.021.045-.004.041.01-.002.032-.072.06-.027-.015.016-.02-.01-.02-.01l-.037.042c-.004.007.052.026.043.051.017-.023.031.025.04.022.003 0 .012-.017.015-.017.014-.002.008.037.015.045.008.009.017-.003.018-.002.003.004-.007.008-.005.01.003.004.026.03.028.029.001 0 .01-.016.017-.014.001 0-.014.015.008.024.026.01.005-.03.028-.038-.01.033.011.011.013.016 0 .002-.01.028 0 .036l-.028-.01c.003.01.02.017.021.026.001.005-.016.017-.01.023.001 0 .042-.031.012-.03.011-.014.01.002.017.001 0 0 .024-.02.015-.002-.002.004-.077.057-.003.039.002 0 .007-.012.01-.013.001 0 .005.01.007.01s.007-.013.01-.014c.014-.003-.014.037-.022.025l-.003.023c.023-.03.013-.003.018.001.035.025.032-.012.046-.015.022-.006-.028.032-.003.03.002 0 .007-.033.025.006l-.015-.01c-.023.027.017.013.018.014.015.008-.002.01.028.013.003 0 0 .01.006.01.026 0-.01-.025 0-.036.004-.006.036.029.035.032-.006.015-.02-.01-.03.007-.003.006.054.043.058.058s-.024.055.015.017c-.035.04-.006.018-.005.02.013.02.013.02.03.031.005.003-.004.017 0 .016.001 0 .012-.014.019-.014.01-.001.024.038.02.047-.006.009-.015-.008-.024.005q.014.013.03.028c.003.005-.007.01-.005.012 0 .001.021.008.023.005.006-.008-.042-.047-.017-.049.005 0-.005.025.015.002l.1.13c-.038-.005-.048-.045-.073-.066-.003-.003-.012-.016-.021-.004.017.023.047.041.059.067 0 .001-.012.009-.011.013 0 .007.03.005.029.011 0 .002-.022.007-.027.017-.015.028.033-.018.038-.012.003.005.008.055.03.047s-.012-.029.002-.04c.031.007.037.039.056.055 0 0 .008-.012.013-.01.009.005-.003.02-.002.026s.016.017.012.023l-.017.012c-.011 0 .005-.02.004-.02 0-.003-.01.002-.01 0-.003-.003.002-.011-.001-.015-.003-.003-.012.011-.014.008 0 0 .017-.038-.012-.011-.01.009.06.1.075.101l-.01-.03c.005.022.044.016.012.05l.148.165c.006.012-.02.028.001.037l.009-.032c.003.012.028.056.038.058.001 0 .022-.019.032-.012s-.004.022-.003.03c.001.005.01.005.01.007 0 .001-.01.01-.009.014.001.01.022-.02-.001.015h-.008c.003.01 0 .034-.017.03-.003-.001.007-.008.006-.01-.055-.051-.03.008.003.014-.008.017.026.036.025.04-.003.004-.018.01-.02.025-.001.003.042.032.012.036-.006 0-.02-.02-.024-.024-.018.037.044.021.046.025.006.014-.044.003-.024.03.016.02.017-.015.032-.016.008 0 .009.04.034.014.01.004-.008.014-.008.015 0 .002.021.008.02.018l-.016.015c0 .003.015.013.017.013.001 0 .01-.016.014-.017.005-.002.015.013.019.01.006-.003-.013-.016.003-.026.003.01.024.013.04.008-.005.001-.012-.005-.014-.009.02-.018.036-.002.015.008.012-.005.014-.012.024-.018.002-.001.007.003.011 0 .001 0 .003-.012.008-.015.01-.005.022.01.021.013-.002.009-.02.004-.029.01l-.009.03c-.014.015-.014-.007-.027.008v.017c-.024.003-.037-.023-.057-.012.02.01.036.027 0 .062-.015.015-.03.017-.034.021-.012.014.012.01.012.01l-.002.003c-.008.008-.027 0-.032.003-.007.006-.027.038-.033.044-.002 0-.017-.002-.024.01-.008.014 0 .023 0 .024-.005.008-.025 0-.029.002-.002.002-.006.021-.009.024-.003.004-.016.005-.028.013-.01.006-.01.017-.012.017s-.015-.013-.017-.013c-.003.001-.01.014-.012.016-.004.002-.005-.005-.008-.002-.002.003-.017.052-.025.06-.014.014 0-.037-.04.037h.008c-.008.014-.037.017-.018.03-.048-.012-.025.018-.054.037-.01.008-.026 0-.028.002-.01.012.003.007-.002.014-.003.004-.025.006-.031.017-.003.005.01.014.01.016-.004.012-.018.014-.022.02-.003.005.003.012.003.013-.002.002-.025.007-.032.01s-.007.015-.01.015c-.016.005-.002-.034-.027.015-.001.003.004.007.004.008-.008.013-.017.005-.027.012-.018.013.003.017-.018.017-.002.017.003.021.014.027-.032-.017-.08.013-.05.04-.009-.01-.03.013-.033.01-.002-.001.007-.035-.035.019-.006.007.01.007-.005.017-.015-.022-.008.007-.01.009-.029.028-.05-.04-.061-.045-.013-.005-.044.01-.046.008-.006-.007.01-.013.013-.019.003-.005-.037-.002-.037-.004.002-.008.019-.018.019-.02.004-.012-.031-.026-.035-.036-.009.01.005.024-.018.03-.027.006.011-.034.013-.036l-.14-.137c-.02.021.026.036.024.04-.012.02-.062-.032-.061-.045v.027c-.031.016-.018-.033-.04-.034-.008 0-.01.016-.01.017-.014.004-.014-.01.004-.017-.022.002-.008-.01-.015-.019 0 0-.006.013-.017.01-.004 0-.02-.016-.03-.01-.005.002-.034.047-.001.017.002.032.02-.01.026-.002 0 .001-.02.017.006.025-.036.029-.03-.014-.038-.014-.015.001-.003.046.027.026-.028.023-.002.005.004.013.005.008-.005.012-.001.016.01.01.023-.012.016.013.04-.058.02.008.014.027l-.04-.024-.006.01-.007-.01.009-.006c-.03.001-.016-.02-.017-.022q-.02-.027-.046-.05c-.002-.002-.017.015-.021-.014-.001-.01.016-.017.008-.021-.041.026-.014 0-.016-.003-.007-.006-.02-.002-.02-.002-.01-.007-.02-.02-.03-.028 0 0-.006.015-.008.007-.001-.004.025-.066-.005-.067l.003.02c0-.008-.045-.03-.049-.01-.002.012.039-.005.013.024-.003-.019-.078-.069-.076-.08 0-.001.013-.006.014-.008 0-.002-.017-.014-.015-.02 0-.002.013-.002.015-.005s-.012-.025-.024-.015c.009 0 .017.017.001.02-.002 0 .001-.012-.001-.011-.023.004.008.029.012.033-.032-.003-.042-.047-.072-.058.002-.017.027-.002.025-.019-.003-.035-.018.008-.02.009-.014.004.02-.063-.018-.024 0-.013.006-.016-.009-.02l-.004.012c-.033.011 0-.068.006-.071.017-.007.01.023.012.024.002 0 .046-.034.027.017.033-.02-.009-.044.024-.047-.013-.007-.036-.067-.054-.062-.002.001-.025.03-.022.007.002-.011.014 0 .017-.008.012-.025-.094-.107-.113-.124-.001-.002.007-.01.006-.01-.003-.004-.028-.004-.03-.014-.003.028-.03.004-.034-.004-.007-.013.008-.026.006-.034-.004-.027-.063-.019-.044-.063-.03.032-.006-.037-.016-.048-.008-.008-.04.001-.042.025-.013-.015-.033-.024-.048-.035-.003-.002.01-.009.005-.011 0 0-.01.008-.014.006-.034-.018-.002-.025-.001-.035v-.012c.016.014.037.027.042.032.016-.024-.037-.03-.04-.044l.011-.01c-.002-.005-.027-.022-.036-.004q-.001.008.02.024c-.006 0-.016.014-.017.014-.013 0-.017-.028-.02-.035-.002-.002-.01.006-.01.006-.003-.007.022-.028-.007-.01.02-.037.022.014.038-.007.013-.015-.054-.067-.076-.045l.006-.011c.003-.012-.015-.026-.023-.024 0 0-.022.022-.023.021s-.005-.038-.026-.033l.003.022c-.024-.025-.027-.015-.025 0v.002c.001.012.005.024.003.026-.006.007-.051-.031-.023-.043.004-.002.014.027.019.003 0-.005-.016-.013-.015-.015.006-.015.048-.002.06-.02-.022.008-.023-.009-.034-.012-.005-.002-.017.008-.017.008-.01-.004.005-.012.003-.014-.001 0-.038.011-.002-.02-.066-.017-.036.013-.01.037-.02.004-.029-.018-.039-.022-.003-.001-.013.011-.02.01-.013-.005-.042-.06-.05-.073.01.002.02-.012.015-.016-.006-.005-.018.016-.02.017-.004 0-.02-.031-.026-.033.024.012.032-.004.018-.021l.017-.004c-.014-.004-.015-.042-.026-.041l-.01.013c-.008 0-.014-.026-.018-.024-.004.003-.005.018-.012.02-.001 0 .006-.02-.004-.023-.003-.001-.012.01-.013.01-.01 0 .01-.014-.002-.02-.008-.005-.03.006-.033-.008.01.05-.007.016-.026.01-.003-.001-.019.018-.022-.003.057-.006.01-.024.003-.03 0-.001.011-.013.008-.017 0 0-.008.009-.011.006-.035-.024-.008-.014-.006-.027.001-.005-.024-.009-.028-.012 0-.001.008-.009.004-.012-.007-.005-.02-.002-.025-.005 0 0 .012-.014 0-.017-.003 0-.01.001-.01.008-.003.022.037.02.036.043 0 .022-.034-.01-.035-.011s.012 0 .006-.009c-.004-.006-.036.006-.04-.007 0-.001.012-.026.014-.027 0 0 .015.005.019-.002 0 0-.006-.007-.003-.011.004-.006.05-.057.05-.06-.001-.006-.01.007-.011.004-.004-.007-.006-.038-.023-.021l.005.01c-.017-.013-.018 0-.023.002-.006 0 .01-.013.006-.02-.001-.001-.026-.02-.032-.013.022.002 0 .016 0 .017 0 .003.014-.005.016-.002.018.022-.018.018-.017.027 0 .003.012-.003.012-.002.001.004-.01.015-.008.016.006.001.018-.019.019-.02.013-.006.013.018-.012.028-.002.011.02-.01.015.002-.01.024-.016.01-.022.01-.02-.001-.015-.012-.033-.024-.006-.005-.023 0-.026-.002s.02-.052-.037.004c0-.011.028-.058.02-.062-.007-.003-.025.018-.026.018-.002 0-.007-.007-.012-.006-.006 0-.012.01-.02.008-.017-.002.004-.022.004-.024.003-.027-.02.007-.025.006-.005 0-.028-.046-.043-.045l.021-.004c.008-.018-.019-.003.004-.026-.038.036-.024 0-.028-.002-.002 0-.008.006-.01.005-.008-.006-.017-.025-.023-.025-.029-.001-.014.06-.012.064-.006-.007-.048-.032-.05.001 0 .005.02-.007.023-.006.013.004-.01.012-.01.014 0 .004.02-.005.02-.001 0 0-.017.01-.009.02-.017.008-.031-.027-.037-.027-.003 0-.023.035-.017-.013l-.007.009-.038-.032c.007-.005.025-.01.015-.016-.007-.003-.016.014-.017.014-.008-.001-.079-.08-.095-.094-.005-.004-.03-.008-.03-.008-.008-.006-.024-.035-.03-.038-.003-.002-.012.012-.014.009s.011-.011.011-.012c-.002-.01-.059-.039-.059-.06.003.01.056.02.063.012 0-.001.001-.017-.004-.015.006-.011-.03.008-.03-.002 0-.002.018-.015.012-.027-.002-.004-.022 0-.016-.02-.018-.006-.057-.086-.078-.073-.001.001.002.015-.011.017-.017.001.021-.023.015-.035a.2.2 0 0 0-.031-.021c-.025.01-.01.038-.013.04-.006.004-.027-.01-.026-.012 0-.003.038-.011.012-.02l-.003.014c-.013-.002.002-.02 0-.022-.002-.01-.033.008-.013-.032.005-.01.019-.015.02-.016.007-.014-.026.01-.01-.015.002-.002.026-.004.007-.023l-.002.01c-.008.002-.03-.015-.031-.019-.005-.01.017-.019.007-.025-.015.026-.041.005-.022-.011-.025.018-.028-.018-.037-.028-.006-.006-.027-.009-.028-.012s.015-.018.014-.025c0-.002-.024-.003-.019-.03.001-.005.022-.034.032-.037.017-.004.01.029.024.014.016-.016-.01-.024-.013-.03-.011-.03.018-.036.023-.041.01-.014-.001-.025 0-.027.003-.007.02-.009.028-.016.01-.01.017-.039.023-.04.008 0 .004.024.005.024.018-.001.03-.035.037-.05.003-.004.013-.006.013-.008.003-.027-.035.03-.04.018-.004-.01.02-.015.02-.016.001-.002-.007-.011-.003-.018.002-.003.054-.01.066-.024l-.03-.013c.017-.017.014.005.017.005.006-.002.008-.016.014-.021.004-.004.023-.01.022-.02 0-.004-.017.003-.013-.017.043.012.034-.017.04-.024.004-.007.032-.008.013-.021.033-.034.011-.01.021-.012.013-.001.011-.025.023.003.015-.016-.003-.032-.002-.034 0-.002.011-.006.013-.01.015-.045.011-.02.026-.044.002-.002-.006-.024.008-.016.025.015.011.046.062.002.006-.036-.043-.023-.048-.027-.008-.006.01-.009.011-.012 0-.001-.006-.006-.005-.007.032-.04.027.026.043.029l.008-.024.011.01c-.006-.028.004-.005.037-.03.008-.006-.015-.005.016-.01-.005-.014.004-.017-.013-.017.012-.012.044-.006.058-.005-.013-.04-.041.019-.041-.027-.019.01-.005.018-.008.02-.012.005-.006-.016-.045.005-.007.004-.016.025-.024.015l.007-.02c.011-.01.013 0 .018-.004s-.005-.008-.004-.01c.013-.012.01.001.014-.003.006-.01.01-.061.033-.023-.04-.011-.017.01-.002.015.004 0 .012-.006.018-.005.008.001.01.01.014.011s.007-.032.023-.005c.007-.029-.03-.029-.029-.052.005-.046.046-.016.052-.014.002 0 .009-.014.01-.014s.018.026.028.019-.008-.007 0-.017c.006-.006.041.008.032-.01-.006-.011-.047-.004-.024-.033l.047.034.007-.051c.018.012.02.036.049.036-.003-.066.036-.014.04-.017.003-.002.015-.042.017-.048.022.002.063.034.073-.02-.003.012.024.003.025.002.013-.015-.016-.027 0-.036.018-.01.004.015.011.019.039.022.103-.059.122-.017l.006-.01.088.113a.11.11 0 0 1 .098.031.1.1 0 0 1 .007.036c-.002.006-.016-.005-.017.008 0 .003.023.036.033.022-.001-.005-.018-.009-.016-.013.009-.033.08.072.093.068l.006-.018zm-1.253.744c-.015.009-.014-.009-.023-.01-.012-.002-.071.034-.018-.009zm.128.165c0-.014.032-.036.026-.019 0 .002-.026.037-.026.018m-.058-.084.006.008c-.006.016-.021-.004-.006-.008m.353.326c-.008-.006-.027.024-.013.018zm-.004-.006c.016-.027-.04.005-.026.01zm-.304-.271c.009-.008.011.003.012.008-.007.008-.009-.006-.012-.008m.177.173c.007-.006-.017-.03-.028-.023.008 0 .022.028.028.023m.071.052c0-.002-.01-.008-.015-.002-.004.012.013.01.015.002m.122.123c.002-.001.033-.044.023-.005-.001.006-.019.008-.02.01v.008c-.01-.004-.018-.01-.016-.013.007-.014.012 0 .013 0m.092.037c.007-.005.013.007.013.012 0 0-.018.015-.013.018s.016-.019.02-.01c.004.01-.017.012-.017.014 0 .001.017.004.007.013-.007.007-.013-.009-.017-.01s-.013.015-.016.006c-.002-.005.02-.023.02-.025.001-.001-.023-.002.003-.018m-.086-.024h-.002zm-.462-.48c-.003.009-.022.007-.017-.005.006-.007.017.003.017.004m.486.47c.005.015-.01.015-.024.01.007 0 .022-.015.023-.01m-.298-.28-.007.008zm.016.03c.02-.004.004-.02-.005-.011-.003.003.005.011.005.011m.199.187c0-.002.048-.027.004-.017.005.014-.009.008-.012.012-.009.009.015.015.015.023.019-.014-.009-.012-.007-.018m.252.221c-.011.008-.015-.002-.019-.007.012-.007.015.002.02.007m1.143 1.146c-.039-.021-.004-.064.008-.021 0 0-.002.019-.008.021m-.247-.267c.014-.02.026-.013.025 0 0 .003-.012.025-.021.023.02-.02.02-.038-.004-.023M22.3 24.005c.014-.008.015.009.018.015-.012.007-.017-.007-.018-.015m1.218 1.19c-.002-.004-.019.008-.02.01-.003.008.015.002.02-.01m-1.246-1.221c.007-.007.025-.002.01.016-.002-.004-.014-.012-.01-.016m.178.181c.001-.005.017-.002.017.005-.008.007-.018-.002-.017-.005m1.012.994c-.002-.004-.008-.011-.015-.006-.008.006.004.014.015.006m.539.514c-.002.003-.033.011-.033.001 0-.018.034-.003.033-.001m-.446-.445c-.005.023-.001 0-.016.014.006.007.02.022.024-.002.001-.005-.006-.009-.008-.012m-.003-.014c-.006.004-.027.013-.02.017.002.002.023-.01.02-.017m.375.398c.005-.021.034.022.033.026l-.002.004c.005-.003.013.003.003.015 0-.003-.007-.008-.007-.01v-.002c-.01.007-.028-.03-.027-.033m-.048-.075c.029-.01-.002.025-.004.025-.024.003.007-.014.008-.016s-.017.002-.004-.009m.04.057c.001 0 .008.008.008.01-.005.016-.024-.008-.008-.01m-1.502-1.515c.002.01-.015.016-.014.008 0-.001.012-.015.014-.008m1.127 1.134c.001-.003-.023-.044-.039-.024.005 0 .033.047.04.024m-.239-.248c.006.006-.018.017-.014.008 0-.004.012-.01.014-.008m-1.033-1.013c-.016.003.017-.027.011-.01zm1.07 1.07c-.031-.01.028-.06.035-.016l-.01.005c.022.038-.001.006-.012.002-.003-.002-.01.01-.014.008m-.066-.088c.02-.058.03.004.046.01-.026.005-.037-.01-.035.024-.03-.023-.003-.028-.003-.03 0-.003-.01-.002-.008-.004m.05.05c.003 0 .003.016.007.018-.017.009-.022-.018-.007-.018m.48.499c.012-.01.021-.016.024-.005q-.012.003-.023.005m-1.989-2.005c-.004-.005-.009-.018-.017-.004 0 0 .011.01.017.004m1.64 1.632c.001-.002-.023-.028-.026-.008 0 .006.024.027.027.008m.128.13c-.002-.002-.012-.008-.015-.006-.009.008.006.014.015.006m-1.78-1.795c0-.002-.015-.014-.019-.007-.006.012.017.013.019.007m.656.63c.002.001-.008.014-.007.014 0 .001.026.018.003.024a.2.2 0 0 1-.03-.04c.013-.017.011.011.016.013.001 0 .014-.013.018-.01m1.39 1.431c.012-.009.043.01.03.021zm-.01-.014c.001-.012.016-.002.017.005-.007.006-.018-.003-.017-.005m-.266-.335c-.005 0-.012.022-.016.023-.003 0-.003-.01-.01-.008-.001 0-.01.02-.007.021s.011-.011.014-.009c.009.009.009.024.017.031 0 .001.003-.012.009-.006 0 .001-.005.018.004.024.05-.019.029.027.062.035.002-.004-.005-.028-.005-.03a.4.4 0 0 0-.06-.071c-.004-.005-.01.005-.011.003-.002-.002.013-.013.003-.013m-1.748-1.684c.011-.015-.005-.014-.009-.02-.01.014.007.012.009.02m1.913 1.897c-.003-.002-.007-.014-.011-.01-.006.004.001.018.01.01m-1.163-1.172.005.007c-.005.016-.02-.003-.005-.007m.136.142c.006.003.015.003.006.015-.001-.004-.014-.008-.006-.015m.193.192c.013-.015.017.007.018.011-.007.005-.028 0-.018-.011m.945.905c.007.009.027-.014.022 0 0 .003-.043.05-.035.025.001-.005.018-.01.013-.025M23.38 25c.012-.008.015.002.019.007-.008.006-.015-.005-.019-.007m-1.59-1.602c.01-.017-.018-.025-.023-.012 0 .002.02.01.023.012m.573.584c.018-.004.006-.022-.01-.016.004.001.009.016.01.016m.503.485.008.01c-.005.017-.024-.008-.008-.01m-.182-.201c.011-.006.023.02.018.032-.017.009-.032-.025-.018-.032m1.126 1.133q.01.008.01.022c-.008.006-.015-.016-.01-.022m-.914-.905v.002zm.79.77c-.003-.008-.015.006-.015.007 0 .008.017.002.014-.007m-1.846-1.827c.01-.014-.007-.013-.009-.02-.008.01.004.017.01.02m1.439 1.44c.007-.018.047-.009.044.005-.008.009-.045-.001-.044-.004m-.92-.936c.008-.01-.013-.009-.016-.002-.001.004.01.008.015.002m.97.959c.006 0 .002.014-.005.018-.01.005.004-.018.006-.018m.218.202c0-.003-.023-.007-.027.008-.003.011.011-.002.012-.001s.006.04.015-.007m-.399-.371c.009.001.011.012.017.017-.008.003-.022-.007-.017-.017m-.747-.752c.003-.005-.03-.042-.021-.01 0 .001.013.025.021.01m1.449 1.447-.002-.005zm-.091-.094c.008-.005 0-.016-.006-.015-.009.007.005.016.006.015m-.584-.593c.007-.001.008.009.013.012-.008.006-.018-.005-.013-.012m-.212-.227c.002.01.012.016.02.008l-.003.005c-.001.002.009.005.01.01 0 .034-.077-.057-.006-.03zm-.285-.29c.006-.012-.016-.01-.017-.004-.001.005.01.018.017.005m.14.13c.001-.002-.015-.005-.02 0 0 .01.018.013.02 0m-.156-.167c0-.004-.02.009-.02.01-.003.007.015.002.02-.01m1.212 1.183c.001-.008-.02-.007-.033 0l.004-.01c.001-.008-.079-.097-.041-.02 0 .002.007-.01.013 0 0 0-.007.008-.006.01.003.004.016.026.026.024l-.003.005c-.007.015.04-.003.04-.01m-1.035-.998c0-.004-.008-.008-.015-.002 0 .006.013.013.015.002m-.412-.42c.001-.009-.019-.008-.021 0-.001.005.02.012.02 0m.347.362c.015.03.006.005.02 0zm1.18 1.185c-.002-.006.022-.02.015-.006-.002.005-.014.01-.015.006m.169.157c.013-.02.018.005.001.01 0 .001-.002-.009-.001-.01m-.107-.12c-.014.009-.017.008-.021-.001.013.007.014-.013.02 0m-1.032-1.015-.002.002zm-.346-.353c.006-.012-.002-.02-.01-.007 0 .001.001.013.01.007m1.203 1.203q-.001.003-.004.003zm-1.153-1.168c-.007.007.002.022.003.022.02-.006.003-.017-.003-.022m-.33-.34c-.002 0-.017.023-.007.018.008-.004.011-.019.006-.018m1.686 1.691c.004.004.009.01.001.02-.001-.005-.008-.013-.001-.02m.085.084c-.015.006-.025-.004-.03-.013.013-.014.022.012.03.013m-.25-.253s-.005-.014-.013-.004c-.011.016.011.012.013.004m-1.513-1.494c.01-.002.02-.03 0-.02-.01.005-.002.02 0 .02m.26.24c-.011 0-.007.023.005.015-.002-.003-.002-.015-.006-.015m.202.183c.01-.046-.031.015-.024.013zM21.802 23.3c-.006 0-.011.024 0 .016.006-.005.004-.017 0-.016m1.277 1.3q-.001-.002-.002-.003zm-.467-.559c-.026.052.003.02.004.022.001.003-.004.019.003.021q-.015 0-.029-.002c.001.007.022.057.029.051.01-.008-.004-.016-.003-.017 0-.002.024-.029.024-.03 0-.004-.03-.034-.028-.044m.175.239c0 .006-.01.016-.005.015 0 0 .01-.01.014-.01zm-.232-.226c.008-.015.02.005.018.007-.005.01-.025.006-.018-.007m.137.134c0-.002-.009-.017-.015-.01-.002.007.013.025.015.01m.107.098c.003.005.002.023.015.008zm-.387-.411c.015-.03-.01.002-.01.016.012-.008.007-.011.01-.016m-.009-.043c.002-.006-.025-.024-.034-.009-.003.006.021.008.021.01s-.018.01-.008.015c.004-.005.02-.013.021-.015m.017.022c.01-.026-.025.005-.019.01.003.003.018-.007.019-.01m.03.035c0-.006-.004-.018-.02-.013l.019.024c.007-.005 0-.006 0-.011m1.81 1.714c.002-.016.02-.004.018-.002-.005.01-.02.009-.019.002m-2.217-2.642c.002-.006.012-.019.002-.016l-.014.037c.023-.017.01-.016.012-.021m.058-.089c.001 0 .03-.033.016-.006-.01.019-.049.007-.04-.012.012 0 .016.018.024.018m.088-.179c.003-.002.016.004.015.007-.003.015-.026.008-.015-.007m.026.038c.001-.01.015-.005.015.002-.005.006-.015 0-.015-.002m2.428 2.361c.016-.026-.034.015-.017.013zm-2.413-2.42c-.001.01-.015.004-.015-.002.006-.006.015 0 .015.002m2.46 2.367c.008-.022-.04.03-.042.034-.005.011.027.003.034 0-.025-.01.003-.024.007-.034m-.062 0c-.012-.001-.006.025.011.014-.004-.003-.008-.014-.011-.015m-.021-.054c-.002-.005-.007-.02-.017-.013.005.002.007.02.017.013m.016-.032c.006-.016-.027.015-.012.011zm-.018-.04c.01-.016-.025.01-.02.017.001.002.02-.015.02-.017m.13.063c0-.01-.027.005-.02.018l-.02-.001c.001.026.03-.005.033 0 .004.007-.022.032-.03.038.019-.01.038.008.052.016-.003-.016-.008-.043-.013-.056-.002-.004-.011 0-.013-.003-.002-.005.011-.012.011-.012m-.167-.102c.004-.024-.02.013-.01.013zm-2.258-2.309c0 .026-.026.034.028.036-.03.007-.014.012-.024.018-.007.003-.01-.008-.017.008.008-.018-.019-.038-.018-.04 0-.003.031-.03.031-.022m2.377 2.34c.034-.041-.026.017-.002-.02-.054.035.024.023-.01.065-.031-.04-.014.061.018-.02 0 .04.014 0 .024-.005.011-.004.014.016.028.002l-.025-.019c-.023.037-.028.014-.009-.016zm.012.068c0-.002-.02-.013-.025-.006-.001.006.025.023.025.006m.074.06c-.005-.005-.008-.02-.022-.01.005.005.008.02.022.01m-.282-.286c-.017.002.002.026.007.01 0-.002-.007-.01-.007-.01m.174.147c.005-.018-.028.021-.014.017zm-2.34-2.322c.01-.009.023.017.027.02-.01.007-.037-.01-.026-.02m2.491 2.439c.021-.043-.03-.022-.031-.024s.015-.014.015-.015l-.02-.017c-.001 0-.018.023-.028.025.018-.004.043.035.047.034.003 0 .014-.03.017-.004m-.031-.032c-.004.012-.017.001-.017-.005 0-.013.017.003.017.005m-.022-.037c0-.003-.01-.018-.02-.01-.006.018.02.017.02.01m-.14-.138c-.005-.002-.007-.018-.015-.01.004.001.006.017.015.01m-2.162-2.236c.002-.012.017-.002.017.005-.005.005-.017-.004-.017-.005m2.28 2.248a.2.2 0 0 0-.055-.039c0 .011.038.05.043.05.002 0 .012-.01.012-.01m.088.082c.016-.008.004.008.004.009.003.006.015.012.001.022-.003-.013-.035-.015-.005-.031m-.156-.15c-.018-.01-.004.029.005.013 0-.001-.003-.012-.005-.013m.076.07c.012-.007.043.04.05.047-.024.012-.015-.006-.024-.013-.002-.002-.009.006-.009.006-.004-.003.007-.01.005-.012-.001-.001-.04-.02-.023-.029m.09.074c.01-.005.037.017.036.02-.006.02-.036-.016-.035-.02m-.078-.094c.024-.016.03.017.006.014-.002 0 .002-.015-.006-.014m-.067-.068c0-.002-.01-.02-.017-.013 0 .004.018.027.017.013m.03-.015c-.001 0-.01.015-.016.007 0 0 .013-.015 0-.019-.003 0-.015.007-.015.007-.014.031.054.014.03.005m.127.166c.005-.008.026-.022.02-.01-.003.005-.016.013-.02.01m-.195-.201c.018-.003-.005-.03-.01-.029-.005.008.008.029.01.029m-2.1-2.182c.005.01-.008.014-.008.015.001.027.018.003.022.003.01 0-.015.024.003.022-.028.001-.01.007-.018.016-.034.037-.001-.034-.016-.034-.002 0-.006.019-.012.02-.018.002.013-.077.03-.042m2.319 2.373c.013-.007.027.027.012.03-.002 0-.032-.019-.012-.03m-1.103-1.133c.014-.004.012-.028.002-.023-.005.002-.009.024-.002.023m-.055-.133c-.009-.005-.054.026-.04.029a.2.2 0 0 0 .04-.029m.43.469c.006-.02-.019.005-.013.01.002.001.012-.01.012-.01m-.276-.27c0-.001-.01-.008-.015-.002 0 .007.013.013.015.003m.281.269c-.009 0-.02.025.003.013-.004-.002-.002-.014-.003-.013m.649.655c-.014.007-.02-.006-.028-.01.012-.014.021.008.028.01m-1.07-1.078c-.016.003-.01.024.001.01zm.65.65c-.012.002-.008.028.002.01 0 0 0-.011-.001-.01m.061.069c0-.006-.017-.02-.018-.007 0 .002.01.014.018.007m-1.862-1.862c.012-.016.02-.001.019.003 0 .001-.034.017-.019-.003m1.522 1.518c-.005-.002-.012-.015-.02-.01.005.004.007.026.02.01m-.342-.346c.01-.02-.002-.029-.019-.007.012.01.016-.019.02.007m.432.401c-.002-.004-.023.013-.023.014-.006.011.019-.004.023-.014m-.238-.207c.008-.008-.005-.014-.009-.007-.001.002.003.014.01.007m.727.726c.003-.011.023-.005.019.007-.01.014-.02-.005-.019-.007m-.412-.432c.013-.011-.009-.02-.013-.004 0 .004.01.008.013.004m.157.128c-.024.004.007.056.014.027a.1.1 0 0 0-.014-.027m.06.077c-.001-.003.04-.042.031-.02 0 .003-.016.01-.017.013-.001.001.009.022.01.022s.014-.014.016-.014c.003-.001.001.02.006.025.01.01.02 0 .021 0 .003.003 0 .014.004.018.023.023.067.05.062.09-.007-.025-.032-.031-.05-.044.026-.018-.041-.007 0-.016a.3.3 0 0 1-.084-.074m-.785-.805c.018-.009-.007-.027-.024-.014 0 .005.022.015.024.014m.132.067c.005 0 .033-.025.03-.001 0 .007-.01.01-.012.012-.001.002-.005.024-.015.019-.015-.01.019-.021.013-.028-.001 0-.028.001-.03.005 0 0 .006.001.006.003-.003.007-.012.015-.012.015 0 .002.033.008.024.023-.004.005-.044-.018-.044-.021 0-.002.024-.025.026-.028 0-.002-.021-.006-.02-.01v-.003c-.005.01-.016-.003-.008-.01.004-.003.01.007.01.007l-.001.002c.007-.01.034.017.04-.002.015 0-.02.018-.007.017m.052.023-.01.005c.02.008.024.035.04.05.004.005.014-.015.015-.005.001.007-.008.025-.013.026-.001 0-.001-.017-.006-.02-.016-.01-.025.005-.026.005s0-.017-.005-.021c-.012-.01-.025-.007-.03-.032.017 0 .03-.023.035-.008m.483.537c.009-.008.01.009.015.01-.009.008-.01-.008-.015-.01m-1.324-1.344c-.015.01.002.034.007.017.002-.003-.004-.015-.007-.017m.085.1c.006 0 .005-.021-.005-.011-.004.003.004.011.005.011m.92.897c.001 0 .006.01.005.011-.009.02-.026-.014-.005-.011m-.791-.8c-.018-.001.007.031.009.011 0 0-.008-.011-.01-.011m.042.037c-.003-.001-.008-.016-.013-.012-.006.006.001.022.013.012m.943.949c.014-.016.016.009.023.011-.014.016-.016-.008-.023-.011m-.074-.096c.069.045.025.064-.01.004.009-.01.006-.007.01-.004m.071.074c-.011.008-.015-.002-.019-.007.008-.005.014.006.02.007m-1.2-1.206c.016-.008.017.022.009.024-.002 0-.017-.019-.009-.024m1.026 1.034c.014-.016.025.007.023.012-.008.018-.018-.014-.023-.012m.27.262c.015-.008.018.006.023.012-.012.007-.018-.007-.022-.012m-.03-.049.007.01c-.005.017-.024-.008-.007-.01m-1.651-1.671s.006.006.005.007c-.005.016-.02-.004-.005-.007"/></svg>