<svg xmlns="http://www.w3.org/2000/svg" width="40" height="40" fill="none" viewBox="0 0 40 40"><path fill="#231f20" d="M12.727 6.765c-.052.02-.264.085-.355.115.098-.05.543-.182.355-.115m-4.55 6.903-.012-.24c-.003.227 0 .532-.004.743 0 .034-.012-.055-.013.026 0 .082.016.066.018.184.002.133-.01.742-.01.952.002.788.01 1.583.004 2.373-.012-.816-.024.006-.02.234.002.05.033.043.025.86-.005.52-.049.04-.027.907.03-.666.029-.01.03.512 0 .09-.005.818-.003 1.14 0 .11.016.277.016.423 0 .1-.008.177-.008.326q.003.665.002 1.325c0 .066.005.114.013.154q.04.19.104.399c-.147-.342.068.28.085.31.038.147-.185-.5-.107-.243.118.358.274.718.45 1.07-.138-.289.22.365.284.49-.026-.061.938 1.554 1.152 1.76.041.043-.195-.27.371.442.062.076.03.055.064.093.02.023.17.147.286.308.046.057-.293-.27.41.48-.264-.315 1.012 1.008 1.275 1.222l-.141-.146c.24.232.297.264.351.313.227.2.541.475.767.65.262.203.273.185.581.424l-.213-.177c.215.164.426.318.646.474-.523-.336.11.08.15.105.065.044-.035-.01.075.063.011.008 0-.013.17.1.359.236.292.207.443.304.014.008-.03-.03.234.133.839.503-.006.008-.041-.015-.041-.026.215.193-.476-.27.231.156.245.186.272.204.022.016.439.272.46.283.208.118.035-.002.076.02.032.02.531.331.669.362.226.166-.154-.044-.565-.283-.064-.028.381.24.404.252.58.326.274.12.41.174.074.03.3.173.094.033.53.28.202.122.235.142.05.03.242.122.265.135.034.019-.09-.035.045.038.023.012.252.111-.03-.041.378.195.351.164.47.252.285.083.178.12.283.173.272.136.21.062.225.067.104.038.876.392 1.076.464-.092-.005-.617-.26-.743-.311-.412-.163.563.262.255.167l.382.13c.17.088.013.035.217.118.04.016.103.04.205.056.053-.004-.13-.03-.202-.065-.044-.018-.064-.028-.032-.02l.036.012c.073.029.267.063.273.055.004 0-.219-.042-.181-.045.073.069.896-.022.27.053.172 0 .275.015.414-.049l.01-.005c.03-.014.016-.012-.014-.005-.051.008-.16.024-.015-.036.098-.043.268-.113.542-.228.033.007-.466.202-.48.208-.018.01.089.01.105.006.063-.011 1.24-.552 1.494-.662-.106.03.877-.442.974-.508.026-.017-.084.025-.055.008.18-.105.69-.36.919-.495.256-.15.216-.142.23-.15.11-.067.027-.006.094-.047.105-.06.798-.502.832-.53.01-.008-.11.055.038-.047.025-.019.02.01.452-.3.519-.379-.377.24-.17.07.354-.215.326-.23.418-.292.03-.021.277-.175.522-.365a22 22 0 0 1-.531.41c.177-.123.52-.388.663-.495.071-.054.025.006.176-.115.031-.026.133-.158-.252.168-.042.013.154-.127.238-.2.013-.011.05-.072.168-.149.028-.021-.207.283.49-.378.021-.022-.065.04-.044.02.015-.014.2-.171.22-.191s-.075.051-.052.028c.12-.12.311-.237.05-.008l.268-.22c-.111.06.128-.13.245-.241.733-.719.225-.255.345-.385.188-.213.072-.018.355-.334.023-.03-.335.328.348-.39q-.148.164-.296.323c.08-.04.358-.39.379-.415.25-.292.094-.09.45-.538.032-.042.11-.125.175-.213.272-.364-.384.462-.419.473-.006.011.708-.873.725-.907.111-.125-.309.414-.218.319.051-.026.977-1.35 1.121-1.637.193-.318.3-.445.263-.47.089-.073.103-.168.124-.21.248-.508.25-.514.409-.96.033-.1.07-.176.08-.213.004-.02-.02.012.004-.087.009-.038.04-.15.065-.267a1 1 0 0 0 .017-.159c.004-.279.01-.555.014-.592.008-.071.003.404.017.319 0-.344-.002-.674-.001-1.02 0-.145.01-.07.01-.133 0-.026-.008-.523-.011-.502-.008.05-.003 1.583-.019 1.18-.003-.078.018-.354-.008-.31l.018-4.111c.019.787.002 1.673.004 2.498 0 .113-.003.495.01.449.004-.702-.003-1.574.005-2.247 0-.022.012.058.014-.023.004-.151-.015-.642-.01-.725 0-.014.016.265.026.18.025-.218-.03-.273-.03-.46 0-.146.027-1.121.01-1.364-.018-.258-.01.719-.025.646-.014-.66.001-1.33 0-1.954 0-.011-.012.084-.014-.055-.003-.243.014-.306.017-.425.002-.127 0-.577.006-.637a1 1 0 0 1 .017.097c.007.196-.014.266-.014.284-.001.067.007.133.006.194 0 .1-.008.156-.008.289 0 .092.013.003.013.091 0 .033-.033.383 0 .415.01.01.024-2.851.016-3.137l-.012.736c.01-.498-.017-1.097.022-1.14l.003-1.663a1.18 1.18 0 0 0-.804-1.115l-1.7-.563c-.312-.106-.132-.073-.65-.236l.392.155a94 94 0 0 0-1.622-.546c-.024-.007-.066.004-.359-.09-.26-.084-.296-.114-.434-.163-.116-.041-.248-.08-.282-.092-.027-.01-.034-.023-.097-.046-.2-.071-.046.01-.235-.088l.147.045c-.242-.085-.57-.209-.209-.098.063.019.006.01.052.026 1.8.59.37.099-.266-.094-.157-.067-1.068-.357-1.097-.37-.04-.018.118.022-.082-.055-.042-.016-1.259-.407-.815-.282.091.025.672.22.812.266-.32-.139-1.108-.35-1.195-.38-.349-.12.683.196-.106-.067-.607-.203-.043.005-.28-.063-.133-.039-.814-.287-.804-.252-.238-.075-.094-.044-.123-.055-.028-.01-.495-.155-.644-.21-.018-.007.044-.003.026-.01a26 26 0 0 0-.503-.164c-.012-.002.09.046.045.035-.052-.014-.482-.158-.507-.162-.035-.006.498.165.404.151-.17-.059-.416-.135-.606-.19a1 1 0 0 0-.156-.03 1 1 0 0 1 .154.036l.157.052a1 1 0 0 1-.162-.037c-.11-.032-.25-.053-.16-.052-.086-.004-.03.01-.078.013-.012 0-.132-.008-.155-.002-.002 0 .12.013.095.017a2 2 0 0 0-.424.052c-.082.015.199-.065.225-.068.003-.008-.25.024-.253.03-.021-.02.263-.065.23-.07a1.3 1.3 0 0 0-.214.032c.194-.08.544-.076.75-.004.096.03.174.052.219.062l-.216-.07c-.347-.117-.681-.034-.687-.07-.005-.02.183-.058.176-.06-.031-.02-.29.052-.298.06q-.012.003-.012.001c-.007-.02.37-.096.391-.087.034-.01-.142-.031-.144-.035.005-.01.29-.02.194-.032a1.3 1.3 0 0 0-.359.027c-.052-.009.392-.07.407-.057a2 2 0 0 0-.243-.01 2 2 0 0 1 .254-.033c.057-.007-.106-.02-.078-.02.022-.016.461.054.479.075q.013.002.001-.004c-.016-.01-.062-.03-.05-.028l.054.015c.049.015.105.035.094.028l-.09-.037c-.15-.073-.48-.119-.477-.12.007-.033.622.09.05-.044a2 2 0 0 0-.15.005c-.09-.005.373-.06-.194-.006 1.06-.045.132-.05.288-.078.063-.025.487.043.486.053-.035-.026-.172-.046-.217-.059-.02-.01.242.036.28.045q.01 0 .002-.004l-.008-.004c-.039-.031-.451-.099-.47-.089-.164-.013.039-.018.003-.025-.024-.01-.28 0-.286.005a2.3 2.3 0 0 1 .41-.026c.057 0-.152-.025-.113-.023.24-.012.72.172.257.006a2 2 0 0 0-.219-.03c-.114-.023.229.006.29.018.11.002-.385-.081.027-.014a1.66 1.66 0 0 0-.85-.018c.503-.11.855-.005.93 0 .078.024-.104-.118-.69-.09.37-.015.331-.02.443-.012.04.004.241.052.347.085.062.017.09.017.016-.032l-.005-.003c-.05-.028-.347-.083-.245-.076.114.023.194.048.249.066.134.044.083.024.002-.006-.097-.035-.233-.067-.233-.068.003-.006.097.005.239.05.42.127 1.402.468 1.61.533.305.096.584.16.65.181.218.072.033.025.08.046.048.02.675.2.706.211.118.045-.009.02.003.025.146.058.98.32 1.212.4-.004-.013-.47-.167-.174-.087.346.093.351.143.36.148l4.67 1.534c-.012-.03-1.036-.347-1.058-.357-.13-.063 1.59.502 1.797.58l-.475-.173c.282.063.876.297 1.276.415.129.038-.113-.052-.108-.052.078.02.178.053.23.073.05.02.063.029-.005.012l-.027-.007.027.008c.407.144.352.143.638.344.014.013-.098-.098.126.084.127.066.538.662.558.763.025.035-.1-.32-.165-.335-.469-.637-.163-.192-.37-.415-.047-.013.105-.043-.585-.395.074.01.315.123.516.293.204.167.358.382.402.444.089.132-.025-.093-.25-.319-.222-.232-.574-.415-.69-.443.084.014 0-.02-.164-.07l-.15-.046c-.232-.078-.128-.053-.254-.094-.343-.113-.207-.046-.484-.157.258.146-.486-.152-.703-.24l1.083.348-.059-.03.285.095-.049-.006c.143.04.253.075.34.103.283.097.356.168.392.184.634.34 1.11 1.123 1.114 1.85 0 .028.002.044.003.065.005.047.013.13.002.574-.005.191-.02.011-.018.227.04.27.008.265.008.346 0 .23.01.371.01.393.002.284 0 .702.002 1.015 0 .006.012-.157.009.046-.002.072-.054.712-.037 1.272l.01-.437c-.004.171.009 1.37.023 1.077.009-.18-.025-.618.007-.667-.01.4.005 2.605-.002 2.776-.002.024-.012-.122-.014-.09 0 .026.002.531-.002.598-.003.04-.009-.183-.013-.165-.002.016-.007.647.006.683-.005-.155 0-.59.01-.362.002.03-.006.181-.005.217.017.331.013-.658.013-.811.017.621-.003 1.582.008 2.302-.011.291-.017-.431-.026-.102-.02.683.015.182.017.203.01.17-.05.747-.004.747-.007.248-.012.168-.006.517l.01-.137c.026.387-.041 1.208-.046 1.147-.014-.166.008-.593.007-.63 0-.054-.047-.203-.006-.795-.03-.242-.02.938-.042.401.004.363-.018 1.854-.004 2.069.002.025.032-.094.017.274-.008.175-.008-.247-.015-.166-.005.057-.008.28-.01.598 0 .106-.008.231-.037.368-.236 1.206-1.205 2.802-1.466 3.18-.023.034-.023.016-.045.05-.07.109-.325.5-.467.681.296-.372-.252.376-.403.55-.23.277-.226.244-.328.36-.39.444-.992 1.133-1.352 1.423.047.01-.585.53-.87.771-.216.188-.53.48-.216.237a26 26 0 0 1-1.176.936c-.062.046.017-.025-.088.053-.01.008-.017.026-.108.093-.765.553-.403.266-.551.362q-.124.077-.19.12c.454-.303.96-.68 1.097-.785-.13.075-.978.714-1.252.877-.009.006.016-.026.007-.02h-.001c-.095.066-.727.468-.589.4.038-.02.332-.2.67-.426-.09.063-.013.03-.03.041-.19.137-.693.436-.867.537-.04.023-.032.03-.039.034-.162.094-.109.031-.261.153-.31.144.544-.328.47-.313-.04.03-1.92 1.084-1.915 1.088a1 1 0 0 0-.091.035c-.121.052-.667.317-.756.361-.016.009.002.029-.018.038-.047.025-.727.306-.974.422q.208-.08.411-.163c-.818.35-.696.299-.414.193l.041-.016c.217-.084.486-.196.492-.197.01.002-.425.195-.772.332-.342.136-.624.137-.462.11a2.3 2.3 0 0 0 .455-.125c.115-.047.177-.074.022-.02l-.026.01c-.132.07-.602.157-.63.145-.13.001.338-.03.62-.17.128-.059.22-.104.177-.093a2 2 0 0 1-.942.233c-.157 0-.196.004-.216.003-.288-.038-.124-.029-.22-.046a2 2 0 0 1-.318-.09c-.098-.037-.175-.072-.13-.074-1.2-.483-.614-.222.127.081.139.056.288.098.436.122a1.8 1.8 0 0 1-.439-.114c-.258-.102-.541-.225-.697-.29-.083-.036-.04-.002-.183-.063-.297-.114-1.656-.795-1.993-.997.216.112.16.066-.005-.023-.166-.09-.037.003-.07-.013a35 35 0 0 1-.921-.536c.574.333.45.245-.03-.044l.215.114c-.286-.16-.86-.55-1.021-.65-.026-.016.058.053.044.045-.148-.089-.603-.416-.63-.431-.02-.01.174.137.098.09-.016-.01-.202-.158-.39-.29-.069-.048-.034-.01-.052-.021-.146-.101-.051-.053-.317-.248-.192-.144-.345-.237-.601-.451.845.695.12.123-.231-.162-.057-.046-.026.01-.351-.28.734.572-.19-.183-.37-.354-.01-.01-.005-.023-.092-.103-.008-.007-.003.01-.085-.065-.776-.724-.274-.265-.415-.41-.062-.065-.43-.417-.527-.521-.022-.023-.006-.02-.09-.109-.148-.156-.29-.298-.386-.405-.011-.013 0-.02-.184-.225-.052-.058-.112-.12-.044-.035.224.288.708.778.987 1.076.252.276-.57-.566-.606-.617-.016-.017.147.15-.012-.026-.134-.148-.396-.407-.58-.639a5 5 0 0 1-.14-.21c.006.009.243.288.214.242-.003-.004-.151-.183-.167-.21-.02-.033-.038-.147-.067-.186-.075-.101-.035-.029-.084-.093-.111-.14-.459-.642-.484-.648q.086.124.176.249c-.335-.458-.197-.257-.247-.32-.052-.066-.025-.057-.131-.216-.028-.032-.455-.698-.452-.689.24.372.137.241.147.26.04.066.104.143.16.231.402.603-.022.006.07.15.03.05.106.143.12.164.046.07.035.078.067.121.074.101.005-.03.012-.022.071.084.325.456.143.242.094.142.124.139.195.25.142.22-.09-.094-.155-.178-.235-.305-.293-.399-.59-.852-.106-.163-.236-.357-.282-.435-.031-.045-.256-.54-.32-.525-.095-.192-.2-.508-.288-.71-.08-.18-.076-.113-.085-.13-.011-.021-.101-.252-.13-.324-.036-.086-.03-.042-.084-.185-.128-.36-.094-.363-.104-.4-.033-.144-.048-.22-.06-.263-.028-.128-.027-.029-.043-.12a2 2 0 0 1-.015-.257c.001-.375.008-1.176.001-1.38l.015.316c.015-.188-.01-.387.017-.39-.043-.039-.014-.427-.015-.543 0-.046-.008-.042-.008-.1-.002-.224.004-.73 0-.852-.016-.527-.043.82-.044.926 0-.212-.01-1.413-.03-.861-.003.085.016.236.017.284.005.324-.013.07-.014.095-.003.043.014.256.012.313 0 .019-.017-.102-.017.207-.015-.152-.003-1.021-.006-1.135-.002-.04-.034.214-.003-.53l-.009.026-.003-1.242c.007.044.02.277.018-.016-.002-.168-.018-.044-.018-.059-.004-.151 0-2.83 0-3.348-.001-.177-.014-.669-.014-.706-.001-.225.007-1.019.005-1.177-.001-.1-.014-.005-.014-.094.001-.082.014.003.014-.021.005-.202-.012-1.738 0-2.103-.004.223.022 1.335.03 1.313.002-.005.011-.275.006-.331.011-.092-.022-.408-.015-.58 0-.02.02.057.022-.25.002-.106-.013-.383.003-.662l-.001-.22c-.007-.33.1-.856.41-1.28.297-.43.77-.717 1.12-.826.184-.061.312-.106.342-.12.004-.003-.282.084-.093.013.251-.094.034.016.332-.078.045-.015.87-.29.897-.301.244-.102-.481.128-.472.122.023-.014.622-.215.647-.221.024-.007-.457.18.128-.023l-.205.057c.274-.097.307-.088.374-.108.21-.066.426-.167.77-.243.092-.02-.051.038-.04.036.11-.023.235-.1.402-.128.013-.002-.354.134.295-.08l-.136.038c.09-.035.745-.254.834-.282.259-.081.04.01.298-.078-.174.032.614-.23.575-.196.102-.06.778-.262 1.094-.365.198-.065.6-.209.664-.228.077-.024.06 0 .2-.042.04-.012.449-.16.817-.262.072-.02.229-.04.1.01-.22.086-.65.202-.64.217.013.016.58-.182.734-.23.712-.223.309-.069.33-.07.051 0 .438-.129.454-.133.07-.016-.201.085-.203.095-.001.013.379-.09.295-.058-.12.045-.468.141-.49.149-.279.104.117.002.228-.02.034-.007-.093.041-.066.034.416-.118.075-.065.349-.15.244-.078-.063.042-.054.04.013-.003.304-.098.352-.107.023-.004-.723.277-.686.282l.72-.248c.026.013-.326.113-.361.127-.071.027.134-.03.127-.02-.003.005-.235.097-.02.032.074-.022.224-.086.496-.16-.925.323-.277.122-.247.12s-.41.16.129-.02c.035.029-.008.015-.16.072-.184.07.254-.06-.436.156.045.004.596-.178.626-.187.026-.007-.094.042-.05.03.529-.136.168-.034.325-.062.014-.002.506-.155.135-.03-.677.229-.968.297-1.065.388.51-.142 1.106-.376 1.258-.427.233-.077-.005.013.025.007.01-.003.21-.07.214-.07.157-.007-.895.295-1.22.41l.27-.069-.357.118c.57-.174.021-.002-.11.078-.029.017.34-.118-.079.042.315-.098.218-.058.498-.16-.003.015-.636.24-.886.329.894-.278.372-.16 1.148-.387.138-.063-.228.061-.2.049.105-.045.361-.113.654-.246.047-.022-.167.03.143-.071a5 5 0 0 1 .233-.06c-.022.02-.219.08-.225.088s.21-.068.212-.067c.011.013-.18.066-.151.061.062-.01.855-.236-.17.09.844-.295.104-.05-.225.064-.084.03-.102.045-.221.087-.153.055-.336.11-.415.138-.085.03.41-.11-.299.116.366-.098.994-.328 1.352-.43.722-.206-.485.197-.61.242-.034.011.083-.014.06-.006-.036.013-.724.233-.788.265s.25-.083.275-.08c.017.002-.807.286-.357.143.31-.098.87-.312.976-.315l-1.361.456.757-.213c-.51.171-.954.304-1.433.479 1.175-.348-.369.152-.385.162-.004.005.463-.117.539-.136-.403.144-1.635.555-.901.353-.134.035-.445.16-.44.16.045.002.734-.236.626-.185-.126.06-.316.098-.517.165-1.03.35-.72.337-1.758.665l.064-.012-3.38 1.096c-.228.09-.66.243-1.102.396-.257.087-.46.285-.556.438-.06.056-.19.419-.18.452-.017.053.04-.24.003-.11-.002.01-.027.111-.027.233 0 .3 0 .672.01.627.001-.114-.006-.47-.003-.528.025-.409.005 2.717.015 2.872l.014-.208zm3.803-6.613c.108-.051.394-.134.559-.192.228-.081.602-.264.45-.154zM7.084 9.63c.12-.3.047-.06-.024.192-.004.028-.099.23.024-.192m2.332-1.74-.213.069c-.18.045.412-.146.213-.07M7.01 19.38c-.002-.263-.03-.073-.019.09a.4.4 0 0 0 .019-.09m0-.187c.026-.204-.026-.615-.02-.288 0 .031.02.297.02.288m.69-10.52c-.024.029-.252.269-.327.39-.01-.011.22-.3.326-.39m-.706 6.516c.007.01.007-.844-.003-.903.004.135-.004.893.003.903m.01 2.193c.002-.022 0-.317-.007-.308-.009.144.001.406.008.308m0 4.359c.002.016.045-.206.017.319-.005.076-.016-.198-.017-.171l-.004.14a16 16 0 0 1-.003-.522c.013-.116.007.227.008.235m.155 2.42c.02.054.122.384.15.462.004.013-.034-.034.02.108.046.115-.005-.066.082.163.09.226-.046-.07-.039-.051.01.032.161.369.149.365a6 6 0 0 1-.2-.474c-.046-.119-.005.036-.077-.172-.043-.131.005-.067-.003-.095-.01-.017-.159-.48-.082-.305M7 22.096v-.066zM11.33 7.28c-.12.031.226-.093.361-.127a5 5 0 0 1-.362.127M7.02 22.32c-.005.363-.014.096-.02-.226.005.102.023.105.02.226m-.01-10.296q-.002.024-.009.026c.005-.04.008-.043.01-.026m-.008.846c.014.29.014-.3.004-.295a7 7 0 0 0-.004.295m.007 6.847c.002-.027.044.386.012-.213-.005.32-.01-.017-.013-.012-.01.013 0 .55-.005.668.019.093.002-.356.006-.442zm2.192 8.234a4 4 0 0 1-.287-.377c.053.056.19.249.287.377m23.773-14.84c.01 1.066-.035 1.204-.017.228 0-.019.013-.293.017-.228m-.011 9.15c-.02.101-.024-.231-.015-.45.002-.049.022-.232.026-.023-.025-.007-.034.316-.011.474m-25.93.264c.014.106.004.431.002.602a8 8 0 0 1-.002-.602m25.917-5.91c-.001.112.016.188.018.168.006-.086-.008-.297-.018-.168M7.035 21.477c.008-.015.016.416-.004.446.002-.092 0-.435.004-.446m1.99 6.23a5 5 0 0 1 .244.312 4 4 0 0 1-.243-.311m23.931-9.282c-.001.1-.002.352.005.38.01.035.006-.334-.005-.38M23.34 5.577c-.01-.007.366.093.529.152.309.113-.516-.146-.529-.152m9.602 9.975c.016-.318 0 .035.017.02.001-.213.002-.744-.015-.379-.003.071-.001.259-.002.359m-.006.292c.005.034.023.263.022.065 0-.091-.02-.238-.022-.065m-7.301-9.521c.265.103-.971-.312-1.006-.326l-.037-.016a2 2 0 0 1-.304-.107l.283.094.021.009c.086.017.992.326 1.043.346m2.047.69c-.316-.08-.358-.135-.331-.127.341.095.113.05.123.055.022.01.266.076.207.072zm-1.628-.546c-.013-.003-.273-.09-.283-.094-.209-.082.525.162.282.094M7.886 25.846c.093.182-.015.012-.073-.113-.004-.01-.009-.051.073.113M32.94 16c-.003.045-.013 1.205.008 1.136-.002-.099.009-1.418-.008-1.136m-.35 8.81c.079-.203.014.026-.039.133-.019.038.02-.08.04-.133M7.054 20.897c-.011-.213.026-.169.013.015 0 .008-.013-.007-.013-.015m25.892 2.141q.004.304-.005.395-.008.105-.017 0a8 8 0 0 1-.008-.774l.008.086c.01-1.059.005-.072.008.187.002.099.012.016.014.106m-.831 2.802c-.374.6.296-.571.42-.95-.126.358-.341.804-.045.198-.41.902-.259.51-.274.549-.022.04-.085.176-.101.203m.718-1.761c.006-.025.041-.148.067-.263.026-.112.035-.22.037-.277a1.2 1.2 0 0 1-.028.279c-.044.217-.125.456-.076.26M29.838 7.71c-.027.004-.088-.006-.308-.084.07.017.213.059.308.084m-17.624-.665c.153-.05.459-.145.361-.126-.01.002-.363.12-.361.126M32.93 19.371c-.002.034-.003.92.01.614.005-.093.003-.898-.01-.614m.001-4.582c0 .074.002.375.005.38a2.5 2.5 0 0 0-.005-.38M12.99 6.803c.02-.005.486-.16.433-.15-.1.022-.504.169-.433.15M8.274 26.475c.022.037.041.093.049.105.012.03.442.68.266.44a15 15 0 0 1-.67-1.133c-.014-.06.204.375.265.47.01.017.03.02.09.118M28.678 7.342c-.036.001-.878-.268-.864-.278zm.426.142c.176.067-.244-.068-.367-.112.001-.008.34.103.367.112m3.784 8.981c.003.09.02-.184.023-.123.002.04-.004.238.001.301.002.018.018-.184.017-.243-.001-.083-.013-.002-.014-.093 0-.302.01-.569.009-.851 0-.026-.009.172-.009-.046 0-.033.013-.235.011-.496-.04-.575 0-.997-.015-1.726-.004.027-.014.573-.014.605-.007.61-.008 1.702-.008 2.341 0 .164.009.084.009.155 0 .056-.016-.01-.01.176M12.135 7.08c.078-.009.33-.102.494-.155-.062.005-.333.106-.494.155M32.79 9.583c.046.103.11.443.112.472.022.034-.08-.458-.113-.472M10.98 29.88l.163.162c.127.142-.327-.309-.164-.162m3.961 3.137c.137.084.279.165.317.203-.084-.053-.338-.206-.317-.203m6.678 1.825c-.037-.001.408-.19.489-.227-.026.022-.46.23-.49.227m8.235-27.07c-.275-.092-.225-.049-.395-.117-.028-.011-.104-.092.192.026.053.021-.163-.036.203.09m3.062 14.738c-.01-.074-.007-.304-.006-.459.008.035.006.348.006.459M13.836 6.538c.134-.027.725-.234.575-.195-.022.005-.491.168-.575.195M7.084 23.261c.013.258.016-.276.004-.444.001.076-.005.427-.004.444m12.738 12.073c.016.008.372.006.388-.002.146-.013-.032.02-.207.019-.176 0-.344-.03-.18-.017m-6.244-3.267c.084.052.621.44.739.528-.128-.062-.85-.59-.74-.528M30.986 8.136a23 23 0 0 1-.56-.191c.04.004.541.178.56.19m-9.968 26.953.041-.016zm11.874-22.712c-.003.173.012.137.013.126.005-.13-.01-.322-.013-.126M12.33 7.04c.062-.006.334-.107.494-.156a6 6 0 0 0-.494.156m19.388 19.442c-.126.186.32-.609.41-.784.02-.002-.384.76-.41.784M7.105 22.461c.012-.017-.002-.388-.007-.31-.003.05 0 .32.007.31m25.232 2.824c.032-.075.126-.265.102-.194a.8.8 0 0 1-.102.194m.541-7.552c-.001.036.01.524.021.323.008-.14-.008-.163-.008-.196 0-.036.02-.82-.013-.127m-4.4 12.645c.137-.134.302-.284.444-.424a6 6 0 0 1-.445.424m-21.29-6.38c-.001-.012-.02-.091-.041-.192a2 2 0 0 1-.035-.373c0-.278-.002-.51-.01-.112l-.001.112c-.002.097.006.244.035.375.03.143.065.26.053.19M29.855 7.77l.12.042zm2.955 1.963c-.026-.08.073.336.071.463.024.038-.053-.455-.07-.463m-3.885 20.202c.08-.084.228-.226.324-.326a4 4 0 0 1-.324.326m-6.51 4.496c.206-.094.45-.218.449-.229l.031-.01c.017-.007.232-.121.325-.167.572-.255-2.164 1.073-.588.282zM12.88 31.51c-.095-.089-.379-.302-.31-.24.046.043.404.328.31.24m4.132 2.626a7 7 0 0 0-.357-.172c.172.1.508.26.357.172m-4.88-3.261a1 1 0 0 0-.141-.1c.057.06.235.194.14.1m18.276-22.87c.11.04.468.145.549.159q.018.01.12.05v-.001l.336.113c1.05.218 1.865 2.206.799.46-.06-.052.023.017-.233-.182-.017-.012-.02-.026-.076-.063a2 2 0 0 0-.484-.233 13 13 0 0 0-.446-.144q0-.002-.024-.012c-.147-.062-.625-.18-.54-.147M17.63 34.44a3 3 0 0 0-.287-.131c.096.052.431.208.287.13M7.209 23.949l-.032-.15c-.047-.213-.042-.424-.048-.326a1.5 1.5 0 0 0 .036.33c.03.128.065.243.044.146m8.458 9.455c.703.415.169.097.283.15zm11.212-26.59c.121.042-.03.016-.16-.04-.04-.017.092.016.16.04M21.373 5.01c.098.053-.407-.125-.204-.073zm3.843 1.272c.087.014.142.03.374.11-.346-.11-.03.007-.374-.11m-2.356 27.92h.003zm-11.306-3.84c-.07-.079-.279-.276-.224-.209.004.007.186.187.224.21m19.402-22.2q-.017-.007.016.001 0 .003-.016 0M12.729 31.366c-.015 0 .33.278.343.285.207.141-.202-.17-.343-.285M7.152 21.013a.7.7 0 0 0-.014.208c.006.068.017-.125.014-.208M24.423 6.028c-.129-.043-.311-.102-.341-.123.086.03.346.117.341.123m-2.855-.938c.156.038.505.153.727.228 0 .017-.583-.185-.728-.228m8.49 2.794c.011.004.334.115.293.09-.06-.036-.382-.126-.292-.09M7.14 21.676c.008.152.03-.199.013-.36-.009-.083-.014.334-.013.36m3.776 8.05c-.149-.14.202.228.264.27-.069-.067-.211-.22-.264-.27m5.6 4.118c-.553-.339-.273-.118-.169-.067.015.008.182.075.168.067M15.351 6.109c.084-.033-.24.056-.277.08-.024.015.223-.06.277-.08M25.57 32.617l-.067.046zM9.7 28.312c.254.38.254.32.279.35.057.067.176.223.286.342a19 19 0 0 1-.377-.408c.087.125.932 1.066.964 1.074.035.021-.247-.265-.254-.275-.01-.013-.031-.078-.056-.106-.042-.038-.748-.837-.842-.977m5.642 4.867c.086.056.105.081.148.103.015.008.023 0 .072.026zm-6.177-5.487c-.068-.112.279.356.29.37.055.085-.24-.28-.29-.37m3.401 3.529a9 9 0 0 0-.356-.295c.084.082.542.46.356.295m3.057 2.122c.135.081.382.235.361.204zM7.176 22.198c.027-.284-.007-.15-.016.102.012.076.012-.056.016-.102m.02-.907c.005-.079 0-.892-.015-.768-.005.044.008.512.007.533-.002.033-.017-.116-.014.133.005-.015.02.129.022.102m-.003.672c.02-.281-.017-.345-.017-.133 0 .083.014.173.017.133m-.003 1.15a7 7 0 0 0-.004-.557q0 .374-.003.747c.007.029.004-.1.007-.19M19.76 4.796c.266-.023-.342.065-.362.092-.078.013.24-.09.363-.092M17.12 5.887c.06-.015.103-.014.231-.064l-.402.1c-.094.055.105-.019.171-.036m.526-.082c-.018.007.094.008-.152.064-.166.037.706-.266.869-.303-.173.065-.56.183-.717.24m1.585-.355c.011 0-.32.113-.36.124-.205.056.3-.12.36-.124m-1.064.343c.158-.045-.187.073-.291.103a4 4 0 0 1 .29-.103m3.752.068c.161.08.329.078.066.003a.2.2 0 0 0-.066-.003m-3.002-.27c-.158.045.186-.073.29-.103a3 3 0 0 1-.29.104m3.102.365c.22.09.159.008.132-.003a8 8 0 0 0-.6-.176c.597.186.365.137.468.18m1.047.307c.21.062-.318-.125-.425-.142.104.033.365.124.425.142m1.258.433c.112.04.443.154.502.163-.123-.038-.451-.156-.502-.163m.245.11c.171.07.225.049.02-.007-.008-.002-.026.005-.02.008m.98.337c.11.052.253.06.067-.002-.055-.018-.078-.004-.067.002M22.28 6.11c.163.06.383.105.033-.013l.373.11c-.455-.165-.432-.12-.564-.164-.184-.063-.16-.086-.12-.083-.157-.033-.8-.244-1.173-.363.324.115.85.302 1.17.412.092.032.184.053.262.08.126.043.01.017.019.02m4.563 1.459c.332.127.13.022-.063-.034zm-7.444-2.02c-.456.134-.134.007-1.068.346.39-.15.017-.022.092-.055.06-.027.294-.098.155-.067.182-.044.952-.302.987-.31.02-.006-.02.043-.166.086m4.898 1.238c.098.079.164.027.374.134.311.047-.814-.267-.934-.354 1.203.4-.782-.303.038.036-.685-.25-.23-.066-.34-.093-.116-.03-.505-.168-.49-.145l.72.233c-.223-.11.263.06.42.142zM22.95 6.31c.024.008.546.175.515.157-.069-.027-.81-.265-.515-.157m-2.295-.747c.187.062.474.163.58.184-.187-.061-.474-.163-.58-.184m9.632 3.17c.242.068-.491-.177-.283-.095zM24.84 6.959c.238.092.137.014-.046-.034-.01-.003.035.03.046.034m-5.806-1.285c-.013.015-.67.224-.785.262.063-.031.8-.28.785-.262m1.299-.173.076.031c.35.139.788.245.838.262.055.02-.036.006-.024.01.029.011.616.203.644.21.02.007-.078-.05.045-.017-.24-.065-1.31-.426-1.366-.442-.04-.01.23.1-.135-.028zm1.051.343c-.143-.057.268.077.366.113.219.08-.347-.105-.366-.113m.986.334c.046.017.47.158.508.16-.196-.08-.613-.2-.508-.16m4.713 1.548c.11.035.41.142.43.139-.11-.035-.41-.142-.43-.14m-10.255-1.24c.185-.052-.238.09-.362.127a7 7 0 0 1 .361-.127m8.025.572a139 139 0 0 0 1.583.511c-.18-.066-1.497-.5-1.558-.516-.018-.005-.033.002-.025.005m-2.875-.94c-.126-.027-.2-.07-.216-.075-.15-.051-.463-.151-.39-.141.264.092.857.269.606.215m5.18 1.699c.453.143-.41-.156-.3-.105.007.004.253.09.3.105m-2.455-.804c-.103-.022-1.429-.468-1.642-.538.197.043.346.108.604.192.069.022.053.008.06.01.12.04.028.02.102.044.046.015 1.021.323.876.292m-2.798-.91a34 34 0 0 1-.94-.299c-.245-.097.877.276.94.3m2.914.968c-.15-.025-.805-.257-.35-.12.044.013.223.083.35.12m2.284.751c.022.008.49.168.501.163-.067-.025-.751-.253-.501-.163m-.252-.055c.011.003-.095-.047.126.027.018.007.047.034.326.12.057.016.147.035.141.032-.28-.12-1.165-.358-.593-.18M21.886 6.11c.043.022-.072.006-.166-.036-.04-.018.042-.004.166.036m6.706 2.208c-.277-.078.58.207.625.218a17 17 0 0 0-.625-.218M16.43 6.72c-.23.073-.091.016-.102.02-.495.146-.357.126-.433.154-.163.06-.145.023-.418.126.452-.168.037-.024.021-.029-.064-.023.616-.182.842-.265.031-.012-.208.053-.127.022.26-.099 1.103-.307.217-.028m5.215-.667c-.11-.023-.917-.3-.699-.24.035.01.861.275.699.24m.866 27.291c.175-.1-.245.099-.319.143-.036.023.243-.098.32-.143m-2.756.96-.153-.034c-.107-.03-.153-.032-.01.025l.024.008c.021.01.156.013.139.002m11.618-9.244c-.12.21-.088.208-.01.052.028-.058.014-.058.01-.052m-6.369 6.812a4 4 0 0 0-.248.172c.09-.052.388-.256.248-.172m6.399-6.883c-.058.131.07-.08.12-.25-.035.086-.113.234-.12.25M25.298 7.296c.123.028.461.143.657.205.016.022-.517-.162-.657-.205M20.45 34.252l-.049.025q-.007.005.002.003c.044-.01.283-.107.248-.105zM31.913 17.19c.01.168.022-.364.006-.218zm.006-2.321c-.003.127-.002.668.007.457a7 7 0 0 0-.007-.457M15.885 6.908c.07-.006-.309.114-.364.13-.021.005.272-.122.364-.13m14.699 19.524c-.066.105-.259.379-.285.428.087-.123.324-.456.285-.428m-9.185 7.413c-.188.066-.495.2-.41.189.338-.15-.05.002.41-.189m10.294-9.597a.4.4 0 0 0-.036.158c.048-.094.077-.248.036-.158m-4.572 6.023a2 2 0 0 0-.225.19c.013-.008.234-.187.225-.19m2.38-21.587c.144.056-.308-.083-.438-.137-.06-.035.42.13.438.137m2.4 12.853c-.013-.016-.005.512.006.304.003-.052 0-.299-.005-.304m-.016-5.057c.017.354.028-1.133.008-.742-.002.027-.01.711-.008.742m.01-2.43c-.002.061-.048.03-.03-.222.002-.033.014.122.017.095.002-.016.008-.566.007-.591 0-.028-.016.004-.018-.023-.001-.031.012-.37.012-.547 0-.335-.012-.37-.012-.398 0-.08.008-.214.008-.376 0-.479-.003-1.107-.001-1.675a1.23 1.23 0 0 0-.195-.661c.134.199.207.427.21.661q.004.327.006.662c-.026-.168.02.842-.01.251.007.272.012 2.624.006 2.823zm-12.94 19.918c.142.046-.552-.258-.614-.27.086.045.598.267.614.27m2.854-.39c.062-.032.111-.088.444-.235h.001c.097-.043-.008.017.01.011.008-.002.31-.136.066-.011-.375.19-.045-.003-.247.096-.024.012-.405.212-.38.204.003-.001.117-.058.137-.066.076-.03.044-.004.055-.009.037-.014.628-.324.725-.36.031-.005-.96.493-1 .502-.025.01-.026-.019-.052-.01-.013.006-.416.198-.472.219l-.036.014c.065-.02-.303.139-.296.125.006-.006.26-.113.269-.116l.01-.004c-.055.017.803-.372.61-.302.241-.122-.025.037.156-.057m1.16-.603-.07.047c.416-.228.904-.489 1.367-.774.119-.074-.027-.004.131-.097.127-.074.27-.147.206-.102-.015.011-.275.163-.4.24-.372.229-.272.184-.293.198-.024.015-.27.147-.4.22-.33.187-.476.28-.945.508.263-.147.108-.09.404-.24m8.89-13.67c-.009-.018 0-.336-.002-.452.01.018.001.337.002.453M8.153 15.212c-.016-.098-.02.635-.007.442.003-.043.007-.35.007-.442m-.01 3.294c.005.098.016-.297.004-.296-.004 0-.004.284-.004.296m19.81 10.923c.013-.013.2-.19.209-.197.136-.107-.492.48-.21.197M8.162 22.51c-.01-.342-.015.688-.002.373 0-.015.002-.356.001-.373m.061 1.272a3 3 0 0 1-.044-.193c-.01-.048-.012-.115-.014-.117a.3.3 0 0 0 .005.119c.017.082.043.175.053.19m23.436.384c-.025.026.121-.377.146-.521.03-.034-.093.38-.146.52m-1.358 2.52c1.032-1.647.853-1.251-.06.098-.01-.004-.009.001.06-.098m1.204-2.145a3 3 0 0 1-.168.394c.005-.026.132-.3.168-.394M8.176 14.337c.015.127-.003.69-.008.59a11 11 0 0 1 .009-.59M28.06 29.304c-.045.023.383-.391.412-.42.14-.118-.378.386-.412.42m3.763-7.787c-.013-.107-.006-.412-.006-.608.011.09.006.442.006.608m-.01 1.415v-.298c.014-.224.01.55 0 .298M16.789 6.735l-.213.07c-.18.045.412-.147.212-.07"/><path fill="#231f20" d="M26.566 23.11c-.012.026-.07.126-.095.17.015-.058.139-.265.095-.17m-3.277 4.524.13-.068c-.128.053-.299.124-.42.165-.02.006.026-.024-.02-.007-.047.016-.032.029-.1.055-.074.03-.43.133-.553.165-.46.13-.936.23-1.414.273.491-.07-.006-.02-.143-.005-.03.001-.023.043-.519.054-.215.002-.149-.021-.25-.027a6 6 0 0 0-.3 0c.402.038.006.034-.312.012a11 11 0 0 1-.687-.079c-.066-.01-.17-.01-.257-.025-.06-.011-.104-.028-.193-.046a8 8 0 0 1-1.214-.344c.246.045-.176-.083-.193-.095-.09-.045.337.112.17.043a9 9 0 0 1-.695-.29c.184.094-.262-.086-.333-.142.008.065-.974-.607-1.11-.723-.031-.022.15.147-.294-.212-.048-.04-.023-.033-.048-.053-.016-.012-.129-.06-.21-.157-.028-.037.198.147-.278-.282.154.21-.641-.62-.75-.803l.069.107c-.123-.169-.154-.192-.183-.23-.114-.15-.256-.369-.354-.515-.114-.172-.134-.16-.25-.371l.076.154a9 9 0 0 1-.248-.434c.213.323-.04-.073-.053-.1-.024-.044.02.013-.02-.06-.004-.007-.009.01-.067-.103-.12-.238-.086-.206-.133-.307-.004-.01 0 .028-.079-.148-.238-.563.006 0 .019.02.016.027-.036-.178.167.298-.07-.159-.059-.183-.067-.201-.008-.015-.128-.29-.133-.306-.06-.135-.025-.01-.037-.036-.013-.02-.123-.365-.184-.435-.02-.176.057.086.167.355.021.038-.083-.264-.087-.28-.13-.39-.085-.165-.131-.245-.024-.042-.053-.21-.033-.053-.108-.36-.03-.145-.034-.17-.008-.035-.049-.16-.052-.177-.004-.023.025.056.005-.037-.004-.015-.056-.16-.015.033-.062-.256-.068-.233-.061-.326-.088-.168.002-.135-.009-.206-.027-.187-.056-.126-.06-.136-.028-.066-.086-.59-.099-.719.031.048.045.416.065.495.057.266-.038-.382.024-.19q-.03-.122-.057-.244c.01-.153.035.06-.001-.346-.025-.065.022.288.002.218-.013-.04-.03-.278-.034-.282-.007-.005.013.21.002.176-.031-.074-.03-.854-.004-.26-.006-.144.022-.228.022-.342l-.002-.054c-.003-.035-.013.017-.023.054-.008.032-.018.053-.024 0-.005-.05-.01-.17.004-.41.018-.016-.005.314-.002.323.002.012.044-.047.046-.057-.001-.037.026-.836.08-1-.037.062.09-.598.105-.67.002-.02-.027.049-.025.028.017-.13.126-.465.175-.621.052-.175.034-.156.037-.166.025-.076.014-.012.029-.06.019-.072.196-.55.207-.572.002-.008-.042.064-.003-.04.008-.017.014-.001.142-.305.158-.364-.134.242-.081.085.127-.223.103-.225.134-.287.011-.021.108-.173.2-.343q-.095.185-.18.376c.061-.122.18-.36.239-.455.028-.047.021 0 .08-.102.013-.022.023-.132-.112.15-.026.015.055-.11.086-.172.004-.01.003-.059.062-.126.016-.015-.048.215.226-.313.009-.017-.036.034-.027.017.005-.011.093-.135.102-.15s-.041.04-.032.022c.051-.092.163-.181.037-.006q.067-.085.137-.168c-.07.045.059-.097.119-.176.39-.504.11-.181.17-.274.101-.146.053-.01.213-.218.017-.018-.217.199.212-.248a9 9 0 0 0-.184.203c.056-.02.222-.244.238-.259.168-.176.057-.054.308-.314.023-.023.08-.066.128-.115.203-.202-.286.248-.303.256a8 8 0 0 1 .542-.49c.087-.06-.244.213-.171.172.017-.026.813-.662.997-.754.203-.122.315-.14.293-.18.08.005.115-.05.141-.065.32-.173.322-.172.601-.31.062-.03.12-.043.142-.055.012-.007-.018-.009.044-.041.084-.05.632-.245.676-.246.043-.008-.229.084-.176.08.195-.07.385-.136.586-.193.084-.023.043-.002.08-.012.015-.005.303-.088.29-.087-.033-.012-.92.264-.691.178.044-.019.21-.048.177-.065a8.6 8.6 0 0 1 2.455-.357c-.475.021-1.011.053-1.502.146-.067.012-.294.057-.264.064a8 8 0 0 1 1.344-.177c.013 0-.034.014.015.013.09-.003.385-.03.436-.024.008.001-.16.019-.109.028A.3.3 0 0 0 20 11.09c.039-.01.075-.024.132-.022.088-.003.672.056.819.061.157-.003-.43-.051-.387-.059.4.01.802.082 1.17.156.007.002-.047-.021.036-.006.145.028.178.053.247.072.074.02.338.088.371.105a.3.3 0 0 1-.061.001c-.116-.025-.151-.056-.162-.059-.039-.011-.08-.013-.115-.022-.059-.015-.09-.03-.168-.049-.054-.012-.005.013-.057.001-.018-.005-.22-.079-.245-.049.002-.029 1.655.461 1.8.565a9 9 0 0 0-.406-.176c.279.112.618.238.624.285a8.6 8.6 0 0 1 2.667 1.958c.13.15.041.083.258.326l-.146-.207c.114.123.56.713.625.813.01.012.042.016.146.17.091.136.09.168.133.245.036.064.082.133.092.152.008.015.002.026.02.062.059.114.034.01.066.136l-.049-.078c.072.136.154.328.042.133-.02-.033.005-.009-.009-.034-.579-.972-.12-.194.075.15.038.096.285.609.286.63.006.025-.042-.06-.003.062.016.022.279.735.169.484-.02-.053-.144-.395-.18-.475.053.2.253.642.265.696.061.21-.154-.393-.008.079.103.364.025.016.074.154.03.078.108.5.133.483.034.145 0 .063.002.081.004.018.068.3.075.396 0 .011-.02-.022-.02-.01l.046.31c.002.007.007-.06.014-.034.009.031.034.3.038.314.01.02-.03-.31-.009-.257.016.154.046.4.064.503a5 5 0 0 1-.02-.226c.027.022.047.344.022.235.013.07.016.021.027.06.003.01.008.109.012.128.001.003.006-.1.011-.08.011.037.016.339.013.364-.006.07-.015-.177-.026-.197-.001-.003-.017.206-.02.21-.016.012-.007-.22-.023-.194l-.008.172c-.014-.22-.03-.627-.06-.73.036.325.039.666-.003.666-.017 0-.03-.14-.035-.134-.014.02.005.214.004.221l-.003.009c-.008 0-.02-.276-.025-.29-.008-.022-.036.1-.043.1 0-.004-.015-.198-.025-.132-.009.067-.006.237-.008.243-.006.032-.019-.264-.025-.273-.002-.004-.01.155-.014.16-.003.003-.015-.117-.03-.163-.01-.035-.013.067-.015.05 0-.013-.015-.291-.019-.304-.004-.02-.01.045-.013.036-.005-.013-.008-.103-.011-.09 0 .008-.017.357-.03.354-.015-.003.005-.369-.045-.027 0 .002.008.084.007.086-.01.051-.037-.211-.025.11-.042-.595-.027-.073-.058-.16-.012-.034-.03-.264-.032-.264-.012.023.004.095-.002.12-.003.014-.03-.19-.037-.143-.003.024.011.242.01.25-.006.086-.02-.018-.025 0-.004.013 0 .143 0 .147-.002.005-.025-.17-.034-.207-.006-.027-.008.077-.011.058-.017-.116-.003-.368-.031-.125-.002.015.004.106.003.108-.01.057-.018-.11-.03-.14-.021-.05.002.19-.022-.009-.002.15.002.231.008.406-.021-.481-.082-.646-.055-.115-.005-.17-.03-.149-.034-.2 0-.03.007-.277-.042-.16-.005.014.013.161-.005.116-.02-.355-.009-.007-.011-.007-.024-.004-.092-.863-.138-1.007-.037-.168-.1-.31-.108-.346-.03-.119.008-.024.006-.051 0-.03-.12-.359-.125-.374-.014-.067.021-.006.02-.013-.012-.084-.18-.523-.231-.644-.007.007.088.253.013.106-.09-.17-.053-.197-.053-.203a7.6 7.6 0 0 0-1.434-2.198c-.007.021.381.444.383.46.042.064-.596-.664-.688-.741q.093.099.18.202c-.125-.092-.345-.354-.524-.488-.057-.044.041.054.038.053-.067-.045-.162-.134-.078-.083-.16-.115-.128-.109-.247-.203-.006-.005.039.044-.059-.025a4 4 0 0 0-.326-.221c-.016-.006.083.115.12.096.25.205.093.047.194.123.014.012-.03-.002.222.19-.07-.011-.34-.255-.395-.286-.108-.07.305.26.396.304-.054-.006.026.026.115.104.097.086.049.056.101.102.142.129.098.06.2.182-.071-.149.2.183.27.285a8 8 0 0 0-.435-.416l.02.03-.117-.106.024.01c-.217-.165-.257-.22-.274-.235a7 7 0 0 0-.736-.524c-.038-.022-.02.005-.286-.165-.086-.053.005-.02-.097-.073-.145-.032-.127-.058-.165-.078-.109-.055-.181-.078-.191-.083a8 8 0 0 0-.492-.211c-.003-.001.072.042-.026 0-.034-.016-.334-.186-.626-.25q.11.037.218.078c-.083-.04-.701-.184-.554-.131.09.029.323.057.338.096-.194-.092-1.344-.274-1.436-.268-.013-.002.065-.006.048-.009-.013-.003-.28-.02-.316-.024-.02-.004.098-.004.089-.008-.009-.005-.342-.022-.362-.008.083-.005.312.01.191.016-.015 0-.095-.01-.114-.009-.175.01.347.023.428.034-.17-.004-.384-.016-.607-.017a5 5 0 0 0-.61.026c-.153 0 .227-.034.052-.03-.36.011-.094.023-.105.025-.087.017-.4-.005-.393.041-.13.013-.09 0-.27.037l.073-.003a3 3 0 0 1-.603.08c.081-.035.308-.064.327-.067.028-.006.096-.072.414-.08.123-.053-.496.064-.217-.007-.192.026-.97.208-1.071.268-.012.006.057.014-.133.063-.09.024.121-.05.079-.043-.151-.026-1.759.782-2.003 1.033-.017.013-.016 0-.034.014-.054.039-.239.198-.332.271.202-.142-.169.162-.258.245-.138.123-.14.104-.201.156-.235.204-.522.589-.697.756.036.01-.268.318-.374.484-.086.127-.18.329-.059.162a7 7 0 0 0-.38.688c-.017.037-.002-.018-.032.045-.002.005.003.018-.021.072-.197.451-.116.226-.16.307q-.035.068-.051.107a8 8 0 0 1 .29-.648c-.061.055-.273.579-.332.732-.003.005-.008-.018-.01-.013-.026.057-.151.431-.11.36.012-.02.068-.191.146-.392-.018.055.011.02.008.03-.04.118-.153.4-.186.503-.008.023.002.024 0 .028-.03.093-.044.047-.046.151-.082.162.09-.32.062-.291-.045.015-.305 1.126-.259 1.13a.2.2 0 0 0-.018.05 3 3 0 0 0-.058.438c0 .009.026.008.025.019-.004.027-.053.412-.038.556q.008-.115.02-.232c-.02.468-.003.397.006.24l.002-.022a5 5 0 0 1 .025-.277c.004-.005-.008.284-.01.48-.002.126-.004.212-.015.152l-.002-.152c.001-.087.002-.158-.01-.056v.056c0 .08.005.217.004.226-.006.048-.02-.1-.028-.226-.007-.094-.012-.173-.02-.146q.007.068.008.146c.002.094.002.194.008.287.004.065.018.08.019.089.01.12-.008.053-.005.094 0 .022.048.256.005.215.122.777.037.213.008-.266.021.152.043.448.065.58.008.047.017.017.03.096.019.166.175.944.244 1.14-.042-.12-.045-.08-.015.013s.024.009.032.026c.005.02.148.457.182.526-.13-.32-.117-.243-.011.033l-.059-.115c.065.16.193.502.244.589.008.013-.005-.043-.001-.035.04.078.168.348.18.358.008.009-.043-.108-.017-.069.005.008.049.124.113.227.024.038.02.009.026.018.053.078.007.04.1.186.068.106.134.174.228.321-.296-.488-.044-.08.102.108.024.03.02-.007.15.18-.321-.366.064.125.15.22.004.005-.005.016.035.064.003.004.005-.007.044.036.37.409.13.151.193.236.026.036.223.22.276.27.012.01 0 .012.046.057.083.078.166.139.223.188.006.006-.004.018.108.107.031.025.07.05.028.01-.136-.131-.415-.356-.552-.52-.128-.147.305.286.332.303.009.007-.084-.068.004.015.076.072.236.176.352.277.009.008.092.102.087.1-.005-.003-.156-.118-.139-.096.002.003.096.079.106.092.011.016.018.093.038.11.05.044.024.007.058.034.071.058.326.256.346.245l-.13-.093c.245.165.146.086.183.107.04.02.02.029.102.084.017.014.377.223.375.21-.206-.103-.12-.08-.13-.085-.034-.022-.084-.038-.13-.066-.32-.203.014-.015-.06-.067-.025-.018-.082-.042-.093-.05-.034-.024-.028-.036-.052-.05-.056-.035-.003.023-.007.021-.057-.022-.239-.166-.109-.101-.066-.055-.089-.04-.139-.089-.098-.096.063.028.111.057.17.101.213.143.454.285.087.05.197.099.238.12.025.015.253.181.29.124.094.054.228.165.332.207.093.038.073.003.082.006.013.005.124.052.163.064.046.013.027-.003.1.02.179.057.167.076.184.085.208.089.125.024.174.038.042.018.666.2.805.211l-.167-.02c.095.036.204.033.2.06.028-.039.225.026.287.034.024.004.024-.004.054 0 .117.018.385.054.449.055.279.01-.429-.086-.481-.104.11.025.741.074.454.026-.044-.007-.126.004-.151.002-.17-.016-.035-.017-.048-.02-.022-.005-.136-.003-.165-.01-.01-.002.055-.008-.105-.032.08 0 .532.065.593.063.021-.002-.11-.038.278.014l-.013-.01a8 8 0 0 0 .653-.005c-.023.008-.145.027.009.018.088-.006.022-.019.03-.02.083.023 1.474-.177 1.727-.292a8 8 0 0 0 .348-.126c.11-.037.5-.184.574-.223.047-.022-.004-.013.039-.032.04-.017.004.013.016.008.103-.03.804-.425.964-.53-.096.067-.59.377-.579.375.003 0 .133-.059.156-.078.048-.013.176-.125.256-.167.009-.005-.015.033.123-.05.048-.029.163-.12.292-.191.183-.11 1.042-.83 1.068-.914.001-.002-.115.105-.046.023.091-.108.03.009.146-.109.02-.015.32-.363.325-.378.073-.12-.19.182-.19.175.006-.014.217-.27.225-.28.01-.01-.14.218.056-.042l-.077.081c.09-.123.113-.124.137-.152.073-.09.124-.206.257-.34.036-.035-.001.039.003.034.044-.041.058-.122.127-.183.004-.005-.093.179.1-.128l-.046.06c.025-.045.206-.362.228-.406.071-.125.028-.006.093-.135-.061.072.13-.323.135-.292.005-.066.17-.4.228-.566.04-.104.099-.322.11-.355.014-.04.027-.023.053-.096.007-.02.06-.246.121-.439.012-.037.059-.112.05-.039-.013.127-.097.35-.08.352.02.001.088-.312.107-.397.09-.388.064-.16.072-.168.02-.023.057-.24.06-.248.011-.037-.002.119.006.123.012.005.066-.203.062-.154-.004.07-.055.26-.057.272-.02.16.05-.052.072-.11.007-.018.001.056.005.041.057-.23-.029-.055 0-.21.023-.136.015.043.016.038.003-.006.027-.171.036-.196.008-.013-.025.423-.01.408q.033-.207.054-.416c.022-.008-.02.19-.022.21-.002.042.026-.072.031-.066.004.003-.002.14.022.02.008-.043.008-.133.039-.287-.05.541.01.17.019.155s-.008.246.03-.069c.04-.008.011.009.006.1-.007.11.045-.141-.026.257.024-.02.068-.342.07-.36.003-.014.003.06.01.034.069-.301.03-.094.061-.18.004-.007.036-.296.021-.075-.032.403-.092.564-.047.64.076-.291.074-.659.08-.749.009-.139.01.006.014-.01.002-.007.009-.127.01-.129.05-.082-.04.536-.068.728q.021-.075.04-.153-.012.106-.029.212c.062-.334.008-.012.027.079.005.02.028-.205.008.052.035-.186.033-.125.047-.296.015.006-.028.391-.054.541.113-.527.013-.232.101-.69-.007-.088-.03.133-.03.115-.002-.065.033-.216.012-.401-.004-.03-.03.094-.016-.092.002-.02.024-.138.025-.137.011.017 0 .134.004.14.005.005.01-.127.011-.128.015-.003 0 .11.005.094.013-.035.072-.508.025.111.015-.516-.008-.065-.022.133-.003.051.005.065 0 .138-.006.094-.025.202-.03.25-.007.053.06-.238-.012.186.058-.213.08-.6.107-.814.055-.434.019.306.006.383-.002.02.018-.047.017-.034.001.024-.06.44-.06.482.003.043.024-.153.035-.164.012-.008-.064.498-.011.226.038-.188.052-.538.087-.595q-.039.42-.12.833.064-.222.115-.448c-.043.314-.11.579-.17.873.206-.694-.024.237-.032.247.003.005.108-.264.123-.308-.041.252-.285.989-.106.57a2 2 0 0 0-.077.269c.027-.017.152-.437.143-.365-.008.084-.065.188-.106.309-.22.613-.071.484-.37 1.074l.026-.031a8.6 8.6 0 0 1-1.209 1.777c-.158.234-.679.778-.97 1.005a7 7 0 0 1-.376.275c-.044.027.178-.143.072-.073-.019.019-.525.367-.483.352.059-.036.233-.165.263-.183.237-.093-1.399.876-1.505.877l.121-.04q-.165.073-.333.138m3.107-4.14c.02-.06.107-.19.148-.272.057-.114.102-.332.111-.224a7 7 0 0 1-.26.496m-1.818 2.017c.103-.072.047.014-.043.066-.01.006-.097.028.043-.066m.969-.883-.08.085c-.075.063.147-.176.08-.085m-5.637 2.487c.14 0 .039-.03-.047-.019a.2.2 0 0 0 .047.019m.1.001c.108.027.323-.032.151-.023zm4.92-1.88a1 1 0 0 1-.15.13c-.004-.007.11-.094.15-.13m-2.845 1.569a3 3 0 0 0 .45-.15c-.065.031-.447.144-.45.15m-1.125.244a1 1 0 0 0 .16-.03c-.076.003-.211.03-.16.03m-2.285-.056c-.008 0 .098.066-.168-.015-.039-.012.105.005.091 0l-.07-.018c.126.021.258.041.27.046.058.022-.12-.013-.123-.013m-1.172-.276a1.5 1.5 0 0 1-.22-.081c-.007-.003.027-.01-.045-.037-.057-.021.02.03-.088-.017-.11-.049.043 0 .034-.005-.013-.006-.188-.07-.178-.08.007-.004.189.078.235.094.06.021-.006-.02.09.021.062.026.02.035.032.041.01.006.233.07.14.064m.99.237.035.006zm7.717-3.148c-.043.05.057-.116.104-.173a1.3 1.3 0 0 1-.104.173m-7.837 3.142c-.185-.049-.047-.023.12.006-.053-.006-.058.01-.12-.006m5.25-.768q-.012.005-.016 0 .029-.009.016 0m-.399.197c-.131.079.148-.056.141-.065a2 2 0 0 0-.141.065m-3.491.733c.014.001-.205.037.111.015-.168-.01.01-.01.007-.014-.007-.01-.288-.01-.35-.02-.051.017.186.013.231.018m-4.144-1.413c.037.013.134.087.201.134a1.2 1.2 0 0 1-.201-.134m7.015-13.083c-.533-.176-.593-.235-.108-.058.01.004.142.065.108.058m-4.746-.167c-.056-.004.111-.057.225-.078.026-.005.125-.01.019.021-.003-.024-.17.011-.244.057m.407 14.49c-.058 0-.222-.051-.308-.078.056.005.23.056.308.078m2.548-14.769c-.06-.007-.1.006-.09.009.044.01.156.009.09-.008m-2.005 14.878c.006.01-.22-.021-.232-.045.048.012.227.04.232.045m-3.097-1.255a1 1 0 0 1-.169-.112c.009-.004.152.098.17.113m4.144-13.659c-.053 0-.186.004-.2.012a.8.8 0 0 0 .2-.012m7.395 5.489c0 .006-.08-.185-.102-.273-.042-.17.105.264.102.273m-5.879-5.38c.162.047-.018-.003-.014.015.11.02.386.081.2.024-.037-.012-.134-.029-.186-.04m-.152-.032c-.018.002-.141.001-.037.016.048.007.128 0 .037-.016m5.579 4.22c-.047-.145.227.49.224.511l.004.022c.014.021.06.144.053.162-.012-.037-.05-.137-.054-.149l-.002-.012c-.023-.04-.212-.51-.225-.535m-.553-1.002c.115.131.098.179.089.167-.115-.15-.025-.062-.027-.068-.005-.012-.09-.115-.062-.098m.455.788.069.142c.041.112-.139-.256-.07-.142M16.652 26.386c-.09-.05.006-.016.066.018.005.003.015.026-.066-.018M21.137 12.2c-.022-.012-.634-.086-.599-.057.053-.007.744.092.599.057m-4.474.688c.097-.048 0 .022-.055.042-.02.007.03-.03.055-.042m2.446 14.22c.113.001.086.036-.01.012-.004-.001.005-.013.01-.013m-1.645-14.548c-.345.144-.289.044.18-.094l-.04.023c.538-.16.036-.012-.092.04-.049.018-.004.014-.048.03m-1.303.6c-.333.146.273-.186.45-.272-.163.103-.38.22-.074.077-.433.238-.26.127-.278.134-.022.01-.084.054-.098.06m.846-.434c.018-.01.166-.061.218-.083-.068.042-.341.147-.218.084m8.48 1.771c.019.002.048.018.127.114-.03-.025-.087-.08-.126-.114m1.024 8.929c.044-.073.13-.22.094-.18a2 2 0 0 0-.094.18m-7.158-11.293c-.018-.004-.485.051-.322.045.049-.005.473-.046.322-.045m2.416.183a3 3 0 0 0-.198-.04.8.8 0 0 0 .198.04m4.96 10.738c.006-.01.118-.245.1-.222a1 1 0 0 0-.1.222m-10.424 3.182c-.02-.01-.038-.036-.044-.04-.017-.007-.36-.211-.221-.146.02.016.516.304.585.334.017.03-.193-.098-.245-.126-.01-.005-.023.005-.075-.022m9.613-11.258c.023.004.308.378.29.384a8 8 0 0 0-.29-.384m-.149-.186c-.058-.082.095.096.135.153a2 2 0 0 1-.135-.153m-4.87-2.675c-.047-.003.095.03.063.03-.021 0-.126-.02-.16-.017a1 1 0 0 0 .127.031c.044.005.003-.013.05-.007.16.02.299.052.446.08.013.002-.089-.026.025-.004.017.003.12.036.255.065.306.031.514.13.883.246a5 5 0 0 0-.3-.117 7 7 0 0 0-1.214-.284c-.086-.012-.046.003-.083-.002-.03-.004.008-.015-.092-.021m5.597 11.353c.035-.027.097-.156.141-.236-.027.021-.092.16-.141.235m-2.281-10.093c-.038-.025-.155-.106-.167-.108a1 1 0 0 0 .167.108M14.534 24.85l-.08-.087c-.059-.08.165.162.08.087m-1.452-2.184c-.035-.075-.072-.151-.07-.182.017.05.082.188.07.182m-.614-3.548c-.02.016.012-.234.02-.28.004.018-.008.268-.02.28m13.047-4.673c.105.113.101.073.158.153.009.014.004.087-.094-.052-.018-.025.072.054-.064-.101M17.72 12.44c.034-.022.151-.055.231-.076-.016.013-.176.057-.231.076m9.22 10.19c.045-.059.156-.374.116-.3-.005.01-.095.258-.116.3m-9.065 4.255c-.134-.027.137.058.227.067a6 6 0 0 1-.227-.067m-5.427-6.891-.004-.159c.008-.119.02.292.004.159m1.008 3.455a2.7 2.7 0 0 1-.219-.42c.043.06.26.47.22.42m11.6-9.441a4 4 0 0 1 .224.22 3 3 0 0 1-.225-.22m-12.615 5.45.002-.022zm10.555-6.777c-.084-.04-.072-.017-.067-.014.062.031.161.06.067.014m3.573 10.708c.028-.02.094-.162.138-.24-.021.019-.103.177-.138.24m-10.75-10.05c-.107.05.28-.223.373-.26.009.001-.36.25-.374.26m2.463 13.675c.006.013.203.042.163.028a1 1 0 0 0-.163-.028m-1.88-14.046c.037-.024.133-.062.104-.04-.037.03-.114.046-.104.04m3.823-.913c-.02-.003-.281.006-.173.018.075.009.087-.007.105-.007.02-.001.435.036.068-.01m-6.315 3.085c.055-.082.132-.173.196-.253a3 3 0 0 1-.195.253m3.639 11.667c.019.018.641.203.291.086-.02-.005-.356-.121-.291-.086m7.965-12.361-.046-.05q.027.027.046.05m-1.335-1.128c.034.013-.115-.087-.162-.111-.019 0 .157.109.162.111m-10.076 1.556c.033-.05.106-.129.153-.185a1.5 1.5 0 0 1-.154.185m-1.63 3.775c.02-.116.041-.26.033-.263l.007-.017c.003-.01.02-.134.035-.187.06-.323-.17 1.256-.073.335zm1.213 5.208c.027.062.147.208.123.165-.018-.029-.151-.227-.123-.165m-1.05-2.337c.002.02.057.195.064.197-.023-.102-.078-.288-.065-.197m1.34 2.762a.2.2 0 0 0 .07.061c-.022-.037-.105-.123-.07-.06m11.348-10.099a1.4 1.4 0 0 0-.237-.195l-.046-.053c-.016-.066-1.325-1.011-.46-.36.026.021-.004-.016.104.07.007.006.005.015.027.033.052.04.311.265.366.308q0 .003.008.013c.055.065.27.22.238.184M12.55 21.168a.7.7 0 0 0 .043.16c-.01-.057-.052-.245-.043-.16m5.005 5.677c.07.031.255.076.202.053-.033-.013-.281-.087-.202-.053m-4.68-4.556c-.136-.408-.035-.096-.068-.155zm13.655-6.523c-.033-.06.028-.003.056.07.008.022-.037-.036-.056-.07m1.008 2.907c.013-.061.034.225.008.116zm-.568-2.084a.7.7 0 0 1-.097-.184c.085.174.022.005.097.184m-14.468 1.8.002-.001zm1.73 6.207c.027.049.128.161.107.12a1 1 0 0 0-.106-.12M25.088 13.99q.005.01-.009-.002zm-11.356 9.97c.01 0-.116-.193-.12-.201-.085-.103.065.123.12.2m5.304 3.238c.012 0-.06-.031-.108-.03-.037.002.064.027.108.03M27.145 17a.8.8 0 0 1 .055.187c-.014-.047-.063-.186-.055-.187m.394 1.559c-.024-.083-.056-.278-.078-.401.017-.006.065.322.078.4m-2.08-4.23c-.003-.006-.128-.139-.119-.113.016.036.152.153.12.113m-6.773 12.803c-.082-.007.1.049.188.043.046-.002-.174-.04-.188-.043m-4.144-2.178c.08.073-.098-.127-.13-.147.032.037.102.12.13.147m-1.854-3.133c.07.335.071.14.048.084a1 1 0 0 0-.049-.084m14.603.044c.01-.047-.059.12-.056.144a.6.6 0 0 0 .056-.144m-14.35-5.067-.016.04zm2.301 8.847c-.158-.187-.16-.145-.176-.158-.034-.03-.106-.108-.17-.163q.114.091.231.18c-.062-.047-.538-.513-.549-.523-.021-.006.13.14.134.144.005.007.008.051.022.066.019.027.439.396.508.454m-2.315-3.154c-.017-.052-.011-.07-.023-.093-.004-.008-.015-.005-.029-.032zm2.685 3.378c.047.052-.197-.13-.203-.139-.037-.038.163.1.202.14m-1.823-1.81c.005.01.14.2.146.193-.034-.051-.214-.306-.146-.194m-.927-1.727c-.029-.078-.069-.227-.079-.205q.038.103.079.205m5.542 4.782c.145.057.08.01-.05-.027-.042.003.027.018.05.027m.478.106c.04.014.477.056.412.034-.023-.006-.275-.021-.286-.025-.017-.004.064-.008-.07-.023.008.006-.07.01-.056.014m-.357-.064c.145.049.185.017.073-.003-.044-.009-.094-.004-.073.003m-.603-.146c.052.018.192.06.292.071a8 8 0 0 1-.388-.106c-.017.002.051.019.097.035m9.787-7.55c.008-.122.018.16.015.171-.009.036-.018-.116-.015-.17m.136 1.552c.01-.033.027-.054.032-.13q-.033.111-.07.222c.013.063.027-.055.038-.092m.13-.28c0 .012.044-.043 0 .095-.028.093.024-.428.043-.52 0 .104-.034.332-.043.426m.23-.909c.003-.006 0 .197-.003.22-.017.122-.013-.186.002-.22m-.047.644c.017-.094 0 .116-.012.178a1.4 1.4 0 0 1 .012-.178m-.055-2.324c.005-.107-.065-.186-.025-.033.002.007.024.037.025.033m.131 1.88c-.011.094-.006-.116-.001-.18.007-.005.003.165.001.18m-.087-1.963c-.01-.139-.058-.079-.057-.062.005.07.07.305.083.354-.069-.358-.023-.226-.026-.292m-.18-.61c-.039-.122.035.196.064.252-.015-.061-.051-.218-.063-.253m-.221-.743a2 2 0 0 0-.116-.285c.031.068.097.26.116.285m-.03-.156c-.029-.105-.073-.114-.016-.003.002.004.016.007.016.003m-.234-.56c-.018-.07-.087-.126-.036-.023.014.03.038.031.036.024m.693 1.886c-.015-.101-.07-.223-.025-.01l-.063-.22c.052.279.08.252.095.332.02.112-.011.109-.024.088.037.088.101.48.126.708a8 8 0 0 0-.081-.724c-.01-.056-.029-.109-.038-.157-.015-.076.011-.011.01-.016m-1.077-2.585c-.096-.186-.056-.055.01.042a.2.2 0 0 0-.01-.042m1.254 4.459c-.024.28-.026.074-.039.659 0-.246-.014-.015-.018-.064-.004-.038.012-.18-.008-.099.027-.108.036-.583.035-.605.002-.012.036.02.03.109m-.518-3.079c.016-.08-.058-.081-.076-.222-.116-.15.186.47.162.567-.237-.705.115.48.013-.034.108.416.05.132.08.192.03.065.086.302.098.286a8 8 0 0 0-.131-.428c.011.15-.072-.143-.081-.249zm.226.81a3 3 0 0 0-.098-.3c.011.04.136.48.098.3m.255 1.393c-.01-.114-.024-.294-.046-.354.016.114.028.294.046.354m-2.53-5.259c-.112-.095.21.225.125.124zm1.917 2.747c-.047-.144-.058-.062-.004.036.003.006.007-.03.004-.036m.65 3.614c.012.01-.021.416-.03.486-.003-.04.02-.498.03-.486m.018-.901c.024-.234-.059-.543-.063-.576-.004-.034.02.017.02.009 0-.018-.059-.379-.065-.396-.003-.012-.014.057-.035-.015.047.14.121.803.12.837.004.027.013-.177.023.14m-.07-.662c.004.091-.035-.16-.043-.222-.015-.137.044.21.043.222m-.103-.606a2 2 0 0 0-.08-.305c.019.124.09.37.08.305m-1.123-2.694c-.038-.057-.136-.218-.15-.221.04.055.136.217.15.221m1.19 6.25c.03-.11-.02.151-.042.225-.007.003.04-.215.042-.224m-.489-5.06a9 9 0 0 0-.451-.881c.06.097.425.836.434.873.005.01.019.012.017.008m.533 1.718c.029.072.02.124.022.134.015.093.047.287.028.246-.017-.166-.106-.524-.05-.38m-1.214-2.992c-.159-.233.125.23.097.163a4 4 0 0 0-.097-.163m.721 1.358c.044.05.314.84.339.972-.053-.11-.065-.206-.116-.36-.014-.04-.018-.027-.02-.031-.024-.071.003-.021-.011-.065-.005-.03-.237-.593-.192-.516m.511 1.675c.02.043.101.559.098.58.007.158-.086-.541-.098-.58m-.524-1.753c.06.072.195.466.08.206-.01-.025-.044-.135-.08-.206m-.672-1.267a3 3 0 0 0-.177-.26c.024.036.257.397.177.26m.104.116c-.004-.006.02.06-.052-.058-.006-.01-.002-.038-.104-.18a.4.4 0 0 0-.06-.064c.085.161.41.604.216.302m1.107 2.91c.002-.028.035.035.035.097 0 .027-.02-.02-.035-.096m-1.757-3.788c.12.125-.224-.293-.248-.308.007.017.238.294.248.308M28.3 21.65c-.038.14-.026.05-.028.057-.092.296-.05.222-.06.27-.024.101-.046.077-.087.248.069-.282-.001-.029-.014-.024-.048.02.13-.362.154-.506.004-.02-.046.12-.037.07.032-.162.204-.658.072-.115m.086-3.437c.027.065.08.572.052.44 0-.023-.084-.534-.052-.44M11.6 18.191c.01-.124-.05.157-.049.21a1 1 0 0 0 .049-.21m-.152 1.992c.011.147.07.296.048.116-.003-.02-.043-.133-.048-.116m4.384-8.005c-.141.061-.118.082-.021.026.034-.02.025-.028.02-.027m-3.77 4.302a1 1 0 0 0-.06.176c.025-.06.102-.265.06-.176m3.81-4.33c-.076.049.07-.009.158-.078-.049.027-.15.073-.158.078m11.86 3.846c-.042-.063-.134-.258-.194-.365.008-.02.156.286.195.365M11.45 19.56c.01.14.022-.158.008-.131zm9.13-8.453c-.1.002.217.038.13.016zm1.38.212c-.073-.022-.394-.086-.271-.052.019.005.264.058.27.052m6.26 10.668c.028-.035-.043.193-.057.225a.8.8 0 0 1 .058-.225M14.995 12.71c-.063.047-.23.168-.252.197.075-.062.283-.2.252-.197m-3.516 6.219c-.028.119-.037.326-.011.276.012-.228-.024.027.011-.276m4.84-7.029c-.058.026-.093.068-.086.066.067-.022.146-.085.086-.066M12.8 15.026a.7.7 0 0 0-.095.153c.006-.007.103-.152.095-.153M26.246 13.8c-.057-.074.143.129.19.2.017.04-.182-.192-.19-.2m-8.267-2.483c.005-.017-.301.071-.177.05a2 2 0 0 0 .177-.05m3.029-.198c-.213-.015.672.126.443.072a8 8 0 0 0-.443-.072m1.434.305c-.035-.012-.004-.053.137.01.018.008-.075-.008-.06 0 .009.002.323.113.337.118.016.005.003-.016.02-.012s.206.087.305.127c.187.076.211.075.226.081.045.02.116.06.204.101.451.201 1.105.585 1.402.84a6.4 6.4 0 0 0-.865-.545c.102.024-.458-.22-.129-.08-.135-.1-1.453-.628-1.577-.64M11.49 20.76c-.03-.087.04.372.069.407zm-.053-2.137c.003-.043-.025-.088.024-.31.015-.066.01.01.015-.001.002-.005.05-.207.025-.037-.035.26-.027.021-.047.16a3 3 0 0 0-.012.266c0-.002.005-.081.009-.094.011-.049.018-.024.02-.03.001-.023.046-.438.074-.495.002-.019-.085.658-.084.686-.003.016-.03.007-.034.024-.003.008-.015.283-.018.32l-.004.023c.01-.04-.003.208-.01.2a2 2 0 0 1 .006-.182l.002-.007c-.017.034.034-.545.009-.422.01-.169.019.027.025-.1m.116-.803-.002.053c.053-.292.152-.62.26-.942.027-.083-.021.006.02-.1.033-.085.083-.173.07-.126-.004.012-.076.182-.103.271-.08.261-.042.2-.047.215-.005.017-.063.18-.085.27-.057.228-.074.336-.144.65.024-.185-.017-.089.031-.291m7.748-6.76c.01-.01.204-.015.274-.02-.01.01-.204.013-.274.02m3.094 16.86c.053-.03-.377.081-.26.064.025-.004.207-.049.26-.065m-1.969.317c-.059.008.182.005.18-.007 0-.004-.172.006-.18.007m-7.264-13.852c.006-.01.11-.136.114-.14.079-.075-.258.344-.114.14m4.85 13.652c.205.04-.4-.116-.218-.057a5 5 0 0 0 .219.056m-.835-.24c.047.017.257.09.261.086a1.4 1.4 0 0 0-.26-.086m-.847-15.969c-.03-.006.242-.116.335-.156.03.006-.244.11-.335.156m-1.577.945c1-.719.79-.544-.052.051-.008-.008-.009-.003.052-.051m1.333-.837c-.035.03-.16.091-.243.136.011-.015.183-.104.243-.136m6.821 15.843c-.067.04-.399.13-.343.105.014-.004.368-.12.343-.105m-9.694-13.485c-.032.011.207-.271.23-.289.085-.077-.216.261-.23.29m4.758-3.058c.06-.028.244-.063.36-.085-.05.02-.262.06-.36.085m-.83.233c.007-.003.165-.055.173-.056.133-.032-.314.116-.173.056M28.47 21.48c0 .006-.029.129-.03.133-.038.107.047-.262.03-.133"/><path fill="#231f20" d="M15.926 20.725c.006.005.026.03.037.04-.023 0-.062-.056-.037-.04m1.866.144-.034-.015c.022.025.055.054.073.078.003.004-.014.003-.006.012s.018-.005.031.006c.015.012.069.082.09.104.082.08.17.154.245.239-.092-.075-.017.018.01.037.006.005.027-.018.105.071.05.056-.03.038.073.111-.046-.09.02-.02.073.032.01.009.08.086.114.118.012.01.04.017.055.031.01.01.012.024.028.039q.108.104.211.212c-.07-.013.02.045.022.05.01.024-.07-.05-.044-.015l.13.124c-.032-.038.07.022.075.046.02-.032.17.215.21.237.007.004-.021-.05.069.052.01.01-.002.015.004.02.004.002.048-.003.055.032.003.013-.062-.02.052.08-.01-.041.054.02.112.083h-.822c.04-.036.08-.07.096-.08l-.032.01c.044-.025.042-.04.05-.048.034-.03.087-.065.115-.095.034-.036.019-.051.065-.086l-.039.019.086-.081c-.044.085.015-.013.02-.019.007-.009.004.011.017-.004.001-.001-.009-.007.011-.03.043-.046.046-.029.065-.047.001-.002-.012-.003.019-.037.097-.108.005.006.002.01-.004.007.06.002-.037.079.033-.026.049-.016.053-.02l.054-.057c.02-.03-.01-.017-.008-.023.003-.006.076-.055.063-.096.054-.004.006.04-.039.092-.002.012.057-.037.06-.04.069-.069.01-.051.012-.08 0-.014.043-.028-.001-.02.06-.066.033-.017.039-.02.008-.003.025-.03.028-.032.005-.003-.002.017.016.003.003-.002.018-.039-.02-.01.045-.043.032-.05.066-.045-.005-.067.043-.001.057-.011.038-.027 0-.046 0-.049.003-.02.101-.099.12-.125.01.029-.07.07-.08.088-.033.059.074-.054.067.004l.02-.062c.042-.01.013.034.076-.041-.003-.026-.046.05-.046.028.001-.014.04-.055.037-.06s-.035.037-.035.024c-.002-.026.143-.144.05-.037.028-.028.07-.015.085-.047.01-.022-.115.029.024-.097.015.01-.05.057-.05.06s.039.022.042.022c.011-.002.13-.152.174-.166-.029-.006.099-.105.106-.123.002-.004-.021-.002-.019-.007.016-.028.094-.07.122-.096.03-.03.018-.035.02-.037.014-.013.009.004.017-.005.013-.012.1-.097.103-.102 0-.002-.023.002-.007-.019.003-.003.013.01.063-.05.061-.073-.06.031-.046-.009.061-.025.042-.041.055-.052.005-.003.05-.018.081-.052l-.062.078c.025-.02.067-.068.088-.084.011-.008.016.012.036-.008.004-.005-.01-.052-.049.014-.015-.006.017-.024.026-.039.001-.002-.01-.027.016-.03.006-.002.02.09.082-.048.002-.005-.016 0-.014-.005.001-.003.03-.025.031-.03.002-.003-.017.002-.015-.003.01-.025.062-.02.023.015l.047-.026c-.034-.008.013-.025.03-.042.103-.112.017-.054.028-.08.018-.041.032.018.065-.037.003-.005-.066.033.047-.063l-.044.048c.03.012.054-.057.057-.06.038-.044.018-.009.068-.08.005-.007.021-.014.03-.028.038-.058-.07.057-.08.052a1 1 0 0 1 .12-.124c.027-.009-.05.058-.025.055.008 0 .171-.18.21-.21.044-.034.09-.024.059-.056.042.02.03-.01.036-.016.064-.058.065-.058.114-.113.011-.012.03-.013.033-.018.001-.004-.013-.01-.005-.024a.7.7 0 0 1 .133-.11c.013-.001-.039.044-.02.045.035-.034.066-.07.103-.105.015-.014.014 0 .02-.006a.4.4 0 0 0 .043-.06c-.01 0-.163.16-.133.108.006-.01.049-.024.026-.037l.431-.407c-.066.094-.169.172-.251.257-.012.012-.053.05-.039.054.074-.07.158-.163.233-.226.002-.002.002.015.012.008.018-.013.055-.077.066-.082.003 0-.015.04 0 .037.04-.004.007-.049.027-.068.015-.014.133-.095.146-.131.013-.04-.08.066-.084.048.057-.078.136-.135.199-.2 0-.001-.017 0-.004-.015.023-.026.04-.021.055-.032s.059-.058.07-.06c0 0 .003.02.002.022-.016.025-.038.017-.04.019-.007.006-.008.018-.015.024-.01.01-.021.01-.035.024-.01.009.009.01 0 .018-.004.003-.063.016-.042.043a3 3 0 0 0 .33-.309l-.083.067c.058-.044.1-.124.132-.1l.572-.559c.035-.03.035.006.085-.055l-.06.026a2 2 0 0 0 .183-.166c.002-.003-.01-.023.02-.056.026-.03.042-.022.06-.034.014-.01.025-.028.03-.031.003-.002.011.004.02-.002.025-.017-.014-.02.032-.018l-.013.018c.03-.022.076-.047.043-.003-.005.007-.007-.005-.012 0-.192.194-.023.054.033-.025.028-.007.119-.11.124-.112.008-.001 0 .024.029.01.006-.003.13-.14.098-.079-.007.013-.073.072-.087.088.058-.013.108-.128.118-.137.042-.034-.052.092.035.01.067-.063-.009-.017.01-.049.01-.018.1-.075.077-.094.023-.028.02-.002.024-.004.003-.002.047-.058.067-.07.003-.002.008.016.01.015l.053-.056c0-.002-.02 0-.018-.007.003-.008.051-.052.05-.058s-.054.052-.055.032a.3.3 0 0 0 .073-.1.2.2 0 0 1-.037.04c-.012-.02.043-.074.037-.043.005-.018-.006-.014-.006-.027 0-.003.016-.02.017-.027 0 0-.024.01-.023.004 0-.012.052-.062.058-.065.016-.007-.02.04-.017.05 0 .002.05-.02.051-.02.015.01-.034.04-.018.048l.037-.022c-.027.049-.102.113-.107.144.052-.06.11-.118.14-.089.012.013-.004.044 0 .046.014.008.036-.038.038-.038h.003c.007.007-.036.06-.036.065.002.009.045.01.05.015 0 .001-.029.04-.009.038s.05-.033.052-.033c.01 0-.037.056-.035.06 0 .003.038-.016.042-.014.003.002-.012.03-.012.046 0 .013.023 0 .02.004 0 .003-.05.052-.051.055-.002.006.017.002.017.005 0 .006-.018.019-.013.02.003 0 .091-.035.098-.028.011.013-.082.05.026.037l.013-.018c.018 0-.016.06.04 0-.093.122.004.03.008.067.002.014-.037.059-.036.06.014.006.02-.015.029-.015.005 0-.022.048-.007.047.008-.001.047-.042.049-.043.022-.01.01.017.018.018.005 0 .03-.023.03-.023.002 0-.018.045-.02.056-.002.008.022-.006.02 0-.013.03-.08.053-.006.04.005 0 .021-.018.022-.018.02-.002-.011.03-.01.042.004.022.041-.03.013.017a.3.3 0 0 0 .08-.07c-.083.096-.082.16.017.059-.033.031-.01.046-.02.055-.006.006-.07.034-.008.054.007.002.029-.032.03-.013-.07.064.006.008.007.01.023.024-.16.168-.186.199-.03.036-.04.083-.047.09-.023.024-.013-.005-.022-.003s-.057.086-.06.088c-.018.01-.016-.015-.018-.014-.023.009-.103.107-.13.13.007.006.058-.044.038 0-.022.05-.056.02-.059.019l-.5.501c.02.015.116-.107.12-.107.028-.001-.156.183-.185.2l.063-.04c-.01.048-.1.088-.134.139-.011.016.023-.002.023-.001-.008.023-.039.041-.03.013-.028.047-.034.03-.063.059-.002.001.019-.003-.001.023-.01.012-.066.07-.067.084 0 .006.06.008.037-.022.075-.05.008-.032.032-.056.004-.003.01.02.064-.047.015.038-.075.088-.083.103-.018.031.097-.057.095-.096.012.03.01-.005.034-.026.025-.024.02-.007.034-.02.037-.038.007-.037.05-.054-.07-.012.047-.057.082-.07l-.11.122h.013l-.031.03-.001-.012c-.04.066-.067.064-.072.068-.057.053-.12.117-.176.173-.008.008.011.016-.06.066-.023.016-.015-.013-.036.01.001.057-.021.034-.03.042-.023.023-.03.045-.032.047-.028.03-.072.072-.103.104 0 .001.025-.007.002.011-.008.007-.11.035-.156.104l.052-.037c-.02.014-.133.146-.094.126.025-.013.045-.081.073-.063-.047.034-.261.269-.284.28-.003.002.004-.02 0-.018s-.053.056-.063.06c-.006.002.012-.026.008-.026s-.071.06-.066.073c.012-.02.06-.06.045-.029-.002.004-.024.013-.026.018-.022.046.076-.058.091-.073-.051.075-.163.159-.229.24-.037.022.032-.056-.008-.03-.083.057-.007.03-.009.033-.009.026-.11.042-.078.074-.03.02-.026.009-.057.048l.02-.007c-.02.058-.151.095-.148.085.007-.027.065-.055.069-.06s-.013-.053.077-.084c.002-.047-.11.08-.07.01-.035.04-.203.177-.215.209-.001.003.033.013-.016.04-.023.012.02-.031.007-.028-.04.01-.372.36-.436.427-.005.004-.01-.005-.014 0-.012.012-.049.069-.074.088.06-.034-.031.058-.056.08-.037.034-.047.02-.065.032-.068.05-.131.169-.203.188.028.024-.092.066-.13.103-.029.029-.054.088-.004.06-.051.049-.099.106-.145.155-.007.008-.004-.01-.017.003 0 .002.005.011-.005.023-.088.1-.058.039-.08.052l-.027.018.13-.14c-.031-.002-.118.125-.154.152-.002 0-.007-.012-.008-.011-.013.01-.084.089-.058.085a.5.5 0 0 0 .082-.078c-.01.013.01.015.008.018-.019.029-.087.076-.109.096-.005.004.002.01.002.011-.02.017-.032-.01-.032.03-.057.01.06-.068.038-.076-.017-.007-.227.216-.208.234q-.003-.001-.017.002a.4.4 0 0 0-.085.084c0 .002.018.02.016.022-.005.006-.093.065-.11.103l.053-.037c-.09.09-.07.082-.035.057l.005-.003c.027-.02.06-.045.062-.044.008.003-.141.158-.129.112.002-.006.08-.069.033-.046-.008.004-.05.053-.054.054-.024.007.063-.104.038-.104-.012.036-.049.06-.073.09-.011.015-.006.027-.007.029-.02.025-.017.003-.025.01-.004.005-.029.07-.048.034-.13.17-.02.062.07-.032-.02.04-.081.091-.104.12-.009.01.006.013-.008.03-.028.036-.19.177-.232.215.02-.028.003-.031-.015-.012-.018.02.012.018.01.023-.003.005-.097.087-.11.103.061-.071.036-.066-.021-.011l.015-.033c-.028.037-.113.09-.128.114-.002.004.017.002.016.004-.013.02-.078.069-.078.074s.031-.012.026 0c-.001.003-.036.015-.056.04-.008.01.005.013.004.016-.015.021-.018-.003-.048.032-.022.026-.027.057-.065.086.126-.092.027-.008-.013.043-.006.008.014.016-.036.053.066-.12-.04.012-.066.036 0 .002-.011-.007-.023.004-.001.002.007.006-.004.018l-.043.047-.4.329-.272-.33c-.037-.036.009-.002-.002-.023-.006-.011-.067-.053-.08-.067-.004-.003.004-.009-.008-.02-.022-.022-.05-.034-.064-.048-.002-.002.009-.012-.022-.036-.009-.007-.02-.011-.013.002.026.047.112.098.142.148.028.047-.09-.07-.096-.076-.002-.002.026.016.004-.009-.019-.02-.074-.038-.1-.072a.2.2 0 0 1-.007-.041c.001 0 .041.033.04.023 0-.001-.023-.024-.023-.03 0-.008.031-.058.027-.064-.01-.015-.01.002-.018-.007-.017-.019-.066-.091-.081-.08l.027.033c-.057-.054-.04-.025-.05-.03-.011-.006.003-.015-.014-.035a.6.6 0 0 0-.09-.075c.053.036.021.035.023.037.007.009.025.01.035.02.07.074-.015.015-.002.035.005.007.024.011.026.014.007.01-.003.02.004.024.014.01.013-.017.014-.017.02.003.054.057.012.044.01.022.03.006.037.026.011.04-.024-.002-.037-.01-.046-.03-.05-.048-.106-.099-.02-.018-.052-.032-.061-.04-.006-.006-.03-.09-.078-.044-.016-.025-.017-.088-.04-.108-.02-.018-.03.005-.033.003-.004-.001-.026-.026-.036-.031-.012-.007-.014.004-.03-.008-.043-.03-.025-.045-.028-.05-.03-.056-.036-.013-.047-.02-.01-.008-.127-.142-.159-.162l.042.022c-.008-.03-.046-.033-.027-.052-.035.026-.054-.034-.066-.045-.005-.004-.01.002-.016-.004-.024-.022-.072-.078-.087-.087-.065-.043.054.113.063.125-.021-.022-.15-.137-.109-.066.007.01.036.012.041.017.037.03-.001.016 0 .02.003.006.036.016.04.023.002.002-.021 0 .01.033-.026-.005-.106-.102-.12-.111-.006-.004-.003.045-.056-.053l-.004.01-.129-.125c.01 0 .043.014.011-.014-.018-.016-.017.008-.018.006-.019-.012-.288-.288-.342-.34-.019-.018-.078-.059-.082-.063-.023-.022-.098-.108-.116-.123-.01-.01-.01.01-.019 0-.008-.009.01-.01.008-.012-.018-.024-.186-.169-.215-.214.02.025.152.12.155.112 0-.001-.02-.036-.029-.038-.002-.017-.057-.026-.07-.048-.002-.002.02-.008-.01-.041-.01-.012-.048-.03-.065-.07-.046-.036-.246-.269-.275-.27 0 0 .025.036-.002.021-.035-.02.016-.02-.014-.055a2 2 0 0 0-.1-.092c-.042-.013.03.07.027.071a.4.4 0 0 1-.075-.063c-.002-.004.07.03 0-.027l.015.029c-.035-.025-.024-.041-.03-.05-.02-.024-.065-.028-.075-.089-.003-.016.02-.008.02-.01-.003-.02-.041-.01-.04-.046 0-.002.05.027-.02-.043l.01.02a1 1 0 0 1-.095-.085c-.025-.03.011-.018-.018-.045 0 .035-.086-.047-.067-.057-.03.006-.087-.08-.12-.114-.022-.021-.073-.057-.08-.065-.006-.009.009-.019-.003-.037-.004-.005-.057-.04-.083-.092-.005-.01 0-.046.019-.038.033.015.061.078.073.065.013-.014-.056-.068-.07-.086-.069-.084-.01-.054-.008-.06.005-.016-.037-.057-.038-.06-.003-.011.035.01.042.004.008-.007-.017-.062-.005-.056.017.009.042.058.044.06.039.022.016-.038.014-.06 0-.006.018.004.016 0-.031-.057-.036.017-.063-.015-.023-.028.023-.007.022-.009 0-.002-.03-.034-.031-.043 0-.005.105.052.113.038l-.085-.07c.012-.017.039.03.044.033.011.005-.003-.024.002-.027.003-.003.039.012.02-.015-.006-.01-.033-.016-.051-.055.113.087.052.01.054.002s.061.028.001-.028c.026-.03.01-.007.032.004.026.014-.011-.041.055.04.009-.018-.051-.076-.053-.08s.018.003.015-.004c-.03-.08-.004-.031-.004-.063 0-.003-.046-.061-.004-.024.077.069.089.117.14.09-.036-.07-.127-.11-.143-.126-.026-.025.008-.007.007-.012 0-.002-.023-.023-.022-.024.014-.045.096.096.136.126l-.014-.042.039.038c-.052-.07 0-.006.04-.015.01-.002-.04-.033.02-.002-.03-.037-.014-.032-.051-.055.01-.01.09.048.122.07-.084-.106-.066-.016-.13-.117-.027-.003.015.034.01.032-.019-.004-.034-.043-.092-.05-.01-.001 0 .034-.032 0l-.013-.036c.011-.006.029.018.033.016.004-.003-.021-.024-.02-.025.01-.012.023.015.024.009 0-.014-.06-.12.043-.004-.104-.08-.024 0 .016.03.01.009.019.005.034.015.02.014.036.036.046.044s-.027-.06.044.02c-.024-.053-.108-.105-.135-.153-.055-.098.079.027.095.039.004.003 0-.018.003-.016.005.003.075.08.089.08s-.027-.026-.022-.036c.003-.006.1.074.056.022-.03-.035-.112-.076-.1-.108l.151.14-.055-.104c.057.052.095.109.159.15-.1-.152.061.019.066.017a1 1 0 0 0-.03-.083c.052.035.189.164.138.06.008.02.056.04.057.038.007-.016-.074-.083-.052-.081.026.002.03.038.052.058.118.104.148.013.25.134v-.014l.351.373a1.2 1.2 0 0 1 .263.207 1 1 0 0 1 .066.09c.005.011-.043-.034-.028-.007.003.006.103.113.106.095-.01-.012-.052-.043-.056-.052-.024-.059.28.274.303.282l-.01-.03zm-1.756-.091c-.022-.002-.044-.04-.065-.055-.029-.02-.11-.023-.053-.045zm.515.545c-.02-.03.022-.034.033-.005 0 .004-.008.045-.033.005m-.244-.266.022.024c.01.027-.052-.038-.023-.024m1.242 1.22c-.028-.026-.029.013-.004.022.002 0 .005-.02.004-.023m-.019-.02c-.002-.04-.081-.044-.044-.015a.2.2 0 0 0 .044.015m-1.057-1.03c.01-.004.031.024.04.037-.006.006-.029-.027-.04-.037m.637.634a.3.3 0 0 0-.094-.09c.017.01.089.094.094.09m.232.215c-.002-.003-.033-.031-.037-.026.008.021.042.04.037.026m.443.445c.003 0 .012-.053.045.02.005.011-.031-.009-.03-.005l.011.018a.3.3 0 0 1-.055-.051c-.003-.021.028.018.03.018m.256.21c.01 0 .04.036.046.045.001.002-.018.01-.002.023.013.011.008-.02.03.005.02.026-.02.004-.019.007.002.004.044.034.035.04-.007.005-.041-.037-.052-.046-.014-.01-.009.014-.027-.008-.012-.014.012-.024.01-.028 0-.003-.056-.038-.02-.038m-.223-.171-.007-.006zm-1.704-1.72c.008.018-.037-.013-.044-.034.005-.006.043.031.044.034m1.741 1.729c.033.041 0 .02-.037-.01.014.008.026-.004.037.01M16.8 21.527q.001.004-.004.01 0-.011.004-.01m.08.092c.04.02-.02-.04-.027-.032-.003.002.026.031.027.032m.703.693c-.002-.004.07.008-.013-.03.029.036-.009.005-.01.008-.007.009.055.056.064.072.023-.005-.035-.038-.04-.05m.872.847c-.015 0-.036-.026-.051-.042.015 0 .036.025.052.042m4.925-3.564c-.101.116-.147.098-.035.011.002-.002.039-.02.035-.01m-.94.924c-.025-.004.007-.04.035-.056.006-.004.039-.008.02.016-.016-.018-.055.008-.056.04m-4.554 2.062c.02.001.047.041.063.06-.018-.003-.05-.042-.063-.06m5.12-2.646c-.012.01-.008.03-.005.03.014-.005.025-.036.005-.03m-5.225 2.538c.004-.008.053.03.042.048-.008-.01-.045-.044-.042-.049m.649.652c-.004-.01.036.02.044.034-.007.005-.042-.028-.044-.034m4.396-3.001c-.011.009-.037.034-.035.042.003.01.038-.03.035-.042m1.898-1.92c.003.002-.02.058-.042.071-.041.026.039-.07.042-.07m-1.615 1.617c.043-.021-.004.003.01.014.022-.021.077-.075.028-.05-.01.006-.028.026-.038.036m-.034.025c0 .008-.01.044.008.023.01-.01.01-.04-.008-.023m1.408-1.39c-.04.018.1-.109.105-.11l.007-.002c.001-.008.026-.034.037-.028l-.031.03h-.004a.6.6 0 0 1-.114.11m-.231.21c.017-.05.05-.029.048-.025-.025.047-.021.004-.023.004-.004 0-.02.036-.025.02m.182-.17.031-.029c.032-.013-.05.063-.031.03m-6.197 4.392c.018.022-.012.013-.022-.004 0-.001.007-.016.022.004m4.824-3.023c-.006.003-.131.114-.11.122.009-.012.151-.139.11-.122m-.887.88c.021-.02.013.016-.004.022-.006.002-.001-.017.004-.022m-4.44 1.655c-.029-.013.002-.035.012-.007 0 0-.01.008-.011.007m4.615-1.813c-.063.08-.092.018.017-.06l-.003.014c.115-.1.01-.004-.013.025-.01.011.007.01-.001.02m-.285.267c-.102.037.051-.074.085-.116-.023.05-.073.095.005.044-.092.098-.066.045-.07.048-.006.003-.016.022-.02.024m.182-.183c.003-.005.04-.029.05-.04-.005.026-.07.073-.05.04m1.783-1.767c-.006-.012-.007-.024.02-.045-.003.012-.014.03-.02.044m-7.97 1.805c-.015-.017-.044-.052-.043-.034 0 .002.039.04.044.034m6.652-.508c-.005.003-.096.092-.055.07.012-.006.093-.09.055-.07m.468-.466a.3.3 0 0 0-.035.043c.005.01.038-.032.035-.043m-7.193.883c-.001-.003-.053-.052-.052-.042.003.018.056.052.052.042m2.344 2.322c.005.004 0 .019.002.02.003.004.084.077.042.06a3 3 0 0 1-.125-.133c.007-.019.042.04.054.05.003.002.015-.007.027.003m5.813-4.17c-.004-.011.08-.107.09-.096zm-.047.045c-.025.013.018-.034.034-.044.006.005-.03.042-.034.044m-1.118 1.061c-.007.011.032-.005.028.004-.002.005-.027.02-.03.031 0 .003.032-.007.037-.013.008-.01-.01-.01 0-.019.03-.03.064-.052.093-.08.002-.003-.024.01-.002-.011.004-.004.034-.015.059-.043.03-.087.1-.102.165-.187l-.072.052a6 6 0 0 0-.244.233c-.017.017-.002.014-.01.022-.005.006-.01-.012-.024.011m-6.903.836c.003-.02-.031-.04-.048-.058-.004.017.033.038.048.058m7.608-1.501c-.008.009-.039.033-.037.038.001.008.043-.029.037-.038m-4.924 4.164.022.024c.01.028-.052-.038-.022-.024m1.195-.438c.014-.017.027-.037.041-.033-.011.009-.037.041-.041.033m.696-.697c-.015-.008.04-.049.05-.057.003.009-.039.063-.05.057m3.338-3.37c.03-.03.006-.041.033-.052.004-.001.051.026.005.045-.008.003.005-.029-.038.007m-1.606 1.642c0-.016.025-.037.041-.052.003.01-.03.04-.041.052m-6.478.006c-.002-.024-.074-.08-.066-.057.001.003.058.048.066.057M18 22.619c.035.017-.016-.04-.042-.048.008.007.04.047.042.048m2.48-.219.03-.03c.032-.013-.049.064-.03.03m-.704.688c.003-.017.075-.078.097-.085-.004.025-.1.106-.097.085m4.099-4.093.065-.055c.002.01-.059.057-.065.055m-3.294 3.302.005-.003zm2.819-2.836c-.02.015-.005.023-.004.022.017-.01.027-.04.004-.022m-7.326 1.213c.004-.016-.033-.038-.048-.057-.003.013.033.045.048.057m5.898.232c-.033.012.044-.091.07-.103a.4.4 0 0 1-.07.103m-4.038 1.616c.006-.01-.041-.038-.037-.026.002.008.033.032.037.026m4.158-1.76c.006-.01.034-.023.031-.01-.003.014-.032.013-.031.01m.752-.765c-.004.003-.046.06-.017.048.02-.009.01-.022.014-.026.003-.003.097-.07.003-.022m-1.383 1.407c.015-.022.042-.041.061-.061-.003.013-.047.06-.061.06m-3.38 1.262c0-.008-.123-.134-.062-.054.003.005.067.077.063.054m5.91-3.797-.014.011zm-.336.333c.001-.012-.035.02-.042.033.004.01.042-.031.042-.033m-2.14 2.131c.009-.014.033-.031.046-.046.003.008-.035.047-.045.046m-.8.789c.026-.02.052-.048.046-.055h.006c.003-.001.024-.028.037-.037.076-.049-.234.25-.076.055zm-1.043 1.04c-.021.005-.047.05-.034.044.008-.004.054-.049.034-.044m.486-.496c-.006.003-.035.043-.032.048.025-.015.055-.058.032-.048m-.594.584c-.009.007-.006.03-.005.03.013-.003.026-.036.005-.03m4.331-4.355a.14.14 0 0 0-.044.072l-.02.007c-.013.007-.324.31-.102.12.007-.005-.009-.004.019-.029.001-.002.009.004.014-.001.013-.012.083-.074.09-.092q.003.002.007 0c.025-.007.048-.083.036-.077m-3.67 3.701c-.009.005-.029.03-.026.037.014-.008.048-.048.027-.037m-2.125.044c-.01-.02-.054-.047-.048-.031.004.009.06.052.048.03m1.906.182c.088-.076.019-.02.024-.041zm4.29-4.286c-.016.012-.016-.02.007-.025.007-.002 0 .02-.008.025m.585-.595c-.025-.003.037-.049.026-.018zm-.418.407c0 .018-.004.025-.032.048.035-.04-.008-.014.032-.048m-3.704 3.718h.002zm-1.27 1.264c-.018.002-.046.032-.03.031.002 0 .032-.02.03-.03m4.362-4.363q.004 0 .002.005-.002 0-.002-.005m-4.213 4.202c.005.007.05-.034.052-.037.014-.035-.035.019-.052.037m-1.819-.827c-.003-.002-.004.028.011.031.012.002 0-.025-.01-.031m6.725-4.083c.014-.014.033-.033.044-.03-.01.009-.04.036-.044.03m.305-.307a.3.3 0 0 1-.07.085c-.012-.01.058-.067.07-.085m-.912.91c-.002 0-.04.032-.027.035.018.004.041-.04.027-.035m-6.059 3.556c.021.01.002-.042-.027-.046-.015-.002.024.044.027.046m.914.896c-.025-.016.018.043.033.042-.01-.01-.025-.036-.033-.042m1.287-.61c-.088.04-.01.048-.002.033a.1.1 0 0 0 .002-.034m-4.286-2.393c-.012-.006.01.04.022.036.008-.002-.014-.032-.022-.036m5.275 1.434-.008.008zm-2.432 1.352c.013.078.034.048.037.052.008.01.02.038.037.053l-.066-.045c.012.017.127.156.134.153.012-.004-.03-.041-.03-.043-.002-.003.013-.03.01-.034-.005-.008-.11-.114-.122-.136m1.312-.255c.012-.008.024-.003.027-.01 0-.002-.007-.01-.004-.017zm-1.422.203c-.004-.023.05.039.051.042.003.016-.049-.024-.052-.042m1.083.139c-.003.002-.05.043-.045.048.016-.008.077-.066.045-.048m.369-.377c.016-.015.054-.036.038-.045zm-2.021-.361c-.01-.048-.02-.01-.001.021.016 0 .002-.014 0-.021m-.079-.107c-.004-.011-.09-.09-.088-.068 0 .008.057.047.059.05s-.024 0 .004.023c.002-.005.027-.001.025-.005m.067.07c-.014-.043-.047-.022-.026 0 .009.008.028.007.026 0m.115.12a.14.14 0 0 0-.06-.054l.074.078c.008-.002-.007-.013-.014-.024m6.894-4.817c-.03.015.019-.04.023-.04.013-.001-.01.033-.023.04m-9.097 2.18c-.004-.01.002-.024-.017-.033l.02.064c.028-.006 0-.022-.003-.032m.007-.116c.003.002.018-.035.026.008.006.03-.1-.054-.105-.082.024.014.059.06.08.075m-.053-.276a.2.2 0 0 1 .042.036c.014.029-.047-.019-.042-.036m.109.12c-.012-.022.028.012.037.025-.004.006-.035-.022-.037-.026m8.43-2.05c-.035 0-.014.055.006.02.001-.003-.004-.02-.006-.02m-8.478 1.94c.011.021-.029-.013-.037-.027.004-.006.035.023.037.026m8.424-1.969c-.037.012.014.045.018.044.02-.005.046-.065.05-.077-.057.07-.051.028-.068.033m-.086.137c-.018.027.048-.022.047-.045-.01.012-.042.037-.047.045m-.15.122c-.013.01-.052.042-.051.055.012-.014.054-.043.052-.055m-.046.007c-.028.01-.006.04.008.011zm-.115.096c-.023.002-.012.041.009.022.006-.006-.007-.022-.01-.022m.321-.377c-.022.013-.026.054.013.018l-.031.048c.06-.039.03-.06.046-.073.021-.019.04.004.043.014.003-.029.072-.098.11-.14-.04.03-.107.077-.145.108-.01.009-.015.024-.024.032-.014.013-.01-.008-.012-.007m-.46.515c-.049.025 0 .027.016.002zm-7.859 1.343c.038.059-.011.038.112.117-.058-.027-.014.009-.028.007-.012-.002-.033-.03-.028-.007-.008-.03-.094-.11-.096-.115-.001-.003.028-.021.04-.002m8.093-1.651c-.043-.019.001.035-.048.033.006.069.087-.087.133-.07-.133.125.117-.054-.02-.011.09-.057.018-.03.023-.048s.055-.054.041-.063l-.074.08c.05 0-.01.044-.048.042zm.169-.122c-.003.002-.056.061-.047.063.01-.005.086-.088.047-.063m.24-.251c-.02.02-.056.046-.057.066.02-.02.056-.046.057-.066m-1.035 1.031c-.018.033.063-.043.031-.03zm.572-.595c-.035.016.007.034.019.007zM15.94 19.42c.01-.006.074.07.087.082-.014 0-.097-.075-.087-.082m8.467-2.122c-.067.013-.09.098-.097.103-.006.005-.009-.016-.01-.015l-.068.07c-.002.003.026.008.018.027.016-.035.137-.144.141-.152.003-.006-.049.012.016-.033m-.115.114c.022-.008-.02.036-.034.045-.03.018.031-.043.034-.045m-.113.1c-.006.004-.053.048-.05.06.032-.012.066-.068.05-.06m-.504.507c-.01.012-.05.039-.044.048.01-.013.049-.04.044-.048m-7.437 1.583c-.014-.026.034.017.044.033-.004.005-.043-.031-.044-.034m7.63-1.864a3 3 0 0 0-.163.175c.024-.014.166-.155.17-.164.001-.003-.006-.012-.007-.011m.305-.312c.004-.023.024-.02.026-.02.017-.015.049-.051.05-.034-.032.024-.082.1-.076.054m-.553.558c-.044.052.059-.03.037-.028zm.261-.265c.003-.019.152-.155.175-.177-.006.035-.033.04-.06.068-.007.008 0 .012 0 .013-.012.013-.01-.004-.018.004-.005.005-.1.118-.097.092m.293-.307a.7.7 0 0 1 .094-.107c.038-.016-.085.102-.094.107m-.319.307c-.002-.033.08-.092.04-.035-.003.005-.03.018-.04.035m-.246.244c-.003.002-.056.049-.052.055.01-.005.085-.077.052-.055m.008-.044s.021 0-.004.022c-.002.002-.017-.006-.043.028-.005.007-.006.024-.005.023.05-.012.107-.14.052-.073m.55-.518c-.01 0-.014-.026.004-.03.008 0 .008.016-.005.03m-.722.717c.02-.038-.074.052-.076.06a.4.4 0 0 0 .076-.06m-7.092 1.46c.022.027 0 .02 0 .02.042.064.045.034.055.04.022.013-.001.03.037.052-.062-.037-.012.003-.018.011-.024.035-.051-.079-.082-.097-.004-.003.012.032 0 .026-.037-.02-.08-.154.008-.051m7.825-2.216c.003-.02.098-.098.082-.068-.003.005-.086.098-.082.068m-4.069 4.043c.014-.028-.044.011-.047.026-.001.007.041-.014.047-.026m-.37.307c-.024.026-.019.084.007.048.003-.004 0-.047-.008-.048M21.38 20.1c-.037.015-.014.034.004.015.007-.007-.002-.016-.004-.015m-.985.99c-.003.003-.032.034-.026.038.014-.009.048-.049.026-.037m.99-1.001c-.011.019.03.008.035-.026-.009.01-.033.024-.034.026m2.369-2.363c-.005.022-.044.056-.063.078-.013-.009.05-.06.063-.078m-3.9 3.893c-.016.032.041-.012.026-.018zm2.357-2.358c-.01.023.053-.022.027-.019zm.24-.233c-.014.01-.069.066-.04.051.003-.002.046-.044.04-.051m-6.035.603c.004-.018.042.025.046.033.001.003-.052-.009-.046-.033m4.794.635c-.012.015-.049.047-.05.06.016-.018.067-.052.05-.06m-1.25 1.246c-.032.008-.066.044-.04.052.037-.04-.02-.01.04-.052m1.499-1.523c-.012.01-.005.034-.003.033.019-.005.02-.037.003-.033m-.794.819c-.007-.006-.039.031-.03.031.003 0 .036-.026.03-.031m2.634-2.634c-.022.01.02-.045.042-.052.017.003-.04.05-.042.052m-1.539 1.521c-.008-.011-.056.048-.027.035.008-.003.03-.031.027-.035m.504-.527c-.025.048.135-.095.08-.07a1 1 0 0 0-.08.07m.255-.24c-.008.005-.038-.032 0-.044.006-.002-.001.022.003.022l.066-.056c.002-.003-.012-.01-.01-.015.001-.004.045-.03.063-.047.034-.034.03-.047.032-.05.008-.008.028-.015.044-.032.084-.083.203-.217.288-.265-.066.052-.114.115-.17.176-.002-.035-.072.1-.033.019a5 5 0 0 1-.283.292M19.63 21.8c.004-.026-.072.055-.065.074a1 1 0 0 0 .065-.073m.333-.388c.005-.009-.01-.038.04-.065.014-.008.006.01.01.01.002 0 .048-.023.02.007-.04.047-.02-.012-.044.011a.3.3 0 0 0-.03.06s.012-.016.015-.018c.012-.004.015.007.017.006.004-.003.063-.085.083-.085.007 0-.1.123-.107.126-.004.002-.022-.019-.026-.018-.003.001-.042.054-.05.059l-.005.002c.012 0-.03.04-.035.033-.002-.004.028-.031.03-.032h.002c-.014-.001.084-.099.053-.088.022-.035.011.02.027-.008m.124-.148-.002.015c.044-.054.111-.102.168-.16.015-.014-.014-.01.008-.025.018-.013.046-.018.04-.007 0 .003-.04.026-.054.042-.044.048-.021.047-.024.05s-.039.025-.054.041c-.039.04-.05.065-.113.11.024-.037-.008-.035.031-.066m1.872-1.826c-.005-.009.033-.035.044-.048.005.008-.033.035-.044.048m-4.029 1.606c-.02 0 .052.078.041.05a.4.4 0 0 0-.04-.05m.33.342c.013.007-.02-.04-.028-.032-.003.002.026.031.028.032m2.48-.752.032-.028c.03-.006-.067.077-.033.028m-2.059 1.147c-.042-.028.06.08.037.039zm.148.144c-.009-.008-.042-.049-.046-.046-.006.005.032.05.046.046m2.597-1.984c-.017-.009.041-.048.057-.067.016.009-.042.048-.057.067m-.318.3c.196-.217.177-.145-.007.018-.008-.008-.006-.005.007-.019m.265-.263c0 .015-.025.036-.042.051-.002-.008.032-.038.042-.051m-3.515.96c.023.003.068.073.054.066-.003-.001-.064-.065-.054-.066m2.888-.332c-.017-.007.05-.064.057-.066.03-.009-.055.058-.057.066m.962-.969c.001-.02.037-.046.057-.066 0 .017-.04.05-.057.066m-.152.137.031-.03c.032-.013-.049.064-.03.03m-5.149-.32.022.024c.01.028-.051-.037-.022-.024"/></svg>