<svg xmlns="http://www.w3.org/2000/svg" width="40" height="40" fill="none" viewBox="0 0 40 40"><path fill="#231f20" d="m31.989 15.745-.397-.433a2221 2221 0 0 0-9.88 9.059l.036-.032a2168 2168 0 0 0-6.099 4.705l.879.1q-2.595-3.31-5.2-6.611l-.087 1.008c2.792-2.436 5.546-4.917 8.197-7.538q1.96-1.949 3.918-3.904a242 242 0 0 0 4.013-4.106l-1.02-.03a243 243 0 0 0 6.723 6.93l.43-.397a248 248 0 0 0-6.104-7.501l-.518-.557-.502.526a242 242 0 0 0-4.108 4.008 2253 2253 0 0 0-3.907 3.913c-2.595 2.592-5.321 5.1-8.052 7.557l-.526.47.44.538a2171 2171 0 0 0 5.323 6.51l.401.488.478-.387q2.99-2.429 5.974-4.868l.036-.031a2152 2152 0 0 0 9.552-9.417"/><path fill="#231f20" d="m17.315 24.603.199.216a32 32 0 0 0 3.02-2.55 287 287 0 0 0 8.4-8.37l-.2-.216-.592.523a287 287 0 0 0-8.138 7.487 32 32 0 0 0-2.689 2.91M11.257 23.495l-1.444-.575-.298.845-1.352 3.828-.016.047-1.341 4.965-.309.956.959-.325 6.357-2.52.821-.325-.195-.558-.838.28-6.484 2.16.65.63 1.606-4.882-.016.047 1.556-3.746z"/></svg>