<svg xmlns="http://www.w3.org/2000/svg" width="40" height="40" fill="none" viewBox="0 0 40 40"><g transform="translate(-1.787, -0.783) scale(1.7)"><path stroke="#3784ff" stroke-linecap="round" stroke-linejoin="round" stroke-width="1.5" d="M16.816 13.125v4.2c0 3.5-1.4 4.9-4.9 4.9h-4.2c-3.5 0-4.9-1.4-4.9-4.9v-4.2c0-3.5 1.4-4.9 4.9-4.9h4.2c3.5 0 4.9 1.4 4.9 4.9"/><path stroke="#3784ff" stroke-linecap="round" stroke-linejoin="round" stroke-width="1.5" d="M22.816 7.125v4.2c0 3.5-1.4 4.9-4.9 4.9h-1.1v-3.1c0-3.5-1.4-4.9-4.9-4.9h-3.1v-1.1c0-3.5 1.4-4.9 4.9-4.9h4.2c3.5 0 4.9 1.4 4.9 4.9" opacity=".4"/></g></svg>