<svg xmlns="http://www.w3.org/2000/svg" width="40" height="40" fill="none" viewBox="0 0 40 40"><path fill="#231f20" d="M8.69 15.742c.226-.296.743-.785 1.028-1.054l.016-.015.203-.198c.175-.173.411-.406.923-.873l.426-.43a295 295 0 0 1 4.68-4.554l.058-.06c.383-.389.857-.872 1.17-1.16.398-.366.673-.611.899-.812l.924-.885a5.03 5.03 0 0 1 5.525-.97 5 5 0 0 1 1.335.875 5.4 5.4 0 0 1 .62.631c.248.3.433.598.56.856.315.621.46 1.413.455 1.993q0 .143-.006.268a5 5 0 0 1-.205 1.367l-.041.085c-.18.353-.354.807-.809 1.412q-.178.235-.428.489l-.338.333a3 3 0 0 1-.398.34l-.078.058a1.5 1.5 0 0 0-.24.265c-.108.14-.238.307-.451.486-.679.572-.918.884-1.099 1.12-.053.069-.101.132-.154.192-.17.197-.446.447-.662.627-.17.143-.471.471-.692.727a8 8 0 0 1-.348.363c-.148.148-.32.32-.496.512-.446.483-.683.74-.875.945l-.155.168c-.16.173-.362.385-.566.6-.243.256-.49.516-.676.718q-.765.737-1.533 1.47a4 4 0 0 1-.778.594c-.236.128-.408.16-.481.087s-.04-.245.087-.48c.128-.236.342-.516.593-.779q.76-.796 1.523-1.587a152 152 0 0 1 1.874-1.912q.663-.662 1.33-1.32l.137-.135c.353-.389.707-.776.962-1.042.21-.22.377-.368.52-.494a5 5 0 0 0 .443-.429 34 34 0 0 1 1.274-1.268c.213-.198.468-.422.71-.636l.048-.042c.304-.262.538-.554.631-.72.175-.305.354-.667.467-1.006.11-.323.162-.62.162-.79 0-.204.017-.375.02-.632 0-.179-.007-.4-.064-.693a6 6 0 0 0-.205-.772 2.4 2.4 0 0 0-.394-.746 7 7 0 0 0-.56-.623l-.15-.146a3 3 0 0 0-.352-.29 6 6 0 0 0-.546-.346c-.148-.085-.27-.16-.38-.223l-.1-.055a4 4 0 0 0-.395-.121l-.07-.007q-.184-.015-.459-.033c-.29-.02-.545-.038-.816-.035a3.1 3.1 0 0 0-1.208.25c-.266.108-.512.245-.684.337-.065.035-.125.057-.185.08v.001l-.013.005a4.3 4.3 0 0 0-.684.58l-.401.418-.088.101c-.143.165-.283.325-.365.438-.09.122-.346.397-.617.687a41 41 0 0 0-.506.55c-.085.096-.18.173-.278.252-.091.074-.185.15-.275.244a4 4 0 0 0-.14.159q-.066.076-.14.158c-.046.05-.159.154-.303.285l-.297.273q-.395.413-.791.823a1 1 0 0 0-.112.176q-.026.055-.042.108a1 1 0 0 1-.069.16.4.4 0 0 1-.099.118.2.2 0 0 1-.042.025.1.1 0 0 0-.04.025q-.011.012-.022.034a.3.3 0 0 1-.062.087 24 24 0 0 1-.419.412c-.16.156-.317.308-.439.433-.136.14-.342.327-.55.515-.144.13-.29.26-.41.376a7 7 0 0 0-.345.361 5 5 0 0 1-.386.394q-.037.03-.114.061a2 2 0 0 0-.12.057l-.439.437-.011.02a1.7 1.7 0 0 1-.46.569c-.065.05-.116.074-.16.095a.5.5 0 0 0-.13.08c-.051.046-.101.11-.155.18a1.6 1.6 0 0 1-.272.296l-.024.019c-.08.063-.197.156-.326.236q-.477.457-.955.91l-1.6 1.509c-.26.244-.536.452-.768.577s-.401.155-.473.084c-.07-.071-.04-.24.085-.472a3.9 3.9 0 0 1 .577-.767q.597-.636 1.196-1.27l.06-.07c.15-.17.28-.339.408-.508z"/><path fill="#231f20" d="M18.74 18.684c.25-.318.81-.85 1.118-1.143l.017-.016.22-.215c.19-.187.446-.44 1-.95l.462-.465a300 300 0 0 1 3.867-3.787c.445-.431.968-.78 1.535-1.022l.092-.04c.599-.273 1.413-.419 1.923-.397a4.7 4.7 0 0 1 1.416.246 5 5 0 0 1 2.227 1.384 5 5 0 0 1 1.202 4.917 5 5 0 0 1-.775 1.548 5 5 0 0 1-.44.544l-.163.177c-.265.288-.5.544-.7.75-.482.498-1.05 1.04-1.47 1.443l-.195.185-.967.997-.075.058c-.317.241-.66.585-1.2 1.126-.235.236-.508.51-.832.828-.209.205-.33.296-.43.37l-.083.065a1.7 1.7 0 0 0-.261.287c-.12.15-.262.33-.491.525-.732.625-.995.96-1.194 1.214a5 5 0 0 1-.168.207 8 8 0 0 1-.717.682c-.184.156-.511.51-.752.787a9 9 0 0 1-.378.393c-.162.161-.348.348-.54.555l-.951 1.023-.127.136-.03.034c-.119.14-.225.345-.252.57-.038.268.046.542.162.705q.063.113.155.209.668.692 1.334 1.387c.273.285.508.586.651.837.144.25.184.432.112.505-.073.072-.254.032-.505-.112a4.6 4.6 0 0 1-.837-.651l-1.387-1.335a2 2 0 0 1-.353-.464 1.965 1.965 0 0 1 .33-2.304l.678-.681a309 309 0 0 1 1.59-1.58c.385-.42.77-.838 1.048-1.127.229-.238.409-.4.563-.537a6 6 0 0 0 .48-.466c.319-.33.86-.89 1.381-1.376.231-.216.506-.46.768-.693.375-.333.725-.643.885-.816.282-.303.627-.63.931-.919.29-.275.545-.516.673-.669.154-.182.303-.32.525-.524.154-.142.343-.316.592-.56.289-.28.5-.472.68-.635.253-.228.444-.4.697-.688q.174-.197.352-.39c.158-.17.297-.342.415-.493.09-.117.184-.26.27-.413.116-.202.218-.426.304-.633.071-.17.133-.312.183-.44q.024-.06.043-.117a4 4 0 0 0 .072-.443l-.003-.076q-.01-.2-.034-.497a8 8 0 0 0-.103-.88 3.2 3.2 0 0 0-.504-1.238c-.17-.261-.37-.493-.507-.655q-.073-.09-.128-.175l-.002-.002-.009-.013-.056-.054a4.2 4.2 0 0 0-1.225-.826l-.127-.046a3 3 0 0 0-.551-.14c-.148-.02-.514-.094-.904-.099a3.7 3.7 0 0 0-.728.056c-.123.022-.241.029-.363.041a1.6 1.6 0 0 0-.354.069q-.092.031-.194.077l-.186.087c-.06.03-.2.08-.373.164a4 4 0 0 0-.346.19q-.335.233-.618.53l-.235.243a1.3 1.3 0 0 0-.124.188q-.029.058-.05.114c-.02.052-.04.105-.077.17a.5.5 0 0 1-.109.128.3.3 0 0 1-.045.027q-.023.01-.042.027-.013.015-.025.037a.4.4 0 0 1-.068.093c-.138.14-.297.295-.454.448-.174.169-.344.335-.476.47-.148.152-.371.356-.595.56a26 26 0 0 0-.444.41 8 8 0 0 0-.375.39 6 6 0 0 1-.419.427c-.027.024-.069.044-.122.07q-.057.025-.127.064l-.476.473-.013.022a1.9 1.9 0 0 1-.503.612 1 1 0 0 1-.172.107c-.047.023-.09.044-.138.088-.055.05-.11.12-.17.195a2 2 0 0 1-.295.32l-.026.02c-.086.07-.212.172-.35.26q-.517.497-1.035.99-.864.822-1.732 1.64a4.6 4.6 0 0 1-.825.635c-.247.14-.424.18-.496.108-.071-.072-.032-.25.108-.497s.369-.542.634-.824l1.301-1.375.066-.074c.164-.184.305-.366.447-.547z"/><path fill="#231f20" d="M20.458 12.15c-.199.266-.661.701-.916.94l-.014.013a24 24 0 0 1-1.007.952l-.38.383a234 234 0 0 1-4.177 4.052l-.053.054c-.197.201-.422.431-.631.639a7 7 0 0 0-.347.375 4.5 4.5 0 0 0-.555.797c-.624 1.256-.55 2.861.235 4.064a4.15 4.15 0 0 0 1.963 1.618c.227.08.45.135.657.17.292.05.554.064.77.068a5 5 0 0 0 1.528-.197 4 4 0 0 0 .192-.064q.488-.202.906-.517l.064-.031c.158-.079.32-.195.501-.369.14-.134.297-.292.483-.478.193-.194.417-.418.683-.68.172-.168.275-.24.358-.3l.07-.05c.078-.06.14-.141.213-.238a2.3 2.3 0 0 1 .4-.435c.612-.504.82-.786.98-1q.067-.092.134-.173c.151-.177.398-.398.592-.556.154-.126.42-.42.615-.65a6 6 0 0 1 .31-.325c.132-.132.285-.285.441-.457.395-.433.606-.662.776-.847l.138-.15c.142-.155.32-.344.502-.536.216-.229.436-.462.6-.642q.683-.656 1.37-1.308a3.1 3.1 0 0 1 .704-.52c.216-.107.377-.128.45-.055s.052.234-.056.45a3.1 3.1 0 0 1-.52.703q-.674.711-1.353 1.418-.825.862-1.668 1.707-.591.59-1.186 1.176l-.123.12c-.312.349-.626.695-.853.933a6 6 0 0 1-.465.44 4 4 0 0 0-.239.219l-.156.162c-.261.272-.705.734-1.136 1.13-.191.176-.42.373-.637.562-.312.27-.603.522-.734.665a7 7 0 0 1-.2.209 4 4 0 0 1-.656.534c-.295.196-.573.33-.724.42a2.3 2.3 0 0 1-.61.242c-.178.048-.4.1-.702.147a3.8 3.8 0 0 1-.814.036c-.298-.019-.518-.048-.85-.08a3.5 3.5 0 0 1-1.032-.264 7 7 0 0 1-.421-.2 3.6 3.6 0 0 1-.56-.356 2.3 2.3 0 0 1-.319-.31l-.075-.088a5 5 0 0 1-.293-.288l-.055-.044a2.5 2.5 0 0 1-.333-.323 3 3 0 0 1-.436-.712 8 8 0 0 1-.425-1.187 3.5 3.5 0 0 1-.119-.775 1 1 0 0 1 .022-.205l.002-.013a5 5 0 0 1 .174-1.453l.03-.125c.05-.203.114-.397.15-.528.038-.14.188-.477.4-.803.136-.214.296-.423.434-.589q.058-.068.123-.126.067-.056.136-.11c.082-.065.167-.131.247-.216q.06-.063.125-.143l.123-.142c.04-.045.142-.136.271-.253.08-.072.171-.154.265-.241l.704-.736a1 1 0 0 0 .096-.16 1 1 0 0 0 .035-.1 1 1 0 0 1 .056-.147.3.3 0 0 1 .087-.107q.021-.015.038-.02.02-.009.037-.022.01-.012.018-.032a.3.3 0 0 1 .054-.078c.113-.115.245-.243.374-.367.144-.139.284-.275.392-.387.12-.125.306-.29.492-.456.13-.115.26-.23.368-.333.106-.1.208-.214.306-.323.119-.132.232-.258.343-.352q.036-.026.106-.051.049-.019.11-.048l.391-.389.01-.018c.071-.143.17-.337.403-.513.06-.045.106-.064.148-.082a.4.4 0 0 0 .118-.068c.045-.04.089-.1.136-.163a1.3 1.3 0 0 1 .241-.264l.022-.017c.071-.055.177-.137.295-.205l.854-.809q.715-.672 1.432-1.34a3.1 3.1 0 0 1 .694-.504c.213-.105.371-.125.442-.054s.052.23-.054.442a3.1 3.1 0 0 1-.504.694q-.53.57-1.062 1.137l-.053.062a7 7 0 0 0-.358.458z"/></svg>