<svg xmlns="http://www.w3.org/2000/svg" width="40" height="40" fill="none" viewBox="0 0 40 40"><g transform="translate(-3.647, -3.54) scale(1.1841)"><path fill="#231f20" d="M21.852 32.49c.01-.016.055-.074.074-.1-.008.039-.108.158-.074.1m1.889-3.005-.084.04.186-.056q.05-.015.093-.024c.014-.003-.018.018.014.01s.021-.022.067-.035c.052-.017.29-.053.371-.063a6 6 0 0 1 .876-.077c-.291.024.004.024.084.017.017-.002.016-.034.302-.031.182.003.015.048.316.023-.231-.028-.003-.028.177-.03.031 0 .282.004.391.003.04 0 .095-.017.146-.017h.019c.026.003.051.008.092.008q.355-.004.71 0c-.139.041.11.018.121.02.057.01-.2.014-.098.021l.425-.004c-.116-.005.155-.034.204-.021-.021-.036.647.032.75.02.02-.003-.118-.021.204-.013.035.001.021.012.04.011.01 0 .077-.035.147-.016.026.007-.139.03.224.02-.145-.035.502-.019.621-.01l-.071-.014c.117.013.139 0 .165.001.107.003.254.015.353.014.117-.001.117-.023.253-.015l-.097-.014.11.001.17.002c-.215.03.048.002.065 0 .027 0-.012.012.033.01.005 0-.002-.011.068-.013.146-.003.123.01.184.01.005 0-.014-.01.089-.014.318-.017 0 .008-.014.01-.017.001.1.043-.184.03.095.005.105.023.115.023.01.001.172-.005.18-.007.076-.009.008-.019.023-.022.014-.001.198.005.231-.038.082.027-.038.04-.189.05-.02.01.142.008.148.006.193-.018.082-.037.12-.06.02-.012.089-.003.023-.02.142-.027.058.003.068.004.015 0 .056-.017.06-.018.008 0-.015.015.015.01.005 0 .044-.028-.015-.019.076-.02.058-.031.09-.015l.004-.012c.028-.049.049.019.071.01.062-.029.023-.053.025-.056.016-.02.16-.122.18-.163.013.033-.097.1-.116.12-.062.073.11-.074.082-.004a1 1 0 0 0 .04-.082c.051-.025.015.042.094-.08-.002-.03-.058.084-.055.054.003-.017.048-.084.044-.088-.003-.005-.04.059-.04.044 0-.016.041-.076.064-.113.013-.019.023-.027.011.006l-.018.04a.2.2 0 0 1 .028-.035c.019-.015.042-.025.044-.056 0-.031-.092.11-.02-.125.019.001-.02.105-.02.102.002.005.046 0 .05-.002.015.012.04-.331.058-.433-.023.037.005-.321-.004-.365-.002-.011-.017.03-.018.018-.009-.072.018-.268.018-.361V27.6c0-.102-.012-.089-.012-.095.001-.045.01-.009.01-.037v-.344c0-.005-.015.042-.018-.02 0-.011.017-.005.01-.19-.01-.225-.022.155-.04.062.026-.144 0-.14.002-.179 0-.013.022-.114.021-.223l.01.235c.004-.077 0-.227.004-.29.002-.032.02-.006.02-.073-.001-.015-.044-.071-.025.105-.015.014-.005-.07-.01-.109 0-.006-.026-.029-.01-.079.004-.012.079.119.025-.217-.002-.01-.011.027-.013.016-.002-.007.002-.093 0-.102 0-.01-.01.032-.013.02-.01-.059.03-.136.027-.015l.015-.122c-.03.044-.008-.064-.01-.12-.005-.361-.025-.12-.035-.181-.017-.1.035-.024.02-.172-.002-.014-.024.165-.011-.185l.002.155c.03-.03-.002-.186-.002-.198-.004-.137.006-.045-.009-.249-.001-.018.006-.057.002-.096-.015-.162-.009.213-.02.223a7 7 0 0 1-.002-.412c.012-.059.005.183.02.137.006-.017-.005-.591 0-.706.008-.133.048-.193.003-.194.044-.037.014-.07.014-.087.004-.206.005-.206 0-.383 0-.039.013-.071.01-.085 0-.008-.015.007-.02-.032a4 4 0 0 1 .017-.407c.008-.024.003.139.016.11.002-.118-.002-.231 0-.35 0-.05.01-.024.01-.045 0-.01-.008-.18-.011-.172-.008.017-.003.542-.019.404-.003-.027.018-.121-.008-.106l.018-1.408c.019.27.002.573.004.856 0 .038-.003.17.01.153.004-.24-.003-.538.005-.769 0-.007.012.02.014-.008.004-.051-.015-.22-.01-.248 0-.005.016.091.026.062.025-.075-.03-.094-.03-.158 0-.05.027-.383.01-.467-.018-.088-.01.246-.025.222-.014-.227.001-.456 0-.67 0-.003-.012.03-.014-.018-.003-.083.014-.105.016-.145.003-.044 0-.198.007-.219 0-.002.017.029.017.034.007.067-.014.09-.014.097-.001.023.007.045.006.066 0 .035-.008.054-.008.1-.001.03.013 0 .013.03 0 .012-.033.131 0 .143.01.003.024-.977.016-1.074l-.012.252c.01-.171-.017-.376.022-.39l.01-1.898c.003-.113.029-.05.021-.236l-.024.144c.006-.096.017-.518.012-.586-.001-.009-.024-.021-.026-.126-.002-.094.015-.109.019-.159.002-.042-.002-.09-.001-.102 0-.01.011-.013.013-.036.006-.073-.024-.014.01-.086l.004.053c.005-.088.02-.208.028-.079.001.023-.009.004-.009.02.002.649.022.13.006-.096.015-.059.006-.386.009-.397.004-.015.016.041.027-.032.002-.016-.007-.453.013-.296.005.033 0 .243 0 .293.028-.1-.001-.317-.01-.4l-.002-.03c.002-.058.009-.01.015.03.006.037.011.067.015 0l.002-.07c.002-.22-.019-.014-.028-.098-.005-.048.017-.292-.014-.284-.004-.083.013-.035.014-.045 0-.01-.012-.17-.008-.221 0-.006.017.012.018.006.003-.014-.01-.16-.012-.166-.001-.003-.012.032-.017.018-.004-.017-.015-.15-.02-.154-.007-.01.014.15-.004.126a.6.6 0 0 0-.052-.226c.006.008.019.07.02.094-.022-.01-.049-.136-.022-.097-.016-.024-.017-.005-.029-.018-.003-.003-.013-.037-.019-.041 0-.001.001.035-.006.03-.01-.014-.04-.097-.043-.102-.003-.02.034.039.044.043.003 0-.006-.066-.006-.067.015-.012.034.06.045.047l-.014-.055c.05.05.079.219.102.27-.025-.157-.072-.259-.035-.277.016-.008.046.039.05.036.012-.015-.035-.078-.036-.08v-.004c.01-.006.06.093.065.1.01.007.022-.053.028-.056.003 0 .038.083.04.05a.4.4 0 0 0-.028-.109c.002-.018.06.11.063.115.003.001-.01-.077-.007-.08s.031.05.05.07c.013.015.004-.038.008-.03.005.005.04.15.041.159.004.01.008-.027.012-.022.005.006.01.056.013.05.005-.006-.002-.203.004-.205.019-.004.033.212.048.003l-.02-.048c.001-.033.074.111.002-.07.136.339.043.034.086.076.02.017.057.16.058.16.01-.017-.01-.06-.007-.078.003-.01.044.118.047.087a1 1 0 0 0-.034-.162c-.008-.059.022.007.024-.007a1 1 0 0 0-.027-.098c.001-.005.057.107.068.131.01.018-.003-.055.003-.042.037.078.037.254.047.08 0-.01-.017-.073-.017-.075 0-.043.034.074.047.093.026.033-.023-.136.021.003a.8.8 0 0 0-.087-.297c.14.348.196.472.085.067.044.13.06.108.072.147.009.026.016.212.057.118.006-.01-.027-.124-.005-.091.049.273.012.005.012.003.056.013.081.636.077.723.007.114.034.212.034.237 0 .08-.013.013-.018.031s.021.243.02.254c-.006.043-.022 0-.023.004l-.003.045c-.003.102.005.322.002.392.01-.003.011-.171.028-.066.02.122-.026.13-.028.133l.001 1.682c.024-.007.006-.374.01-.382.018-.049.018.57.01.646l.015-.173c.028.099-.008.317.004.46.004.046.015-.043.015-.041.011.052.003.135-.012.073.014.126-.001.108-.002.205 0 .005.01-.037.016.04.002.036.002.227.012.253.004.01.047-.087.01-.099.018-.208-.017-.066-.016-.147 0-.013.02.016.01-.188.039.039.01.274.015.314.01.083.029-.26 0-.322.029.03.003-.024.005-.1.001-.084.01-.048.01-.093 0-.123-.02-.072-.002-.174-.058.1-.008-.175.008-.254l.008.389.01-.022-.002.102-.008-.016c.019.176-.003.22-.003.233-.003.186-.002.4-.002.586 0 .028.018.01.004.214-.005.065-.02.003-.018.077.04.093.008.091.008.119 0 .078.01.127.01.134.002.098 0 .24.002.348 0 .002.012-.054.009.015-.002.025-.054.244-.037.436l.01-.15c-.005.059.009.47.023.369.009-.062-.025-.212.007-.228-.01.136.005.891-.003.95 0 .008-.011-.042-.013-.03 0 .008.002.18-.002.204-.003.013-.009-.063-.013-.057-.003.006-.007.221.006.234-.005-.053 0-.202.01-.124.002.01-.007.062-.005.074.017.114.013-.225.013-.277.017.212-.003.541.008.788-.011.1-.017-.148-.026-.035-.02.233.015.062.016.07.012.057-.048.255-.003.255-.007.085-.012.057-.006.177l.01-.047a1 1 0 0 1-.046.393c-.014-.057.008-.203.007-.216 0-.018-.047-.07-.006-.272-.03-.083-.02.32-.042.137.004.124-.018.635-.004.708.002.009.032-.032.017.094-.008.06-.008-.084-.015-.057-.022.084-.008 1.23-.007 1.449 0 .014-.01.009-.01.023.001.042.015.198.01.274.019-.158.02.15.018.227-.003.119-.02.112-.023.163-.014.197.026.503-.012.657.038-.008-.018.265-.018.39 0 .098.024.24.04.107-.002.169.004.346.007.504 0 .026-.011-.01-.01.035 0 .004.011.01.012.048.01.316-.013.162-.02.221l-.006.076-.007-.454c-.024.049.005.408-.002.514 0 .003-.013-.01-.013-.006-.001.04.004.291.02.24.003-.014.003-.13.002-.267.003.037.017.01.018.016.007.08-.007.274-.009.343 0 .016.01.015.01.017-.003.051-.02.044-.013.074l.01.028c-.013.047-.016.02-.017-.028 0-.068.004-.176-.009-.162a1 1 0 0 0-.008.162c-.001.218.005.588.023.59q-.005.002-.011.034a3 3 0 0 0-.016.304c0 .007.026.006.026.014 0 .019-.05.304-.073.432q.03-.096.05-.187c-.077.38-.08.336-.027.2l.007-.019c.032-.102.055-.224.057-.225a1.3 1.3 0 0 1-.062.31c-.047.158-.133.296-.108.224.016-.02.137-.338.067-.184-.008.02-.058.151-.091.211l-.016.028c-.012.015-.006-.002.006-.033.047-.1.106-.333.08-.296a.9.9 0 0 1-.102.284l-.039.072c-.026.048-.023.066-.027.072-.053.087-.033.032-.052.06-.007.016-.112.19-.119.135-.456.471-.075.18.156-.16-.056.118-.233.303-.319.377-.03.027-.003.022-.055.068a1.7 1.7 0 0 1-.357.223c-.236.112-.48.14-.564.15.097-.02.066-.029-.009-.017-.074.01-.01.021-.023.025-.02.009-.351.024-.4.025.24-.018.184-.029-.018-.022l.087-.016c-.12.012-.36-.006-.424 0-.01.001.026.013.02.014-.058.006-.25-.006-.259-.002-.007.003.074.013.044.018-.006.001-.085-.015-.163-.011-.028.001-.011.013-.018.013l-.028.001c-.024-.002-.02-.014-.107-.011-.081.002-.141.02-.253.015.366.024.059.014-.095.02-.024.002-.003.023-.15.013.312-.038-.088-.02-.17-.02-.005 0-.007-.014-.047-.015-.003 0 .002.01-.036.01-.354.007-.128-.003-.195-.013-.029-.003-.2.01-.247.01-.011 0-.006-.01-.047-.01-.073.002-.139.012-.187.012-.006 0-.006-.015-.098-.01-.025.002-.054.007-.018.011.121.015.351-.01.488.004.125.013-.269.014-.29.015-.007 0 .07-.008-.008-.01-.067 0-.189.025-.288.02l-.083-.024c.003-.001.125-.006.107-.012-.002 0-.08 0-.09-.006-.012-.005-.045-.062-.062-.064-.042-.003-.014.01-.042.009-.059-.002-.263-.019-.27 0l.101.004c-.187.002-.107.01-.134.014-.029.005-.02-.013-.084-.014a3 3 0 0 0-.274.01c.147-.011.092.01.1.01.025.002.058-.01.092-.01.242.002-.002.02.055.026.02.001.06-.009.067-.008.028.001.028.015.046.014.042-.003-.007-.022-.004-.023.038-.012.186.003.094.024.055.007.062-.018.105-.008.088.02-.043.015-.078.018-.127.012-.165.002-.344.006-.065 0-.142.013-.172.014-.019 0-.197-.042-.202.024-.07-.006-.179-.05-.25-.048-.064.002-.044.025-.05.026-.009.002-.087 0-.113.003-.03.004-.015.013-.064.017-.122.009-.118-.015-.13-.017-.146-.018-.082.016-.114.019-.03.003-.45-.01-.538-.002l.108-.014c-.065-.015-.133.009-.134-.018-.005.015-.024.022-.048.023-.047.004-.112-.008-.138-.007-.016 0-.014.008-.034.008-.076.001-.25-.005-.29 0-.18.016.279.042.315.044-.072-.001-.48.01-.293.03.028.003.08-.016.096-.017.11-.005.024.012.033.014.014.003.087-.014.106-.012.007 0-.035.016.072.016-.053.015-.35.003-.388.007-.014.002.072.034-.18.003l.01.01q-.21.002-.418.007c.015-.007.092-.022-.006-.018-.056.003-.014.018-.02.019-.056-.001-.92.034-1.054.076a2 2 0 0 0-.196.053l-.138.035a3 3 0 0 0-.19.057c-.027.01.003.014-.022.022-.023.008-.003-.013-.01-.01-.061.01-.471.207-.568.255a6 6 0 0 0 .338-.198.4.4 0 0 0-.093.034c-.03.002-.101.072-.15.09-.005.002.007-.026-.076.014-.029.014-.094.067-.174.096-.054.037-.244.151-.396.27-.12.091-.216.187-.223.207 0 .001.066-.053.03-.007-.048.062-.023-.014-.09.05a3 3 0 0 0-.188.216c-.037.074.121-.097.12-.091a3 3 0 0 1-.13.163c-.006.005.076-.136-.04.02l.05-.046c-.052.074-.073.07-.087.086-.047.052-.071.13-.168.199-.026.018-.004-.028-.007-.026-.032.021-.034.08-.086.108-.004.003.06-.11-.074.071l.034-.033a5 5 0 0 1-.167.242c-.056.073-.024-.003-.075.074.053-.035-.106.196-.113.171-.002.047-.155.232-.22.325-.036.05-.096.151-.121.19l-.009.013c-.017.022-.027.005-.058.044-.01.01-.084.14-.173.238-.018.019-.072.045-.052.002.036-.073.143-.185.127-.193-.017-.01-.125.166-.158.21-.155.203-.088.07-.096.073-.022.005-.101.12-.106.124-.018.017.029-.071.022-.078s-.102.09-.088.063c.02-.039.105-.13.109-.137.049-.09-.053.01-.086.033-.01.007.01-.035.004-.027-.099.11.014.047-.045.126-.053.07-.003-.033-.006-.031s-.064.089-.078.099c-.008.004.12-.24.1-.239l-.14.22c-.02-.006.063-.1.069-.112.011-.023-.039.03-.042.024-.003-.003.034-.082-.015-.022-.017.02-.037.074-.103.145.176-.286.034-.101.022-.097-.011.004.066-.137-.042.024-.037-.015-.008-.01.018-.06.032-.06-.068.06.081-.137-.023.001-.135.165-.143.173-.006.007.012-.035 0-.023-.135.132-.049.036-.098.068-.005.003-.112.143-.038.03.134-.203.214-.273.192-.338-.123.135-.219.335-.25.38-.047.07-.006-.008-.015-.001-.003.002-.043.062-.045.062-.064.019.184-.265.245-.366l-.07.067.073-.106c-.127.16-.008.003-.008-.058 0-.014-.065.104.005-.034-.069.09-.054.056-.104.145-.01-.01.108-.207.154-.286-.195.255-.05.133-.23.346-.015.051.058-.059.054-.049-.014.038-.079.103-.112.213-.005.018.053-.033-.012.058l-.06.058c-.005-.015.039-.07.037-.075s-.045.061-.046.06c-.014-.006.032-.057.023-.051-.02.011-.208.225.01-.072-.161.26-.01.041.053-.06.016-.026.013-.038.035-.075.029-.048.07-.099.085-.123.016-.027-.102.105.048-.1-.09.094-.203.295-.288.391-.17.194.072-.167.096-.206.006-.01-.027.015-.023.008.007-.011.152-.211.158-.237s-.051.075-.064.075c-.009 0 .151-.252.055-.122-.066.09-.16.275-.205.285l.274-.407-.182.2c.102-.152.204-.275.29-.428-.27.323.053-.129.053-.136-.001-.004-.12.115-.14.133.034-.058.104-.166.154-.249.059-.098.087-.157-.01-.054a.6.6 0 0 0 .08-.14c-.015.003-.087.11-.124.157q-.023.032-.02.016l.01-.023c.021-.04.066-.076.1-.127.204-.312.075-.277.303-.578l-.02.013c.242-.332.488-.671.791-1.006a2.8 2.8 0 0 1 .644-.642c.038-.03.238-.15.255-.156.03-.014-.118.086-.047.049.014-.012.352-.21.322-.206-.04.02-.154.096-.175.106-.16.039.93-.494.997-.489l-.08.014q.108-.036.219-.067m-1.767 2.764c-.01.04-.078.114-.109.164-.043.07-.076.216-.088.134zm1.097-1.123c-.063.034-.036-.024.02-.046.006-.002.065.001-.02.046m-.558.459.046-.047c.047-.032-.08.1-.046.047m3.35-1.167c-.089.002-.025.03.03.018.004 0-.025-.018-.03-.018m-.063 0c-.07-.025-.207.029-.097.022.01 0 .1-.021.097-.022m-2.94.847c0-.013.061-.054.088-.07.005.007-.064.05-.088.07m1.662-.753c0-.01-.243.039-.255.055.035-.015.252-.05.255-.055m.677-.074a.4.4 0 0 0-.099.013c.046.006.131-.008.1-.013m1.467-.017c.004-.001-.045-.03.033-.026l.076.01c.027.004-.067.015-.058.017l.047.005-.178.002c-.04-.012.077-.007.08-.008m.783-.032a1 1 0 0 1 .152 0c.005 0-.014.019.036.017.04 0-.02-.02.057-.017.079.003-.026.017-.02.018.01.001.131-.008.127.004-.002.008-.132.002-.164.004-.041.002.008.016-.06.013-.043-.002-.02-.026-.029-.027-.007-.001-.158.013-.098-.012m-.662.037h-.023zm-4.686 1.635c.03-.028-.035.073-.07.105a.6.6 0 0 1 .07-.105m4.764-1.655c.124.006.032.014-.078.02.035-.005.036-.022.078-.02m-3.234.368q.007 0 .01.005-.017 0-.01-.005m.236-.09c.076-.044-.088.02-.083.03zm2.11-.265c-.01-.002.13-.045-.072-.012.107.004-.007.01-.005.013.004.011.186 0 .227.004.031-.019-.121-.001-.15-.005m2.884-.02c-.025.011-.104.008-.157.007.025-.011.104-.008.157-.007m4.882-10.778c.01.365-.035.412-.017.078 0-.006.013-.1.017-.078m-.012 3.132c-.02.035-.023-.079-.014-.154.001-.017.022-.08.026-.008-.025-.002-.034.108-.012.162m-6.796 7.64c.036-.013.147-.004.206-.002a1 1 0 0 1-.206.002m6.784-9.573c-.001.039.016.065.018.058.006-.03-.008-.102-.018-.058m-7.143 9.571c-.004-.006.076-.012.123-.006q.023.003.029.01h-.03c-.047 0-.12 0-.122-.004m2.184.002a.5.5 0 0 1 .132-.007.5.5 0 0 1-.132.007m4.965-8.953a.6.6 0 0 0 .005.13c.01.012.006-.115-.005-.13m-.015-6.411a.7.7 0 0 1 .02.186v.003c-.004.04-.008.028-.01-.003a2 2 0 0 1-.01-.186m0 5.427c.017-.108.001.012.018.007.001-.073.002-.255-.015-.13-.004.025-.001.09-.002.123m-.005.1c.005.012.023.09.022.023 0-.032-.02-.082-.022-.023m.013-4.7c-.015.097-.007-.35-.005-.362l.004-.014c-.005-.016-.005-.1.007-.11l-.001.102-.002.008c.01.03 0 .357-.003.376m-.016.74c-.023-.112.016-.132.017-.122.016.121-.012.042-.014.046-.002.008.011.094-.003.075m.01-.589v-.102c.014-.076.01.188 0 .102M28.04 30.362c.067.004 0 .018-.044.013-.003 0-.015-.017.044-.013m5.669-9.752c-.003.015-.013.413.008.389-.002-.034.009-.485-.008-.39m-.006 2.968c0-.07.02.007.013.044-.003.014-.013-.026-.013-.044m-7.326 6.795c-.072.011-.057-.026.005-.014.003.001-.002.013-.005.014m7.338-7.354c.012.241-.052.184-.03-.13l.008.03c.01-.363.005-.025.009.064 0 .033.012.005.013.035m-.013.928c-.045.232-.016-.212-.022-.34.02.124.016.285.035.066.004.32-.014.187-.015.2-.002.015.004.064.002.074m0-.614c-.002-.013.008-.115.006-.151.016.05.003.24-.006.151m.01-5.962c-.012-.009-.02-.03-.016-.11.006.025.012.076.017.11M21.879 32.272c-.032.043-.098.128-.068.109a1 1 0 0 0 .068-.109m11.82-10.508c0 .011-.002.314.012.21.004-.032.002-.308-.011-.21m.002-1.569c0 .025.002.128.005.13.01.008.005-.119-.005-.13M21.71 32.487a1 1 0 0 0-.084.13.4.4 0 0 0 .084-.13m6.573-2.154c.014 0 .033.013.038.013.011 0 .269-.005.17.012a14 14 0 0 1-.435-.005c-.018-.018.14 0 .178-.003.007 0 .012-.015.05-.017M33.7 16.954c-.012-.011-.02-.314-.005-.31zm-.002.154c-.008.064-.01-.087-.007-.131a.6.6 0 0 1 .007.13m-.04 3.661c.002.03.019-.063.022-.042.002.013-.004.081.001.103a.3.3 0 0 0 .017-.083c-.001-.029-.014-.001-.014-.032 0-.104.009-.195.009-.292 0-.008-.009.06-.009-.015 0-.012.013-.08.011-.17-.04-.197 0-.341-.015-.591-.004.01-.014.196-.014.207a33 33 0 0 0-.008.802c0 .056.009.028.009.053 0 .019-.016-.004-.01.06m-11.77 11.475c-.028.012-.073.09-.107.137.024-.008.071-.094.107-.137m11.798-13.778c0 .03-.005.121 0 .129a.3.3 0 0 0 0-.129m-3.951 11.872h.076c.063.014-.15.011-.076 0m1.705 0c.056-.003.113-.01.132.003-.036-.001-.139.006-.132-.003m2.205-1.626c-.017.01.014-.178.017-.21a.7.7 0 0 1-.017.21m.015-11.33c0-.099-.025-.078-.013-.14.002-.01.055-.044.035.065-.004.02-.016-.057-.022.075m.025 5.456c-.01-.025-.008-.104-.007-.157.009.012.007.12.007.157m-12.159 9.888c-.039.028-.151.21-.113.173.006-.006.096-.149.113-.173m5.66-2.384c.088-.012-.094-.016-.152-.004.026 0 .146.005.152.004m6.2-.91.074-.123c.011-.017.011-.013.005.002-.018.048-.12.199-.08.12m-2.513.889c.033-.01.257-.003.307.007-.049.016-.349.005-.307-.008m2.794-12.532q0-.105.007-.202a1 1 0 0 1-.007.203m-.086 11.198.007-.019zm.08-9.617c-.003.059.012.046.013.043.005-.045-.01-.11-.013-.044m-11.83 12.914c-.024.008-.072.093-.107.138.018-.007.081-.1.107-.138m11.842-8.088c-.015.074-.033-.228-.023-.292.01-.005.025.281.023.292m-6.76 6.125c-.007-.011-.134.002-.107.007.017.004.11 0 .106-.007m6.743-6.569c-.003-.028.008-.095.014-.071.009.03-.013.078-.014.071m-.009-2.55c-.001.013.01.18.021.111.008-.048-.008-.055-.008-.066 0-.013.02-.281-.013-.044m.016 4.688c-.004-.064.001-.14 0-.206a1 1 0 0 1 0 .206m-6.261 4.428c-.015-.005-.432-.007-.196.007.014 0 .242.007.196-.007m6.258-12.936-.002.044zm-.002 1.124c-.008-.023-.01.092-.006.126.01.01.007-.123.006-.126m-.005 7.173c-.005-.038 0-.107 0-.154a.5.5 0 0 1 0 .154m-.019 2.69a.6.6 0 0 0 0-.18l.004-.012c.002-.006 0-.09.003-.127.028-.226-.022.867-.02.229q.008.044.013.09m-3.06 1.93c-.044-.011-.164.003-.132.007.021.003.174.004.131-.007m1.764-.109a2 2 0 0 0-.166.052c.084-.008.245-.066.166-.052m-2.094.096c-.027-.002-.061.016-.058.017.027.006.103-.007.058-.017m3.367-12.699a.7.7 0 0 0 .02.196.2.2 0 0 0-.009.044c-.005.034-.01 1.065.013.374 0-.022-.01.008-.008-.08 0-.006.009-.01.01-.027 0-.041.006-.262-.002-.306q.003 0 .005-.01c.013-.054-.025-.222-.029-.19m-.977 12.482-.047.023c-.037.019-.077.039-.082.046a1 1 0 0 0 .086-.037c.046-.024.084-.049.043-.032m-5.245.217c-.048-.006-.17.006-.133.012.023.004.188-.004.133-.012m4.341-.004c.305-.012.072-.005.118-.02zm1.91-13.97c-.002.045-.025-.007-.013-.055.004-.016.015.031.013.056m-.025-2.015c-.016.044-.023-.163-.002-.084.001.004.003.081.002.084m.01 1.418c.014.03.015.05.012.133-.004-.124-.016-.009-.012-.133m.007 12.474zm-3.647 2.1c-.034-.011-.131-.01-.102.001a.4.4 0 0 0 .102 0m3.646-12.506q.002-.007.005.005-.003 0-.005-.005M30.504 30.28a.7.7 0 0 0 .15.01c.084-.014-.09-.01-.15-.01m-4.087-.006c-.008.001.041.023.07.015.024-.007-.041-.018-.07-.015M33.62 15.43c0-.046 0-.112.01-.124-.001.031-.003.125-.01.124m-.014-1.053c.016.06.02.194.02.277-.016.002-.012-.22-.02-.277m.011 3.084c0 .004-.005.12.006.105.015-.024 0-.138-.006-.105m-6.974 12.825c.052-.007-.067-.03-.123-.013-.028.01.114.014.123.013m3.04-.012c-.069.007.102.018.126.006-.032 0-.101-.008-.126-.006m2.408-.06c-.256.002-.112.042-.068.032zM21.166 33.13c-.008.015.011-.003.03-.025.018-.02.035-.042.035-.05s-.025.019-.044.044zm7.892-2.899c.153.046.137.01.15.01.029 0 .095.013.15.011l-.186.016c.048.003.474.02.482.013.013-.011-.12-.008-.124-.009-.006-.001-.027-.03-.04-.032-.02-.002-.375-.002-.432-.01m2.53.03c.037.003.047.014.065.01.006-.001.006-.012.026-.016zm-2.804.011c-.043-.014.15-.008.157-.007.033.01-.122.018-.157.007m1.646-.002a1 1 0 0 0-.154.003c.039.005.238.007.154-.003m1.274-.017c.056-.001.166.002.152-.014q-.078.009-.152.014m-4.882-.003c-.097-.026-.05.008.035.016.026-.012-.019-.011-.035-.015m-.31-.02c-.027-.004-.305.001-.262.015.015.005.174-.008.181-.007.011.002-.039.018.046.015-.005-.006.044-.02.034-.023m.23.003-.043-.006c-.059-.002-.063.024-.003.024h.003c.027-.001.056-.015.043-.018m.394.003a.8.8 0 0 0-.191.004l.256.004c.01-.008-.035-.004-.066-.008m6.25-16.522c.028.098-.062-.116-.07-.125-.005-.03.06.08.07.125M20.545 33.426c-.016.015-.035.019-.056.062l.106-.099c.002-.043-.033.021-.05.037m-.174.099c.003-.006-.047.003.022-.054.047-.038-.12.23-.166.268.03-.056.115-.164.144-.214m-.445.365c-.004.001.06-.1.07-.11.05-.054-.046.102-.07.11m.224-.31c-.038.041.03-.064.054-.092a.4.4 0 0 1-.054.091m12.842-18.977c-.023.06.031.112.019.02-.001-.004-.018-.023-.019-.02m-13.029 19.17c.038-.043-.03.062-.054.09a.4.4 0 0 1 .054-.09m12.971-19.127c-.016.079.043.05.045.04a.8.8 0 0 0-.025-.207c.016.207-.013.13-.02.167m.04.368c.006.075.018-.117 0-.152.002.036-.002.13 0 .152m-.02.455a1 1 0 0 0 .003.18c-.002-.043.007-.163-.002-.18m-.028.091c-.012.064.025.079.014.006 0-.003-.013-.008-.014-.006m-.013.355c-.015.042.021.089.022.022 0-.02-.02-.026-.022-.022m-.041-1.17c-.006.059.02.134.022.01l.013.13c.014-.163-.023-.15-.022-.197.001-.064.03-.06.04-.047-.019-.053-.026-.276-.044-.393.005.104 0 .285-.003.399 0 .031.008.063.007.09 0 .045-.013.006-.013.009m.04 1.636c-.016.122.02.045.013-.024zM19.78 33.842c.105-.125.054-.016.223-.313-.064.13.008.015 0 .043-.008.023-.06.088-.021.056-.05.044-.204.275-.213.283-.005.005-.023-.03.01-.069m13.08-18.372c-.044.04.026.056-.01.136.052.106 0-.293.044-.342-.004.32.022.015.01-.05-.003-.013-.008-.016-.014 0a.4.4 0 0 0-.019.066l.006-.065c.012-.15-.015-.02-.022-.055-.01-.042 0-.18-.016-.174l.003.229v.03c.036-.085.025.091-.004.151zm.033-.488c0 .008.004.196.011.183.005-.025-.001-.29-.011-.183m-.04-.784c.009.057.01.152.025.185-.004-.062-.007-.156-.025-.185m.03 3.428c.01.086.014-.179.001-.102 0 .004-.002.098-.001.102m-.016-1.96c-.014.086.029.045.018-.02 0-.003-.018.015-.018.02M19.85 33.73c-.006-.01.135-.2.159-.235-.006.025-.153.247-.16.235m12.947-19.623c-.016.107.039.267.039.287 0 .018-.018-.01-.019-.006l.011.218c.002.007.024-.03.032.011-.012-.086-.03-.437-.04-.446-.004-.012-.011.084-.023-.064m.036.333c.008-.05.016.088.013.123-.006.076-.013-.118-.013-.123m0 .341a1 1 0 0 0 .009.18c.013-.072-.004-.218-.008-.18m.004 1.695c.001.04-.007.148.002.154-.001-.04.007-.148-.002-.154M20.242 33.023c-.044.05.04-.077.069-.112a1 1 0 0 1-.07.112M32.776 15.68c-.003.023.004.502.008.57a10 10 0 0 0 .004-.562c0-.007-.012-.011-.012-.008m-.008-1.027c-.015-.042 0-.069 0-.074.002-.052-.007-.155.008-.133 0 .087.02.29-.008.207m.007 1.858c.005.162.02-.15.005-.11 0 .003-.006.093-.005.11m-.003-.884a5 5 0 0 1-.004-.412l.002-.18c.018.06.009.108.006.18v.037c0 .025.009.018.009.02 0 .044-.01.012-.01.038 0 .017.012.367-.003.316m-.014-.997c-.008-.029-.024-.302-.025-.31.011-.082.03.282.025.31m-.005 1.04c-.024-.051-.008-.289.004-.126.001.015-.01.081-.004.126m-.001.823c0 .008-.006.178.002.18.003-.024.006-.27-.002-.18m-.026-.088c0 .005.015-.035.013.044 0 .007-.017.02-.01.12 0 .02.012.05.012.049.026-.104-.023-.418-.015-.213m.018-1.78c-.007.015-.028-.02-.019-.055.004-.014.018.012.02.055m.001 2.406c-.012-.099-.015.21-.011.226.007-.01.012-.216.011-.226M20.25 32.84c.05-.066.029-.018.031-.02.114-.137.067-.112.08-.136.028-.049.045-.031.086-.1l.01-.017-.01.017c-.055.102-.008.03.012.008l.008-.005q.01.002.006.014c-.016.043-.154.167-.187.228-.006.01.054-.052.04-.026-.044.086-.266.292-.076.037m12.473-18.296c-.012-.039-.019-.294-.004-.227.005.006.024.278.004.227m-.015 13.599c-.01-.067-.025.087-.018.115.004.014.022-.085.018-.115m-.203.79c-.028.043-.032.116.006.059.004-.006.003-.06-.006-.059m.183-5.111c-.016.087.014.082.013.018 0-.023-.012-.02-.013-.018m.004 3.32c-.001.008 0 .108.008.105.004-.037-.001-.162-.008-.106m-.008-3.348c.005.052.027-.037.006-.1.002.032-.007.095-.006.1m.004-7.945c.012.043.008.165.01.236-.015.007-.007-.186-.01-.236m-.074 12.918c-.003.045.035-.042.018-.039zm.068-7.75c.01.056.022-.126.006-.076zm.006-.796c-.003.044-.002.23.007.157a1 1 0 0 0-.007-.157M20.355 32.674c-.024.01.043-.084.064-.109l.004-.005-.001.007c-.008.023-.038.096-.067.107m12.33-8.286c.003.045-.001.161.007.182-.002-.055.01-.197-.006-.182m-.025 4.138c-.022.055-.035.137-.009.12.013-.096-.02.014.01-.12m.005-5.02c-.001.036.02.063.022.06.01-.04-.013-.096-.022-.06m.018 2.707c-.01.002-.005.118.001.103a.4.4 0 0 0 0-.103m0-8.848c-.009.053-.017-.109-.007-.157.014-.023.008.15.007.157m-.012 5.14c-.014-.005-.006.175.005.104a.4.4 0 0 0-.005-.104m-.017-1.731c.016.121.028-.388.008-.254-.002.01-.01.243-.008.254m.01-.832c-.002.021-.048.01-.03-.076.002-.011.014.042.017.033.002-.006.008-.194.007-.203 0-.009-.016.002-.018-.008s.012-.126.012-.187c0-.114-.012-.127-.012-.136 0-.027.008-.073.008-.129 0-.279-.01-.706.016-.927-.01.197 0 .384.004.58-.026-.057.02.289-.01.087.007.093.012.898.006.966m-.306 9.136c.014-.031-.11.072-.114.092a.6.6 0 0 0 .114-.092m.244-.701c-.002-.023-.031-.042-.012-.16.006-.034.012.005.015-.001.002-.002.02-.112.02-.02 0 .137-.023.012-.026.085 0 .01.01.142.014.134v-.046c.008-.025.017-.012.018-.016.002-.01-.008-.229.007-.263.006-.007.005.351-.001.358-.002.008-.029.003-.032.01-.001.006-.004.13-.01.142l-.003.01c.011-.014-.006.08-.016.073a1 1 0 0 1 .012-.067l.002-.002c-.01.02.016-.243-.005-.188-.003-.082.021.013.017-.05m-.006-.429.008.03c-.004-.115.002-.244.005-.378q.003-.084.003-.17c0-.048-.018.008-.013-.056.004-.051.02-.108.024-.08 0 .007-.01.111-.009.163.003.154.018.115.019.124l-.002.019c-.002.034-.008.1-.008.14 0 .132.01.193-.004.367-.008-.1-.03-.045-.023-.159m.032-6.207c-.01-.006 0-.115-.002-.155.01.006.001.116.002.155m-8.286 7.627c-.035.02.245-.016.17-.018a2 2 0 0 0-.17.018m1.205-.079c.034-.005-.104-.013-.104-.001 0 .004.1.002.104.001m7.065-3.49.003-.102c.017-.062.007.242-.003.101m-5.683 3.465c-.117.01.235.015.128.002zm.49-.003c-.028 0-.153-.004-.154 0a.4.4 0 0 0 .154 0m5.188-5.78c-.018.014-.004-.15-.007-.208.018-.013.005.151.007.208m-.013 1.037c-.014-.692.023-.54.008.041-.01.001-.007.003-.008-.04m.002-.887c.011.025.008.104.007.157-.008-.01-.005-.118-.007-.157M24 29.412c.047-.027.27-.055.232-.04-.008 0-.248.05-.232.04m8.6-3.673c-.017.016-.01-.192-.006-.208.015-.064.002.191.006.208m-.005-3.242c-.013-.037-.006-.141-.006-.208.011.03.006.151.006.208m-.01.484v-.102c.014-.076.01.188 0 .102M20.08 32.863l.044-.062c.047-.045-.077.128-.044.062m-.861-.989c-.011-.014-.051-.077-.07-.102.034.02.113.152.07.102m-3.088-1.158.067.013c-.058-.026-.14-.054-.196-.076-.009-.004.02-.008-.002-.015-.022-.008-.023.008-.056 0-.018-.005-.065-.023-.117-.04a2 2 0 0 0-.132-.041c-.207-.048-.433-.067-.67-.09.244.007.001-.026-.07-.024-.015.001-.012.03-.265.012-.162-.01-.01-.05-.285-.034.21.035.004.028-.163.027-.029 0-.262-.007-.366-.006-.035 0-.09.016-.137.017-.032 0-.058-.009-.105-.008a46 46 0 0 1-.675 0c.132-.042-.104-.018-.115-.02-.054-.011.19-.015.094-.022l-.405.004c.11.005-.147.035-.194.021.02.037-.615-.031-.712-.02-.02.003.112.021-.194.013-.033 0-.02-.012-.038-.01-.01 0-.074.035-.14.016-.025-.008.132-.03-.213-.021.137.035-.478.02-.59.01l.067.014c-.112-.012-.132 0-.157-.001-.102-.003-.241-.015-.336-.014-.11.002-.111.024-.24.015l.092.015-.267-.004c.206-.029-.045-.001-.062 0-.026 0 .012-.011-.032-.01-.005 0 .002.011-.066.013-.142.002-.12-.012-.18-.012-.005 0 .014.01-.088.013h-.034c-.205.005-.079-.002 0-.006l.048-.003c.016-.002-.096-.044.182-.03-.093-.004-.103-.023-.113-.023l-.18.003c-.08.006-.01.019-.026.021-.012.002-.208-.015-.255.023-.095-.036.055-.032.212-.037.024-.007-.15-.015-.16-.015-.225 0-.1.029-.15.047-.026.01-.12-.011-.033.016-.21 0-.082-.014-.096-.016-.02-.003-.094.002-.104.001-.013-.002.035-.01-.02-.014-.009 0-.096.012.016.023-.151-.007-.14.006-.192-.023-.111.045-.077-.034-.12-.04-.116-.017-.087.024-.093.026-.039.014-.4-.056-.508-.096.05-.008.307.079.36.077.187.01-.26-.06-.118-.072a2 2 0 0 1-.187-.015c-.105-.062.055-.002-.24-.12l-.008-.005q-.016 0 .004.012c.047.029.198.074.153.07a1 1 0 0 1-.16-.056c-.03-.013-.052-.023-.053-.022a.2.2 0 0 0 .05.029c.042.02.089.04.072.038a.4.4 0 0 1-.077-.027c-.15-.063-.41-.257-.1-.072-.107-.061-.137-.129-.228-.183-.057-.042.207.263-.232-.137.002-.02.177.157.185.158.009.003 0-.056-.005-.063-.029-.006-.443-.437-.465-.574q0 .013-.016-.012c-.072-.087-.163-.452-.167-.486-.005-.013-.01.04-.014.026-.03-.094-.028-.325-.031-.42-.006-.109-.017-.094-.017-.1-.001-.047.009-.01.008-.038-.003-.046-.006-.331-.007-.344 0-.004-.015.042-.018-.02 0-.01.016-.004.009-.183-.01-.215-.021.15-.04.06.026-.139 0-.134.003-.17l.009-.059a1 1 0 0 0 .012-.155l.007.155.003.07.002-.07c0-.073-.002-.163.001-.207.003-.03.02-.005.02-.07 0-.013-.043-.067-.024.1-.016.014-.006-.066-.01-.103 0-.005-.026-.027-.01-.075.004-.011.078.113.024-.206-.001-.01-.01.025-.013.015-.001-.007.003-.088.001-.097-.001-.01-.011.03-.013.019-.01-.056.03-.13.027-.014l.015-.116c-.03.041-.009-.06-.01-.114-.006-.344-.026-.114-.036-.173-.016-.095.036-.022.02-.163-.001-.013-.023.157-.01-.175q0 .074.002.147c.03-.028-.002-.177-.003-.189-.004-.13.007-.042-.008-.236-.002-.017.006-.055.002-.092-.015-.154-.01.202-.021.212a6 6 0 0 1-.002-.391c.013-.056.006.173.021.13.005-.016-.006-.562 0-.672.007-.126.047-.183.002-.184.044-.035.014-.067.015-.083a6 6 0 0 0 0-.363c-.001-.037.012-.069.01-.082-.001-.007-.016.007-.02-.03A3 3 0 0 1 6.248 24c.007-.023.003.132.016.104.001-.112-.002-.22 0-.332 0-.047.01-.023.01-.043 0-.009-.008-.17-.012-.163-.008.016-.002.515-.018.383-.003-.025.018-.114-.008-.1l.017-1.338c.02.256.002.544.004.813 0 .037-.002.16.01.146.004-.228-.003-.512.006-.731 0-.007.012.018.014-.008.003-.049-.016-.209-.01-.236 0-.004.016.087.025.059.025-.071-.03-.089-.03-.15.001-.047.028-.365.011-.444-.018-.084-.01.234-.025.21-.015-.214 0-.432-.001-.636 0-.003-.012.028-.013-.017-.003-.08.013-.1.016-.138.003-.042 0-.188.006-.208a.1.1 0 0 1 .018.032c.007.064-.014.086-.015.092 0 .022.008.043.007.063 0 .033-.008.051-.009.094 0 .03.014.001.013.03 0 .01-.033.125 0 .135.011.003.025-.928.016-1.02l-.012.239c.01-.163-.017-.357.023-.371l.01-1.804c.003-.107.028-.048.02-.225l-.023.137c.005-.09.016-.492.011-.557 0-.008-.024-.02-.025-.12-.002-.089.015-.103.018-.15.003-.04-.001-.085 0-.097 0-.01.01-.013.013-.035.005-.069-.024-.013.01-.082q0 .026.004.05c.004-.083.02-.197.028-.074 0 .021-.01.003-.01.019.003.616.022.124.007-.092.015-.056.005-.367.008-.377.005-.014.017.039.027-.03.002-.015-.006-.431.014-.282.004.031 0 .23 0 .279.032-.113-.013-.378-.012-.408.005-.12.027.23.031-.04.003-.208-.018-.013-.027-.093-.006-.045.018-.28-.013-.274-.003-.081.013-.034.015-.044 0-.01-.009-.169-.002-.22 0-.006.016.013.018.007a2 2 0 0 0-.003-.172c0-.004-.014.032-.018.017-.004-.017 0-.165-.004-.173-.006-.012-.002.17-.018.14a1.4 1.4 0 0 0-.019-.276 1 1 0 0 1 .003.123c-.023-.013-.022-.188-.004-.128-.01-.038-.015-.012-.024-.034-.003-.005-.003-.06-.007-.07 0-.001-.01.055-.014.044a1 1 0 0 1-.004-.198c.006-.037.014.096.023.107.002.002.02-.112.022-.114.018-.006.005.12.021.106l.01-.094c.016.12.008.344.026.401-.005-.179-.004-.366.037-.365.018 0 .028.077.032.074.016-.011-.001-.118 0-.122q0-.005.003-.005c.009 0 .016.152.02.16.008.013.039-.055.045-.055.002.002.01.111.021.074s.013-.132.014-.135c.007-.018.014.148.018.153.002.003.016-.087.02-.09.003-.002.012.066.024.093.009.02.016-.038.017-.028.001.008 0 .165.002.172.003.012.013-.025.016-.02.004.008 0 .059.004.052.003-.005.04-.201.05-.2.017.002-.022.21.045.017l-.004-.05c.012-.03.031.122.028-.063.021.344.025.043.054.094.01.02.015.153.017.153.014-.013.003-.055.01-.07.003-.008.018.112.028.085.005-.014.003-.14.004-.146.009-.05.019.011.025 0a1 1 0 0 0 .005-.085c.002-.004.02.1.025.122.005.016.013-.045.015-.034.012.07-.02.216.024.075.003-.01.002-.063.003-.064.012-.033.013.065.023.083.018.03.008-.112.02.006.012-.088.011-.137.008-.241.009.287.054.388.053.07 0 .1.025.09.025.12 0 .019-.025.165.032.098.007-.008-.002-.098.013-.07-.004.214.01.005.011.005.034.002.006.525.01.615.005.104.031.197.031.22 0 .074-.013.012-.018.03-.005.016.02.228.02.239-.006.04-.022 0-.023.003-.01.051.002.336-.001.416.01-.003.01-.163.028-.063.019.117-.027.123-.029.126l.002 1.6c.024-.007.006-.355.009-.363.019-.047.018.542.01.614l.015-.164c.028.093-.008.3.004.436.004.044.015-.04.016-.038.01.049.002.128-.012.069.014.12-.002.102-.003.195 0 .004.012-.035.016.038.002.034.002.216.012.24.004.01.048-.082.01-.093.019-.198-.017-.064-.016-.14 0-.012.021.015.011-.18.038.038.01.261.015.3.009.078.029-.247 0-.307.029.028.003-.023.004-.095.002-.08.01-.045.01-.088 0-.118-.02-.069-.001-.166-.059.095-.008-.166.007-.241l.009.37.01-.021-.002.097-.009-.016c.02.168-.002.209-.003.223-.002.175-.002.379-.002.556 0 .027.02.009.004.203-.005.062-.02.004-.017.074.04.088.008.087.008.113 0 .075.01.12.01.128.002.092 0 .228.001.33 0 .002.013-.051.01.015-.002.023-.055.232-.038.414l.011-.142c-.005.055.008.446.023.35.008-.058-.026-.201.007-.217-.01.13.005.848-.003.904-.001.007-.012-.04-.013-.03-.001.009.002.173-.003.195-.002.013-.008-.06-.012-.054a1 1 0 0 0 .006.222c-.006-.05 0-.192.01-.118.002.01-.007.06-.005.071.016.108.012-.214.012-.264.017.202-.003.515.008.75-.01.094-.017-.141-.026-.034-.019.222.016.06.017.066.011.055-.049.243-.003.244-.007.08-.013.054-.007.168l.01-.045a.9.9 0 0 1-.046.373c-.013-.054.008-.193.008-.205-.001-.017-.047-.066-.006-.258-.031-.08-.021.305-.042.13.003.118-.018.603-.005.673.002.009.033-.03.017.09-.007.056-.008-.08-.015-.055-.021.08-.007 1.17-.006 1.378 0 .013-.01.008-.01.021 0 .04.015.189.01.261.018-.15.02.142.018.216-.003.113-.02.106-.024.155-.014.188.026.479-.011.625.037-.008-.018.252-.019.37 0 .093.025.228.04.103-.002.157.005.323.007.472v.007c0 .025-.01-.01-.01.033 0 .004.012.009.013.045.01.299-.014.153-.02.209l-.006.07-.007-.428a.2.2 0 0 0-.01.064c-.004.117.013.343.009.42 0 .004-.013-.008-.014-.005 0 .038.01.267.024.22.004-.013 0-.117-.002-.245.004.034.018.008.019.014.007.075-.003.252-.002.312 0 .014.01.013.01.015 0 .054-.028.034.003.088-.028.1-.015-.184-.035-.166a1.4 1.4 0 0 0 .015.322c.02.148.065.24.077.234q-.004.004-.003.02c0 .011.008.033.019.054a.5.5 0 0 0 .064.097c.003.003.023-.013.026-.01.004.01.093.149.152.175a1 1 0 0 1-.063-.075c.14.136.128.102.082.057l-.006-.007a1 1 0 0 1-.07-.088c-.006.001.245.195.186.175-.01 0-.123-.1-.075-.041.008.011.092.062.096.065.021.033-.165-.08-.154-.053.051.022.102.069.158.096.025.012.038.003.04.005a.1.1 0 0 1 .026.014c.004.006-.004.008.004.011.006.005.095.007.068.039.334.045.071.008-.068-.057l-.01-.005.01.003c.05.014.146.048.206.055.022.002.011-.013.049-.01.064.013.514.046.642.048-.075.004-.053.019.005.018.059 0 .01-.02.021-.022s.29.008.337.006c-.211.006-.164.02.015.022l-.077.013c.036-.002.088 0 .143.002.098.004.205.011.244.007.01 0-.025-.013-.02-.013.054-.006.235.007.244.003.007-.004-.07-.014-.042-.019.006 0 .081.015.155.011.027-.001.01-.012.017-.013.058-.005.024.014.129.01.076-.002.133-.02.24-.014-.349-.024-.056-.014.09-.021.023-.002.003-.022.142-.012-.296.037.085.02.163.02.004 0 .005.014.044.014.003 0-.002-.01.034-.01.337-.007.121.004.185.013.028.004.192-.01.236-.01.01 0 .005.01.045.01.069-.001.131-.011.177-.012.005 0 .006.015.093.01.024-.001.052-.007.017-.011-.115-.014-.334.01-.464-.004-.119-.013.256-.014.275-.014.007 0-.066.007.008.009.064.001.18-.025.274-.02l.08.024c-.004.001-.12.006-.103.013.002 0 .076 0 .085.005.012.006.044.063.06.064.04.004.014-.01.04-.008.056.001.25.018.257-.002q-.05 0-.097-.003c.179-.002.103-.01.128-.014.027-.004.02.013.08.015.013 0 .265-.003.26-.01-.14.01-.088-.01-.094-.01-.024-.002-.056.01-.088.01-.23-.002.002-.021-.053-.026-.018-.002-.056.008-.064.008-.025-.002-.026-.015-.043-.014-.04.002.007.021.004.022-.036.012-.177-.003-.09-.023-.052-.008-.058.017-.1.007-.083-.02.041-.014.075-.018.12-.012.156-.002.327-.005.062-.002.135-.014.163-.014.018 0 .188.042.193-.025.066.007.17.05.237.049.061-.002.042-.026.047-.027.01-.001.083 0 .108-.003.03-.004.015-.013.061-.016.116-.01.112.015.124.016.138.018.078-.016.108-.019l.161.002c.131.003.3.006.351 0l-.103.015c.063.015.126-.01.128.017.013-.043.139-.014.178-.015.014 0 .013-.008.032-.008.074 0 .239.006.28.003.174-.015-.27-.045-.304-.047.07 0 .465-.006.283-.028-.029-.003-.077.015-.093.016-.108.005-.023-.012-.032-.014-.014-.003-.084.014-.102.012-.006-.001.032-.017-.068-.017.05-.016.336-.002.373-.004.014-.001-.07-.035.176 0l-.008-.01q.207.002.418.008c-.016.006-.095.018.005.018.058.001.016-.016.021-.016.042-.014.998.076 1.2.154l.123.028c.064.015.128.03.136.033.08.022.352.132.406.155.034.013.007-.012.037.001.027.012-.007.012.001.016.07.026.584.268.688.358a2.7 2.7 0 0 0-.436-.21 1 1 0 0 0 .105.062c.025.024.142.051.194.089.006.004-.027.006.067.066.033.021.127.063.203.134.047.028.165.111.29.213.222.176.438.414.468.43.002 0-.068-.085-.011-.037.075.066-.012.025.062.112.014.012.216.246.222.253.074.059-.088-.154-.085-.153.011.004.155.174.159.182s-.13-.116.013.047l-.038-.064c.068.075.058.094.072.114.043.062.116.11.158.226.011.031-.029-.005-.027 0 .012.037.068.056.08.116.001.005-.087-.092.046.092l-.021-.042c.023.023.159.207.175.233.049.076-.01.021.043.094-.013-.06.146.16.12.16.043.016.158.217.22.306.018.026.047.064.075.1.03.038.057.072.063.082.014.023-.005.026.019.068.006.011.098.12.154.233.01.021.015.08-.017.047-.054-.055-.117-.188-.13-.176-.014.012.106.166.134.21.13.207.033.103.032.111-.003.022.073.13.075.136.008.022-.055-.048-.063-.044-.01.005.045.122.025.1-.028-.03-.08-.137-.086-.143-.064-.073-.01.051 0 .09.002.01-.028-.022-.024-.014.065.126.048.003.098.082.045.07-.03-.008-.03-.005.002.005.058.087.061.103.002.008-.174-.185-.18-.167l.15.198c-.013.017-.07-.09-.078-.098-.017-.018.014.044.007.045-.005.002-.063-.057-.026.007.013.021.055.057.095.14-.197-.251-.08-.063-.08-.051-.001.011-.102-.104.006.046-.028.029-.013.004-.048-.035-.044-.048.03.081-.096-.118-.007.022.102.176.106.185.004.008-.027-.021-.021-.007.072.166.015.056.026.112.001.005.09.147.014.044-.137-.187-.171-.282-.24-.282.079.155.227.305.258.348.046.065-.01.003-.008.013.001.004.041.06.041.06-.007.066-.175-.25-.245-.338l.035.084-.07-.1c.1.167 0 .009-.056-.011-.012-.005.071.093-.03-.015.058.091.032.067.096.141-.013.006-.15-.164-.205-.231.16.259.103.087.231.319.042.03-.032-.071-.024-.064.03.024.065.104.154.17.014.01-.012-.06.048.028.006.01.032.074.03.074-.014 0-.049-.058-.054-.057-.006 0 .04.06.038.06-.01.011-.04-.047-.038-.037.003.023.13.261-.063-.031.18.229.035.02-.035-.069-.018-.022-.03-.023-.055-.055-.034-.041-.066-.095-.083-.116-.018-.024.06.126-.073-.076.053.113.196.279.253.387.114.217-.127-.12-.154-.153-.008-.01.005.03 0 .023-.009-.01-.138-.206-.16-.219s.05.07.046.083c-.003.008-.175-.218-.092-.09.058.09.192.234.186.278l-.273-.38.118.23c-.103-.141-.178-.273-.287-.4.197.35-.098-.089-.105-.091-.003 0 .062.146.072.17-.058-.07-.18-.237-.23-.287-.021-.021-.03-.022-.017.011l.023.049a.6.6 0 0 0-.098-.117.3.3 0 0 0 .048.087c.036.055.075.112.056.099-.027-.019-.044-.055-.064-.093l-.034-.055c-.21-.284-.224-.157-.415-.452l.005.022c-.216-.313-.43-.624-.65-.896-.109-.094-.354-.33-.476-.428l-.038-.034-.12-.108c-.016-.018.09.058.047.016-.007-.01-.241-.176-.233-.151.026.018.114.068.125.08.091.07-.661-.388-.718-.374l.048.036zm2.9.966c.036.024.084.11.12.155.052.062.176.14.096.125zm-1.229-1.395c.065.06-.008.043-.058-.01-.005-.006-.031-.07.058.01m.668.656-.052-.061c-.035-.06.11.112.052.061m-3.935-1.648c.088.001.025-.03-.03-.018-.004 0 .024.018.03.018m.062.003c.068.027.21-.02.098-.018a1 1 0 0 0-.098.018m3.447 1.204a.6.6 0 0 1-.111-.093c.006-.006.082.067.111.093m-2.027-1.062c-.003.003.062.02.135.042.083.024.176.052.189.05-.026-.006-.11-.035-.186-.057a1 1 0 0 0-.138-.035m-.798-.116a.5.5 0 0 0 .11.002c-.052-.014-.144-.011-.11-.002m-1.464-.042c-.006.002.067.046-.105.017-.025-.004.065-.016.056-.017l-.045-.005a2 2 0 0 1 .17-.002c.039.012-.075.007-.076.007m-.747.033a.7.7 0 0 1-.144 0c-.004 0 .013-.02-.034-.018-.037.001.02.02-.055.017-.074-.003.025-.016.019-.017-.009-.002-.124.007-.12-.004.003-.008.126-.003.156-.005.04-.002-.008-.016.057-.013.041.002.018.026.027.028.007 0 .15-.013.094.011m.631-.037.022-.001zm5.248 2.224c-.019-.039.063.056.082.099a.6.6 0 0 1-.082-.1m-5.322-2.204c-.118-.006-.032-.015.074-.02-.033.005-.034.022-.074.02m3.53.577q-.005-.007-.003-.013.014.015.004.013m-.274-.144c-.103-.03.094.057.096.049a1 1 0 0 0-.096-.049m-2.4-.44c.01.003-.128.042.072.014-.107-.007.006-.01.004-.013-.004-.011-.184-.004-.222-.009-.031.019.118.004.146.009m-2.754.013c.023-.01.098-.007.149-.007-.024.011-.099.008-.15.007m-4.312-8.469c.01.347-.035.392-.017.075 0-.007.012-.096.017-.075m-.012 2.978c-.02.033-.023-.075-.015-.146.002-.016.022-.076.026-.008-.024-.002-.033.103-.011.154m6.155 5.497c-.034.014-.14.004-.196.002a1 1 0 0 1 .196-.002m-6.167-7.334c-.001.036.016.06.017.054.007-.028-.007-.096-.017-.055m6.51 7.337c.005.008-.136.015-.146-.005.03.002.143 0 .146.005m-2.079-.003c.022.004-.09.012-.125.008a.5.5 0 0 1 .125-.008m-4.425-6.746a.5.5 0 0 0 .005.124c.009.011.006-.109-.005-.124m-.015-6.094a.7.7 0 0 1 .02.179c-.011.107-.022-.174-.02-.179m0 5.16c.017-.104 0 .01.018.006 0-.07.001-.242-.016-.123-.003.023 0 .084-.002.116m-.006.095c.006.01.024.085.022.02 0-.03-.02-.077-.022-.02m.014-4.47c-.016.093-.008-.331-.005-.344l.004-.013c-.005-.015-.006-.096.007-.105-.001.024 0 .09-.002.098l-.001.007c.01.028 0 .34-.003.357m-.016.704c-.023-.106.016-.125.017-.116.016.115-.013.04-.014.044-.002.008.01.09-.003.071m.01-.56v-.097c.013-.072.01.18 0 .097m5.123 11.942c-.063-.003-.001-.018.041-.012.004 0 .015.016-.04.012M7.32 21.776c-.003.015-.013.393.009.37-.003-.032.008-.461-.009-.37m-.005 2.823c0-.067.02.006.013.041-.003.013-.013-.025-.013-.041m6.716 4.734c.07-.01.056.026-.005.013-.002 0 .003-.013.005-.013m-6.704-5.267c.012.23-.052.176-.03-.123l.008.028c.01-.344.004-.023.008.061.001.032.012.005.014.034m-.013.883c-.046.22-.016-.201-.022-.322.019.117.016.27.035.062.004.304-.014.177-.016.19-.001.014.005.06.003.07m0-.584c-.002-.012.007-.109.006-.143.015.048.002.228-.007.143m.01-5.668c-.012-.008-.02-.028-.016-.104.006.023.011.072.016.104m11.7 13.083c.03.044.087.133.08.099a.6.6 0 0 0-.08-.1M7.31 22.872c-.001.011-.002.3.011.2.004-.03.003-.292-.01-.2m.002-1.491c0 .024.002.122.005.124.01.007.004-.113-.005-.124m11.856 10.625a1 1 0 0 0 .091.119.4.4 0 0 0-.091-.12m-6.952-2.636c-.014 0-.031-.013-.036-.013-.011 0-.256.005-.162-.012.015-.003.367.004.413.005.018.018-.132.001-.169.003-.007 0-.01.016-.046.017M7.31 18.3c-.011-.011-.019-.299-.005-.296zm-.001.146c-.009.061-.011-.083-.008-.125a.6.6 0 0 1 .008.125m-.041 3.48c.003.03.02-.06.023-.04.002.013-.005.078 0 .098a.3.3 0 0 0 .017-.079c0-.027-.013 0-.013-.03 0-.098.009-.185.008-.277 0-.008-.008.056-.008-.015 0-.01.013-.076.01-.161-.04-.187 0-.325-.014-.562a4 4 0 0 0-.015.197c-.007.198-.007.554-.007.762 0 .053.008.027.008.05 0 .018-.015-.003-.01.058m11.73 9.836c.002.03.062.096.094.143 0-.024-.064-.096-.094-.143m-11.7-12.026c0 .028-.004.115 0 .123.007.009.011-.117 0-.123m3.539 9.629-.073-.001c-.06-.013.142-.01.073 0m-1.613-.004-.075.003q-.031 0-.045-.008h.046c.037 0 .078 0 .074.005m-1.71-.34c-.009.018-.064-.07-.072-.087.01.003.077.077.072.088m-.242-10.315c.001-.094-.024-.074-.013-.134.002-.01.056-.041.036.062-.004.019-.017-.054-.023.072m.026 5.187c-.011-.024-.008-.1-.007-.15.008.012.006.114.007.15m12.027 8.357c.012.046.138.207.118.16-.003-.007-.102-.136-.118-.16m-6.066-2.89c-.049.007-.009.012.043.012.038 0 .08-.003.103-.008l-.103-.003zm-5.474-.11-.056-.034c-.035-.035.109.051.056.034m1.97.132c-.033.01-.243.002-.29-.008.045-.015.33-.005.29.008m-2.475-10.29q0-.099.007-.192a.8.8 0 0 1-.007.193m.324 10.034-.006-.007zm-.33-8.53c-.004.055.012.044.012.04.006-.042-.009-.105-.012-.04M19.018 31.83c0 .024.065.096.094.143a.7.7 0 0 0-.094-.143M7.285 25.185c-.016.07-.034-.217-.024-.278.01-.004.026.267.024.278m6.235 4.197c.005.011.127-.002.1-.007-.016-.003-.104 0-.1.007m-6.252-4.62c-.004-.026.007-.09.014-.067.009.028-.013.075-.014.068m-.01-2.423c0 .012.01.17.022.105.008-.045-.008-.053-.008-.063 0-.012.02-.267-.013-.042m.017 4.456c-.004-.06 0-.133 0-.195a.8.8 0 0 1 0 .195m5.778 2.59c.01.003.209.006.248.002q.015 0 0-.003l-.062-.005c-.013-.001-.23-.007-.186.006M7.272 18.707l-.001.041zm-.001 1.068c-.008-.021-.01.088-.006.12.01.01.007-.117.006-.12m-.006 6.82c-.005-.036 0-.102 0-.146a.5.5 0 0 1 0 .146m.108 2.294-.008-.018c-.014-.03-.029-.064-.037-.063q.002 0 .002-.007c0-.003-.018-.046-.02-.07-.006-.07.026.075.06.138.039.075.062.127-.019.01l-.015-.024zm2.666.515c.041.012.155-.002.126-.007-.021-.003-.166-.004-.126.008m-1.555.002a.6.6 0 0 0 .122-.009c-.062-.007-.174-.002-.122.01m1.868.012a.1.1 0 0 0 .056-.017c-.026-.007-.098.007-.056.017M7.224 18.902a.6.6 0 0 0 .02.185.2.2 0 0 0-.01.043c-.004.032-.01 1.012.014.355 0-.02-.01.008-.009-.076 0-.006.01-.008.01-.026 0-.039.006-.248 0-.29l.004-.01c.012-.051-.025-.21-.03-.181m1.055 10.497c.02.005.085.005.092-.003-.033-.005-.138-.008-.092.003m4.788.018c.045.006.161-.006.126-.012-.021-.004-.179.005-.126.012m-4.105-.008c-.259-.01-.062 0-.101.011zm-1.71-11.72c-.002.043-.024-.006-.012-.052.004-.015.014.03.013.053m-.006-1.884c-.02.035-.008-.139.005-.071zm-.008 1.317c.013.028.015.047.012.127-.004-.119-.016-.009-.012-.127m3.36 12.292c.033.012.125.01.098 0a.3.3 0 0 0-.097 0M7.244 19.087q.003-.006.004.005-.002 0-.004-.005m2.861 10.337a.7.7 0 0 0-.142-.011c-.08.014.085.011.142.01m3.889.006c.007 0-.04-.023-.069-.014-.022.006.042.017.069.014M7.23 16.85c0-.044 0-.106.01-.117 0 .03-.002.119-.01.118m0-.977c.012.052.012.172.01.248-.016.001-.007-.2-.01-.248m-.002 2.909c0 .003-.006.114.005.1.016-.023 0-.132-.005-.1m6.547 10.636c-.05.007.065.03.117.013.027-.01-.109-.015-.117-.013m-2.892.011c.066-.006-.096-.017-.119-.006.03 0 .096.008.12.006m-2.224.01c.202.034.092-.026.056-.021a.3.3 0 0 0-.056.02m10.903 3.271c.02.021-.028-.077-.045-.083-.01-.003.032.07.045.083M7.24 27.964v.026zm4.24 1.509c-.145-.046-.13-.01-.143-.01-.027-.001-.09-.014-.142-.012l.177-.015a7 7 0 0 0-.46-.013c-.011.01.116.007.12.008.005.001.025.03.037.032.02.002.357.002.411.01m-2.392-.038c-.033-.003-.043-.015-.058-.012-.005 0-.006.012-.024.015zm2.653-.004c.04.014-.144.009-.15.007-.031-.009.116-.018.15-.007m-1.566.002a1 1 0 0 0 .148-.002c-.038-.006-.227-.008-.148.002m-1.191.006c-.05-.002-.142-.013-.132.004zm4.622.014c.092.027.05-.007-.033-.016-.025.012.018.012.033.016m.296.02c.027.005.292.002.252-.012-.015-.006-.168.006-.175.005-.01-.002.039-.017-.043-.014.005.005-.043.02-.034.022m-.22-.003c.093.02.113-.017.044-.017-.027 0-.057.014-.043.017m-.374-.003c.034.003.12.009.182-.004l-.188-.002-.056-.001c-.009.007.028.004.056.006zM7.134 15.322c-.01.073-.014-.095-.012-.102.009-.021.017.07.012.102m12.473 18.05c.008.02.004.038.036.07l-.052-.128c-.039-.015.007.037.016.058m.027.19c-.004-.005-.015.044-.041-.037-.018-.054.166.183.184.237-.04-.045-.108-.158-.143-.2m.17.522a1 1 0 0 1-.074-.099c-.031-.063.077.075.075.099m-.201-.303c.024.048-.047-.047-.064-.078.004-.007.06.07.064.078M6.607 16.059c-.024.058.029.11.018.02 0-.003-.016-.022-.018-.02m13.104 17.954c-.025-.048.046.047.063.078a.4.4 0 0 1-.063-.078M6.548 16.1c-.017.077.042.05.045.04a1 1 0 0 0-.02-.203c.009.203-.016.127-.025.163m.036.355c.007.071.019-.111.002-.146.001.035-.004.125-.002.146m-.019.433a1 1 0 0 0 .002.171c-.001-.041.008-.155-.002-.171m-.028.087c-.013.06.024.074.013.005 0-.003-.012-.007-.013-.005m-.013.337c-.015.04.02.084.022.02 0-.018-.02-.024-.022-.02m-.04-1.116c-.006.057.02.13.023.009l.011.127c.015-.158-.021-.146-.02-.192.003-.063.032-.058.041-.045-.018-.052-.018-.272-.021-.4-.008.112-.021.294-.026.404-.001.032.007.063.006.09-.002.043-.013.004-.014.007m.04 1.56c-.018.115.019.042.012-.024 0-.002-.013.02-.013.023m13.184 16.446c-.076-.136.005-.055-.205-.303.096.1.017-.003.04.014.017.014.058.082.043.037.023.058.177.273.181.284.003.006-.035.011-.06-.032M6.47 16.889c-.044.038.025.053-.011.129.053.1 0-.279.045-.325-.006.413.044-.272-.023.015.024-.237-.008-.077-.017-.114-.009-.039.001-.173-.015-.166l.003.246c.035-.08.025.088-.004.144zm.033-.465c-.001.008.004.187.01.175.005-.024 0-.277-.01-.175m-.008-.785c0 .064-.007.163.006.198 0-.064.007-.164-.006-.198m-.003 3.3c.011.081.015-.17.002-.098zm-.016-1.865c-.013.083.03.044.018-.018 0-.003-.017.014-.018.018m13.155 17.028c-.012.001-.133-.187-.156-.22.02.014.17.218.156.22M6.457 15.526c-.038.127.006.3.005.32-.001.018-.018-.011-.018-.007-.001.01 0 .21.001.22.001.007.024-.03.032.012-.013-.08-.005-.448-.008-.467-.002-.015-.026.097-.012-.078m0 .367c.01-.05.01.09.007.124-.008.076-.008-.118-.007-.124m-.01.338a1 1 0 0 0 .007.174c.014-.069-.001-.21-.006-.174m.002 1.615c.002.037-.007.141.003.147-.002-.038.007-.141-.003-.147M19.13 33.52c.029.056-.057-.062-.078-.099a1 1 0 0 1 .077.099M6.386 17.088c-.003.023.004.478.009.542.007-.063.007-.514.004-.534-.001-.006-.012-.01-.013-.008m-.004-.984c-.014-.042.003-.069.003-.074.002-.052-.001-.159.012-.135-.005.09.012.292-.015.209m.003 1.774c.006.155.02-.142.006-.103zm-.003-.84c-.011-.035-.001-.49-.001-.563.02.066.005.118.006.206 0 .024.008.018.008.02 0 .041-.009.01-.01.036 0 .016.013.349-.003.3m-.01-.958a4 4 0 0 1-.01-.321c.017-.086.013.299.01.321m-.008 1c-.024-.05-.008-.276.004-.121 0 .015-.01.077-.004.12m-.001.782c-.001.007-.006.168.002.171.003-.023.005-.258-.002-.171m-.026-.084c0 .004.015-.034.013.042 0 .006-.017.018-.011.113a.1.1 0 0 0 .013.047c.026-.1-.024-.397-.015-.202m.022-1.703c-.007.015-.028-.022-.018-.055.005-.014.017.012.018.055m-.003 2.297c-.013-.093-.015.2-.012.216.008-.01.013-.206.012-.216m12.608 15.084c-.043-.066-.006-.032-.008-.035-.083-.147-.077-.097-.094-.117-.037-.043-.009-.052-.073-.123.104.119.017.006.023-.004.024-.038.103.183.155.242.007.009-.028-.065-.009-.044.062.067.17.335.006.08M6.341 15.994c-.013-.036 0-.313.01-.24.001.012.008.294-.01.24m.105 13.1c-.042-.088.02.13.051.166a1 1 0 0 0-.051-.165m.958 1.094c.112.049.239.042.103 0-.014-.003-.113-.01-.103 0M6.3 24.83c-.016.083.013.078.013.017 0-.021-.013-.02-.013-.017m.005 3.16a.4.4 0 0 0 .008.103c.004-.037-.002-.158-.008-.103m-.01-3.186c.006.049.027-.035.006-.095.002.03-.006.09-.005.095M6.3 17.25c.012.041.008.157.01.224-.016.007-.008-.176-.01-.224m.724 12.683c.086.053-.077-.088-.07-.066.001.003.066.064.07.066m-.73-7.77c.01.054.022-.12.005-.071 0 .002-.006.068-.005.07m.005-.756c-.003.041-.002.218.007.149a.7.7 0 0 0-.007-.149m12.552 11.9c0 .027-.072-.081-.08-.098-.003-.007.08.062.08.098m-12.554-7.94c.002.043-.002.154.007.173-.002-.052.01-.187-.007-.173m.4 4.238c.04.082.149.191.139.148-.114-.122-.006.032-.138-.148m-.42-5.077c-.002.035.02.06.021.057.01-.037-.013-.09-.021-.057m.018 2.575c-.01.002-.005.112 0 .097a.3.3 0 0 0 0-.097m0-8.413c-.01.05-.018-.103-.008-.149.015-.022.008.143.007.15m-.013 4.887c-.014-.005-.006.167.006.099a.4.4 0 0 0-.006-.1m-.016-1.646c.016.116.028-.369.007-.241a6 6 0 0 0-.007.241m.01-.79c-.002.02-.049.01-.03-.073.002-.01.014.04.017.031.001-.005.008-.184.007-.192-.001-.01-.016.001-.018-.008s.011-.12.011-.178c0-.108-.012-.12-.012-.13 0-.025.009-.069.009-.121 0-.266-.01-.672.016-.882-.01.187 0 .365.004.552-.026-.055.02.274-.01.082.006.088.012.853.006.918m1.548 9.191c-.062.008.25.051.272.03a9 9 0 0 1-.272-.03m-1.311-.87c-.014-.02-.041-.03-.08-.096a1 1 0 0 1-.053-.12c-.018-.055.014.002.013-.009-.003-.004-.048-.17.005-.038.092.201-.015.029.036.137l.013.022c.028.048.11.155.108.145 0-.001-.036-.05-.04-.06-.014-.034.004-.024.002-.029l-.043-.07a1 1 0 0 1-.119-.3c0-.01.049.15.13.294.054.098.115.182.119.19.006.012-.02.023-.014.035a3 3 0 0 0 .166.199c-.016-.028.113.106.104.108a1 1 0 0 1-.097-.097l-.003-.004c.003.034-.263-.317-.217-.234-.077-.104.028.003-.03-.074m-.245-.598.016.035c-.05-.213-.048-.425-.055-.62-.001-.05-.017.006-.014-.058.003-.052.018-.108.022-.08 0 .006-.008.11-.004.164.009.16.023.12.024.129 0 .01-.004.114.003.174.019.153.028.219.085.465-.049-.137-.052-.058-.077-.21m-.028-6.01c-.01-.006-.001-.11-.003-.147.01.005.002.11.003.147m9.488 7.71c.03-.01-.165-.057-.116-.033.011.005.092.027.116.033m-.946-.124c-.03.003.091.02.091.008a1 1 0 0 0-.09-.008m-8.559-3.729.004-.097c.016-.058.007.231-.004.097m7.28 3.731c.111-.01-.223-.014-.12-.001.004 0 .115.002.12.001m-.466.003c.027 0 .145.005.147 0a.4.4 0 0 0-.147 0m-6.819-5.937c-.017.013-.004-.143-.006-.197.017-.013.004.143.006.197m-.012.986c-.014-.658.023-.513.008.04-.011 0-.008.002-.008-.04m.002-.843c.01.024.007.099.007.15-.008-.01-.005-.114-.007-.15m9.745 6.004a.5.5 0 0 1-.13-.04c-.022-.01-.036-.017-.025-.017l.028.008a.5.5 0 0 1 .127.05m-9.745-4c-.016.016-.01-.182-.006-.197.015-.06.003.182.006.198m-.004-3.082c-.014-.034-.007-.134-.007-.197.012.029.007.143.007.197m-.01.461v-.097c.013-.073.01.179 0 .097m12.729 9.587-.04-.06c-.025-.057.088.11.04.06m.462-8.066c.002.006-.002.029-.002.039-.016-.011-.004-.06.002-.039m1.218 1.02-.013-.024c-.003.024 0 .055-.003.077-.001.003-.013-.006-.014.003 0 .008.016.006.018.019.002.014-.01.077-.01.098.002.082.011.164.005.246-.013-.085-.025 0-.02.024.002.005.032.004.024.09-.005.053-.048.003-.026.093.03-.07.028-.001.029.053 0 .01-.004.084-.003.118 0 .011.016.029.017.044 0 .01-.009.018-.008.033q.004.108 0 .215c-.041-.042-.018.033-.02.037-.011.017-.014-.061-.021-.03l.004.129c.005-.036.034.046.02.061.037-.006-.03.196-.019.226.003.007.02-.035.013.062-.001.01-.012.007-.011.012 0 .004.035.024.016.045-.007.008-.03-.042-.02.068.035-.044.018.151.01.188l.014-.022c-.013.035-.001.042-.002.05-.002.032-.014.077-.013.107.001.035.023.035.014.076l.015-.03-.003.086c-.03-.066-.002.014-.001.02 0 .008-.011-.004-.01.01 0 .001.012-.001.013.02.003.046-.011.039-.011.058 0 .001.01-.005.012.028.008.104-.008 0-.009-.005-.002-.005-.044.03-.029-.058-.005.03-.023.033-.024.037l.003.057c.006.025.02.003.021.008.002.004-.014.066.024.08-.036.03-.032-.017-.038-.067-.007-.007-.014.048-.014.05 0 .071.03.032.048.047.01.009-.01.037.016.01.003.065-.013.026-.015.03-.003.006.005.029.003.031-.001.005-.01-.01-.013.006 0 .003.015.03.022-.004-.002.044.011.04-.015.056.05.031-.03.023-.033.035-.008.032.032.023.034.024.013.012-.001.102.005.124-.03-.009 0-.07-.006-.085-.019-.046-.015.066-.05.032l.029.042c-.023.026-.033-.01-.025.06.02.01-.003-.05.013-.038.01.007.011.048.016.049.006 0-.001-.036.008-.03.02.012 0 .146-.01.044 0 .029-.038.043-.026.068.008.016.061-.074.051.06-.018.003-.005-.053-.007-.055a.2.2 0 0 0-.045.01c-.007.006.016.144-.005.173.024-.012.004.103.011.116.002.003.017-.01.019-.006.009.022-.017.082-.018.11 0 .032.012.028.012.03 0 .013-.01.002-.01.01v.105c.001.001.016-.013.018.006 0 .003-.016.001-.009.058.009.067.021-.047.04-.02-.026.044 0 .043-.003.055 0 .004-.022.034-.02.067l-.011-.07c-.004.022 0 .068-.004.087-.002.01-.02.002-.019.022 0 .004.043.021.024-.032.015-.004.005.021.01.033 0 .002.026.009.01.024-.004.003-.078-.036-.024.066.001.003.01-.009.013-.005.001.002-.003.028-.002.03.002.004.012-.009.014-.005.01.017-.03.04-.027.004l-.015.037c.03-.013.009.02.01.036.006.11.026.036.036.055.016.03-.036.007-.02.052.001.004.023-.05.01.056q0-.024-.002-.047c-.03.009.002.056.003.06.004.041-.007.013.008.075.002.006-.006.018-.002.03.015.048.01-.065.021-.068a.6.6 0 0 1 .002.124c-.013.018-.006-.055-.021-.041-.006.005.006.179 0 .213-.007.04-.047.059-.002.059-.044.011-.014.021-.015.026-.004.063-.004.063 0 .116.001.012-.013.022-.01.026.001.002.015-.002.02.01a.3.3 0 0 1-.017.122c-.008.008-.003-.041-.016-.032-.002.035.002.07 0 .105 0 .015-.01.007-.01.014a.2.2 0 0 0 .012.052c.008-.005.002-.164.018-.122.003.008-.018.036.008.032l-.018.425c-.019-.081-.002-.173-.003-.258 0-.012.002-.052-.011-.047-.003.073.003.163-.005.233 0 .002-.012-.006-.014.002-.003.016.016.067.01.075 0 .002-.016-.027-.026-.019-.024.023.03.029.03.048 0 .015-.027.116-.01.141.018.027.01-.074.025-.067.015.069-.001.138 0 .203 0 0 .012-.01.014.005.003.025-.014.032-.016.044-.003.013 0 .06-.006.066l-.018-.01c-.007-.02.014-.027.015-.03 0-.006-.008-.013-.007-.02 0-.01.008-.016.009-.03 0-.009-.014 0-.013-.009 0-.003.033-.04 0-.043a1.7 1.7 0 0 0-.016.325l.012-.076c-.01.051.017.113-.023.118l-.01.573c-.003.035-.028.016-.021.072l.024-.044a1 1 0 0 0-.011.177c0 .003.023.007.025.039.002.028-.015.033-.018.048-.003.012.001.027 0 .03 0 .003-.01.004-.013.011-.005.022.024.005-.01.026l-.004-.016c-.005.027-.02.063-.028.024-.001-.007.01 0 .01-.006-.003-.196-.023-.04-.007.03-.015.017-.006.116-.009.12-.004.004-.016-.013-.026.009-.003.005.006.137-.014.09-.004-.01 0-.074 0-.09-.032.037.013.121.012.13-.005.039-.028-.073-.031.013-.003.066.018.004.027.03.006.014-.018.089.012.087.004.026-.012.01-.014.014 0 .003.008.053.002.07 0 .002-.017-.004-.018-.002a.3.3 0 0 0 .002.054c.001.002.015-.01.019-.005.003.005 0 .052.004.055.006.004.002-.054.018-.045a.15.15 0 0 0 .019.088c-.004-.004-.005-.03-.003-.04.023.005.022.06.004.042.01.012.015.004.024.01.002.002.003.02.007.023 0 0 .01-.018.014-.014.008.006.006.058.004.063-.006.012-.014-.03-.023-.034-.002 0-.02.035-.022.036-.018.002-.005-.038-.021-.034l-.01.03c-.017-.038-.008-.11-.027-.127.006.056.005.116-.036.116-.018 0-.028-.025-.033-.024-.015.004.002.038.001.04h-.003c-.01 0-.016-.048-.02-.05-.008-.004-.039.017-.046.017-.001 0-.008-.035-.02-.023-.012.011-.013.041-.014.043-.007.005-.014-.047-.018-.05-.002 0-.016.029-.02.03-.003 0-.012-.022-.024-.03-.009-.006-.016.012-.017.009-.001-.002 0-.052-.002-.055-.003-.004-.014.008-.016.006-.004-.002 0-.018-.004-.016-.003.002-.04.064-.05.064-.017-.001.022-.067-.045-.006l.004.016c-.012.01-.031-.039-.028.02-.021-.11-.025-.013-.054-.03-.01-.006-.015-.048-.017-.049-.014.005-.003.018-.01.023-.004.002-.018-.036-.028-.027-.005.004-.003.045-.004.046-.009.016-.019-.003-.025 0-.004.002-.005.027-.005.027-.002.001-.02-.032-.026-.038-.004-.006-.012.014-.014.01-.012-.022.02-.069-.024-.023-.003.002-.002.02-.003.02-.012.01-.013-.021-.023-.027-.018-.01-.008.036-.02-.002a.14.14 0 0 0-.008.077c-.009-.091-.054-.123-.053-.022 0-.032-.025-.029-.026-.038 0-.006.026-.053-.032-.031-.007.002.002.03-.012.022.004-.068-.01-.002-.011-.002-.034 0-.006-.167-.01-.195-.005-.034-.031-.063-.031-.07 0-.024.013-.004.018-.01.005-.005-.02-.072-.02-.076.006-.013.022 0 .023 0 .01-.017-.003-.108.001-.133-.01 0-.011.052-.028.02-.019-.037.027-.04.029-.04l-.002-.509c-.024.002-.006.113-.009.116-.019.014-.018-.173-.01-.196l-.016.053c-.028-.03.009-.096-.004-.14-.004-.013-.014.014-.015.013-.01-.016-.003-.04.012-.022-.014-.038.001-.033.003-.062 0-.002-.012.011-.016-.012-.002-.011-.002-.069-.012-.077-.005-.003-.048.026-.01.03-.019.063.017.02.016.045 0 .003-.021-.005-.012.056-.037-.011-.01-.082-.014-.094-.01-.025-.029.078 0 .097-.029-.009-.003.007-.004.03-.002.026-.01.015-.01.028 0 .038.02.022.001.053.058-.03.008.053-.007.077l-.01-.118-.008.007.001-.031.009.005c-.02-.053.002-.066.002-.07.003-.057.003-.121.003-.178 0-.009-.02-.003-.004-.065.004-.02.02 0 .017-.023-.04-.028-.008-.027-.008-.036 0-.024-.01-.038-.01-.04-.002-.03 0-.073-.002-.105 0-.001-.012.016-.008-.005 0-.008.054-.074.037-.132l-.011.045c.005-.017-.009-.142-.023-.111-.008.018.026.064-.007.069.01-.041-.005-.27.003-.287 0-.003.011.012.013.009 0-.003-.002-.055.002-.062.003-.004.01.019.013.017s.007-.067-.006-.07c.006.015 0 .06-.01.037-.002-.003.007-.019.005-.023-.016-.034-.012.069-.012.084-.017-.064.003-.163-.008-.238.01-.03.016.045.026.01.019-.07-.016-.018-.017-.02-.011-.018.049-.078.003-.078.007-.025.013-.017.007-.053l-.01.014c-.026-.04.04-.125.045-.119.014.017-.007.062-.007.066.001.005.047.02.006.082.031.025.02-.097.042-.042-.003-.037.018-.191.005-.214-.002-.002-.033.01-.017-.028.007-.018.007.025.015.017.021-.025.007-.372.006-.438 0-.004.01-.003.01-.007 0-.013-.015-.06-.01-.083-.018.048-.02-.045-.018-.069.003-.035.02-.033.024-.049.014-.06-.027-.152.01-.198-.036.002.02-.08.02-.118 0-.03-.025-.073-.04-.033.002-.05-.005-.104-.007-.152 0-.008.01.003.01-.01 0-.002-.012-.004-.013-.015-.01-.096.014-.05.02-.067l.007-.023.006.137c.024-.014-.004-.123.002-.155l.014.002c0-.012-.004-.088-.02-.073a.3.3 0 0 0-.003.081c-.003-.011-.017-.003-.018-.005-.007-.024.007-.083.01-.104 0-.004-.01-.004-.01-.005.002-.019.03-.011.001-.03.034-.035.005.064.027.057.017-.005.008-.225-.019-.224q.005-.001.01-.01c.01-.014.007-.075.002-.086 0-.001-.026 0-.027-.003 0-.006.02-.08.005-.108l-.011.045c0-.09-.008-.077-.016-.046v.004c-.006.023-.012.054-.014.054-.008.002-.012-.153.012-.123.003.004-.007.076.01.04.002-.006-.002-.052 0-.054.012-.016.028.084.046.072-.017-.025-.008-.056-.012-.084-.002-.012-.015-.016-.015-.017-.004-.023.01-.01.01-.018 0-.004-.03-.05.01-.042-.029-.152-.029-.042-.027.051-.014-.03-.007-.087-.01-.113-.002-.009-.015-.003-.017-.02-.006-.032.01-.186.013-.226.004.025.019.017.018-.002s-.02-.003-.022-.006c-.003-.004.006-.094.004-.109.007.068.021.053.023-.005l.012.025c-.006-.033.016-.104.01-.123-.001-.003-.013.008-.014.006-.005-.017.007-.074.003-.077-.003-.003-.014.022-.018.013-.002-.002.015-.026.01-.049 0-.009-.012-.003-.013-.006-.005-.018.014-.007.01-.04-.001-.025-.02-.043-.014-.077-.024.111-.014.018-.021-.028-.001-.008-.022-.001-.012-.046.038.095.02-.027.02-.051 0-.002.014-.002.014-.014 0-.001-.009 0-.01-.011-.006-.107.004-.039.013-.06.004-.008-.009-.06-.01-.074 0-.003.01-.002.01-.014 0-.023-.011-.042-.012-.057 0-.002.015-.002.01-.03-.001-.007-.006-.016-.01-.005-.015.037.01.106-.005.148-.012.037-.014-.082-.014-.088 0-.002.008.021.01-.002 0-.02-.026-.057-.02-.087 0-.003.023-.027.024-.026 0 .001.006.038.012.033 0 0 0-.024.005-.027.006-.004.063-.014.064-.02.004-.012-.01-.004-.008-.012.002-.018.019-.08-.001-.082l-.004.031c-.002-.057-.01-.032-.014-.04-.004-.01.013-.007.015-.026 0-.004-.003-.084-.01-.083.011.045-.01.028-.01.03-.002.008.01.018.01.028-.002.074-.021 0-.026.017-.002.006.009.018.008.02-.002.009-.015.009-.014.014.003.013.022-.002.023-.001.011.012-.003.056-.024.028-.007.017.018.019.008.032-.02.027-.015-.013-.018-.024-.012-.038-.003-.05-.006-.104-.001-.02-.013-.042-.014-.051 0-.006.042-.06-.024-.062.006-.02.05-.054.048-.075s-.026-.013-.026-.015c-.002-.003 0-.026-.003-.034-.004-.01-.013-.005-.017-.02-.009-.037.015-.036.017-.04.018-.043-.017-.024-.02-.034-.002-.009.011-.136.003-.162l.014.032c.015-.02-.01-.04.018-.04-.044-.004-.015-.044-.016-.056 0-.005-.008-.005-.008-.01-.001-.024.005-.076 0-.089-.015-.054-.042.085-.044.096 0-.022-.01-.146-.03-.089-.003.009.016.024.017.03.005.033-.012.007-.014.01-.003.004.014.026.012.032 0 .002-.016-.011-.017.021-.015-.016-.002-.106-.006-.117-.001-.005-.034.022-.002-.055l-.01.002-.003-.128c.007.005.021.029.018-.002-.002-.017-.017-.004-.018-.006-.004-.015.001-.293 0-.346-.001-.019-.014-.07-.014-.073-.001-.024.007-.106.005-.122 0-.01-.014 0-.013-.01 0-.008.013 0 .013-.002.005-.021-.012-.18 0-.218a.4.4 0 0 0 .03.136c.002 0 .012-.028.007-.034.01-.01-.022-.042-.016-.06 0-.002.02.006.023-.026 0-.011-.014-.04.003-.069-.008-.041.016-.26-.004-.276-.001 0-.008.03-.016.01-.011-.028.026-.003.029-.035 0-.005-.003-.095-.006-.098-.02-.028-.029.051-.03.05a.2.2 0 0 1-.01-.07c.002-.003.03.05.02-.014l-.01.022c-.007-.03.012-.033.013-.04.004-.023-.025-.048.01-.084.01-.01.02.006.022.005.012-.011-.021-.026.004-.044.002 0 .017.04.017-.031l-.008.014a.4.4 0 0 1-.007-.09c.004-.029.021-.004.02-.032-.025.018-.028-.068-.007-.063-.026-.012-.006-.085-.006-.12 0-.021-.01-.065-.009-.072.002-.009.02-.006.023-.021.001-.005-.012-.05.006-.09.004-.007.034-.023.041-.009.013.025-.011.07.006.07.02 0 .008-.062.01-.08.012-.076.032-.032.038-.034.015-.005.014-.047.015-.049.006-.007.018.023.027.023.012 0 .033-.04.037-.03.005.013-.012.05-.011.052.01.031.038-.011.051-.023.004-.003.01.01.012.008.018-.045-.038-.01-.034-.04.003-.026.02.008.022.007s.002-.033.008-.038c.003-.002.038.08.053.077l-.01-.08c.02-.001.005.037.008.04.004.008.014-.014.02-.013.004 0 .019.027.025.003.002-.008-.012-.024.002-.054.018.102.03.032.037.029s.024.045.021-.014c.04-.002.012.002.02.018.008.02.02-.027.01.048.02-.004.018-.064.02-.067 0-.003.01.01.013.005.035-.056.02-.017.042-.034.002 0 .01-.054.014-.014.006.074-.02.105.035.117.024-.054-.012-.12-.012-.137-.001-.025.01.001.014-.002v-.023c.043-.016.001.097.009.133l.019-.029v.039c.013-.062.005-.002.04.013.007.004-.006-.037.016.01.005-.035.012-.024.002-.055.014.001.03.07.036.098.016-.097-.035-.042-.008-.125-.017-.016-.014.024-.017.02-.01-.01.006-.038-.03-.071-.005-.006-.023.017-.022-.017 0-.003.015-.025.017-.025.012.003.007.024.012.025s.002-.022.003-.023c.015 0 .006.02.01.017.01-.006.043-.091.034.02-.017-.093-.017-.012-.01.024.001.01.01.012.014.024.004.017 0 .037 0 .046.003.01.024-.044.018.033.02-.04-.002-.108.013-.147.03-.078.036.054.04.068 0 .004.012-.009.013-.006.001.004-.005.079.006.086s-.001-.027.01-.03c.006-.001.019.089.024.04.003-.034-.025-.096.005-.106l.008.148.035-.08c.003.055-.01.103.007.155.037-.126.03.042.034.043.003.001.033-.049.038-.057.012.044.017.179.055.1-.009.014.012.049.013.049.017-.005.006-.08.021-.068.017.014-.006.034-.004.056.01.113.095.082.082.195l.009-.007-.015.367a.6.6 0 0 1 .04.239l-.017.08c-.005.008-.007-.04-.015-.018-.002.004-.008.11.007.102.001-.012-.006-.049-.002-.055.024-.042.005.281.014.297l.015-.021zm-1.177-.937c-.014-.012-.003-.043-.007-.061-.006-.025-.063-.068-.006-.05zm-.021.538c.008-.025.04-.006.026.015-.002.002-.037.018-.026-.015m.015-.259-.001.023c-.013.02-.01-.045 0-.023m.016 1.25c-.001-.027-.03-.007-.018.01 0 0 .018-.008.018-.01m0-.02c.026-.02-.026-.063-.02-.029 0 .003.02.03.02.03m-.019-1.059c.01.003.005.028.003.04-.009-.001-.002-.03-.003-.04m.003.645c.008.002.007-.087-.003-.093.004.014-.004.092.003.093m.01.227c.002-.002 0-.032-.007-.032-.009.015.002.043.008.032m0 .451c.002.002.046-.02.017.034-.004.007-.015-.021-.017-.018l-.005.014a.2.2 0 0 1-.003-.054c.013-.012.008.024.008.024m.033.237c.007.006.003.039 0 .046 0 .002-.019-.004-.018.01.002.013.02-.005.018.018-.003.024-.017-.008-.018-.006-.001.003.007.04-.004.039-.008-.001-.002-.04-.004-.05-.003-.013-.016.003-.013-.018.002-.013.026-.006.027-.009 0-.002-.013-.048.012-.03m-.037-.2v-.007zm.011-1.739c-.007.013-.017-.025-.007-.04.008 0 .008.038.007.04m.009 1.762c-.006.038-.015.01-.02-.023.005.01.022.01.02.023m-.01-1.065q-.003.003-.01.003.008-.007.01-.003m-.008.088c.014.03.013-.032.003-.031-.004 0-.004.03-.003.03m.006.708c.002-.003.044.04.012-.022-.005.033-.01-.002-.013-.001-.01.001 0 .057-.005.069.02.01.002-.037.006-.046m.019.873c-.012-.008-.008-.031-.007-.047.01.007.007.03.007.047m-.002 4.214c-.01-.11.035-.124.017-.023 0 .002-.012.03-.017.023m.012-.947c.02-.01.023.024.015.047-.002.005-.022.024-.026.002.024.001.033-.032.01-.049m-.004-3.85c.013.012.003.045.002.063-.011-.01-.006-.047-.002-.062m.016 4.435c.001-.012-.016-.02-.017-.018-.007.01.007.03.017.018m-.014-4.543c.008-.002.015.043-.004.046.001-.01-.001-.045.004-.046m-.002.66c.004-.006.01.03.007.04-.009 0-.01-.035-.007-.04m.01 3.695c.002-.01.002-.036-.005-.039-.009-.003-.006.035.005.04m.015 1.938c-.003.002-.026-.038-.02-.056.011-.035.022.055.02.056m0-1.64c-.017.033 0-.004-.018-.002 0 .022-.002.077.015.039.004-.008.002-.027.003-.037m.006-.03c-.006-.004-.024-.028-.022-.007 0 .01.02.025.022.007m-.014 1.42c.016-.029.008.106.005.11l-.004.004c.005.005.006.03-.007.034.001-.008 0-.029.002-.031l.001-.003c-.01-.009 0-.108.003-.113m.016-.223c.023.034-.016.04-.017.037-.016-.037.013-.013.014-.014.002-.003-.01-.029.003-.023m-.01.178v.03c-.014.024-.01-.056 0-.03m.008-5.555c-.004.02-.018 0-.013-.013 0-.001.016-.005.013.013m-.004 4.163c.002-.004.012-.124-.009-.117.003.01-.008.146.009.117m.005-.897c0 .021-.02-.002-.013-.013.003-.005.013.007.013.013m-.012-3.769c-.011-.022.026-.017.013.002zm0 3.938c-.012-.073.052-.056.03.04l-.008-.01c-.01.11-.005.008-.008-.019-.002-.01-.012-.002-.014-.01m.013-.28c.046-.07.016.063.022.102-.019-.037-.016-.086-.035-.02-.004-.097.014-.056.016-.06.001-.005-.005-.02-.003-.023m0 .185c.002.004-.008.035-.006.046-.015-.016-.003-.073.006-.046m-.01 1.803c.012.002.02.008.016.033-.006-.008-.011-.023-.016-.033m.009-7.355c0-.017.005-.05-.008-.04 0 .001 0 .04.008.04m.005 6.027c.001-.004.002-.096-.011-.064-.004.01-.003.093.01.064m-.002.474a.1.1 0 0 0-.005-.04c-.01-.002-.005.036.005.04m.009-6.585c.001-.002-.001-.053-.007-.048-.011.01.003.055.007.048m.015 2.37c0 .004-.012.01-.013.01 0 .004.005.082-.012.052a1 1 0 0 1 .006-.131c.018-.006 0 .042.003.054 0 .002.015.003.016.014m-.024 5.195c.012.003.02.095.006.093zm.002-.047c.009-.02.011.026.008.04-.008 0-.009-.037-.008-.04m.041-1.107c-.003-.009-.02.02-.023.013-.002-.004.005-.025 0-.031-.002-.002-.018.019-.018.025.001.009.014 0 .014.01 0 .03-.009.058-.009.088 0 .002.01-.018.01.004 0 .004-.014.025-.012.052.04.06 0 .103.015.178a.4.4 0 0 0 .015-.062 3 3 0 0 0 .007-.242c0-.018-.008-.01-.009-.017 0-.005.016.002.01-.018m-.038-6.318c.016-.008.006-.036.007-.054-.014.006-.003.036-.007.054m.01 7.014c-.001-.008.004-.036-.001-.038-.006-.003-.01.036 0 .038m.005-4.299-.001.023c-.013.02-.01-.045 0-.023m-.003.513c.002.016.007.033-.006.038.002-.01-.003-.04.006-.038m0 .708c.017-.004.006.045.005.055-.008-.004-.017-.053-.005-.055m.024 3.406c-.002.03.024.024.012.043-.002.003-.055.013-.035-.02.004-.006.017.017.023-.023m-.026-1.65c.011.008.008.032.007.048-.008-.003-.006-.036-.007-.047m.007-5.877c.015-.014.004-.079-.007-.063-.001.002.007.054.007.063m-.006 2.13c.012.026.016-.029.004-.046zm.01 1.82-.001.032c-.013.023-.01-.057.001-.031m.011-.706c.01.01.002.078-.008.093-.015-.015-.005-.105.008-.093m-.004 4.16a.3.3 0 0 1-.007.061c-.008-.004 0-.059.007-.06m-.006-3.35v.005zm.012 2.872c.004-.018-.012-.014-.013-.013-.005.014.01.034.013.013m-.01-6.762c.014-.006.003-.036.006-.053-.011.005-.008.04-.006.053m-.002 5.303c.016-.022.034.07.024.088-.01.002-.026-.085-.024-.088m.01-3.42c.01-.002-.002-.04-.008-.032-.003.005 0 .033.008.032m.007 3.554c.003.009-.008.029-.014.022-.009-.01.013-.024.014-.022m.009.771c.002-.004-.01-.054-.021-.033-.008.014.008.016.008.02s-.02.085.013.013m-.016-1.417c.004.02 0 .042 0 .062-.007-.008-.01-.054 0-.062m.003-2.76c.004-.005.007-.13-.007-.06 0 .005-.007.074.007.06m0 5.332.002-.013q0 .008-.002.013m.002-.34c.008.007.01-.027.006-.038-.01-.003-.007.037-.006.038m.006-2.168c.005.011 0 .032 0 .046-.008-.002-.008-.041 0-.046m.008-.807c-.004.022-.002.05.007.051l-.004.003c-.002.002.002.027 0 .037-.02.064-.012-.245.014-.066zm.003-1.058c.011-.013-.003-.05-.007-.04-.003.006-.004.053.007.04m.006.498c.002-.004-.005-.04-.011-.04-.006.02.002.058.012.04m.007-.598c.002-.008-.016-.018-.017-.017-.007.008.007.03.017.017m.017 4.411c.005-.012-.008-.05-.02-.059q.004-.002.01-.013c.004-.01.01-.322-.014-.113 0 .006.01-.003.008.024 0 .002-.008.003-.009.008 0 .013-.006.08 0 .093l-.004.002c-.012.017.025.068.03.058m-.022-3.743c.003-.007 0-.03-.007-.032-.004.011 0 .049.007.032m.004-1.531c.007-.014-.005-.051-.011-.04-.004.007.004.057.011.04m-.008 1.305c-.01.084 0 .02.012.033zm-.003 4.355c.003-.014.025.002.013.017-.004.004-.015-.01-.013-.017m.007.6c.02-.012.008.043-.006.022zm.008-.42c-.014-.009-.015-.015-.012-.04.004.038.016.003.012.04m-.01-3.768h-.002zm.003-1.287c.012-.01.011-.04 0-.031-.002 0-.008.027 0 .03m.001 4.43q-.003.002-.004-.002zm.009-4.273c-.009-.001-.012.043-.011.045.015.026.011-.027.01-.045m.005-1.236c0-.002-.023.013-.014.022.007.007.018-.013.014-.022m-.003 6.22c0 .015 0 .034-.01.038.002-.01.003-.038.01-.038m.001.312c-.012-.017-.012-.055-.01-.08.016 0 .006.064.01.08m.002-.926s.006-.036-.005-.031c-.016.007 0 .041.005.031m-.011-5.537c.007.015.03-.02.012-.038-.009-.008-.014.035-.012.038m.011.919c-.006-.021-.017.03-.006.038.001-.01.009-.03.006-.038m.012.709c.033-.066-.027-.03-.022-.019.001.002.021.02.022.019m-.008-3.757c-.005-.01-.021.025-.01.03.006.003.013-.024.01-.03m-.013 4.745v-.008zm.053-1.886c-.046.046-.01.04-.01.045-.001.009-.014.029-.012.045l-.015-.056a1 1 0 0 0-.013.146c.01.004.007-.037.008-.038.002-.002.031-.008.032-.012.002-.006.003-.113.01-.13m-.037.76c-.004.01-.015.014-.013.019.001.001.012.002.015.007zm-.004-.843c.013-.013.008.045.007.047-.01.01-.018-.037-.007-.047m.002.498c0-.003.005-.048-.003-.047-.006.012-.007.072.003.047m.005.378c-.001.016-.012.046.004.043zm.014-1.47c.027-.029-.007-.015-.015.011.012.008.01-.006.015-.01m.02-.093c.005-.008 0-.092-.014-.08-.005.005.007.053.006.055-.001.004-.017-.011-.014.014.006-.001.02.014.022.01m-.003.07c.02-.03-.017-.036-.017-.014 0 .008.015.018.017.013m-.003.118c.004-.01.009-.038-.003-.057l-.004.077c.007.003.004-.01.007-.02m.057 6.49c.01-.024.014.03.012.032-.009.007-.017-.022-.012-.032m.25-8.948c.005-.006.019-.01.011-.025l-.03.043c.023.011.015-.01.02-.018m.087-.054c0 .002.037-.01.013.017-.017.017-.033-.078-.017-.096.008.02 0 .061.004.079m.157-.168c.003 0 .008.036.006.04-.011.022-.021-.034-.006-.04m-.006.116c.007-.017.011.02.007.032-.007.001-.009-.03-.008-.032m.038 8.82c.025-.02-.028-.036-.017-.008 0 .002.016.008.017.007m.005-8.9c-.007.017-.011-.02-.007-.032.006-.001.008.03.007.032m.054 8.886c.018-.024-.042-.016-.044-.013-.01.013.014.056.02.065-.01-.065.016-.04.024-.052m-.036-.113c-.006-.022-.018.036-.001.047-.001-.012.003-.04.002-.047m.02-.137c.002-.013.007-.049-.002-.055.001.013-.008.05.002.055m.028-.028c.013-.02-.025-.024-.013-.002 0 .001.012.003.013.002m.013-.107c.015-.013-.021-.027-.022-.007 0 .006.02.008.022.007m.04.355c.006-.018-.02-.041-.023-.003l-.011-.04c-.015.05.02.046.02.06-.003.02-.032.019-.041.015.018.016.018.086.021.127.008-.036.021-.094.026-.129.001-.01-.007-.02-.006-.028.002-.014.013-.002.014-.002m-.04-.496c.018-.037-.019-.014-.012.007zm.031-8.409c-.015.05-.035.014-.005.116-.021-.043-.015-.002-.024-.01-.007-.007-.001-.033-.015-.018.015-.02.011-.103.014-.107.001-.002.035.003.03.02m.022 8.684c.044-.012-.026-.017.01-.04-.052-.033 0 .088-.044.102.006-.13-.044.087.023-.004-.024.075.008.024.017.036s-.001.055.015.053l-.003-.078c-.036.025-.025-.028.004-.046zm-.033.148c.001-.002-.004-.06-.011-.056-.005.008 0 .089.011.056m.008.25c0-.02.007-.052-.006-.063 0 .02-.007.052.006.063m.002-1.05c-.01-.026-.014.054 0 .031zm.017.593c.013-.026-.03-.014-.018.006zm-.01-8.585c.01.002.002.073.003.086-.01-.008-.016-.088-.004-.086m.03 9.078c.038-.04-.006-.096-.005-.102s.018.004.018.002c0-.003 0-.067-.002-.07 0-.002-.024.01-.03-.004.012.026.004.143.007.149.002.005.026-.03.012.025m0-.117c-.01.016-.01-.029-.007-.04.008-.024.008.038.007.04m.01-.108c.001-.005.003-.05-.008-.055-.014.022.002.067.007.055m-.002-.513c-.002-.012.007-.045-.003-.047.002.012-.007.045.003.047m.044-8.097c.007-.02.01.026.007.04-.006 0-.008-.038-.008-.04m.018 8.338a2 2 0 0 0-.009-.172 1 1 0 0 0-.004.17c0 .001.012.003.013.002m.004.313c.014.013-.003.022-.003.024-.002.016.001.05-.012.043.005-.03-.012-.093.015-.067m-.003-.564c-.006-.05-.02.045-.006.033l.005-.033m.003.267c.011.01.001.156.001.179-.02-.02-.005-.038-.006-.066 0-.007-.009-.005-.009-.006 0-.013.01-.003.01-.011 0-.006-.012-.111.004-.096m.01.304a.4.4 0 0 1 .009.103c-.016.027-.012-.096-.01-.103m.008-.317c.024.015.008.087-.004.038 0-.005.01-.025.004-.038m.001-.249c.001-.002.006-.054-.002-.055-.003.008-.005.083.002.055m.026.026s-.015.011-.013-.013c0-.002.017-.005.01-.036 0-.006-.011-.015-.012-.015-.026.032.024.127.015.064m-.022.542c.007-.005.028.007.017.018-.004.004-.017-.004-.017-.018m.003-.73c.013.03.015-.064.012-.069-.008.003-.013.066-.012.069m.049-7.883c-.003.025-.014.01-.014.01-.015.054.008.04.011.048.006.018-.023.015-.01.045-.018-.05-.01-.004-.021-.003-.042.006.02-.066.01-.091 0-.004-.014.022-.018.013-.012-.029.053-.118.042-.022m-.033 8.639c.012.011 0 .1-.01.076-.001-.004-.008-.093.01-.076m.018-4.12c.011.022.024-.027.015-.036-.004-.005-.02.027-.015.037m.046-.344c-.002-.025-.047-.051-.04-.02.001.003.034.023.04.02m-.023 1.654c.016-.026-.014-.025-.013-.005 0 .006.013.006.013.005m-.004-1.004c.001-.002 0-.033-.007-.032-.004.012 0 .05.007.032m.008 1.012c-.005-.015-.026.011-.006.03-.001-.01.007-.028.006-.03m-.004 2.402c-.012-.013-.008-.05-.01-.07.016-.003.008.055.01.07m.005-3.957c-.011-.024-.02.027-.005.023 0 0 .006-.022.005-.023m0 2.395c-.008-.017-.021.038-.005.023zm-.005.24c.004-.013.003-.069-.006-.047-.002.003-.002.046.006.047m0-6.858c.017-.007.013.035.01.04-.001.003-.03-.03-.01-.04m.003 5.6c-.002-.015.002-.05-.007-.056.002.017-.01.06.007.055m.002-1.268c.018-.02.016-.056-.007-.047.002.039.02-.005.007.047m.018 1.534c.002-.011-.02-.02-.021-.018-.01.012.013.029.021.018m-.018-.819c.01 0 .005-.035 0-.03-.003 0-.008.03 0 .03m0 2.675c.01-.016.018.033.008.048-.015.007-.008-.046-.007-.048m.013-1.554c.014.002.006-.053-.006-.031-.003.005.001.03.006.031m.016.524c-.016-.037-.028.117-.007.077zm-.01.251c.002-.006.049-.003.03.023-.002.004-.014-.013-.017-.01a.4.4 0 0 0-.007.062c.001.002.016-.001.018.002s-.011.038-.011.056c0 .035.012.039.012.042 0 .008-.009.022-.009.039 0 .084.01.213-.016.28.01-.06 0-.116-.004-.175.026.017-.02-.088.01-.027a2 2 0 0 1-.006-.292m.012-2.926c.016.015.012-.064-.006-.07a.3.3 0 0 0 .006.07m.04.366c.002.008.033.014.017.053-.004.012-.012-.001-.015 0 0 .002-.016.037-.019.008-.004-.045.023-.005.024-.029 0-.002-.017-.048-.02-.045-.001 0 .002.014 0 .016-.005.009-.015.005-.015.006-.002.004.015.075 0 .085a.6.6 0 0 1-.012-.118c.001-.003.028-.002.03-.005.002-.001-.008-.048-.005-.054l.002-.004c-.009.007-.008-.036.001-.035.004.001.002.03.001.032.01-.005.01.094.024.073.009.028-.022-.004-.014.017m.016.138-.009-.008c.007.05-.006.108-.006.166 0 .015.017-.002.012.017-.004.016-.02.033-.023.024-.001-.002.01-.033.008-.049-.003-.046-.018-.035-.018-.037 0-.003.01-.033.01-.049-.002-.04-.011-.058 0-.113.01.032.032.014.026.05m-.032 1.878c.01.002.001.035.002.047-.009-.002 0-.035-.002-.047m.012-4.912c-.015-.01-.02.065-.006.045a.2.2 0 0 0 .006-.045m-.01.34c.005.01.016-.03.004-.03-.004 0-.004.03-.003.03m.015 3.346-.004.03c-.017.019-.007-.073.004-.03m.005-2.931c-.01-.035-.015.071-.002.039zm.003.148c0-.008.004-.046 0-.047-.008 0-.013.043 0 .047m-.004 3.483c.018-.004.005.046.007.063-.018.004-.004-.045-.007-.063m.013-.313c.014.21-.023.163-.008-.013.011 0 .007 0 .008.013m-.002.268c-.01-.008-.008-.032-.007-.048.008.003.005.036.007.048m.004-4.432c.014.013-.003.072-.009.061-.001-.002.001-.066.009-.06m-.005 3.794c.017-.005.01.058.007.063-.015.02-.003-.058-.006-.063m.005.98c.014.012.007.043.007.063-.012-.009-.007-.045-.007-.063m.01-.146v.03c-.013.024-.01-.056 0-.03m.013-6.118-.001.023c-.013.02-.01-.045 0-.023m6.023-16.26c.007.07-.035.168-.039.249q0 .035-.003.069c-.008.154-.02.262-.032.373l-.011.097a1 1 0 0 0-.004.148c.006.1.044.26.123.417l.046.086.046.087c.113.21.284.38.359.507.03.054.055.112.029.154l-.004.008c-.024.034-.106.04-.16.062a.1.1 0 0 0-.039.023c-.046.041-.24.39-.416.29-.158-.091-.38-.36-.49-.597-.025-.05-.037-.082-.051-.114l-.08-.172c-.047-.088-.129-.19-.172-.316a2.2 2.2 0 0 1-.107-.569q-.005-.068-.012-.126a2 2 0 0 0-.055-.266l.046-.109.113-.271c-.02-.166.044-.41.032-.5-.009-.076-.053-.113-.067-.181-.008-.035-.009-.077-.015-.127a.6.6 0 0 0-.065-.214c-.117-.204-.232-.184-.323-.259l-.017-.013c-.085-.079-.253-.264-.467-.347l-.09-.013.011.098c-.101-.046-.117-.117-.208-.171-.058-.035-.109-.046-.155-.057-.038-.01-.073-.017-.106-.037-.06-.034-.12-.116-.2-.159-.09-.05-.112-.019-.15-.016q-.015.001-.036-.007c-.028-.012-.484-.234-.502-.24-.173-.085-.151-.164-.267-.213a1 1 0 0 0-.09-.028 1 1 0 0 0-.53.038c-.103.037-.22.11-.358.195a7 7 0 0 1-.517.295c.073-.149-.018-.19-.11-.176l-.028.015h-.004l.029-.015c-.118.018-.234.123-.016.202a.8.8 0 0 0-.214.12c-.031.024-.06.05-.105.081a1 1 0 0 1-.274.147c-.173.054-.303.05-.55.085q-.105.015-.21.025l-.13.012c-.04.004-.077.008-.132.01-.265.01-.49-.056-.523-.214a1.6 1.6 0 0 1-.453-.173l-.11-.063c-.136-.074-.255-.123-.366-.102a.3.3 0 0 0-.055.017c-.097-.044-.265-.286-.354-.354-.049-.037-.289-.205-.47-.26a1.3 1.3 0 0 0-.367-.057 1 1 0 0 0-.226.027.6.6 0 0 0-.158.06c-.109.068-.083.288-.425.197a4 4 0 0 1-.405.239h-.003l.034-.016c-.07.035-.145.07-.242.114-.048.022-.072-.007-.098.008-.03.018-.069.05-.113.085q.005-.002.001 0-.058.045-.116.083c-.155.096-.282.083-.205.173a4 4 0 0 0-.254.23l-.127.009a1 1 0 0 0-.062.151c-.03-.06-.075-.055-.107-.02-.058.061-.07.186.02.165a1.3 1.3 0 0 0-.322.438c-.196-.079-.069.44.046.4l-.002.075c-.038.163-.023.324-.024.51a2.3 2.3 0 0 1-.031.375.6.6 0 0 1-.037.123c-.02.032-.045.051-.084.09q0 .116-.012.232c.114.346-.094.342-.243.584a1 1 0 0 0-.06.104c-.014.031-.026.063-.045.112l-.049.127c-.187.07-.39.32-.642.506l-.097.072-.122.093c-.03.023-.016.05-.055.081a1 1 0 0 1-.105.068c-.117.068-.26.145-.218.203q-.158.04-.309.082-.093.087-.169.172l.053.073c-.09 0-.17.045-.227.1-.06.057-.105.122-.144.16-.016.015-.054-.005-.1.05-.05.059-.1.187-.137.277l-.01.022q.051.072.108.133c-.002.156-.122.22-.137.335-.005.018 0 .411.004.434.009.078.034.111.057.169.03.073.057.183.045.471l-.001.023c-.008.081-.038.15-.039.224-.004.15.092.56.174.564a.36.36 0 0 0-.016.238c.033.133.11.257.13.315.012.03-.036.071.018.16a.3.3 0 0 0 .058.064c.066.06.188.123.258.175.098.076.117.143.166.177.048.032.114.023.184.063.096.055.184.12.268.183.103.078.199.154.296.209.036.02.071.036.119.06.252.123.511.236.709.42.036.06.057.129.091.192l.01.017.059.102.065.118c.155.297.24.641.24.986 0 .054-.002.094-.003.135l-.014.358c-.012.311-.033.626-.014.865.005.057.008.126.02.197.035.22.17.48.279.526.049.02.083-.004.107-.082.039.013.128.117.312.253a12 12 0 0 0 .554.39c.148.088.29.116.409.181l.006.004c.341.188.61.41.917.446l.03.003c.099.007.201-.046.253-.047.064 0 .14.05.229.036l.03-.006c.162-.014.576-.281.804-.408.04-.022.078.004.137-.01l.017-.005c.116-.04.23-.093.315-.148a1 1 0 0 0 .1-.08c.062-.056.085-.108.033-.15.331-.093.627-.188.942-.22l.13-.01c.039-.002.076-.005.131-.004l.053.001c.285.011.645.093.98.283l.095.057.33.2c.373.225.746.44.91.44a1 1 0 0 0 .098.006c.202-.01.242-.062.401-.086.043-.008.096-.015.202-.045.092-.027.2-.064.336-.121.133-.057.276-.103.406-.155.17-.069.32-.149.413-.292l.014-.022c.366-.167.614-.338.852-.377a1 1 0 0 0-.018-.117l.013-.015q.027-.03.051-.064.046.015.094.027a.8.8 0 0 0 .147-.417c.006-.117-.013-.252-.008-.38.006-.138.008-.368.011-.633l.007-.387.004-.128c.015-.391.15-.761.303-1.01.028-.048.049-.077.069-.107l.094-.135c.191-.242.169-.296.384-.326q.063-.08.134-.154.023-.075.051-.148.066-.046.138-.087c.044-.025.077-.04.11-.058.006-.003.023-.012.03-.014l-.028.014c.107-.053.22-.106.329-.157a6 6 0 0 0 .356-.181c.19-.11.408-.252.516-.391.12-.147.208-.32.263-.489a2 2 0 0 0 .07-.306c.023-.12.085-.289.085-.424 0-.128-.043-.193-.073-.292a.7.7 0 0 1-.03-.21q-.002-.13.009-.295c.02-.369.085-.839.019-1.054a1 1 0 0 0-.054-.145c-.044-.088-.1-.108-.139-.16a2 2 0 0 0-.143-.165q-.165-.16-.5-.282c-.26-.26-.178-.354-.215-.518l-.008-.031q.006.002.004 0c-.044-.143-.15-.42-.143-.504.006-.063.128-.08.127-.155a3 3 0 0 1 .297.144l-.022-.012.002.001.021.011c.2.117.326.236.523.432.16.098.336.214.491.382.205.22.363.484.459.77.097.294.101.563.11.804l-.103.186a.7.7 0 0 0 .014.294c.02.075.047.136.058.204q.02.142.037.3c.021.349.106.728-.05 1.304a2.1 2.1 0 0 1-.468.801c-.387.388-.763.522-1.107.714l-.35.18.025-.012-.087.045a1.37 1.37 0 0 0-.535.524l-.053.086q-.075.133-.116.264a1.3 1.3 0 0 0-.05.375l.003.1c.004.129.009.262.011.387.006.25.002.475-.023.567-.016.058-.07.073-.074.135.002.17-.004.359-.054.553a2.1 2.1 0 0 1-.393.787 2 2 0 0 1-.3.294c-.268.165-.514.285-.758.423q-.22.122-.437.25c-.347.192-.65.441-1.153.573a2.1 2.1 0 0 1-.897.008l-.008-.002c-.508-.129-.816-.369-1.162-.558l-.334-.195-.07-.04a1.4 1.4 0 0 0-.625-.163h-.102c-.038.001-.077.001-.101.003-.216.01-.427.072-.612.178l-.087.053-.31.19c-.343.196-.644.444-1.17.584a2.2 2.2 0 0 1-.921.012c-.532-.126-.84-.366-1.189-.552l-.434-.25c-.312-.189-.632-.333-.985-.656a2.3 2.3 0 0 1-.563-.898c-.137-.45-.102-.8-.092-1.094.005-.088.022-.155.036-.222a.85.85 0 0 0 .007-.4l.07-.008-.008-.058c-.035-.18-.1-.296-.177-.48a2 2 0 0 0-.057-.117l-.053-.092c-.02-.034-.04-.07-.055-.093a1.6 1.6 0 0 0-.357-.388c-.056-.043-.032-.063-.062-.093a.1.1 0 0 0-.026-.02l-.069-.034c-.09-.043-.21-.094-.331-.146a4 4 0 0 1-.343-.165 3.7 3.7 0 0 1-.726-.574 2.3 2.3 0 0 1-.502-.769c-.18-.513-.15-.913-.15-1.307v-.025c.005-.176.056-.4.06-.47v-.008c-.004-.113-.06-.146-.066-.223a2.7 2.7 0 0 1 .127-1.092c.066-.174.15-.328.226-.453q.115-.185.264-.347c.386-.392.753-.534 1.097-.74l.317-.178.086-.049c.178-.108.329-.259.437-.435l.05-.084.048-.086a1.35 1.35 0 0 0 .159-.596l-.002-.098-.005-.374c.006-.38-.054-.789.097-1.311.104-.324.282-.6.47-.797a2 2 0 0 1 .177-.16c.153-.115.15-.034.269-.118.13-.088.178-.162.235-.202.106-.07.243-.158.394-.254l-.003.002q.211-.134.43-.267l.04-.021.003-.001-.041.02c.314-.19.64-.385.908-.463.1-.03.188-.006.25-.021q.014-.005.041-.018c.034-.017.083-.042.147-.053.27-.045.526-.033.762.018.521.133.798.372 1.169.59l.07.044.24.148.088.053c.185.105.4.165.622.17h.103l.101-.002c.215-.01.428-.072.615-.18l.087-.052.343-.207.003-.002-.034.018c.346-.197.656-.444 1.169-.57q.152-.03.306-.04c.288-.017.495.08.588.124q.043.02.06.025c.108.027.204-.011.407.065.253.099.489.237.728.377q.217.129.43.258c.237.142.466.274.685.407.119.073.274.166.422.302.186.166.35.377.442.57q.043.087.085.218c.116.37.08.758.112.84.02.065.088.095.096.173M20.07 7.396c.014-.034-.025-.048-.072-.05a1 1 0 0 0-.128.013c-.085.015-.148.041-.058.074q.016.005.055.006a.6.6 0 0 0 .13-.014c.037-.007.068-.018.073-.029m-5.842 11.34.092-.017a2 2 0 0 0-.053-.196q-.022.059-.045.114zm7.025-.569c-.027.017-.08-.009-.116-.001-.15.032-.21.017-.347.03-.198.028-.797.115-.793-.175v-.008c.002-.054.049-.113.054-.174.006-.06-.004-.452.05-.476.08-.03.283.052.328.04.03-.007.06-.047.098-.06.116-.04.187-.03.267-.151q.082.057.17.11c.048-.04.154-.006.187-.023.027-.013.029-.057.056-.07.03-.015.097.005.151-.028.09-.053.058-.156.104-.195.048-.04.16-.04.208-.114l.006-.045-.06-.055c.026-.03.07.005.1-.014.035-.023.023-.077.046-.093.018-.013.068.002.09-.019.032-.03-.011-.07 0-.093.005-.008.112-.142.118-.149.051-.05.111.004.158-.032.13-.102.191-.273.257-.406a.7.7 0 0 1 .118-.161c.116.203.382.08.06-.011.077-.04.028-.13.073-.184.03-.035.084-.043.111-.103.049-.108-.027-.267.2-.221.01-.144.122-.242-.063-.339-.004-.035.134-.096.157-.134.026-.032.12-.32.123-.37a.4.4 0 0 0-.005-.176c-.006-.017-.033-.032-.058-.048-.052-.034-.094-.065.07-.133a.5.5 0 0 1-.004-.247c.003-.018.039-.025.037-.036-.002-.022-.034-.055-.044-.093-.015-.062.053-.113-.06-.084l-.084-.11.056-.058-.089-.046c.172-.019.031-.145-.048-.067q.018-.129.023-.261c.185-.06-.049-.178-.138-.117l-.01-.025c.013-.094-.058-.142-.075-.244-.018-.103.002-.104.062-.176l-.051-.054c-.271.032.091-.192-.192-.255.078-.15-.1-.236-.213-.283-.013-.005-.035.015-.053.01-.045-.015-.098-.117-.16-.044l-.028-.136-.104-.018-.056.07c.018-.117-.083-.144-.107-.19-.005-.01.018-.045 0-.07-.021-.032-.082-.057-.11-.09q-.057.044-.113.092c-.073-.015-.035-.132-.068-.161a1 1 0 0 0-.144-.064c-.065-.007-.091.09-.243.003-.027-.015-.038-.057-.064-.068-.047-.021-.215.01-.245.079-.03-.107-.195-.108-.235-.143-.012-.01-.004-.07-.045-.09-.034-.017-.134.016-.177.002-.047-.014-.06-.065-.081-.071-.02-.005-.043.033-.071.03-.087-.007-.165-.074-.237-.076h-.003c-.103.001-.186.123-.261.182-.02-.006-.043-.03-.064-.028-.264.023-.56.071-.82.147-.118.029-.477.032-.275.232-.015.057-.332.124-.382.162-.05.034-.058.1-.093.13-.107.088-.206.128-.294.278-.023.04-.012.112-.029.13-.02.022-.084.01-.113.04-.069.067-.16.221-.217.293-.01.013-.055-.009-.08.004-.103.05-.151.149-.005.207-.135.062-.112.2-.148.302-.086.213-.221.621-.17.83.03.13.097.126.034.307l-.003.008q-.021.055-.042.124c-.033.116-.149.245.018.313-.02.136.03.229-.074.359l.102.01.015.045-.083.04c.027.12.196.216.234.303.056.153.23.54.302.69.036.08.088.041.018.165l.059.026.09-.032c.071.08.13.203.21.272.142.13.415.227.552.363.034.035.058.117.101.137.063.03.12-.053.199-.02.13.057.357.254.502.276.042.007.07-.025.098-.024.122.007.22.024.34-.023.113.106.099.228.134.355.026.096.126.317.143.4.011.057-.03.132-.015.196-.192.05-.274-.014-.415-.119a4 4 0 0 1-.82-.171l-.037-.124c-.084-.074-.157-.007-.218-.01-.616-.01-1.44-.866-1.718-1.4-.074-.106-.32-.464-.3-.572.003-.027.05-.055.043-.078a4 4 0 0 1-.299-.595c-.016-.304-.062-.601-.08-.906a3 3 0 0 1 .004-.474c.106-1.244.87-2.425 1.98-3.002.211-.114.482-.27.718-.313.098-.018.158.054.267-.038l.02.067c.101-.052.162-.118.286-.142.104-.023.386-.05.48-.041.048.003.03.047.076.046l.03-.002c.084-.012.226-.054.321-.046.098.007.254.078.328.084.266.017.576.025.84.153.073.035.144.129.166.138.045.017.082-.026.115-.017.168.041.362.232.492.328.432.307.844.707 1.115 1.165.179.283.405.8.434 1.11.007.066-.055.063-.043.116.013.059.06.083.068.11.06.17.135.548.106.758l-.01.058c-.009.036-.056.06-.057.08 0 .011.03.037.032.07.012.3-.042.518-.126.799-.157.533-.415 1.153-.835 1.577-.09.092-.219.088-.23.101-.026.029.001.091-.047.157-.159.223-.49.386-.692.537-.099.077-.218.228-.327.296-.087.057-.322.112-.354.158-.019.029-.01.097-.04.115m1.57-2.702c.095.056.07-.115-.006-.086-.016.006-.017.071.007.086m-3.541-4.444.024.09.05-.05-.044-.048z"/></g></svg>