<svg xmlns="http://www.w3.org/2000/svg" width="290" height="9" fill="none" viewBox="0 0 290 9"><g clip-path="url(#a)"><path fill="#3784ff" d="M288.51 3.606c-.317.253-.838.484-1.236.722-1.68.973-2.354 1.202-3.947 1.838-1.088.427-3.175 1.191-5.215 1.586l.02-.004c-2.228.477-4.284.965-4.388.607q-.002-.01-.003-.02c-.011-.13.542-.434.591-.6.048-.164-.277-1.051.558-1.339.625-.211 1.739-.462 2.766-.651l.014-.003c.924-.152 1.768-.344 2.073-.441.43-.138.933-.39 1.469-.599 1.72-.685 2.648-1.035 3.982-2.023a19 19 0 0 0 1.866-.73c.154-.123.331-.253.513-.387l-.192.228c.009-.014 0-.009-.012.062a.5.5 0 0 0 .066.33c.131.173.133.11.093.098a2 2 0 0 0-.429-.147 6 6 0 0 0-.853-.155c-.433-.033-.693.046-1.152.024-.524-.025-1.286-.162-2.255-.172-1.546-.012-1.848.242-2.747.263-.994.022-2.444-.121-3.714-.031l-.453.084q.165.093.326.188c-.605.03-.878-.099-1.469-.099-.646 0-.993.124-1.455.126-.399.001-.86-.094-1.346-.084-.705.014-.552.154-.94.184-.124.01-2.943.117-3.072.12-1.18.02-1.34-.172-2.254-.177-2.685-.011-5.313.186-7.801.287-1.051.044-2.25.054-3.313.042 1.669-.525-2.065-.842-.653-.093-1.196-.089-2.11.138-3.216.123-.735-.009-1.249-.106-2.337-.082l-.143.004c-1.776.054-3.836.374-4.332-.154-2.174.142-4.139-.016-4.899.487-.562.042-2.044-.217-2.693-.242-.565-.025-5.253-.053-5.982-.044-.754.01-2.094.032-2.741.089-.79.07-1.33.588-2.775.03-1.675.086-2.259.082-3.798.049-.279-.006-.313-.093-.476-.09-.337.008-.91.086-1.516.108-1.006.036-1.552-.136-1.44.143q-.966.094-1.943.187l-.691-.147-1.047.202c.394-.417-2.041-.12-1.243.096q-1.882-.083-3.795-.165c.153-.467-2.761.011-2.512.257l-.433.01c-1.263-.094-2.448.034-3.973-.012-1.539-.047-1.398-.095-1.872-.297L199 3.254c-1.904.63-1.566-.39-4.824.135-1.064-.343-3.604-.09-5.312.062-.198.018-.2.09-.464.117-.651.069-2.289.016-2.229.244l-1.711-.159-1.397.158.012.216c-.95-.223-2.411-.094-3.14-.135-.145-.009-.178-.107-.629-.123-.526-.02-1.505.032-2.134.016l-.723.346c-1.116.086-1.516-.194-2.173-.201-.118-.001-2.279.07-2.396.08-.954.07-.675.311-3.431.323-.491.002-.889-.074-1.333-.067-.785.012-3.14.26-3.322.444-.954-.202-3.495-.051-4.245-.098-.227-.015-.281-.156-.977-.17-.563-.012-2.011.135-2.725.133-.759-.003-1.032-.117-1.372-.118-.321 0-.615.103-1.053.113-1.366.028-2.606-.1-3.683-.077-1.559.03-2.936.349-4.237.505-.324-.01-.644-.065-.983-.058-4.208.087-8.948.14-13.165.171-1.961.015-6.833-.268-5.521.352-.682.129-5.627-.027-6.572-.011-.94.016-1.676.147-2.413.164-2.258.053-3.787 0-6.526.157-.704.04-1.452.193-1.865.2-.499.008-1.034-.115-1.679-.11-1.577.012-4.405.11-5.916.116-.272 0-.37-.114-.759-.144-1.517-.114-3.18-.07-2.878.297-1.974-.175-3.71.05-5.521.093a416 416 0 0 1-3.586.063c-3.688.055-7.943.104-10.4.253-2.061.128-2.028.296-5.08.191-.664-.023-1.357-.058-2.187-.086-1.922-.066-3.72-.356-5.173.032-2.16-.074-3.824.01-5.457-.294l-.561.234-.783.012-.244-.217c-1.903-.005-4.286.31-5.876.317-2.681.014-9.568-.088-12.109-.195-1.356-.055-1.395.1-2.188-.223l-.907.063-.559.209c-1.752-.006-3.768-.13-5.434-.145-2.994-.025-7.498.1-10.521-.105-.756-.05-1.688-.22-2.44-.241-1.067-.03-1.34.202-2.711.159a71 71 0 0 1-3.29-.215c-2.063-.17-4.288-.4-5.686-.495-.657-.045-.99.015-1.443-.018a29 29 0 0 1-2.43-.275 8 8 0 0 1-1.278-.3c-.242-.093-.508-.174-.866-.492a1.56 1.56 0 0 1-.46-.802 1.7 1.7 0 0 1 .042-.84c.144-.463.343-.735.525-.99C2.427.315 2.438.918 3.121.735c.512-.1 1.973-.463 2.252-.412.195.035-.139.48.111.496a55 55 0 0 1-2.117 1.535c-.289.2-.56.388-.815.582-.246.179-.507.443-.564.494-.013.003-.003-.045-.028-.144a.43.43 0 0 0-.11-.229c-.015-.012.018.014.074.04.11.053.286.11.467.157.375.097.788.167 1.209.228.842.119 1.707.2 2.583.27 1.755.137 3.495.227 5.269.308a57 57 0 0 0 .95.295c1.357.157 1.93-.037 2.664-.059 7.007-.176 20.78.316 28.521.35 1.647.013 7.046-.117 8.218.011.29.034.371.163.682.167 2.838-.092 5.597-.19 8.435-.291 5.768.149 11.735-.09 17.562-.205 3.206-.064 6.366-.13 9.597-.202 12.495-.278 24.905-.591 37.248-.832 3.006-.059 6.807-.239 9.728-.241 1.223-.002 1.741.194 3.348.004l.054.166c1.397-.099 2.289-.246 3.864-.294 1.334-.041 4.823-.129 6-.134.609-.004.385.106.951.093.967-.024 3.033-.216 4.371-.247 1.214-.028 3.255.045 4.187.006 3.354-.14 6.998-.403 10.577-.44.987-.009 2.259.097 2.567.086.604-.022.782-.158 1.188-.184 2.062-.134 5.271-.054 7.295-.095 6.583-.135 13.554-.358 20.108-.488 4.116-.082 11.036-.267 14.844-.256.829.002.612.15 1.305.135.768-.018 1.178-.125 1.534-.14 2.48-.113 7.987-.338 10.295-.29.45.01.783.115 1.053.108.136-.003.443-.087.869-.104 3.705-.152 6.484-.168 10.155-.22a826 826 0 0 0 8.589-.182c4.655-.115 9.478-.238 14.008-.259 1.592-.007 2.724.202 2.947.196.508-.01.767-.165 1.814-.215 3.354-.163 7.878-.04 11.039-.103 1.59-.033 3.747-.203 5.328-.196 1.34.074 3.843-.054 5.349.722.144.1.288.218.433.432.149.223.237.502.251.751.016.496-.101.709-.145.866-.06.115-.281.374-.383.454a1.5 1.5 0 0 1-.342.381m-41.231-1.028c.22-.264-2.092-.002-1.219.12.199.027 1.166-.052 1.219-.12M138.885 4.612l.068.221.907-.113-.514-.122z"/></g><defs><clipPath id="a"><path fill="#fff" d="M0 0h290v9H0z"/></clipPath></defs></svg>