<svg xmlns="http://www.w3.org/2000/svg" width="169" height="6" fill="none" viewBox="0 0 169 6"><g clip-path="url(#a)"><path fill="#3784ff" d="M160.34 3.41c.201-.013.474.089.712.097.977.035 1.344.105 2.219.135 1.321.106 5.093-.413 5.215.248l.001.02c-.003.13-.324.304-.359.454s.103 1.081-.364 1.185c-.677.155-2.405.049-2.773.065-.257.019-.567.116-.898.14-1.058.072-1.603.008-2.552.232a57 57 0 0 1-1.127-.384c-.501.048-1.23-.133-1.532-.133-.256 0-.386.093-.645.089-.297-.004-.717-.123-1.243-.127-.854-.007-1.006.239-1.528.25-.525.01-1.338-.164-2.03-.108l-.026.007-.228.064.169.197c-.335.013-.475-.123-.791-.14-.378-.022-.556.09-.807.077-.2-.01-.484-.123-.738-.13-.38-.011-.305.134-.513.15-.09.005-1.605.002-1.698-.002-.645-.03-.694-.227-1.217-.273-1.437-.126-2.923-.055-4.262-.074a19 19 0 0 1-1.808-.122c.965-.439-1.086-.946-.355-.127-.655-.15-1.133.032-1.759-.041-.402-.047-.675-.171-1.255-.203-1.023-.056-2.166.18-2.427-.388-1.21.024-2.24-.239-2.703.221-.312.011-1.09-.327-1.436-.387-.326-.057-2.845-.34-3.257-.373-.41-.032-1.137-.084-1.486-.062-.437.027-.779.512-1.518-.123-.911-.007-1.225-.042-2.068-.16-.152-.022-.164-.11-.253-.116-.184-.011-.494.036-.825.024-.543-.019-.836-.22-.793.064l-1.074.08-.362-.184-.58.145c.245-.395-1.102-.23-.683.028-.683-.123-1.357-.245-2.05-.368.121-.457-1.507-.135-1.385.124l-.235-.013c-.682-.16-1.314-.092-2.156-.216-.826-.124-.759-.165-1-.39l-.378.005.023.001-.212.011c-1.054.573-.844-.434-2.64-.013-.557-.375-1.966-.208-2.9-.117-.108.01-.112.081-.256.1-.354.045-1.249-.068-1.225.163l-.929-.224-.766.105-.002.215c-.508-.259-1.31-.188-1.709-.26-.078-.014-.092-.113-.337-.148-.286-.04-.819-.028-1.162-.07l-.41.315c-.613.04-.816-.258-1.176-.293a59 59 0 0 0-1.307-.023c-.522.03-.384.283-1.886.174-.267-.02-.48-.113-.722-.126-.427-.022-1.722.122-1.83.296-.51-.243-1.902-.206-2.306-.286-.122-.024-.144-.168-.522-.213-.307-.037-1.101.047-1.49.014-.412-.037-.556-.162-.742-.178-.174-.014-.338.077-.576.067-.744-.03-1.412-.21-2-.234-.856-.035-1.608.226-2.33.33-.174-.025-.345-.092-.53-.099-2.288-.083-4.869-.206-7.164-.315-1.074-.052-3.712-.481-3.016.178-.367.106-3.053-.187-3.576-.193-.507-.008-.913.106-1.317.105-1.218 0-2.08-.087-3.548.016-.38.027-.792.166-1.021.165-.276 0-.562-.133-.914-.14-.846-.014-2.403.043-3.22.03-.148-.003-.206-.12-.413-.153-.812-.134-1.741-.107-1.571.264a5 5 0 0 0-.535-.067c-.859-.062-1.671.081-2.488.097-2.074.042-5.848-.068-7.651.067-1.138.086-1.112.254-2.782.088-.371-.036-.738-.084-1.188-.129-1.055-.104-2.015-.426-2.825-.063-1.166-.111-2.102-.053-2.964-.379l-.309.227-.43.002q-.068-.11-.133-.22c-1.027-.027-2.328.27-3.195.27-1.454-.01-5.188-.065-6.558-.086-.725-.017-.762.143-1.188-.154q-.246.048-.486.098-.145.116-.286.232c-.926.069-2.025.066-2.887.191q-.14.02-.283.044c-1.613.269-3.824.763-5.375.87-.416.029-.943-.04-1.343.02-.575.086-.686.346-1.424.459-1.265.193-3.673.27-4.854.49-.354.065-.5.18-.743.233-1 .217-1.84.366-2.725.73-1.028.036-1.017-.253-1.424-.429C1.41 4.771.46 4.677.184 4.69c-.18-.034.034-.437-.184-.46 1.49-1.083 2.042-.877 3.157-.967 1.941-.442 3.85-.73 5.767-1.034.192.056.371.113.558.17.754-.015 1.035-.274 1.418-.38 2.046-.562 5.236-1.03 8.386-1.454C21.95.218 24.547.22 26.462.181 27.38.158 30.343.01 30.97.149c.162.035.207.164.38.17Q33.657.2 35.963.108c3.157.232 6.42.12 9.596.121 3.233.001 6.45-.02 9.648-.1 5.344-.134 10.65-.173 15.935-.076 1.644.03 3.71-.027 5.32.075.661.043.945.257 1.824.126l.023.169c.762-.047 1.267-.16 2.119-.146.73.01 2.642.065 3.277.11.332.022.205.122.515.132.53.017 1.665-.087 2.394-.06.66.025 1.77.188 2.279.19 1.831.008 3.832-.092 5.777.029.538.034 1.224.195 1.393.197.33.004.433-.124.654-.133 1.124-.045 2.873.171 3.969.21 3.547.132 7.291.16 10.832.213l.041.001.117.006c2.268.12 6.01.303 8.099.523.445.046.317.183.694.205.419.024.656-.06.849-.056 1.359.023 4.348.102 5.622.278.241.034.411.157.557.166.074.004.245-.063.478-.057 2.048.054 3.535.19 5.536.337 3.832.283 8.283.409 12.308.717.867.066 1.47.324 1.588.328.267.01.454-.13 1.005-.136 1.525-.018 3.48.18 5.087.248q.497.021.921.023c.866.002 2.045-.14 2.882-.151.673-.008 2.248.114 2.554.035.181-.046.263-.207.484-.223m-22.799 1.383c.136-.252-1.141-.112-.675.056.105.037.64.01.675-.056M78.485 1.827l.028.224c.164-.027.334-.053.5-.079l-.277-.142q-.126 0-.251-.003"/></g><defs><clipPath id="a"><path fill="#fff" d="M0 0h169v6H0z"/></clipPath></defs></svg>