<svg xmlns="http://www.w3.org/2000/svg" width="80" height="80" fill="none" viewBox="0 0 80 80"><rect width="80" height="80" fill="#438cff" rx="20"/><path fill="#fff" fill-opacity=".7" d="M23.441 23.714c-.73 0-1.405.39-1.77 1.023l-8.158 14.129a2.05 2.05 0 0 0 0 2.045L21.67 55.04a2.05 2.05 0 0 0 1.771 1.022h16.315c.73 0 1.406-.39 1.771-1.022l8.157-14.13a2.05 2.05 0 0 0 0-2.044l-8.157-14.13a2.05 2.05 0 0 0-1.771-1.022z"/><path fill="#fff" d="M56.718 23.408c4.89 1.258 4.333 4.033 6.36 9.677 1.302 3.622 7.592 8.112 1.844 16.841-1.715 2.605-7.232 5.696-11.223 6.553-8.793 1.86-13.974-2.36-18.57-9.318-3.449-5.263-2.23-12.84 3-16.56 4.957-3.517 12.161-8.973 18.59-7.193"/></svg>