<svg xmlns="http://www.w3.org/2000/svg" width="73" height="45" fill="none" viewBox="0 0 73 45"><g clip-path="url(#a)"><path fill="#d5e5ff" d="M14.153.865c-.965 0-1.858.515-2.34 1.351L1.033 20.888a2.7 2.7 0 0 0 0 2.703l10.78 18.671a2.7 2.7 0 0 0 2.34 1.352h21.56c.966 0 1.858-.516 2.34-1.352l10.781-18.671a2.7 2.7 0 0 0 0-2.703L38.054 2.216a2.7 2.7 0 0 0-2.34-1.351z"/><path fill="#69a3ff" d="M58.13.46c6.462 1.662 5.725 5.33 8.405 12.789 1.72 4.786 10.032 10.72 2.436 22.255-2.267 3.443-9.557 7.527-14.831 8.66-11.62 2.457-18.468-3.12-24.542-12.314-4.557-6.955-2.947-16.968 3.965-21.885C40.113 5.318 49.635-1.892 58.13.46"/></g><defs><clipPath id="a"><path fill="#fff" d="M0 0h73v45H0z"/></clipPath></defs></svg>