<svg xmlns="http://www.w3.org/2000/svg" width="80" height="80" fill="none" viewBox="0 0 80 80"><path fill="#d5e5ff" d="M18.117 18.34c-.965 0-1.858.516-2.34 1.352L4.997 38.364a2.7 2.7 0 0 0 0 2.702l10.78 18.672a2.7 2.7 0 0 0 2.34 1.351h21.56c.966 0 1.858-.515 2.34-1.351l10.781-18.672a2.7 2.7 0 0 0 0-2.702l-10.78-18.672a2.7 2.7 0 0 0-2.34-1.351z"/><path fill="#69a3ff" d="M62.093 17.935c6.463 1.663 5.726 5.33 8.406 12.79 1.72 4.786 10.032 10.72 2.436 22.255-2.267 3.443-9.557 7.527-14.831 8.66-11.62 2.457-18.468-3.12-24.542-12.314-4.557-6.956-2.947-16.968 3.965-21.885 6.55-4.647 16.072-11.857 24.566-9.506"/></svg>