<svg xmlns="http://www.w3.org/2000/svg" width="80" height="80" fill="none" viewBox="0 0 80 80"><path stroke="#231f20" stroke-width="3" d="M18.103 18.34a2.7 2.7 0 0 0-2.338 1.35L4.995 38.343a2.7 2.7 0 0 0 0 2.7l10.77 18.653a2.7 2.7 0 0 0 2.338 1.35h21.539a2.7 2.7 0 0 0 2.338-1.35l10.77-18.653a2.7 2.7 0 0 0 0-2.7L41.98 19.69a2.7 2.7 0 0 0-2.338-1.35z"/><path stroke="#231f20" stroke-width="2.94" d="M62.035 17.935c6.456 1.661 5.72 5.325 8.398 12.777 1.717 4.78 10.022 10.709 2.433 22.233-2.265 3.439-9.547 7.52-14.816 8.651-11.61 2.455-18.45-3.116-24.517-12.302-4.553-6.948-2.945-16.951 3.96-21.863 6.544-4.642 16.056-11.845 24.542-9.496Z"/></svg>