<svg xmlns="http://www.w3.org/2000/svg" width="73" height="48" fill="none" viewBox="0 0 73 48"><g stroke="#231f20" clip-path="url(#a)"><path stroke-width="3" d="M14.97 2.335a2.7 2.7 0 0 0-2.339 1.35L1.861 22.338a2.7 2.7 0 0 0 0 2.7l10.77 18.653a2.7 2.7 0 0 0 2.338 1.35h21.539a2.7 2.7 0 0 0 2.338-1.35l10.77-18.653a2.7 2.7 0 0 0 0-2.7L38.846 3.685a2.7 2.7 0 0 0-2.338-1.35z"/><path stroke-width="2.94" d="M58.902 1.93c6.455 1.661 5.72 5.325 8.397 12.777 1.717 4.78 10.022 10.709 2.433 22.233-2.265 3.439-9.547 7.52-14.816 8.65-11.61 2.456-18.45-3.115-24.517-12.301-4.553-6.948-2.944-16.951 3.96-21.863C40.905 6.784 50.416-.419 58.903 1.93Z"/></g><defs><clipPath id="a"><path fill="#fff" d="M0 0h73v48H0z"/></clipPath></defs></svg>