<svg xmlns="http://www.w3.org/2000/svg" width="300" height="300" fill="none" viewBox="0 0 300 300"><path fill="#f04405" fill-rule="evenodd" d="M75.104 50.078C96.233 39.364 122.25 32 150.227 32c26.548 0 53.474 7.028 74.669 17.775 3.743 1.899 5.242 6.478 3.347 10.229s-6.465 5.252-10.207 3.354c-19.158-9.715-43.742-16.135-67.809-16.135-25.357 0-49.038 6.689-68.262 16.437-3.743 1.899-8.314.397-10.208-3.354-1.895-3.75-.396-8.33 3.347-10.228m13.211 23.208c18.337-8.576 41.89-13.128 61.824-13.128 19.966 0 42.933 4.564 61.244 13.128 20.388 9.536 37.47 23.387 49.185 39.69 2.451 3.412 1.679 8.168-1.726 10.625a7.587 7.587 0 0 1-10.603-1.73c-10.041-13.974-24.992-26.237-43.282-34.791-16.086-7.524-36.824-11.7-54.818-11.7-18.025 0-39.337 4.188-55.398 11.7-17.5 8.185-33.184 21.356-42.963 35.071a7.59 7.59 0 0 1-10.597 1.769c-3.413-2.444-4.204-7.197-1.765-10.618 11.374-15.953 29.147-30.778 48.9-40.016m60.857 14.424c39.127-.376 73.27 19.812 90.597 48.815 9.094 15.223 12.258 30.527 12.258 43.573 0 22.216-20.242 36.071-38.418 36.071-9.103 0-18.774-2.439-26.438-8.294-7.898-6.035-13.118-15.306-13.488-27.547-.222-7.33-3.568-12.184-8.16-15.435-4.845-3.43-11.114-5.039-16.278-5.039-14.048 0-23.831 10.356-23.831 20.244 0 8.244 2.584 19.82 5.991 27.481 3.453 7.767 9.648 16.808 15.685 22.282l.072.065.07.067c9.883 9.434 22.241 17.837 40.363 21.973 4.091.933 6.652 5.014 5.72 9.111-.932 4.099-5.003 6.666-9.094 5.731-21.317-4.865-36.014-14.876-47.399-25.726-7.822-7.119-15.139-17.961-19.295-27.307-4.215-9.479-7.305-23.157-7.305-33.677 0-19.784 18.151-35.467 39.023-35.467 7.829 0 17.274 2.327 25.045 7.829 8.024 5.681 14.196 14.754 14.579 27.407.234 7.743 3.324 12.701 7.514 15.902 4.422 3.379 10.616 5.178 17.226 5.178 12.063 0 23.227-9.155 23.227-20.849 0-10.572-2.557-23.123-10.102-35.754-14.482-24.239-43.533-41.738-77.416-41.412-29.402.284-60.667 14.196-76.645 41.093-6.811 11.464-10.228 24.566-9.813 38.264.57 18.853 3.313 26.764 8.276 39.929 1.483 3.933-.497 8.324-4.421 9.81-3.925 1.485-8.309-.499-9.791-4.43-5.311-14.085-8.612-23.733-9.25-44.848-.502-16.578 3.645-32.543 11.944-46.511 19.276-32.447 56.102-48.206 89.554-48.529m-70.075 91.105c.046-35.092 33.75-62.644 70.148-62.644 36.196 0 71.355 24.973 71.355 64.835 0 4.203-3.4 7.611-7.595 7.611s-7.596-3.408-7.596-7.611c0-29.17-25.881-49.613-56.164-49.613-30.058 0-54.955 22.67-54.955 47.493v.07l-.001.07c-.254 13.853 1.948 27.069 9.144 41.213 7.343 14.433 16.17 24.235 24.239 31.353a7.62 7.62 0 0 1 .683 10.741 7.586 7.586 0 0 1-10.721.685c-9.224-8.136-19.365-19.413-27.736-35.865-8.505-16.715-11.083-32.462-10.8-48.338m70.148-6.329c4.195 0 7.596 3.408 7.596 7.612 0 8.219 2.25 16.008 6.536 23.443 4.124 7.152 9.49 12.312 16.852 16.784 10.715 5.856 18.07 7.857 29.258 7.572l.052-.002.051-.002c4.42-.052 9.602-.418 13.693-1.133 4.133-.721 8.066 2.05 8.788 6.191s-2.045 8.084-6.178 8.806c-5.117.894-11.136 1.297-16.07 1.358-14.276.357-24.266-2.516-37.028-9.513l-.14-.077-.137-.082c-9.291-5.615-16.679-12.544-22.297-22.288-5.481-9.509-8.573-19.9-8.573-31.057 0-4.204 3.401-7.612 7.597-7.612" clip-rule="evenodd"/></svg>