<svg xmlns="http://www.w3.org/2000/svg" width="163" height="28" fill="none" viewBox="0 0 163 28"><g clip-path="url(#a)"><mask id="b" width="163" height="28" x="0" y="0" maskUnits="userSpaceOnUse" style="mask-type:luminance"><path fill="#fff" d="M162.4 0H0v28h162.4z"/></mask><g mask="url(#b)"><path fill="#676566" d="M0 20.901c0-.905 1.112-1.358 1.762-.718l4.731 4.656c.65.64.19 1.734-.73 1.734h-4.73a1.05 1.05 0 0 1-.73-.298A1.01 1.01 0 0 1 0 25.557zm0-4.904c0 .27.109.528.302.718l9.715 9.56c.194.19.456.298.73.298h5.336c.92 0 1.38-1.094.73-1.734l-15.05-14.81C1.112 9.388 0 9.841 0 10.745zM0 5.843c0 .27.109.527.302.718l20.035 19.714c.193.19.456.298.73.298h5.335c.92 0 1.38-1.094.73-1.734L1.762-.126C1.112-.766 0-.313 0 .592zm10.32 0c0 .27.108.527.302.718l18.575 18.277c.65.64 1.761.187 1.761-.718v-5.25c0-.27-.108-.528-.302-.719L12.082-.126c-.65-.64-1.763-.187-1.763.718zM22.4-.127c-.65-.64-1.762-.186-1.762.719v5.25c0 .27.109.528.302.719l8.255 8.123c.65.64 1.762.187 1.762-.718V8.715c0-.27-.108-.528-.302-.718z"/><path fill="#343434" d="m43.896 21.7-9.716-9.56c-.65-.64-1.762-.187-1.762.718v13.374a1 1 0 0 0 .302.718 1.03 1.03 0 0 0 .73.297h15.051a1.05 1.05 0 0 0 .73-.297 1.01 1.01 0 0 0 .302-.718v-1.218c0-.561-.464-1.01-1.03-1.081a8.03 8.03 0 0 1-4.607-2.232m-6.525 2.298c-.438 0-.858-.171-1.167-.476a1.61 1.61 0 0 1-.484-1.149c0-.43.174-.844.484-1.148a1.666 1.666 0 0 1 2.334 0c.31.304.484.718.484 1.148 0 .431-.174.845-.483 1.15-.31.304-.73.475-1.168.475"/><path fill="#afafaf" d="m1.675 20.105.087.078 4.731 4.655c.622.613.228 1.64-.612 1.728l-.118.007h-4.73c-.253 0-.498-.092-.687-.257a1 1 0 0 1-.339-.64L0 25.555v-4.655c0-.865 1.017-1.318 1.675-.796m0-10.153.087.077 8.557 8.42v8.124L.303 16.715a1 1 0 0 1-.294-.584L0 15.997v-5.25c0-.866 1.017-1.318 1.675-.795M0 .592C0-.274 1.017-.726 1.675-.204l.087.078 8.557 8.42v8.124L.303 6.561a1 1 0 0 1-.294-.585L0 5.843z"/><path fill="#929292" d="m10.32 8.295 10.016 9.856c.162.16.264.366.294.585l.009.134v7.703l-10.017-9.857a1 1 0 0 1-.293-.585l-.01-.134zm0 10.154 6.493 6.39c.622.612.228 1.64-.613 1.727l-.117.007H10.32zM11.993-.204l.088.078 8.254 8.123c.162.159.264.364.294.585l.009.133v7.703L10.622 6.561a1 1 0 0 1-.293-.585l-.01-.133V.592c0-.866 1.018-1.318 1.675-.796"/><path fill="#343434" d="M61.574 22.833h4.24v-6.92h3.543c3.892 0 6.388-2.271 6.388-5.784s-2.496-5.783-6.388-5.783h-7.783zm4.24-10.485V7.91h3.114c1.61 0 2.576.845 2.576 2.218 0 1.374-.966 2.219-2.576 2.219zm17.602 10.696c4.133 0 7.14-2.905 7.14-6.867 0-3.961-3.007-6.866-7.14-6.866-4.187 0-7.139 2.905-7.139 6.866 0 3.962 2.952 6.867 7.14 6.867m-3.22-6.867c0-2.113 1.288-3.565 3.22-3.565 1.906 0 3.194 1.453 3.194 3.565s-1.288 3.566-3.194 3.566c-1.932 0-3.22-1.453-3.22-3.566m17.145 6.867c3.167 0 5.315-1.955 5.315-4.252 0-5.388-7.274-3.645-7.274-5.758 0-.58.617-.95 1.503-.95.913 0 2.013.554 2.362 1.77l3.167-1.295c-.617-1.928-2.899-3.248-5.663-3.248-2.98 0-4.831 1.743-4.831 3.83 0 5.043 7.166 3.644 7.166 5.73 0 .74-.698 1.241-1.745 1.241-1.502 0-2.55-1.03-2.871-2.27l-3.167 1.214c.698 2.007 2.737 3.988 6.038 3.988m15.516-.343-.269-3.355c-.456.238-1.046.317-1.53.317-.966 0-1.61-.686-1.61-1.875v-5.044h3.275V9.522h-3.275V5.666h-3.945v3.856h-2.147v3.222h2.147v5.546c0 3.222 2.228 4.754 5.153 4.754.805 0 1.557-.132 2.201-.343m13.756-18.355v7.183h-7.461V4.346h-4.241v18.487h4.241v-7.738h7.461v7.738h4.267V4.346zm13.679 18.698c4.133 0 7.139-2.905 7.139-6.867 0-3.961-3.006-6.866-7.139-6.866-4.187 0-7.139 2.905-7.139 6.866 0 3.962 2.952 6.867 7.139 6.867m-3.22-6.867c0-2.113 1.288-3.565 3.22-3.565 1.906 0 3.194 1.453 3.194 3.565s-1.289 3.566-3.194 3.566c-1.932 0-3.22-1.453-3.22-3.566m17.974 6.233c1.476 0 2.792-.502 3.489-1.373v1.267c0 1.48-1.207 2.51-3.059 2.51-1.316 0-2.469-.635-2.657-1.717l-3.597.554c.483 2.51 3.086 4.2 6.254 4.2 4.16 0 6.924-2.404 6.924-5.97V9.522h-3.892v1.137c-.724-.819-1.959-1.347-3.542-1.347-3.758 0-6.119 2.535-6.119 6.55s2.361 6.55 6.199 6.55m-2.362-6.55c0-1.98 1.181-3.248 3.006-3.248 1.852 0 3.033 1.267 3.033 3.248 0 1.98-1.181 3.248-3.033 3.248-1.825 0-3.006-1.267-3.006-3.248"/></g></g><defs><clipPath id="a"><path fill="#fff" d="M0 0h163v28H0z"/></clipPath></defs></svg>