<svg xmlns="http://www.w3.org/2000/svg" width="168" height="50" fill="none" viewBox="0 0 168 50"><g clip-path="url(#a)"><mask id="b" width="168" height="50" x="0" y="0" maskUnits="userSpaceOnUse" style="mask-type:luminance"><path fill="#fff" d="M167.475 0H0v49.455h167.475z"/></mask><g fill="#343434" mask="url(#b)"><path d="M26.567.194C13.658-1.46 1.85 7.652.194 20.55s7.463 24.69 20.373 26.345 24.718-7.457 26.373-20.352C48.594 13.648 39.476 1.85 26.567.193M31.42 14.88a1.68 1.68 0 0 0-1.164.492l-8.745 8.733-1.864-1.864c8.615-8.584 10.168-8.667 11.773-7.36m-9.553 9.537 8.72-8.712a1.218 1.218 0 0 1 2.074.897 1.21 1.21 0 0 1-.413.873l-9.227 8.096zm.649 1.36-2.16.465a.12.12 0 0 1-.146-.136.12.12 0 0 1 .034-.068l1.267-1.266zm-5.506-.9 2.302-2.3 1.726 1.723-3.887.836a.154.154 0 0 1-.141-.26M9.85 36.766a.15.15 0 0 1-.087-.255l1.857-1.856 2.4 2.396zm4.764-2.467a.45.45 0 0 0-.23.498l.397 1.7a.25.25 0 0 1-.415.23l-2.41-2.407 7.385-7.378 3.575-.768 1.716 1.714c-2.467 2.157-5.837 4.314-10.018 6.409zm10.364-6.726-1.647-1.645 9.228-8.097q.13-.113.232-.25c-.291 2.643-3.985 6.37-7.81 9.99zm7.18-12.677a3.573 3.573 0 0 1 2.299-6.083 3.58 3.58 0 0 1 2.53.816l-3.167 3.165a.234.234 0 0 0 0 .332l2.448 2.447a3.57 3.57 0 0 1-4.105-.68zm5.063 0q-.245.242-.53.433l-2.373-2.37 3.011-3.008a3.573 3.573 0 0 1-.11 4.943zM53.768 30.348V16.727a.54.54 0 0 1 .193-.416.72.72 0 0 1 .495-.173h3.83a4.5 4.5 0 0 1 3.117 1.054q1.17 1.053 1.17 3.323v.183q0 2.27-1.19 3.334a4.6 4.6 0 0 1-3.169 1.06h-2.733v5.256a.49.49 0 0 1-.25.445 1.18 1.18 0 0 1-1.196 0 .5.5 0 0 1-.267-.445m1.7-6.667h2.749a2.63 2.63 0 0 0 1.977-.723 2.97 2.97 0 0 0 .697-2.156v-.249a2.97 2.97 0 0 0-.697-2.156 2.63 2.63 0 0 0-1.977-.717h-2.734zM69.208 26.587v-6.101q0-2.284 1.184-3.354a5.286 5.286 0 0 1 6.351 0c.796.712 1.192 1.83 1.196 3.354v6.103q0 2.29-1.196 3.354a5.255 5.255 0 0 1-6.36 0c-.784-.715-1.175-1.822-1.175-3.356m1.705 0c0 1.92.88 2.88 2.65 2.88a2.6 2.6 0 0 0 1.977-.718 3 3 0 0 0 .697-2.162v-6.101a2.97 2.97 0 0 0-.7-2.158 2.63 2.63 0 0 0-1.977-.717c-1.77 0-2.65.959-2.65 2.873zM84.574 28.799c.006-.23.088-.45.232-.628a.66.66 0 0 1 .494-.307c.18.032.343.123.465.258q.282.252.588.56c.275.257.602.45.959.57.474.177.977.262 1.483.25a3.08 3.08 0 0 0 2.066-.639 2.31 2.31 0 0 0 .751-1.871 2.48 2.48 0 0 0-.685-1.815 4.6 4.6 0 0 0-1.66-1.06c-.653-.243-1.3-.495-1.978-.782a4.2 4.2 0 0 1-1.67-1.276 3.46 3.46 0 0 1-.686-2.221 4 4 0 0 1 .405-1.855 2.8 2.8 0 0 1 1.083-1.185c.44-.26.913-.457 1.408-.584a6.4 6.4 0 0 1 1.558-.183 7.9 7.9 0 0 1 2.402.361c.762.25 1.147.584 1.147.99-.009.217-.08.428-.202.608a.6.6 0 0 1-.53.327 7 7 0 0 1-.909-.361 4.5 4.5 0 0 0-1.883-.387 3.57 3.57 0 0 0-1.977.495 1.79 1.79 0 0 0-.761 1.603 1.86 1.86 0 0 0 .667 1.523 5.3 5.3 0 0 0 1.67.92c.658.233 1.31.494 1.978.791a4.2 4.2 0 0 1 1.65 1.43c.483.743.723 1.617.686 2.503 0 1.394-.405 2.442-1.215 3.155a4.7 4.7 0 0 1-3.218 1.063 5.75 5.75 0 0 1-3.045-.756c-.858-.508-1.273-1.008-1.273-1.497M99.963 16.888a.87.87 0 0 1 .163-.525.5.5 0 0 1 .445-.227h8.244a.5.5 0 0 1 .445.227.9.9 0 0 1 .163.525.96.96 0 0 1-.163.554.5.5 0 0 1-.445.237h-3.237v12.667a.49.49 0 0 1-.25.445 1.17 1.17 0 0 1-1.196 0 .5.5 0 0 1-.249-.445V17.68h-3.287a.5.5 0 0 1-.446-.227.95.95 0 0 1-.187-.564M116.068 30.336V16.981a.74.74 0 0 1 .607-.85.8.8 0 0 1 .267 0c.539 0 .989.355 1.36 1.073l3.178 6.103 3.203-6.103q.585-1.076 1.354-1.074a.735.735 0 0 1 .844.832v13.354a.5.5 0 0 1-.062.257.5.5 0 0 1-.187.188 1.18 1.18 0 0 1-1.196 0 .5.5 0 0 1-.187-.188.5.5 0 0 1-.062-.257V19.692l-3.06 5.757a.73.73 0 0 1-.667.494.71.71 0 0 1-.628-.494l-3.059-5.856v10.743a.49.49 0 0 1-.249.445 1.04 1.04 0 0 1-.574.187 1.05 1.05 0 0 1-.597-.162.49.49 0 0 1-.285-.47M133.524 30.228a.5.5 0 0 1 .04-.164l4.147-13.354c.119-.391.46-.589 1.033-.589q.858.001 1.033.589l4.156 13.418a.2.2 0 0 0 0 .075.1.1 0 0 1 0 .059.58.58 0 0 1-.332.494 1.33 1.33 0 0 1-.741.198.56.56 0 0 1-.608-.38l-.889-2.968h-5.309l-.888 2.965a.56.56 0 0 1-.617.39c-.243 0-.481-.07-.686-.202a.59.59 0 0 1-.339-.531m2.941-4.061h4.533l-2.269-7.578zM150.571 30.348v-13.62q-.001-.588.85-.59a1.1 1.1 0 0 1 .722.25c.241.235.435.514.574.82l5.048 9.893V16.717a.5.5 0 0 1 .249-.437 1.26 1.26 0 0 1 1.197 0 .5.5 0 0 1 .252.437v13.631a.5.5 0 0 1-.252.446c-.179.113-.387.17-.599.163a1.22 1.22 0 0 1-1.072-.771l-5.269-10.194v10.356a.505.505 0 0 1-.249.445 1.18 1.18 0 0 1-1.197 0 .5.5 0 0 1-.254-.445"/><path d="M38.702 12.176a.28.28 0 0 0-.144.156.26.26 0 0 0 .014.209.78.78 0 0 1-.106.883.263.263 0 0 0 .043.376.294.294 0 0 0 .395-.03 1.303 1.303 0 0 0 .177-1.473.28.28 0 0 0-.163-.134.3.3 0 0 0-.216.013"/></g></g><defs><clipPath id="a"><path fill="#fff" d="M0 0h168v50H0z"/></clipPath></defs></svg>