<svg xmlns="http://www.w3.org/2000/svg" width="300" height="300" fill="none" viewBox="0 0 300 300"><path fill="#1d4aff" d="M73.723 158.557c-2.156 4.312-8.31 4.312-10.466 0L58.1 148.244a5.85 5.85 0 0 1 0-5.233l5.157-10.314c2.156-4.312 8.31-4.312 10.466 0l5.157 10.314a5.85 5.85 0 0 1 0 5.233zm0 58.492c-2.156 4.311-8.31 4.311-10.466 0L58.1 206.735a5.86 5.86 0 0 1 0-5.233l5.157-10.314c2.156-4.313 8.31-4.313 10.466 0l5.157 10.314a5.85 5.85 0 0 1 0 5.233z"/><path fill="#f9bd2b" d="M10 194.844c0-5.212 6.302-7.824 9.987-4.138l26.817 26.817c3.687 3.687 1.076 9.987-4.136 9.987H15.85A5.85 5.85 0 0 1 10 221.662zm0-28.247c0 1.553.617 3.041 1.714 4.137l55.063 55.063a5.85 5.85 0 0 0 4.137 1.714h30.244c5.213 0 7.823-6.301 4.137-9.988l-85.307-85.307C16.302 128.53 10 131.141 10 136.353v30.245zm0-58.49a5.85 5.85 0 0 0 1.714 4.137l113.553 113.553a5.85 5.85 0 0 0 4.137 1.714h30.244c5.212 0 7.824-6.301 4.137-9.988L19.988 73.726C16.302 70.04 10 72.65 10 77.863zm58.49 0a5.85 5.85 0 0 0 1.715 4.137l105.28 105.279c3.685 3.687 9.987 1.076 9.987-4.137v-30.244c0-1.552-.617-3.04-1.715-4.137L78.477 73.725c-3.685-3.685-9.986-1.075-9.986 4.138zm68.478-34.38c-3.685-3.687-9.987-1.077-9.987 4.136v30.244a5.85 5.85 0 0 0 1.715 4.137l46.787 46.789c3.687 3.686 9.988 1.075 9.988-4.138v-30.243c0-1.552-.617-3.04-1.714-4.138z"/><path fill="#000" d="m258.806 195.56-55.073-55.071c-3.686-3.686-9.988-1.075-9.988 4.137v77.035a5.853 5.853 0 0 0 5.851 5.85h85.307a5.852 5.852 0 0 0 5.851-5.85v-7.016c0-3.232-2.63-5.812-5.833-6.229a45.2 45.2 0 0 1-26.117-12.856zm-36.986 13.235a9.364 9.364 0 0 1-9.358-9.359 9.363 9.363 0 0 1 9.358-9.359 9.36 9.36 0 0 1 9.359 9.359 9.361 9.361 0 0 1-9.359 9.359"/><path fill="#1d4aff" d="M10 221.66a5.85 5.85 0 0 0 5.85 5.851h26.818c5.212 0 7.823-6.302 4.136-9.988l-26.816-26.817C16.302 187.02 10 189.631 10 194.843zm58.49-99.432L19.988 73.726C16.302 70.039 10 72.65 10 77.862v30.245c0 1.551.617 3.04 1.714 4.136l56.777 56.778zm-48.503 9.987C16.302 128.53 10 131.141 10 136.353v30.244a5.85 5.85 0 0 0 1.714 4.137l56.777 56.777v-46.792z"/><path fill="#f54e00" d="M126.981 124.651a5.85 5.85 0 0 0-1.715-4.137L78.478 73.726c-3.686-3.687-9.988-1.076-9.988 4.136v30.245c0 1.551.617 3.04 1.714 4.136l56.777 56.778zM68.49 227.511h32.668c5.212 0 7.823-6.302 4.136-9.988L68.49 180.719zm0-105.283v44.369a5.85 5.85 0 0 0 1.714 4.137l56.777 56.777v-44.369a5.86 5.86 0 0 0-1.715-4.138z"/></svg>