<svg xmlns="http://www.w3.org/2000/svg" width="159" height="35" fill="none" viewBox="0 0 159 35"><mask id="a" width="158" height="32" x="0" y="1" maskUnits="userSpaceOnUse" style="mask-type:luminance"><path fill="#fff" d="M157.911 1.912H0v30.674h157.911z"/></mask><g fill="#343434" mask="url(#a)"><path d="M54.81 6.965c5.062 0 8.354 2.921 8.354 7.613 0 3.436-1.936 5.988-4.97 7.077l5.948 10.379H59.73l-5.549-9.848h-6.129v9.848h-3.8V6.964zm-6.763 3.491v8.278h6.582c3.018 0 4.576-1.72 4.576-4.156 0-2.491-1.552-4.122-4.576-4.122zM73.809 13.93c5.062 0 8.354 3.843 8.354 8.59 0 .553-.038 1.129-.142 1.699H68.549c.164 2.659 2.39 4.748 5.391 4.748 2.17 0 3.904-.944 5.205-3.028l2.64 1.96c-1.607 2.956-4.772 4.508-7.845 4.508-5.243 0-9.098-3.954-9.098-9.216 0-5.29 3.707-9.261 8.967-9.261m4.718 7.552c-.219-2.492-2.258-4.251-4.757-4.251-2.657 0-4.685 1.754-5.133 4.25zM85.487 32.033V14.298h3.597v2.235c.58-.905 2.225-2.603 5.336-2.603 4.773 0 7.288 3.027 7.288 7.334v10.77h-3.58V22.04c0-2.938-1.576-4.636-4.27-4.636-2.642 0-4.79 1.698-4.79 4.636v9.993zM113.376 13.93c2.946 0 4.898 1.107 6.183 2.788V6.021h3.581v26.013h-3.581v-2.418c-1.285 1.681-3.237 2.787-6.183 2.787-4.937 0-8.715-3.882-8.715-9.328 0-5.452 3.778-9.144 8.715-9.144m-5.14 9.145c0 3.268 2.225 6.038 5.571 6.038s5.73-2.77 5.73-6.038-2.405-5.854-5.73-5.854c-3.346-.006-5.571 2.58-5.571 5.854M135.141 13.93c5.062 0 8.354 3.843 8.354 8.59 0 .553-.039 1.129-.142 1.699h-13.472c.164 2.659 2.389 4.748 5.391 4.748 2.17 0 3.904-.944 5.205-3.028l2.64 1.96c-1.607 2.956-4.773 4.508-7.845 4.508-5.243 0-9.098-3.954-9.098-9.216-.005-5.29 3.702-9.261 8.967-9.261m4.718 7.552c-.219-2.492-2.258-4.251-4.757-4.251-2.657 0-4.685 1.754-5.133 4.25zM146.955 32.033V14.298h3.597v2.42c.979-1.94 2.624-2.788 4.522-2.788 1.355 0 2.389.44 2.389.44l-.378 3.364c-.196-.073-.977-.408-2.114-.408-1.92 0-4.413 1.033-4.413 5.044v9.663zM22.465 1.92c-3.849-.184-7.085 2.648-7.638 6.38-.022.173-.054.34-.082.508-.858 4.647-4.855 8.166-9.655 8.166a9.64 9.64 0 0 1-4.718-1.229.25.25 0 0 0-.372.224v16.064h14.74V20.74c0-2.078 1.65-3.765 3.685-3.765h3.685c4.171 0 7.528-3.536 7.364-7.837-.148-3.87-3.22-7.032-7.009-7.216"/></g></svg>