<svg xmlns="http://www.w3.org/2000/svg" width="1178" height="800" fill="none" viewBox="0 0 1178 800"><g clip-path="url(#a)" opacity=".15" style="mix-blend-mode:multiply"><path fill="#c0d8ff" d="M280.175 21.79a56.16 56.16 0 0 0-48.638 28.08L7.524 437.871a56.16 56.16 0 0 0 0 56.163l224.013 388.001a56.16 56.16 0 0 0 48.638 28.082H728.2a56.17 56.17 0 0 0 48.639-28.082l224.011-388.001a56.18 56.18 0 0 0 0-56.163l-224.012-388A56.16 56.16 0 0 0 728.2 21.788z"/><path fill="#69a3ff" d="M804.823 115.175C873.055 55.049 964.501-1.539 1052.12.032c88.16 1.818 172.76 62.55 214.91 137.138 41.62 74.341-36.98 138.963 0 279.623 23.78 90.454 135.63 157.308 113.71 230.826-21.38 73.765-99.28 154.699-195.76 201.992-96.19 46.786-211.5 59.684-298.293 43.196-86.249-16.242-158.847-88.729-235.082-157.134-76.494-69.16-111.929-112.177-113.864-184.424-1.392-72.001 30.976-172.475 92.287-243.39 61.029-70.407 106.847-133.068 174.795-192.684"/></g><defs><clipPath id="a"><path fill="#fff" d="M0 0h1178v800H0z"/></clipPath></defs></svg>