<svg xmlns="http://www.w3.org/2000/svg" width="650" height="590" fill="none" viewBox="0 0 650 590"><path fill="#231f20" d="M17 51V31.032L.488 5.24h4.736l13.952 22.144h.128L33.384 5.24h4.608l-16.64 25.92V51zm30.673-2.496q5.311 0 8.255-3.968t2.945-10.048-2.944-10.048-8.257-3.968q-5.375 0-8.32 3.968-2.943 3.968-2.943 10.048-.001 6.08 2.944 10.048 2.943 3.968 8.32 3.968m0 3.328q-7.04 0-11.2-4.864-4.16-4.927-4.16-12.48 0-7.552 4.16-12.416 4.16-4.928 11.2-4.928 6.975 0 11.072 4.928 4.16 4.864 4.16 12.416t-4.16 12.48q-4.097 4.864-11.072 4.864m30.227-.064q-4.864 0-7.873-2.752-3.008-2.816-3.008-7.744v-23.36h3.968v23.104q0 3.648 2.049 5.568 2.047 1.856 5.76 1.856 4.224 0 6.911-2.816 2.69-2.816 2.689-7.04V17.912h3.903V51h-3.904v-4.864h-.127q-1.984 2.688-4.353 4.16T77.9 51.768M98.323 51V17.912h3.968v6.144h.128q3.392-6.4 10.112-6.4.576 0 1.088.128v3.904q-3.904-.64-7.04 1.6-4.288 3.2-4.288 8.896V51zm36.992.768q-4.8 0-7.808-2.368t-3.008-6.848q0-2.816.96-4.736 1.025-1.984 3.072-3.072a19 19 0 0 1 4.224-1.6q2.176-.576 5.376-.96 5.376-.64 7.104-1.344 1.792-.768 1.792-3.136v-.64q0-6.656-7.936-6.656-8.832 0-9.28 7.36h-3.904q.321-4.928 3.648-7.744 3.329-2.816 9.536-2.816 11.712 0 11.712 10.24v17.984q0 2.752 2.176 2.88.32 0 1.472-.256h.192v2.88q-1.152.512-2.688.512-4.608 0-4.864-4.672v-.704h-.192q-4.032 5.696-11.584 5.696m.704-3.2q5.121 0 8.064-2.88 3.008-2.944 3.008-6.656V33.08q-2.432 1.344-8.576 2.176-2.048.255-3.264.512a24 24 0 0 0-2.624.768q-1.407.512-2.176 1.216-.704.705-1.28 1.92-.512 1.215-.512 2.88 0 6.015 7.36 6.016m34.249 14.016q-5.888 0-9.344-2.432-3.456-2.368-3.904-6.208h3.84q.96 5.376 9.28 5.376 5.184 0 7.744-2.496 2.624-2.497 2.624-6.976V44.6h-.192q-3.776 5.76-10.496 5.76-6.463 0-10.368-4.544-3.84-4.608-3.84-11.968 0-7.744 4.096-12.16 4.097-4.48 10.112-4.48 6.977 0 10.496 5.824h.192v-5.12h3.904V49.72q0 5.505-3.072 8.896-3.776 3.968-11.072 3.968m-.256-15.552q5.376 0 8.064-3.52 2.688-3.584 2.688-9.728 0-6.08-2.752-9.664-2.688-3.585-7.936-3.584-4.863 0-7.616 3.648-2.751 3.585-2.752 9.728 0 5.888 2.624 9.536 2.625 3.584 7.68 3.584m34.134 4.8q-7.232 0-11.328-4.8-4.095-4.864-4.096-12.544 0-7.552 4.16-12.416 4.161-4.928 10.944-4.928 3.84 0 6.656 1.472 2.88 1.472 4.48 4.096t2.304 5.76q.768 3.072.768 6.72h-25.216q.129 5.887 3.008 9.6 2.88 3.648 8.32 3.648 7.552 0 9.664-7.424h3.84q-1.087 4.992-4.608 7.936-3.456 2.88-8.896 2.88m-11.264-19.776h20.992q-.128-5.183-2.688-8.384-2.496-3.264-7.36-3.264-4.8 0-7.616 3.2-2.751 3.2-3.328 8.448M222.31 51V17.912h3.968v5.056h.128q3.905-5.76 11.072-5.76 4.737 0 7.616 2.752 2.944 2.688 2.944 7.552V51h-3.968V27.896q0-7.296-7.552-7.296-4.287 0-7.296 2.688-2.943 2.688-2.944 6.72V51zm39.948.256q-6.336 0-6.336-5.952V21.176h-4.992v-3.264h4.992V7.736h3.968v10.176h6.144v3.264h-6.144v23.488q0 1.728.768 2.432t2.432.704q1.473 0 2.624-.512h.192v3.392q-1.599.576-3.648.576m19.606.64q-6.4 0-9.92-3.072-3.455-3.072-3.776-8.128h4.032q.833 7.808 9.728 7.808 4.033 0 6.208-1.728 2.176-1.729 2.176-4.672 0-2.688-1.856-3.968-1.791-1.28-6.976-2.432-3.008-.705-4.8-1.28a22.7 22.7 0 0 1-3.712-1.6q-1.855-1.087-2.752-2.688-.832-1.665-.832-3.968 0-4.096 3.2-6.528t8.32-2.432q11.009 0 12.288 9.792h-3.968q-.703-6.528-8.32-6.528-3.712 0-5.632 1.536t-1.92 3.968q0 2.625 2.048 3.776 2.048 1.088 7.424 2.368 5.889 1.216 8.64 3.264 2.816 1.984 2.816 6.656 0 4.48-3.392 7.168-3.327 2.688-9.024 2.688m16.011 6.016v-2.304q2.176-.832 2.176-4.352V51h-2.176v-5.568h4.864v5.76q0 5.76-4.864 6.72m22.691 4.032q-1.728 0-3.392-.512v-3.52h.192q1.344.448 3.008.448 3.905 0 5.504-4.48l1.088-2.944-12.736-33.024h4.224l7.936 21.376 2.624 7.552h.128a229 229 0 0 1 2.496-7.552l7.616-21.376h4.096l-13.632 36.544q-1.6 4.288-3.712 5.888-2.047 1.6-5.44 1.6m38.599-13.44q5.311 0 8.256-3.968 2.944-3.968 2.944-10.048t-2.944-10.048-8.256-3.968q-5.376 0-8.32 3.968t-2.944 10.048 2.944 10.048 8.32 3.968m0 3.328q-7.04 0-11.2-4.864-4.16-4.927-4.16-12.48 0-7.552 4.16-12.416 4.16-4.928 11.2-4.928 6.976 0 11.072 4.928 4.16 4.864 4.16 12.416t-4.16 12.48q-4.096 4.864-11.072 4.864m30.227-.064q-4.865 0-7.872-2.752-3.008-2.816-3.008-7.744v-23.36h3.968v23.104q0 3.648 2.048 5.568 2.048 1.856 5.76 1.856 4.224 0 6.912-2.816t2.688-7.04V17.912h3.904V51h-3.904v-4.864h-.128q-1.984 2.688-4.352 4.16t-6.016 1.472M409.815 51V17.912h3.968v6.144h.128q3.392-6.4 10.112-6.4.576 0 1.088.128v3.904q-3.903-.64-7.04 1.6-4.287 3.2-4.288 8.896V51zm37.121.256q-6.336 0-6.336-5.952V21.176h-4.992v-3.264h4.992V7.736h3.968v10.176h6.144v3.264h-6.144v23.488q0 1.728.768 2.432t2.432.704q1.472 0 2.624-.512h.192v3.392q-1.6.576-3.648.576m21.341-2.752q5.313 0 8.256-3.968t2.944-10.048-2.944-10.048q-2.943-3.968-8.256-3.968-5.376 0-8.32 3.968t-2.944 10.048 2.944 10.048 8.32 3.968m0 3.328q-7.04 0-11.2-4.864-4.16-4.927-4.16-12.48 0-7.552 4.16-12.416 4.16-4.928 11.2-4.928 6.977 0 11.072 4.928 4.16 4.864 4.16 12.416t-4.16 12.48q-4.095 4.864-11.072 4.864m33.235-3.328q5.313 0 8.256-3.968t2.944-10.048-2.944-10.048q-2.943-3.968-8.256-3.968-5.376 0-8.32 3.968t-2.944 10.048 2.944 10.048 8.32 3.968m0 3.328q-7.04 0-11.2-4.864-4.16-4.927-4.16-12.48 0-7.552 4.16-12.416 4.16-4.928 11.2-4.928 6.977 0 11.072 4.928 4.16 4.864 4.16 12.416t-4.16 12.48q-4.095 4.864-11.072 4.864M521.307 51V5.24h3.968V51zm21.752.896q-6.4 0-9.92-3.072-3.456-3.072-3.776-8.128h4.032q.833 7.808 9.728 7.808 4.033 0 6.208-1.728 2.176-1.729 2.176-4.672 0-2.688-1.856-3.968-1.791-1.28-6.976-2.432-3.008-.705-4.8-1.28a22.7 22.7 0 0 1-3.712-1.6q-1.855-1.087-2.752-2.688-.832-1.665-.832-3.968 0-4.096 3.2-6.528t8.32-2.432q11.008 0 12.288 9.792h-3.968q-.703-6.528-8.32-6.528-3.712 0-5.632 1.536t-1.92 3.968q0 2.625 2.048 3.776 2.049 1.088 7.424 2.368 5.889 1.216 8.64 3.264 2.817 1.984 2.816 6.656 0 4.48-3.392 7.168-3.327 2.688-9.024 2.688M559.327 51v-5.568h4.864V51zm0-19.648v-5.568h4.864v5.568zM3.496 112V78.912h3.968V112zm0-40.128V66.24h3.968v5.632zM13.541 112V78.912h3.968v5.056h.128q3.903-5.76 11.072-5.76 4.735 0 7.616 2.752 2.944 2.689 2.944 7.552V112H35.3V88.896q0-7.296-7.553-7.296-4.287 0-7.296 2.688-2.943 2.688-2.943 6.72V112zm39.948.256q-6.336 0-6.336-5.952V82.176H42.16v-3.264h4.992V68.736h3.968v10.176h6.143v3.264H51.12v23.488q0 1.728.769 2.432.767.704 2.432.704 1.47 0 2.624-.512h.191v3.392q-1.599.576-3.648.576m21.405.576q-7.231 0-11.328-4.8-4.096-4.864-4.096-12.544 0-7.552 4.16-12.416 4.16-4.928 10.944-4.928 3.84 0 6.656 1.472 2.88 1.472 4.48 4.096t2.304 5.76q.768 3.072.768 6.72H63.566q.128 5.888 3.008 9.6 2.88 3.648 8.32 3.648 7.552 0 9.664-7.424h3.84q-1.087 4.992-4.608 7.936-3.456 2.88-8.896 2.88M63.63 93.056h20.992q-.127-5.183-2.688-8.384-2.496-3.264-7.36-3.264-4.8 0-7.616 3.2-2.752 3.2-3.328 8.448m42.356 30.528q-5.888 0-9.344-2.432-3.456-2.368-3.904-6.208h3.84q.96 5.376 9.28 5.376 5.184 0 7.744-2.496 2.624-2.496 2.624-6.976V105.6h-.192q-3.776 5.76-10.496 5.76-6.464 0-10.368-4.544-3.84-4.608-3.84-11.968 0-7.744 4.096-12.16 4.095-4.48 10.112-4.48 6.976 0 10.496 5.824h.192v-5.12h3.904v31.808q0 5.504-3.072 8.896-3.776 3.968-11.072 3.968m-.256-15.552q5.376 0 8.064-3.52 2.688-3.584 2.688-9.728 0-6.08-2.752-9.664-2.688-3.585-7.936-3.584-4.864 0-7.616 3.648-2.752 3.584-2.752 9.728 0 5.888 2.624 9.536 2.624 3.584 7.68 3.584M126.168 112V78.912h3.968v6.144h.128q3.392-6.4 10.112-6.4.576 0 1.088.128v3.904q-3.904-.64-7.04 1.6-4.288 3.2-4.288 8.896V112zm26.382.768q-4.8 0-7.808-2.368t-3.008-6.848q0-2.816.96-4.736 1.025-1.984 3.072-3.072a19 19 0 0 1 4.224-1.6q2.176-.576 5.376-.96 5.376-.64 7.104-1.344 1.792-.768 1.792-3.136v-.64q0-6.656-7.936-6.656-8.832 0-9.28 7.36h-3.904q.321-4.928 3.648-7.744 3.329-2.816 9.536-2.816 11.712 0 11.712 10.24v17.984q0 2.752 2.176 2.88.32 0 1.472-.256h.192v2.88q-1.152.512-2.688.512-4.608 0-4.864-4.672v-.704h-.192q-4.032 5.696-11.584 5.696m.704-3.2q5.121 0 8.064-2.88 3.008-2.944 3.008-6.656V94.08q-2.432 1.344-8.576 2.176-2.048.255-3.264.512a24 24 0 0 0-2.624.768q-1.407.512-2.176 1.216-.704.705-1.28 1.92-.512 1.217-.512 2.88 0 6.016 7.36 6.016m29.784 2.688q-6.336 0-6.336-5.952V82.176h-4.992v-3.264h4.992V68.736h3.968v10.176h6.144v3.264h-6.144v23.488q0 1.728.768 2.432t2.432.704q1.472 0 2.624-.512h.192v3.392q-1.599.576-3.648.576m21.406.576q-7.232 0-11.328-4.8-4.096-4.864-4.096-12.544 0-7.552 4.16-12.416 4.16-4.928 10.944-4.928 3.84 0 6.656 1.472 2.88 1.472 4.48 4.096t2.304 5.76q.768 3.072.768 6.72h-25.216q.128 5.888 3.008 9.6 2.88 3.648 8.32 3.648 7.552 0 9.664-7.424h3.84q-1.087 4.992-4.608 7.936-3.456 2.88-8.896 2.88M193.18 93.056h20.992q-.128-5.183-2.688-8.384-2.496-3.264-7.36-3.264-4.8 0-7.616 3.2-2.752 3.2-3.328 8.448m47.373 19.712q-4.8 0-7.808-2.368t-3.008-6.848q0-2.816.96-4.736 1.024-1.984 3.072-3.072a19 19 0 0 1 4.224-1.6q2.176-.576 5.376-.96 5.376-.64 7.104-1.344 1.792-.768 1.792-3.136v-.64q0-6.656-7.936-6.656-8.832 0-9.28 7.36h-3.904q.32-4.928 3.648-7.744t9.536-2.816q11.712 0 11.712 10.24v17.984q0 2.752 2.176 2.88.32 0 1.472-.256h.192v2.88q-1.152.512-2.688.512-4.608 0-4.864-4.672v-.704h-.192q-4.032 5.696-11.584 5.696m.704-3.2q5.12 0 8.064-2.88 3.008-2.944 3.008-6.656V94.08q-2.432 1.344-8.576 2.176-2.047.255-3.264.512-1.152.256-2.624.768-1.408.512-2.176 1.216-.704.705-1.28 1.92-.512 1.217-.512 2.88 0 6.016 7.36 6.016M262.89 112V78.912h3.968v5.056h.128q3.905-5.76 11.072-5.76 4.737 0 7.616 2.752 2.944 2.689 2.944 7.552V112h-3.968V88.896q0-7.296-7.552-7.296-4.287 0-7.296 2.688-2.943 2.688-2.944 6.72V112zm34.316 10.944q-1.727 0-3.392-.512v-3.52h.192q1.344.448 3.008.448 3.905 0 5.504-4.48l1.088-2.944-12.736-33.024h4.224l7.936 21.376 2.624 7.552h.128a229 229 0 0 1 2.496-7.552l7.616-21.376h4.096l-13.632 36.544q-1.6 4.288-3.712 5.888-2.047 1.6-5.44 1.6M332.863 112V66.24h5.824l15.808 39.936h.128l15.424-39.936h6.016V112h-4.16V72.128h-.128a180 180 0 0 1-2.176 6.208L356.351 112h-3.776l-13.376-33.664-2.24-6.208h-.128V112zm69.551.832q-9.471 0-15.04-6.528-5.568-6.529-5.568-17.152 0-10.56 5.632-17.216t15.168-6.656q7.168 0 11.776 3.712 4.672 3.712 5.824 10.176h-4.224q-.96-4.608-4.48-7.36-3.52-2.816-8.96-2.816-7.743 0-12.032 5.696-4.224 5.632-4.224 14.464t4.224 14.4q4.288 5.504 11.968 5.504 6.336 0 10.048-3.84t4.288-9.856h4.16q-.383 7.232-4.736 11.968-4.928 5.504-13.824 5.504m23.857-.832V66.24h17.984q6.976 0 10.752 3.968 3.2 3.391 3.2 8.832 0 6.4-3.712 9.728-3.648 3.328-10.816 3.328h-13.12V112zm4.288-23.552h12.8q10.496 0 10.496-9.28 0-4.416-2.624-6.784-2.56-2.368-7.488-2.368h-13.184zm49.877 23.808q-6.336 0-6.336-5.952V82.176h-4.992v-3.264h4.992V68.736h3.968v10.176h6.144v3.264h-6.144v23.488q0 1.728.768 2.432t2.432.704q1.472 0 2.624-.512h.192v3.392q-1.6.576-3.648.576m21.341-2.752q5.313 0 8.256-3.968t2.944-10.048-2.944-10.048q-2.943-3.968-8.256-3.968-5.376 0-8.32 3.968t-2.944 10.048 2.944 10.048 8.32 3.968m0 3.328q-7.04 0-11.2-4.864-4.16-4.928-4.16-12.48t4.16-12.416q4.16-4.928 11.2-4.928 6.977 0 11.072 4.928 4.16 4.864 4.16 12.416t-4.16 12.48q-4.095 4.864-11.072 4.864m33.235-3.328q5.313 0 8.256-3.968t2.944-10.048-2.944-10.048q-2.943-3.968-8.256-3.968-5.376 0-8.32 3.968t-2.944 10.048 2.944 10.048 8.32 3.968m0 3.328q-7.04 0-11.2-4.864-4.16-4.928-4.16-12.48t4.16-12.416q4.16-4.928 11.2-4.928 6.977 0 11.072 4.928 4.16 4.864 4.16 12.416t-4.16 12.48q-4.095 4.864-11.072 4.864m19.795-.832V66.24h3.968V112zM3.496 173v-33.088h3.968V173zm0-40.128v-5.632h3.968v5.632zM13.541 173v-33.088h3.968v5.056h.128q3.903-5.76 11.072-5.76 4.735 0 7.616 2.752 2.944 2.688 2.944 7.552V173H35.3v-23.104q0-7.296-7.553-7.296-4.287 0-7.296 2.688-2.943 2.688-2.943 6.72V173zm43.068.896q-6.4 0-9.92-3.072-3.455-3.072-3.776-8.128h4.033q.831 7.808 9.728 7.808 4.032 0 6.208-1.728 2.175-1.728 2.176-4.672 0-2.688-1.857-3.968-1.792-1.28-6.976-2.432-3.007-.704-4.8-1.28a22.6 22.6 0 0 1-3.711-1.6q-1.857-1.088-2.752-2.688-.833-1.664-.833-3.968 0-4.096 3.2-6.528t8.32-2.432q11.009 0 12.289 9.792h-3.969q-.703-6.528-8.32-6.528-3.712 0-5.632 1.536t-1.92 3.968q0 2.624 2.048 3.776 2.048 1.088 7.424 2.368 5.889 1.216 8.64 3.264 2.816 1.984 2.816 6.656 0 4.48-3.392 7.168-3.327 2.688-9.023 2.688m24.802-.64q-6.336 0-6.336-5.952v-24.128h-4.992v-3.264h4.992v-10.176h3.968v10.176h6.144v3.264h-6.144v23.488q0 1.728.768 2.432t2.432.704q1.472 0 2.624-.512h.192v3.392q-1.6.576-3.648.576m16.982.512q-4.8 0-7.808-2.368t-3.008-6.848q0-2.816.96-4.736 1.024-1.984 3.072-3.072a19 19 0 0 1 4.224-1.6q2.176-.576 5.376-.96 5.376-.64 7.104-1.344 1.792-.768 1.792-3.136v-.64q0-6.656-7.936-6.656-8.832 0-9.28 7.36h-3.904q.32-4.928 3.648-7.744t9.536-2.816q11.712 0 11.712 10.24v17.984q0 2.752 2.176 2.88.32 0 1.472-.256h.192v2.88q-1.152.512-2.688.512-4.608 0-4.864-4.672v-.704h-.192q-4.032 5.696-11.584 5.696m.704-3.2q5.12 0 8.064-2.88 3.008-2.944 3.008-6.656v-5.952q-2.432 1.344-8.576 2.176-2.047.256-3.264.512a24 24 0 0 0-2.624.768q-1.408.512-2.176 1.216-.704.704-1.28 1.92-.512 1.216-.512 2.88 0 6.016 7.36 6.016M120.73 173v-33.088h3.968v5.056h.128q3.905-5.76 11.072-5.76 4.737 0 7.616 2.752 2.944 2.688 2.944 7.552V173h-3.968v-23.104q0-7.296-7.552-7.296-4.287 0-7.296 2.688-2.943 2.688-2.944 6.72V173zm39.948.256q-6.336 0-6.336-5.952v-24.128h-4.992v-3.264h4.992v-10.176h3.968v10.176h6.144v3.264h-6.144v23.488q0 1.728.768 2.432t2.432.704q1.472 0 2.624-.512h.192v3.392q-1.599.576-3.648.576m8.527-.256v-45.76h3.968V173zm13.624 10.944a11.5 11.5 0 0 1-3.392-.512v-3.52h.192q1.344.448 3.008.448 3.904 0 5.504-4.48l1.088-2.944-12.736-33.024h4.224l7.936 21.376 2.624 7.552h.128a229 229 0 0 1 2.496-7.552l7.616-21.376h4.096l-13.632 36.544q-1.6 4.288-3.712 5.888-2.048 1.6-5.44 1.6M0 235v-.64h.42q.42 0 .64-.08a.84.84 0 0 0 .4-.38q.18-.28.38-.82l4.44-12.36H7.4l4.48 12.62q.16.44.32.66.16.2.4.28t.66.08h.34v.64H8.74v-.64h.56q.66 0 .9-.18.24-.2.24-.6 0-.18-.06-.42t-.14-.48-.14-.4l-.76-2.16h-5.5l-.74 2.08q-.06.18-.14.44l-.16.52q-.06.24-.06.42 0 .4.26.6.28.18.96.18h.74v.64zm4.12-5.66h4.94l-1.38-4q-.18-.56-.4-1.14-.2-.6-.38-1.16a87 87 0 0 1-.28-1q-.08.3-.2.68-.1.36-.24.78-.12.4-.28.84-.14.42-.28.82zM18.61 235v-.64h.44q.52 0 .84-.08a.79.79 0 0 0 .5-.42q.16-.32.16-1v-7.84h-1.86v-.74h1.86v-1.12q0-1.72.88-2.64.88-.94 2.42-.94.86 0 1.4.2t.8.54q.26.32.26.7a1 1 0 0 1-.14.54.9.9 0 0 1-.4.34q-.24.1-.54.1 0-.46-.14-.84a1.1 1.1 0 0 0-.44-.6q-.32-.24-.9-.24-1 0-1.46.72-.46.7-.46 2.02v1.22h2.84v.74h-2.84v7.84q0 .68.16 1a.79.79 0 0 0 .48.42q.34.08.86.08h.9v.64zm11.454.2q-1.62 0-2.46-.94-.82-.94-.82-2.96v-4.96q0-.66-.18-.94a.73.73 0 0 0-.5-.38q-.34-.1-.92-.1h-.28v-.64h3.16v7q0 .88.2 1.58.2.68.72 1.06.519.36 1.44.36 1 0 1.64-.46.64-.48.94-1.26.32-.78.32-1.76v-4.42q0-.66-.16-.96a.67.67 0 0 0-.5-.4q-.34-.1-.92-.1h-.2v-.64h3.06v8.68q0 .62.16.92t.5.4q.339.08.84.08h.34v.64h-2.86l-.16-1.72h-.1q-.261.48-.6.86-.321.36-.72.6-.4.22-.9.34-.48.12-1.04.12m10.883 0q-1.36 0-1.96-.68-.6-.7-.6-2.38v-7.02h-1.54v-.6q.38 0 .76-.14a1.7 1.7 0 0 0 .66-.4q.28-.28.46-.78t.26-1.36h.68v2.44h2.58v.84h-2.58v7.14q0 1.12.38 1.64.4.5 1.16.5.34 0 .62-.02.28-.04.6-.1v.7q-.28.1-.7.16-.4.06-.78.06m7.125 0q-1.62 0-2.46-.94-.82-.94-.82-2.96v-4.96q0-.66-.18-.94a.73.73 0 0 0-.5-.38q-.34-.1-.92-.1h-.28v-.64h3.16v7q0 .88.2 1.58.2.68.72 1.06.52.36 1.44.36 1 0 1.64-.46.64-.48.94-1.26.32-.78.32-1.76v-4.42q0-.66-.16-.96a.67.67 0 0 0-.5-.4q-.34-.1-.92-.1h-.2v-.64h3.06v8.68q0 .62.16.92t.5.4q.34.08.84.08h.34v.64h-2.86l-.16-1.72h-.1q-.26.48-.6.86-.32.36-.72.6-.4.22-.9.34-.48.12-1.04.12m7.223-.2v-.64h.24q.52 0 .84-.08a.79.79 0 0 0 .5-.42q.16-.32.16-1v-6.52q0-.66-.16-.94a.74.74 0 0 0-.52-.38q-.34-.1-.92-.1h-.18v-.64h2.76l.22 2.1h.08q.26-.6.58-1.12.321-.52.84-.84.52-.32 1.34-.32.94 0 1.44.38t.5 1.04q0 .44-.28.76-.28.3-.92.3 0-.56-.14-.9-.12-.34-.38-.48-.26-.16-.68-.16-.579 0-1.02.42-.42.42-.7 1.1-.28.66-.44 1.44a8.6 8.6 0 0 0-.14 1.52v3.4q0 .66.16.96.18.3.5.4.34.08.84.08h.62v.64zm13.169.2q-2.02 0-3.2-1.42-1.16-1.44-1.16-4.04 0-2.82 1.08-4.22 1.1-1.4 3.1-1.4 1.82 0 2.84 1.26 1.04 1.26 1.04 3.64v.62h-6.74q.02 1.58.4 2.62.38 1.02 1.1 1.52t1.72.5q.72 0 1.26-.22.56-.22.96-.56.4-.36.64-.78.12.06.2.2t.08.34q0 .36-.36.82t-1.1.8q-.741.32-1.86.32m2.34-6.36q0-1.18-.28-2.04-.261-.88-.84-1.36-.561-.5-1.44-.5-.9 0-1.5.46-.58.46-.9 1.34-.3.86-.38 2.1zm2.493 1.24V229h5.2v1.08zm5.711 9.72v-.64h.36q.52 0 .86-.1a.66.66 0 0 0 .48-.4q.16-.32.16-1v-11.32q0-.66-.16-.94a.74.74 0 0 0-.52-.38q-.339-.1-.9-.1h-.54v-.64h3.22l.14 1.92h.08a3.95 3.95 0 0 1 1.14-1.52q.76-.6 2-.6 2 0 2.98 1.32 1 1.32 1 4.14 0 2.92-1.04 4.3-1.04 1.36-2.92 1.36-1.22 0-2-.54-.78-.56-1.2-1.52h-.06q.02.28.02.66.02.36.02.8.02.42.02.9v2.22q0 .66.16.96.18.3.5.38.34.1.86.1h.4v.64zm6.18-5.52q.96 0 1.58-.54.62-.56.92-1.6.32-1.04.32-2.56t-.3-2.54q-.279-1.02-.9-1.52-.62-.52-1.66-.52-1.12 0-1.78.54-.64.54-.94 1.56-.28 1.02-.28 2.42 0 1.48.28 2.56.3 1.06.96 1.64.681.56 1.8.56m5.715.72v-.64h.24q.519 0 .84-.08a.79.79 0 0 0 .5-.42q.16-.32.16-1v-6.52q0-.66-.16-.94a.74.74 0 0 0-.52-.38q-.34-.1-.92-.1h-.18v-.64h2.76l.22 2.1h.08q.26-.6.58-1.12t.84-.84 1.34-.32q.939 0 1.44.38.5.38.5 1.04 0 .44-.28.76-.28.3-.92.3 0-.56-.14-.9-.12-.34-.38-.48-.26-.16-.68-.16-.58 0-1.02.42-.42.42-.7 1.1-.28.66-.44 1.44a8.6 8.6 0 0 0-.14 1.52v3.4q0 .66.16.96.18.3.5.4.339.08.84.08h.62v.64zm13.168.2q-2.02 0-3.18-1.36-1.16-1.38-1.16-4.2 0-2.8 1.12-4.16 1.119-1.36 3.3-1.36 2.04 0 3.18 1.34t1.14 4.18q0 2.82-1.12 4.2-1.12 1.36-3.28 1.36m.02-.8q1.119 0 1.8-.56.68-.56.96-1.62.3-1.08.3-2.58 0-1.6-.32-2.64-.3-1.04-.98-1.56-.66-.52-1.72-.52-1.12 0-1.8.54-.68.52-1 1.56-.3 1.04-.3 2.62 0 1.52.3 2.6.32 1.06 1 1.62.68.54 1.76.54m10.693.8q-2.02 0-3.18-1.36-1.16-1.38-1.16-4.2 0-2.8 1.12-4.16t3.3-1.36q2.04 0 3.18 1.34t1.14 4.18q0 2.82-1.12 4.2-1.12 1.36-3.28 1.36m.02-.8q1.12 0 1.8-.56t.96-1.62q.3-1.08.3-2.58 0-1.6-.32-2.64-.3-1.04-.98-1.56-.66-.52-1.72-.52-1.12 0-1.8.54-.68.52-1 1.56-.3 1.04-.3 2.62 0 1.52.3 2.6.32 1.06 1 1.62.68.54 1.76.54m5.773.6v-.64h.44q.52 0 .84-.08a.79.79 0 0 0 .5-.42q.16-.32.16-1v-7.84h-1.86v-.74h1.86v-1.12q0-1.72.88-2.64.88-.94 2.42-.94.86 0 1.4.2t.8.54q.26.32.26.7a1 1 0 0 1-.14.54.9.9 0 0 1-.4.34q-.24.1-.54.1 0-.46-.14-.84a1.1 1.1 0 0 0-.44-.6q-.32-.24-.9-.24-1 0-1.46.72-.46.7-.46 2.02v1.22h2.84v.74h-2.84v7.84q0 .68.16 1a.79.79 0 0 0 .48.42q.34.08.86.08h.9v.64zm11.329 0v-.64h.44q.52 0 .84-.08a.79.79 0 0 0 .5-.42q.16-.32.16-1v-7.84h-1.86v-.74h1.86v-1.12q0-1.72.88-2.64.88-.94 2.42-.94.86 0 1.4.2t.8.54q.26.32.26.7a1 1 0 0 1-.14.54.9.9 0 0 1-.4.34q-.24.1-.54.1 0-.46-.14-.84a1.12 1.12 0 0 0-.44-.6q-.32-.24-.9-.24-1 0-1.46.72-.46.7-.46 2.02v1.22h2.84v.74h-2.84v7.84q0 .68.16 1a.79.79 0 0 0 .48.42q.34.08.86.08h.9v.64zm6.714 0v-.64h.24q.519 0 .84-.08a.8.8 0 0 0 .5-.42q.16-.32.16-1v-6.52q0-.66-.16-.94a.74.74 0 0 0-.52-.38q-.34-.1-.92-.1h-.18v-.64h2.76l.22 2.1h.08q.26-.6.58-1.12t.84-.84 1.34-.32q.939 0 1.44.38.5.38.5 1.04 0 .44-.28.76-.28.3-.92.3 0-.56-.14-.9-.12-.34-.38-.48-.26-.16-.68-.16-.58 0-1.02.42-.42.42-.7 1.1-.28.66-.44 1.44a8.5 8.5 0 0 0-.14 1.52v3.4q0 .66.16.96.18.3.5.4.339.08.84.08h.62v.64zm11.257.2a3.3 3.3 0 0 1-1.5-.34 2.54 2.54 0 0 1-1.08-1.04q-.38-.72-.38-1.78 0-1.6 1.12-2.34 1.14-.76 3.48-.84l1.66-.06v-1.24q0-.78-.14-1.38t-.62-.94q-.48-.36-1.44-.36-.86 0-1.32.3a1.38 1.38 0 0 0-.62.8q-.16.52-.16 1.2-.56 0-.84-.24-.28-.26-.28-.86 0-.58.36-1.02.38-.44 1.12-.68.74-.26 1.78-.26 1.82 0 2.62.82.82.8.82 2.48v5.34q0 .64.1 1 .1.34.36.48.26.12.76.12h.08v.64h-2.24l-.24-1.88h-.1q-.32.5-.76.98-.42.48-1.02.8-.6.3-1.52.3m.3-.9q.88 0 1.56-.4.68-.42 1.06-1.1t.38-1.42v-1.92l-1.48.06q-1.32.04-2.08.36t-1.08.88-.32 1.34q0 .64.2 1.14.22.5.64.78.44.28 1.12.28m6.78.7v-.64h.34q.58 0 .92-.08a.73.73 0 0 0 .48-.4q.14-.32.14-.98v-6.56q0-.66-.14-.94a.67.67 0 0 0-.48-.38 2.8 2.8 0 0 0-.82-.1h-.2v-.64h2.7l.16 1.72h.1q.34-.72.78-1.12.46-.42 1.02-.58.58-.18 1.22-.18.78 0 1.34.22t.94.66q.38.42.58 1.02h.12q.32-.66.76-1.08.46-.42 1.04-.62.6-.2 1.34-.2 1.58 0 2.38.94.8.92.8 2.84v5q0 .66.14.98.16.3.5.4.34.08.9.08h.12v.64h-2.94v-7.08q0-1.38-.52-2.12-.52-.76-1.76-.76-.94 0-1.52.42-.56.42-.82 1.16-.24.72-.24 1.58v4.7q0 .66.14.98.14.3.48.4.34.08.92.08h.16v.64h-2.98v-7.08q0-1.38-.52-2.12-.52-.76-1.8-.76-.92 0-1.5.48t-.86 1.26a5.4 5.4 0 0 0-.26 1.7v4.48q0 .64.16.94a.81.81 0 0 0 .5.38q.36.08.94.08h.22v.64zm22.878.2q-2.02 0-3.2-1.42-1.16-1.44-1.16-4.04 0-2.82 1.08-4.22 1.1-1.4 3.1-1.4 1.82 0 2.84 1.26 1.04 1.26 1.04 3.64v.62h-6.74q.02 1.58.4 2.62.38 1.02 1.1 1.52t1.72.5q.72 0 1.26-.22.561-.22.96-.56.4-.36.64-.78a.5.5 0 0 1 .2.2q.08.14.08.34 0 .36-.36.82t-1.1.8q-.74.32-1.86.32m2.34-6.36q0-1.18-.28-2.04-.26-.88-.84-1.36-.56-.5-1.44-.5-.9 0-1.5.46-.579.46-.9 1.34-.3.86-.38 2.1zm3.614-2.86q-.12-.44-.28-.66a.77.77 0 0 0-.4-.32q-.22-.08-.62-.08h-.24v-.64h4.24v.64h-.4q-.54 0-.78.14-.22.14-.22.5 0 .16.08.52.1.34.16.6l1.1 3.88q.14.48.28 1.12.16.62.3 1.2t.2.92h.06a9 9 0 0 1 .22-.9l.38-1.18q.22-.64.38-1.12l2.16-6.28h1l2.08 6.06.28.84q.16.48.32.98t.28.94q.14.44.2.7h.06a8 8 0 0 1 .2-.82l.32-1.1q.18-.62.4-1.34l1.18-3.78q.12-.34.18-.66.08-.32.08-.5 0-.38-.24-.54-.24-.18-.82-.18h-.42v-.64h3.94v.64h-.34q-.4 0-.64.1-.24.08-.4.36-.14.28-.32.84l-2.72 8.78h-1.2l-3.12-9.2-3.12 9.2h-1.16zm20.844 9.22q-2.02 0-3.18-1.36-1.16-1.38-1.16-4.2 0-2.8 1.12-4.16t3.3-1.36q2.04 0 3.18 1.34t1.14 4.18q0 2.82-1.12 4.2-1.12 1.36-3.28 1.36m.02-.8q1.12 0 1.8-.56t.96-1.62q.3-1.08.3-2.58 0-1.6-.32-2.64-.3-1.04-.98-1.56-.66-.52-1.72-.52-1.12 0-1.8.54-.68.52-1 1.56-.3 1.04-.3 2.62 0 1.52.3 2.6.32 1.06 1 1.62.68.54 1.76.54m5.953.6v-.64h.24q.52 0 .84-.08a.79.79 0 0 0 .5-.42q.16-.32.16-1v-6.52q0-.66-.16-.94a.74.74 0 0 0-.52-.38q-.34-.1-.92-.1h-.18v-.64h2.76l.22 2.1h.08q.26-.6.58-1.12.321-.52.84-.84.52-.32 1.34-.32.94 0 1.44.38t.5 1.04q0 .44-.28.76-.28.3-.92.3 0-.56-.14-.9-.12-.34-.38-.48-.26-.16-.68-.16-.579 0-1.02.42-.42.42-.7 1.1-.28.66-.44 1.44a8.6 8.6 0 0 0-.14 1.52v3.4q0 .66.16.96.18.3.5.4.34.08.84.08h.62v.64zm8.009 0v-.64h.28q.58 0 .92-.08.36-.1.52-.4.16-.32.16-.98v-11q0-.68-.18-.98a.73.73 0 0 0-.5-.38q-.321-.1-.84-.1h-.36v-.64h3.16v7.72q0 .32-.02.72 0 .4-.02.82l-.04.74v.54l2.74-2.94q.639-.68.96-1.08t.42-.62a.8.8 0 0 0 .12-.38q0-.26-.28-.32-.28-.08-.88-.08v-.64h3.96v.64q-.38 0-.68.1a1.6 1.6 0 0 0-.56.3 5 5 0 0 0-.58.54q-.3.32-.72.8l-1.78 1.94 2.6 4q.42.62.76 1.02.36.38.74.56t.8.18h.08v.64h-.28a9 9 0 0 1-1.16-.06 2.1 2.1 0 0 1-.8-.26q-.34-.2-.68-.62a15 15 0 0 1-.76-1.12l-2.16-3.42-1.78 1.66v1.78q0 .64.16.94a.8.8 0 0 0 .5.38q.36.08.92.08h.12v.64zm20.348.2q-1.26 0-2.18-.6-.9-.62-1.38-1.84-.46-1.24-.46-3.1t.44-3.08q.44-1.24 1.32-1.86t2.2-.62q1.24 0 2.02.52.8.52 1.22 1.38h.1l-.04-.72-.04-.74v-2.64q0-.68-.16-.98a.73.73 0 0 0-.5-.38q-.32-.1-.84-.1h-.32v-.64h3.1v13.14q0 .64.16.94t.5.4q.36.08.94.08h.22v.64h-2.9l-.16-2h-.06q-.44.98-1.18 1.6-.74.6-2 .6m.14-.92q1.66-.02 2.36-1.2.72-1.18.72-3.4 0-1.52-.3-2.54-.28-1.04-.94-1.56-.66-.54-1.84-.54-1.02 0-1.66.54-.62.54-.9 1.58t-.28 2.54.32 2.54q.32 1.02.96 1.54t1.56.5m11.655.92q-2.02 0-3.2-1.42-1.16-1.44-1.16-4.04 0-2.82 1.08-4.22 1.1-1.4 3.1-1.4 1.82 0 2.84 1.26 1.04 1.26 1.04 3.64v.62h-6.74q.02 1.58.4 2.62.38 1.02 1.1 1.52t1.72.5q.72 0 1.26-.22a3.4 3.4 0 0 0 .96-.56q.4-.36.64-.78a.5.5 0 0 1 .2.2q.08.14.08.34 0 .36-.36.82t-1.1.8q-.74.32-1.86.32m2.34-6.36q0-1.18-.28-2.04-.26-.88-.84-1.36-.56-.5-1.44-.5-.9 0-1.5.46-.58.46-.9 1.34-.3.86-.38 2.1zm6.154 6.36q-1.06 0-1.74-.28-.681-.3-1.02-.76-.32-.48-.32-1.08 0-.42.14-.66a.8.8 0 0 1 .34-.36.9.9 0 0 1 .4-.1q0 .72.2 1.3.2.56.7.88.5.3 1.36.3 1.12 0 1.7-.58.6-.6.6-1.46 0-.5-.18-.84-.18-.36-.66-.68-.48-.34-1.38-.76-1.08-.54-1.76-1-.66-.46-.98-1-.3-.56-.3-1.36 0-1.22.9-1.92.9-.72 2.4-.72.94 0 1.54.28t.88.72q.3.42.3.9 0 .46-.26.74-.24.28-.72.28 0-1.14-.48-1.66t-1.42-.52q-.7 0-1.14.22a1.5 1.5 0 0 0-.66.62q-.2.38-.2.9 0 .56.26.96.279.4.84.74.56.32 1.4.72 1.04.46 1.64.92t.84 1q.26.54.26 1.26 0 1.42-.96 2.22-.96.78-2.52.78m4.573-.2v-.64h.4q.58 0 .92-.08.36-.1.52-.38.16-.3.16-.94v-6.58q0-.68-.16-.98a.73.73 0 0 0-.5-.38q-.32-.1-.84-.1h-.2v-.64h2.98v8.62q0 .66.16.98a.8.8 0 0 0 .5.4q.36.08.94.08h.42v.64zm2.56-12.92a.85.85 0 0 1-.6-.22q-.24-.24-.24-.82 0-.6.24-.82t.6-.22q.34 0 .58.22t.24.82q0 .58-.24.82a.83.83 0 0 1-.58.22m7.215 17.72q-1.96 0-2.98-.82-1-.8-1-2.22 0-.8.34-1.38.36-.56.92-.88a3.3 3.3 0 0 1 1.18-.44 1.96 1.96 0 0 1-.76-.54q-.32-.38-.32-.98t.34-1.04q.34-.46.82-.76-.86-.4-1.28-1.24a4.1 4.1 0 0 1-.42-1.82q0-1.62.9-2.58.9-.98 2.64-.98.72 0 1.32.22.6.2.92.5a5 5 0 0 1 .44-.46 3 3 0 0 1 .62-.44q.36-.18.78-.18.56 0 .82.28a.96.96 0 0 1 .26.68q0 .38-.2.64-.18.26-.58.26 0-.38-.12-.62t-.48-.24q-.339 0-.6.16-.24.14-.52.38.32.4.52 1 .22.58.22 1.42 0 1.48-.86 2.44-.84.96-2.54.96a6 6 0 0 1-.62-.04q-.36-.04-.54-.1-.36.22-.62.56t-.26.86q0 .48.38.7.4.2 1.2.2h1.86q1.08 0 1.76.36.7.34 1.02.98.34.64.34 1.52 0 1.66-1.22 2.64-1.2 1-3.68 1m.06-.76q1.36 0 2.16-.34.8-.32 1.16-.92t.36-1.42q0-1.08-.56-1.46-.56-.4-1.62-.4h-1.9q-.68 0-1.26.2a1.87 1.87 0 0 0-.9.66q-.34.48-.34 1.34 0 .64.26 1.16.26.54.88.86.64.32 1.76.32m.26-8.66q.74 0 1.22-.26.48-.28.72-.86.24-.6.24-1.56 0-.98-.24-1.6-.24-.64-.72-.92-.48-.3-1.22-.3-.699 0-1.2.3-.5.3-.76.94-.24.62-.24 1.6 0 .9.26 1.5.26.58.74.88.501.28 1.2.28m5.768 4.62v-.64h.28q.6 0 .94-.08a.8.8 0 0 0 .5-.4q.16-.32.16-.98v-6.56q0-.66-.16-.94a.72.72 0 0 0-.48-.38q-.32-.1-.84-.1h-.3v-.64h2.84l.16 1.68h.1q.42-.74.88-1.14.48-.4 1.04-.54.58-.16 1.28-.16 1.64 0 2.48.92t.84 2.9v4.96q0 .66.14.98.141.3.48.4.34.08.9.08h.2v.64h-3v-7.08q0-1.32-.54-2.1t-1.9-.78q-1.08 0-1.7.5a2.6 2.6 0 0 0-.88 1.28 5.2 5.2 0 0 0-.26 1.66v4.48q0 .64.16.94a.82.82 0 0 0 .5.38q.34.08.92.08h.2v.64zm17.117.2q-2.02 0-3.2-1.42-1.16-1.44-1.16-4.04 0-2.82 1.08-4.22 1.1-1.4 3.1-1.4 1.82 0 2.84 1.26 1.04 1.26 1.04 3.64v.62h-6.74q.02 1.58.4 2.62.38 1.02 1.1 1.52t1.72.5q.72 0 1.26-.22a3.4 3.4 0 0 0 .96-.56q.4-.36.64-.78a.5.5 0 0 1 .2.2q.08.14.08.34 0 .36-.36.82t-1.1.8q-.74.32-1.86.32m2.34-6.36q0-1.18-.28-2.04-.26-.88-.84-1.36-.56-.5-1.44-.5-.9 0-1.5.46-.58.46-.9 1.34-.3.86-.38 2.1zm7.213 6.36q-1.26 0-2.18-.6-.9-.62-1.38-1.84-.46-1.24-.46-3.1t.44-3.08q.441-1.24 1.32-1.86.88-.62 2.2-.62 1.24 0 2.02.52.8.52 1.22 1.38h.1l-.04-.72q-.02-.38-.04-.74v-2.64q0-.68-.16-.98a.73.73 0 0 0-.5-.38q-.32-.1-.84-.1h-.32v-.64h3.1v13.14q0 .64.16.94a.8.8 0 0 0 .5.4q.36.08.94.08h.22v.64h-2.9l-.16-2h-.06q-.44.98-1.18 1.6-.74.6-2 .6m.14-.92q1.66-.02 2.36-1.2.72-1.18.72-3.4 0-1.52-.3-2.54-.28-1.04-.94-1.56-.66-.54-1.84-.54-1.02 0-1.66.54-.62.54-.9 1.58t-.28 2.54.32 2.54q.321 1.02.96 1.54.64.52 1.56.5m15.371.92q-1.36 0-1.96-.68-.6-.7-.6-2.38v-7.02h-1.54v-.6q.38 0 .76-.14a1.7 1.7 0 0 0 .66-.4q.28-.28.46-.78t.26-1.36h.68v2.44h2.58v.84h-2.58v7.14q0 1.12.38 1.64.4.5 1.16.5.34 0 .62-.02.279-.04.6-.1v.7q-.28.1-.7.16-.4.06-.78.06m7.125 0q-2.02 0-3.18-1.36-1.16-1.38-1.16-4.2 0-2.8 1.12-4.16t3.3-1.36q2.04 0 3.18 1.34t1.14 4.18q0 2.82-1.12 4.2-1.12 1.36-3.28 1.36m.02-.8q1.12 0 1.8-.56t.96-1.62q.3-1.08.3-2.58 0-1.6-.32-2.64-.3-1.04-.98-1.56-.66-.52-1.72-.52-1.12 0-1.8.54-.68.52-1 1.56-.3 1.04-.3 2.62 0 1.52.3 2.6.32 1.06 1 1.62.68.54 1.76.54m10.489.6v-.64h.4q.58 0 .92-.08.36-.1.52-.38.16-.3.16-.94v-6.58q0-.68-.16-.98a.73.73 0 0 0-.5-.38q-.321-.1-.84-.1h-.2v-.64h2.98v8.62q0 .66.16.98.16.3.5.4.36.08.94.08h.42v.64zm2.56-12.92a.85.85 0 0 1-.6-.22q-.24-.24-.24-.82 0-.6.24-.82t.6-.22q.34 0 .58.22t.24.82q0 .58-.24.82a.83.83 0 0 1-.58.22m3.195 12.92v-.64h.28q.6 0 .94-.08a.8.8 0 0 0 .5-.4q.16-.32.16-.98v-6.56q0-.66-.16-.94a.72.72 0 0 0-.48-.38q-.321-.1-.84-.1h-.3v-.64h2.84l.16 1.68h.1q.42-.74.88-1.14.48-.4 1.04-.54.58-.16 1.28-.16 1.64 0 2.48.92t.84 2.9v4.96q0 .66.14.98.14.3.48.4.339.08.9.08h.2v.64h-3v-7.08q0-1.32-.54-2.1t-1.9-.78q-1.08 0-1.7.5-.62.48-.88 1.28a5.2 5.2 0 0 0-.26 1.66v4.48q0 .64.16.94a.8.8 0 0 0 .5.38q.34.08.92.08h.2v.64zm16.037.2q-1.36 0-1.96-.68-.6-.7-.6-2.38v-7.02h-1.54v-.6q.38 0 .76-.14a1.7 1.7 0 0 0 .66-.4q.28-.28.46-.78t.26-1.36h.68v2.44h2.58v.84h-2.58v7.14q0 1.12.38 1.64.4.5 1.16.5.34 0 .62-.02.279-.04.6-.1v.7q-.28.1-.7.16-.4.06-.78.06m7.125 0q-2.02 0-3.2-1.42-1.16-1.44-1.16-4.04 0-2.82 1.08-4.22 1.1-1.4 3.1-1.4 1.82 0 2.84 1.26 1.04 1.26 1.04 3.64v.62h-6.74q.02 1.58.4 2.62.38 1.02 1.1 1.52t1.72.5q.72 0 1.26-.22a3.4 3.4 0 0 0 .96-.56q.4-.36.64-.78.12.06.2.2t.08.34q0 .36-.36.82t-1.1.8q-.741.32-1.86.32m2.34-6.36q0-1.18-.28-2.04-.261-.88-.84-1.36-.561-.5-1.44-.5-.9 0-1.5.46-.58.46-.9 1.34-.3.86-.38 2.1zm6.673 10.96q-1.96 0-2.98-.82-1-.8-1-2.22 0-.8.34-1.38.36-.56.92-.88a3.3 3.3 0 0 1 1.18-.44 1.96 1.96 0 0 1-.76-.54q-.32-.38-.32-.98t.34-1.04q.34-.46.82-.76-.86-.4-1.28-1.24a4.1 4.1 0 0 1-.42-1.82q0-1.62.9-2.58.9-.98 2.64-.98.72 0 1.32.22.6.2.92.5a5 5 0 0 1 .44-.46 3 3 0 0 1 .62-.44q.36-.18.78-.18.56 0 .82.28a.96.96 0 0 1 .26.68q0 .38-.2.64-.18.26-.58.26 0-.38-.12-.62t-.48-.24q-.339 0-.6.16-.24.14-.52.38.32.4.52 1 .22.58.22 1.42 0 1.48-.86 2.44-.84.96-2.54.96a6 6 0 0 1-.62-.04q-.36-.04-.54-.1-.36.22-.62.56t-.26.86q0 .48.38.7.4.2 1.2.2h1.86q1.08 0 1.76.36.7.34 1.02.98.34.64.34 1.52 0 1.66-1.22 2.64-1.2 1-3.68 1m.06-.76q1.36 0 2.16-.34.8-.32 1.16-.92t.36-1.42q0-1.08-.56-1.46-.56-.4-1.62-.4h-1.9q-.68 0-1.26.2a1.87 1.87 0 0 0-.9.66q-.34.48-.34 1.34 0 .64.26 1.16.26.54.88.86.64.32 1.76.32m.26-8.66q.74 0 1.22-.26.48-.28.72-.86.24-.6.24-1.56 0-.98-.24-1.6-.24-.64-.72-.92-.48-.3-1.22-.3-.699 0-1.2.3-.5.3-.76.94-.24.62-.24 1.6 0 .9.26 1.5.26.58.74.88.501.28 1.2.28m5.908 4.62v-.64h.24q.52 0 .84-.08a.79.79 0 0 0 .5-.42q.16-.32.16-1v-6.52q0-.66-.16-.94a.74.74 0 0 0-.52-.38q-.34-.1-.92-.1h-.18v-.64h2.76l.22 2.1h.08q.26-.6.58-1.12t.84-.84 1.34-.32q.94 0 1.44.38t.5 1.04q0 .44-.28.76-.28.3-.92.3 0-.56-.14-.9-.12-.34-.38-.48-.26-.16-.68-.16-.58 0-1.02.42-.42.42-.7 1.1a7.6 7.6 0 0 0-.44 1.44 8.6 8.6 0 0 0-.14 1.52v3.4q0 .66.16.96.18.3.5.4.34.08.84.08h.62v.64zm11.258.2a3.3 3.3 0 0 1-1.5-.34 2.53 2.53 0 0 1-1.08-1.04q-.38-.72-.38-1.78 0-1.6 1.12-2.34 1.14-.76 3.48-.84l1.66-.06v-1.24q0-.78-.14-1.38t-.62-.94q-.48-.36-1.44-.36-.861 0-1.32.3a1.38 1.38 0 0 0-.62.8q-.16.52-.16 1.2-.561 0-.84-.24-.28-.26-.28-.86 0-.58.36-1.02.38-.44 1.12-.68.74-.26 1.78-.26 1.82 0 2.62.82.82.8.82 2.48v5.34q0 .64.1 1 .099.34.36.48.26.12.76.12h.08v.64h-2.24l-.24-1.88h-.1q-.32.5-.76.98-.42.48-1.02.8-.6.3-1.52.3m.3-.9q.879 0 1.56-.4.68-.42 1.06-1.1t.38-1.42v-1.92l-1.48.06q-1.32.04-2.08.36t-1.08.88-.32 1.34q0 .64.2 1.14.22.5.64.78.44.28 1.12.28m10.579.9q-1.36 0-1.96-.68-.6-.7-.6-2.38v-7.02h-1.54v-.6q.38 0 .76-.14.4-.14.66-.4.28-.28.46-.78t.26-1.36h.68v2.44h2.58v.84h-2.58v7.14q0 1.12.38 1.64.4.5 1.16.5.34 0 .62-.02.28-.04.6-.1v.7q-.28.1-.7.16-.399.06-.78.06m7.126 0q-2.02 0-3.2-1.42-1.16-1.44-1.16-4.04 0-2.82 1.08-4.22 1.1-1.4 3.1-1.4 1.82 0 2.84 1.26 1.04 1.26 1.04 3.64v.62h-6.74q.02 1.58.4 2.62.38 1.02 1.1 1.52t1.72.5q.72 0 1.26-.22a3.4 3.4 0 0 0 .96-.56q.4-.36.64-.78.12.06.2.2t.08.34q0 .36-.36.82t-1.1.8q-.741.32-1.86.32m2.34-6.36q0-1.18-.28-2.04-.261-.88-.84-1.36-.561-.5-1.44-.5-.9 0-1.5.46-.58.46-.9 1.34-.3.86-.38 2.1zm10.808 6.36a3.3 3.3 0 0 1-1.5-.34 2.54 2.54 0 0 1-1.08-1.04q-.38-.72-.38-1.78 0-1.6 1.12-2.34 1.14-.76 3.48-.84l1.66-.06v-1.24q0-.78-.14-1.38t-.62-.94q-.48-.36-1.44-.36-.86 0-1.32.3a1.39 1.39 0 0 0-.62.8q-.16.52-.16 1.2-.56 0-.84-.24-.28-.26-.28-.86 0-.58.36-1.02.38-.44 1.12-.68.74-.26 1.78-.26 1.82 0 2.62.82.82.8.82 2.48v5.34q0 .64.1 1 .1.34.36.48.26.12.76.12h.08v.64h-2.24l-.24-1.88h-.1q-.32.5-.76.98-.42.48-1.02.8-.6.3-1.52.3m.3-.9q.88 0 1.56-.4.68-.42 1.06-1.1t.38-1.42v-1.92l-1.48.06q-1.32.04-2.08.36-.759.32-1.08.88-.32.56-.32 1.34 0 .64.2 1.14.22.5.64.78.44.28 1.12.28m6.78.7v-.64h.28q.6 0 .94-.08a.8.8 0 0 0 .5-.4q.16-.32.16-.98v-6.56q0-.66-.16-.94a.72.72 0 0 0-.48-.38q-.32-.1-.84-.1h-.3v-.64h2.84l.16 1.68h.1q.42-.74.88-1.14.48-.4 1.04-.54.58-.16 1.28-.16 1.64 0 2.48.92t.84 2.9v4.96q0 .66.14.98.141.3.48.4.34.08.9.08h.2v.64h-3v-7.08q0-1.32-.54-2.1t-1.9-.78q-1.08 0-1.7.5a2.6 2.6 0 0 0-.88 1.28 5.2 5.2 0 0 0-.26 1.66v4.48q0 .64.16.94a.82.82 0 0 0 .5.38q.34.08.92.08h.2v.64zm12.066 4.06q1.08 0 1.78-.26.72-.26 1.2-.78t.84-1.28q.36-.74.68-1.72l-3.72-9.08q-.18-.46-.34-.66a.7.7 0 0 0-.42-.28q-.24-.08-.7-.08h-.06v-.64h4.2v.64h-.26q-.62 0-.86.18-.22.16-.22.54 0 .18.08.44.1.26.3.76l1.48 3.72q.16.38.32.84.18.46.34.92.18.44.3.84.14.4.2.68.16-.6.38-1.24.24-.66.5-1.42l1.52-4.42q.12-.34.2-.64t.08-.48q0-.38-.26-.54-.24-.18-.88-.18h-.38v-.64h3.98v.64h-.08q-.459 0-.72.08a.8.8 0 0 0-.44.36 6 6 0 0 0-.36.84l-3.08 8.7q-.52 1.5-.98 2.46t-1.02 1.48q-.56.54-1.4.74-.82.22-2.08.22h-.12zm15.509-4.06v-.64h.54q.459 0 .78-.1a.72.72 0 0 0 .46-.42q.16-.34.16-1.02v-9.92q0-.68-.16-1a.72.72 0 0 0-.46-.44 2.6 2.6 0 0 0-.78-.1h-.54v-.64h3.72l4.7 12.44 4.68-12.44h3.66v.64h-.52q-.46 0-.78.12a.78.78 0 0 0-.48.44q-.14.32-.14 1.02v9.84q0 .68.14 1.02.159.34.48.46.32.1.78.1h.52v.64h-5.04v-.64h.52q.48 0 .74-.1.28-.1.4-.42.14-.32.16-.96v-10.94l-4.88 13.06h-.92l-4.9-12.98v10.76q0 .68.12 1.02t.4.46q.3.1.78.1h.32v.64zm24.096.2q-1.9 0-3.18-.9-1.28-.92-1.92-2.56-.64-1.66-.64-3.9 0-2.22.68-3.86.68-1.66 2-2.56t3.24-.9q1.38 0 2.26.32.88.3 1.28.82.42.52.42 1.12 0 .52-.32.84-.32.3-.82.3a3.1 3.1 0 0 0-.26-1.28q-.26-.6-.9-.96-.62-.36-1.72-.36-1.52 0-2.5.78-.96.78-1.44 2.24-.46 1.46-.46 3.5 0 1.92.46 3.38.48 1.44 1.46 2.24t2.52.8q.98 0 1.66-.24a3.6 3.6 0 0 0 1.14-.68q.46-.42.76-.88a.55.55 0 0 1 .22.24q.1.16.1.4 0 .28-.24.64t-.74.7q-.48.32-1.24.54t-1.82.22m5.279-.2v-.64h.54q.48 0 .78-.1a.78.78 0 0 0 .46-.46q.16-.34.16-1.02v-9.88q0-.68-.16-1a.72.72 0 0 0-.46-.44 2.6 2.6 0 0 0-.78-.1h-.54v-.64h5.34q2.4 0 3.5 1.1 1.1 1.08 1.1 3.04 0 .92-.26 1.74a3.6 3.6 0 0 1-.86 1.44q-.579.62-1.56.98-.96.36-2.36.36h-1.6v3.44q0 .68.16 1.02a.8.8 0 0 0 .46.42q.321.1.78.1h.92v.64zm4.78-6.36q1.04 0 1.76-.24.72-.26 1.16-.74t.62-1.16q.2-.7.2-1.6 0-1.14-.34-1.9a2.2 2.2 0 0 0-1.06-1.14q-.74-.38-1.96-.38h-1.86v7.16zm14.915 6.56q-1.36 0-1.96-.68-.6-.7-.6-2.38v-7.02h-1.54v-.6q.38 0 .76-.14.4-.14.66-.4.28-.28.46-.78t.26-1.36h.68v2.44h2.58v.84h-2.58v7.14q0 1.12.38 1.64.4.5 1.16.5.34 0 .62-.02.28-.04.6-.1v.7q-.28.1-.7.16-.4.06-.78.06m7.125 0q-2.02 0-3.18-1.36-1.16-1.38-1.16-4.2 0-2.8 1.12-4.16t3.3-1.36q2.04 0 3.18 1.34t1.14 4.18q0 2.82-1.12 4.2-1.12 1.36-3.28 1.36m.02-.8q1.12 0 1.8-.56t.96-1.62q.3-1.08.3-2.58 0-1.6-.32-2.64-.3-1.04-.98-1.56-.66-.52-1.72-.52-1.12 0-1.8.54-.68.52-1 1.56-.3 1.04-.3 2.62 0 1.52.3 2.6.32 1.06 1 1.62.68.54 1.76.54m10.693.8q-2.019 0-3.18-1.36-1.16-1.38-1.16-4.2 0-2.8 1.12-4.16t3.3-1.36q2.04 0 3.18 1.34t1.14 4.18q0 2.82-1.12 4.2-1.12 1.36-3.28 1.36m.02-.8q1.12 0 1.8-.56.681-.56.96-1.62.3-1.08.3-2.58 0-1.6-.32-2.64-.3-1.04-.98-1.56-.66-.52-1.72-.52-1.119 0-1.8.54-.68.52-1 1.56-.3 1.04-.3 2.62 0 1.52.3 2.6.32 1.06 1 1.62.68.54 1.76.54m5.354.6v-.64h.42q.58 0 .92-.08.36-.1.52-.4.16-.32.16-.98v-11q0-.68-.16-.98a.73.73 0 0 0-.5-.38 3 3 0 0 0-.84-.1h-.52v-.64h3.3v13.1q0 .66.14.98.16.3.52.4.36.08.92.08h.42v.64zM.92 264.06q1.08 0 1.78-.26.72-.26 1.2-.78t.84-1.28q.36-.74.68-1.72l-3.72-9.08q-.18-.46-.34-.66a.7.7 0 0 0-.42-.28q-.24-.08-.7-.08H.18v-.64h4.2v.64h-.26q-.62 0-.86.18-.22.16-.22.54 0 .18.08.44.1.26.3.76l1.48 3.72q.16.38.32.84.18.46.34.92.18.44.3.84.14.4.2.68.16-.6.38-1.24.24-.66.5-1.42l1.52-4.42q.12-.34.2-.64t.08-.48q0-.38-.26-.54-.24-.18-.88-.18h-.38v-.64h3.98v.64h-.08q-.46 0-.72.08t-.44.36a5.6 5.6 0 0 0-.36.84l-3.08 8.7q-.52 1.5-.98 2.46t-1.02 1.48q-.56.54-1.4.74-.82.22-2.08.22H.92zm15.393-3.86q-2.02 0-3.18-1.36-1.16-1.38-1.16-4.2 0-2.8 1.12-4.16t3.3-1.36q2.04 0 3.18 1.34t1.14 4.18q0 2.82-1.12 4.2-1.12 1.36-3.28 1.36m.02-.8q1.12 0 1.8-.56t.96-1.62q.3-1.08.3-2.58 0-1.6-.32-2.64-.3-1.04-.98-1.56-.66-.52-1.72-.52-1.12 0-1.8.54-.68.52-1 1.56-.3 1.04-.3 2.62 0 1.52.3 2.6.32 1.06 1 1.62.68.54 1.76.54m10.693.8q-1.62 0-2.46-.94-.82-.94-.82-2.96v-4.96q0-.66-.18-.94a.73.73 0 0 0-.5-.38q-.34-.1-.92-.1h-.28v-.64h3.16v7q0 .88.2 1.58.2.68.72 1.06.52.36 1.44.36 1 0 1.64-.46.64-.48.94-1.26.32-.78.32-1.76v-4.42q0-.66-.16-.96a.67.67 0 0 0-.5-.4q-.34-.1-.92-.1h-.2v-.64h3.06v8.68q0 .62.16.92t.5.4q.34.08.84.08h.34v.64h-2.86l-.16-1.72h-.1q-.26.48-.6.86-.32.36-.72.6-.4.22-.9.34-.48.12-1.04.12m16.659 0q-1.2 0-2.18-.56-.96-.58-1.52-1.8t-.56-3.12q0-2.14.54-3.36.56-1.22 1.52-1.72.96-.52 2.18-.52.88 0 1.6.26.74.26 1.18.74.44.46.44 1.1a1 1 0 0 1-.14.54.73.73 0 0 1-.38.3 2.8 2.8 0 0 1-.66.1q0-.62-.22-1.12a1.78 1.78 0 0 0-.66-.84q-.441-.32-1.2-.32-.86 0-1.52.44-.64.44-1 1.5-.36 1.04-.36 2.88 0 1.5.38 2.52t1.08 1.54q.7.5 1.7.5.72 0 1.26-.22t.9-.6q.38-.38.6-.84.14.12.2.28t.06.4q0 .4-.36.86-.36.44-1.08.76-.72.3-1.8.3m3.933-.2v-.64h.32q.58 0 .92-.08.36-.1.52-.4.16-.32.16-.98v-11q0-.68-.18-.98a.73.73 0 0 0-.5-.38q-.32-.1-.84-.1h-.3v-.64h3.1v4.92q0 .28-.02.58-.02.28-.04.5t-.02.28h.08q.24-.56.64-1 .42-.46 1.02-.7.62-.26 1.48-.26 1.64 0 2.5.9.88.88.88 2.88v5q0 .66.14.98.16.3.5.4.34.08.9.08h.2v.64h-3.02v-7.04q0-1.44-.56-2.18-.54-.74-1.84-.74-.9 0-1.54.4t-.98 1.16q-.32.76-.32 1.88v4.48q0 .64.16.94a.81.81 0 0 0 .5.38q.36.08.92.08h.22v.64zm17.144.2q-2.02 0-3.18-1.36-1.16-1.38-1.16-4.2 0-2.8 1.12-4.16t3.3-1.36q2.04 0 3.18 1.34t1.14 4.18q0 2.82-1.12 4.2-1.12 1.36-3.28 1.36m.02-.8q1.12 0 1.8-.56t.96-1.62q.3-1.08.3-2.58 0-1.6-.32-2.64-.3-1.04-.98-1.56-.66-.52-1.72-.52-1.12 0-1.8.54-.68.52-1 1.56-.3 1.04-.3 2.62 0 1.52.3 2.6.32 1.06 1 1.62.68.54 1.76.54m10.693.8q-2.019 0-3.18-1.36-1.16-1.38-1.16-4.2 0-2.8 1.12-4.16t3.3-1.36q2.04 0 3.18 1.34t1.14 4.18q0 2.82-1.12 4.2-1.12 1.36-3.28 1.36m.02-.8q1.12 0 1.8-.56.681-.56.96-1.62.3-1.08.3-2.58 0-1.6-.32-2.64-.3-1.04-.98-1.56-.66-.52-1.72-.52-1.119 0-1.8.54-.68.52-1 1.56-.3 1.04-.3 2.62 0 1.52.3 2.6.32 1.06 1 1.62.68.54 1.76.54m9.314.8q-1.06 0-1.74-.28-.681-.3-1.02-.76-.32-.48-.32-1.08 0-.42.14-.66a.8.8 0 0 1 .34-.36.9.9 0 0 1 .4-.1q0 .72.2 1.3.2.56.7.88.5.3 1.36.3 1.12 0 1.7-.58.6-.6.6-1.46 0-.5-.18-.84-.18-.36-.66-.68-.48-.34-1.38-.76-1.08-.54-1.76-1-.66-.46-.98-1-.3-.56-.3-1.36 0-1.22.9-1.92.9-.72 2.4-.72.94 0 1.54.28t.88.72q.3.42.3.9 0 .46-.26.74-.24.28-.72.28 0-1.14-.48-1.66t-1.42-.52q-.7 0-1.14.22a1.5 1.5 0 0 0-.66.62q-.2.38-.2.9 0 .56.26.96.279.4.84.74.56.32 1.4.72 1.04.46 1.64.92t.84 1q.26.54.26 1.26 0 1.42-.96 2.22-.96.78-2.52.78m9.573 0q-2.02 0-3.2-1.42-1.16-1.44-1.16-4.04 0-2.82 1.08-4.22 1.1-1.4 3.1-1.4 1.82 0 2.84 1.26 1.04 1.26 1.04 3.64v.62h-6.74q.02 1.58.4 2.62.38 1.02 1.1 1.52t1.72.5q.72 0 1.26-.22.561-.22.96-.56.4-.36.64-.78.12.06.2.2t.08.34q0 .36-.36.82t-1.1.8q-.74.32-1.86.32m2.34-6.36q0-1.18-.28-2.04-.26-.88-.84-1.36-.56-.5-1.44-.5-.9 0-1.5.46-.579.46-.9 1.34-.3.86-.38 2.1zm4.234 6.28a.98.98 0 0 1-.66-.24q-.28-.24-.28-.86 0-.64.28-.86a.98.98 0 0 1 .66-.24q.4 0 .68.24.28.22.28.86 0 .62-.28.86t-.68.24"/><path fill="#3784ff" d="M18.232 324v-11.68h1.728v10.096h5.104V324zm8.394 0v-11.68h6.864v1.536h-5.168v3.312h4.608v1.52h-4.608v3.776h5.168V324zm7.817 0 2.976-11.68h2.272L42.667 324h-1.744l-.704-2.96h-3.312l-.704 2.96zm2.784-4.384h2.656l-.8-3.376q-.207-.896-.352-1.552-.128-.672-.176-.912-.047.24-.176.912a29 29 0 0 1-.352 1.536zM43.733 324v-11.68h3.664q1.104 0 1.92.432.816.416 1.264 1.184.465.768.464 1.808 0 1.168-.608 2.032a3.17 3.17 0 0 1-1.616 1.2L51.205 324h-1.968l-2.128-4.8h-1.648v4.8zm1.728-6.32h1.936q.864 0 1.376-.512.512-.528.512-1.392 0-.896-.512-1.408t-1.376-.512h-1.936zM52.32 324v-11.68h2.176l3.408 9.712q-.032-.464-.08-1.104a47 47 0 0 1-.08-1.328q-.015-.688-.016-1.248v-6.032h1.6V324H57.15l-3.392-9.712q.031.416.064 1.04.048.624.064 1.296.032.672.032 1.248V324zm17.027 0v-11.68h2.128l1.168 3.744q.177.528.304 1.024.129.48.176.72.065-.24.176-.72.129-.496.288-1.024l1.12-3.744h2.128V324h-1.632v-3.936q0-.752.032-1.664.048-.928.128-1.856.08-.944.16-1.792.081-.864.144-1.504l-1.728 5.68h-1.664l-1.76-5.68q.08.624.16 1.456.081.816.144 1.744.064.928.112 1.872.048.928.048 1.744V324zm12.378.16q-1.088 0-1.888-.4a2.95 2.95 0 0 1-1.216-1.184q-.416-.784-.416-1.824v-5.184q0-1.056.416-1.824a2.86 2.86 0 0 1 1.216-1.168q.8-.416 1.888-.416t1.872.416q.8.4 1.216 1.168.432.768.432 1.808v5.2q0 1.04-.432 1.824a2.83 2.83 0 0 1-1.216 1.184q-.785.4-1.872.4m0-1.536q.88 0 1.328-.48.465-.496.464-1.392v-5.184q0-.912-.464-1.392-.448-.48-1.328-.48-.864 0-1.328.48t-.464 1.392v5.184q0 .896.464 1.392.465.48 1.328.48M86.902 324v-11.68h3.664q1.104 0 1.92.432.816.416 1.264 1.184.465.768.464 1.808 0 1.168-.608 2.032a3.18 3.18 0 0 1-1.616 1.2L94.374 324h-1.968l-2.128-4.8H88.63v4.8zm1.728-6.32h1.936q.864 0 1.376-.512.512-.528.512-1.392 0-.896-.512-1.408t-1.376-.512H88.63zm7.066 6.32v-11.68h6.864v1.536h-5.168v3.312H102v1.52h-4.608v3.776h5.168V324zM135.353 317.954c.133-.05.185-.174.221-.319l-.024.022c.031-.216.001-.475.192-.614.314-.234.591-.085.842-.494.219-.358.623-.582.781-.79a.3.3 0 0 0 .056-.103c.08-.252.358.017.536-.249.183-.266.361-.341.645-.405.285-.063.983-.468 1.114-.77.129-.3.555-.299.75-.375a.5.5 0 0 1 .163-.036c.02-.001.041.014.057.033.02.024.03.055.016.071a1.3 1.3 0 0 0-.215.407c-.126.368-.297.21-.579.569-.281.357-.364.689-.851.896-.455.2-.245.656-.779.886a2 2 0 0 1-.122.049c-.714.28-.288.742-.706 1.361-.179.263-.453.518-.754.736l-.031.029c-.384.241-.767.443-.945.627-.306.315-.691.763-1.203 1.127-.51.363-.937 1.036-1.538 1.4-.601.365-1.442.897-1.856 1.11-.417.215-.514.267-.792.611a1.4 1.4 0 0 1-.773.461c-.161.031-.205-.074-.127-.207.115-.194.281-.27.275-.445-.013-.35-.015-.487.297-.552.311-.065.168-.422.315-.498.147-.078.289.083.784-.595.494-.679.796-1.019.999-1.261.202-.241.807-.552 1.136-.948.33-.397 1.137-1.056 1.376-1.419s.399-.187.74-.315"/><path fill="#3784ff" d="M141.876 313.781c-.071.455.547.764.478 1.333-.078.56-.391.629-.357 1.246.029.623-.267 1.201-.182 1.486.085.288-.301.254-.283.642.015.389-.082.607-.274.902a2.4 2.4 0 0 0-.188.393l.004-.023c-.127.401-.175.977-.072 1.233.145.361-.124.77-.188 1.021a.7.7 0 0 1-.076.186c-.012.02-.037.029-.061.029-.031 0-.061-.014-.065-.04a1.8 1.8 0 0 0-.18-.53c-.203-.414.023-.454-.061-1.019-.051-.367-.143-.652-.131-.996l.008-.043c.019-.173.065-.355.159-.566.264-.601-.269-.843.182-1.665.435-.842-.156-1.007-.213-1.845-.056-.808.123-1.833-.022-2.337l.966.537-.071.023c-.649.2-1.359.353-2.166.367-.797.009-1.75.294-2.629.212-.877-.08-2.11-.199-2.678-.3s-.706-.124-1.247-.039a2.15 2.15 0 0 1-1.107-.14c-.182-.078-.141-.187.042-.24.268-.077.486-.029.623-.167.27-.276.383-.383.733-.233s.503-.216.705-.181c.202.034.208.251 1.226.039 1.015-.216 1.572-.299 1.955-.367.382-.067 1.205.051 1.822-.081.606-.126 1.931-.231 2.266-.45l.027-.02.777-.338.358.969c.199.486-.021.556-.08 1.002"/></svg>