<svg xmlns="http://www.w3.org/2000/svg" width="1386" height="171" fill="none" viewBox="0 0 1386 171"><path fill="#d5e5ff" d="M44.898 2.88a9 9 0 0 0-7.795 4.5L1.206 69.557a9 9 0 0 0 0 9l35.897 62.176a9 9 0 0 0 7.795 4.5h71.795a9 9 0 0 0 7.794-4.5l35.898-62.176a9 9 0 0 0 0-9L124.487 7.38a9 9 0 0 0-7.794-4.5z"/><path fill="#69a3ff" d="M191.339 1.53c21.519 5.537 19.067 17.75 27.991 42.59 5.725 15.936 33.406 35.696 8.11 74.11-7.549 11.463-31.823 25.064-49.387 28.836-38.697 8.184-61.497-10.387-81.724-41.006-15.176-23.16-9.813-56.503 13.204-72.876C131.346 17.71 163.051-6.3 191.339 1.53"/><path fill="#231f20" d="M284 21h13.391v108.7H284zM316.323 21h13.392v19.856c5.818-10.436 23.919-22.073 43.683-22.073 7.203 0 14.315 1.016 19.856 3.14 5.449 2.124 10.159 5.264 13.945 9.42 3.787 4.156 6.65 9.42 8.681 15.793 1.94 6.28 2.956 13.576 2.956 21.795V129.7h-13.392V70.409c0-6.65-.738-12.376-2.216-17.27s-3.694-8.959-6.557-12.283c-2.863-3.325-6.465-5.726-10.805-7.296-4.249-1.57-9.143-2.31-14.685-2.31-6.372 0-12.098.925-17.177 2.864-5.08 1.94-9.421 4.618-13.022 8.127a35 35 0 0 0-8.22 12.375c-1.939 4.71-2.863 10.067-2.863 15.885v59.291h-13.391V21zM537.475 52.4c2.77-6.927 6.557-12.93 11.452-18.009 4.894-4.987 10.713-8.866 17.454-11.544s14.223-4.064 22.35-4.064 15.515 1.386 22.257 4.156 12.56 6.65 17.455 11.544c4.987 4.987 8.774 10.898 11.452 17.917s4.063 14.777 4.063 23.273v4.248h-99.187V68.1h88.751l-2.863 7.48c0-6.649-1.015-12.744-3.14-18.193q-3.186-8.173-8.588-14.13c-3.695-3.971-8.035-6.927-13.207-9.05-5.172-2.125-10.805-3.14-16.901-3.14-6.095 0-11.913 1.108-17.085 3.232s-9.605 5.171-13.299 9.05-6.65 8.497-8.774 13.946-3.14 11.36-3.14 17.916 1.109 12.653 3.233 18.102 5.172 10.066 8.958 13.945 8.312 6.834 13.484 9.051c5.171 2.124 10.897 3.232 17.177 3.232 9.79 0 18.102-2.494 25.028-7.388 6.927-4.895 11.821-11.822 14.869-20.595l13.022 4.433c-3.786 11.082-10.344 19.856-19.487 26.321-9.235 6.464-20.225 9.697-33.155 9.697-8.219 0-15.884-1.386-22.719-4.064-6.926-2.678-12.837-6.557-17.824-11.544s-8.866-10.99-11.636-17.917c-2.771-6.926-4.249-14.591-4.249-23.18s1.386-15.885 4.156-22.904zM659.383 52.4c2.77-6.927 6.557-12.93 11.452-18.009s10.713-8.866 17.454-11.544 14.223-4.064 22.35-4.064 15.515 1.386 22.257 4.156 12.56 6.65 17.455 11.544c4.987 4.987 8.774 10.898 11.452 17.917s4.063 14.777 4.063 23.273v4.248h-99.187V68.1h88.752l-2.863 7.48c0-6.649-1.016-12.744-3.14-18.193s-4.988-10.159-8.682-14.13-8.034-6.927-13.206-9.05c-5.172-2.125-10.806-3.14-16.901-3.14s-11.914 1.108-17.085 3.232-9.605 5.171-13.299 9.05-6.65 8.497-8.774 13.946-3.14 11.36-3.14 17.916 1.108 12.653 3.232 18.102 5.172 10.066 8.959 13.945 8.312 6.834 13.483 9.051c5.172 2.124 10.898 3.232 17.178 3.232 9.79 0 18.101-2.494 25.028-7.388s11.821-11.822 14.869-20.595l13.022 4.433c-3.787 11.082-10.252 19.856-19.487 26.321s-20.225 9.697-33.155 9.697c-8.219 0-15.885-1.386-22.719-4.064-6.926-2.678-12.837-6.557-17.732-11.544-4.987-4.987-8.866-10.99-11.636-17.917-2.863-6.926-4.248-14.591-4.248-23.18s1.385-15.885 4.155-22.904zM780.371 21h13.391v24.566c4.526-8.035 10.067-13.669 18.102-18.933 7.942-5.171 17.362-7.85 28.26-7.85 7.757 0 14.684 1.293 21.056 3.971 6.28 2.679 11.637 6.373 16.07 11.175s7.758 10.713 10.159 17.732 3.602 14.961 3.602 23.735-1.201 16.716-3.602 23.643c-2.401 7.018-5.726 12.929-10.159 17.731-4.433 4.895-9.697 8.589-15.977 11.175-6.188 2.586-13.207 3.879-20.965 3.879-10.805 0-20.317-2.678-28.352-7.942s-13.668-11.914-18.194-18.841v65.11h-13.391zm16.624 72.497c2.124 5.45 5.171 10.159 9.05 14.038s8.497 6.834 13.946 8.958 11.267 3.14 17.454 3.14 11.637-1.016 16.624-2.955 9.236-4.802 12.745-8.681 6.095-8.404 8.035-13.853c1.939-5.45 2.863-11.544 2.863-18.471s-1.016-13.299-2.956-18.84c-1.939-5.449-4.71-10.159-8.127-14.038s-7.665-6.742-12.745-8.773c-4.987-1.94-10.528-2.956-16.623-2.956s-12.191 1.016-17.455 3.14-9.882 5.08-13.761 8.959-6.834 8.496-9.05 13.945-3.233 11.544-3.233 18.286 1.109 12.468 3.233 18.009z"/><path fill="#231f20" d="M536.31 18.783h-19.579L448.204 79.46V18.783h-12.929V129.7h12.929V96.453l.185.184 23.365-20.687 51.441 53.75h18.471l-60.214-62.339zM1183.99 131.783V17.217h14.13v28.695h.43c3.71-9.993 9.49-17.631 17.35-22.913 7.85-5.425 17.63-8.138 29.33-8.138 12.28 0 22.27 2.998 29.98 8.994q11.565 8.994 15.21 26.982h.43q4.92-17.345 17.13-26.553 12.195-9.423 31.05-9.423c7.42 0 14.06 1.142 19.91 3.427 5.86 2.141 10.71 5.425 14.56 9.85q6 6.64 9.21 16.703 3.21 9.85 3.21 22.914v64.028h-14.13v-62.53c0-6.995-.86-13.062-2.57-18.202-1.57-5.139-3.85-9.422-6.85-12.848-3-3.57-6.78-6.139-11.35-7.71q-6.855-2.568-15.63-2.569c-6.57 0-12.57 1-17.99 2.998q-7.92 2.998-13.71 8.566c-3.71 3.569-6.63 7.923-8.78 13.063-1.99 4.996-2.99 10.564-2.99 16.703v62.529H1278v-62.53c0-6.995-.86-13.062-2.57-18.202-1.57-5.139-3.86-9.422-6.86-12.848-2.99-3.57-6.78-6.139-11.34-7.71-4.57-1.712-9.78-2.569-15.64-2.569-6.71 0-12.7 1-17.99 2.998-5.28 1.999-9.85 4.854-13.7 8.566-3.71 3.569-6.64 7.923-8.78 13.063q-3 7.494-3 16.703v62.529zM1052.26 74.607q0-13.276 4.5-24.198 4.5-11.135 12.42-19.059c5.28-5.282 11.63-9.35 19.06-12.206 7.42-2.855 15.56-4.283 24.41-4.283 8.99 0 17.2 1.428 24.62 4.283 7.43 2.855 13.78 6.924 19.06 12.206 5.29 5.282 9.35 11.564 12.21 18.845q4.5 10.92 4.5 24.412 0 13.064-4.5 24.198-4.29 10.922-12.42 18.845c-5.28 5.139-11.64 9.208-19.06 12.206-7.28 2.855-15.42 4.283-24.41 4.283-9 0-17.2-1.428-24.63-4.283-7.42-2.855-13.77-6.924-19.06-12.206q-7.92-7.923-12.42-18.845c-2.85-7.28-4.28-15.347-4.28-24.198m14.13 0c0 6.853 1.07 13.206 3.22 19.059q3.42 8.565 9.42 14.776c4.14 3.997 9.06 7.138 14.77 9.422 5.71 2.141 12 3.212 18.85 3.212q10.275 0 18.84-3.212c5.71-2.284 10.57-5.496 14.56-9.636 4.14-4.141 7.36-9.066 9.64-14.776 2.29-5.71 3.43-11.992 3.43-18.845 0-6.995-1.14-13.348-3.43-19.059-2.28-5.853-5.5-10.778-9.64-14.775-3.99-4.14-8.85-7.281-14.56-9.423q-8.565-3.426-18.84-3.426c-6.85 0-13.14 1.142-18.85 3.426-5.71 2.142-10.63 5.282-14.77 9.423q-6 6.21-9.42 14.775c-2.15 5.71-3.22 12.064-3.22 19.06M928.35 74.393q0-13.062 4.497-23.984 4.497-11.135 12.421-19.059 7.923-7.922 18.844-12.206t23.984-4.283q10.706 0 19.914 2.998c6.28 1.999 11.85 4.854 16.7 8.566 5 3.712 9.21 8.209 12.64 13.491q5.145 7.923 7.71 17.774l-13.92 3.212c-1.29-5.14-3.28-9.708-6-13.705q-3.855-6.21-9.63-10.493c-3.72-2.855-7.93-4.997-12.64-6.424q-6.85-2.355-14.774-2.356-10.064 0-18.416 3.426t-14.562 9.637q-5.996 5.996-9.422 14.561-3.212 8.565-3.212 18.845 0 10.493 3.212 19.059 3.426 8.565 9.422 14.776 6.21 5.996 14.562 9.422t18.416 3.426q8.78 0 16.274-2.57c5-1.855 9.42-4.425 13.28-7.709q5.775-5.14 9.63-12.206c2.57-4.854 4.29-10.207 5.14-16.06l13.71 3.212c-1.14 7.423-3.36 14.133-6.64 20.129a54 54 0 0 1-12.63 15.204c-5 4.14-10.78 7.352-17.35 9.637-6.57 2.284-13.776 3.426-21.628 3.426q-13.062 0-23.984-4.283-10.921-4.283-18.845-12.206-7.709-7.923-12.206-18.845-4.497-10.92-4.497-24.412M898.208 131.783v-19.915h19.701v19.915z"/></svg>