<svg xmlns="http://www.w3.org/2000/svg" width="1391" height="176" fill="none" viewBox="0 0 1391 176"><path stroke="#231f20" stroke-width="10" d="M49.909 7.783a9 9 0 0 0-7.796 4.501L6.207 74.474a9 9 0 0 0 0 9.003l35.906 62.19a9 9 0 0 0 7.796 4.501h71.811a9 9 0 0 0 7.796-4.501l35.905-62.19a9 9 0 0 0 0-9.002l-35.905-62.19a9 9 0 0 0-7.796-4.502z"/><path stroke="#231f20" stroke-width="9.8" d="M196.382 6.432c21.524 5.54 19.071 17.754 27.997 42.6 5.727 15.94 33.414 35.704 8.113 74.126-7.551 11.466-31.831 25.07-49.399 28.843-38.705 8.185-61.51-10.39-81.742-41.015-15.179-23.166-9.815-56.516 13.207-72.892 21.818-15.478 53.53-39.494 81.824-31.662Z"/><path fill="#231f20" d="M288.831 25.955h13.394V134.68h-13.394zM321.162 25.955h13.394v19.86c5.82-10.437 23.925-22.077 43.693-22.077 7.205 0 14.318 1.017 19.86 3.141 5.45 2.125 10.161 5.265 13.949 9.422 3.787 4.157 6.651 9.422 8.683 15.796 1.94 6.282 2.956 13.58 2.956 21.8v60.783h-13.394V75.375c0-6.65-.739-12.378-2.217-17.273-1.478-4.896-3.695-8.96-6.559-12.286-2.863-3.326-6.466-5.727-10.808-7.298-4.249-1.57-9.145-2.31-14.687-2.31-6.374 0-12.101.925-17.182 2.864-5.08 1.94-9.422 4.62-13.024 8.13a35 35 0 0 0-8.222 12.378c-1.939 4.71-2.863 10.068-2.863 15.888v59.304h-13.394V25.955zM542.362 57.363c2.771-6.928 6.559-12.933 11.454-18.013 4.896-4.989 10.716-8.868 17.459-11.547s14.226-4.065 22.355-4.065 15.519 1.386 22.262 4.157 12.563 6.651 17.459 11.547c4.988 4.988 8.775 10.9 11.454 17.92s4.064 14.78 4.064 23.279v4.249H549.66V73.066h88.771l-2.864 7.482c0-6.65-1.016-12.747-3.14-18.197q-3.187-8.175-8.591-14.133c-3.695-3.973-8.037-6.929-13.21-9.053-5.172-2.125-10.807-3.14-16.904-3.14s-11.916 1.108-17.089 3.232-9.607 5.173-13.302 9.053-6.651 8.498-8.776 13.948-3.14 11.362-3.14 17.92c0 6.56 1.108 12.656 3.233 18.106s5.173 10.069 8.96 13.949 8.314 6.835 13.487 9.052c5.173 2.125 10.9 3.233 17.181 3.233 9.792 0 18.106-2.494 25.034-7.389 6.928-4.896 11.824-11.824 14.872-20.6l13.025 4.434c-3.788 11.085-10.346 19.86-19.491 26.327-9.238 6.466-20.23 9.699-33.163 9.699-8.221 0-15.888-1.386-22.724-4.065-6.928-2.678-12.84-6.558-17.828-11.546s-8.868-10.993-11.639-17.921-4.249-14.595-4.249-23.186 1.386-15.888 4.157-22.909zM664.297 57.363c2.771-6.928 6.559-12.933 11.455-18.013 4.895-5.081 10.715-8.868 17.458-11.547 6.744-2.679 14.226-4.065 22.355-4.065s15.519 1.386 22.262 4.157 12.563 6.651 17.459 11.547c4.988 4.988 8.775 10.9 11.454 17.92s4.064 14.78 4.064 23.279v4.249h-99.209V73.066h88.771l-2.863 7.482c0-6.65-1.017-12.747-3.141-18.197s-4.988-10.161-8.683-14.133c-3.695-3.973-8.037-6.929-13.21-9.053s-10.808-3.14-16.904-3.14c-6.097 0-11.917 1.108-17.089 3.232-5.173 2.125-9.607 5.173-13.302 9.053s-6.651 8.498-8.776 13.948-3.141 11.362-3.141 17.92c0 6.56 1.109 12.656 3.234 18.106s5.172 10.069 8.96 13.949c3.787 3.879 8.313 6.835 13.486 9.052 5.173 2.125 10.901 3.233 17.182 3.233 9.792 0 18.105-2.494 25.033-7.389 6.928-4.896 11.824-11.824 14.873-20.6l13.024 4.434c-3.787 11.085-10.253 19.86-19.491 26.327-9.237 6.466-20.23 9.699-33.162 9.699-8.221 0-15.888-1.386-22.724-4.065-6.928-2.678-12.84-6.558-17.736-11.546-4.988-4.988-8.868-10.993-11.639-17.921-2.863-6.928-4.249-14.595-4.249-23.186s1.386-15.888 4.157-22.909zM785.312 25.955h13.394v24.572c4.527-8.037 10.069-13.672 18.106-18.937 7.944-5.173 17.366-7.852 28.266-7.852 7.76 0 14.688 1.294 21.061 3.973 6.282 2.678 11.639 6.373 16.073 11.177s7.76 10.715 10.162 17.736c2.401 7.02 3.602 14.964 3.602 23.74s-1.201 16.72-3.602 23.647c-2.402 7.021-5.728 12.933-10.162 17.736-4.434 4.896-9.699 8.591-15.98 11.177-6.189 2.587-13.21 3.88-20.969 3.88-10.808 0-20.322-2.679-28.359-7.944s-13.671-11.916-18.198-18.844v65.123h-13.394zm16.627 72.514c2.125 5.45 5.173 10.161 9.053 14.041s8.498 6.835 13.949 8.96c5.45 2.125 11.269 3.141 17.458 3.141s11.639-1.016 16.628-2.956c4.988-1.94 9.237-4.804 12.747-8.683 3.51-3.88 6.097-8.406 8.037-13.856s2.863-11.547 2.863-18.475-1.016-13.302-2.956-18.845c-1.94-5.45-4.711-10.16-8.129-14.04s-7.667-6.744-12.747-8.776c-4.988-1.94-10.531-2.956-16.628-2.956s-12.193 1.016-17.458 3.14c-5.266 2.125-9.884 5.081-13.764 8.961s-6.836 8.499-9.053 13.949-3.233 11.546-3.233 18.29 1.109 12.47 3.233 18.013z"/><path fill="#231f20" d="M541.197 23.738h-19.584l-68.541 60.69v-60.69H440.14V134.68h12.932v-33.255l.185.185 23.37-20.692 51.453 53.762h18.474l-60.227-62.353zM1189.02 136.763V22.172h14.14v28.701h.42c3.72-9.995 9.5-17.635 17.35-22.918 7.86-5.426 17.64-8.14 29.35-8.14 12.28 0 22.27 3 29.98 8.997q11.565 8.996 15.21 26.988h.43c3.28-11.567 9-20.42 17.13-26.56 8.14-6.283 18.5-9.424 31.06-9.424q11.145 0 19.92 3.427c5.86 2.142 10.71 5.426 14.57 9.852q6 6.64 9.21 16.707 3.21 9.853 3.21 22.919v64.042h-14.14V74.22c0-6.997-.85-13.066-2.57-18.206-1.57-5.14-3.85-9.425-6.85-12.852-3-3.57-6.78-6.14-11.35-7.71-4.57-1.714-9.78-2.57-15.64-2.57-6.57 0-12.56.999-17.99 2.998q-7.92 2.999-13.71 8.567c-3.71 3.57-6.64 7.926-8.78 13.066q-3 7.497-3 16.707v62.543h-13.92V74.22c0-6.997-.86-13.066-2.57-18.206-1.57-5.14-3.86-9.425-6.86-12.852-2.99-3.57-6.78-6.14-11.35-7.71q-6.855-2.57-15.63-2.57c-6.72 0-12.71.999-18 2.998-5.28 1.999-9.85 4.855-13.7 8.567-3.72 3.57-6.64 7.926-8.79 13.066-2 4.998-2.99 10.567-2.99 16.707v62.543zM1057.26 79.575q0-13.28 4.5-24.204 4.5-11.138 12.42-19.063c5.29-5.283 11.64-9.353 19.07-12.208 7.42-2.856 15.56-4.284 24.41-4.284q13.5 0 24.63 4.284c7.43 2.855 13.78 6.925 19.07 12.208q7.92 7.926 12.21 18.849c3 7.283 4.49 15.422 4.49 24.418 0 8.71-1.49 16.778-4.49 24.203-2.86 7.283-7 13.566-12.43 18.849-5.28 5.14-11.63 9.21-19.06 12.209q-10.92 4.284-24.42 4.284-13.485 0-24.63-4.284c-7.42-2.856-13.78-6.926-19.06-12.209q-7.935-7.925-12.42-18.849-4.29-10.923-4.29-24.203m14.14 0q0 10.28 3.21 19.063c2.29 5.711 5.43 10.638 9.43 14.779 4.14 3.998 9.06 7.139 14.77 9.424 5.72 2.142 12 3.213 18.85 3.213 6.86 0 13.14-1.071 18.85-3.213 5.71-2.285 10.57-5.497 14.57-9.638 4.14-4.141 7.35-9.068 9.64-14.78q3.42-8.567 3.42-18.848 0-10.496-3.42-19.063c-2.29-5.855-5.5-10.781-9.64-14.78-4-4.14-8.86-7.282-14.57-9.424-5.71-2.284-11.99-3.427-18.85-3.427-6.85 0-13.13 1.143-18.85 3.427-5.71 2.142-10.63 5.284-14.77 9.425-4 4.14-7.14 9.067-9.43 14.779q-3.21 8.568-3.21 19.063M933.324 79.36q0-13.065 4.498-23.989 4.499-11.138 12.423-19.063T969.094 24.1q10.923-4.284 23.989-4.284 10.706 0 19.917 2.998c6.29 2 11.85 4.855 16.71 8.568 5 3.713 9.21 8.21 12.64 13.494q5.13 7.925 7.71 17.778l-13.92 3.212q-1.935-7.71-6-13.708c-2.57-4.14-5.79-7.64-9.64-10.495-3.71-2.856-7.93-4.998-12.64-6.426q-6.853-2.355-14.777-2.356-10.067 0-18.42 3.427t-14.565 9.639q-5.998 5.997-9.424 14.565-3.213 8.567-3.213 18.849 0 10.494 3.213 19.062 3.427 8.568 9.424 14.78 6.211 5.997 14.565 9.424t18.42 3.427c5.855 0 11.277-.857 16.277-2.57 5-1.857 9.43-4.427 13.28-7.711 3.86-3.427 7.07-7.497 9.64-12.209 2.57-4.855 4.28-10.21 5.14-16.064l13.71 3.213c-1.14 7.425-3.36 14.136-6.64 20.133a54.2 54.2 0 0 1-12.64 15.208c-5 4.141-10.78 7.354-17.35 9.639q-9.855 3.427-21.631 3.427-13.066 0-23.989-4.284t-18.849-12.209q-7.711-7.925-12.209-18.849t-4.498-24.418M903.175 136.763v-19.919h19.706v19.919z"/></svg>