<svg xmlns="http://www.w3.org/2000/svg" width="50" height="50" fill="none" viewBox="0 0 50 50"><path fill="#3784ff" d="M8.479 33.214c.438.635.927 1.102 1.546 1.59l.001.002q.131.101.276.21c.766.562 1.75 1.172 3.22 1.948 1.641.858 2.982 1.305 3.82 1.539.157.042.312.097.713.26.247.099.58.236 1.09.44l.131.053c.259.103.555.212.896.32 1.334.447 3.492.83 5.465.763a18 18 0 0 0 3.166-.357 15 15 0 0 0 2.59-.778 5.2 5.2 0 0 0 1.192-.67c1.202-.904 1.89-2.19 2.509-3.483.475-1.001.784-1.96 1.18-2.864q.075-.173.156-.343a8 8 0 0 1 .468-.867 14 14 0 0 1 1.045-1.451c1.065-1.415 2.578-2.352 2.778-4.484a4 4 0 0 0-.05-.83l.013.127a8.4 8.4 0 0 0-.08-1.43c-.103-1.216-1.065-3.114-2.597-4.047a11 11 0 0 0-.372-.245l-.002-.001c-1.167-.72-2.28-1.246-3.03-1.814a16 16 0 0 1-.348-.263c-1.283-1.018-1.676-1.523-2.05-1.908a12.7 12.7 0 0 0-3.153-2.51l-.014-.007c-.188-.106-.394-.088-.46.034-.063.123.034.3.215.403.578.326 1.123.69 1.58 1.053-.05.112.017.278.16.395.388.27 1.273 1.369 2.871 2.882l-.34-.197-.28-.158a3 3 0 0 1-.436-.28c-.38-.31-.935-.847-1.523-1.379-.15-.134-.345-.155-.435-.05s-.045.292.1.423l.01.008c.568.515 1.148 1.076 1.556 1.408.101.083.194.156.262.207a2 2 0 0 0 .196.136c.008.003.045.023.092.036q.016.005.057.012l.016.008.225.124c.214.119.509.294 1.001.585.22.13.477.274.785.436.885.538 2.658 1.066 3.986 2.627q-.14-.152-.291-.291a6 6 0 0 0-.83-.635 9 9 0 0 0-.344-.212q-.285-.166-.584-.321-.202-.105-.408-.208l-.581-.286-.205-.1-.849-.427a5 5 0 0 0-.213-.094l-.08-.034q-.006 0-.01-.004l-.16-.07a2 2 0 0 1-.168-.089 4 4 0 0 1-.204-.126 9 9 0 0 1-.31-.211.5.5 0 0 0-.255-.097c-.084-.006-.153.02-.192.07s-.047.125-.019.205c.03.082.088.16.168.224l.065.051.039.03.216.164.005.004a5 5 0 0 0 .376.25 3 3 0 0 0 .307.16l.01.005.079.038.142.072c.26.148.572.33.862.494l.109.06.555.317q.197.114.385.227.278.167.533.338.157.106.302.215.384.284.682.6t.515.683c.145.245.27.52.372.808a9 9 0 0 1 .293 1.012v.001a6 6 0 0 1 .11.695l.016.165q.037.118.062.235.054.265.032.526-.024.26-.13.525a3 3 0 0 1-.29.534c-.162.24-.357.476-.574.719-.216.24-.45.482-.688.728l-.253.26h-.001q-.236.243-.475.493-.367.385-.726.795a18 18 0 0 0-.704.863c-.23.31-.445.64-.636.979a15 15 0 0 0-.583 1.146c-.176.375-.337.736-.5 1.084q-.243.523-.507 1.017c-.178.328-.366.647-.57.944a5.6 5.6 0 0 1-.66.803 3.4 3.4 0 0 1-.747.57 3.2 3.2 0 0 1-.614.258 15 15 0 0 1-.99.279q-.291.07-.57.12-.28.05-.545.08c-.184.02-.334.03-.517.036-.441.025-.71.044-1.012.06l-.183.01q-.542.025-1.073.026c-.356 0-.706-.007-1.059-.025q-.526-.026-1.045-.081a16 16 0 0 1-1.028-.144 14.6 14.6 0 0 1-2.209-.563q-.248-.09-.476-.177-.27-.104-.516-.207a12 12 0 0 1-.97-.462l-.325-.176a36 36 0 0 1-1.592-.92 29 29 0 0 1-.452-.286q-.224-.147-.433-.293c-.247-.17-.496-.327-.696-.454-.208-.131-.416-.26-.597-.377a17 17 0 0 1-1.042-.732 9 9 0 0 1-.453-.38 6 6 0 0 1-.403-.395 4.5 4.5 0 0 1-.65-.9 3 3 0 0 1-.194-.437 3 3 0 0 1-.108-.41 4 4 0 0 1-.05-.464c-.007-.17-.005-.37.005-.578.016-.337.056-.719.1-1.136.043-.414.09-.865.12-1.329.025-.392.038-.791.032-1.206l-.002.1.006-.149a7.5 7.5 0 0 1 .172-1.215q.088-.404.208-.82l.001-.006a18 18 0 0 1 .492-1.465 23 23 0 0 1 .652-1.556c.063-.14.135-.299.2-.45.169-.4.34-.796.514-1.209.174-.412.349-.834.518-1.282q.087-.23.17-.468l.014-.039q.104-.285.239-.567.222-.465.513-.91a8.6 8.6 0 0 1 1.379-1.62q.434-.401.92-.723a6.5 6.5 0 0 1 1.01-.55 6 6 0 0 1 1.07-.344 7 7 0 0 1 1.174-.142q.366-.013.744.005.196.038.378.08c.894.213 1.537.443 2.383.768.08.033.145.065.222.103l.047.024c.101.05.218.108.383.182.33.147.842.35 1.547.563.177.053.343-.013.367-.151.018-.098-.04-.205-.14-.28q.315.125.625.26a.43.43 0 0 0 .248.033c.076-.015.134-.056.16-.115s.019-.132-.021-.203a.46.46 0 0 0-.19-.176 26 26 0 0 0-2.666-1.163 19 19 0 0 0-1.376-.437 13 13 0 0 0-1.356-.296c-.454-.073-.911-.12-1.364-.132a8 8 0 0 0-1.628.121q-.513.1-1.012.278-.633.227-1.225.568a8 8 0 0 0-.876.58q-.175.113-.34.233c-.32.233-.633.482-.928.75a7.6 7.6 0 0 1 1.553-1.27 10 10 0 0 1 2.09-.99q.375-.125.728-.202c2.112-.398 3.502.015 4.352.171.96.22 1.374.334 1.784.381.579.066 1.625.443 2.122.694.181.088.378.063.44-.06.063-.123-.034-.3-.22-.39-.535-.271-1.692-.694-2.399-.77-.314-.032-.657-.124-1.633-.347-.87-.155-2.28-.591-4.548-.17a7 7 0 0 0-.788.22 10.6 10.6 0 0 0-2.354 1.14l-.001.002a8 8 0 0 0-1.843 1.648 9.3 9.3 0 0 0-1.51 2.592c-.527 1.387-1.14 2.573-1.34 2.98l-.204.391c-.262.517-.614 1.122-1.17 2.621-.12.33-.246.721-.36 1.159-.235.64-.412 1.296-.487 1.893l-.012.095v.032c-.034.424-.114.81-.209 1.188-.029.115-.06.235-.092.35-.078.283-.16.57-.23.857-.057.232-.12.478-.18.748-.216.914-.45 2.616.65 4.208 1.145 1.603 2.394 2.314 3.423 2.962-.758-.44-1.37-.84-1.853-1.2q-.141-.105-.264-.202c-.598-.477-1.023-.897-1.401-1.444a5.6 5.6 0 0 1-.994-3.439c.034-.812.153-1.318.273-1.835.065-.273.143-.56.22-.862.105-.412.206-.855.264-1.33l.001-.053q.063-.413.153-.829c.174-.809.484-1.649.863-2.488q.113-.248.23-.493c.481-1.003 1.04-2.003 1.54-2.986l.193-.374c.24-.468.591-1.134.907-1.975a11.6 11.6 0 0 1 1.112-2.19c.246-.382.511-.773.855-1.195a9 9 0 0 1 .338-.392 8.1 8.1 0 0 1 2.385-1.814 7.7 7.7 0 0 1 1.753-.623 8.7 8.7 0 0 1 1.837-.194c.658-.002 1.322.06 1.965.166 1.94.327 3.622.954 5.223 1.707h.001c.189.09.388.063.446-.062.058-.126-.05-.305-.244-.396-1.636-.768-3.348-1.407-5.353-1.745a12.5 12.5 0 0 0-2.031-.17 9.2 9.2 0 0 0-1.943.204 8.2 8.2 0 0 0-1.895.674 8.6 8.6 0 0 0-2.547 1.95q-.2.223-.366.43c-.354.44-.613.828-.858 1.208a12 12 0 0 0-1.151 2.279c-.292.773-.624 1.407-.858 1.865l-.2.387c-.488.961-1.043 1.953-1.535 2.97a25 25 0 0 0-.234.498c-.39.854-.721 1.733-.911 2.593q-.11.492-.181.97l-.002.077c-.051.387-.131.74-.219 1.093-.076.304-.157.603-.233.915-.126.543-.256 1.082-.298 1.963a6.13 6.13 0 0 0 1.078 3.775M26.477 13.22a12 12 0 0 1-1.048-.377 23 23 0 0 1 1.048.377M10.019 23.63l.084-.225q-.092.318-.167.638a10 10 0 0 0-.152.794c.054-.424.14-.832.235-1.208m-.612 8.911c-.941-1.37-.799-2.782-.599-3.695.059-.279.124-.538.185-.79q.038-.159.08-.315c-.067.62-.122 1.208-.117 1.706.009 1.507.545 2.324.987 2.896.127.159.275.326.411.466.097.136.216.285.328.415.164.192.35.386.537.565.198.187.375.344.585.516q.292.239.61.467a17 17 0 0 0 .613.423c.194.129.392.255.579.376.193.123.33.215.466.311.162.117.353.246.512.354q.249.167.516.335a24 24 0 0 0 .688.42l.079.045c-.36-.175-.719-.351-1.106-.55a40 40 0 0 1-1.771-.948c-1.06-.644-2.402-1.36-3.583-2.997m12.072 6.832a12 12 0 0 1-.994-.298l.006.002a17 17 0 0 0 2.886.495q.567.05 1.132.064a22 22 0 0 0 1.49-.01q-.4.04-.842.056a19 19 0 0 1-.742.013l-.361-.002a11 11 0 0 1-2.575-.32m7.522-.011a11 11 0 0 0 .963-.22 15 15 0 0 0 .993-.305c-.738.28-1.476.493-2.257.655l-.03.006q.17-.067.331-.136"/></svg>