<svg xmlns="http://www.w3.org/2000/svg" width="40" height="40" fill="none" viewBox="0 0 40 40"><path fill="#fff" d="M0 0h40v40H0z"/><path fill="#d5e5ff" d="M10.233 11.857c-.365 0-.703.195-.886.511L5.27 19.433a1.02 1.02 0 0 0 0 1.022l4.078 7.065c.183.316.52.511.886.511h8.157c.366 0 .703-.195.886-.511l4.078-7.065a1.02 1.02 0 0 0 0-1.022l-4.078-7.065a1.02 1.02 0 0 0-.886-.51z"/><path fill="#69a3ff" d="M26.871 11.704c2.445.629 2.167 2.016 3.18 4.839.651 1.81 3.796 4.056.922 8.42-.857 1.302-3.616 2.848-5.611 3.276-4.397.93-6.987-1.18-9.285-4.659-1.725-2.631-1.116-6.42 1.5-8.28 2.478-1.758 6.08-4.486 9.294-3.596"/></svg>