<svg xmlns="http://www.w3.org/2000/svg" width="40" height="40" fill="none" viewBox="0 0 40 40"><g transform="translate(3, 3) scale(0.85)"><path fill="#438cff" d="M0 0h40v40H0z"/><path fill="#fff" fill-opacity=".7" d="M11.72 11.857c-.365 0-.702.195-.885.511l-4.079 7.065a1.02 1.02 0 0 0 0 1.022l4.079 7.065c.183.316.52.511.886.511h8.157c.365 0 .703-.195.886-.511l4.078-7.065a1.02 1.02 0 0 0 0-1.022l-4.078-7.065a1.02 1.02 0 0 0-.886-.51z"/><path fill="#fff" d="M28.36 11.704c2.444.629 2.166 2.016 3.18 4.839.65 1.81 3.795 4.056.92 8.42-.857 1.302-3.615 2.848-5.61 3.276-4.397.93-6.988-1.18-9.286-4.659-1.724-2.631-1.115-6.42 1.5-8.28 2.479-1.758 6.081-4.486 9.295-3.596"/></g></svg>