<svg xmlns="http://www.w3.org/2000/svg" width="40" height="40" fill="none" viewBox="0 0 40 40"><path fill="#438cff" d="M0 0h40v40H0z"/><path stroke="#fff" stroke-width="1.301" d="M11.72 11.857c-.365 0-.702.195-.885.511l-4.079 7.065a1.02 1.02 0 0 0 0 1.022l4.08 7.065c.182.316.52.511.885.511h8.157c.365 0 .703-.195.886-.511l4.078-7.065a1.02 1.02 0 0 0 0-1.022l-4.078-7.065a1.02 1.02 0 0 0-.886-.51z"/><path fill="#fff" d="M30.302 14.719c.01.03.043.157.06.21-.035-.056-.098-.32-.06-.21m3.61 4.866-.068-.14c.053.137.124.323.162.457.006.022-.024-.03-.008.02.015.052.029.037.053.111.03.084.113.48.133.619.09.518.108 1.06.03 1.578.047-.54-.02.003-.043.15-.009.034.043.038-.094.56-.099.322-.046.02-.204.553.17-.397.038.01-.091.318-.02.057-.216.476-.315.66-.032.06-.067.16-.112.24-.032.056-.064.095-.112.177a10 10 0 0 1-.26.419c-.174.262-.369.48-.573.68.16-.22-.161.135-.18.145-.086.067.265-.275.12-.145q-.29.284-.598.527c.173-.13-.203.204-.286.243.06.02-.996.63-1.154.716-.033.02.197-.082-.317.189-.056.029-.04.007-.068.024-.017.01-.106.098-.23.137-.045.013.213-.136-.37.157.254-.072-.817.392-1.03.445l.127-.031c-.204.063-.237.087-.283.102-.183.063-.443.134-.62.185-.205.059-.2.082-.45.132l.18-.027a8 8 0 0 1-.512.108c.383-.107-.085.016-.114.02-.05.01.019-.015-.063.001-.008.002.006.012-.123.035-.271.045-.228.022-.343.038-.01 0 .028.008-.17.034-.628.07.002-.006.026-.013.03-.007-.186-.019.343-.076-.176.02-.197.003-.217.005l-.343.041c-.153.02-.016.022-.046.027-.027.006-.398.014-.489.056-.183-.032.104-.033.404-.063.043-.01-.287.005-.304.004-.43.016-.192.037-.285.06-.049.01-.225-.01-.062.017-.395.002-.156-.014-.181-.016-.039-.003-.176.001-.193 0-.025-.003.063-.01-.036-.016-.016-.001-.178.008.029.024-.278-.014-.256-.002-.347-.036-.195.037-.136-.043-.21-.053-.198-.03-.145.017-.156.018-.074.008-.623-.1-.757-.13.058-.015.433.09.52.095.287.026-.397-.083-.184-.085a8 8 0 0 1-.265-.022c-.15-.061.073-.013-.348-.114-.074.003.297.074.22.07-.046 0-.29-.062-.295-.06-.007.006.214.058.177.057-.083.01-.869-.265-.263-.084-.17-.05-.241-.118-.389-.157-.095-.03.405.227-.37-.089-.01-.022.312.12.322.12.012.003-.032-.06-.041-.065-.038-.01-.822-.336-.96-.453.045.06-.55-.32-.614-.363-.018-.01.037.045.018.034-.12-.066-.402-.305-.533-.412-.149-.119-.137-.094-.145-.1-.064-.054-.007-.019-.046-.051-.062-.047-.454-.4-.472-.419-.006-.005.046.065-.039-.011-.014-.014.005-.015-.24-.25-.292-.282.183.217.051.11-.166-.204-.177-.18-.226-.233-.017-.019-.125-.165-.259-.312q.146.155.298.305c-.095-.104-.281-.3-.353-.389-.035-.043.008-.02-.072-.11-.016-.02-.118-.067.107.158.005.029-.088-.09-.137-.14-.007-.008-.055-.022-.1-.102-.01-.02.195.112-.23-.316-.014-.014.021.045.008.031-.01-.01-.102-.13-.114-.143s.026.052.011.037c-.074-.076-.126-.211.006-.039l-.122-.181c.022.081-.077-.085-.138-.164-.388-.512-.148-.154-.222-.237-.118-.133.005-.055-.162-.26-.014-.02.148.255-.196-.262q.08.113.16.224c-.006-.06-.191-.27-.203-.287-.126-.18-.055-.09-.2-.29l-.056-.08c-.02-.028-.053-.096-.094-.158-.12-.184.028.078.135.245.04.064.071.114.071.12 0 .003-.032-.043-.079-.112a6 6 0 0 1-.323-.555c-.042-.105.171.303.144.218-.03-.02-.505-1.007-.543-1.227-.07-.242-.055-.363-.101-.352.026-.08-.02-.133-.026-.165-.081-.38-.079-.381-.13-.71-.01-.073-.003-.136-.008-.161-.003-.015-.015.015-.027-.059a5 5 0 0 1-.014-.766c.008-.046.004.26.017.205a7 7 0 0 1 .021-.655c.008-.092.014-.044.018-.084 0-.017.029-.334.025-.322-.03.03-.082 1.015-.083.755-.002-.05.029-.226.001-.2a6.9 6.9 0 0 1 .667-2.551c-.201.467-.402 1.004-.508 1.525-.016.07-.061.313-.043.285a6.7 6.7 0 0 1 .39-1.388c.005-.013-.002.039.019-.008.037-.09.147-.387.177-.432.004-.008-.057.162-.025.117.082-.116.046-.173.102-.28.037-.088.38-.614.463-.748.077-.15-.267.38-.25.336.209-.375.486-.714.76-1.013.004-.005-.047.032.013-.035.106-.117.149-.134.205-.187.06-.056.275-.256.31-.275a.4.4 0 0 1-.036.055c-.091.09-.138.105-.147.112-.033.03-.058.065-.086.092-.047.045-.079.065-.14.126-.041.043.01.012-.03.052-.016.014-.194.16-.181.2-.003.003.582-.625 1.088-.962.211-.148.383-.271.425-.305l-.36.242c.245-.163.516-.39.56-.372.895-.632 1.809-1.262 2.779-1.82.175-.097.092-.02.376-.187q-.118.05-.235.102c.147-.081.816-.422.926-.477.014-.007.023-.039.193-.122.15-.072.183-.067.267-.1.07-.028.146-.066.167-.074.016-.006.026.001.065-.013.123-.045.014-.033.147-.05l-.086.04c.148-.056.354-.118.141-.026-.036.016-.008-.006-.036.005-1.065.464-.212.102.164-.058.102-.028.656-.227.679-.227.027-.003-.066.038.064.01.024-.014.795-.213.52-.125-.056.016-.425.109-.511.138.212-.034.694-.196.752-.203.226-.04-.427.117.081.018.394-.067.02-.024.17-.06.084-.023.54-.05.526-.078.157-.016.066.008.085.008a4 4 0 0 1 .43-.017c.011 0-.027.017-.015.018l.336.007c.008 0-.063-.018-.033-.02.034-.005.323.023.34.023.023-.007-.335-.032-.274-.043.164.013.434.035.545.042-.027-.001-.187-.024-.243-.031.03-.024.374.031.253.031.076.003.026-.011.07-.013.012 0 .118.02.14.02.002 0-.106-.031-.083-.031.043-.004.362.073.388.085.072.025-.19-.036-.215-.029-.003 0 .213.074.215.078.009.02-.232-.055-.208-.03q.09.025.178.055c-.235-.051-.667-.13-.782-.12.35.03.71.123.697.165-.005.017-.153-.007-.149 0 .018.02.224.052.231.056l.009.006c-.003.007-.292-.057-.307-.053-.026.002.095.061.093.069-.005 0-.21-.036-.144-.01.067.026.243.069.248.072.032.014-.276-.05-.287-.045-.005 0 .157.049.16.055.004.004-.122-.015-.174-.012-.039.002.066.03.047.028a6 6 0 0 0-.317-.052c-.021 0 .045.02.034.021-.014.002-.107-.014-.096-.008.01 0 .363.099.358.111-.008.015-.376-.092-.04.04l.09.014c.049.024-.222-.016.105.054-.614-.107-.08.008-.177.018-.037.002-.272-.033-.274-.03.021.017.098.018.122.03.013.005-.199-.012-.153.005.024.007.245.043.254.047.085.027-.024.015-.006.026.012.006.143.035.146.037.005.002-.176-.018-.215-.018-.029 0 .076.027.056.026-.12-.012-.368-.08-.132.002.014.005.106.02.108.022.054.023-.114-.008-.146 0-.054.009.188.038-.014.018.148.036.23.051.403.09-.48-.1-.655-.07-.128.027-.166-.037-.153-.005-.203-.014-.03-.007-.272-.067-.168.007.013.009.161.023.113.03-.352-.055-.009.008-.009.01-.006.016-.87-.074-1.024-.04-.175.013-.327.059-.364.064-.125.015-.023-.012-.052-.013-.03-.004-.38.08-.397.085-.07.007-.004-.023-.01-.022-.088.002-.56.131-.691.17.007.009.27-.064.11-.001-.185.074-.21.034-.215.034-.88.276-1.727.694-2.545 1.169.022.014.55-.304.566-.305.08-.027-.828.485-.94.551l.26-.137c-.13.11-.463.27-.66.411-.064.046.069-.026.067-.023-.069.056-.192.125-.111.055-.172.128-.155.098-.293.188-.008.004.058-.025-.048.05-.05.036-.321.218-.351.251-.012.013.15-.041.145-.085.306-.181.084-.078.2-.153.017-.012-.012.032.273-.165-.034.068-.383.263-.438.306-.112.086.383-.22.457-.301-.025.052.036-.02.146-.088.12-.075.073-.034.137-.074.177-.11.093-.084.25-.157-.175.036.247-.16.37-.212q-.279.168-.556.347l.037-.012-.147.09.019-.022c-.242.176-.314.198-.335.211-.264.168-.565.372-.828.554-.04.027 0 .024-.297.212-.094.06-.016-.013-.118.061-.105.125-.123.097-.162.124-.11.078-.171.134-.182.142-.136.099-.337.24-.487.349-.003.002.084-.044-.017.023-.015.01-.087.049-.182.104a2 2 0 0 0-.396.29q.09-.073.187-.141c-.083.045-.54.495-.414.398.072-.061.223-.245.265-.235-.194.105-.937 1.018-.968 1.11-.008.01.026-.062.015-.048-.01.01-.15.24-.17.271-.013.017.041-.09.033-.083-.009.004-.178.299-.172.324.032-.078.15-.28.101-.167-.006.015-.053.082-.06.1-.07.164.18-.304.23-.369-.168.287-.417.74-.533 1.11-.064.143.063-.224-.007-.061-.14.341-.017.097-.02.108-.021.089-.169.37-.121.384-.04.127-.037.084-.073.269l.026-.07a3.5 3.5 0 0 1-.154.602c-.005-.091.054-.317.058-.336.006-.029-.033-.12.087-.423-.003-.137-.135.493-.093.202-.055.191-.166 1.003-.14 1.122.001.014.033-.05.015.15-.008.096-.008-.134-.015-.09-.094.139.201 1.961.413 2.258.009.02-.004.017.005.037.026.063.141.282.194.391-.097-.232.124.202.191.306.06.102.076.139.089.17a.4.4 0 0 0 .031.063c.172.287.505.687.628.916.022-.034.254.37.386.53.103.13.274.293.145.114.178.218.38.436.56.624.03.032-.02-.004.032.05.005.004.02.003.064.048.374.364.18.2.244.274q.054.06.085.09a11 11 0 0 1-.532-.53c.033.079.474.486.599.604.004.005-.02 0-.016.005.046.047.362.315.308.246-.015-.018-.159-.14-.326-.294.047.04.024-.003.033.004.1.085.33.306.418.378.02.017.024.008.027.01.079.067.029.062.13.105.123.143-.277-.214-.26-.175-.001.05.97.736.991.691a.2.2 0 0 0 .04.037c.058.047.347.201.4.22.01.003.018-.022.028-.017.025.015.377.201.523.237a6 6 0 0 1-.218-.102c.446.186.382.142.235.08l-.022-.01a4 4 0 0 1-.258-.123c-.009 0 .754.278.6.245-.022-.001-.373-.141-.203-.06.03.015.26.088.272.092.077.042-.43-.115-.375-.08.127.031.28.094.423.132.066.018.085.01.093.012.12.03.05.024.09.035.021.007.266.035.212.064.8.124.22.035-.257-.094.154.03.45.103.587.122.048.007.022-.011.104 0 .168.034.984.11 1.203.098-.132.006-.093.02.008.018s.016-.02.036-.023c.021 0 .5-.014.583-.028-.364.036-.281.046.029.02q-.067.015-.134.025c.181-.018.564-.043.667-.067.016-.004-.045-.007-.035-.01.09-.017.403-.059.417-.067.011-.006-.122.009-.075-.006.01-.002.14-.01.267-.04l.012-.004c.026-.008.003-.013.013-.016.093-.027.042.006.214-.039.127-.035.216-.079.392-.126-.58.14-.095.019.142-.067.037-.014-.002-.022.229-.091-.473.202.147-.025.272-.078.007-.002.015.01.077-.014.005-.002-.006-.008.051-.03.542-.23.198-.078.305-.112.046-.014.302-.143.372-.176.016-.008.013.005.075-.025.11-.053.203-.11.274-.147.008-.005.016.01.15-.064.037-.021.077-.049.02-.024-.184.08-.517.27-.732.348-.194.073.4-.198.43-.217.01-.005-.1.058.017.002.1-.047.269-.163.417-.236.01-.005.138-.048.133-.044-.004.004-.18.104-.151.096.003 0 .117-.062.134-.066.02-.004.098.02.123.008.064-.031.017-.02.057-.042.088-.045.39-.205.389-.23q-.074.044-.147.085c.267-.163.148-.102.184-.129.038-.028.036-.006.127-.06.02-.01.385-.258.372-.261-.194.148-.131.077-.141.083-.036.023-.074.063-.123.095-.34.215-.008-.02-.09.027-.03.016-.079.06-.09.067-.04.022-.048.01-.073.027-.058.04.022.013.018.017-.047.044-.267.157-.146.06-.083.04-.079.068-.147.096-.136.055.055-.05.103-.082.174-.12.233-.143.48-.31.088-.059.185-.142.224-.17.026-.018.289-.155.253-.217.093-.062.26-.137.347-.213.076-.068.036-.066.042-.073.011-.011.104-.09.133-.122.033-.037.009-.027.061-.082.13-.14.14-.119.156-.132.166-.15.072-.102.103-.14.014-.02.13-.146.223-.284.112-.167.215-.336.247-.4l-.077.157c.068-.08.102-.188.127-.177-.027-.042.106-.215.134-.271.01-.023.003-.025.017-.052.061-.116.183-.356.207-.424.103-.27-.227.389-.265.438.064-.104.323-.703.18-.436-.024.043-.039.122-.05.146-.072.161-.027.028-.035.04-.012.02-.05.133-.066.16-.005.008.01-.055-.068.092.03-.08.245-.498.262-.56.006-.021-.071.094.104-.265l-.014.01q.115-.312.19-.628c0 .025-.015.15.02-.004.018-.087-.013-.026-.012-.034.007-.04.092-.398.106-.785.02-.386-.041-.79-.07-.921a4 4 0 0 0-.099-.35 6 6 0 0 0-.202-.584c-.022-.047-.014.004-.032-.04-.017-.04.013-.004.008-.016-.025-.103-.436-.836-.545-1.019.068.11.392.634.39.62 0-.002-.061-.14-.08-.164-.014-.05-.132-.187-.175-.273-.005-.01.035.018-.052-.133-.03-.052-.125-.178-.197-.323-.127-.178-.8-1.293-.848-1.414-.003 0 .08.183.012.065-.089-.162.014-.026-.07-.225-.004-.01-.034-.08-.067-.171-.06-.16-.137-.383-.142-.394-.072-.145.069.296.065.29a6 6 0 0 1-.142-.39c-.003-.015.122.272-.006-.08l.03.125c-.06-.165-.047-.189-.06-.23-.035-.125-.107-.254-.133-.469-.007-.056.03.03.03.022-.007-.068-.065-.139-.068-.243 0-.008.08.211-.034-.18l.016.084a13 13 0 0 1-.151-.5c-.041-.153.015-.024-.032-.177.006.103-.134-.354-.107-.331-.044-.058-.148-.436-.217-.593-.041-.104-.146-.289-.162-.316-.018-.035.005-.034-.028-.097a6 6 0 0 0-.234-.325c-.02-.027-.05-.1.001-.06.09.068.195.255.207.243.017-.017-.169-.235-.225-.285-.255-.245-.093-.125-.093-.136-.007-.03-.17-.147-.178-.151-.026-.025.1.045.107.04.011-.01-.143-.138-.104-.116.061.028.197.152.205.16.123.088-.016-.067-.057-.111-.012-.014.049.022.038.012-.174-.147-.06.003-.183-.082-.113-.074.045.002.04-.001-.004-.006-.141-.09-.162-.107-.005-.015.369.184.36.168a2.4 2.4 0 0 0-.35-.213c.002-.024.166.088.183.099.037.018-.054-.053-.047-.055.005-.003.128.057.027-.014-.036-.024-.12-.058-.252-.14.486.24.164.052.153.036-.01-.015.23.098-.055-.054.007-.042.013-.01.097.03.1.05-.111-.103.23.128-.005-.033-.293-.202-.31-.208-.014-.008.056.018.034.003-.266-.173-.08-.062-.153-.123-.003-.006-.283-.131-.067-.045.388.162.51.3.604.292-.243-.211-.613-.326-.703-.359-.134-.05.01-.008-.006-.018-.005-.003-.123-.046-.125-.047-.067-.078.526.2.697.32a3 3 0 0 0-.133-.102q.099.054.194.116c-.3-.2-.006-.016.087.01.02.004-.185-.12.054.018-.164-.121-.107-.092-.27-.177.012-.016.376.196.5.311-.45-.378-.212-.143-.63-.414-.09-.026.122.08.103.074-.067-.025-.204-.116-.398-.154-.032-.006.084.06-.097-.012l-.132-.066c.021-.007.137.04.143.037.007-.003-.125-.048-.126-.049.002-.016.112.034.097.024-.033-.024-.493-.223.12.009-.52-.17-.07-.018.128.065.049.02.068.018.14.05.09.038.194.102.238.127.049.03-.212-.164.178.095-.183-.163-.57-.324-.78-.413-.428-.185.319.07.392.122.02.01-.041-.035-.028-.029.025.002.425.236.465.263.043.016-.142-.096-.15-.111 0-.022.466.31.222.12-.169-.139-.525-.288-.573-.34.28.124.554.287.792.501a3 3 0 0 0-.397-.342c.306.185.536.41.758.673-.514-.66.208.184.187.21a3 3 0 0 0-.187-.331c.227.215.593.998.407.526.037.085.146.277.145.274.013-.033-.22-.467-.172-.402.062.074.1.203.159.329.276.648.286.446.47 1.086q0-.02-.002-.04c.197.69.37 1.342.591 1.985q.03.062.07.158c.095.23.363.664.518.91.036.058.213.362.227.387.022.044-.126-.184-.068-.076.013.02.334.54.324.497-.035-.061-.156-.238-.172-.27-.103-.244.867 1.44.876 1.57l-.04-.13q.075.176.14.359m-3.438-4.426c-.034-.062-.072-.236-.104-.332-.045-.136-.169-.346-.083-.265zm1.238 2.983c-.071-.126.018-.047.068.056.005.011.025.11-.068-.056m-.752-1.426.011.03c.015.045.041.112.043.116.022.073-.026-.033-.052-.112-.016-.05-.025-.084-.002-.034m1.867 6.212c.042-.133-.017-.045-.033.039 0 .005.03-.03.033-.04m.032-.095c.06-.099.06-.319.021-.153zm-1.412-5.135c.018.01.093.14.125.196-.009.003-.09-.14-.124-.196m1.532 3.085c.015.004-.09-.428-.115-.454.03.066.111.45.115.454m.063 1.12a1 1 0 0 0 .004-.158c-.013.072-.015.208-.004.159M32.3 24.09c-.004.01.1-.077-.075.164-.025.035.043-.105.033-.093l-.043.066c.067-.122.13-.243.14-.253.04-.049-.053.112-.055.116m-.665 1.001c-.012.024-.137.141-.169.165-.005.004.004-.03-.053.024-.045.043.038-.005-.055.074-.096.08.02-.04.01-.034-.01.008-.15.141-.153.128-.002-.009.158-.14.192-.174.046-.046-.02-.004.06-.074.048-.044.04-.001.05-.01.011-.007.162-.18.117-.099m.562-.832.018-.032zm-1.596-8.707c.013.073-.06-.136-.073-.218.007-.005.07.207.073.218m1.55 8.823c-.111.168-.038.036.046-.116-.024.05-.01.06-.046.116m.25-5.166q.005.014-.001.018c-.006-.023-.005-.026.001-.018m.202.416c.08.136-.056-.152-.066-.146-.003.003.063.141.066.146m.164 3.471c.006-.012-.027.212.05-.103-.061.16-.006-.012-.011-.01-.01 0-.102.279-.131.333 0 .053.072-.175.092-.22M29.8 26.434c.03-.03.144-.093.22-.138-.03.032-.143.095-.22.138m-10.33-10.72-.073.053c-.388.297-.445.294-.043.007l.034-.02c.041-.024.102-.059.083-.04m-2.305 4.142c-.024.052-.016-.128.006-.244.005-.026.037-.122.028-.01-.024-.006-.052.167-.034.254m14.939 4.623a1 1 0 0 1-.108.177c-.022.032-.047.064-.066.089.009-.02.033-.057.057-.095zm-13.97-7.466c-.036.049-.044.093-.037.085.031-.035.084-.135.036-.085m14.264 6.965c.012-.003-.096.208-.123.213.028-.044.117-.21.123-.212m-2.451 2.378c.034-.016-.13.09-.184.116 0-.01.161-.106.183-.116M17.658 17.86a1 1 0 0 0-.076.189c0 .02.075-.163.076-.19m8.526-5.722c.008.002-.197.06-.29.075-.178.024.282-.08.29-.075m-7.711 4.42c.125-.116-.012.014.007.02.073-.087.27-.29.123-.161-.028.025-.095.101-.13.14m-.106.116c-.007.018-.069.125-.004.041.03-.038.065-.112.004-.041m6.535-4.195c-.156.033.536-.184.558-.18l.022-.001a.5.5 0 0 1 .174-.038c-.04.008-.147.037-.16.04l-.012.001c-.044.019-.553.167-.582.178m-1.13.454c.157-.101.204-.077.19-.07-.175.1-.069.018-.075.019-.014.004-.137.077-.114.05m.895-.375c.006-.004.15-.056.156-.057.122-.03-.284.117-.156.057m6.279 13.168c-.09.063-.013-.013.047-.053.005-.003.03-.002-.047.053m-12.628-8.984c-.024.011-.387.52-.342.504.016-.054.444-.616.342-.504m-1.127 4.412c-.017-.109.022.007.024.066 0 .022-.02-.038-.024-.066m15.368 2.548c.039-.109.064-.07.008.014-.002.003-.01-.01-.008-.014m-15.427-3.429c.024.38-.058.294-.028-.206l.008.047c.037-.573 0-.039.006.102.002.053.013.009.015.057m.177 1.45c.052.367-.107-.318-.134-.519.051.19.102.438.053.096.106.492.05.29.05.31.004.024.03.098.031.113m-.167-.953c-.004-.021-.006-.182-.01-.24.018.08.032.38.01.24m5.493-7.218c.006-.018.032-.044.15-.106-.033.026-.104.073-.15.106m7.865 1.461c-.026-.093-.073-.274-.07-.215.002.008.063.216.07.215m-13.058 3.31c-.012.015-.15.474-.09.32.014-.049.153-.46.09-.32m1.303-2.07a2 2 0 0 0-.14.15c0 .014.133-.132.14-.15m11.635-1.7a2 2 0 0 0-.083-.25c.007.057.09.29.083.25m.26 11.431c-.019.013-.052.02-.058.024-.015.012-.367.248-.241.145.024-.014.528-.353.588-.403.036-.003-.182.136-.233.174-.01.006-.006.024-.056.06M23.24 13.2c.01-.021.457-.257.459-.24q-.231.117-.459.24m-.227.121c-.099.045.122-.08.19-.111a2 2 0 0 1-.19.111m-4.886 3.589c-.026.04.075-.069.058-.04-.01.018-.079.101-.093.133a1 1 0 0 0 .09-.097c.025-.037-.01-.01.018-.049.097-.13.195-.236.295-.35.01-.01-.068.063.01-.024.012-.014.093-.086.19-.186.183-.24.374-.361.664-.584l.037-.028-.04.025a4 4 0 0 0-.233.16 5 5 0 0 0-.889.896c-.053.07-.02.042-.043.073-.017.024-.01-.015-.064.07m12.398-1.85c.003-.05-.05-.198-.078-.296-.004.04.054.197.078.295m-9.467-.536c-.042.029-.173.112-.18.124a1 1 0 0 0 .18-.124m7.478 12.62-.116.049c-.102.03.223-.108.116-.05m-2.667.744c-.088.013-.175.027-.205.016.055-.003.213-.026.205-.016m-3.677-.5c.009.023-.22-.098-.263-.123.02.003.256.106.263.122m.4-13.874c.145-.082.101-.088.2-.13.015-.006.09.014-.078.087-.03.013.075-.063-.122.043m-5.482 6.472c-.01-.04 0-.165.009-.25.006.02-.008.19-.01.25m13.135-5.92c-.007-.08-.139-.394-.12-.311.005.01.105.261.12.31m1.687 10.761c-.062.097.065-.054.11-.14l.02-.039-.023.037c-.033.049-.104.137-.107.142m-8.903 2.88-.156-.048c-.113-.049.29.077.156.049m3.746.05-.026.008a3.4 3.4 0 0 1-.468.077c.061-.021.358-.072.467-.088.028-.004.041-.004.027.003m-4.767-13.88q.152-.094.295-.173a3 3 0 0 1-.294.173m.502 13.656-.022-.01zM19.774 15.39c-.085.057-.058.058-.053.054.066-.04.15-.118.053-.054m10.741-.451c.005-.038-.054-.2-.078-.294-.003.03.055.218.078.294m-13.12 7.168c.022.118-.145-.334-.154-.437.003-.008.147.422.155.437m14.79 2.38c.017-.003.11-.185.083-.15a1 1 0 0 0-.082.15m-14.992-3.054c-.013-.044-.021-.15-.008-.114.018.045.011.125.008.114m.56-3.946c-.012.016-.121.259-.061.166.04-.064.032-.082.04-.098.007-.02.234-.38.021-.068m1.043 6.988c-.067-.08-.14-.187-.206-.276.032.032.187.236.206.276m12.942.614c.033-.01.411-.494.189-.228-.01.017-.245.27-.189.228M20.984 14.538c.027-.028-.135.08-.18.117-.008.018.176-.113.18-.117M18.575 24.2c-.041-.048-.105-.145-.152-.21.014.007.143.184.152.21m3.167 3.007a1.6 1.6 0 0 0-.241-.13l-.014-.014c-.007-.007-.121-.072-.167-.106-.286-.18 1.144.64.295.199zm5.508.451c.071-.008.255-.08.205-.07-.036.009-.275.078-.205.07m-2.665.337c.02.004.21 0 .216-.007-.11-.007-.31-.006-.215.007m3.185-.49a.2.2 0 0 0 .085-.05c-.045.01-.159.065-.085.05m-5.502-13.857c-.06.03-.238.156-.27.191a1 1 0 0 0-.07.032c-.056.018-1.517.993-.525.357.03-.02-.017-.002.109-.082.008-.006.017 0 .043-.017.06-.039.377-.235.437-.28q.003.001.016-.005c.085-.038.307-.22.26-.196m1.942 14.324a.7.7 0 0 0 .17.006c-.058-.007-.258-.022-.17-.006m7.566-2.875c.057-.049.167-.199.125-.16-.021.023-.189.218-.125.16m-6.353 2.882c-.448.015-.106.007-.174.023zm-1.25-15.3c-.067.027.001-.029.08-.049.025-.006-.042.034-.08.05m3.109-.686c-.058-.025.229.006.116.012zm-2.193.322a.7.7 0 0 1-.203.08c.192-.069.009-.02.203-.08m-3.588 14.763v-.002zm6.67.272c.058-.01.206-.072.157-.065-.004.001-.138.049-.157.065m-6.174-13.51q.012-.004-.005.008-.002 0 .005-.009m5.368 13.804a2 2 0 0 0-.238.057c-.13.051.143-.026.238-.057m5.258-3.84c.005-.01-.05.05-.066.1-.011.037.05-.056.066-.1M25.536 12.18a1 1 0 0 1 .198-.037c-.05.009-.198.045-.199.037m1.633-.206c-.087.01-.286.012-.413.018-.003-.019.332-.019.413-.018m-4.714 1.57c-.006.003-.178.1-.15.096.043-.006.2-.119.15-.095m9.986 10.584c-.035.078.082-.082.105-.169.013-.043-.098.155-.105.169m-3.8 3.043c.102-.053-.163.052-.196.077.05-.02.159-.058.195-.077m-3.74.861c.353.029.16-.03.097-.023a1 1 0 0 0-.098.023m5.078-14.764c-.026-.037.041.12.06.135.013.01-.043-.112-.06-.135m-9.85 12.767.033.03zm9.47.713c-.248.08-.208.098-.227.108-.043.022-.149.062-.229.104l.27-.156c-.072.04-.72.332-.732.34-.014.02.187-.076.194-.078.009-.003.053.01.073.002.033-.01.565-.277.65-.32m-3.956 1.242c-.057.001-.075-.01-.101-.004-.01.001-.01.013-.04.019zm4.333-1.505c.07-.024-.213.135-.223.137-.053.02.167-.116.223-.137m-2.492 1.134c.01-.002.247-.076.241-.083-.063.017-.376.116-.241.083m-2.02.39c-.087.005-.247 0-.229.017zm6.86-3.607c.105-.122.037-.074-.042.04-.012.042.026-.02.043-.04m.269-.435c.03-.04.216-.447.173-.393-.015.024-.112.258-.12.27-.01.016.014-.067-.047.06.009-.004-.015.076-.006.063m-.185.33c.099-.13.08-.18.022-.075-.023.04-.037.093-.022.075m-.345.538a1.382 1.382 0 0 0 .165-.256l-.106.162a3 3 0 0 1-.123.167c-.004.016.035-.038.064-.073m-3.97-12.845c-.117-.04.16.022.17.03.032.018-.118-.014-.17-.03m1.542.357c-.025-.024-.037-.051-.106-.087q.09.077.171.164c.063.019-.036-.05-.065-.077m-.207-.242c.01.006-.025-.06.09.039.08.06-.406-.189-.494-.23.105.033.315.144.404.191m-.84-.517a2 2 0 0 1 .224.064c.118.051-.194-.041-.223-.064m.641.24c-.09-.048.12.041.176.077.003.009-.16-.07-.176-.077m-2.395-.5c-.11-.021-.204.04-.038.02.008 0 .043-.019.038-.02m1.967.285c.092.039-.12-.027-.184-.049-.006-.01.171.043.183.05m-2.046-.343c-.147-.01-.092.05-.074.05.075.004.33-.027.383-.031-.385.014-.24-.011-.31-.019m-.663.107c-.13.027.209-.013.272-.035-.066.008-.235.027-.272.035m-.798.15c-.07.015-.276.07-.307.09.074-.025.28-.073.307-.09m-.164.015c-.112.019-.126.063-.006.016.005-.002.01-.017.006-.016m-.605.182c-.074.01-.14.075-.027.035.033-.012.035-.036.027-.035m2.042-.508c-.11.002-.244.042-.015.024q-.12.015-.239.037c.299-.018.275-.049.362-.054.12-.005.112.027.089.037.097-.026.52-.03.763-.008a5.5 5.5 0 0 0-.774-.04c-.06.001-.119.014-.17.016-.082.006-.01-.012-.016-.012m-2.807.817c-.203.073-.064.05.044-.005a.2.2 0 0 0-.044.005m4.795-.613c.277.102.066.034.666.236-.256-.082-.019.008-.07-.003-.044-.01-.183-.07-.105-.025-.105-.065-.586-.203-.611-.207-.013-.005.03-.031.12-.001m-3.287.012c-.083-.025-.091.052-.239.056-.168.104.508-.144.606-.11-.76.173.513-.068-.033-.016.445-.068.142-.039.209-.062.071-.025.326-.056.31-.07q-.232.037-.462.088c.158.004-.157.06-.268.059zm.869-.147c-.015 0-.35.063-.325.068.044-.008.518-.086.325-.068m1.502-.045a2 2 0 0 0-.381-.021c.123.004.313.027.381.021m-5.822 1.796c-.123.087.275-.15.153-.092zm3.116-1.5c-.154.034-.07.053.037.008.006-.002-.03-.01-.037-.008m3.854-.053c.012-.012.424.146.492.183-.042-.016-.509-.18-.492-.183m-.925-.255c-.242-.079-.584-.051-.62-.052s.022-.017.014-.018a6 6 0 0 0-.428.002c-.014.001.057.023-.022.033.155-.032.866.014.903.027.029.002-.183-.052.152.008m-.711-.06c.097.012-.175.01-.241.009-.147-.006.228-.013.24-.008m-.654.016a2 2 0 0 0-.331.045c.133-.006.4-.047.33-.045m-2.922.85c-.064.03-.242.105-.247.119.062-.033.24-.107.247-.12m6.603.118c-.093-.098.138.112.192.187 0 .006-.182-.18-.192-.187m-5.299-.697c-.045.001-.852.304-.957.363.107-.046.909-.34.948-.347.01-.004.014-.018.01-.017m1.86-.356c.08-.019.134-.003.145-.003.1-.002.31-.002.264.011-.179-.012-.57.029-.41-.008m-3.247.9c-.26.128.25-.093.179-.076-.005.001-.152.063-.179.076m1.479-.577c.054-.04.906-.238 1.05-.248-.121.042-.224.044-.39.08-.044.01-.03.017-.035.018-.077.018-.021-.006-.069.005-.032.001-.64.183-.556.145m1.813-.336c.05-.017.61-.013.633-.003.167.02-.59-.008-.633.003m-1.895.341c.081-.054.504-.153.221-.062-.027.009-.144.032-.221.062m-1.379.538c-.013.004-.288.13-.29.14.04-.018.44-.202.29-.14m.132-.09c-.006.003.065-.013-.066.044-.01.006-.038-.002-.197.08a.4.4 0 0 0-.074.05c.177-.058.67-.331.337-.174m3.152-.803c-.03-.006.041-.031.107-.021.029.004-.024.017-.107.021m-4.14 1.316c.146-.095-.336.166-.357.185.018-.003.34-.176.356-.185m7.818-.075c.108.136.03.06.036.066.21.3.164.213.2.258.07.099.037.097.143.266-.177-.28-.023-.021-.029-.008-.015.053-.2-.393-.329-.518-.015-.018.082.128.042.083-.12-.152-.52-.639-.063-.147m-3.52-1.265c.072-.022.622.018.475.022-.024-.007-.58-.006-.475-.023m-5.99 16.83c-.116-.058.133.11.187.128.025.01-.136-.102-.187-.128m1.918.879c.152.038.322.03.133-.009-.02-.003-.148-.002-.133.009m-6.645-6.987c.021.162.049.145.02.03-.009-.042-.02-.035-.02-.03m3.253 4.997c.01.012.147.134.146.124-.047-.048-.215-.199-.146-.124m-3.269-5.047c.027.093.011-.073-.032-.185.013.059.03.175.032.185m8.339-10.255c-.072.038-.28.11-.397.16-.019-.012.31-.128.396-.16m-2.3 17.075c.14.04-.15-.078-.128-.055.003.003.122.053.127.055m-5.215-11.83c-.048.096.144-.186.08-.116-.004.003-.078.11-.08.116m.927-1.171c-.062.054-.297.313-.198.219.014-.016.199-.21.198-.219m12.753-2.9c-.01-.05.132.19.145.226a1 1 0 0 1-.145-.226M16.55 22.779c.033.078.119.28.144.311-.047-.092-.139-.343-.144-.31m5.09 5.5c.108.072.31.157.27.113-.221-.096.017.035-.27-.113m-5.535-7.092c.007.068.038.116.038.108-.001-.074-.039-.175-.038-.108m2.24 4.362a.7.7 0 0 0 .117.14 1 1 0 0 0-.117-.14m3.76-12.928c-.086.04.158-.112.237-.144.043-.008-.227.139-.237.144m-5.995 6.696c-.015-.012-.045.326-.018.195.006-.033.022-.19.018-.195m1.161-3.007c-.127.19.471-.562.3-.376-.016.01-.292.357-.3.376m1.072-1.148c-.03.024-.049-.027.092-.117.018-.011-.052.063-.037.054.008-.008.295-.22.31-.229.013-.011-.013-.012 0-.024l.023-.015c.05-.033.178-.113.25-.164.159-.113.17-.137.183-.146.04-.028.108-.066.186-.121.394-.282.998-.717 1.337-.91-.293.183-.556.38-.833.579.066-.08-.398.306-.128.077-.087.065-.61.443-.98.706-.211.151-.367.283-.402.31m5.134 13.74c-.098.002.39.077.431.058-.062-.007-.42-.055-.431-.058m-2.151-.7c-.042-.02-.097-.01-.297-.144-.058-.04.015-.007.005-.016-.004-.003-.182-.129-.025-.038.24.135.01.034.137.108.015.01.27.127.257.115-.001-.001-.077-.037-.089-.045-.043-.03-.015-.027-.022-.031-.022-.01-.41-.215-.455-.265-.019-.009.611.34.64.347.015.01-.005.031.01.042.008.007.276.123.31.139l.022.012c-.037-.025.206.08.195.085a2 2 0 0 1-.178-.075q-.004 0-.007-.003c.028.03-.527-.24-.414-.168-.162-.075.033-.009-.09-.064m-.742-.427.051.023a8 8 0 0 1-.81-.619c-.067-.058 0 .023-.087-.058-.07-.064-.134-.146-.094-.115.01.008.146.142.22.203.22.177.177.119.19.129s.148.13.227.188c.2.144.295.203.574.394-.17-.096-.093-.019-.27-.145m-4.178-9.86c-.006-.015.075-.206.102-.275.004.014-.079.203-.102.274m17.76 2.657c-.024-.062.045.421.04.292a4 4 0 0 0-.04-.292m-.064 2.174c-.01.064.057-.188.044-.19-.004 0-.042.181-.044.19m-16.273 2.266-.106-.149c-.052-.097.266.343.106.149m15.274.083c.075-.135-.083.11-.139.2-.023.036-.028.048.006.003l.003-.004c.007-.009.126-.19.13-.199m-.587.772c.04-.039.206-.22.204-.227s-.193.2-.204.227M16.038 21.15c-.015.028-.038-.283-.046-.391.015-.027.028.284.046.39m.522 1.894c-.273-.603-.314-.862-.3-.817.02.042.115.379.34.885-.01.006-.005.008-.04-.068m-.49-1.611c.02.045.043.192.064.291-.012-.016-.05-.22-.064-.291m17.984-1.43c.041.075.111.444.09.38-.002-.016-.104-.409-.09-.38m-16.3 4.935c.002.033-.21-.27-.223-.296-.054-.101.2.274.223.296m-1.724-5.644c-.004-.071.034-.266.059-.39 0 .058-.045.283-.059.39m-.076.914.005-.193c.017-.145.004.357-.005.193M30.4 12.041c.006.003.114.117.116.122.086.11-.236-.23-.116-.123"/></svg>