<svg xmlns="http://www.w3.org/2000/svg" width="90" height="90" fill="none" viewBox="0 0 90 90"><g clip-path="url(#a)"><mask id="b" width="90" height="90" x="0" y="0" maskUnits="userSpaceOnUse" style="mask-type:luminance"><path fill="#fff" d="M0 24.457C0 10.95 10.95 0 24.457 0h41.086C79.05 0 90 10.95 90 24.457v41.086C90 79.05 79.05 90 65.543 90H24.456C10.95 90 0 79.05 0 65.543z"/></mask><g mask="url(#b)"><path fill="#d0e1ff" fill-opacity=".6" d="M0 24.457C0 10.95 10.95 0 24.457 0h41.086C79.05 0 90 10.95 90 24.457v41.086C90 79.05 79.05 90 65.543 90H24.456C10.95 90 0 79.05 0 65.543z"/><path fill="#3784ff" d="M74.446 46.803c.033-.012.078.053.117.056.16.015.22.06.365.085.215.038.854-.047.854.404v.013c-.003.086-.057.18-.065.277s-.002.724-.08.76c-.111.045-.38-.115-.44-.108-.04.005-.09.062-.142.072-.169.032-.257-.01-.408.146l-.182-.245c-.079.038-.199-.07-.247-.064-.04.005-.062.07-.103.072-.047.004-.117-.066-.201-.055-.138.017-.162.185-.244.206-.086.023-.219-.069-.328-.01l-.04.056.028.125c-.054.02-.078-.066-.129-.067-.059-.002-.09.08-.13.08-.032 0-.076-.067-.119-.063-.062.006-.048.1-.081.118q-.135.034-.273.06c-.106.003-.115-.126-.199-.137-.233-.03-.472.073-.688.113a.8.8 0 0 1-.293-.01c.151-.33-.183-.588-.058-.07-.107-.075-.183.065-.284.041-.066-.015-.11-.087-.204-.085-.166.004-.348.207-.395-.16-.195.064-.364-.07-.434.256-.05.02-.18-.174-.236-.2q-.26-.076-.529-.117c-.067-.005-.184-.01-.24.018-.07.035-.12.372-.246-.022a.5.5 0 0 1-.335-.025c-.025-.008-.028-.067-.042-.067-.03 0-.08.044-.133.05-.087.007-.137-.115-.127.072l-.173.095-.06-.109-.092.12c.036-.273-.18-.113-.11.043l-.334-.169c.015-.308-.245-.035-.223.133h-.038c-.112-.083-.214-.016-.35-.07-.136-.056-.124-.086-.165-.228l-.096.024c-.168.39-.138-.285-.426.014-.092-.245-.318-.116-.468-.042-.018.01-.018.056-.041.07-.057.036-.202-.025-.197.128l-.151-.133-.123.084v.143c-.082-.163-.212-.1-.276-.14-.013-.007-.016-.073-.056-.09-.046-.022-.132-.003-.187-.023l-.065.22c-.099.04-.133-.154-.191-.169a2 2 0 0 0-.212.015c-.084.033-.06.197-.303.162-.043-.007-.078-.063-.117-.066-.07-.004-.278.125-.294.244-.084-.149-.308-.088-.374-.13-.02-.014-.025-.11-.086-.13-.05-.016-.178.06-.24.047-.067-.014-.091-.093-.121-.099-.029-.005-.055.06-.093.06-.12-.003-.23-.107-.325-.109-.138-.003-.26.188-.374.272-.029-.012-.057-.053-.087-.053-.37-.006-.789-.04-1.16-.082-.174-.019-.603-.278-.488.154-.06.076-.496-.098-.58-.1-.082-.004-.148.074-.213.075-.197.003-.336-.052-.575.015-.062.018-.128.11-.165.108-.044 0-.092-.09-.149-.096-.136-.012-.39.017-.52.002-.025-.003-.033-.08-.067-.106-.133-.095-.282-.087-.256.162-.17-.14-.328-.012-.486-.004-.334.016-.942-.042-1.233.062-.183.066-.178.178-.448.082-.06-.022-.12-.05-.193-.076-.17-.06-.326-.266-.456-.018-.19-.064-.34-.018-.48-.23l-.05.152-.07.004-.022-.146c-.166-.013-.377.187-.517.185a6 6 0 0 1-1.068-.145c-.119-.035-.125.07-.193-.145l-.08.044-.05.141c-.152.002-.333-.07-.478-.07-.264.002-.661.13-.927.046-.066-.022-.15-.118-.215-.117-.095.001-.118.162-.238.165-.208.005-.595-.182-.79-.168-.06.005-.086.064-.127.07-.168.028-.307.023-.469.115-.173-.153-.158-.352-.212-.552-.041-.15-.166-.5-.184-.634-.012-.093.034-.212.017-.315.208-.08.295.01.464.153l.937-.017.085.167c.12.065.17-.079.235-.112.62-.312 1.837-.068 2.519-.032.147.007.624-.068.725.023.026.023.033.11.061.113l.744-.154c.51.134 1.037.024 1.55.003 1.39-.056 2.766-.124 4.134-.103.264.004.599-.06.858-.019.108.017.153.156.294.053l.005.111c.124-.044.203-.13.341-.138a4 4 0 0 1 .53.002c.053.007.033.076.083.076.086 0 .268-.097.386-.097.107 0 .287.08.37.068.295-.04.618-.16.933-.128.087.01.199.1.226.097.054-.006.07-.093.105-.105.182-.056.465.048.644.052.58.013 1.195-.025 1.773-.009.366.01.973-.005 1.31.06.073.015.053.111.114.111.068 0 .105-.065.136-.07.22-.037.703-.102.91-.036.039.013.067.088.09.088.013 0 .04-.052.077-.057.331-.046.572-.016.897.001.62.034 1.34-.062 1.992-.01.142.011.24.16.26.158.043-.003.071-.103.16-.128.295-.08.693.026.974-.024.139-.025.33-.152.466-.18.109-.023.367.027.415-.029.03-.033.043-.142.078-.155m-3.674 1.686c.02-.173-.185-.029-.108.064.017.02.103-.019.108-.064m-9.561-.3.005.148.08-.062-.044-.09z"/><path fill="#3784ff" d="M43.885 55.8c.11-.212.334-.472.477-.714.603-1.013.86-1.369 1.416-2.28.823-1.35 3.097-5.457 3.487-5.232l.01.008c.067.057-.052.45.003.55.054.1.62.375.366.883-.37.735-1.496 2.363-1.709 2.746-.146.262-.28.61-.464.947-.59 1.087-.949 1.626-1.372 2.667l-.88 1.035c-.258.522-.791 1.23-.963 1.54-.14.253-.17.432-.318.695-.166.295-.486.71-.785 1.25-.49.882-.434 1.121-.719 1.656-.295.555-.862 1.356-1.212 2.08l-.103.288.217-.124c-.185.36-.346.467-.533.787-.22.377-.26.61-.408.865-.12.208-.34.458-.492.73-.223.397-.092.358-.199.578a218 218 0 0 1-.95 1.767c-.385.672-.53.666-.85 1.195-.883 1.47-1.672 3.044-2.43 4.436a40 40 0 0 1-1.085 1.857c.27-1.127-1.182.874-.275.336a6 6 0 0 0-.45.761l-.24.408-.458-.005c-.392.022-.764.065-1.201.051-.482-.015-.815-.087-1.502-.085-1.22.004-2.554.207-2.905-.16-1.431.064-2.671-.07-3.187.255-.37.02-1.315-.173-1.73-.2-.39-.024-3.395-.11-3.887-.116-.491-.005-1.352-.01-1.766.018-.52.035-.883.372-1.81-.022-1.076.032-1.46.02-2.46-.025-.182-.008-.203-.067-.308-.067-.219 0-.59.044-.98.05-.64.007-1.005-.115-.934.072l-1.266.095-.445-.109-.677.12c.265-.273-1.323-.113-.808.043l-2.455-.169c.114-.308-1.797-.035-1.636.133h-.281c-.82-.083-1.573-.016-2.572-.07q-.254-.014-.507-.034l-.343-.004-.164-.289c-.2-.428-.16-.443-.183-.706l-.374-.598c-.954-.874-.261-1.022-1.577-2.703-.125-.707-1.069-2.084-1.685-3.002-.072-.107-.114-.085-.212-.226-.24-.344-.72-1.298-.835-1.19l-.438-1.026-.526-.742-.122.075c-.162-.607-.694-1.403-.896-1.83-.04-.086.007-.136-.123-.398-.152-.305-.486-.845-.672-1.207l-.426-.3c-.398-.609-.358-.926-.558-1.303-.036-.067-.748-1.273-.79-1.336-.337-.519-.392-.285-1.254-1.849-.154-.279-.233-.53-.375-.78-.25-.442-1.127-1.702-1.29-1.747-.18-.608-1.056-2.005-1.262-2.446-.062-.134.004-.21-.204-.61-.168-.325-.704-1.1-.925-1.508-.233-.432-.252-.624-.357-.818-.1-.183-.251-.316-.393-.562-.44-.768-.751-1.514-1.1-2.12l-.015-.028-.137-.24.137-.23c.498-.867.777-1.726 1.124-2.493.115-.176.254-.334.364-.525 1.368-2.356 2.936-5 4.338-7.346.65-1.09 2.453-3.692 1.657-3.179.155-.42 1.91-3.108 2.216-3.635s.482-.984.72-1.4c.72-1.254 1.278-2.107 2.1-3.665.212-.403.376-.87.512-1.103.163-.28.415-.538.63-.899.511-.86 1.42-2.49 1.913-3.315.09-.15.189-.165.335-.37.25-.35.495-.73.665-1.043l.18-.306.345.003c.455-.012.752-.076.643-.216 1.253.141 2.41.012 3.571.005 2.454-.017 6.923.041 9.06-.063 1.348-.066 1.314-.178 3.298-.08.44.02.879.05 1.413.074 1.252.06 2.401.267 3.356.018 1.39.064 2.498.02 3.53.231l.365-.153.511-.003.16.145c1.221.014 2.771-.186 3.805-.185.801.001 2.186.018 3.605.043l.465.005.22.39a233 233 0 0 1 2.03 3.72c.407.774.52.763.585 1.302l.331.485.305.247c.562.97 1.163 2.155 1.697 3.08.973 1.681 2.545 4.144 3.447 5.876.227.435.449 1.013.69 1.427.35.604.573.67 1.019 1.435.767 1.32 2.026 3.873 2.76 5.114.217.37.369.512.522.765.644 1.06 1.149 1.944 1.824 2.928.505 1.182.278 1.186.302 1.63.02.334.176 1.305.127 1.484-.035.126-.31-.11-.334.052-.836-1.284-1.08-1.885-1.576-3.033l-3.456-5.95-.168-.626c-.384-.795-.696-1.047-.961-1.442-2.546-3.782-6.81-11.656-9.284-16.01-.21-.368-.617-1.055-1.053-1.794l.508.293c-1.327.012-2.798.018-3.248-.037-.191-.024-.245-.11-.448-.114l-5.466.154c-3.747-.134-7.62-.023-11.395-.003q-6.405.037-12.76.07l.568-.329q-4.362 7.65-8.777 15.27c-.974 1.68-2.15 3.844-3.137 5.47-.412.678-.697.895-1.129 1.85l-.113-.029c-.416.81-.633 1.356-1.136 2.244-.423.747-1.554 2.717-1.946 3.367-.203.337-.19.175-.373.493l-.12.215v-.61c.36.587.994 1.534 1.377 2.198.393.68.986 1.866 1.297 2.383 1.123 1.862 2.41 3.853 3.542 5.876.312.558.645 1.316.748 1.49.2.335.334.392.476.614.717 1.13 1.668 2.984 2.32 4.12C-4.635 67.878-2.34 71.773-.23 75.46l.507.882-.628-.362c2.691.005 6.42 0 8.606.058.534.014.392.11.84.11.498 0 .767-.065 1-.07 1.61-.037 5.162-.102 6.68-.036.29.013.5.088.674.088.087 0 .285-.05.56-.057 2.432-.046 4.204-.016 6.587.001 2.627.02 5.495-.004 8.37-.018l-.56.324a410 410 0 0 1 3.141-5.426c.532-.898 1.02-1.444 1.092-1.572.158-.28.174-.51.48-1.087 1.014-1.92 2.568-4.397 3.557-6.21.488-.895 1.079-2.17 1.556-3.054.382-.706 1.371-2.32 1.5-2.655.08-.204.036-.345.153-.576M29.531 77.392c.142-.173-1.358-.029-.795.064.127.021.758-.019.795-.064m-43.406-35.849-.15-.038q-.12.272-.242.542l.244-.242z"/><path fill="#3784ff" d="M12.989 35.97c-.077.073-.049.117.003.056.015-.017.016-.057-.003-.056m-.36.706c-.03.148.036.077.04.053.022-.102-.013-.196.064-.21.02-.051-.023-.01-.016-.042.014-.063.068-.113.094-.17l.005-.01c-.01-.013-.018-.035-.033-.04-.054.047-.152.373-.154.419m.199-.524c-.01.029.016.028-.02.072.01.019.05-.021.063-.044 0-.001-.014-.005-.011-.01.022-.043.075-.091.044-.115-.009.05-.065.069-.076.097m.447-.462c.028.014.046-.003.07-.037l-.016-.011zm.12-.082c.04.012.176-.073.145-.075q-.075.035-.145.075m9.167 24.636c-.004.153.207.648.229.748.134.52.17.92.157 1.31-.012.263-.037.46-.115.635q.068.1.119.212c.01-.03.01-.047.027-.078.017-.03.042-.112.08-.122.019.043-.026.155-.044.185-.035.06-.04.006-.07.042-.03.034-.041.122-.092.155-.117.074.027-.126.05-.16-.066-.028-.06.106-.131.1-.002-.023.004-.096.027-.108s.037.044.056-.005a1 1 0 0 0-.05-.15c-.031.037-.05.106-.076.138q-.045.056-.099.108a1.1 1.1 0 0 1-.544.275c-.245.08-.556.11-.876.102l.01-.005.02-.008v.002a.1.1 0 0 1 .033-.005c.017-.001.034-.003.042-.01l-.027-.007-.064-.015-.069.047a6 6 0 0 1-.32-.023l-.017.007-.017.006h-.026a2 2 0 0 1-.147-.012l-.035-.004-.084-.01h-.01l-.005.004c-.02.01-.042.003-.063-.01l-.007-.005-.035-.005-.138-.016-.095-.01-.14-.016a1 1 0 0 1-.095-.02 16 16 0 0 1-.51-.15c-.063-.02-.12-.054-.137-.081l-.11-.033-.008-.01-.039-.022c-.03-.016-.065-.034-.063-.047l.11.042c.027 0-.085-.074-.133-.078-.038-.004-.041.036-.037.062l-.052-.016-.006-.015c-.003-.01-.005-.018-.016-.028-.052-.053-.226-.102-.172-.04-.046-.014-.05-.024-.053-.036s-.007-.027-.064-.053a.4.4 0 0 0-.129-.038.2.2 0 0 1-.051-.01 1 1 0 0 1-.084-.032c-.075-.032-.173-.074-.202-.062-.034.012-.001.036.032.056l-.268-.102.01-.022c-.114-.062-.144-.056-.135-.026q-.171-.069-.347-.142l-.062-.043c.013-.004.038.008.063.02.02.01.04.02.048.018.069-.017-.144-.18-.13-.102.003.019.007.04-.02.04a.3.3 0 0 1-.104-.04v.002l-.006-.008-.01-.015a.3.3 0 0 0-.027-.042l-.042-.04c-.173-.158-.03-.05-.26-.121a.3.3 0 0 1-.053-.026l-.042-.021-.066-.022a.5.5 0 0 1-.128-.051h.008c.133.005-.087-.03-.093-.031q-.01-.005-.011-.003c-.007.008.033.036.08.069.043.03.092.065.114.09l-.062-.028a.2.2 0 0 0-.07-.042q-.01-.003-.01.005l-.056-.026v-.01a.7.7 0 0 0-.175-.082q-.008 0-.011.004l-.142-.07-.013-.01a.1.1 0 0 0-.037-.013L16.07 62v-.002q.005-.009 0-.015c.12.07.103.045.085.017-.008-.013-.017-.027-.013-.032.006-.007.03.004.052.014.028.013.054.025.04 0a.6.6 0 0 1-.157-.09c-.135-.1-.185-.072-.078-.013q.032.016.059.04c.016.016.014.03.012.045v.019l-.003-.003-.109-.077c-.058-.035-.058-.03-.059-.022q.002.008-.008.01l-.019-.005c-.01-.005-.02-.01-.02-.006q-.002.005.004.014l-.046-.023a.1.1 0 0 0-.02-.02l-.08-.032-.455-.236-.005-.001-.008-.001-.022-.004a.67.67 0 0 1-.461-.232c-.033-.04-.042-.07-.043-.084q0-.006.002-.01l-.012-.023c-.032-.033-.039-.023-.043-.016l-.004.004-.038.02q-.248-.14-.493-.283a16 16 0 0 1-.819-.513c.014-.001.024-.006-.001-.035a.8.8 0 0 0-.183-.112l-.008-.013a.2.2 0 0 0-.039-.052c-.053-.046-.27-.31-.342-.34l-.152-.11-.056-.035-.027-.007c-.102-.035-.281-.136-.398-.173l.066.082-.08-.014.003.02-.198-.11.001-.001c-.02-.02-.032-.023-.041-.021l-.098-.055-.024-.027.004-.05-.063-.015c-.04-.043-.085-.08-.13-.084l-.08-.064a.4.4 0 0 0-.055-.047c-.018-.034-.043-.181-.165-.29l-.053.096-.105-.101.01-.077-.045.033-.218-.174-.021-.017-.03-.023-.023.04-.004-.002a.3.3 0 0 1-.056-.052h.034l-.264-.26-.056-.003-.012-.01-.01.008-.022-.002-.006-.004-.014-.12-.163-.128-.132-.084-.24-.113a.2.2 0 0 0-.005-.04l-.044-.026.001-.023c-.036-.02-.09-.04-.158-.132l-.05.087-.037-.01-.202-.294-.21.022-.312-.217-.03-.028.133.03-.009-.178-.243-.058c-.253-.275-.642-.366-.408-.444l.101.113-.091-.193-.184-.055-.151-.165-.095.018-.095-.167-.194-.001q-.334-.292-.664-.587c-.398-.214-.153-.187-.362-.414l-.377-.214-.074-.154-.13-.06-.505-.42.175-.008-.077-.1-.337-.098-.161-.2-.284-.215-.069.057-.002-.193-.359-.354.18.25-.231-.127-.178-.214-.024-.097-.463-.343a49 49 0 0 1-.503-.46c-.102-.188-.445-.335-.333-.491l-.435-.345-.067-.107-.098.01-.127-.212-.243-.224.04.109a87 87 0 0 1-.722-.597l.063-.135-.28-.216.03-.094c-.135-.138-.263-.27-.4-.413l-.496-.34c-.115-.221-.436-.667-.64-.638a82 82 0 0 1-.602-.716q-.014.047-.027.095l-.074-.043.044-.136-.286-.173.027.135.089.098-.188-.075.004.007a12 12 0 0 0-.643-.537c-.21-.157-.34-.187-.409-.172a.1.1 0 0 0-.038.02c-.046.04-.04.14.033.29l.02.037c.109.204.256.406.405.59a1 1 0 0 0-.104-.065q.017.04.037.082l-.068-.024-.007.028c.097.107.183.266.267.36.076.084.148.105.21.168.06.063.219.307.237.213.013.01.03.023.043.03-.047.069.071.106.145.2.035.045.1.214.081.028.014.012.022.014.035.024.036.182.11.21.26.317.083.06.244.19.124.178.039.11.184.148.231.204s-.052.014.013.088c.01.013.107.11.14.136.033.025.022-.031.066.02.188.216.338.463.536.682.604.663 1.219 1.26 1.892 1.9.11.108.69.663.775.702.293.14-.164-.336.192-.065-.085.273.162.395.44.65.204.188.512.514.71.649.212.144.08-.014.23.044.006.149.083.246.236.388.161.15.348.27.527.414.06.048.125.135.198.185.091.063.11-.001.167.036s-.033.053.015.11c.022.025.197.178.253.19.013.002-.005-.043.015-.053.012-.006.067-.073.105-.03-.012.09-.06.153.071.272.208.188.433.33.665.516.052.042.136.187.234.182.029-.002.068-.067.147.003.068.06.057.096.102.167.017.026.046.004.077.057.03.052.063.142.15.093-.012.027-.027.047-.04.07.075.069.275.099.197.146l.242.198.1-.037c-.03-.062-.13-.092-.102-.144l.217.159c-.115.104.054.34.107.175.01-.03.136.104.16.137.025.032-.006.087.082.107.05.012.095 0 .155.103-.063-.03-.133-.057-.198-.085.083.057.174.157.264.187.023.008-.031-.065.009-.05.04.016.168.127.103.152.134-.044.065.026.192.13.017.013.216.028.238.12.008.034-.08.066.043.119.09.039.055-.075.162-.04-.094.04.004.183.08.245.135.11.149.048.208.062.106.026.129.138.215.117l-.06-.06.163.093-.074.084c.075.073.138.064.212.109.01.006-.015.02-.005.028.078.062.112.07.138.157.061-.073.126.055.233.084.03.008.073-.02.009.06.172.1.286.195.46.226-.108.048.072.184.193.238.033.014.1-.026.152.027l-.11.042c.115.096.145 0 .24.082.042.036-.049.102.066.126.065.014.17-.07.095.07.065.058.052-.015.104.015.032.019.032.09.083.118.097.053.281.047.22.145.057.05.04-.02.094.025.07.06.216.256.3.203.032.087.251.217.246.115-.122-.058-.157-.188-.047-.11s.146.09.178.072c.047.052.06.095.135.152.053.04.14.08.206.127-.008.012-.013.025-.001.042.03.044.189.098.233.128l.002.002c0 .018-.015.036.026.075.01.01.053.013.1.028q.045.04.09.074l.04.023a1.5 1.5 0 0 0 .183.178c.026.018.094.028.105.033.037.02-.002.044.026.067.211.169.485.33.704.485.204.144.314.222.521.363.192.13.324.298.283.013.18.082.083.095.08.156 0 .036.058.04.064.05.02.036-.062.012-.046.04.067.11.518.324.609.377.446.266.745.463 1.172.693.267.143.51.25.79.386l.327-.068c-.042-.014-.068-.016-.111-.037-.044-.021-.155-.065-.158-.102.063-.004.207.058.25.078.08.04.006.038.057.07.05.033.174.043.23.086.131.103-.184-.014-.235-.047-.033.064.162.062.173.13-.032.003-.145-.004-.168-.028-.023-.025.058-.034-.019-.056-.073.009-.154.016-.229.024.061.04.18.072.24.1.684.338 1.405.598 2.147.775.072.017.213.047.284.05.056 0 .05-.05.102-.027.005.004-.028.03.044.05.138.038.444.08.595.088.795.06 1.826-.068 2.58-.81.67-.643.91-1.567.886-2.34 0-.08-.01-.39-.034-.447-.065-.167-.13-.128-.035-.237-.006-.094-.049-.023-.067-.061-.007-.014.052-.121.02-.16-.074-.082-.055.075-.076.133-.051-.131-.017-.28-.038-.4-.006-.033-.063-.027-.066-.034-.047-.135.064-.145.111-.148l.06.21c-.01-.142-.064-.24-.112-.38-.012-.032.05.002.012-.071l-.124-.04c-.012-.172-.007-.238.103-.044l-.07-.25c-.027.04-.096.013-.086-.08.003-.02.056.019.06-.01a1 1 0 0 0-.068-.222c-.072-.131-.158-.132-.157-.261.009.03.105.183.09.07-.013-.127-.218-.556-.287-.687a2.3 2.3 0 0 0-.31-.482c-.025-.03-.071-.008-.118-.068-.064-.08-.151-.24-.229-.33l.003.08-.06-.053q-.009.007-.018.017c.053.132.075.309.117.424.038.106.1.16.132.24.034.085.077.363.139.306l.028.049c-.08.018.02.124.046.24.012.054-.01.216.065.07.007.019.014.026.022.04-.058.155-.004.212.086.4.05.102.127.306.022.212-.024.1.088.232.1.304.01.072-.056-.028-.04.068.003.018.03.147.046.196.015.043.038-.004.047.066.04.308.003.54.008.864q.003.174-.007.347c-.048-.24-.164-.43-.007-.754a7 7 0 0 0-.095-.618l-.042-.025-.006-.035a5 5 0 0 0-.059-.27q-.098-.38-.224-.753a18 18 0 0 0-.877-2.08l-.007-.013-.007-.014-.038-.072a2 2 0 0 0-.071-.12c-.01-.014-.076-.114-.147-.17l-.032-.02-.116-.155-.042.024-.068-.136.006-.026-.207-.442-.096-.103-.208-.382.04-.047-.157-.162q-.106-.184-.198-.34l.025-.001-.161-.418-.133-.126-.032-.14-.293-.514-.154-.078-.08-.157.121.09-.238-.428.067-.056q.03.066.062.12c.018.03.042.005.047.01.082.115.031.16.01.178l-.119-.177c.068.13.134.202.216.322.02.028-.024.014.024.073q.04.005.08.007c.085.178.11.245-.032.074l.144.24c-.003-.05.045-.038.078.06.007.022-.036-.005-.027.024s.114.197.123.21c.088.116.132.096.18.23-.019-.036-.122-.163-.074-.053.053.118.34.563.42.688.14.216.206.314.34.483.025.033.044.004.092.07.066.086.17.26.242.354l-.01-.03a4 4 0 0 0-.154-.28c-.11-.347-.304-.674-.362-.79l-.003.006-.033-.05c.016-.012.007-.038-.012-.073l-.04-.06h.005a1 1 0 0 1-.069-.117l-.069-.083v.008c-.01-.02-.017-.026-.028-.042v-.002l-.006-.007-.017-.021-.101-.13a1.4 1.4 0 0 1-.106-.166l-.063-.115c.014.084-.102-.004-.218-.205.005-.04.037.042.049.036.011-.007-.047-.075-.009-.06.08.12.02.077.07.173 0-.03.038-.02.039-.043.001-.036-.041-.083-.037-.1l-.012-.023-.1-.164c-.021-.063-.201-.24-.285-.33l.007.02-.028-.042-.014-.016a.14.14 0 0 0-.046-.04q.001.01-.004.01l-.142-.224q-.005.003-.006.012a36 36 0 0 1-.767-1.35l.025-.041c.007-.005.017-.01-.016-.044l-.023-.011-.01.002c-.014 0-.043-.01-.084-.043a.7.7 0 0 1-.241-.49l-.002-.006v-.005l-.246-.454-.037-.08a.1.1 0 0 0-.02-.02l-.025-.045q.01.006.014.005c.003 0-.002-.01-.006-.021l-.007-.02q.002-.008.01-.008c.009 0 .014 0-.024-.058l-.085-.11.04-.003a.1.1 0 0 1 .025.012c.015.014.03.037.043.06.023.038.044.074.07.05a.6.6 0 0 0-.088-.13.6.6 0 0 1-.099-.157c-.025-.013-.011.013.003.04.011.024.023.048.017.054-.005.004-.02-.005-.033-.013-.029-.017-.054-.032.022.087q-.008-.005-.015-.001h-.003l-.038-.07a.1.1 0 0 0-.016-.037l-.011-.013-.078-.143.003-.012a.8.8 0 0 0-.094-.174q0 .002-.009 0l-.03-.053q.01 0 .005-.01a.2.2 0 0 0-.046-.067l-.033-.06c.027.02.065.067.098.109.035.044.065.08.073.074l-.003-.01c-.008-.02-.022-.057.043-.013-.087-.16-.081-.102-.079-.078v.008a.6.6 0 0 1-.06-.125l-.026-.065-.024-.041a.3.3 0 0 1-.03-.052 1 1 0 0 1-.024-.098 1 1 0 0 0-.023-.093c-.026.002-.062-.032-.097-.066l-.045-.04c-.012-.01-.03-.018-.045-.026l-.017-.01-.008-.005h.002a.3.3 0 0 1-.051-.103c-.002-.02.01-.024.024-.024h.028c.011 0 .018-.003.008-.023-.044-.093-.13-.137-.136-.097a.1.1 0 0 0 .023.047c.014.023.029.047.026.06l-.049-.058-.18-.335c.031.007.033-.024-.044-.134l-.02.012-.142-.265c.024.03.054.062.061.026.007-.032-.047-.123-.09-.194l-.045-.08a.3.3 0 0 1-.017-.05l-.006-.022-.088-.15a.05.05 0 0 0-.03-.013c-.012-.001-.023-.003-.046-.048.028.018.033.003.026-.024l-.073-.126-.025-.023c-.013-.01-.023-.011-.032-.012l-.016-.005-.026-.05c.013 0 .03-.002.04-.01l-.032-.054a.2.2 0 0 1-.053-.055.3.3 0 0 0-.03-.035l-.01-.006-.055-.105a.33.33 0 0 1-.112-.125l-.099-.172c-.009 0-.024-.008-.061-.05a.4.4 0 0 0-.006-.07l-.112-.195a1 1 0 0 1-.082-.174l-.023-.057-.039-.093c-.104-.167-.216-.33-.322-.503-.046-.074-.093-.181-.149-.264-.069-.104-.087-.065-.13-.128s.029-.022-.006-.095a2.4 2.4 0 0 0-.193-.307c-.01-.01.002.038-.015.033-.01-.002-.058.017-.086-.04.015-.065.057-.085-.04-.26-.152-.274-.315-.517-.484-.813-.038-.066-.092-.232-.169-.29-.022-.016-.059.01-.114-.095-.047-.09-.035-.11-.062-.192-.01-.031-.036-.033-.054-.092-.018-.06-.033-.148-.107-.168.012-.013.026-.02.038-.03-.052-.102-.202-.254-.137-.24l-.162-.31-.08-.035c.015.066.087.154.06.175l-.146-.262c.1-.005.004-.29-.057-.201-.011.017-.089-.17-.103-.212-.014-.043.016-.063-.048-.138-.036-.042-.071-.065-.101-.183l.136.198c-.055-.1-.108-.235-.17-.32-.015-.02.014.07-.014.032-.028-.04-.104-.207-.052-.182-.104-.057-.044-.062-.118-.223-.008-.018-.152-.17-.152-.257 0-.03.069.008-.011-.12-.059-.092-.053.018-.123-.084.074.036.03-.138-.011-.235-.072-.172-.093-.138-.13-.19-.068-.09-.06-.186-.125-.235l.03.088-.094-.19.07-.005c-.037-.108-.08-.147-.12-.234-.006-.012.015-.003.01-.016-.038-.101-.058-.131-.054-.21-.057.005-.068-.13-.127-.226-.018-.028-.052-.041.01-.048-.086-.203-.129-.353-.223-.505.078.05.011-.173-.038-.297-.015-.036-.067-.064-.079-.142l.076.06c-.034-.153-.082-.115-.107-.244-.01-.056.061-.025.01-.127-.028-.06-.112-.09-.022-.115-.011-.081-.032-.03-.047-.086-.009-.037.02-.071.006-.132-.027-.11-.112-.256-.043-.26-.003-.073-.026-.021-.03-.087-.005-.092.03-.288-.024-.338.027-.071.025-.29-.024-.246.007.118-.043.207-.041.084.008-.196-.007-.157-.068-.206-.008-.007-.008-.06-.021-.05-.013.008-.033.125-.054.057-.004-.013.02-.071-.004-.086l.02-.025c-.041-.118-.063-.127-.09.073l.039-.014c-.018.028-.035.05-.052.083-.014.227-.042.566.004.786.042.196.013-.078.016-.081.018-.052.039.036.055.035s.027-.11.03-.013c0 .012-.03.15-.035.156-.03.027-.048 0-.054.032q-.176-.927-.005-1.555c.087-.321.26-.613.498-.844q.135-.13.26-.22.115-.059.236-.102l.068-.055a2.5 2.5 0 0 1 .431-.143l.013-.036c.269.046.323-.18.569-.018q.14.003.29.017l.07-.07.027.02q.132-.004.263-.001.095.038.19.08c.067-.07.552.143.468.06q.112.03.225.062l-.047-.042.041-.01q.078.04.152.08c.11-.083.177.028.213.047.058.032.174.073.18.078.01.008-.105 0-.021.046l.157-.002.005.034.1.018.01-.033.06.01.02.04q.12.051.237.109l.199.026.089.045-.005.064q.138.02.279.045l.132.078-.046.012-.041-.04-.022.018.197.137.097.017.054.054q.14.073.28.15l.093-.008.08.052-.08-.008.227.135-.024.062.108.046.023-.028q.225.09.453.189l-.018.069c.202.08.38.226.551.325.073.042.199.05.15.093q.205.12.412.248l.096.107.204.076c.058.096.477.432.506.369.088.084.09.067.193.173l.106.029.151.103.173.176.17.05-.025.044.105.102c.051.146.076-.14.336.19l-.148-.111-.094.004.186.18.156.098.107.11.34.225.283.257.078.014.098.145.057.038.037-.013.218.213.181.117-.026.017q.37.322.735.652l.002.002c.047 0 .126.168.178.08l.003.043.09.059.018-.03.06.053-.024.037-.086-.04q.09.071.176.142l-.003-.042c.09.045.22.33.218.012l-.134-.087.105.015.018-.053-.127-.073-.03-.075.05.02-.043-.08-.205-.201-.05-.017-.375-.324.019.068-.098-.086-.008-.054-.091-.094-.027.069.062.12-.092-.053.019-.05-.115-.096.079.02v-.056l-.147-.153-.037.008-.093-.13-.071-.033-.014-.037-.136-.112-.105-.046-.066-.095a37 37 0 0 0-.532-.4c-.079-.142-.409-.29-.356-.323a38 38 0 0 0-.449-.345l-.107-.047q-.22-.18-.441-.355-.3-.19-.604-.371l.094-.01-.183-.124-.133-.04-.084-.103c-.105.054-.16-.132-.338-.208-.034-.131-.24-.085-.292-.23v.036l-.104-.064-.191-.162-.029.03-.093-.05.031.06-.084-.04-.259-.205-.09-.017-.025-.05-.183-.076.028-.02.077.043.011-.03-.258-.14.03-.005-.217-.115h.006c.036 0 .045-.067.193.017.127.073.136.11.239.194.039.03.064.01.137.073.075.063.171.167.256.126 0 .028-.008.048-.01.073.136.085.414.154.34.193q.217.135.426.27l.11-.02c-.072-.076-.218-.13-.21-.183l.37.226c-.095.092.252.402.235.227-.001-.031.231.153.28.198.047.044.035.098.16.145.07.027.124.026.253.163-.097-.051-.2-.103-.3-.153.137.088.305.23.434.29.033.016-.07-.083-.011-.054s.275.196.203.205c.153-.01.096.05.309.213.027.02.292.104.361.22.025.043-.075.049.107.155.134.077.039-.07.193.01-.105.014.083.218.205.32.215.176.21.11.29.15.147.07.22.212.323.222l-.1-.095.245.176-.064.07c.124.117.2.13.312.216.015.012-.013.017.003.03.122.108.169.132.233.247.053-.06.183.122.329.204.041.023.085.008.03.075.25.195.423.36.654.482-.123.005.146.252.316.378.046.034.12.02.201.11l-.127-.005c.172.172.183.072.328.22.063.067-.035.098.114.185.086.05.196.005.138.134.095.1.06.007.133.07.045.04.062.125.132.185.134.115.365.21.31.293.083.094.046-.002.122.083.104.112.326.43.422.418.058.123.35.403.327.28-.162-.14-.23-.315-.079-.16.245.258.212.19.317.168.015-.003.09.063.084.033s-.148-.198-.044-.145c.02.01.083.115.119.098.01.024.014.039.021.06.182.07.209.057-.04-.212l-.008.068c-.024-.056-.044-.107-.073-.168-.281-.283-.63-.725-.902-.954-.237-.201.067.11.072.119.04.087-.071 0-.085.019-.013.019.097.174-.012.053a2 2 0 0 1-.132-.24c-.002-.108.106-.014-.123-.267a22 22 0 0 0-.423-.436c-.103-.105-.216-.16-.277-.222-.06-.063.017-.025-.055-.1-.143-.146-.376-.33-.514-.457-.157-.146-.176-.216-.33-.355-.105-.097-.268-.204-.38-.32-.043-.01-.04.097-.117.02-.095-.09.074-.005.04-.066-.092-.097-.044-.008-.048-.01-.059-.032-.136-.113-.201-.16l.152.072c-.182-.126-.062-.094-.187-.217-.032-.033-.15-.057-.26-.172a7 7 0 0 0-.382-.376c-.04-.032-.122-.065-.137-.076-.054-.038-.026-.061-.072-.101-.343-.298-.764-.606-1.11-.872-.33-.254-.504-.386-.85-.636-.318-.23-.574-.474-.333-.088-.26-.15-.16-.145-.201-.226-.025-.05-.095-.068-.11-.083-.049-.052.064-.001.025-.041-.154-.165-.85-.551-1.004-.64-.71-.425-1.273-.747-1.98-1.066q-.666-.291-1.361-.5-.18.035-.357.075c.067.014.103.016.179.038s.262.07.301.112c-.078.002-.324-.067-.397-.087-.142-.04-.044-.04-.142-.072-.102-.033-.28-.038-.401-.077-.285-.09.264-.001.368.037-.02-.068-.284-.06-.37-.123a.7.7 0 0 1 .258.017c.056.025-.044.037.084.058l.277-.031c-.114-.042-.312-.072-.422-.098-1.183-.29-2.663-.274-3.716.674l-.01.009q-.19.17-.338.379c-.049.077.016.058-.05.132-.008.01-.017-.03-.09.076-.15.192-.34.682-.379.922-.314 2.11.604 3.84 1.415 5.487l-.046-.043.023.168c.075.167.142.314.216.474l.075.062c.14.263.295.544.437.795l.011-.127.113.206-.019.097.098.216.086-.1-.02-.157.002.002c.013.015.055.21.098.24l.018.009.07.119-.122-.083-.034.095.162.357.067.007.082.275.101.1v.07l.168.279.153.142.058.205q.33.5.671 1.006c.05.29.52.74.411.765q.277.438.555.869l.152.146.522.887.77 1.03-.163-.05.222.336.198.162.065.23c.213-.015.172.33.411.59-.038.238.332.322.314.59l-.012-.007-.017.03.079.084c.02-.047-.001-.075-.047-.105l.025-.05.119.182.186.414.07-.026.074.102a.02.02 0 0 0-.016.018c.093.177.176.155.093.02a.1.1 0 0 0-.04-.033l-.003-.073.107.132.23.5c-.017.003-.034.006-.044.019.024.07.138.26.233.418l-.001.002.053.082c.043.07.077.124.085.139a.4.4 0 0 0 .044.063l.095.149.007.015-.05-.017.24.38c.017.065-.006.095-.058.01-.133-.222-.13-.163-.245-.14-.016.002-.062-.054-.07-.028-.006.026.064.172-.017.127-.016-.008-.034-.1-.078-.083 0-.02.003-.034.004-.052-.152-.056-.184-.045-.05.186l.038-.06c0 .049-.002.093 0 .145.157.238.31.633.468.834.14.177-.015-.097-.015-.105 0-.076.07 0 .092-.016s-.015-.154.037-.046c.006.014.024.199.018.21-.05.095-.11.012-.007.234.036.078.157.304.202.392.05.095.132.147.159.205s-.029.02.004.088c.064.134.192.303.255.42.07.132.053.198.123.33.05.092.145.199.186.308.035.013.093-.078.123-.007.037.087-.073-.002-.076.053.03.09.037.012.04.013.037.033.062.109.096.155l-.102-.076c.1.123.005.084.049.2.011.03.106.06.14.172.01.028.09.29.129.367.017.032.072.072.08.083.025.039-.016.054.001.093.124.29.302.617.42.897.11.264.162.398.268.679.095.253.105.5.213.157.097.183.017.149-.015.216-.019.04.022.073.021.088-.003.048-.052-.018-.054.02m-10.1-23.797c-.063.058-.065-.016-.057.15.08-.14.063.08.107.09.024.004.023-.071.04-.09.026-.027.047.026.067-.01.02-.034.03-.16.045-.196.027-.072.067-.124.095-.176.027-.053.057-.14.077-.173a.2.2 0 0 1 .052-.06c.034-.018.045.023.078-.014-.023-.026-.01-.12-.077-.077.007-.01.012-.025.02-.032.039-.035.05.022.072.01.037-.016-.005-.025-.007-.027.011-.05.018-.01.04-.011a.4.4 0 0 0 .093-.052c.014-.012-.014-.013-.005-.021a.7.7 0 0 1 .122-.096c.044-.025.082-.01.061-.052-.003-.006-.03.003-.03-.017-.001-.007.024-.053-.034-.036a.2.2 0 0 0-.048.023l.025.005-.035.025.043.03c-.007.026-.034.018-.037.02-.037.034-.014.06-.062.047l.069-.075-.014-.02-.016.01-.001-.023a.6.6 0 0 0-.1.107l.053-.004c-.05.029-.013.026-.037.06-.03-.026-.042-.004-.064.019s-.009-.028-.035-.01c-.054.04-.092.153-.142.126-.025.087.04.014.054.02.055.026-.058.128-.097.13.003.03.025.047-.011.094-.05.065.013-.108-.048-.014-.04.066-.01.072-.02.109-.021.068-.078.188-.1.127-.008-.025.032-.07.026-.097-.004-.015-.088-.03-.003-.063.009-.003.02.045.044-.004.007-.014.008-.075.037-.108.012-.016.084-.06.101-.105.02-.05-.033.007-.031-.016.001-.025.042-.075.022-.092-.045.006-.013.043-.022.05-.033.03-.047-.03-.081.027.014.024.098.02.033.087-.001-.001-.002-.03-.023-.007a.8.8 0 0 0-.12.194c-.031-.023.008-.1.008-.152-.051.078-.106.176-.097.26q.026-.049.054-.096-.028.06-.05.119c.018-.008.088-.081.072-.014-.04-.012-.076.074-.106.1m.124.572c.033-.05.03-.125.04-.202-.035.01-.032.138-.04.202m.882-1.57c.03-.072-.154.018-.218.069l.049-.03-.007.045.055-.026-.044.067c.064.02.054-.01.118-.051.041-.026.063-.017.118-.04.257-.1.549-.132.873-.146.004-.042 0-.053-.06-.056l.002.037-.115-.01.11-.028h-.07c-.02 0-.025-.017-.053-.013-.061.009-.137.069-.197.065-.036-.002.01-.058-.075-.03.053.026.09.049-.042.06.073-.045.014-.022-.015-.032-.019-.007.095-.025.02-.03-.017-.004-.24.034-.224.062.03.056.04.043-.1.055.163-.082-.002-.073-.073-.024-.035.024.037.025-.052.057m1.098-.146c-.061 0-.073-.027-.12-.008-.004.002.032.03.06.032.028 0 .223-.003.231-.006.07-.046-.15-.02-.17-.018m.199.006c.08.008.152.017.23.029l-.004-.02a4 4 0 0 0-.226-.01m-2.25 1.994c.042-.02.05.063.051.089.002.1.044.163.007.207-.031-.062-.006-.106-.01-.136-.012-.066-.047-.064-.047-.16m.044.406c.012.029.032.014.043.054s.037.156.037.202c0 .045-.034.04-.04.077a5 5 0 0 1-.04-.333m.1.63c-.017-.062.01-.14.034.002 0 .006-.016.06.012.102.019.026.025.003.048.038.024.036-.018.133-.095-.142m.472 1.428c-.01-.03-.003-.07.005-.056.068.106.045.193-.005.056m-.112-.29c.011.06.026.125.037.18l-.059-.101zm-.118-.072c.024-.015.05-.013.09.053-.021.02-.055-.014-.09-.053m.401.877c.057.073-.022.156-.027.022 0-.012.023-.027.027-.022m-.14-4.672-.003-.004zm8.013 29.609c.074-.035.14.074.126.08-.074.028-.18-.055-.126-.08M12.6 38.629c-.09-.19-.013-.23-.009-.244.026-.077-.05-.09-.053-.106-.014-.078.082.008.086.018.059.168-.01.132-.025.152-.03.043.031.16 0 .18m.545-3.03.027-.02h-.005l.048-.045-.071.033zm1.075 6.73c-.112-.1-.251-.515-.102-.26.025.044-.002.027.011.055.014.029.174.279.091.206m-1.792-5.093c.027.034.02.093.019.158l-.03-.02zm7.656 27.772c.07.029.204.038.186.09l-.184-.024zm-.686-.303c.058.039-.022.047-.006.079.017.033.227.088.066.104-.05.005-.283-.131-.366-.116.008-.13.1-.003.223-.016.035-.005-.03-.091.083-.051M14.431 42.71l.071.168-.087-.157zm4.098 6.78-.012-.032-.054-.086-.04-.021zm-3.536-5.645c-.066-.083-.098-.222-.039-.165.07.07.147.3.039.165m-.26-.555c.121.198.143.37.015.098-.007-.015.011-.05-.015-.098m4.101 6.705c-.074-.056.079.273.148.354l.005-.11-.018-.04-.095-.157zm-2.053 13.7c.257.002.253.123.109.08-.018-.006-.123-.061-.109-.08m-4.039-24.502c-.014-.003-.058.082-.043-.047.005-.044.025-.04-.005-.153.025.105.07.078.078.088.058.085.031.2 0 .188-.01-.005-.016-.073-.03-.076m.596-3.777q.06-.033.124-.061l-.023-.02q-.053.038-.101.08m4.342 28.512c-.004.038-.226.088-.253.085-.175-.02-.218-.134-.379-.17.084-.061.16.044.265.045.032 0-.026-.116.114-.073.046.014.185.109.253.113m1.382-13.458c-.036-.034-.038.077.056.134q.005 0 .008-.005.002-.007.006-.005.034.035.064.074c.061.075.14.173.13.126l-.096-.16-.036-.023a.2.2 0 0 1-.05-.034.5.5 0 0 1-.073-.095l-.011-.015zM15.84 62.834c.029-.002.134.056.135.073s-.02.019-.04.02l-.04-.016.032.018c-.02.003-.032.009-.005.037l.303.163-.074.05-.045-.058-.073-.014c-.016.163.243.124.362.27l.046-.083c.282.115.083.05.027.107-.032.032.077.047.089.06.082.104-.223.01-.31-.041-.085-.05-.178-.167-.275-.225-.056-.034-.082-.011-.137-.044-.082-.05-.232-.134-.294-.196-.022-.022.034-.058.044-.06.027-.003.047.045.071.053s.022-.021.051-.007c.03.014.167.11.174.119.041.057-.062.033.016.073.2-.12-.116-.16-.145-.19-.066-.072-.043-.077-.007-.07a1 1 0 0 0 .116.045c.047-.021.016-.044-.03-.064-.002-.01-.001-.02.009-.02m-3.107-1.723c-.15-.108-.113.026-.088.044.104.078.245.052.225.182.062.05.023-.035.066-.013.086.046.134.153.225.204.02-.017.056-.027.066-.053-.075-.084-.455-.335-.494-.364m-.281-23.288q0 .115.005.236c-.015-.115-.017-.155-.06-.22zm1.672 4.46c-.01-.008-.102-.208-.083-.216.023.032.145.27.083.216m-.44 19.507c-.13-.103-.196-.05-.085.025.031.02.093.007.085-.025m10.81-.518c-.003-.02-.057-.32-.003-.3.04.16.076.33.103.49-.017-.007-.04-.05-.05-.071-.024-.055-.034-.038-.05-.12m-11.113.284c-.043-.016-.045.029-.108-.036l-.008.009c-.009.026.04.082.072.1.001 0 .007-.023.016-.02.065.04.15.123.182.064-.08-.005-.111-.1-.154-.117m-.91-23.188c-.021-.084.008-.138.036-.127l.021.168zM24.06 59.612l.044.076-.003-.054.04.063-.049.1zm-7.04 3.852c.087.005.01.092-.034.082s-.108-.072-.16-.05c.04.047.114.054.174.1.07.054-.04.06-.054.035-.028-.048.039-.062-.08-.082-.102-.017-.057.117-.13.085-.092-.04-.029-.075.02-.091l-.15-.111c.164.087.216.032.291-.032.077.029-.02.05.06.08.027.012.056-.016.063-.016m2.846 1.408c.15.043.13.11.011.043-.025-.015-.02-.03-.01-.043m-7.42-26.781q.013.066.029.132l-.018.006-.03-.132zm-.104-.896c-.005.059.02.163-.01.166l-.018-.162zm.001-.232-.021.128-.007-.127zm7.588 15.014c.005.02.054.084.1.142.03.039.058.075.07.097.038-.137-.174-.255-.17-.24m4.177 8.327c-.123-.356.116-.252.194.042-.035.032-.031-.048-.055-.047-.023.002.026.078-.026.052-.049-.125.018-.07-.001-.167-.019.025-.073.004-.09.022-.03.035.03.103-.022.098M15.01 62.46h-.003c-.056-.01-.122.079-.132.077-.114-.035-.111-.153-.03-.15.047.003.07.096.108.037-.08-.032-.102-.056-.104-.073zm-2.435-1.414c.013-.058-.132-.122-.188-.171.024.079.107.12.188.17m.07-22.092c.032.105.004.088-.003.109l-.024-.073zm-2.514 20.26c.023.019.032.068.017.064-.117-.03-.126-.147-.017-.064m5.22 3.494c.064.07.241.133.188.195-.164-.04-.095-.032-.135-.104-.027-.048-.122-.048-.053-.091m9.057-1.856.04.147-.057-.045zm-4.646-9.04c-.025.04.193.314.182.26-.081-.113-.065-.115-.046-.116.01 0 .02-.001.02-.014.004-.07-.135-.162-.156-.13m-7.357-13.593.04.088-.018.043-.022-.085zm2.286 24.058c-.155.005-.204.042-.173-.024.026.008.043.007.036-.007l-.025-.015.02-.038zm-3.379-2.283c.055.033.075.138-.036.043-.004-.004-.02-.074-.071-.073-.034 0-.028.029-.071.028s-.058-.14.178.002m.25.179c.09.068.174.134.262.203-.032-.005-.042.034-.08.02a.6.6 0 0 1-.171-.108c-.028-.036.006-.078-.011-.115m8.776-7.124c.024.048.076.155.082.122.002-.014-.016-.04-.032-.062-.018-.027-.035-.05-.013-.047q.121.121.19.278l.005.01q0 .003-.01-.004c-.017-.01-.047-.026-.046-.005l.015.017c.038.044.034.024.08.097q.007.008.028.045l.023.023.04.054a.4.4 0 0 0 .069.088c.005-.024-.047-.09-.09-.143a.4.4 0 0 1-.054-.073l.006-.02c.006-.017.014-.04.012-.053.005.005.012.02.02.036.017.033.036.072.046.059l.001-.002.002-.002c.015-.02.041-.054 0-.123a.02.02 0 0 0-.015-.012.1.1 0 0 1-.023-.02l-.03-.054a1 1 0 0 0-.042-.07.1.1 0 0 0-.02-.016.1.1 0 0 1-.03-.026.2.2 0 0 1-.017-.043.3.3 0 0 0-.052-.113c-.018-.023-.085-.045-.061.01.014.032.023.035.031.038q.004 0 .008.004l.005.006.027.047c.021.04.041.078.066.062.023.037-.006.05-.018.043a2 2 0 0 1-.268-.362l.006.002c.012.005.041.02.027-.058a.4.4 0 0 0-.076-.16h.015c.035.008.112.024-.04-.13-.01-.023 0-.024.008-.024.006 0 .01 0 .008-.01a1 1 0 0 0-.064-.12h-.03l.012.025c.023.046.07.138.053.143a.7.7 0 0 0-.173-.23c-.024-.018-.06-.046-.046-.08.003-.006.015.008.029.024.018.02.038.045.042.024a.5.5 0 0 1-.06-.136l-.003-.008c-.015-.01-.013.007-.01.022.002.01.003.02-.001.018-.004 0-.078-.067-.082-.071a1 1 0 0 1-.057-.088l-.043-.067a1 1 0 0 0-.046-.06l-.024-.031a.2.2 0 0 1-.016-.04.2.2 0 0 0-.023-.054.1.1 0 0 0-.025-.026l.005.028.007.04a1 1 0 0 0 .013.07l.016.009c.03.003.08.075.144.188.015.027.011.032.008.037q-.005.003 0 .014c.02.042.05.094.08.146.034.06.07.12.092.173-.01.004-.025-.024-.036-.047l-.014-.024c-.01-.01-.044-.003-.025.04.036.08.067.096.095.11a.1.1 0 0 1 .042.028c.09.094.166.255.075.204.074.083.071.088.067.097q-.005.003-.001.018c.026.092.04.108.063.136q.015.018.043.058zM12.186 60.6c-.02.073-.091.034-.116.016-.09-.067-.176-.054-.176-.14.077.002.089.069.118.083.065.03.099-.017.174.04m2.094 1.488c.008.013.059.03.133.076l-.049-.026c.003.018.019.037.04.054q-.11-.066-.125-.098zm0 0q-.005-.004 0-.01zm9.579-2.72.07.03-.054.077zm-4.215-7.771c.023.026.049.052.054.043a.4.4 0 0 1-.055-.11zm-.201-.28q.01.015.023.03v-.017q0-.034.008-.055l-.043-.064c-.023.004-.031.036.012.106m-20.71-2.248-.05.026c.012-.01.021-.03.032-.046zm8.28 7.55c.09.035.148.168.07.157-.093-.013-.216-.213-.07-.157m13.27 8.308c.095-.038.321-.007.145.02-.045.007-.099-.013-.145-.02m-9.911-5.55-.114-.134.105.032zm-2.202-1.77c.145-.002.398.323.171.189-.039-.023-.004-.032-.025-.05-.023-.02-.254-.137-.146-.14m1.586 1.27c-.086-.012-.025-.188.022-.053.005.012-.016.054-.022.053m-2.354-1.863c-.173-.11-.222-.29-.034-.1.01.012-.005.07.034.1m.451.37-.114-.121.13.095zm11.861-5.646a1 1 0 0 0-.069-.111l.002.018.002.023zm-5.71 10.136-.007-.001-.002-.002zm.088.009c.02.028-.02.01-.088-.01.01-.002.007-.03.019-.025zm-.293-.247.046.034c-.009.024-.027.046-.015.063a.04.04 0 0 0 .012.014.3.3 0 0 1-.096-.043c.03-.018.057-.038.053-.068m-3.27-2.33c-.02.042-.048.072-.12.055.015-.045.065-.05.12-.055m3.358 2.414c.006.023-.008.03-.032.029.01-.008.011-.04.013-.042l.013-.001zm-.438-.307c.016.013.027.028.024.04-.005.024-.042.01-.074-.01-.047-.042.017-.03.05-.03m.232.142.052.038c-.013.028-.04.027-.07.012a.06.06 0 0 1 .018-.05m14.262-17.938c-.05-.05-.108-.167-.15-.167.04.06-.08.015-.117-.048-.036-.06-.018-.061.032-.033-.159-.17-.322-.38-.473-.49.02.03.015.044.009.058-.052-.052-.096-.065-.15-.134.023-.004.05.008.077.022-.136-.13-.287-.345-.412-.402.1.102.178.176.105.197l-.114-.137c-.093-.037.012.11-.066.04-.058-.086-.1-.077-.155-.16.029-.037.077-.047.18-.023a30 30 0 0 0-.68-.721c.052.098.152.172.188.215.032.038.009.05.034.085-.004-.007.108.073.069.08l-.124-.074c-.105-.096-.022-.082-.104-.165-.063-.02-.291-.226-.187-.214.045.047.1.137.13.102-.071-.086-.13-.108-.205-.21-.056-.021.01.087-.072.01-.031-.035.01-.03-.012-.06-.124-.002-.278-.162-.427-.293.055.092.09.225.206.298-.042-.002-.004.04-.007.06.087.06.246.275.223.207-.008-.023-.083-.081-.052-.082.11.067.195.284.021.117l.117.132c.098.015.003-.085.055-.098a.36.36 0 0 1 .121.163c-.125-.13-.017-.007-.117-.043.139.118.16.218.295.317a.5.5 0 0 1-.1-.256c.07.052.15.197.112.225.06.062.137.11.097.136a1 1 0 0 0-.105-.075c.183.263.441.497.749.893.056.046.109.075.165.13.047.1.188.202.235.243s.105.117.128.136c.15.12.278.138.411.2l.002.003c-.016-.086.07-.107.067-.184m-14.73 17.682c-.064-.037-.147-.217-.013-.065l.04-.025h.003zm-.084-.07-.002-.004.007.004zm-.558-.472c.044.022.098.04.12.083l-.095.023a.24.24 0 0 0-.053-.083zm4.554-12.927c.068.044.204.245.085.125-.03-.03-.059-.085-.085-.125m-5.659 12.118a.2.2 0 0 1-.091.04c-.138-.06-.089-.111-.07-.147l.055.04v.004c.01.03.03.035.049.03zm3.594 2.485.074.048c-.01.01-.041 0-.099-.048zm1.352.768h-.05l-.013-.095.049.025zm-1.93-1.117c.03.014.047.032.065.053l-.087-.061zm7.218-6.918.05.115-.05-.024zM8.288 57.56c.011 0 .16.13.14.159-.034-.013-.222-.157-.14-.16m-1.466-1.335c-.03.016-.09.088-.134.067-.07-.033-.1-.11-.038-.118.018-.002.145.07.172.05m9.294 6.797c0-.01-.038-.03-.041-.037l.044.018zm-.381-17.396.054.089-.027-.042zm.105.296c.002-.015.039.012-.005-.05l-.037-.03a2 2 0 0 0-.065-.132l.09.062c.089.146.148.244.192.32a2 2 0 0 1-.164-.25c-.03.033.101.16.101.226a1 1 0 0 1-.069-.073l-.025-.042zm-.438-.774-.131-.248q.016.024.036.043c.005.005.007 0 .008-.006l.029.046.125.208zm3.724-8.662-.053-.056.06.029zM16.87 47.482c.09.145.062.18-.002.04-.013-.03-.006-.036.002-.04m-1.946-3.198.055.092h-.001zm-9.289 11.02c.063.02.117.103.06.097-.055-.006-.138-.122-.06-.097m9.678 7.024c.012.027.036.119.018.14-.029.035-.118.023-.159-.027.005-.013.005-.026-.013-.04.01-.026.04-.056-.054-.078l-.037.002a1 1 0 0 0-.165-.11c0-.02.004-.036.024-.05.034-.02.124.058.17.078.02.008.046-.012.05-.01.047.017.046.05.085.078.019.013.069-.01.081.017m6.135-7.486.093.197-.055-.077.024.06-.049-.064zM7.721 57.05l.062.027-.034.034-.07-.12.056.01zm3.12 2.375.008.007c-.02.01-.032.03-.038.03-.09-.008-.118-.118-.098-.164q.027.03.078.072l.034-.054c.005.037.008.07.016.109m-2.454-2.136q.147.121.292.246c-.052.049.018.135-.03.176-.027.023-.114-.066-.157-.09-.019-.01-.04.013-.043.01-.044-.02-.047-.06-.082-.09-.017-.014-.058.012-.07-.02-.013-.03-.04-.134-.026-.16.025-.043.12-.02.15.057.015.037-.05.078.056.11.014.005.106-.018.144.017-.022-.075-.183-.201-.258-.245q.008-.013.024-.011m8.714 6.027c.082.022.116.088.045.1-.021.004-.17-.048-.2-.03.035-.015.104-.085.155-.07m-5.63-3.426q.024.02.011.038l-.033-.031q.015-.011.023-.007m6.797 4.069c.064-.005.166.08.075.073-.073-.005-.14-.068-.075-.073m-4.4-2.418c.087.025.11.008.182.075-.055-.007-.168-.018-.182-.075m6.61-8.164-.024-.06q.03.04.059.085l-.023-.03zm-7.777 7.298c-.02.03-.048.092-.067-.013l-.001-.03c.015.01.042.046.068.043m-1.822-1.28a.2.2 0 0 0 .056.057q-.038-.033-.065-.027l-.013-.007zm5.104 3.383-.061-.007.018-.044-.069-.02.042-.03zm3.941-10.157.077.119c.042.065.2.322.235.36.104.113.114.053.123.187.044.078.03-.001.057.027.005.005.014.04.026.076l-.014.006a79 79 0 0 0-.57-.703zm-8.393 7.152c.023.04.018.088-.006.108l-.056-.054c.015 0 .03.002.036-.004.021-.016-.03-.103.026-.05M15.25 34.69q.076.01.165.03l-.025.017-.078-.021-.004.038-.11-.002-.093-.072h.04zm-3.388 25.42-.064-.044.015-.015.026.005.037.025zm-4.87-3.967c-.055-.006-.089.032-.13.074-.065-.04.018-.055-.05-.097-.023-.015-.049.015-.055.014-.073-.014-.006-.105.031-.09.037.016.09.09.137.07-.036-.057-.098-.07-.148-.127q-.02-.026-.02-.038l.07.058c0 .014.006.024.046.038zm6.782-21.42q.056 0 .114-.005l-.022.036-.06.017a.05.05 0 0 0-.01-.028.1.1 0 0 0-.022-.02M9.476 58.32c.05.005.15.013.17.078-.08-.025-.098-.004-.17-.078m2.538 1.803q-.009 0-.013.007c-.015.023.054.12-.02.053l-.026-.05a.06.06 0 0 1 .034-.035zm-.167-23.288a.5.5 0 0 0 .069-.093q.014.056.032.11l.015-.01v.006a.3.3 0 0 0-.03.065c-.029-.092-.063.068-.083.158l-.011-.168zm4.61-1.86.018.048-.161-.07-.068.013-.056-.057h-.155l-.03-.07.024.01c.033.012.2.059.334.094zm-2.394 8.085.02.032-.008-.006zm-2.095-6.433.009.037-.001.01-.017-.025zM8.974 57.763l.171.138c.003.052-.066-.003-.125-.05q.052.022.103.04l-.13-.101-.017.028a.1.1 0 0 0-.029-.017c-.035-.007-.074.066-.12-.016-.017-.031.037-.036.071-.015-.09-.122-.05-.118.021-.073zm-4.817-3.97c-.084.008-.254-.118-.107-.076.037.01.073.05.107.076M7.35 56.6l-.043-.032-.014-.08.044.003zm.559.294c-.017.006-.066-.02-.088-.025-.037-.008.008.062-.017.064-.026 0-.122-.071-.124-.091-.004-.044.097.005.043-.066l-.267-.198q.016-.015.033-.028zm8.001-22.138c.098.018.024.049.095.083l-.185-.012.056-.023-.043-.044a.14.14 0 0 1 .077-.004m-4.221 25.158-.032-.007-.026-.017.022-.023.045.028zm10.389 4.746c.072.02.127.04-.118.08l-.002-.005c.084-.014.142-.04.12-.075m-7.381-20.347a.2.2 0 0 1-.016-.037l.034.065a.5.5 0 0 1 .087.117 1 1 0 0 1-.105-.145m-3.861 14.944-.009.003v-.012q.003 0 .009.009m6.243-24.054.002-.001.018.006zm-1.75 27.092h-.002a.4.4 0 0 1-.074-.048zm3.098-26.48-.017-.016.043.022zm-1.639 27.253a.2.2 0 0 1-.053-.004.17.17 0 0 1-.106-.072q.083.037.159.076m1.045-27.56-.009-.01.055.024zm-11.36 20.2q-.02.005-.06-.017c-.039-.022-.157-.15-.217-.165 0-.01.014-.02.033-.027zM16.598 34.88c.027.037.04.07.065.103l-.17-.057-.003.018q-.01-.012-.003-.02c.01-.007.024-.08.111-.044m4.832 20.413.007.037-.029-.045zm2.655 7.277-.002.015-.003-.002zm-16.82-6.192c-.15-.092-.145-.096-.107-.097l.11.09zm-1.255-1.07a.8.8 0 0 1-.182-.122c-.053-.046-.024-.047-.03-.068q.105.096.212.19m-1.247-1.21q.09.099.185.198a.1.1 0 0 0-.047-.018c-.029-.004.008.105-.076.034-.04-.057.027-.045.02-.084-.007-.032-.109-.112-.082-.13m15.092-1.4.038.133-.072-.095zm-8.032-15.594.007.017q-.003 0-.007-.013zM4.476 53.99c-.114-.097-.082-.164 0-.05.018.025.01.038 0 .05m1.254 1.066c-.047-.03-.106-.06-.137-.101q-.03-.04-.024-.048zM3.602 53.08q.002.03-.019.032c-.042-.001-.06-.06-.063-.102zM18.96 35.836c.14.047.304.205.193.18-.132-.027-.42-.257-.193-.18m9.73 8.349c-.095-.144-.608-.698-.66-.753-.204-.222-.137-.04-.103-.002.142.158.312.216.306.358.083.098.024-.027.08.028.111.108.19.272.303.388.024-.006.065.005.074-.02m-4.414-4.402c.037.032.065.094.044.083-.161-.09-.214-.232-.044-.083m5 5.082c-.167-.213-.243-.195-.102-.03.04.046.114.072.102.03m-.393-.484c-.053-.048-.05.005-.134-.113h-.005c-.02.015.05.124.094.17.002.002.006-.023.017-.011.081.086.193.243.227.196-.099-.063-.145-.195-.199-.242m-9.169-8.047c-.29-.154-.46-.358-.1-.116.02.013.033.076.1.116m1.338.85c.19.035.683.49.32.267-.064-.038-.022-.04-.06-.066-.037-.028-.401-.23-.26-.201m-.534-.337-.217-.166.223.138zm5.499 4.434c.077.067.13.203-.034.033-.007-.008-.045-.098-.11-.125-.043-.016-.027.02-.083-.003-.054-.024-.11-.196.227.095m1.805 1.974c.006-.061-.184-.225-.262-.316.045.108.152.203.262.316m-1.069-1.242c-.041-.024-.044.017-.096-.022a2 2 0 0 1-.24-.222c-.045-.06-.01-.09-.04-.143q.189.19.376.387m-2.117-1.936-.188-.21.144.085zm-.966-.86c-.116-.05-.104-.233.01-.054.01.018-.001.059-.01.055m3.588 3.274c-.01.075-.109-.014-.144-.05-.125-.133-.232-.166-.251-.27.097.047.127.134.167.169.088.074.12.035.228.15m-8.818-7.1c-.03.016-.058.089-.13.064-.117-.04-.21-.122-.134-.128.023-.002.241.083.264.065m6.373 4.68c-.012.04-.038.064-.134.01.004-.046.065-.03.134-.01m-8.692-5.54c.1.003.244.07.165.075s-.288-.08-.165-.075m12.33 8.903c-.06-.162.046-.086-.196-.25.163.274-.148.008-.182.063-.019.03.09.115.11.16.03.073-.06.044-.017.116.044.072.247.237.307.304.114.126.2.25.293.357s.256.24.319.306.118.138.125.152c.045.084-.023.082.057.175.038-.03.202.04.103-.12.018.02.046.037.062.057.073.093-.015.095.013.145.048.086.041-.003.044-.003.088.039.026.04.038.085.006.024.105.174.132.204.025.027.012-.03.029-.01.075.078.152.159.218.246.065.087.072.167.117.117.006-.008-.025-.062.004-.065.01 0 .092.04.03-.07a1 1 0 0 0-.064-.094l.009.052-.059-.066a1 1 0 0 1-.018.087c-.043-.011-.047-.068-.051-.073-.073-.07-.099-.027-.106-.122q.076.069.151.134l.021-.03-.026-.03a.2.2 0 0 0 .034-.004 2 2 0 0 0-.21-.192l.032.104c-.07-.1-.045-.025-.11-.076.025-.06-.014-.084-.061-.133-.048-.05.04-.012-.003-.07-.086-.114-.29-.247-.26-.337-.156-.1-.012.075-.017.1-.022.105-.25-.208-.256-.285-.053-.018-.079.01-.165-.1-.118-.152.188.117.02-.08-.112-.133-.123-.084-.186-.14-.12-.104-.3-.33-.194-.3.042.01.106.125.153.14.026.01.063-.126.104.055.004.018-.078-.008.003.082.023.026.125.08.183.163.026.036.108.209.195.277.093.073-.02-.071.022-.052.042.02.138.13.16.097-.023-.093-.075-.048-.09-.07-.058-.085.04-.075-.06-.177-.04.012-.018.18-.142.005 0-.002.05.018.01-.038q-.15-.2-.317-.382c.042-.033.16.102.245.14-.125-.152-.265-.33-.396-.395l.137.183-.173-.2c.006.04.104.23 0 .136.03-.053-.092-.201-.121-.278m-4.657 19.364-.01-.008q.025-.13.032-.263-.005.135-.021.27m6.216-17.163c-.035-.032-.074-.07-.11-.105-.002.057.037.095.105.139 0-.012.005-.021.005-.034m-8.827-8.47c.015.002.276.196.265.225-.05-.026-.37-.245-.265-.225m9.156 8.868a14 14 0 0 0-.23-.27c.013.086.258.34.23.27m-16.532-2.58a1 1 0 0 1-.036-.092q.028.036.052.073zm6.354-7.01.096.04-.026.033q-.078-.075-.16-.15l.08.023zm-9.654 22.084c.032.033.08.076.133.12l-.135-.063-.038-.083zm11.969-.248c.088.007.076-.134.04-.241l.04.03.01.02-.008.133.138.16.04.094-.047.098.086.125c-.055-.052-.144-.14-.133-.22.005-.04.102-.021.003-.15-.072-.093-.081.045-.169-.05m3.325-17.44c.255.16.226.293.236.318.05.13.134.069.153.088.092.09-.084.074-.098.064-.22-.166-.118-.188-.124-.23-.013-.09-.178-.18-.167-.24m-3.485 16.949.037-.085.06.156c-.032-.03-.056-.024-.084-.043zm-.784-20.836c.159.079.239.24.142.213-.057-.016-.15-.15-.153-.08.227.129.178.158.17.163-.056.038.086.165.043.2-.025.018-.182-.112-.251-.152-.03-.017-.046.003-.052 0-.068-.037-.09-.084-.154-.13-.029-.02-.07-.002-.102-.041-.032-.04-.122-.168-.117-.193.01-.045.148.008.228.105.039.048-.027.077.13.145.02.01.131.01.199.063-.066-.095-.345-.29-.467-.36.011-.047.197.102.284.137.073.03.086-.076.1-.07m2.19 24.589-.009.01c-.028-.006-.064-.015-.078-.082q.044.034.087.072m-.876-2.71-.012-.046.044.065zm-10.218-24.1c-.054.093-.323.343-.177.148.038-.05.118-.104.177-.148m-.315 25.124-.021-.014-.005-.01zm10.914.037c-.023.024-.073-.187-.081-.235-.003-.02.005-.04.01-.06l.014.007.085.265a.1.1 0 0 0-.028.023m7.158-14.035c.12.026-.146-.29-.257-.404l.074.087-.066-.002.075.1c-.043-.025-.084-.045-.126-.07.018.135.054.107.161.22.07.076.077.124.154.223.357.459.694.95 1.059 1.437.045-.04.049-.06-.01-.156l-.034.045-.112-.19.143.14-.072-.108c-.022-.033-.01-.058-.043-.1-.074-.09-.211-.15-.271-.262-.035-.064.073-.033-.044-.156.025.114.036.2-.108-.023.124.092.039.008.021-.051-.01-.038.121.143.054.01-.013-.03-.27-.405-.288-.36-.04.093-.018.104-.16-.156.251.26.09-.041-.031-.15-.062-.056-.001.084-.119-.074m-10.673 7.399c-.047-.062-.07-.147-.101-.224l.06.047-.002.099.067.083c-.006.008-.012.01-.024-.005m5.438-13.044c.016-.01-.016-.167.084.024.035.066.011.08.144.206-.121-.12-.14-.04-.157-.047-.134-.062-.208-.244-.166-.258.012-.004.079.085.095.075m-1.837 19.85.003.01-.004-.008zm-3.467-6.597c-.052-.052-.093-.095-.075-.16l.124.154zm-1.353-18.344c.15.066.1.1.05.11q.143.083.282.169c-.278-.143-.3-.082-.34-.016-.115-.047-.015-.058-.135-.108-.042-.017-.055.014-.064.012-.106-.018-.083-.112-.022-.094.06.018.185.102.231.082-.088-.064-.18-.08-.288-.144-.127-.074 0-.067.036-.036.072.062.004.07.161.11.135.035-.03-.136.089-.085m13.33 12.784c.115.04-.145-.237-.168-.266-.066-.087-.052-.137-.12-.186-.007-.004.005.084.034.128.028.04.244.32.254.324m-12.472 4.88c.036.039.053-.007.093.092q.003 0 .006-.002c.026-.014-.005-.106-.031-.145-.001-.001-.016.022-.023.012-.05-.072-.105-.203-.158-.16.078.049.076.164.113.203m2.354 3.923c-.01-.006-.01-.013.019-.032l.028.038zm5.699-14.238c-.062-.008-.12-.086-.196-.17l.049-.01zm-8.01-6.605-.077-.042-.072-.092.061.01q.045.06.088.124m12.47 12.063.224.34.011-.031zM19.272 35.477c.142.078.349.25.5.34.09.056.102.03.194.087.137.082.386.232.5.326.043.035.005.07-.007.07-.03-.003-.088-.07-.122-.086s-.01.023-.054-.002a8 8 0 0 1-.303-.2c-.093-.084.05-.03-.076-.1-.146.114.264.237.323.287.216.18.018.07-.037.053-.055-.016.047.074.015.07a1 1 0 0 1-.221-.13c-.032-.05.133.026.019-.066a23 23 0 0 0-.476-.27l.05-.05.095.082.095.032c-.1-.205-.38-.208-.637-.415l.009.095c-.432-.197-.14-.078-.117-.14.012-.035-.13-.072-.156-.093-.185-.143.265.028.406.11m2.816 2.115c-.393-.384.354.168.384.232.06.115-.255-.16-.305-.18s-.066.053-.165-.058c-.038-.042.03-.031.086.006m1.003.857c.067.025.2.073.252.158-.113-.06-.128-.044-.252-.158m8.357 8.836.002.004.001-.001zM23.316 60.31l.038.115-.003.002-.05-.134zm-8.99-26.323c.151.096-.152.038-.287.104-.039.02.145.045-.047.07-.12.005-.027-.04-.087-.051-.06-.016-.41.08-.217-.023.06-.038.525-.064.638-.1m-1.15.383c-.245.108-.31.078-.07-.005.053-.016.063-.006.07.005m1.805 26.982c-.154-.082-1.158-.94-.999-.568v.005c-.152-.034-.28-.471-.568-.375l-.02.005a.4.4 0 0 1-.07-.057c-.05-.045-.113-.102-.137-.097.017.024.051.05.083.074l.052.04a.2.2 0 0 1 .036.048.2.2 0 0 0 .069.073c.105.07.077.013.064-.012l-.004-.01.01.005a.8.8 0 0 1 .267.199c.003.02-.02.004-.046-.016-.022-.016-.047-.035-.061-.034-.033.005.072.06.12.086l.02.01q.03.022.056.046c.027.024.043.038.132.067q.015.003.019 0c.008-.005.014-.008.093.067-.048-.091.11-.012.201.08.014.014.02.027.027.042.014.028.028.058.107.095.042.02.05-.015.04-.025l-.024-.014c-.022-.01-.05-.025-.045-.035.05.023.11.058.168.092.05.03.103.06.145.08q.01.005.014 0c.028-.018.221.12.225.153l.008.015q.036.009.07.013l.039.006.027.005c-.04-.047-.067-.034-.118-.063m11.746-19.607-.236-.292c.122.127.164.177.268.212zm-8.786-6.924c-.05.064-.236-.071-.367-.082-.04-.003.132.138-.082.073-.066-.02-.34-.148-.432-.157-.03-.043.215-.081.254-.075.252.042.395.178.627.24m12 10.469.002.003.003-.01zm-6.468 16.086c-.048-.093-.016-.257.04-.192.07.082.038.344-.04.192M11.435 36.15c-.007-.097.127-.298.13-.23.002.098-.128.247-.13.23m14.73 4.9c.101.09.13.194.092.209l-.184-.204zM19.423 53.6c-.005.14-.081.077.095.212-.052-.235.152-.012.209-.061.032-.028-.044-.1-.044-.14-.001-.062.078-.04.063-.102s-.156-.203-.19-.26c-.066-.107-.103-.212-.157-.3-.054-.087-.17-.198-.21-.252a.6.6 0 0 1-.07-.125c-.015-.07.054-.074.006-.15-.05.03-.193-.02-.148.113-.012-.015-.034-.028-.043-.044-.042-.078.049-.086.038-.13-.019-.071-.043.007-.047.008-.075-.028-.012-.033-.008-.073a.7.7 0 0 0-.064-.17c-.017-.023-.023.025-.034.01-.05-.062-.101-.126-.138-.196s-.018-.141-.08-.092c-.01.008.004.052-.027.057-.01.002-.082-.024-.055.067q.012.038.034.075l.009-.045.037.053a1 1 0 0 1 .05-.078c.039.005.024.055.026.058.05.055.092.015.066.098l-.108-.104-.033.028.017.025-.037.007q.068.083.15.149 0-.045.003-.088c.036.08.037.017.085.057-.045.054-.014.073.017.113.032.04-.044.015-.02.062.047.095.208.197.144.28.121.075.039-.068.053-.09.062-.095.177.163.154.233.047.012.085-.016.13.078.062.128-.146-.092-.05.073.063.11.092.065.135.11.08.085.174.279.078.258-.038-.01-.058-.107-.1-.118-.023-.006-.113.115-.083-.042.003-.015.075.002.029-.072-.014-.022-.096-.064-.123-.133-.012-.03-.033-.18-.095-.232-.066-.057-.005.06-.041.047-.036-.014-.092-.105-.127-.073-.011.08.058.037.066.055.027.07-.07.069-.005.15.044-.011.085-.161.146-.013 0 .003-.044-.013-.024.035.034.083.115.23.173.317-.056.033-.122-.08-.193-.108.068.126.139.274.245.327l-.067-.155.096.168c.01-.036-.013-.198.054-.121-.052.049.015.177.013.244m.797.798c.043-.067.102.01.12.044.068.118.159.15.131.24-.076-.042-.066-.12-.09-.15-.056-.066-.105-.032-.161-.134m9.73-9.144.045.052-.002-.01.094.087-.09-.135zM23.01 59.67c-.117-.076-.207-.48-.112-.36l.042.106c-.004.006-.006.01-.002.024.014.033.172.295.072.23m.38 1.067c.08.21.018.42-.028.113-.003-.016.045-.06.028-.113m-.203-.657.041.197-.07-.18zm-1.588-3.46.023.07h-.002l.005.009.04.122q-.044-.044-.092-.087.014-.056.026-.113m-8.864-22.097c-.114.058-.266.195-.316.175q.11-.098.229-.183zm8.147 20.96c-.043-.063-.029-.185.05-.028.003.008-.004.089.047.115q.016.008.028.003l.006.056a.5.5 0 0 1-.131-.146m4.279-15.532c.072.113.16.197.287.299l.018.194c-.188-.17-.006-.098-.175-.24-.007-.035.078.057.07.034-.042-.115-.199-.158-.288-.282zm-6.725 11.49q.074.11.15.213c.013-.077-.156-.271-.15-.213m2.885 4.692c-.186.002-.248-.201-.161-.245l.085.147zm5.148-14.738-.162-.148.01-.027.163.148zm-4.445 16.07c.08.062-.042.215-.04.046 0-.016.034-.051.04-.046m-1.328-2.295-.19-.344c.015.01.028.006.04.004q.06.105.118.21l.053.064c-.01.02-.023.04-.02.066m.728 1.445c.034-.035.072-.052.135.003-.029.04-.08.02-.135-.003m6.098-14.208c-.066-.077-.201-.17-.18-.211l.196.17zm-3.306-3.27c.095.072.3.357.056.096l-.03.028zm2.16 2.046-.123-.076-.052-.156zm1.43 1.5-.146-.18.162.14zM20.509 36.3c.22.09.134.064.232.17.067.07.177.09.13.134-.127-.112-.379-.234-.362-.304m2.7 2.048c-.089-.142.387.182.337.293-.082-.074-.295-.226-.337-.293m.15 23.495c.032.01.125-.004.142.047.027.082-.012.164-.059.123-.013-.013-.049-.165-.083-.17M18.33 51.608c-.116-.01.055.237.13.33l-.046-.07.066-.006-.044-.081.107.049c.027-.118-.02-.09-.093-.18-.047-.056-.039-.098-.087-.176-.224-.366-.433-.76-.684-1.12-.058.043-.067.062-.03.136l.047-.046q.034.075.065.149l-.11-.1q.015.034.044.084c.014.025-.006.048.018.078.05.065.18.103.21.192.017.05-.086.04 0 .13.007-.096.02-.17.106.006-.103-.063-.038-.001-.038.049 0 .03-.084-.11-.053-.001.007.023.157.318.19.278.07-.088.052-.095.117.12-.179-.2-.104.047-.015.128.046.042.03-.074.1.05m4.551 8.04c-.01-.006-.09-.228-.06-.247.028.034.136.294.06.247m.956-20.804c-.016-.057.155.084.168.107.052.092-.15-.05-.168-.107M18.2 34.928c.026.009.195.088.193.11-.304-.034-.413-.184-.193-.11m2.672 20.957c-.17-.15-.076-.265-.073-.288.014-.116-.098-.066-.108-.084-.046-.083.12-.062.128-.052.136.157.024.17.01.207-.033.08.083.167.043.217m2.307 7.402c.006-.06.07-.123.08-.072.01.053-.089.148-.08.072m-5.77-13.27c-.11-.011.093.178.11.2.049.067.02.114.08.145.006.003.017-.072-.003-.107a2 2 0 0 0-.187-.237m-1.931 11.599c.103.06.133-.03-.012-.022h-.017zm7.658-1.115-.04-.066.047-.011q0 .08-.003.16l-.041-.045zm-5.763-10.495-.16-.256-.02.03zm5.046 9.7c-.075-.1-.026-.243.038-.197.038.028.017.154.072.102-.098-.158-.037-.167-.026-.168.077-.015.047-.147.11-.162.035-.01.077.132.107.183.013.02.04.01.044.014.032.048.017.09.035.142.01.025.058.023.056.062-.002.038-.026.16-.05.176-.043.029-.117-.05-.111-.145.003-.046.082-.048-.001-.145-.011-.013-.106-.044-.126-.102-.012.09.08.313.125.399-.045.03-.086-.133-.134-.183-.04-.042-.131.032-.139.024m-1.247-3.243c-.02.007-.076.144-.069-.025.003-.058.033-.07-.028-.184.053.11.114.042.126.05.096.06.07.223.022.232-.014.002-.031-.08-.051-.073m-3.521-5.97-.002-.003q0 .002.002.003m2.409 3.93c.058.007.082.075.12.15l-.053.008zm-1.46-2.366-.002-.001-.005.008zm2.813 11.808c-.056.06-.282.058-.134.005.037-.014.093-.004.134-.005m1.629-1.948c-.019-.097.044-.087.085-.066.002-.067 0-.142-.002-.204.03.187.1.18.194.175.02.08-.05.03-.033.113.006.029.045.025.049.03.04.065-.073.082-.087.044s.002-.133-.047-.15c-.014.07.02.123.012.2-.01.089-.07.02-.058-.008.027-.056.074-.024.027-.12-.041-.08-.126.063-.14-.014m-2.634-6.856.093.258c-.059-.112-.077-.157-.163-.188zm-1.829-2.971-.027-.042-.002.01-.066-.068.046.11zm4.614 9.069.016.058-.037.082-.033-.033q.028-.052.054-.107m-1.107-2.96c-.045-.031-.136-.091-.131-.17.066.069.091.058.131.17m-1.462-2.52c-.054-.081-.033-.173.012-.185l.081.187zm1.788 3.407c.07.38-.189-.208-.179-.265.026-.104.118.18.146.206.03.026.097-.026.104.083.003.04-.048.016-.071-.024m.502 2.329c-.019-.097-.003-.278-.033-.392-.016-.065-.047-.054-.065-.12-.027-.098-.086-.274-.098-.38-.005-.037.056-.047.064-.042.021.012.01.078.023.1s.029-.011.042.02c.013.035.057.219.056.233-.006.084-.063-.001-.033.086.212-.011.014-.238.009-.29-.015-.194.047-.05.075-.02s.026-.064.048-.05c.023.015.067.144.058.164-.021.042-.08-.066-.073.033.039.117.072.219.107.348l-.082.006.006-.09-.04-.054c-.115.153.088.28.06.495l.086-.05c.092.29.016.1-.06.119-.043.01.012.09.008.11-.029.14-.137-.126-.158-.226m-2.419-6.046q.044.064.087.133l-.023.023-.087-.133zm.532 1.313a.5.5 0 0 0-.114-.275l.085-.167c.092.156-.045.084.04.216-.011.03-.043-.054-.047-.034-.023.1.105.147.124.263q-.043 0-.088-.003m1.992 5.582c.095.012.033.137.073.208.012.023.1-.09.115.039.005.043-.041.19-.027.24-.039.01-.159-.122-.167-.14-.044-.12.048-.214.006-.347m-.713 1.27c.102.093-.047.06-.09.127-.014.022.082.054-.005.08-.06-.001-.022-.047-.054-.065-.03-.016-.194.03-.11-.054.029-.024.232-.026.26-.09m-.523.264c-.144.01-.169-.062-.034-.036.028.005.032.02.034.036m-1.864-9.322c.032.067.126.148.086.185l-.12-.15zm-.161-.24.066.156-.1-.12zm.725 1.32.084.072-.025.138zm.98 1.908c-.046-.07-.073-.33.005-.086l.045-.02zm.068 6.27c-.075-.01-.178.008-.19-.05.052-.003.1-.01.153-.015zm.385-5.473c-.01.13-.238-.208-.125-.292.03.073.13.23.125.292m-.274-.503c-.02.05-.094-.092-.093-.114.005-.084.112.064.093.114m1.103 2.705c-.101-.137-.054-.092-.047-.195.005-.066-.067-.112.007-.128.01.107.113.283.04.323m.259 1.657c-.004-.014-.012-.12.011-.126.133.165.02.246-.011.126m53.22 25.652c.012.11-.053.264-.057.393-.015.54-.06.74-.085 1.23-.038.724.047 2.875-.403 2.875l-.014-.001c-.086-.007-.18-.19-.276-.218s-.724-.006-.76-.266c-.046-.377.115-1.28.108-1.481-.005-.138-.062-.307-.073-.483-.032-.566.01-.862-.145-1.372l.245-.613c-.038-.266.07-.67.063-.831-.005-.133-.069-.21-.072-.35-.004-.154.066-.392.055-.675-.017-.462-.185-.544-.206-.822-.022-.288.07-.736.01-1.103l-.056-.138-.125.099c-.02-.185.066-.265.068-.434.002-.2-.08-.303-.08-.437.001-.11.066-.26.062-.403-.005-.208-.1-.163-.117-.275a46 46 0 0 1-.06-.92c-.004-.354.125-.384.137-.668.03-.784-.074-1.59-.113-2.317a9 9 0 0 1 .01-.985c.33.509.587-.618.07-.197.074-.36-.065-.615-.042-.956.016-.22.087-.373.085-.688-.003-.558-.207-1.17.161-1.33-.065-.656.069-1.225-.256-1.461-.02-.17.173-.603.2-.793a48 48 0 0 0 .117-1.781c.004-.225.01-.62-.019-.81-.035-.238-.372-.404.022-.828-.032-.494-.02-.67.025-1.128.009-.083.067-.093.067-.141 0-.1-.043-.27-.049-.45-.008-.292.115-.46-.073-.427l-.094-.58.108-.204-.118-.31c.272.12.111-.607-.045-.37l.169-1.126c.309.053.036-.823-.132-.75v-.128c.082-.376.015-.72.07-1.18.055-.457.086-.414.228-.553l-.025-.323c-.39-.566.285-.466-.014-1.434.245-.31.117-1.072.042-1.577-.008-.06-.056-.06-.07-.14-.036-.19.025-.68-.128-.662l.133-.508-.083-.415-.144.002c.163-.278.1-.716.14-.932.007-.043.073-.052.091-.186.022-.156.002-.447.023-.633l-.22-.216c-.04-.333.154-.45.169-.645.002-.035-.011-.677-.016-.711-.032-.283-.197-.203-.162-1.022.007-.145.064-.263.066-.395.004-.233-.125-.934-.244-.99.15-.281.088-1.036.131-1.26.013-.066.109-.081.129-.287.016-.168-.06-.598-.047-.81.014-.226.094-.306.1-.407.005-.096-.06-.183-.06-.313.003-.406.106-.773.108-1.094.003-.463-.187-.873-.272-1.26.012-.097.053-.191.053-.292.007-1.25.042-2.657.083-3.91.018-.58.277-2.027-.155-1.64-.076-.203.099-1.672.101-1.951s-.075-.501-.076-.72c-.003-.663.053-1.13-.015-1.936-.017-.21-.11-.432-.108-.555.001-.15.09-.31.096-.501.013-.46-.017-1.314-.001-1.754.003-.08.08-.11.105-.224.095-.448.087-.95-.162-.86.141-.574.012-1.105.005-1.637-.017-1.124.042-3.172-.063-4.151-.066-.618-.178-.602-.081-1.512.021-.201.05-.402.075-.647.06-.574.267-1.1.018-1.538.064-.637.019-1.145.231-1.617l-.153-.168-.003-.234.145-.073c.014-.56-.186-1.27-.185-1.744.002-.794.08-2.84.146-3.593.035-.4-.07-.422.145-.65l-.045-.27-.14-.167c-.003-.513.07-1.122.07-1.61-.002-.891-.131-2.23-.046-3.123.021-.224.118-.505.116-.724-.001-.32-.161-.398-.164-.803-.005-.7.181-2.001.167-2.662-.004-.196-.064-.288-.07-.423-.028-.568-.023-1.035-.115-1.58.154-.585.352-.534.552-.716.151-.137.502-.558.634-.618.093-.042.213.115.315.056.082.7-.008.995-.152 1.564l.017 3.154-.168.287c-.065.403.08.574.112.792.313 2.084.068 6.186.033 8.48-.008.495.067 2.103-.023 2.442-.024.088-.11.113-.114.206l.154 2.505c-.134 1.717-.023 3.49-.003 5.22.056 4.68.124 9.315.103 13.919-.004.89.06 2.019.02 2.89-.018.363-.156.515-.053.992l-.112.015c.045.417.13.683.138 1.15.007.394.013 1.435-.001 1.783-.007.18-.077.113-.077.28.001.289.098.904.098 1.3 0 .36-.08.968-.069 1.244.041.996.16 2.08.128 3.143-.009.294-.099.67-.096.763.005.179.093.232.104.353.057.612-.047 1.566-.052 2.166-.013 1.955.025 4.026.01 5.973-.011 1.23.004 3.274-.062 4.41-.014.244-.11.179-.11.385 0 .228.065.35.07.458.037.737.103 2.365.036 3.06-.012.134-.088.23-.088.309 0 .04.052.13.057.258.047 1.114.017 1.926 0 3.017-.034 2.09.061 4.513.01 6.71-.012.478-.16.806-.16.874.004.147.104.242.129.54.081.995-.026 2.334.025 3.28.024.467.151 1.11.18 1.569.022.367-.028 1.234.028 1.397.034.1.142.145.156.264M74.538 75.4c.173.065.03-.622-.064-.364-.02.058.02.347.064.364m.3-32.196-.148.019.062.27.09-.152z"/><path fill="#e1ebfb" d="M75.226 50.024a2.223 2.223 0 1 0 0-4.446 2.223 2.223 0 0 0 0 4.446"/><path fill="#3784ff" d="M78.297 46.825c.018.02-.034.07-.03.098.018.118-.016.17-.02.276.002.153.113.61-.344.602h-.014c-.085 0-.18-.033-.277-.035s-.724.008-.76-.02c-.046-.037.104-.153.093-.178-.007-.016-.066-.027-.08-.045-.042-.056-.01-.102-.173-.115q.11-.062.215-.134c-.045-.018.04-.1.028-.117-.011-.014-.075 0-.084-.013-.01-.016.043-.07.019-.098-.04-.045-.195.022-.228.006-.034-.017.02-.107-.052-.11l-.055.017-.1.076c-.026-.004.041-.058.032-.074-.01-.018-.082.02-.09.01-.005-.009.038-.06.026-.069-.017-.013-.089.048-.11.051-.007 0-.096-.024-.099-.026-.024-.02.068-.11.056-.14-.034-.078-.165-.052-.24-.058-.035-.003-.055-.026-.07-.06.226-.248.253-.534.023-.069.007-.08-.084.027-.1-.008-.011-.023.008-.094-.022-.106-.055-.022-.176.15-.067-.2-.086.036-.114-.109-.216.2-.018.016-.017-.182-.034-.212a.6.6 0 0 0-.18-.14c-.025-.008-.07-.015-.093.013-.009.011-.017.054-.025.094-.018.083-.028.15-.07-.114-.056.034-.074.024-.133-.015-.01-.007-.019-.065-.025-.064-.012.001-.026.047-.046.055-.032.014-.075-.103-.036.081q-.023.052-.042.106l-.047-.1-.004.122c-.057-.266-.096-.088-.025.054a2 2 0 0 0-.169-.12c-.106-.292-.106.004-.025.153l-.013.005c-.07-.058-.075.018-.144-.006-.071-.023-.083-.05-.17-.164l-.022.042c.16.361-.214-.202-.136.114-.183-.169-.185.002-.176.098.001.011.034.045.038.063.009.04-.076.041.038.144a2 2 0 0 0-.139-.044l.033.091.112.09c-.146-.079-.128.001-.174-.002-.009 0-.063-.038-.088-.034-.028.003-.031.044-.06.052q.084.07.173.137c.016.05-.158-.035-.183-.02a.3.3 0 0 0-.025.081c.015.045.167.105.101.171-.011.012-.07.004-.077.017-.013.024.086.137.2.174-.152-.016-.111.077-.158.09-.014.004-.108-.013-.132.006-.02.016.048.076.033.096-.017.023-.097.024-.104.035s.057.027.056.041c-.006.045-.11.084-.113.124.001.058.191.098.278.128-.011.011-.051.025-.05.036.007.13.007.282.02.426 0 .062-.15.335.212.093.073-.02 0 .196.02.224.015.027.091-.002.106.015.044.05.036.126.143.136.027.002.105-.05.113-.043.01.01-.038.088-.026.105.027.04.113.067.141.103.005.007-.034.074-.037.101-.01.107.047.13.157-.095-.017.152.092.061.14.072.1.03.287.133.391.035.065-.06.064-.17.14-.074l.004.005c.017.02.034.047.056.07.052.058.136.257.143.004.07.055.104 0 .206.194l-.023-.152.02-.01.049.138c.065-.006.064-.219.102-.234.07-.024.279-.057.383-.059.055.001-.01-.08.146.068l-.006-.054-.08-.117c.038-.036.135-.03.17-.07.067-.076.04-.259.155-.294.03-.01.13.01.14-.014.015-.033-.126-.11-.112-.147.023-.06.244-.135.246-.216.001-.022-.055-.045-.058-.06-.015-.064-.003-.115-.09-.178.158-.046.355-.034.556-.048.152-.01.504-.072.636-.085.093-.008.213.022.315.011.08.143-.015.206-.17.3a2.8 2.8 0 0 1-.114.595q-.09 0-.176-.005c-.086.045.036.126.05.178.149.52-.607 1.074-.992 1.245-.078.05-.32.265-.418.206-.025-.015-.064-.092-.081-.089q-.185.166-.397.294c-.232-.036-.437.006-.656.035a2 2 0 0 1-.343.018c-.902-.043-1.804-.577-2.221-1.405-.082-.156-.23-.344-.241-.527-.005-.076.121-.138 0-.204a1 1 0 0 1 .108-.028c-.062-.067-.155-.103-.178-.195a1.2 1.2 0 0 1-.03-.352c.007-.036.077-.024.076-.057l-.004-.022c-.018-.06-.09-.166-.084-.237.006-.072.1-.18.099-.236-.01-.196-.066-.447.047-.64.03-.053.144-.085.15-.102.01-.034-.065-.082-.064-.11.005-.14.196-.258.268-.352.233-.315.516-.636.862-.83.211-.128.594-.305.832-.29.05.001.06.097.099.09.042-.01.052-.079.072-.089.12-.06.397-.147.552-.104a.2.2 0 0 1 .042.015c.026.013.043.09.058.09.007 0 .027-.05.052-.055.22-.034.38.022.582.093.38.13.86.274 1.154.604.064.072.004.223.014.23.021.017.105-.04.163-.016.196.087.269.364.401.496.068.064.24.122.306.2.053.06.07.246.133.261.038.01.145-.016.165.005m-2.452-.43c.076-.155-.05-.052-.06.045-.002.021.04-.005.06-.045m-2.412 1.808.145-.034-.067-.018-.084.036z"/></g></g><defs><clipPath id="a"><path fill="#fff" d="M0 0h90v90H0z"/></clipPath></defs></svg>