<svg xmlns="http://www.w3.org/2000/svg" width="90" height="90" fill="none" viewBox="0 0 90 90"><g clip-path="url(#a)"><mask id="b" width="90" height="90" x="0" y="0" maskUnits="userSpaceOnUse" style="mask-type:luminance"><path fill="#fff" d="M0 24.457C0 10.95 10.95 0 24.457 0h41.086C79.05 0 90 10.95 90 24.457v41.086C90 79.05 79.05 90 65.543 90H24.456C10.95 90 0 79.05 0 65.543z"/></mask><g mask="url(#b)"><path fill="#d0e1ff" fill-opacity=".6" d="M0 24.457C0 10.95 10.95 0 24.457 0h41.086C79.05 0 90 10.95 90 24.457v41.086C90 79.05 79.05 90 65.543 90H24.456C10.95 90 0 79.05 0 65.543z"/><path fill="#3784ff" d="M33.337 41.018c-.337.012-.813-.053-1.21-.056-1.101-.01-1.744-.033-2.489-.055a1.993 1.993 0 0 1-1.962-2c.015-1.666 0-4.734.104-6.67.029-.89.672-1.44 1.12-1.582.468-.156.744-.047.739.017q0 .008-.003.014c-.017.042-.217.088-.393.19-.18.098-.32.246-.33.313.008.133.28.615.223.932a1 1 0 0 0-.007.117c.02 1.27-.12 3.735-.114 4.313.005.424.062.945.072 1.486.006.315.01.602.012.87.006.32.283.538.54.513a24 24 0 0 0 1.614-.107l1.887.245c.821-.038 2.065.07 2.564.064.409-.005.648-.07 1.075-.073.478-.004 1.212.066 2.082.056 1.426-.017 1.68-.185 2.535-.207.887-.022 2.267.07 3.399.01l.426-.055-.305-.126c.57-.02.815.066 1.339.068.616.002.931-.08 1.346-.08.34.001.8.066 1.24.062.643-.005.503-.1.849-.117a423 423 0 0 1 2.831-.06c1.094-.003 1.19.126 2.062.137 2.42.03 4.904-.074 7.142-.113 1-.018 2.042-.01 3.038.01-1.57.33 1.904.587.605.071 1.11.073 1.895-.066 2.946-.042.68.015 1.15.087 2.122.085 1.722-.004 3.606-.207 4.101.16 2.022-.065 3.774.069 4.502-.256.522-.02 1.858.174 2.443.2.553.025 4.796.112 5.49.117.695.005 1.91.01 2.495-.018.734-.036 1.248-.372 2.555.021a51 51 0 0 1 3.477.026c.256.008.285.066.435.066.308 0 .832-.043 1.382-.048.904-.009 1.42.114 1.32-.074l1.789-.094.627.109.957-.119c-.375.272 1.869.111 1.141-.044l3.468.168c-.162.31 2.538.036 2.311-.132h.396c1.158.083 2.222.016 3.633.07 1.412.056 1.279.086 1.708.228l.997-.024c1.742-.39 1.434.285 4.419-.014.953.244 3.304.116 4.862.042.181-.009.184-.056.426-.071.59-.035 2.097.026 2.045-.128q.783.068 1.565.133l1.279-.083-.006-.144c.858.163 2.207.1 2.872.14.133.008.161.074.573.092.481.021 1.377.001 1.95.022l.669-.22c1.025-.039 1.385.154 1.987.169.109.003 2.086-.011 2.193-.015.872-.033.625-.197 3.147-.162.449.006.813.063 1.219.065.717.005 2.878-.125 3.048-.244.87.15 3.198.088 3.883.132.207.013.254.108.89.128.516.017 1.843-.06 2.497-.047.694.014.942.094 1.253.1.294.005.565-.06.965-.06 1.25.003 2.382.107 3.37.109h.045c.366.007.621-.361.558-.64-.062-.731-.143-1.424-.19-2.095.012-.297.053-.588.054-.9.001-1.187.006-2.422.013-3.675a.444.444 0 0 0-.435-.445 1738 1738 0 0 1-6.627-.058c-1.791-.02-6.247-.278-5.058.154-.623.076-5.151-.099-6.012-.101s-1.543.075-2.22.076c-2.042.003-3.481-.053-5.966.015-.643.017-1.33.11-1.711.108-.458-.001-.951-.09-1.544-.096-1.414-.012-4.05.017-5.407.001-.247-.003-.334-.08-.689-.105-1.379-.095-2.926-.087-2.652.162-1.769-.141-3.405-.012-5.044-.004-3.465.016-9.777-.042-12.796.062-1.904.066-1.855.178-4.657.082-.623-.022-1.242-.05-1.996-.076-1.77-.06-3.392-.266-4.74-.018-1.964-.064-3.528-.019-4.986-.231q-.258.076-.515.153l-.723.003-.225-.145c-1.725-.013-3.914.186-5.375.185-2.448-.002-8.754-.08-11.076-.146-1.233-.034-1.3.07-2.005-.144l-.827.044-.517.141c-1.582.002-3.457-.071-4.964-.07-2.745.001-6.867.13-9.624.046-.691-.022-1.555-.119-2.232-.117-.985.001-1.225.162-2.475.165-2.155.004-6.167-.182-8.204-.168-.605.004-.887.064-1.305.07-1.751.028-3.189.023-4.868.115-1.804-.154-1.648-.352-2.207-.552-.423-.151-1.722-.502-1.906-.634-.13-.093.354-.212.172-.315 2.16-.081 3.068.009 4.823.152l9.719-.017.884.168c1.244.064 1.771-.08 2.442-.112 6.424-.312 19.067-.068 26.139-.033 1.524.008 6.481-.067 7.527.023.27.024.346.11.634.114l7.72-.154c5.291.134 10.762.023 16.094.003 14.425-.056 28.707-.124 42.897-.103 2.742.004 6.222-.06 8.907-.019 1.12.017 1.587.156 3.059.052l.046.112q.047 0 .09-.003a1.71 1.71 0 0 1 1.746 1.66c.025.508.045 1.042.049 1.709.007 1.051.011 3.602.003 4.96 0 .338-.098.625-.206.827-.223.391-.372.452-.476.525-.116.062-.21.148-.588.283-.152.049-.331.084-.528.087-.971.018-2.577.093-3.659.093-1.109 0-2.979-.08-3.832-.069-3.07.042-6.415.16-9.687.129-.904-.01-2.067-.1-2.35-.097-.553.005-.718.093-1.089.104-1.887.057-4.828-.047-6.677-.051-6.026-.014-12.41.025-18.41.008-3.791-.01-10.091.006-13.591-.06-.754-.014-.553-.11-1.187-.11-.703 0-1.083.064-1.411.07-2.273.036-7.291.102-9.437.036-.409-.013-.705-.089-.95-.088-.124 0-.404.051-.792.056-3.434.047-5.938.017-9.302 0-6.444-.034-13.91.062-20.68.01-1.474-.011-2.485-.16-2.693-.159-.455.003-.746.103-1.668.128-3.065.081-7.192-.026-10.107.025-1.44.024-3.42.152-4.837.18-1.131.022-3.805-.028-4.306.028-.306.034-.447.142-.812.156M71.47 39.33c-.202.174 1.917.03 1.122-.063-.179-.021-1.07.018-1.122.063m89.52-7.796a1 1 0 0 1-.007.152.6.6 0 0 1 .384.232.66.66 0 0 0-.127-.27.7.7 0 0 0-.25-.114M27.528 47.117c-.012-.08.053-.192.057-.287.015-.394.06-.54.085-.898.007-.091.01-.214.012-.354-.022-.594.394-1.348.95-1.608.553-.283 1.025-.136 1.006.042v.014c-.012.083-.177.188-.182.29-.004.099.08.716.02.771-.051.04-.155.062-.254.124-.099.058-.176.154-.183.195-.01.05.026.115.043.172l.005.042c.033.414-.009.63.146 1.003l-.245.448c.038.194-.07.49-.063.607.005.097.069.154.072.255.004.114-.066.288-.055.494.016.338.185.398.206.6.022.211-.07.538-.01.807l.055.1.126-.072c.02.136-.066.194-.068.318-.002.146.08.22.08.319-.001.08-.066.19-.062.294.005.152.1.12.117.201.007.033.06.637.06.671.003.26-.125.282-.137.49l-.004.093c-.017.184.218.256.304.214l.03-.006c.19-.006.386.002.573.018-.372.33.452.587.144.07.263.074.449-.065.698-.041.161.015.273.086.503.085.408-.004.855-.208.973.16.479-.065.894.069 1.067-.256.123-.02.44.174.579.2.131.025 1.137.112 1.302.117.164.005.452.01.59-.018.175-.036.297-.372.607.021.36-.032.489-.02.824.025.06.009.067.067.103.067.073 0 .197-.043.328-.048.214-.009.337.114.313-.074l.424-.094.148.108.227-.118c-.089.272.443.111.27-.045l.823.169c-.038.309.602.036.548-.132h.094c.274.083.526.015.861.07s.303.086.405.228l.236-.025c.413-.39.34.285 1.048-.014.226.245.783.117 1.153.042.043-.008.043-.056.1-.07.14-.036.498.025.485-.128l.371.133.303-.083-.001-.144c.203.163.523.1.681.14.031.007.038.073.136.091.114.022.326.002.462.023l.159-.22c.243-.04.328.154.47.169.027.003.495-.011.52-.015.207-.033.149-.198.747-.162.106.006.192.063.289.065.17.004.682-.125.722-.244.207.15.758.088.921.131.049.014.06.109.21.129.123.016.438-.06.593-.047.164.014.223.094.297.1.07.005.134-.06.229-.06.296.003.565.107.799.108h.01c.213-.003.28-.27.269-.389.024-.008.073-.003.089-.027a.44.44 0 0 0 .072-.223c.013-.742.042-1.523.074-2.234.018-.425.277-1.482-.155-1.2-.076-.147.099-1.22.101-1.425.003-.204-.075-.366-.076-.526-.003-.448.045-.773-.002-1.285a.2.2 0 0 0-.015-.043c-.024-.052-.127-.058-.134-.073-.008-.019.047-.098.016-.136-.044-.055-.145-.097-.239-.09-.166.002-.32.002-.436-.004-.059-.003-.08-.08-.163-.105-.328-.095-.694-.087-.63.162-.418-.141-.806-.013-1.195-.005-.821.017-2.318-.042-3.034.063-.45.066-.44.178-1.104.081-.147-.021-.294-.05-.473-.075-.42-.06-.804-.267-1.123-.018-.466-.065-.837-.019-1.183-.231l-.122.153-.171.003-.053-.145c-.41-.014-.928.186-1.274.185-.581-.002-2.076-.08-2.626-.146-.293-.035-.308.07-.476-.145l-.196.045-.122.14c-.375.003-.82-.07-1.177-.07-.651.002-1.628.131-2.282.046-.164-.021-.368-.118-.529-.117-.234.002-.29.162-.587.165-.51.005-1.462-.181-1.945-.167-.143.004-.21.064-.309.07-.415.028-.756.023-1.154.115-.428-.154-.39-.352-.523-.552-.1-.151-.409-.502-.452-.634-.03-.093.084-.213.04-.315.513-.082.728.008 1.144.152l2.304-.017.21.168c.295.064.42-.08.579-.112 1.523-.313 4.52-.068 6.196-.033.362.008 1.537-.068 1.785.023.064.024.082.11.15.114l1.83-.154c1.255.134 2.552.023 3.816.003 1.77-.03 3.532-.061 5.285-.083.951-.03 1.817.824 1.799 1.782q.013 1.572.003 3.137c-.004.65.06 1.475.02 2.112-.018.266-.157.376-.053.725l-.112.011c.038.255.103.433.129.684a1.3 1.3 0 0 1-.008.251 1.751 1.751 0 0 1-1.319 1.483c-.21.041-.144-.042-.332-.021l-.127.008c-.23.019-.61.094-.867.094-.263 0-.706-.08-.908-.069-.728.041-1.521.16-2.297.128-.215-.009-.49-.099-.557-.096-.131.005-.17.093-.258.104-.448.057-1.145-.047-1.583-.051-1.429-.014-2.942.024-4.365.008-.899-.01-2.392.006-3.222-.06-.179-.015-.131-.11-.281-.11-.167 0-.257.064-.335.07-.539.036-1.728.102-2.237.035-.097-.012-.167-.088-.225-.087-.03 0-.096.051-.188.056-.814.047-1.408.017-2.205 0-1.19-.027-2.526.025-3.816.025a1.74 1.74 0 0 1-1.453-.787c-.304-.486-.133-.894-.14-.95l-.003-.03c-.014-.097-.103-.17-.126-.374-.081-.727.026-1.706-.025-2.397-.024-.341-.151-.81-.18-1.146-.022-.269.028-.902-.028-1.021-.034-.073-.142-.106-.156-.193m4.274 5.554c-.048.173.455.03.266-.063-.042-.021-.253.018-.266.063m21.906-1.022-.149.014.062.198.09-.111zM66.437 74.78c-.013-.105.052-.251.056-.373.015-.513.06-.703.085-1.167.013-.223.012-.59.02-.982-.01-.728.512-1.42 1.038-1.626.532-.227.924-.082.91.061v.013c-.015.082-.23.194-.235.299-.005.101.103.71.028.78-.114.065-.398.273-.41.473a1 1 0 0 0-.005.12c.004.13.061.29.072.457.032.537-.01.819.145 1.303l-.244.58c.037.253-.07.636-.064.79.005.126.07.2.072.33.004.148-.066.374-.055.642.017.439.185.517.206.78.022.273-.07.698-.01 1.047l.056.13q.063-.046.125-.093c.02.175-.066.25-.068.412 0 .067.01.123.022.172.024.032.06.046.065.068.005.025-.042.09-.013.129.043.052.108-.022.137-.016.013.017.16.03.177.012h.01c.337-.004.367.125.635.136.745.031 1.51-.073 2.199-.112.307-.018.629-.01.935.01-.483.33.587.587.187.07.34.074.583-.065.907-.042.209.015.354.087.653.085.53-.004 1.11-.207 1.262.16.623-.064 1.162.07 1.386-.255.16-.02.572.173.752.2.17.024 1.477.112 1.69.116.214.005.588.01.769-.018.226-.035.384-.372.786.022.468-.032.635-.02 1.07.025.08.008.088.067.134.067.095 0 .257-.043.426-.049.278-.008.437.115.406-.073l.551-.095.193.11.295-.12c-.116.272.575.112.351-.044l1.068.169c-.05.309.781.035.711-.133l.122.001c.357.082.684.015 1.119.07s.393.085.525.227l.307-.024c.537-.39.442.285 1.36-.014.294.245 1.018.116 1.498.042.055-.008.056-.056.13-.07.182-.036.646.025.63-.128l.482.133.394-.084-.002-.143c.264.163.68.1.884.14.04.007.05.073.176.091.148.022.424.002.601.023l.206-.22c.315-.04.426.154.612.169.033.002.642-.012.674-.016.269-.032.193-.197.97-.162.138.007.25.064.375.066.22.004.886-.125.938-.244.268.149.984.088 1.196.131.063.013.078.108.273.129.16.016.568-.06.769-.047.214.014.29.093.386.1.091.004.174-.06.297-.06.385.003.733.106 1.038.108h.014c.276-.005.353-.329.321-.462.025-.02.076-.034.086-.07a.5.5 0 0 0 .016-.108c.009-1.11.042-2.33.08-3.422.018-.552.277-1.924-.155-1.558-.065-.166.057-1.235.092-1.69a.2.2 0 0 0 .005-.065c-.016-.112-.128-.145-.174-.192a.4.4 0 0 0-.271-.134c-.275-.004-.568 0-.935.032-.198.018-.41.11-.527.109-.141-.002-.292-.09-.475-.096-.435-.013-1.247.016-1.665.001-.076-.003-.103-.081-.212-.105-.424-.096-.9-.087-.816.162-.545-.142-1.048-.013-1.553-.005-1.067.016-3.01-.042-3.94.063-.585.066-.57.177-1.433.081-.192-.021-.382-.05-.615-.076-.544-.06-1.044-.266-1.459-.017-.605-.065-1.086-.02-1.535-.232l-.159.153-.222.004-.07-.146c-.53-.013-1.204.187-1.654.186-.754-.003-2.695-.08-3.41-.146-.38-.035-.4.07-.617-.145l-.255.045-.16.14c-.486.002-1.063-.07-1.527-.07-.845.002-2.114.13-2.963.046-.213-.021-.479-.118-.687-.117-.303.002-.377.162-.762.165-.663.005-1.899-.181-2.526-.167-.186.004-.273.064-.401.07-.54.027-.982.022-1.5.115-.554-.154-.506-.352-.678-.553-.13-.15-.53-.5-.587-.633-.04-.093.109-.213.053-.315.665-.082.944.008 1.484.152l2.992-.017.273.167c.383.065.545-.079.752-.111 1.977-.313 5.87-.068 8.046-.033.47.008 1.996-.068 2.318.023.083.024.106.11.195.113l2.376-.153c1.63.134 3.314.023 4.955.002 3.322-.041 6.62-.09 9.899-.103.961-.025 1.828.84 1.805 1.802q0 .782-.004 1.562c-.004.844.061 1.916.019 2.742-.017.345-.155.489-.052.942l-.112.014c.045.395.13.648.138 1.092l.005.318c.009.365-.136.823-.402 1.139-.26.322-.608.494-.806.554-.267.074-.184-.018-.427.016q-.074.008-.164.012c-.299.018-.794.094-1.127.094-.342 0-.917-.08-1.18-.07-.945.042-1.975.161-2.982.13-.278-.01-.636-.1-.724-.098-.17.006-.22.093-.335.105-.58.057-1.486-.048-2.055-.052-1.856-.013-3.82.025-5.668.009-1.167-.01-3.106.005-4.184-.06-.232-.015-.17-.111-.365-.111-.217 0-.334.065-.435.07-.7.037-2.245.102-2.905.036-.126-.013-.217-.088-.293-.088-.038 0-.124.052-.244.057-1.057.046-1.827.016-2.863-.001-1.984-.034-4.283.062-6.367.01-.454-.01-.765-.16-.829-.158-.14.003-.23.103-.513.128q-.137.01-.281.018c-.873.068-1.786-.801-1.737-1.74a16 16 0 0 0-.01-1.084c-.024-.444-.151-1.053-.18-1.489-.022-.349.028-1.172-.028-1.326-.034-.094-.142-.137-.156-.25m7.954 4.572c-.062.173.59.03.346-.064-.056-.02-.33.019-.346.064m28.23-1.722-.148.017.061.257.09-.144zM32.356 67.698c-.314.012-.755-.053-1.125-.057a73 73 0 0 1-1.593-.032c-.98-.019-1.95-.75-1.971-2.022l.003-.18c.025-1.367-.004-4.506.103-6.49.028-.888.67-1.443 1.12-1.586.472-.157.751-.047.745.021q0 .008-.002.014c-.015.042-.201.088-.366.182-.167.09-.301.226-.311.29.004.13.268.627.19.916a.7.7 0 0 0-.018.163c.008 1.21-.122 3.366-.116 3.885.005.394.062.878.072 1.38.011.537.014.988.018 1.405.002.292.267.523.534.475.244-.017.501-.04.78-.07l1.754.245c.763-.037 1.919.07 2.382.064.38-.005.603-.07.999-.072.444-.004 1.127.066 1.935.055 1.325-.017 1.56-.185 2.355-.206.825-.022 2.107.07 3.159.01l.395-.056-.283-.125c.53-.02.758.066 1.244.068.573.002.865-.08 1.25-.08.317 0 .745.066 1.154.062.597-.005.467-.1.788-.117.128-.007 2.497-.06 2.631-.06 1.017-.004 1.105.125 1.916.136 2.248.031 4.556-.073 6.636-.112.929-.018 1.898-.01 2.824.01-1.459.33 1.769.587.562.07 1.03.074 1.76-.065 2.737-.042.632.016 1.07.087 1.971.085 1.6-.003 3.351-.207 3.812.16 1.879-.064 3.506.07 4.183-.255.485-.02 1.726.173 2.27.2.514.024 4.457.112 5.102.117.645.004 1.774.01 2.317-.019.683-.035 1.16-.372 2.375.022a44 44 0 0 1 3.23.025c.239.008.265.067.404.067.287 0 .774-.043 1.285-.049.84-.008 1.32.115 1.226-.073l1.663-.094.583.108.889-.118c-.348.272 1.737.111 1.06-.045l3.222.169c-.15.309 2.359.035 2.147-.132h.369c1.076.082 2.064.015 3.376.07s1.188.086 1.587.228l.926-.025c1.619-.39 1.333.285 4.106-.014.886.245 3.07.117 4.518.042.169-.008.172-.056.396-.07.549-.036 1.949.025 1.901-.128l1.454.133 1.188-.084-.006-.143c.798.163 2.051.1 2.669.14.123.007.15.073.532.091.447.022 1.28.002 1.813.023l.621-.22c.953-.04 1.288.154 1.847.169.101.002 1.938-.011 2.037-.016.81-.032.581-.197 2.925-.162.417.007.755.064 1.132.066.666.004 2.675-.125 2.833-.244.808.15 2.971.088 3.608.131.192.013.236.109.827.129.479.016 1.712-.06 2.32-.047.645.014.875.094 1.164.1.273.004.525-.06.897-.06 1.162.003 2.213.106 3.131.108h.043c.368.007.615-.368.546-.64-.06-.634-.134-1.237-.179-1.823.012-.275.053-.546.054-.835.002-1.292.008-2.643.016-4.012a.45.45 0 0 0-.437-.45c-1.85-.014-3.697-.033-5.439-.053-1.665-.019-5.806-.278-4.7.155-.579.075-4.786-.099-5.587-.102-.8-.002-1.434.075-2.063.077-1.897.003-3.234-.053-5.544.015-.596.017-1.236.109-1.589.108-.425-.002-.883-.09-1.435-.096-1.314-.013-3.763.017-5.024.001-.23-.003-.311-.08-.64-.105-1.282-.095-2.719-.087-2.465.162-1.643-.142-3.163-.013-4.686-.005-3.22.016-9.086-.042-11.891.063-1.769.066-1.724.178-4.328.081-.578-.021-1.153-.05-1.854-.075-1.644-.06-3.151-.267-4.404-.018-1.825-.065-3.28-.019-4.633-.231l-.48.152-.67.004-.21-.146c-1.603-.013-3.637.187-4.994.186-2.275-.003-8.135-.08-10.293-.146-1.145-.035-1.207.07-1.862-.145l-.769.045-.48.14c-1.47.002-3.213-.07-4.613-.07-2.55.002-6.381.131-8.943.046-.642-.021-1.445-.118-2.074-.117-.915.002-1.138.162-2.3.165-2.002.005-5.73-.181-7.623-.167-.562.004-.824.064-1.212.07-1.628.028-2.964.023-4.524.115-1.676-.154-1.53-.352-2.05-.553-.394-.15-1.6-.5-1.772-.633-.12-.093.33-.213.16-.315 2.008-.082 2.851.008 4.482.152l9.03-.017.822.167c1.156.065 1.646-.079 2.27-.111 5.969-.313 17.717-.068 24.288-.033 1.416.008 6.022-.068 6.994.023.252.024.322.11.59.114l7.172-.154c4.918.134 10 .023 14.955.003 13.405-.056 26.676-.124 39.861-.104 2.548.005 5.782-.06 8.276-.018.874.014 1.32.114 2.251.085.274-.006.589.049.898.212q.001.066-.002.13c.52.318.798.863.815 1.393.039.67.078 1.302.083 2.184.006.946.011 3.198.004 4.486 0 .4-.137.732-.275.947-.235.346-.374.395-.476.458-.11.051-.202.124-.556.24a1.8 1.8 0 0 1-.491.076c-.903.018-2.396.094-3.401.094-1.031 0-2.768-.08-3.56-.069-2.854.041-5.962.16-9.002.128-.84-.009-1.921-.099-2.184-.096-.513.005-.666.093-1.012.104-1.753.057-4.486-.047-6.204-.052-5.6-.013-11.532.025-17.107.01-3.523-.011-9.376.004-12.628-.062-.702-.014-.515-.11-1.103-.11-.653 0-1.007.065-1.312.07-2.112.037-6.775.103-8.769.036-.38-.013-.655-.088-.882-.088-.115 0-.375.052-.737.057-3.19.047-5.517.017-8.643-.001-5.988-.033-12.925.062-19.215.01-1.37-.01-2.31-.16-2.503-.158-.423.003-.694.103-1.55.128-2.848.081-6.683-.026-9.392.024-1.338.025-3.177.152-4.494.18-1.052.023-3.536-.027-4.002.029-.284.034-.415.142-.755.156m35.433-1.687c-.187.173 1.782.03 1.043-.064-.166-.02-.994.02-1.043.064m83.576-7.558q-.045.06-.096.117a.6.6 0 0 1 .174.347l.004.056.012-.056a.7.7 0 0 0 .036-.244.7.7 0 0 0-.13-.22"/><path fill="#3784ff" d="M11.964 30.828c-.012-.57.053-1.375.057-2.047.015-2.818.06-3.861.085-6.41l.007-1.026c-.132-2.44 1.49-6.314 4.29-8.014 2.723-1.82 5.51-1.517 5.453-1.333l-.003.013c-.047.074-1.026.221-1.153.35-.123.13.03.667-1.172 1.017-.875.26-2.323.909-3.398 1.908-1.1.973-1.77 2.195-1.958 2.647-.273.621-.471 1.437-.574 2.288a9 9 0 0 0-.064 1.124c.014 2.222.003 3.682.135 5.958l-.245 3.193c.038 1.388-.07 3.493-.063 4.337.005.692.069 1.098.072 1.819.004.809-.066 2.051-.055 3.523.017 2.413.185 2.842.206 4.29.022 1.501-.07 3.836-.01 5.751l.056.72.125-.516c.02.965-.066 1.38-.068 2.267-.002 1.043.08 1.575.08 2.277-.001.575-.066 1.354-.062 2.1.005 1.087.1.85.117 1.434.007.233.06 4.548.06 4.791.004 1.852-.125 2.013-.137 3.49-.03 4.093.074 8.296.113 12.084.018 1.69.01 3.455-.01 5.141-.33-2.656-.587 3.222-.07 1.024-.074 1.876.065 3.206.042 4.985-.016 1.15-.087 1.946-.085 3.589.003 2.914.207 6.102-.161 6.941.02 1.081.021 2.116.023 3.065-.003 1.925.696 3.389 1.26 3.932.346.711 1.593 2.393 2.394 2.885.357.303 2.424 1.52 4.605 1.484 1.803.021 3.489.04 4.007.042 1.175.005 3.23.01 4.22-.019 1.243-.035 2.112-.372 4.324.022 2.573-.032 3.49-.02 5.883.025.433.009.482.067.735.067.522 0 1.409-.043 2.34-.048 1.53-.009 2.403.114 2.233-.074l3.027-.094 1.062.108 1.618-.118c-.633.272 3.163.111 1.93-.045l5.869.169c-.273.309 4.294.036 3.91-.132h.671c1.96.082 3.759.015 6.147.07s2.164.086 2.89.228l1.687-.025c2.948-.389 2.427.285 7.477-.014 1.613.245 5.59.117 8.227.042.307-.008.312-.056.72-.07 1-.036 3.55.025 3.462-.128l2.647.133 2.165-.083-.011-.144c1.452.163 3.734.1 4.86.139.224.008.273.074.969.092.814.022 2.331.002 3.301.023l1.131-.22c1.735-.039 2.344.154 3.363.169.183.002 3.529-.011 3.709-.016 1.476-.032 1.058-.197 5.326-.161.761.006 1.375.063 2.062.065 1.214.004 4.871-.125 5.159-.244 1.471.149 5.41.088 6.57.131.35.014.429.109 1.505.129.873.016 3.12-.06 4.226-.047 1.175.014 1.594.094 2.12.099.497.006.956-.059 1.633-.058 2.115.002 4.031.106 5.702.107h.077c2.287-.004 4.147-1.076 5.439-2.353.35-.298.694-.601.996-.982a8.22 8.22 0 0 0 1.78-5.086c.015-4.834.041-9.839.07-14.44.018-3.032.277-10.571-.155-8.56-.076-1.053.099-8.714.101-10.171s-.075-2.612-.076-3.757c-.003-3.456.053-5.89-.015-10.096-.017-1.086-.109-2.25-.108-2.894.001-.775.09-1.609.096-2.612.013-2.394-.017-6.853-.001-9.15.003-.418.081-.566.105-1.165.095-2.335.087-4.952-.162-4.489.141-2.992.012-5.76.005-8.533-.005-1.784-.003-4.014-.001-6.396.244-4.657-4.732-8.421-8.074-8.034q-.69.009-1.287.021c-3.221.066-3.138.178-7.88.082-1.053-.022-2.101-.05-3.378-.076-2.992-.06-5.738-.266-8.019-.018-3.324-.064-5.971-.018-8.437-.231l-.872.153-1.222.004-.382-.146c-2.919-.013-6.623.187-9.094.185-4.143-.002-14.814-.08-18.742-.145-2.086-.035-2.198.069-3.392-.145l-1.4.045-.875.14c-2.676.002-5.85-.07-8.4-.07-4.644.002-11.62.13-16.284.046-1.17-.022-2.632-.118-3.777-.117-1.667.001-2.072.162-4.187.165-3.646.005-10.436-.182-13.882-.168-1.023.005-1.501.064-2.208.07-2.963.028-5.396.023-8.238.115-3.051-.153-2.788-.352-3.733-.552-.717-.151-2.914-.501-3.226-.634-.22-.093.599-.212.292-.315 3.656-.081 5.191.009 8.16.153l16.445-.018 1.496.168c2.105.065 2.998-.079 4.133-.112 10.87-.312 32.263-.068 44.229-.032 2.578.007 10.966-.068 12.735.023.458.023.586.11 1.073.113l13.063-.154c8.953.134 18.21.024 27.232.003h.057c5.06-.133 9.625 4.422 9.513 9.48.046 19.653.087 39.157.07 58.559-.004 4.64.061 10.528.019 15.071-.017 1.896-.155 2.686-.052 5.177l-.112.078c.026 1.273.066 2.276.097 3.379a8.8 8.8 0 0 1-.369 2.782c-.291 1.059-1.189 2.94-2.679 4.272-1.453 1.374-3.345 2.076-4.294 2.268-.994.195-.635.067-1.566.156q-.28.02-.627.024c-1.643.019-4.362.094-6.193.094-1.876 0-5.04-.08-6.483-.069-5.196.041-10.855.16-16.392.128-1.53-.009-3.497-.099-3.976-.096-.936.005-1.214.093-1.843.104-3.192.057-8.169-.047-11.298-.052-10.197-.013-20.999.025-31.151.009-6.415-.01-17.074.005-22.996-.061-1.277-.014-.937-.11-2.01-.11-1.188 0-1.832.065-2.387.07-3.846.037-12.337.103-15.968.036-.691-.012-1.193-.088-1.607-.087-.21 0-.683.051-1.341.056-1.903.015-3.637.022-5.308.024-3.667-.005-7.154-2.07-8.781-5.857a9.6 9.6 0 0 1-.735-3.691c.008-10.043-.064-21.218-.018-31.453.012-2.495.16-4.207.16-4.558-.004-.77-.104-1.263-.129-2.822-.081-5.186.026-12.17-.024-17.103-.025-2.436-.152-5.785-.18-8.183-.023-1.915.027-6.438-.029-7.287-.034-.517-.142-.756-.156-1.374m1.687 64.524c-.173-.342-.03 3.244.064 1.899.02-.303-.02-1.811-.064-1.9m145.664 5.49-.149.099.062 1.412.089-.793z"/></g></g><defs><clipPath id="a"><path fill="#fff" d="M0 0h90v90H0z"/></clipPath></defs></svg>