<svg xmlns="http://www.w3.org/2000/svg" width="608" height="152" fill="none" viewBox="0 0 608 152"><path fill="#231f20" d="M0 2.22h13.413v108.877H0zM32.376 2.22H45.79V22.11C51.617 11.654 69.748 0 89.544 0c7.215 0 14.338 1.018 19.888 3.145 5.458 2.128 10.176 5.273 13.968 9.436 3.793 4.162 6.66 9.435 8.696 15.818 1.942 6.29 2.96 13.598 2.96 21.83v60.868h-13.413V51.71c0-6.66-.74-12.396-2.22-17.299s-3.701-8.972-6.568-12.303c-2.868-3.33-6.476-5.735-10.823-7.307-4.255-1.573-9.158-2.313-14.708-2.313-6.383 0-12.118.925-17.206 2.868s-9.436 4.625-13.043 8.14a35.1 35.1 0 0 0-8.233 12.396c-1.943 4.717-2.868 10.082-2.868 15.91v59.388H32.561V2.22zM253.888 33.672c2.775-6.938 6.568-12.951 11.47-18.039 4.903-4.995 10.731-8.88 17.484-11.563S297.087 0 305.228 0s15.54 1.388 22.293 4.163 12.581 6.66 17.484 11.563c4.995 4.995 8.787 10.915 11.47 17.946 2.683 7.03 4.07 14.8 4.07 23.31v4.256h-99.349v-11.84h88.896l-2.867 7.492c0-6.66-1.018-12.766-3.146-18.223q-3.191-8.187-8.602-14.153c-3.701-3.978-8.048-6.938-13.229-9.066-5.18-2.127-10.822-3.145-16.928-3.145-6.105 0-11.933 1.11-17.113 3.238-5.18 2.127-9.62 5.18-13.321 9.065-3.7 3.885-6.66 8.51-8.787 13.968s-3.146 11.378-3.146 17.946 1.11 12.673 3.238 18.13c2.128 5.459 5.18 10.084 8.973 13.969s8.325 6.845 13.506 9.065c5.18 2.128 10.915 3.238 17.205 3.238 9.806 0 18.131-2.498 25.069-7.4s11.84-11.84 14.893-20.629l13.043 4.44c-3.793 11.1-10.36 19.889-19.518 26.364-9.251 6.475-20.259 9.713-33.209 9.713-8.233 0-15.911-1.388-22.756-4.07-6.938-2.683-12.858-6.568-17.854-11.563s-8.88-11.008-11.655-17.946-4.255-14.616-4.255-23.219c0-8.602 1.387-15.91 4.162-22.94zM375.995 33.672c2.775-6.938 6.567-12.951 11.47-18.039 4.903-5.087 10.731-8.88 17.483-11.563S419.194 0 427.334 0c8.141 0 15.541 1.388 22.294 4.163s12.58 6.66 17.483 11.563c4.995 4.995 8.788 10.915 11.471 17.946 2.682 7.03 4.07 14.8 4.07 23.31v4.256h-99.349v-11.84h88.896l-2.868 7.492c0-6.66-1.017-12.766-3.145-18.223-2.127-5.458-4.995-10.176-8.695-14.153s-8.048-6.938-13.228-9.066c-5.18-2.127-10.823-3.145-16.929-3.145s-11.933 1.11-17.113 3.238c-5.18 2.127-9.62 5.18-13.32 9.065s-6.661 8.51-8.788 13.968-3.145 11.378-3.145 17.946 1.11 12.673 3.237 18.13c2.128 5.459 5.18 10.084 8.973 13.969s8.326 6.845 13.506 9.065c5.18 2.128 10.915 3.238 17.206 3.238 9.805 0 18.13-2.498 25.068-7.4s11.841-11.84 14.893-20.629l13.043 4.44c-3.792 11.1-10.268 19.889-19.518 26.364s-20.258 9.713-33.209 9.713c-8.233 0-15.911-1.388-22.756-4.07-6.938-2.683-12.858-6.568-17.761-11.563-4.995-4.995-8.88-11.008-11.655-17.946-2.868-6.938-4.255-14.616-4.255-23.219 0-8.602 1.387-15.91 4.162-22.94zM497.18 2.22h13.413v24.606c4.533-8.048 10.083-13.69 18.131-18.963C536.679 2.683 546.115 0 557.03 0c7.771 0 14.708 1.295 21.091 3.978 6.29 2.682 11.656 6.383 16.096 11.193s7.77 10.73 10.175 17.76S608 47.918 608 56.706s-1.203 16.743-3.608 23.681c-2.405 7.03-5.735 12.95-10.175 17.76-4.44 4.904-9.713 8.604-16.003 11.194-6.198 2.59-13.228 3.885-20.999 3.885-10.823 0-20.351-2.683-28.399-7.955-8.047-5.273-13.69-11.933-18.223-18.871v65.215H497.18zm16.651 72.616c2.127 5.457 5.18 10.175 9.065 14.06 3.885 3.886 8.511 6.846 13.968 8.973s11.286 3.145 17.484 3.145c6.197 0 11.655-1.017 16.65-2.96 4.996-1.942 9.251-4.81 12.766-8.695s6.105-8.418 8.048-13.876c1.942-5.457 2.867-11.563 2.867-18.5 0-6.938-1.017-13.321-2.96-18.871-1.942-5.458-4.717-10.176-8.14-14.06-3.423-3.886-7.678-6.754-12.766-8.789-4.995-1.942-10.545-2.96-16.65-2.96-6.106 0-12.211 1.018-17.484 3.145-5.272 2.128-9.898 5.088-13.783 8.973s-6.845 8.51-9.065 13.968-3.238 11.563-3.238 18.316 1.11 12.488 3.238 18.038z"/><path fill="#231f20" d="M252.721 0H233.11l-68.638 60.775V0h-12.95v111.097h12.95V77.796l.185.185 23.404-20.721 51.524 53.837h18.501l-60.312-62.44z"/></svg>