<svg xmlns="http://www.w3.org/2000/svg" width="40" height="40" fill="none" viewBox="0 0 40 40"><path fill="#231f20" d="m13.497 10.918-1.29-.947a5.9 5.9 0 0 0-.996 1.955c-.615 2.153-.222 4.563 1.376 6.295 3.372 2.962 8.122 2.16 11.43.007 2.85-2.372 1.977-6.25.346-8.775-2.004-2.557-5.759-3.254-8.627-1.875a4.3 4.3 0 0 0-1.56 1.381l.506.324a3.7 3.7 0 0 1 1.368-1.15c2.496-1.179 6.045-.356 7.567 1.783 1.447 2.29 1.912 5.855-.293 7.463-2.769 1.818-7.442 2.21-9.68-.058-1.16-1.296-1.462-3.314-.924-4.967a4.4 4.4 0 0 1 .777-1.436M7.483 30.616l1.543.49c.116-.332.39-.83.632-1.258l.22-.382c1.935-3.758 5.522-6.45 9.957-6.315 5.003-.3 9.599 2.716 11.698 7.11q.11.203.215.408l-.012-.026c.122.302.187.624.157.923l.605.068c.056-.42-.02-.828-.156-1.203l-.011-.026a24 24 0 0 0-.206-.425c-1.945-4.558-6.94-8.116-12.29-7.92-4.701-.383-9.268 2.813-11.304 6.655q-.124.194-.244.393c-.28.472-.547.872-.804 1.508"/><path fill="#231f20" d="m9.928 30.694-.505 1.479q.531.153 1.067.278c6.52 1.485 12.981.129 19.257-.608q.527-.063 1.052-.119l-.053-.581q-.532.032-1.064.071c-6.341.467-12.824 1.453-18.783-.218q-.49-.139-.971-.302"/></svg>