<svg xmlns="http://www.w3.org/2000/svg" width="892" height="174" fill="none" viewBox="0 0 892 174"><path fill="#231f20" d="M123.611 2.768c4.985 0 9.591 2.656 12.084 6.967l35.777 61.892a13.92 13.92 0 0 1 0 13.935l-35.777 61.892a13.96 13.96 0 0 1-12.084 6.968H52.055a13.96 13.96 0 0 1-12.084-6.968L4.194 85.562a13.92 13.92 0 0 1 0-13.935L39.97 9.735a13.96 13.96 0 0 1 12.084-6.967zm-71.556 9.954c-1.424 0-2.74.759-3.452 1.99L12.825 76.605a3.98 3.98 0 0 0 0 3.981l35.778 61.892a3.99 3.99 0 0 0 3.452 1.99h71.556a3.99 3.99 0 0 0 3.453-1.99l35.777-61.892a3.98 3.98 0 0 0 0-3.981l-35.777-61.891a3.99 3.99 0 0 0-3.453-1.991z"/><path fill="#231f20" d="M99.23 113.124c-16.498-25.146-10.762-61.304 14.414-79.19l.005-.003c10.737-7.607 24.443-17.715 39.021-24.855 14.515-7.11 30.772-11.729 46.553-7.399h.001c5.788 1.487 10.342 3.517 13.961 6.364 3.665 2.881 6.075 6.367 7.906 10.291 1.778 3.81 3.072 8.189 4.412 12.831 1.366 4.738 2.838 9.976 4.998 15.982 1.194 3.318 3.592 6.963 6.733 11.862 2.996 4.675 6.444 10.188 8.87 16.545 2.455 6.43 3.887 13.762 2.911 22.148-.975 8.366-4.31 17.48-10.948 27.547-4.404 6.679-13.147 13.38-22.509 18.767-9.493 5.462-20.396 10.013-29.767 12.024l-.007.001-.008.002c-20.311 4.29-36.877 1.612-51.057-6.46-14.001-7.97-25.234-20.953-35.48-36.442l-.004-.008zm20.07-71.237c-20.696 14.708-25.65 44.917-11.911 65.876l.001-.001c9.914 14.989 20.123 26.489 32.166 33.345 11.86 6.751 25.936 9.244 44.184 5.393l.768-.171c7.987-1.831 17.59-5.829 26.174-10.768 8.992-5.174 16.107-10.948 19.228-15.68 5.968-9.051 8.637-16.735 9.403-23.307.763-6.552-.331-12.298-2.335-17.547-2.033-5.324-4.976-10.092-7.97-14.761-2.849-4.446-6.039-9.208-7.698-13.822-2.287-6.357-3.846-11.91-5.193-16.58-1.374-4.762-2.476-8.403-3.88-11.411-1.351-2.895-2.907-5.028-5.095-6.748-2.233-1.756-5.416-3.312-10.352-4.581l-.043-.01-.043-.013c-12.384-3.424-25.992.004-39.733 6.734-13.704 6.712-26.669 16.257-37.671 24.052M286 24.328h13.391v108.79H286zm32.323 0h13.392v19.873c5.818-10.445 23.919-22.091 43.683-22.091 7.203 0 14.315 1.017 19.856 3.143 5.449 2.125 10.159 5.268 13.945 9.427 3.787 4.16 6.65 9.428 8.681 15.806 1.94 6.285 2.956 13.587 2.956 21.813v60.819h-13.392v-59.34c0-6.655-.738-12.386-2.216-17.284-1.478-4.9-3.694-8.966-6.557-12.293s-6.465-5.731-10.805-7.302c-4.249-1.572-9.143-2.311-14.685-2.311-6.372 0-12.098.924-17.177 2.865-5.08 1.941-9.421 4.622-13.022 8.134a35 35 0 0 0-8.22 12.386c-1.939 4.714-2.863 10.074-2.863 15.898v59.339h-13.391V24.328zm219.152 31.426c2.77-6.932 6.557-12.94 11.452-18.023 4.894-4.992 10.713-8.874 17.454-11.554s14.223-4.067 22.35-4.067 15.515 1.386 22.257 4.16c6.742 2.772 12.56 6.654 17.455 11.553 4.987 4.991 8.774 10.907 11.452 17.931s4.063 14.789 4.063 23.292v4.252h-99.187v-11.83h88.751l-2.863 7.486c0-6.655-1.015-12.755-3.14-18.208q-3.186-8.181-8.588-14.142c-3.695-3.975-8.035-6.932-13.207-9.058s-10.805-3.143-16.901-3.143c-6.095 0-11.913 1.11-17.085 3.235s-9.605 5.176-13.299 9.058-6.649 8.504-8.774 13.957-3.14 11.369-3.14 17.931 1.109 12.663 3.233 18.117c2.124 5.453 5.172 10.074 8.958 13.957 3.787 3.882 8.312 6.839 13.484 9.058 5.171 2.125 10.897 3.235 17.177 3.235 9.79 0 18.102-2.496 25.028-7.395 6.927-4.898 11.822-11.831 14.869-20.611l13.022 4.436c-3.786 11.092-10.344 19.872-19.487 26.343-9.235 6.47-20.225 9.705-33.155 9.705-8.219 0-15.884-1.387-22.718-4.067-6.927-2.681-12.838-6.563-17.825-11.554s-8.866-10.999-11.636-17.931c-2.771-6.932-4.249-14.604-4.249-23.2s1.386-15.898 4.156-22.923zm121.908 0c2.77-6.932 6.557-12.94 11.452-18.023s10.713-8.874 17.454-11.554 14.223-4.067 22.35-4.067 15.515 1.386 22.257 4.16c6.742 2.772 12.56 6.654 17.455 11.553 4.987 4.991 8.774 10.907 11.452 17.931s4.063 14.789 4.063 23.292v4.252h-99.187v-11.83h88.752l-2.863 7.486c0-6.655-1.016-12.755-3.14-18.208-2.125-5.454-4.988-10.168-8.682-14.142s-8.034-6.932-13.206-9.058-10.806-3.143-16.901-3.143-11.914 1.11-17.085 3.235-9.605 5.176-13.299 9.058-6.65 8.504-8.774 13.957-3.14 11.369-3.14 17.931 1.108 12.663 3.232 18.117c2.125 5.453 5.172 10.074 8.959 13.957 3.786 3.882 8.312 6.839 13.483 9.058 5.172 2.125 10.898 3.235 17.178 3.235 9.79 0 18.101-2.496 25.028-7.395s11.821-11.831 14.869-20.611l13.022 4.436c-3.787 11.092-10.252 19.872-19.487 26.343-9.235 6.47-20.225 9.705-33.155 9.705-8.219 0-15.885-1.387-22.719-4.067-6.926-2.681-12.837-6.563-17.732-11.554-4.987-4.991-8.866-10.999-11.636-17.931-2.863-6.932-4.248-14.604-4.248-23.2s1.385-15.898 4.155-22.923zm120.988-31.426h13.391v24.586c4.526-8.04 10.067-13.68 18.102-18.948 7.942-5.176 17.362-7.856 28.26-7.856 7.757 0 14.684 1.294 21.056 3.974 6.28 2.68 11.637 6.378 16.07 11.184 4.433 4.807 7.758 10.722 10.159 17.747 2.401 7.024 3.602 14.973 3.602 23.754s-1.201 16.73-3.602 23.662c-2.401 7.025-5.726 12.94-10.159 17.747-4.433 4.899-9.697 8.596-15.977 11.184-6.188 2.588-13.207 3.882-20.965 3.882-10.805 0-20.317-2.681-28.352-7.949-8.035-5.269-13.668-11.924-18.194-18.856v65.163h-13.391zm16.624 72.558c2.124 5.453 5.171 10.167 9.05 14.049s8.497 6.84 13.946 8.965 11.267 3.143 17.454 3.143 11.637-1.017 16.624-2.958 9.235-4.806 12.745-8.688 6.095-8.411 8.035-13.865c1.939-5.453 2.863-11.553 2.863-18.485 0-6.933-1.016-13.31-2.956-18.856-1.939-5.454-4.71-10.167-8.127-14.05-3.417-3.881-7.665-6.747-12.745-8.78-4.987-1.941-10.528-2.958-16.623-2.958s-12.191 1.017-17.455 3.143-9.882 5.083-13.761 8.965-6.834 8.504-9.05 13.957-3.233 11.554-3.233 18.301c0 6.748 1.108 12.478 3.233 18.024z"/><path fill="#231f20" d="M538.31 22.11h-19.579l-68.527 60.726V22.11h-12.929v111.008h12.929V99.843l.185.185 23.365-20.704 51.441 53.794h18.471l-60.214-62.39z"/></svg>