<svg xmlns="http://www.w3.org/2000/svg" width="892" height="171" fill="none" viewBox="0 0 892 171"><path fill="#d5e5ff" d="M44.93 2.89a9 9 0 0 0-7.8 4.513L1.207 69.768a9.05 9.05 0 0 0 0 9.027L37.13 141.16a9 9 0 0 0 7.8 4.513h71.848a9 9 0 0 0 7.8-4.513l35.923-62.365a9.04 9.04 0 0 0 0-9.027L124.578 7.403a9 9 0 0 0-7.8-4.514z"/><path fill="#69a3ff" d="M191.477 1.535c21.535 5.554 19.081 17.803 28.012 42.718 5.729 15.985 33.431 35.805 8.116 74.335-7.554 11.498-31.846 25.14-49.423 28.924-38.725 8.208-61.541-10.419-81.783-41.131-15.187-23.23-9.82-56.674 13.213-73.096 21.829-15.521 53.557-39.605 81.865-31.75"/><path fill="#231f20" d="M286.906 20.397h13.371v109.03h-13.371zM319.181 20.397h13.371v19.916c5.809-10.467 23.883-22.139 43.617-22.139 7.192 0 14.293 1.019 19.826 3.15 5.44 2.13 10.143 5.28 13.924 9.448s6.639 9.449 8.668 15.84c1.936 6.3 2.951 13.618 2.951 21.862v60.953h-13.371V69.956c0-6.67-.738-12.413-2.213-17.322-1.476-4.91-3.689-8.986-6.547-12.32-2.859-3.335-6.455-5.744-10.789-7.319-4.242-1.574-9.13-2.315-14.662-2.315-6.363 0-12.08.926-17.152 2.871s-9.406 4.632-13.002 8.152a35.1 35.1 0 0 0-8.207 12.413c-1.937 4.724-2.859 10.097-2.859 15.933v59.47h-13.371V20.397zM538 51.893c2.766-6.948 6.547-12.97 11.435-18.064 4.887-5.002 10.696-8.893 17.428-11.58 6.731-2.685 14.201-4.075 22.316-4.075s15.491 1.39 22.223 4.169 12.541 6.67 17.428 11.579c4.98 5.002 8.761 10.93 11.435 17.97s4.057 14.822 4.057 23.344v4.261h-99.037V67.64h88.617l-2.858 7.504c0-6.67-1.015-12.784-3.136-18.25q-3.181-8.198-8.576-14.172c-3.688-3.983-8.022-6.948-13.186-9.078s-10.789-3.15-16.875-3.15-11.896 1.112-17.06 3.242-9.59 5.188-13.279 9.079c-3.688 3.89-6.639 8.522-8.76 13.987s-3.135 11.394-3.135 17.971 1.106 12.69 3.227 18.156 5.164 10.097 8.945 13.988 8.299 6.855 13.463 9.078c5.164 2.13 10.882 3.242 17.152 3.242 9.775 0 18.074-2.501 24.99-7.411 6.916-4.909 11.803-11.857 14.846-20.657l13.002 4.447c-3.78 11.115-10.327 19.916-19.457 26.4-9.221 6.484-20.194 9.726-33.104 9.726-8.207 0-15.861-1.389-22.685-4.075-6.916-2.687-12.818-6.577-17.797-11.58-4.98-5.002-8.853-11.023-11.619-17.97-2.766-6.948-4.242-14.636-4.242-23.251s1.383-15.933 4.15-22.973zM659.723 51.893c2.767-6.948 6.547-12.97 11.435-18.064 4.887-5.095 10.697-8.893 17.428-11.58 6.732-2.685 14.201-4.075 22.316-4.075s15.492 1.39 22.223 4.169c6.732 2.779 12.541 6.67 17.429 11.579 4.979 5.002 8.76 10.93 11.434 17.97s4.058 14.822 4.058 23.344v4.261h-99.038V67.64h88.617l-2.858 7.504c0-6.67-1.014-12.784-3.135-18.25s-4.98-10.189-8.668-14.172c-3.689-3.983-8.023-6.948-13.187-9.078s-10.789-3.15-16.875-3.15-11.896 1.112-17.06 3.242-9.59 5.188-13.278 9.079c-3.689 3.89-6.64 8.522-8.761 13.987s-3.135 11.394-3.135 17.971 1.107 12.69 3.228 18.156c2.12 5.465 5.163 10.097 8.944 13.988s8.299 6.855 13.463 9.078c5.164 2.13 10.882 3.242 17.152 3.242 9.775 0 18.074-2.501 24.99-7.411 6.916-4.909 11.803-11.857 14.846-20.657l13.003 4.447c-3.781 11.115-10.236 19.916-19.458 26.4s-20.194 9.726-33.104 9.726c-8.207 0-15.861-1.389-22.685-4.075-6.916-2.687-12.817-6.577-17.705-11.58-4.979-5.002-8.852-11.023-11.619-17.97-2.858-6.948-4.241-14.636-4.241-23.251s1.383-15.933 4.149-22.973zM780.528 20.397h13.371v24.64c4.518-8.058 10.051-13.71 18.074-18.99 7.93-5.187 17.336-7.873 28.217-7.873 7.746 0 14.662 1.297 21.025 3.983 6.27 2.687 11.619 6.392 16.045 11.209s7.746 10.745 10.144 17.786c2.397 7.04 3.596 15.006 3.596 23.806s-1.199 16.767-3.596 23.714c-2.398 7.04-5.718 12.969-10.144 17.786-4.426 4.91-9.682 8.615-15.953 11.209-6.178 2.593-13.186 3.89-20.932 3.89-10.789 0-20.287-2.686-28.31-7.966s-13.648-11.95-18.166-18.897V170h-13.371zm16.599 72.717c2.12 5.466 5.163 10.19 9.036 14.081s8.484 6.854 13.925 8.985c5.44 2.131 11.25 3.15 17.428 3.15s11.619-1.019 16.599-2.965c4.979-1.945 9.221-4.817 12.725-8.707s6.086-8.43 8.023-13.895c1.936-5.466 2.858-11.58 2.858-18.527s-1.014-13.34-2.951-18.897c-1.936-5.465-4.702-10.19-8.114-14.08s-7.654-6.763-12.726-8.8c-4.979-1.946-10.512-2.965-16.598-2.965-6.087 0-12.173 1.02-17.429 3.15s-9.867 5.095-13.74 8.985-6.823 8.523-9.036 13.988c-2.214 5.465-3.228 11.579-3.228 18.341s1.107 12.506 3.228 18.064z"/><path fill="#231f20" d="M538.834 18.174h-19.55l-68.422 60.86v-60.86h-12.91v111.253h12.91V96.079l.184.185 23.33-20.75 51.363 53.913h18.443l-60.123-62.528z"/></svg>