<svg xmlns="http://www.w3.org/2000/svg" width="248" height="159" fill="none" viewBox="0 0 248 159"><path fill="#fbf9f4" d="M121.693 2.78a14 14 0 0 1 12.124 7l35.898 62.177c2.5 4.332 2.5 9.669 0 14l-35.898 62.177a14 14 0 0 1-12.124 7H49.897a14 14 0 0 1-12.124-7L1.876 85.957a14 14 0 0 1 0-14L37.773 9.78a14 14 0 0 1 12.124-7zm-71.796 10a4 4 0 0 0-3.464 2L10.536 76.957a4 4 0 0 0 0 4l35.897 62.177a4 4 0 0 0 3.464 2h71.796a4 4 0 0 0 3.464-2l35.897-62.177a4 4 0 0 0 0-4L125.157 14.78a4 4 0 0 0-3.464-2z"/><path fill="#fbf9f4" d="M97.23 113.646c-16.553-25.262-10.798-61.587 14.462-79.555l.006-.004c10.773-7.642 24.524-17.796 39.151-24.97 14.564-7.141 30.875-11.782 46.709-7.432h.001c5.807 1.493 10.377 3.533 14.008 6.393 3.677 2.895 6.095 6.397 7.932 10.339 1.784 3.828 3.083 8.226 4.426 12.89 1.372 4.76 2.848 10.022 5.016 16.056 1.197 3.333 3.604 6.994 6.755 11.916 3.007 4.696 6.466 10.235 8.9 16.621 2.463 6.46 3.9 13.826 2.92 22.25-.977 8.405-4.324 17.561-10.984 27.675-4.419 6.709-13.191 13.442-22.584 18.853-9.525 5.488-20.464 10.06-29.867 12.079l-.007.001-.008.002c-20.379 4.31-37.001 1.621-51.228-6.489-14.048-8.007-25.319-21.05-35.598-36.61l-.005-.008zm20.137-71.565c-20.765 14.775-25.735 45.123-11.95 66.179l.001-.001c9.947 15.058 20.19 26.611 32.273 33.498 11.9 6.783 26.023 9.287 44.332 5.418l.771-.171c8.013-1.839 17.649-5.856 26.261-10.818 9.023-5.198 16.162-10.998 19.292-15.752 5.988-9.093 8.667-16.812 9.435-23.415.765-6.581-.332-12.354-2.343-17.628-2.039-5.348-4.993-10.138-7.996-14.829-2.859-4.466-6.059-9.25-7.725-13.886-2.294-6.386-3.858-11.965-5.21-16.655-1.378-4.785-2.484-8.443-3.892-11.465-1.356-2.908-2.918-5.05-5.112-6.78-2.241-1.763-5.434-3.326-10.387-4.6l-.043-.011-.043-.013c-12.426-3.44-26.079.004-39.866 6.766-13.75 6.743-26.759 16.331-37.798 24.163"/></svg>