<svg xmlns="http://www.w3.org/2000/svg" width="241" height="150" fill="none" viewBox="0 0 241 150"><path fill="#d5e5ff" d="M44.898 2.88a9 9 0 0 0-7.795 4.5L1.206 69.557a9 9 0 0 0 0 9l35.897 62.177a9 9 0 0 0 7.795 4.5h71.795a9 9 0 0 0 7.794-4.5l35.898-62.177a9 9 0 0 0 0-9L124.487 7.38a9 9 0 0 0-7.794-4.5z"/><path fill="#69a3ff" d="M191.339 1.53c21.519 5.537 19.067 17.75 27.991 42.59 5.725 15.936 33.406 35.696 8.11 74.11-7.549 11.463-31.823 25.064-49.387 28.836-38.697 8.184-61.497-10.387-81.724-41.006-15.176-23.16-9.813-56.503 13.204-72.876C131.346 17.71 163.051-6.3 191.339 1.53"/></svg>