<svg xmlns="http://www.w3.org/2000/svg" width="892" height="174" fill="none" viewBox="0 0 892 174"><path fill="#fbf9f4" d="M123.611 2.784c4.985 0 9.591 2.672 12.084 7.009l35.777 62.255a14.07 14.07 0 0 1 0 14.018l-35.777 62.255a13.94 13.94 0 0 1-12.084 7.009H52.055a13.94 13.94 0 0 1-12.084-7.009L4.194 86.066a14.07 14.07 0 0 1 0-14.018L39.97 9.793a13.94 13.94 0 0 1 12.084-7.01zM52.055 12.797c-1.424 0-2.74.763-3.452 2.002L12.825 77.054a4.02 4.02 0 0 0 0 4.005l35.778 62.256a3.98 3.98 0 0 0 3.452 2.002h71.556c1.424 0 2.74-.763 3.453-2.002l35.777-62.256a4.02 4.02 0 0 0 0-4.005L127.064 14.8a3.99 3.99 0 0 0-3.453-2.002z"/><path fill="#fbf9f4" d="M99.23 113.79c-16.498-25.294-10.762-61.665 14.414-79.655l.005-.004c10.737-7.652 24.443-17.82 39.021-25.002 14.515-7.15 30.772-11.797 46.553-7.442h.001c5.788 1.495 10.342 3.538 13.961 6.4 3.665 2.9 6.075 6.406 7.906 10.353 1.778 3.833 3.072 8.237 4.412 12.907 1.366 4.765 2.838 10.034 4.998 16.076 1.194 3.337 3.592 7.003 6.733 11.93 2.996 4.703 6.444 10.25 8.87 16.643 2.455 6.468 3.887 13.843 2.911 22.279-.975 8.414-4.31 17.583-10.948 27.709-4.404 6.718-13.147 13.459-22.509 18.877-9.493 5.495-20.396 10.073-29.767 12.095h-.007l-.008.002c-20.311 4.316-36.877 1.623-51.057-6.497-14.001-8.017-25.234-21.076-35.48-36.657l-.004-.007zm20.07-71.656c-20.696 14.794-25.65 45.18-11.911 66.263l.001-.001c9.914 15.077 20.123 26.644 32.166 33.541 11.86 6.791 25.936 9.298 44.184 5.424l.768-.171c7.987-1.842 17.59-5.864 26.174-10.832 8.992-5.204 16.107-11.012 19.228-15.772 5.968-9.104 8.637-16.833 9.403-23.444.763-6.59-.331-12.37-2.335-17.65-2.033-5.355-4.976-10.151-7.97-14.848-2.849-4.472-6.039-9.263-7.698-13.904-2.287-6.394-3.846-11.98-5.193-16.676-1.374-4.79-2.476-8.454-3.88-11.48-1.351-2.911-2.907-5.057-5.095-6.787-2.233-1.766-5.416-3.331-10.352-4.607l-.043-.011-.043-.013c-12.384-3.444-25.992.005-39.733 6.774-13.704 6.752-26.669 16.352-37.671 24.194M286 24.336h13.391v108.7H286zm32.323 0h13.392v19.856c5.818-10.436 23.919-22.073 43.683-22.073 7.203 0 14.315 1.016 19.856 3.14 5.449 2.124 10.159 5.264 13.945 9.42 3.787 4.156 6.65 9.42 8.681 15.793 1.94 6.28 2.956 13.576 2.956 21.795v60.769h-13.392V73.745c0-6.65-.738-12.376-2.216-17.27s-3.694-8.959-6.557-12.283c-2.863-3.325-6.465-5.726-10.805-7.296-4.249-1.57-9.143-2.31-14.685-2.31-6.372 0-12.098.924-17.177 2.864-5.08 1.94-9.421 4.618-13.022 8.127a35 35 0 0 0-8.22 12.375c-1.939 4.71-2.863 10.067-2.863 15.885v59.291h-13.391V24.336zm219.152 31.4c2.77-6.927 6.557-12.93 11.452-18.01 4.894-4.986 10.713-8.865 17.454-11.543 6.742-2.679 14.223-4.064 22.35-4.064s15.515 1.385 22.257 4.156 12.56 6.65 17.455 11.544c4.987 4.987 8.774 10.898 11.452 17.917s4.063 14.776 4.063 23.273v4.248h-99.187V71.436h88.751l-2.863 7.48c0-6.649-1.015-12.744-3.14-18.193q-3.186-8.173-8.588-14.13c-3.695-3.971-8.035-6.927-13.207-9.05-5.172-2.125-10.805-3.14-16.901-3.14-6.095 0-11.913 1.107-17.085 3.232s-9.605 5.171-13.299 9.05-6.649 8.497-8.774 13.946-3.14 11.36-3.14 17.916 1.109 12.653 3.233 18.102 5.172 10.066 8.958 13.945 8.312 6.834 13.484 9.051c5.171 2.124 10.897 3.232 17.177 3.232 9.79 0 18.102-2.494 25.028-7.388 6.927-4.895 11.822-11.822 14.869-20.595l13.022 4.433c-3.786 11.082-10.344 19.856-19.487 26.32-9.235 6.465-20.225 9.698-33.155 9.698-8.219 0-15.884-1.386-22.718-4.064-6.927-2.678-12.838-6.557-17.825-11.544s-8.866-10.99-11.636-17.917c-2.771-6.926-4.249-14.592-4.249-23.18 0-8.59 1.386-15.885 4.156-22.904zm121.908 0c2.77-6.927 6.557-12.93 11.452-18.01 4.894-5.079 10.713-8.865 17.454-11.543 6.742-2.679 14.223-4.064 22.35-4.064s15.515 1.385 22.257 4.156 12.56 6.65 17.455 11.544c4.987 4.987 8.774 10.898 11.452 17.917s4.063 14.776 4.063 23.273v4.248h-99.187V71.436h88.752l-2.863 7.48c0-6.649-1.016-12.744-3.14-18.193s-4.988-10.159-8.682-14.13-8.034-6.927-13.206-9.05c-5.172-2.125-10.806-3.14-16.901-3.14s-11.914 1.107-17.085 3.232-9.605 5.171-13.299 9.05-6.65 8.497-8.774 13.946-3.14 11.36-3.14 17.916 1.108 12.653 3.232 18.102 5.172 10.066 8.959 13.945 8.312 6.834 13.483 9.051c5.172 2.124 10.898 3.232 17.178 3.232 9.79 0 18.101-2.494 25.028-7.388s11.821-11.822 14.869-20.595l13.022 4.433c-3.787 11.082-10.252 19.856-19.487 26.32-9.235 6.465-20.225 9.698-33.155 9.698-8.219 0-15.885-1.386-22.719-4.064-6.926-2.678-12.837-6.557-17.732-11.544-4.987-4.987-8.866-10.99-11.636-17.917-2.863-6.926-4.248-14.592-4.248-23.18 0-8.59 1.385-15.885 4.155-22.904zm120.988-31.4h13.391v24.566c4.526-8.035 10.067-13.669 18.102-18.933 7.942-5.172 17.362-7.85 28.26-7.85 7.757 0 14.684 1.293 21.056 3.971 6.28 2.679 11.637 6.373 16.07 11.175s7.758 10.713 10.159 17.732 3.602 14.961 3.602 23.735-1.201 16.716-3.602 23.642c-2.401 7.019-5.726 12.93-10.159 17.732-4.433 4.895-9.697 8.589-15.977 11.175-6.188 2.586-13.207 3.879-20.965 3.879-10.805 0-20.317-2.678-28.352-7.943s-13.668-11.913-18.194-18.84v65.11h-13.391zm16.624 72.497c2.124 5.449 5.171 10.159 9.05 14.038s8.497 6.834 13.946 8.958 11.267 3.14 17.454 3.14 11.637-1.016 16.624-2.955 9.235-4.802 12.745-8.681 6.095-8.405 8.035-13.853c1.939-5.45 2.863-11.545 2.863-18.471s-1.016-13.299-2.956-18.84c-1.939-5.45-4.71-10.16-8.127-14.038s-7.665-6.742-12.745-8.773c-4.987-1.94-10.528-2.956-16.623-2.956s-12.191 1.016-17.455 3.14-9.882 5.08-13.761 8.959-6.834 8.496-9.05 13.945-3.233 11.544-3.233 18.286 1.108 12.468 3.233 18.009z"/><path fill="#fbf9f4" d="M538.31 22.12h-19.579l-68.527 60.675V22.12h-12.929v110.917h12.929V99.789l.185.184 23.365-20.687 51.441 53.75h18.471l-60.214-62.339z"/></svg>