<svg xmlns="http://www.w3.org/2000/svg" width="83" height="21" fill="none" viewBox="0 0 83 21"><path fill="#231f20" d="M0 .31h1.806v14.66H0zm4.36.001h1.805v3.675h.05c.473-1.283 1.22-2.267 2.217-2.952S10.674 0 12.156 0c.972 0 1.819.137 2.566.423.735.287 1.37.71 1.88 1.27.511.561.897 1.271 1.171 2.13.262.848.399 1.832.399 2.94v8.195h-1.806V6.962c0-.896-.1-1.669-.3-2.329a4.5 4.5 0 0 0-.883-1.656 3.4 3.4 0 0 0-1.457-.984c-.573-.212-1.234-.312-1.98-.312-.86 0-1.633.125-2.317.387a5.1 5.1 0 0 0-1.757 1.096 4.7 4.7 0 0 0-1.108 1.668c-.262.636-.386 1.358-.386 2.143v7.996H4.372V.31zm30.178 4.234a7.4 7.4 0 0 1 1.544-2.428A6.8 6.8 0 0 1 38.436.56c.91-.361 1.918-.548 3.014-.548s2.093.187 3.002.56 1.694.897 2.354 1.557a6.8 6.8 0 0 1 1.544 2.416c.361.947.548 1.993.548 3.139v.573H35.522V6.663H47.49l-.386 1.008c0-.896-.137-1.718-.424-2.453a6.1 6.1 0 0 0-1.158-1.906 4.9 4.9 0 0 0-1.781-1.22c-.697-.287-1.457-.424-2.28-.424-.821 0-1.606.15-2.304.436a5.2 5.2 0 0 0-1.793 1.22 5.7 5.7 0 0 0-1.183 1.881c-.287.735-.424 1.532-.424 2.417s.15 1.706.436 2.44a5.55 5.55 0 0 0 1.209 1.882 5.6 5.6 0 0 0 1.818 1.22c.697.287 1.47.436 2.317.436 1.32 0 2.44-.336 3.375-.996.934-.66 1.594-1.595 2.005-2.778l1.756.598c-.51 1.495-1.395 2.678-2.628 3.55-1.245.871-2.727 1.307-4.471 1.307-1.109 0-2.142-.187-3.064-.548a6.85 6.85 0 0 1-2.404-1.556 7.1 7.1 0 0 1-1.57-2.417c-.373-.934-.572-1.968-.572-3.126s.187-2.142.56-3.089zm16.44 0a7.4 7.4 0 0 1 1.545-2.428A6.6 6.6 0 0 1 54.877.56c.909-.361 1.918-.548 3.014-.548s2.092.187 3.001.56c.91.374 1.694.897 2.354 1.557a6.8 6.8 0 0 1 1.545 2.416c.36.947.548 1.993.548 3.139v.573H51.962V6.663h11.97l-.387 1.008c0-.896-.137-1.718-.423-2.453a5.9 5.9 0 0 0-1.171-1.906 4.9 4.9 0 0 0-1.781-1.22c-.698-.287-1.457-.424-2.28-.424a6.1 6.1 0 0 0-2.303.436 5.15 5.15 0 0 0-1.794 1.22 5.7 5.7 0 0 0-1.183 1.881c-.287.735-.424 1.532-.424 2.417s.15 1.706.436 2.44a5.6 5.6 0 0 0 1.208 1.882 5.6 5.6 0 0 0 1.819 1.22c.697.287 1.47.436 2.316.436 1.32 0 2.441-.336 3.376-.996.934-.66 1.594-1.595 2.005-2.778l1.756.598c-.51 1.495-1.382 2.678-2.628 3.55-1.245.871-2.728 1.307-4.471 1.307-1.109 0-2.142-.187-3.064-.548a6.7 6.7 0 0 1-2.392-1.556 7.1 7.1 0 0 1-1.569-2.417c-.386-.934-.573-1.968-.573-3.126s.187-2.142.56-3.089zM67.294.311H69.1v3.861h.05c.51-1.357 1.307-2.378 2.378-3.1C72.612.361 73.87 0 75.34 0c1.046 0 1.98.174 2.84.536a6.2 6.2 0 0 1 2.166 1.507c.598.647 1.047 1.444 1.37 2.39s.486 2.019.486 3.202-.162 2.254-.486 3.188c-.323.947-.772 1.744-1.37 2.392a5.9 5.9 0 0 1-2.154 1.507c-.835.348-1.781.523-2.827.523-1.458 0-2.74-.361-3.824-1.071s-1.88-1.744-2.404-3.102h-.05v9.342h-1.806V.31zm2.254 9.777a5.45 5.45 0 0 0 1.22 1.894 5.4 5.4 0 0 0 1.881 1.208 6.4 6.4 0 0 0 2.354.423 6.1 6.1 0 0 0 2.242-.398 4.45 4.45 0 0 0 1.719-1.171c.473-.523.822-1.133 1.084-1.868.261-.735.386-1.557.386-2.491s-.137-1.794-.399-2.541A5.8 5.8 0 0 0 78.94 3.25c-.46-.523-1.034-.91-1.719-1.183a6.1 6.1 0 0 0-2.242-.4c-.822.001-1.644.138-2.354.424A5.5 5.5 0 0 0 70.77 3.3a5.6 5.6 0 0 0-1.22 1.88c-.3.735-.437 1.557-.437 2.466s.15 1.682.436 2.429z"/><path fill="#231f20" d="M27.264 5.965 34.301.398V.336h-2.603l-5.094 3.973-4.322 3.462h-.062V.011h-1.806V14.97h1.806V9.963L25.956 7l6.788 7.971h2.304v-.05z"/></svg>