<svg xmlns="http://www.w3.org/2000/svg" width="120" height="23" fill="none" viewBox="0 0 120 23"><g clip-path="url(#a)"><g clip-path="url(#b)"><path fill="#d5e5ff" d="M6.147.42c-.434 0-.834.231-1.051.606L.257 9.407a1.21 1.21 0 0 0 0 1.214L5.096 19c.217.376.617.607 1.05.607h9.678c.434 0 .834-.231 1.05-.606l4.84-8.381a1.21 1.21 0 0 0 0-1.214l-4.84-8.38a1.21 1.21 0 0 0-1.05-.607z"/><path fill="#69a3ff" d="M25.417.258c2.939.744 2.604 2.383 3.823 5.718.782 2.14 4.563 4.793 1.108 9.95-1.031 1.54-4.347 3.365-6.746 3.872-5.286 1.098-8.4-1.395-11.163-5.506-2.073-3.11-1.34-7.586 1.803-9.784 2.98-2.078 7.31-5.301 11.174-4.25"/><path fill="#231f20" d="M37.64 2.596h1.807v14.66H37.64zM42 2.596h1.806V6.27h.05c.473-1.283 1.22-2.267 2.217-2.952.996-.685 2.242-1.034 3.724-1.034.971 0 1.818.137 2.566.424.734.286 1.37.71 1.88 1.27s.897 1.27 1.17 2.13c.262.847.4 1.83.4 2.94v8.194h-1.806V9.246c0-.896-.1-1.669-.3-2.329a4.5 4.5 0 0 0-.884-1.656 3.4 3.4 0 0 0-1.457-.984c-.573-.212-1.233-.311-1.98-.311-.86 0-1.632.124-2.317.386a5.1 5.1 0 0 0-1.756 1.096 4.7 4.7 0 0 0-1.108 1.669c-.262.635-.386 1.357-.386 2.142v7.996h-1.806V2.595zM72.179 6.83a7.4 7.4 0 0 1 1.544-2.428 6.8 6.8 0 0 1 2.354-1.557c.909-.361 1.918-.548 3.014-.548s2.092.187 3.002.56 1.693.897 2.353 1.557a6.8 6.8 0 0 1 1.545 2.416c.361.947.548 1.993.548 3.14v.572H73.162V8.948h11.97l-.387 1.009c0-.897-.137-1.72-.423-2.454a6.1 6.1 0 0 0-1.158-1.906 4.94 4.94 0 0 0-1.782-1.22c-.697-.287-1.457-.424-2.279-.424s-1.606.15-2.304.436a5.16 5.16 0 0 0-1.793 1.22 5.7 5.7 0 0 0-1.183 1.882c-.287.734-.424 1.532-.424 2.416s.15 1.706.436 2.441a5.55 5.55 0 0 0 1.208 1.88 5.6 5.6 0 0 0 1.818 1.221c.698.287 1.47.436 2.317.436 1.32 0 2.441-.336 3.375-.996s1.594-1.594 2.005-2.778l1.757.598c-.51 1.495-1.395 2.678-2.628 3.55-1.246.872-2.728 1.308-4.471 1.308-1.11 0-2.143-.187-3.064-.548a6.85 6.85 0 0 1-2.404-1.557 7.1 7.1 0 0 1-1.57-2.417c-.373-.934-.572-1.967-.572-3.126s.186-2.142.56-3.089zM88.619 6.83a7.4 7.4 0 0 1 1.544-2.428 6.6 6.6 0 0 1 2.354-1.557c.91-.361 1.918-.548 3.014-.548s2.093.187 3.002.56c.91.374 1.694.897 2.354 1.557a6.8 6.8 0 0 1 1.544 2.416c.362.947.548 1.993.548 3.14v.572H89.603V8.948h11.969l-.386 1.009c0-.897-.137-1.72-.424-2.454a5.9 5.9 0 0 0-1.17-1.906 4.95 4.95 0 0 0-1.781-1.22c-.698-.287-1.458-.424-2.28-.424s-1.606.15-2.304.436a5.16 5.16 0 0 0-1.793 1.22 5.7 5.7 0 0 0-1.184 1.882c-.286.734-.423 1.532-.423 2.416s.15 1.706.436 2.441a5.6 5.6 0 0 0 1.208 1.88 5.6 5.6 0 0 0 1.819 1.221c.697.287 1.47.436 2.316.436 1.32 0 2.441-.336 3.375-.996s1.595-1.594 2.006-2.778l1.756.598c-.511 1.495-1.383 2.678-2.628 3.55s-2.728 1.308-4.472 1.308c-1.108 0-2.142-.187-3.064-.548a6.7 6.7 0 0 1-2.39-1.557 7.1 7.1 0 0 1-1.57-2.417c-.386-.934-.573-1.967-.573-3.126s.187-2.142.56-3.089zM104.934 2.596h1.806v3.86h.05c.511-1.357 1.308-2.378 2.379-3.1 1.084-.71 2.342-1.072 3.811-1.072 1.046 0 1.981.175 2.84.536q1.27.538 2.167 1.507c.598.647 1.046 1.445 1.37 2.391.324.947.486 2.018.486 3.201s-.162 2.254-.486 3.188c-.324.947-.772 1.744-1.37 2.392a5.9 5.9 0 0 1-2.155 1.507c-.834.349-1.781.523-2.827.523-1.457 0-2.74-.361-3.824-1.071s-1.88-1.744-2.403-3.101h-.05v9.34h-1.806V2.597zm2.255 9.777c.286.735.697 1.37 1.22 1.893a5.4 5.4 0 0 0 1.881 1.208c.735.286 1.52.423 2.354.423s1.569-.137 2.242-.398a4.46 4.46 0 0 0 1.719-1.17c.473-.524.822-1.134 1.083-1.87.262-.734.386-1.556.386-2.49s-.137-1.794-.398-2.541a5.8 5.8 0 0 0-1.096-1.893c-.461-.523-1.034-.91-1.719-1.183a6.1 6.1 0 0 0-2.242-.399c-.822 0-1.644.137-2.354.424a5.5 5.5 0 0 0-1.856 1.208c-.523.523-.921 1.146-1.22 1.88-.299.735-.436 1.557-.436 2.466s.149 1.682.436 2.43z"/><path fill="#231f20" d="m64.905 8.25 7.037-5.567v-.062h-2.603l-5.094 3.973-4.322 3.462h-.062v-7.76h-1.806v14.96h1.806v-5.008l3.736-2.964 6.788 7.971h2.304v-.05z"/></g></g><defs><clipPath id="a"><path fill="#fff" d="M0 0h120v22.78H0z"/></clipPath><clipPath id="b"><path fill="#fff" d="M.018 0h119.966v22.78H.018z"/></clipPath></defs></svg>