<svg xmlns="http://www.w3.org/2000/svg" width="896" height="175" fill="none" viewBox="0 0 896 175"><path stroke="#231f20" stroke-width="10" d="M49.91 7.784a9 9 0 0 0-7.796 4.5L6.207 74.478a9 9 0 0 0 0 9.002l35.907 62.192a9 9 0 0 0 7.796 4.501h71.813a9 9 0 0 0 7.796-4.501l35.907-62.192a9 9 0 0 0 0-9.002l-35.907-62.192a9 9 0 0 0-7.796-4.501z"/><path stroke="#231f20" stroke-width="9.8" d="M196.387 6.433c21.525 5.539 19.072 17.754 27.998 42.6 5.727 15.94 33.415 35.706 8.113 74.128-7.551 11.467-31.832 25.071-49.4 28.844-38.706 8.186-61.512-10.39-81.744-41.016-15.18-23.166-9.816-56.518 13.207-72.894C136.379 22.617 168.092-1.4 196.387 6.433Z"/><path fill="#231f20" d="M288.839 25.173h13.394V133.9h-13.394zM321.17 25.173h13.395v19.86c5.82-10.438 23.925-22.077 43.694-22.077 7.205 0 14.318 1.016 19.861 3.14 5.45 2.125 10.161 5.266 13.949 9.423 3.787 4.157 6.651 9.422 8.683 15.796 1.94 6.282 2.956 13.58 2.956 21.801V133.9h-13.394V74.594c0-6.651-.739-12.378-2.217-17.274s-3.695-8.96-6.559-12.286-6.467-5.728-10.808-7.298c-4.25-1.57-9.145-2.31-14.688-2.31-6.374 0-12.101.924-17.182 2.864s-9.422 4.619-13.025 8.13a35 35 0 0 0-8.222 12.378c-1.94 4.71-2.863 10.069-2.863 15.888v59.306h-13.395V25.172zM542.377 56.58c2.771-6.928 6.558-12.932 11.454-18.013 4.896-4.988 10.716-8.868 17.459-11.547s14.226-4.064 22.355-4.064c8.13 0 15.52 1.385 22.263 4.157 6.744 2.77 12.563 6.65 17.459 11.547 4.989 4.988 8.776 10.9 11.455 17.92s4.065 14.78 4.065 23.28v4.249h-99.213V72.285h88.774l-2.864 7.482c0-6.65-1.016-12.748-3.14-18.198q-3.188-8.175-8.591-14.134c-3.696-3.972-8.037-6.928-13.21-9.053-5.173-2.124-10.808-3.14-16.905-3.14s-11.917 1.108-17.09 3.233-9.607 5.173-13.302 9.053-6.651 8.498-8.776 13.949c-2.124 5.45-3.141 11.362-3.141 17.92 0 6.56 1.109 12.656 3.234 18.106s5.173 10.069 8.96 13.949 8.314 6.836 13.487 9.053c5.173 2.125 10.9 3.233 17.182 3.233 9.792 0 18.106-2.494 25.034-7.39s11.824-11.824 14.873-20.6l13.025 4.434c-3.788 11.086-10.346 19.861-19.492 26.328-9.237 6.466-20.23 9.699-33.163 9.699-8.221 0-15.889-1.385-22.724-4.064-6.929-2.679-12.841-6.559-17.829-11.547s-8.868-10.993-11.639-17.921c-2.772-6.929-4.25-14.596-4.25-23.187s1.386-15.889 4.157-22.91zM664.315 56.58c2.771-6.928 6.559-12.932 11.454-18.013 4.896-5.08 10.716-8.868 17.46-11.547 6.743-2.679 14.226-4.064 22.355-4.064s15.519 1.385 22.262 4.157c6.744 2.77 12.564 6.65 17.46 11.547 4.988 4.988 8.775 10.9 11.454 17.92s4.065 14.78 4.065 23.28v4.249h-99.212V72.285h88.773l-2.863 7.482c0-6.65-1.017-12.748-3.141-18.198s-4.988-10.161-8.684-14.134c-3.695-3.972-8.036-6.928-13.209-9.053-5.173-2.124-10.808-3.14-16.905-3.14s-11.917 1.108-17.09 3.233-9.607 5.173-13.302 9.053-6.651 8.498-8.776 13.949c-2.125 5.45-3.141 11.362-3.141 17.92 0 6.56 1.109 12.656 3.233 18.106s5.174 10.069 8.961 13.949 8.314 6.836 13.487 9.053c5.173 2.125 10.9 3.233 17.182 3.233 9.792 0 18.106-2.494 25.034-7.39s11.824-11.824 14.873-20.6l13.025 4.434c-3.788 11.086-10.254 19.861-19.492 26.328-9.237 6.466-20.23 9.699-33.163 9.699-8.221 0-15.889-1.385-22.724-4.064-6.929-2.679-12.841-6.559-17.737-11.547-4.988-4.989-8.868-10.993-11.639-17.921-2.864-6.929-4.25-14.596-4.25-23.187s1.386-15.889 4.157-22.91zM785.333 25.173h13.395v24.572c4.526-8.037 10.069-13.672 18.105-18.937 7.945-5.173 17.367-7.852 28.268-7.852 7.759 0 14.687 1.293 21.061 3.972 6.282 2.679 11.64 6.374 16.074 11.177 4.434 4.804 7.76 10.716 10.161 17.737 2.402 7.02 3.603 14.965 3.603 23.74 0 8.776-1.201 16.72-3.603 23.649-2.401 7.02-5.727 12.932-10.161 17.736-4.434 4.896-9.7 8.591-15.981 11.178-6.189 2.586-13.21 3.879-20.97 3.879-10.808 0-20.323-2.678-28.359-7.944-8.037-5.265-13.672-11.917-18.198-18.845v65.126h-13.395zm16.628 72.515c2.124 5.45 5.173 10.162 9.053 14.041 3.879 3.88 8.498 6.836 13.948 8.961s11.27 3.141 17.46 3.141c6.189 0 11.639-1.016 16.627-2.956 4.989-1.94 9.238-4.804 12.748-8.684 3.511-3.88 6.097-8.406 8.037-13.856s2.864-11.547 2.864-18.475-1.016-13.303-2.956-18.845c-1.94-5.45-4.711-10.162-8.129-14.041-3.418-3.88-7.668-6.744-12.748-8.776-4.989-1.94-10.531-2.956-16.628-2.956s-12.194 1.016-17.459 3.14c-5.266 2.125-9.885 5.081-13.764 8.961-3.88 3.88-6.836 8.499-9.053 13.949s-3.233 11.547-3.233 18.29c0 6.744 1.108 12.471 3.233 18.014z"/><path fill="#231f20" d="M541.211 22.956h-19.584l-68.543 60.691V22.956h-12.933V133.9h12.933v-33.256l.185.185 23.371-20.692 51.454 53.763h18.475L486.34 71.546z"/></svg>