<svg xmlns="http://www.w3.org/2000/svg" width="902" height="159" fill="none" viewBox="0 0 902 159"><path stroke="#231f20" stroke-width="10" d="M49.898 7.782a9 9 0 0 0-7.795 4.5L6.206 74.458a9 9 0 0 0 0 9l35.897 62.177a9 9 0 0 0 7.795 4.5h71.795a9 9 0 0 0 7.794-4.5l35.898-62.177a9 9 0 0 0 0-9l-35.898-62.176a9 9 0 0 0-7.794-4.5z"/><path stroke="#231f20" stroke-width="9.8" d="M196.339 6.431c21.519 5.538 19.067 17.75 27.991 42.59 5.725 15.936 33.406 35.697 8.11 74.11-7.549 11.464-31.823 25.065-49.387 28.837-38.697 8.183-61.497-10.388-81.724-41.007-15.176-23.16-9.813-56.503 13.204-72.876C136.346 22.612 168.051-1.4 196.339 6.431Z"/><path fill="#231f20" d="M294 5.716h13.391v108.7H294zM326.324 5.716h13.391v19.857C345.533 15.137 363.634 3.5 383.398 3.5c7.204 0 14.315 1.016 19.856 3.14 5.449 2.124 10.159 5.264 13.945 9.42 3.787 4.156 6.65 9.42 8.682 15.793 1.939 6.28 2.955 13.575 2.955 21.795v60.769h-13.391V55.126c0-6.65-.739-12.376-2.217-17.27-1.477-4.895-3.694-8.959-6.557-12.283-2.863-3.325-6.465-5.726-10.805-7.296-4.248-1.57-9.143-2.31-14.684-2.31-6.373 0-12.099.924-17.178 2.864s-9.42 4.617-13.022 8.127a35 35 0 0 0-8.22 12.375c-1.939 4.71-2.863 10.067-2.863 15.885v59.291h-13.391V5.716zM547.475 37.117c2.771-6.927 6.557-12.93 11.452-18.01 4.895-4.986 10.713-8.865 17.455-11.543 6.741-2.679 14.222-4.064 22.349-4.064s15.516 1.385 22.257 4.156 12.56 6.65 17.455 11.544c4.987 4.987 8.774 10.898 11.452 17.917s4.064 14.776 4.064 23.273v4.248h-99.188V52.817h88.752l-2.863 7.48c0-6.649-1.016-12.744-3.14-18.193q-3.186-8.175-8.589-14.13c-3.694-3.971-8.035-6.927-13.207-9.051s-10.805-3.14-16.9-3.14c-6.096 0-11.914 1.108-17.086 3.232s-9.605 5.172-13.299 9.051-6.649 8.497-8.773 13.945c-2.125 5.45-3.14 11.36-3.14 17.917s1.108 12.653 3.232 18.101c2.124 5.45 5.172 10.067 8.958 13.946s8.312 6.834 13.484 9.05c5.172 2.125 10.898 3.233 17.178 3.233 9.789 0 18.101-2.494 25.027-7.388s11.822-11.822 14.869-20.595l13.022 4.433c-3.786 11.082-10.343 19.856-19.486 26.32-9.236 6.465-20.226 9.698-33.155 9.698-8.22 0-15.885-1.386-22.719-4.064-6.927-2.678-12.837-6.557-17.825-11.544s-8.865-10.99-11.636-17.917c-2.771-6.926-4.248-14.592-4.248-23.18 0-8.59 1.385-15.885 4.156-22.904zM669.383 37.117c2.771-6.927 6.557-12.93 11.452-18.01 4.895-5.079 10.713-8.865 17.455-11.543 6.742-2.679 14.222-4.064 22.349-4.064s15.516 1.385 22.257 4.156 12.561 6.65 17.455 11.544c4.987 4.987 8.774 10.898 11.452 17.917s4.064 14.776 4.064 23.273v4.248h-99.188V52.817h88.752l-2.863 7.48c0-6.649-1.016-12.744-3.14-18.193s-4.987-10.16-8.681-14.13c-3.695-3.971-8.035-6.927-13.207-9.051s-10.805-3.14-16.901-3.14c-6.095 0-11.913 1.108-17.085 3.232s-9.605 5.172-13.299 9.051-6.65 8.497-8.774 13.945c-2.124 5.45-3.14 11.36-3.14 17.917s1.109 12.653 3.233 18.101c2.124 5.45 5.172 10.067 8.958 13.946s8.312 6.834 13.484 9.05c5.171 2.125 10.897 3.233 17.177 3.233 9.79 0 18.102-2.494 25.028-7.388 6.927-4.895 11.821-11.822 14.869-20.595l13.022 4.433c-3.787 11.082-10.251 19.856-19.487 26.32-9.235 6.465-20.225 9.698-33.155 9.698-8.219 0-15.884-1.386-22.719-4.064-6.926-2.678-12.837-6.557-17.731-11.544-4.988-4.987-8.866-10.99-11.637-17.917-2.863-6.926-4.248-14.592-4.248-23.18 0-8.59 1.385-15.885 4.156-22.904zM790.371 5.716h13.391v24.566c4.526-8.034 10.067-13.668 18.102-18.932 7.942-5.172 17.362-7.85 28.26-7.85 7.758 0 14.684 1.293 21.057 3.971 6.28 2.678 11.636 6.373 16.069 11.175s7.758 10.713 10.159 17.732 3.602 14.961 3.602 23.735-1.201 16.716-3.602 23.642c-2.401 7.02-5.726 12.93-10.159 17.732-4.433 4.895-9.697 8.589-15.977 11.175-6.188 2.586-13.207 3.879-20.964 3.879-10.806 0-20.318-2.678-28.353-7.943s-13.668-11.913-18.194-18.84v65.11h-13.391zm16.624 72.498c2.124 5.449 5.172 10.159 9.051 14.038 3.878 3.879 8.496 6.834 13.945 8.958s11.267 3.14 17.455 3.14 11.636-1.016 16.623-2.955 9.236-4.803 12.745-8.681c3.51-3.88 6.096-8.405 8.035-13.853 1.939-5.45 2.863-11.545 2.863-18.471s-1.016-13.3-2.955-18.84c-1.94-5.45-4.71-10.16-8.128-14.038-3.417-3.879-7.665-6.742-12.744-8.774-4.987-1.94-10.529-2.955-16.624-2.955s-12.191 1.016-17.455 3.14-9.882 5.08-13.76 8.958c-3.879 3.88-6.835 8.497-9.051 13.946s-3.233 11.544-3.233 18.286 1.109 12.468 3.233 18.009z"/><path fill="#231f20" d="M546.31 3.5h-19.579l-68.526 60.676V3.5h-12.93v110.917h12.93V81.169l.184.185 23.366-20.687 51.441 53.75h18.47l-60.214-62.339z"/></svg>