<svg xmlns="http://www.w3.org/2000/svg" width="894" height="170" fill="none" viewBox="0 0 894 170"><path fill="#d5e5ff" d="M47.182 2.884a9.01 9.01 0 0 0-7.803 4.505L3.443 69.634a9.01 9.01 0 0 0 0 9.01L39.38 140.89a9.01 9.01 0 0 0 7.802 4.505h71.875a9.01 9.01 0 0 0 7.803-4.505l35.938-62.246a9.01 9.01 0 0 0 0-9.01L126.86 7.39a9.01 9.01 0 0 0-7.803-4.505z"/><path fill="#69a3ff" d="M193.785 1.532c21.544 5.543 19.089 17.769 28.023 42.636 5.731 15.955 33.443 35.737 8.119 74.193-7.557 11.476-31.859 25.092-49.442 28.868-38.739 8.193-61.565-10.399-81.814-41.051-15.193-23.186-9.825-56.566 13.218-72.957 21.837-15.491 53.577-39.529 81.896-31.69"/><path fill="#231f20" d="M286.317 20.288h13.406v108.82h-13.406zM318.676 20.288h13.406v19.878c5.825-10.448 23.946-22.097 43.732-22.097 7.211 0 14.33 1.017 19.878 3.143 5.455 2.127 10.17 5.27 13.961 9.43 3.79 4.161 6.656 9.431 8.69 15.81 1.942 6.288 2.959 13.592 2.959 21.82v60.836h-13.406V69.752c0-6.657-.74-12.39-2.219-17.29s-3.698-8.968-6.564-12.296c-2.867-3.329-6.472-5.732-10.818-7.304-4.253-1.572-9.153-2.312-14.7-2.312-6.38 0-12.112.925-17.197 2.866s-9.431 4.623-13.036 8.137a35 35 0 0 0-8.229 12.389c-1.942 4.715-2.866 10.077-2.866 15.902v59.357h-13.406V20.288zM540.072 51.723c2.774-6.934 6.565-12.944 11.465-18.03 4.9-4.992 10.725-8.875 17.474-11.556s14.238-4.068 22.374-4.068c8.137 0 15.533 1.387 22.282 4.16s12.574 6.657 17.474 11.557c4.993 4.993 8.784 10.91 11.465 17.937 2.681 7.026 4.068 14.793 4.068 23.299v4.253h-99.298V67.44h88.851l-2.867 7.49c0-6.658-1.017-12.76-3.143-18.215q-3.19-8.183-8.599-14.145c-3.698-3.976-8.043-6.935-13.221-9.061-5.177-2.126-10.817-3.143-16.919-3.143s-11.927 1.109-17.104 3.235c-5.178 2.127-9.616 5.178-13.314 9.061s-6.657 8.506-8.783 13.96c-2.127 5.456-3.144 11.373-3.144 17.937s1.11 12.667 3.236 18.122 5.178 10.077 8.968 13.961c3.791 3.883 8.321 6.841 13.499 9.06 5.177 2.127 10.91 3.236 17.197 3.236 9.8 0 18.121-2.496 25.055-7.396s11.834-11.835 14.886-20.618l13.036 4.438c-3.791 11.095-10.355 19.878-19.508 26.35-9.246 6.472-20.248 9.708-33.192 9.708-8.229 0-15.902-1.387-22.744-4.068-6.934-2.682-12.852-6.565-17.844-11.557-4.993-4.993-8.876-11.003-11.65-17.937-2.773-6.934-4.253-14.608-4.253-23.206 0-8.599 1.387-15.903 4.161-22.93zM662.116 51.723c2.773-6.934 6.564-12.944 11.464-18.03 4.9-5.084 10.725-8.875 17.474-11.556s14.238-4.068 22.375-4.068c8.136 0 15.532 1.387 22.281 4.16 6.75 2.774 12.574 6.657 17.475 11.557 4.992 4.993 8.783 10.91 11.464 17.937 2.681 7.026 4.068 14.793 4.068 23.299v4.253H669.42V67.44h88.85l-2.866 7.49c0-6.658-1.017-12.76-3.144-18.215-2.126-5.455-4.993-10.17-8.691-14.145-3.698-3.976-8.043-6.935-13.221-9.061s-10.817-3.143-16.919-3.143-11.927 1.109-17.105 3.235c-5.177 2.127-9.615 5.178-13.313 9.061s-6.657 8.506-8.784 13.96c-2.126 5.456-3.143 11.373-3.143 17.937s1.109 12.667 3.236 18.122c2.126 5.455 5.177 10.077 8.968 13.961 3.791 3.883 8.321 6.841 13.498 9.06 5.178 2.127 10.91 3.236 17.197 3.236 9.801 0 18.122-2.496 25.056-7.396s11.834-11.835 14.885-20.618l13.037 4.438c-3.791 11.095-10.263 19.878-19.509 26.35-9.245 6.472-20.248 9.708-33.191 9.708-8.229 0-15.903-1.387-22.744-4.068-6.935-2.682-12.852-6.565-17.752-11.557-4.993-4.993-8.876-11.003-11.649-17.937-2.867-6.934-4.253-14.608-4.253-23.206 0-8.599 1.386-15.903 4.16-22.93zM783.238 20.288h13.406V44.88c4.53-8.044 10.078-13.683 18.121-18.953 7.951-5.178 17.382-7.86 28.292-7.86 7.766 0 14.7 1.295 21.08 3.976 6.287 2.682 11.649 6.38 16.087 11.188 4.438 4.807 7.766 10.724 10.17 17.751S894 65.961 894 74.744c0 8.784-1.202 16.735-3.606 23.669-2.404 7.027-5.732 12.944-10.17 17.752-4.438 4.9-9.708 8.598-15.995 11.187-6.194 2.588-13.221 3.883-20.987 3.883-10.818 0-20.341-2.681-28.384-7.951-8.044-5.27-13.684-11.927-18.214-18.861v65.181h-13.406zm16.642 72.578c2.126 5.454 5.177 10.17 9.061 14.053 3.883 3.883 8.505 6.842 13.96 8.968s11.28 3.144 17.475 3.144c6.194 0 11.649-1.017 16.642-2.959 4.992-1.941 9.245-4.808 12.759-8.691 3.513-3.883 6.102-8.413 8.043-13.868 1.942-5.455 2.866-11.557 2.866-18.491s-1.017-13.314-2.958-18.861c-1.942-5.455-4.716-10.17-8.136-14.054-3.421-3.883-7.674-6.749-12.759-8.783-4.993-1.941-10.54-2.958-16.642-2.958s-12.205 1.017-17.475 3.143-9.892 5.085-13.775 8.968-6.842 8.506-9.061 13.961-3.236 11.557-3.236 18.306 1.109 12.482 3.236 18.03z"/><path fill="#231f20" d="M538.906 18.069h-19.601l-68.602 60.743V18.07h-12.944v111.039h12.944V95.824l.185.185 23.391-20.71 51.498 53.809h18.491l-60.281-62.407z"/></svg>