<svg xmlns="http://www.w3.org/2000/svg" width="245" height="244" fill="none" viewBox="0 0 245 244"><g clip-path="url(#a)"><path fill="#fff" d="M14.337 174.621c-25.354-38.816-16.539-94.63 22.15-122.239l.01-.006c16.5-11.742 37.562-27.344 59.966-38.366C118.77 3.036 143.752-4.095 168.005 2.59l.002-.002c8.894 2.296 15.893 5.43 21.455 9.824 5.631 4.448 9.335 9.83 12.149 15.886 2.732 5.882 4.722 12.64 6.78 19.807 2.1 7.312 4.362 15.398 7.682 24.67 1.834 5.12 5.52 10.747 10.346 18.309 4.606 7.216 9.904 15.727 13.633 25.539 3.772 9.925 5.973 21.244 4.472 34.189-1.497 12.913-6.623 26.982-16.824 42.522-6.768 10.309-20.205 20.654-34.591 28.969-14.589 8.431-31.345 15.457-45.747 18.56l-.01.001-.012.003c-31.215 6.622-56.673 2.49-78.465-9.971-21.516-12.303-38.778-32.343-54.523-56.253l-.008-.012zM45.179 64.658C13.374 87.361 5.762 133.992 26.876 166.345l.001-.001c15.236 23.137 30.925 40.888 49.432 51.471 18.227 10.421 39.858 14.269 67.902 8.324l1.18-.262c12.274-2.827 27.032-8.999 40.224-16.623 13.82-7.987 24.754-16.899 29.549-24.203 9.171-13.972 13.274-25.833 14.45-35.978 1.173-10.113-.508-18.983-3.588-27.086-3.123-8.218-7.647-15.577-12.247-22.785-4.379-6.862-9.281-14.214-11.832-21.336-3.514-9.813-5.91-18.385-7.98-25.592-2.111-7.352-3.805-12.973-5.962-17.616-2.076-4.469-4.468-7.76-7.83-10.416-3.431-2.71-8.323-5.112-15.909-7.07l-.066-.017-.066-.02c-19.032-5.285-39.944.007-61.061 10.396-21.06 10.36-40.983 25.094-57.892 37.127z"/></g><defs><clipPath id="a"><path fill="#fff" d="M0 0h245v244H0z"/></clipPath></defs></svg>