<svg xmlns="http://www.w3.org/2000/svg" width="263" height="234" fill="none" viewBox="0 0 263 234"><g clip-path="url(#a)"><path fill="#fff" d="M16.142 119.78a6.13 6.13 0 0 1 0-6.128l55.001-95.266a6.13 6.13 0 0 1 5.308-3.064h110.003a6.13 6.13 0 0 1 5.307 3.064l55.001 95.265a6.13 6.13 0 0 1 0 6.129l-55.001 95.265a6.13 6.13 0 0 1-5.308 3.064H76.451a6.13 6.13 0 0 1-5.308-3.065zm41.732 102.925a21.45 21.45 0 0 0 18.577 10.726l110.002-.001a21.45 21.45 0 0 0 18.577-10.725l55.001-95.264a21.45 21.45 0 0 0 0-21.451L205.03 10.726A21.45 21.45 0 0 0 186.454 0L76.451 0a21.45 21.45 0 0 0-18.577 10.725l-55 95.266a21.45 21.45 0 0 0 0 21.45z"/></g><defs><clipPath id="a"><path fill="#fff" d="M0 0h263v234H0z"/></clipPath></defs></svg>