<svg xmlns="http://www.w3.org/2000/svg" width="13" height="13" fill="none" viewBox="0 0 13 13"><g fill="#3784ff" clip-path="url(#a)"><path d="M5.96 6.142c.133-.05.185-.173.22-.319l-.023.022c.03-.216.001-.474.191-.613.314-.234.591-.085.843-.495.219-.357.622-.581.78-.789a.3.3 0 0 0 .056-.104c.08-.252.359.017.537-.249.183-.266.36-.34.645-.404.285-.063.982-.468 1.113-.77.13-.3.556-.3.751-.376a.5.5 0 0 1 .162-.035c.02-.001.042.014.058.033.02.023.03.054.016.07-.066.078-.148.21-.216.408-.125.367-.296.21-.578.568s-.364.69-.852.897c-.455.2-.244.656-.778.885a2 2 0 0 1-.122.05c-.715.28-.288.741-.707 1.36-.178.263-.453.518-.753.736l-.031.03c-.384.24-.767.442-.945.626-.306.315-.692.764-1.203 1.128-.51.363-.937 1.035-1.539 1.4-.6.365-1.441.897-1.856 1.11-.416.215-.513.266-.791.61a1.4 1.4 0 0 1-.773.461c-.161.032-.205-.073-.127-.206.114-.194.28-.27.274-.445-.012-.35-.014-.487.298-.552.311-.065.168-.422.314-.498.147-.078.29.083.785-.596.494-.679.796-1.018.998-1.26.203-.242.807-.552 1.137-.948.33-.397 1.137-1.056 1.376-1.42.238-.362.399-.187.74-.315"/><path d="M12.483 1.971c-.07.455.547.764.478 1.333-.078.56-.39.63-.357 1.246.03.623-.267 1.201-.182 1.486.085.288-.3.254-.283.641.015.39-.082.608-.274.902a2.4 2.4 0 0 0-.188.394l.004-.023c-.126.401-.175.976-.071 1.233.144.361-.125.77-.19 1.02a.7.7 0 0 1-.075.187c-.011.02-.037.029-.061.029-.031 0-.061-.015-.065-.04a1.8 1.8 0 0 0-.18-.53c-.203-.414.023-.454-.061-1.019-.051-.367-.143-.652-.13-.996l.007-.043c.02-.174.065-.355.16-.566.263-.6-.27-.843.181-1.665.435-.842-.156-1.007-.213-1.845-.056-.808.123-1.834-.022-2.337l.966.537-.07.023c-.65.2-1.36.352-2.167.367-.797.009-1.75.294-2.628.212-.878-.08-2.11-.2-2.679-.3s-.706-.124-1.247-.039a2.15 2.15 0 0 1-1.107-.14c-.182-.079-.14-.188.042-.24.268-.077.486-.029.623-.167.27-.277.383-.383.733-.233s.503-.216.705-.181c.202.033.209.251 1.226.039C6.373 1.04 6.93.956 7.313.889 7.695.822 8.518.94 9.135.808c.606-.126 1.931-.231 2.266-.45l.027-.02.777-.338.358.969c.199.486-.02.556-.08 1.002"/></g><defs><clipPath id="a"><path fill="#fff" d="M0 0h13v13H0z"/></clipPath></defs></svg>