<svg xmlns="http://www.w3.org/2000/svg" width="74" height="81" fill="none" viewBox="0 0 74 81"><g clip-path="url(#a)"><mask id="b" width="74" height="81" x="0" y="0" maskUnits="userSpaceOnUse" style="mask-type:luminance"><path fill="#fff" d="M74 0H0v81h74z"/></mask><g fill="#e5ae61" mask="url(#b)"><path d="M47.283 2.334a5 5 0 0 1-.894.353c-.089.027-.068-.04-.13-.024-.121.031-.216.101-.337.128-.04.009-.028-.088-.07-.077-.226.06-.416.167-.635.245-1.097.39-2.132.815-3.222 1.256-.35.14-.82.265-1.165.455-.04.022.015.078.009.087-.088.14-.106-.014-.196.005a3.9 3.9 0 0 0-1.032.394c-.128.07.065.145-.102.13-.012-.001-.01-.088-.05-.08-.092.021-.247.104-.314.127-.13.045-.15.054-.269.106-.162.07-.365.117-.533.21-.036.02.046.072-.008.11a.9.9 0 0 1-.274.109c-.06.006-.063-.062-.079-.07-.126-.078-.237.156-.259.17-.386.248-.802.327-1.192.5-.3.133-.616.307-.9.428-.342.145-.657.237-.98.388-.035.016.043.084.002.104-.457.214-.902.4-1.388.544-.048.015-.023-.087-.073-.077-.303.06-.811.105-.83.508-.195.07-.423.155-.626.165-.128.006-.058-.123-.177-.029-.027.021.045.076.002.103-.18.11-.39.176-.566.298-.035.025.005.085-.001.102-.05.135-.271.046-.31.05-.286.025-.455.14-.692.242-.055.024.048.082-.003.108-.264.132-.55.25-.832.329-.063.017-.042-.08-.073-.076-.14.02-.104.172-.235.194-.028.005-.042-.065-.05-.07-.122-.076-.116.106-.133.118-.216.152-.431.054-.648.178-.027.015.071.068-.005.105-.498.249-1.033.46-1.57.623-.081.025-.053-.06-.061-.065-.131-.08-.112.097-.135.114-.179.131-.43.087-.48.332-.87.313-1.672.8-2.579 1.016-.011.003-.027-.082-.05-.076-.273.074-.175.172-.274.393-.024.055-.233-.06-.252-.066-.064-.028-.073-.161-.091-.164-.15-.017.041.348-.11.42-.005 0-.017-.077-.033-.078-.048-.004-.079.044-.13.039-.117-.012-.236-.177-.32-.009v.003c.005.028.131.209-.002.27-.054.026-.284.162-.356.187s-.066-.067-.072-.067c-.226.017-.18-.058-.343-.133-.163-.074.04.213.025.268-.015.054-.186.061-.232.055s-.032-.07-.068-.067c-.24.023.01.198-.023.283-.075.2-.322.046-.466.105-.04.016.021.049-.008.073-.113.095-.231.072-.335.224-.017.024-.05.228-.185.177-.019-.008-.023-.082-.084-.061-.09.03-.241.106-.317.178-.055.052.073.099-.024.12-.043.008-.01-.085-.088-.064a1.7 1.7 0 0 0-.31.168c-.064.04.013.089.01.097a.7.7 0 0 1-.13.16c-.549.342-1.135.526-1.658.874-.042.028.03.086.023.09-.13.116-.127-.147-.266-.156.1.143.025.149-.07.224-.046.036.014.08.013.088-.026.132-.14.044-.167.028-.097-.059-.094.073-.16.034-.065-.039-.035-.167-.135-.11.002.07.155.17.091.236-.237.245-.836.425-1.074.537s-.308.161-.453.213c-.092.032-.135.06-.157.09-.039.053-.005.107-.088.19-.127.129-.19-.172-.241-.217s-.044.025-.088.008c-.043-.017-.004-.085-.074-.064-.068.021-.186.21-.179.28.018.15.164.24-.028.282-.011.002-.016-.083-.056-.071-.316.095-.623.247-.939.348-.043.014-.047-.082-.072-.075-.268.074-.115.16-.177.373-.067-.208-.2-.289-.384-.198-.112.055-.05.13-.093.226-.013.029-.12.01-.115.057.018.153.165.26-.055.298-.01.002-.018-.083-.05-.073-.201.066-.156.213-.35.33-.153.091-.475.148-.664.224-.104-.22-.25-.086-.245.098-.12.052-.245.123-.368.158-.042.012-.047-.064-.056-.069-.127-.07-.107.102-.13.12-.249.19-.525.188-.737.424-.007.009.051.168-.072.09-.009-.005.045-.116-.082-.061-.126.055-.399.086-.537.24-.033.036-.079.21-.21.155-.018-.008-.026-.057-.054-.074-.09-.052-.045.116-.169.015s-.3-.137-.43.036c-.004.005.013.147-.042.171-.089.039-.225.072-.316.117-.043.021.021.083.014.088-.273.183-.514.215-.842.335-.06.021-.176.203-.327.174-.165-.03-.215-.462-.454-.24-.097.088-.018.629-.338.48-.368.248-.793.295-1.15.568-.016.012-.01.17-.054.188-.064.026-.127-.02-.173-.003-.195.07-.343.202-.526.277-.07.03-.076-.046-.16-.011-.083.035-.098.144-.227.155-.097.007-.262-.126-.382-.094.075.171-.003.203-.117.31-.022.021.033.067.024.08-.035.053-.105.027-.138.082-.007.013.019.071.014.085-.042.123-.234.054-.267.042-.127-.047-.133.048-.216.045s-.002-.092-.09-.076c-.182.032-.385.137-.551.21-.066.03.014.087.006.093-.126.081-.302.062-.307.251-.277-.355-.063.076-.294.085-.019 0-.125-.179-.078-.234.046-.055.16-.036.223-.116.014-.02.044-.247.054-.264.082-.14.226.136.24.148.146.135.194-.117.224-.147.137-.136.29-.158.407-.265.076-.068 0-.257.072-.284.238-.087.442.131.555-.192.024-.07-.116-.25.126-.168.014.005.208.091.236-.034.004-.015-.024-.074-.014-.084.065-.07.14-.047.216-.11s.166-.145.274-.171c.065-.016.193.057.234.07.117.04.145-.127.238-.057.094.07.063.259.223.258-.066-.155-.128-.317-.192-.473.293-.13.6-.215.888-.358.036-.018-.04-.083-.002-.104.156-.09.326-.099.484-.201.122-.08.224-.234.35-.32.166.134.341-.021.496-.075.054-.02.073.029.116.027.165-.01.028-.133.054-.175.114-.18.293.16.48.06.01-.005.046-.249.058-.268.073-.127.049.055.123.037.136-.035.243-.032.363-.155.035-.037.081-.2.206-.15.017.006.04.07.05.069.187-.016.1-.21.158-.318.06-.109.262-.043.309-.018.121.063-.037.069-.036.08.008.139.1.07.182.043.102.182.205.119.085-.03-.013-.016-.065.03-.085.03-.02-.218.088-.3.302-.19.1.051.088.173.259.048.077-.056-.018-.17.04-.241.132-.164.413-.15.58-.256.06-.038-.036-.078.004-.107.106-.075.235-.072.338-.156.01-.008-.053-.07-.017-.088.27-.142.533-.212.819-.351.14-.068.363-.23.512-.293.254-.109.613-.154.81-.285.13-.086.063-.144.096-.224.065-.154.353-.081.394-.068.002 0-.109.078-.026.083.077.06.025-.082.026-.083.027.008.272-.095.31-.132.022-.02-.028-.083-.016-.092.287-.224.59-.401.926-.534.006-.001.038.08.052.076.2-.06.271-.217.392-.352a.5.5 0 0 1 .106-.092c.093-.058.191-.063.305-.002.102-.075.3-.106.411-.12.112-.014.045-.171.052-.178.208-.234.401-.228.673-.36.13-.063.368-.222.493-.313.1-.073.186-.076.27-.153.012-.01-.038-.069-.036-.073.065-.14.104.05.143.066.143.057.223.085.337-.045.026-.03-.011-.316.039-.362.066-.061.085.038.154-.029.006-.005-.025-.055.026-.082.235-.123.5-.238.734-.385.032-.02-.057-.075-.012-.105a4 4 0 0 1 .689-.372c.059-.023.06.053.081.063.132.057.14-.148.156-.162.346-.308.725-.361 1.088-.67.02-.018.094-.278.251-.19.01.006.17.098.179-.036 0-.009-.09-.051-.003-.093s.192-.17.352-.159c.051.003.217.092.262-.082.002-.011.029-.36.188-.22.026.023.119.212.198.045.013-.029-.038-.044-.016-.09l.045-.022.015-.02c.078-.088.243-.103.33-.247.014-.025.045-.198.167-.135.02.01.026.084.07.073.211-.057.38-.186.597-.232.073-.015.087.104.17.1.082-.005.239-.044.293-.126.05-.08-.104-.21-.001-.273.465-.28.974-.394 1.47-.6.07-.03-.014-.063.09-.11.392-.183 1.033-.536 1.427-.561.32-.022.008.21.237.156.11-.025.128-.264.15-.281.204-.165.416-.157.61-.275.04-.024-.037-.084-.002-.104.12-.07.27-.094.39-.155.054-.028.018-.083.07-.101.123-.042.239-.064.38-.06.014 0-.025.107.065.07.145-.06.354-.086.49-.214.04-.04-.019-.176.128-.129.031.01.075.187.136-.01.01-.032.135-.316.29-.238.04.021.167.125.216.078.007-.007-.057-.066-.012-.094.16-.1.345-.173.515-.275.045-.028-.059-.073.008-.11.182-.104.432-.191.634-.253.075-.022.054.062.062.067.132.074.114-.097.137-.117.143-.127.302-.113.45-.2.04-.024-.022-.082-.016-.093.062-.101.052.057.115.046a1.8 1.8 0 0 0 .502-.192c.056-.03-.046-.083.005-.109.304-.15.632-.287.952-.373.061-.017.054.063.072.072.127.066.186-.126.208-.152.1-.117.176-.083.28-.141.515-.29 1.197-.547 1.725-.753.672-.261 1.218-.43 1.848-.728.04-.019-.038-.085-.004-.103.436-.217.9-.382 1.335-.604.036-.018-.053-.075.004-.107.115-.066.27-.13.405-.158.066-.015.016.09.082.075.151-.037.31-.1.445-.175.058-.032-.07-.074.008-.11.537-.247 1.068-.5 1.663-.635.041-.01.149.143.215.075-.014-.049-.039-.103-.058-.154.778-.377 1.585-.665 2.386-1.01.034-.014-.064-.077.002-.106.374-.164.724-.349 1.15-.432.042-.009.092.156.195.083.017-.013.175-.108.203-.162.004-.007-.059-.067-.006-.093.31-.15.65-.281.987-.378.054-.015.035.086.073.076.273-.072.526-.255.804-.294.187-.026.185.135.332.228.02.013.125-.03.164.045.1.187.144.42.256.618.024.042.14-.067.106.077-.002.01-.086.09-.095.136-.006.033.06.098.04.145-.021.048-.089 0-.13.063-.04.064.025.141-.086.203M15.698 15.77c.127.024-.003-.246-.064-.132a.7.7 0 0 0 .064.132M4.984 21.112c.173.064.171-.15.045-.202-.126-.054-.098.183-.045.202m-1.176.656c.181.03.024-.364-.087-.218-.006.008.076.216.087.218m42.83-20.502a.3.3 0 0 0 .077-.03c0-.105-.149-.046-.078.03M2.642 22.424c.066.032.162-.085.079-.125-.067-.032-.163.085-.08.125m17.668-8.983c.004.003.055-.024.04-.045-.045-.067-.101-.005-.04.045M.585 23.374c.313-.125.641.11.293.225-.063.021.085-.161-.005-.154-.166.012-.168.254-.357.211-.035-.008.05-.275.069-.282m15.335-7.317a.3.3 0 0 0 .076-.037c-.008-.104-.153-.034-.076.037m7.426-4.02a.8.8 0 0 0 .184-.074c.024-.182-.327-.04-.184.074m-12.098 6.66c-.037.124-.124.18-.24.102.081-.032.159-.07.24-.103M55.943 23.115c-.05.195-.172.426-.282.596-.034.053-.071.004-.097.04-.05.07-.055.153-.109.22-.018.023-.083-.04-.1-.016-.093.133-.129.28-.205.42-.374.699-.692 1.406-1.026 2.13-.11.24-.3.508-.372.771-.008.031.068.042.071.05.05.122-.075.037-.117.087a1.8 1.8 0 0 0-.336.677c-.026.098.147.06.033.122-.008.005-.07-.049-.089-.026-.04.05-.073.165-.097.208-.046.082-.051.096-.085.177-.048.111-.138.23-.17.356-.008.027.08.023.077.07a.4.4 0 0 1-.087.18c-.033.029-.085-.01-.1-.01-.135.007-.03.196-.033.214-.055.32-.247.534-.36.808-.086.209-.15.444-.235.64-.104.234-.227.418-.316.65-.01.024.09.032.078.062a4.6 4.6 0 0 1-.452.913c-.02.029-.078-.044-.102-.017-.144.165-.422.403-.139.658-.068.124-.148.275-.264.363-.075.056-.127-.052-.13.055-.002.024.083.028.076.062-.021.1-.07.197-.103.297a.6.6 0 0 0-.029.123c-.004.03.065.05.073.063.068.103-.133.14-.154.157-.16.137-.18.277-.252.437-.017.037.09.03.077.068a2.2 2.2 0 0 1-.277.547c-.026.036-.085-.033-.101-.018-.072.071.06.15-.005.22-.014.014-.074-.023-.082-.023-.13.001.006.112.004.126-.023.18-.23.212-.275.377-.005.02.094.013.074.067-.13.356-.312.713-.528 1.027-.033.049-.077-.016-.086-.016-.14.004 0 .108-.002.127-.018.156-.206.226-.062.401-.321.551-.475 1.175-.899 1.673-.005.007-.075-.04-.085-.028-.122.156.012.176.104.357.024.046-.192.056-.208.058-.06.007-.16-.074-.174-.069-.108.047.274.204.225.311-.002.003-.064-.042-.075-.036-.035.018-.02.058-.056.074-.083.038-.276-.023-.212.12.008.019.229.097.176.188-.022.036-.095.206-.13.247s-.089-.023-.093-.02c-.149.085-.165.02-.328.022-.163.003.164.13.188.173s-.093.1-.13.112c-.036.01-.067-.038-.09-.024-.158.09.13.131.161.199.072.16-.202.133-.269.218-.018.023.046.026.04.052-.022.1-.121.121-.101.256.003.022.107.171-.023.178-.018 0-.067-.048-.098-.016a.5.5 0 0 0-.117.22c-.006.052.115.044.058.088-.025.02-.06-.054-.103-.015a.8.8 0 0 0-.116.211c-.02.048.065.056.069.062a.4.4 0 0 1 .008.15c-.176.404-.471.716-.612 1.124-.01.032.076.048.075.053-.016.12-.183-.059-.286-.018.162.063.113.093.096.174-.008.04.062.049.066.055.068.096-.068.077-.097.075-.106-.007-.018.08-.089.076s-.133-.1-.165-.03c.047.047.218.063.217.128-.005.244-.297.568-.385.724s-.103.214-.168.298c-.117.154.021.143.021.272s-.243-.049-.308-.06c-.065-.013-.013.032-.053.035-.038.003-.058-.047-.087-.023l-.006.006c-.033.038.013.206.065.25.112.093.271.103.17.196-.006.005-.066-.05-.085-.028-.15.177-.254.385-.398.564-.02.024-.086-.038-.098-.024-.13.144.03.147.132.309-.185-.114-.328-.12-.39.007-.037.076.054.104.09.182.01.023-.073.05-.038.079.115.095.286.114.164.217-.005.004-.068-.048-.082-.03-.09.115.04.196-.011.343-.04.115-.216.27-.29.386-.217-.108-.223.034-.096.154-.045.077-.078.169-.137.236-.02.024-.074-.025-.083-.024-.132 0-.003.105-.005.125-.036.216-.22.315-.2.547 0 .008.147.092.013.086-.009 0-.05-.093-.095-.011-.047.081-.206.201-.193.352.003.037.091.169-.033.18-.017 0-.056-.029-.086-.03-.094-.002.05.093-.101.071-.15-.022-.29.018-.259.18 0 .005.108.092.088.129-.032.057-.098.13-.128.191-.014.03.07.048.07.054-.056.22-.193.328-.327.527-.025.036.022.2-.096.235-.13.039-.457-.228-.463.005-.003.095.417.424.106.442-.072.298-.32.484-.367.795-.002.014.11.117.093.144-.023.041-.096.034-.115.062-.081.117-.086.258-.155.376-.026.045-.08-.003-.112.05-.03.054.034.132-.043.186-.059.041-.256.013-.313.078.165.086.136.136.135.249 0 .022.068.032.07.044.014.048-.05.056-.034.104.004.012.061.04.068.052.057.096-.116.121-.146.125-.114.017-.054.081-.11.11s-.064-.06-.11-.018c-.097.088-.158.232-.215.342-.023.044.068.052.067.059-.027.1-.154.152-.027.279-.425-.133.01.074-.134.165-.011.007-.203-.073-.21-.126-.008-.053.08-.084.064-.16-.003-.017-.14-.178-.145-.194-.043-.12.24.007.257.01.189.035.047-.15.046-.18-.005-.139.08-.212.083-.325.003-.073-.176-.17-.147-.214.096-.147.377-.075.23-.332-.03-.054-.245-.122-.032-.157.013-.002.198-.015.132-.109-.009-.011-.067-.04-.068-.05-.004-.07.06-.083.067-.152.007-.07.009-.157.062-.214.032-.035.166-.033.202-.039.103-.017.007-.137.116-.125.11.012.217.149.322.089-.15-.078-.3-.163-.449-.243.103-.193.247-.362.338-.562.011-.024-.082-.04-.072-.067.041-.117.147-.184.18-.31.026-.098-.012-.237.012-.34.2.029.21-.137.275-.23.023-.032.068-.007.095-.024.102-.066-.072-.098-.084-.135-.048-.16.302 0 .357-.135.003-.007-.14-.182-.145-.199-.038-.11.07.02.106-.02.067-.072.14-.109.134-.234-.002-.037-.082-.163.034-.175.015-.002.074.032.08.028.112-.078-.078-.175-.112-.268-.035-.093.143-.123.19-.123.124-.003.024.059.032.066.1.088.114.01.15-.038.19.084.216.004.035-.05-.02-.006-.022.043-.036.05-.161-.137-.145-.23.07-.235.102-.003.177.083.205-.061.012-.066-.128-.107-.138-.175-.024-.156.17-.25.21-.379.015-.047-.077-.038-.07-.072.02-.088.107-.133.118-.225.001-.009-.082-.027-.07-.052.082-.192.208-.332.304-.528.047-.095.087-.283.143-.378.096-.163.305-.321.348-.48.029-.103-.055-.117-.087-.182-.06-.125.182-.18.218-.186.001 0-.02.09.039.065.091.012-.039-.064-.039-.065.024-.004.118-.16.12-.198 0-.022-.075-.045-.073-.056q.06-.373.265-.682c.003-.003.08.04.086.032a.24.24 0 0 0 .054-.176c-.003-.063-.02-.13-.023-.197-.007-.132.052-.208.217-.206.02-.088.134-.175.202-.224.067-.048-.082-.13-.082-.137-.013-.227.125-.29.227-.472a2 2 0 0 0 .137-.38c.023-.082.08-.112.09-.193.002-.01-.072-.033-.073-.037-.045-.117.105-.001.142-.003.137-.009.212-.018.208-.143-.001-.029-.211-.209-.206-.258.008-.063.085-.002.09-.07.001-.006-.053-.03-.034-.064.087-.161.202-.327.276-.501.01-.024-.088-.033-.075-.068.064-.164.148-.337.26-.474.027-.034.075.017.097.017.13-.002.008-.146.01-.159.057-.318.297-.472.363-.793.003-.017-.108-.215.06-.204.011 0 .182.013.104-.08-.005-.006-.095-.007-.061-.061.034-.055.027-.172.146-.215.038-.014.21-.007.129-.136-.006-.009-.216-.245-.015-.205.033.007.221.101.164-.034-.011-.026-.068-.014-.074-.072-.01-.088.084-.157.037-.282-.009-.022-.11-.145.012-.151.019-.001.076.043.096.02.092-.113.11-.268.213-.378.037-.04.13.031.18-.005s.12-.12.095-.192-.215-.091-.195-.173c.09-.354.333-.637.494-.959.024-.048-.053-.034-.023-.106.114-.267.26-.749.489-.923.182-.14.157.126.26.003.05-.06-.111-.218-.11-.237.009-.188.144-.262.18-.418.008-.032-.083-.037-.075-.064.024-.093.099-.169.129-.254.013-.039-.05-.058-.03-.09a.54.54 0 0 1 .194-.194c.008-.005.06.076.09.017.047-.097.156-.194.148-.332-.003-.041-.14-.102-.014-.133.027-.006.183.084.077-.061-.017-.025-.148-.249.006-.264.04-.005.195.007.191-.042 0-.007-.084-.017-.077-.054.027-.128.088-.248.117-.379.008-.035-.089-.02-.075-.07.038-.142.128-.299.208-.418.03-.044.078.016.086.016.11-.007.042-.072.011-.108q-.011-.014-.012-.02c-.004-.139.105-.196.131-.31.008-.032-.073-.042-.077-.05-.037-.088.073.013.104-.02a.84.84 0 0 0 .169-.325c.013-.042-.09-.032-.077-.07.077-.218.178-.435.311-.623.026-.035.08.016.098.014.127-.012.02-.154.015-.178-.024-.112.047-.122.068-.202.103-.394.333-.837.502-1.179.221-.445.43-.775.594-1.22.01-.027-.087-.035-.08-.06.107-.318.266-.608.368-.929.009-.026-.088-.023-.077-.066a.7.7 0 0 1 .13-.268c.03-.036.077.048.105.011a.8.8 0 0 0 .142-.293c.011-.044-.098-.014-.077-.07.145-.378.28-.753.542-1.09.018-.022.197.024.187-.045-.046-.023-.101-.045-.151-.067.194-.559.471-1.077.701-1.623.01-.023-.096-.02-.078-.064.105-.259.182-.521.378-.75.02-.024.172.053.18-.034 0-.016.026-.141.004-.185-.004-.006-.086-.014-.073-.053a3 3 0 0 1 .318-.647c.021-.033.085.036.101.014.114-.162.131-.38.271-.522.094-.095.213.002.372-.005.022-.001.053-.07.133-.043.2.069.401.189.616.259.046.015.035-.1.122 0 .006.007.014.09.044.122.021.022.11.032.132.07.023.037-.054.036-.031.091.023.056.12.074.099.158M45.445 44.14c.102-.026-.164-.162-.13-.066.001.005.125.068.13.066m-3.522 7.387c.157-.02.01-.161-.109-.15-.119.01.06.156.109.15m-.323.864c.14-.046-.233-.25-.205-.113.001.008.197.116.205.113m13.153-29.636a.14.14 0 0 0 .025-.051c-.077-.062-.125.036-.025.051M41.288 53.252c.066-.004.048-.117-.034-.113-.065.004-.048.117.034.112m5.93-12.18c.005 0 .025-.034.002-.043-.075-.032-.077.027-.002.043m-6.617 13.566c.116-.197.492-.165.345.04-.027.038-.057-.136-.11-.1-.099.069.067.23-.087.273-.028.008-.155-.201-.148-.213m5.185-10.381a.14.14 0 0 0 .028-.05c-.074-.067-.127.029-.028.05m2.547-5.195a.4.4 0 0 0 .063-.118c-.115-.123-.234.102-.063.118m-3.922 8.594c.06.095.039.164-.09.154.032-.05.059-.103.09-.154M72.14 27.581c-.243-.075-.34-.096-.364-.124-.016-.007-.027-.06-.044-.064-.038-.006-.06.036-.123.056-.022.007-.055-.075-.078-.064a.6.6 0 0 0-.18.153l.13-.236c-.037.106-.07.218-.116.334-.437 1.137-.741 2.324-1.032 3.541-.097.408-.267.877-.315 1.313-.005.049.073.034.077.044.064.16-.073.086-.11.177a4.3 4.3 0 0 0-.265 1.161c-.015.157.156.027.048.17-.007.01-.078-.044-.093-.002-.035.093-.053.282-.072.357-.037.145-.041.172-.065.31-.032.183-.107.398-.122.604-.003.044.085 0 .088.07a1 1 0 0 1-.062.313c-.03.06-.087.023-.103.032-.135.074-.001.31-.001.336-.005.495-.167.922-.234 1.38-.051.349-.074.732-.127 1.074-.061.396-.15.726-.197 1.121-.004.042.096.006.09.057-.062.542-.14 1.055-.273 1.589-.013.053-.086-.027-.104.026-.11.317-.336.808-.002 1.049-.041.219-.09.494-.185.68-.062.12-.137-.014-.117.146.004.036.088 0 .089.054.002.224-.053.465-.038.692.003.046.075.042.086.056.09.12-.1.28-.118.318-.126.29-.114.502-.148.778-.008.064.095 0 .091.06a6 6 0 0 1-.144.964c-.018.068-.091-.004-.104.028-.053.14.096.19.048.326-.01.029-.077.004-.086.009-.128.071.033.163.034.185.021.28-.174.438-.177.708 0 .033.095-.03.088.06a12 12 0 0 1-.258 1.813c-.02.091-.079.018-.088.023-.135.083.028.16.031.19.023.24-.141.445.045.625-.17 1-.15 2-.422 2.98-.003.013-.085-.017-.09.008-.075.297.06.251.2.466.035.054-.17.19-.185.203-.056.045-.176-.018-.187-.002-.091.13.321.145.305.33-.001.006-.075-.025-.084-.01-.028.046-.002.097-.032.143-.07.103-.273.124-.171.301.013.022.249.012.223.175-.01.066-.031.356-.054.437-.022.08-.092.018-.096.023-.118.212-.152.125-.308.222-.156.098.196.098.23.146.036.048-.06.203-.092.24-.032.038-.075-.016-.094.018-.126.226.164.118.213.2.116.194-.155.315-.194.48-.01.044.051.012.053.052.008.16-.08.248-.021.435.01.03.153.189.031.274-.017.012-.079-.031-.099.035-.03.1-.059.281-.046.392.01.082.123-.002.082.097-.018.043-.074-.045-.103.038-.03.082-.044.298-.049.38-.004.083.08.044.085.051a.8.8 0 0 1 .054.215c-.045.694-.232 1.333-.237 2.013 0 .054.087.025.088.033.022.184-.194.024-.28.146.175-.006.138.067.147.197.005.062.075.034.081.04.095.099-.041.153-.07.168-.103.053.01.128-.06.165-.068.036-.159-.066-.166.057.059.04.227-.04.247.055.073.362-.101 1.012-.135 1.294-.033.283-.028.375-.062.539-.06.296.067.195.109.384.042.19-.247.08-.312.102-.066.022-.002.055-.04.086-.036.03-.075-.044-.093.032-.019.077.08.292.145.324.136.067.29-.017.225.181-.004.011-.08-.031-.09.013-.084.349-.112.717-.188 1.068-.01.048-.094-.001-.1.027-.075.292.077.196.228.368-.213-.05-.35.031-.366.254-.01.135.086.118.147.209.019.027-.052.118-.009.138.14.066.308-.013.23.213-.004.01-.081-.027-.088.008-.046.224.104.26.107.506.002.192-.111.53-.14.746-.241-.02-.198.19-.036.283-.016.141-.015.295-.046.43-.011.047-.08.012-.087.017-.124.084.034.155.039.186.042.335-.096.599.006.922.004.012.17.04.043.117-.009.005-.08-.104-.094.044-.014.149-.12.424-.053.635.016.05.145.185.033.28-.016.013-.063-.004-.09.014-.09.058.078.102-.07.168s-.265.215-.177.43c.003.006.135.063.13.128-.01.105-.046.251-.05.36-.003.053.082.024.083.033.029.354-.059.6-.11.976-.01.068.094.273-.003.402-.106.142-.51-.03-.428.313.032.138.545.336.263.568.041.453-.1.865-.051 1.317a1 1 0 0 0 .018.08c.005.022.156.08.157.13.002.072-.063.12-.063.174-.004.223.071.424.083.638.004.082-.069.06-.063.158.006.097.105.152.075.289-.023.103-.2.225-.205.36.186-.02.194.074.265.227.014.03.074-.013.083 0 .042.056-.004.116.04.168.011.013.075.004.087.013.107.08-.01.257-.03.288-.076.12.014.15-.009.237-.022.085-.09-.024-.095.072-.011.2.05.443.092.636.017.077.088.005.092.015.058.152.012.335.2.378-.395.223.065.083.044.327-.001.02-.194.1-.243.042-.049-.06-.016-.181-.088-.264-.017-.019-.24-.1-.255-.115-.126-.119.171-.214.186-.225.158-.125-.082-.235-.105-.276-.108-.179-.097-.352-.174-.506-.05-.102-.25-.076-.26-.162-.026-.288.24-.423-.04-.654-.059-.05-.272.035-.125-.191.01-.014.15-.186.04-.26-.015-.01-.079-.002-.086-.016-.046-.095-.002-.162-.037-.267-.035-.102-.085-.23-.074-.35.007-.073.119-.178.145-.214.077-.104-.07-.2.028-.267.098-.069.264.038.319-.126-.168.006-.342.005-.51.008a5 5 0 0 1-.007-.306c0-.013-.002-.052 0-.065.028-.245.065-.488.072-.736 0-.043-.092-.003-.093-.05-.005-.196.068-.364.052-.568-.013-.158-.1-.335-.116-.5.197-.09.144-.338.17-.514.01-.061.06-.055.08-.098.07-.163-.103-.094-.128-.14-.104-.202.281-.2.284-.43 0-.012-.197-.172-.209-.194-.076-.134.072-.017.092-.098.035-.148.09-.25.04-.427-.016-.052-.137-.181-.033-.275.014-.013.08-.002.085-.012.077-.187-.136-.204-.202-.316s.09-.273.134-.305c.115-.083.043.071.054.077.125.064.11-.06.125-.153.21-.002.204-.133.016-.096-.02.004-.005.078-.016.096-.2-.093-.218-.238-.018-.386.094-.07.194.006.169-.221-.012-.103-.158-.072-.192-.164-.078-.211.072-.472.063-.687-.003-.078-.086-.007-.091-.06-.013-.142.053-.262.031-.404-.002-.013-.086.013-.085-.03.01-.333.08-.619.103-.964.01-.167-.017-.47.003-.643.034-.3.177-.662.164-.92-.008-.168-.092-.137-.144-.212-.1-.145.11-.377.143-.408.001-.001.011.144.059.07.09-.04-.059-.069-.059-.07.021-.02.058-.308.047-.366-.007-.032-.086-.02-.088-.036a4.2 4.2 0 0 1 .024-1.163c.002-.007.089.01.092-.006.054-.222-.042-.376-.093-.567s-.019-.337.139-.437c-.01-.142.071-.339.12-.452.048-.113-.12-.14-.123-.151-.085-.325.025-.501.064-.832.02-.157.017-.47.011-.642-.005-.136.041-.213.025-.339-.002-.017-.079-.006-.081-.01-.08-.145.1-.065.134-.091.128-.094.197-.153.153-.334-.01-.041-.266-.18-.276-.256-.012-.099.08-.055.065-.158-.001-.01-.06-.012-.053-.074.034-.29.092-.605.11-.906.003-.04-.095.004-.092-.055.01-.28.038-.583.104-.854.016-.066.078-.019.099-.032.124-.08-.036-.22-.038-.242-.041-.506.144-.87.113-1.384-.002-.029-.166-.258-.002-.34.011-.005.18-.086.077-.178-.006-.006-.094.046-.077-.056.017-.101-.023-.27.08-.402.031-.042.2-.133.084-.276-.008-.01-.278-.238-.073-.293.034-.01.243.022.149-.145-.018-.033-.07.018-.092-.064-.035-.127.036-.284-.044-.443-.014-.028-.147-.152-.031-.232.018-.012.086.02.098-.026.058-.22.032-.459.101-.68.025-.08.134-.028.172-.109.038-.08.083-.246.04-.34-.044-.093-.234-.013-.236-.147-.01-.584.15-1.132.22-1.706.011-.085-.06-.02-.05-.146.04-.467.058-1.254.237-1.648.143-.31.185.103.255-.138.033-.117-.163-.266-.167-.295-.038-.285.075-.468.072-.72 0-.052-.09-.01-.09-.054 0-.15.055-.307.064-.452.003-.065-.063-.06-.051-.12.026-.141.067-.264.143-.396.007-.012.078.082.093-.023.022-.169.105-.372.065-.573-.013-.06-.16-.078-.045-.19.024-.023.199.03.061-.134-.023-.027-.203-.297-.056-.402.04-.028.194-.092.179-.165-.003-.01-.087.02-.088-.04-.003-.206.03-.418.029-.628 0-.056-.093.017-.09-.066a4 4 0 0 1 .111-.739c.02-.081.081-.016.09-.021.132-.083-.025-.16-.03-.192-.034-.206.061-.348.063-.533 0-.05-.082-.024-.087-.035-.056-.112.075-.018.098-.082.065-.175.085-.39.098-.58.005-.069-.095-.002-.09-.065.03-.37.086-.745.181-1.094.019-.067.082-.016.1-.028.123-.084-.01-.246-.02-.28-.046-.158.023-.208.028-.34.025-.638.175-1.438.283-2.025.144-.793.296-1.372.395-2.136.006-.047-.093-.014-.089-.055.058-.524.178-1.054.237-1.58.006-.044-.092.004-.086-.066a1.8 1.8 0 0 1 .097-.467c.026-.07.084.039.108-.031.056-.163.093-.34.108-.51.007-.073-.101.02-.086-.074.103-.64.2-1.26.444-1.901.016-.043.204-.047.187-.147-.048-.017-.107-.028-.16-.042.156-.936.415-1.843.658-2.776.01-.04-.101.005-.082-.07.108-.424.202-.88.428-1.302.023-.043.18.028.195-.111.003-.026.042-.228.022-.288-.003-.008-.09.003-.073-.06l.022-.073a1.3 1.3 0 0 1 .15-.273c.273-.356.787-.772 1.42-.808.104-.005.007.092.078.09.502-.008.954.1 1.226.3.178.138.041.238.077.415.005.025.114.082.082.16-.08.197-.235.378-.314.59-.018.046.15.07.012.133-.01.004-.13-.012-.172.012-.029.016-.036.108-.085.123s-.056-.068-.126-.055c-.07.015-.09.111-.188.082m-6.336 34.413c.089-.1-.208-.138-.145-.017.003.006.14.023.145.017m-.722 12.999c.138-.135-.05-.24-.157-.146-.107.095.115.187.157.146m.165 1.49c.087-.176-.337-.163-.235.008.006.01.23.002.234-.008m7.198-50.111c0 .004.087.04.09.038.084-.07-.096-.146-.09-.038m-6.91 51.543c.048-.06-.04-.197-.101-.123-.049.061.04.197.1.123m1.02-21.49c.005-.002.014-.063-.01-.064-.082-.002-.066.085.01.064m-.41 23.886c-.1-.353.17-.666.251-.28.015.07-.154-.112-.156-.016-.003.176.24.212.183.41-.011.036-.273-.094-.279-.114m.022-18.352a.4.4 0 0 0 .01-.09c-.092-.054-.112.12-.01.09m.89-9.141a1 1 0 0 0 .028-.211c-.145-.12-.198.285-.028.21M66.001 67.77c.09.1.094.213-.03.28.012-.093.019-.187.03-.28"/></g></g><defs><clipPath id="a"><path fill="#fff" d="M0 0h74v81H0z"/></clipPath></defs></svg>