<svg xmlns="http://www.w3.org/2000/svg" width="500" height="500" fill="none" viewBox="0 0 500 500"><path fill="#fff" d="M0 0h500v500H0z"/><path fill="#000" d="M291.527 159.521c1.206 1.985 2.154 5.867 2.799 7.974l.013.042.008.034c.054.238.162.513.332.878.415.899 1.145 2.204 3.203 6.039a77 77 0 0 1 2.117 3.343c3.457 5.613 6.306 13.472 5.433 21.208-.773 7.741-4.225 14.176-8.114 19.54-1.077 1.498-2.205 2.666-3.339 3.719a45 45 0 0 1-.437.442c-2.835 2.832-6.555 5.451-9.079 6.728a56 56 0 0 1-7.319 3.11c-4.617 1.965-9.351 3.598-14.526 4.535l-.014.003c-6.14 1.051-12.604 1.337-18.966.186a43.3 43.3 0 0 1-10.44-3.281c-3.055-1.404-5.921-3.161-8.559-5.138a67 67 0 0 1-4.415-3.179c-1.869-1.467-3.435-2.867-4.624-4.111-2.882-3-5.469-6.847-7.245-9.725-.291-.469-.563-.915-.815-1.328l-.152-.211-.01-.015a36.3 36.3 0 0 1-4.126-7.639q-.03-.308-.051-.624c-.15-2.622-1.024-5.562-1.292-10.382a34 34 0 0 1 .425-7.352c.314-1.815.81-2.675 1.202-3.36.117-.202.228-.389.33-.581.35-.657.392-1.434.484-2.365.119-1.2.325-2.691 1.421-4.271 3.553-4.914 4.925-7.05 5.923-8.93.303-.531.595-1.01.948-1.451.973-1.227 2.713-2.501 4.328-3.319q.357-.175.695-.327c1.246-.562 3.311-2.321 4.835-3.761.574-.543 1.444-1.146 2.487-1.856 1.068-.727 2.326-1.57 3.613-2.563 3.265-2.511 5.112-3.763 6.6-4.763a65.091 65.091 0 0 1 5.826-3.503c2.036-1.097 4.192-2.119 5.869-2.895 4.525-1.489 9.398-2.508 14.488-2.499 2.615-.003 5.153.818 6.751 2.08 1.614 1.263 2.168 2.757 1.823 4.003-.349 1.257-1.506 2.217-3.022 2.929-1.528.708-3.305 1.136-5.171 1.313-3.768.346-7.568 1.504-11.29 3.082-4.544 1.93-8.978 4.466-13.404 7.183-3.096 1.903-6.177 3.939-9.28 6.023l-.963.647a270 270 0 0 1-3.958 3.357 40 40 0 0 0-2.007 1.875c-1.041 1.036-1.886 1.707-2.603 2.319-.492.422-.914.816-1.247 1.291-.178.255-.408.61-.672 1.051-1.102 1.785-2.559 5.012-3.635 8.126-.496 1.376-1.058 3.017-1.441 4.653-.564 2.334-.726 4.644-.47 5.757.429 1.954.804 4.191 1.378 6.136.535 1.852 1.232 3.42 1.899 4.135.402.435.71.859 1.015 1.343l-.01-.014c.345.538.671 1.132 1.066 1.835.56.992 1.25 2.196 2.339 3.719 1.255 1.75 2.089 3.04 2.807 4.114 1.025 1.516 1.829 2.641 3.47 3.85 1.821 1.337 3.683 2.657 5.041 3.813.616.528 1.378 1.06 2.186 1.576 1.068.683 2.219 1.336 3.238 1.993.839.542 1.484 1.113 2.076 1.606q.277.23.543.433a31 31 0 0 0 2.284.799q.205 0 .431-.005c.758-.014 1.667-.059 2.742.028 1.707.136 3.137.474 4.718.747 1.221.209 2.533.371 4.024.288 1.033-.057 2.186-.232 3.329-.452 1.709-.324 3.367-.75 4.549-.882.322-.035.627-.005.929.041l-.012.003q.162.03.326.062l.005.002.08.015c2.725-.736 5.465-1.811 8.122-3.057.219-.135.442-.272.659-.408 1.07-.665 2.084-1.345 2.674-1.926.639-.627 2.47-1.724 4.298-2.993 1.199-.827 2.394-1.723 3.29-2.526.522-.467 1.149-.71 1.792-.977.594-.244 1.201-.509 1.711-.98.252-.232.493-.524.734-.832.206-.266.433-.564.659-.836.219-.263.816-.712 1.459-1.289.311-.279.635-.594.9-.892q.156-.194.309-.39c1.049-1.783 1.986-3.635 2.71-5.443.044-.44.011-.836-.106-1.177a4 4 0 0 0-.347-.699c-.18-.32-.37-.644-.486-1.015-.089-.29-.07-.573.059-.722a.8.8 0 0 1 .222-.156c.088-.047.166-.089.187-.164.015-.053-.015-.123-.052-.207-.058-.135-.135-.307-.082-.514.199-.773.427-1.632.584-2.472.175-.926.261-1.836.214-2.542-.048-.805.048-1.928-.016-3.133-.041-.837-.155-1.7-.353-2.436-.194-.723-.586-1.43-1.004-2.111-.5-.817-1.038-1.603-1.306-2.412-.054-.164.015-.443.093-.803.056-.254.116-.548.143-.863-.575-.97-1.188-1.95-1.841-2.983l-.14-.066h-.003c-1.074-.508-2.563-1.168-3.304-3.335-.187-.553-.166-.99-.15-1.393.016-.395.041-.733-.141-1.149-.207-.472-.601-.938-1.04-1.533-.362-.485-.765-1.088-1.054-1.77a3.5 3.5 0 0 1-.293-1.029l-.022-.199c-.078-.665-.179-1.633-.059-2.682-.758-2.685-1.386-5.41-1.975-7.926-1.015-4.31-1.873-7.517-3.88-9.3-.998-.948-2.24-2.143-3.239-3.485-.982-1.338-1.531-2.725-1.224-3.968.321-1.227 1.467-2.247 3.433-2.608 1.95-.348 4.696.056 7.283 1.835 4.367 2.922 6.715 7.815 8.068 11.331q.135.278.263.56c.631 1.379 1.342 2.542 2.048 3.673.162.257.327.526.483.776"/><ellipse cx="232.574" cy="187.671" fill="#000" rx="4.512" ry="6.768"/><ellipse cx="264.16" cy="187.671" fill="#000" rx="4.512" ry="6.768"/><path fill="#000" d="M368.234 281.349c1.206 1.986 2.154 5.867 2.799 7.974l.013.042.008.034c.054.238.162.513.331.878.415.899 1.145 2.204 3.204 6.039a78 78 0 0 1 2.117 3.344c3.456 5.612 6.306 13.471 5.433 21.207-.773 7.741-4.225 14.176-8.114 19.54-1.077 1.498-2.205 2.666-3.339 3.719q-.213.22-.438.442c-2.834 2.832-6.554 5.451-9.078 6.728a56 56 0 0 1-7.32 3.11c-4.617 1.966-9.351 3.598-14.525 4.535l-.014.003c-6.14 1.051-12.604 1.337-18.966.186a43.3 43.3 0 0 1-10.44-3.281c-3.055-1.404-5.921-3.161-8.559-5.138a68 68 0 0 1-4.416-3.179c-1.868-1.467-3.434-2.867-4.623-4.111-2.882-3-5.469-6.847-7.246-9.725q-.435-.705-.814-1.328l-.152-.211-.01-.015a36.2 36.2 0 0 1-4.126-7.639q-.03-.307-.051-.623c-.15-2.623-1.024-5.562-1.292-10.383a34 34 0 0 1 .424-7.351c.315-1.816.811-2.675 1.203-3.361.117-.202.228-.389.33-.581.35-.656.392-1.433.483-2.365.119-1.2.325-2.69 1.422-4.27 3.552-4.915 4.925-7.051 5.923-8.931.303-.531.595-1.01.948-1.451.973-1.227 2.713-2.5 4.328-3.319q.357-.175.695-.326c1.246-.562 3.311-2.322 4.835-3.762.574-.543 1.444-1.146 2.487-1.856 1.068-.727 2.325-1.57 3.612-2.562 3.266-2.512 5.113-3.764 6.601-4.764a65.091 65.091 0 0 1 5.826-3.503c2.036-1.096 4.191-2.119 5.869-2.895 4.525-1.489 9.398-2.507 14.488-2.499 2.614-.003 5.153.819 6.751 2.08 1.614 1.263 2.167 2.757 1.823 4.003-.349 1.258-1.506 2.217-3.023 2.929-1.527.708-3.304 1.136-5.17 1.313-3.768.346-7.568 1.504-11.291 3.082-4.543 1.93-8.977 4.466-13.403 7.183-3.096 1.903-6.178 3.939-9.28 6.023l-.963.647a276 276 0 0 1-3.958 3.357 40 40 0 0 0-2.007 1.875c-1.041 1.036-1.886 1.707-2.603 2.319-.492.422-.915.816-1.247 1.291-.178.255-.408.61-.672 1.051-1.102 1.785-2.559 5.012-3.635 8.126-.496 1.376-1.058 3.017-1.441 4.653-.564 2.334-.726 4.644-.47 5.757.429 1.954.804 4.192 1.378 6.136.535 1.852 1.232 3.42 1.899 4.136.402.434.71.858 1.015 1.342l-.01-.014c.345.538.67 1.132 1.066 1.835.56.992 1.25 2.196 2.339 3.719 1.254 1.75 2.089 3.04 2.807 4.114 1.025 1.516 1.829 2.641 3.47 3.85 1.821 1.337 3.683 2.657 5.041 3.813.616.528 1.378 1.06 2.186 1.576 1.068.683 2.219 1.336 3.238 1.993.838.543 1.484 1.113 2.076 1.606q.277.23.543.433a31 31 0 0 0 2.284.799q.204 0 .431-.005c.758-.014 1.667-.059 2.742.028 1.707.136 3.137.474 4.717.747 1.222.209 2.534.371 4.025.288 1.032-.057 2.186-.232 3.329-.452 1.709-.324 3.367-.75 4.548-.881.323-.036.628-.006.929.04l-.012.003q.163.03.327.062l.005.002.08.015c2.725-.735 5.465-1.811 8.121-3.057.22-.135.443-.272.66-.408 1.07-.665 2.084-1.344 2.674-1.926.639-.627 2.469-1.724 4.298-2.993 1.198-.827 2.394-1.723 3.29-2.526.522-.467 1.149-.71 1.792-.977.594-.244 1.201-.509 1.711-.979.252-.233.493-.525.733-.833.207-.266.433-.563.66-.836.219-.262.816-.712 1.458-1.289.312-.279.635-.594.901-.892q.156-.193.309-.39c1.048-1.783 1.986-3.635 2.71-5.443.043-.44.011-.836-.106-1.176a4 4 0 0 0-.347-.699c-.18-.321-.371-.645-.486-1.016-.09-.29-.07-.573.059-.722a.8.8 0 0 1 .222-.156c.088-.047.166-.089.187-.163.015-.054-.015-.124-.052-.208-.058-.135-.135-.307-.082-.514.199-.773.427-1.632.583-2.472.176-.926.262-1.835.215-2.542-.048-.804.048-1.928-.016-3.133-.041-.837-.155-1.7-.353-2.436-.194-.723-.586-1.429-1.004-2.111-.5-.817-1.039-1.603-1.307-2.412-.053-.163.016-.443.094-.803.056-.254.116-.548.143-.863-.576-.97-1.189-1.95-1.842-2.983l-.14-.065-.002-.001c-1.075-.508-2.563-1.168-3.305-3.335-.186-.552-.166-.99-.15-1.393.016-.395.042-.732-.141-1.148-.206-.473-.601-.939-1.039-1.534-.362-.485-.765-1.087-1.054-1.77a3.5 3.5 0 0 1-.293-1.029l-.022-.199c-.078-.664-.179-1.633-.059-2.682-.758-2.685-1.386-5.41-1.975-7.926-1.015-4.31-1.873-7.517-3.881-9.3-.997-.948-2.239-2.143-3.238-3.485-.982-1.338-1.531-2.725-1.224-3.968.321-1.227 1.467-2.247 3.433-2.608 1.95-.348 4.696.056 7.282 1.836 4.368 2.921 6.716 7.814 8.069 11.33q.135.278.263.56c.631 1.379 1.342 2.543 2.048 3.673.162.258.326.527.483.776"/><ellipse cx="309.281" cy="309.495" fill="#000" rx="4.512" ry="6.768"/><ellipse cx="340.866" cy="309.495" fill="#000" rx="4.512" ry="6.768"/><path fill="#000" d="M221.879 239.136c.169.466-.275.734-.519.882l-.013.009a.8.8 0 0 0-.151.128c-.118.121-.279.284-.79.481q-.12.17-.251.331c-.947 1.157-2.167 2.09-3.442 2.978l-.031.049c-.204.318-.456.712-.761.84-.388.162-.69.241-.943.301-1.016.703-2.004 1.429-2.854 2.268a11 11 0 0 0-.754.825q-.325.398-.621.821c-.054.213-.089.429-.122.63-.045.282-.086.533-.169.7-.2.403-.637.687-.961.899l-.149.097q-.21.396-.414.797l-.123-.023c-.524-.106-.714.136-1.014.516a5 5 0 0 1-.49.558c-.135.13-.34.085-.507.048q-.074-.016-.135-.025c-.138-.016-.09.124-.034.29.073.215.161.473-.122.488-.9.049-.72.542-.583.915.04.109.076.208.08.283.013.241-.274.336-.567.345-.233.006-.291.353-.266.673.009.12-.064.213-.151.323-.089.113-.194.243-.234.441a23 23 0 0 1-.256 1.135 5 5 0 0 1-.196.57c-.093.238-.188.479-.224.692-.396.305-.811.593-1.227.882-.214.147-.68.076-1.31-.212-.631-.288-1.37-.764-2.071-1.338-.701-.573-1.315-1.203-1.722-1.765-.406-.56-.569-1.004-.467-1.243.208-.48.415-.961.645-1.423.28-.563.594-1.098.982-1.573q.409-.497.862-.957l.094-.095c.055-.42.126-.826.23-1.068.087-.2.275-.243.437-.279.111-.026.209-.048.253-.116q.034-.058.082-.157c.132-.268.356-.723.809-.933.202-.094.496-.153.777-.209.402-.081.777-.157.813-.319.065-.286.341-.448.585-.592.233-.136.436-.256.399-.449-.044-.231.094-.284.299-.363.142-.054.317-.121.485-.269.195-.17.407-.23.587-.28.253-.071.444-.125.435-.445-.009-.355.054-.666.251-.79.09-.057.156-.152.226-.25.092-.13.188-.266.349-.332.133-.053.335-.022.513.005q.084.014.158.022.093-.118.182-.239l-.039-.098c-.069-.172-.154-.383-.145-.551.015-.265.21-.349.417-.437.161-.068.329-.139.422-.302.064-.11.099-.267.134-.422.052-.23.103-.458.246-.528.054-.026.169.008.283.041l.002.001.023.007q.237-.49.458-.993l-.007-.125c-.009-.201-.018-.396-.102-.587-.091-.207-.018-.481.059-.77.05-.189.103-.385.111-.572.006-.109.147-.102.292-.094.135.007.274.015.31-.072a.5.5 0 0 0 .005-.183c-.005-.064-.011-.131-.001-.188.009-.054.123-.095.269-.149.091-.034.193-.072.291-.12q.165-.37.34-.735a1.5 1.5 0 0 0-.218-.358c-.075-.096-.171-.204-.269-.315-.133-.15-.271-.305-.369-.444-.076-.109-.089-.173-.03-.162.028.006.07.027.109.047.044.022.083.042.089.033.005-.007-.016-.036-.042-.07-.04-.055-.092-.126-.074-.154.07-.103.181-.195.289-.285.121-.1.239-.198.295-.306.063-.122.282-.19.501-.258.153-.048.306-.095.406-.161.099-.065.119-.2.137-.331.023-.158.044-.309.201-.325.032-.003.156.062.311.144.11.058.237.124.357.181q.134-.165.281-.319l-.034-.048-.001-.001c-.265-.367-.628-.87-.21-.817.106.014.259.092.396.163.135.069.256.132.303.117.055-.016.019-.117-.019-.226-.054-.154-.114-.326.059-.308l.037.004c.124.011.306.028.608.144q.382-.272.791-.523a39 39 0 0 1 1.399-.807c.231-.128.702-.045 1.328.244s1.354.758 2.042 1.32 1.29 1.182 1.698 1.739.581 1.003.502 1.254c-.131.409-.262.818-.402 1.219l.001.082c-.002.2.1.47.202.74zM314.379 253.11c.169-.466-.275-.734-.52-.882l-.013-.008c-.057-.035-.1-.079-.15-.129-.119-.121-.279-.284-.79-.481a6 6 0 0 0-.251-.331c-.947-1.157-2.168-2.089-3.442-2.978l-.032-.049c-.203-.318-.455-.712-.761-.84a5.7 5.7 0 0 0-.943-.301c-1.016-.703-2.004-1.429-2.853-2.268a11 11 0 0 1-.754-.825 14 14 0 0 1-.621-.821 7 7 0 0 1-.122-.63c-.046-.282-.087-.533-.17-.7-.2-.403-.636-.687-.961-.898l-.149-.098a55 55 0 0 1-.414-.797l-.123.023c-.523.106-.713-.136-1.013-.516a5 5 0 0 0-.491-.558c-.134-.13-.339-.085-.507-.048q-.074.016-.135.025c-.137.016-.09-.124-.033-.29.072-.215.16-.473-.122-.488-.9-.049-.72-.542-.584-.915.04-.109.076-.208.08-.283.013-.241-.273-.336-.566-.345-.233-.006-.292-.353-.267-.673.01-.12-.063-.213-.15-.322-.09-.113-.194-.244-.234-.442a23 23 0 0 0-.216-.966l-.041-.169c-.041-.175-.118-.371-.196-.57-.093-.238-.187-.479-.224-.692-.395-.305-.811-.593-1.226-.882-.214-.147-.681-.076-1.311.212s-1.37.764-2.071 1.338c-.701.573-1.314 1.204-1.721 1.765-.406.56-.57 1.004-.467 1.243.207.48.415.961.645 1.423.28.563.594 1.098.982 1.573q.408.497.861.957l.094.095c.056.42.126.827.231 1.068.086.2.275.243.436.279.112.026.21.048.253.116q.035.058.083.157c.131.268.355.723.809.933.201.094.496.153.777.21.401.08.776.156.813.318.065.286.341.448.585.592.232.137.436.256.399.449-.045.231.094.284.299.363.142.054.316.122.485.269.194.17.406.23.586.28.254.071.445.125.436.445-.01.355.054.666.251.791a.9.9 0 0 1 .225.249c.092.13.189.266.35.332.133.053.334.022.513-.005q.084-.014.157-.022.093.119.182.239-.017.047-.039.098c-.069.172-.153.383-.144.551.014.265.21.349.417.437.16.068.328.14.422.302.063.11.099.267.133.422.052.23.104.458.247.528.053.026.168-.007.283-.041l.002-.001.023-.007q.236.49.458.993l-.007.125c-.01.201-.019.396-.102.587-.091.207-.018.481.059.77.05.189.102.385.111.572.005.109.146.102.291.094.136-.007.275-.015.31.072.018.044.012.111.006.184-.005.063-.011.13-.001.188.009.053.123.095.269.149.09.033.192.071.29.119q.166.37.34.735a1.5 1.5 0 0 1-.218.358c-.075.096-.171.204-.269.315a6 6 0 0 0-.368.444c-.076.109-.089.174-.03.162a.5.5 0 0 0 .108-.047c.044-.022.083-.042.09-.033.004.007-.017.036-.042.07-.041.055-.093.126-.074.154.07.103.18.195.289.285.12.1.238.198.294.307.063.121.282.189.502.257.152.048.305.096.406.162.098.064.118.199.137.33.022.158.044.31.2.325.032.003.156-.062.312-.144.11-.058.236-.124.356-.181q.135.165.282.319l-.035.048-.001.001c-.265.367-.628.87-.209.817.106-.014.258-.092.396-.163.134-.069.255-.131.303-.117.054.016.019.117-.019.227-.054.153-.114.325.058.307l.038-.003c.123-.012.306-.029.607-.144q.383.272.792.522c.453.279.926.543 1.398.807.231.128.703.045 1.329-.243.627-.29 1.353-.759 2.041-1.321.688-.563 1.291-1.182 1.699-1.739.407-.557.581-1.003.501-1.254-.131-.409-.261-.818-.402-1.219q.002-.043.001-.082c-.002-.2.1-.47.203-.74zM263.677 322.414c-.304.426-.889.252-1.21.156l-.018-.005a1 1 0 0 0-.233-.034c-.202-.016-.475-.037-1.044-.308q-.248.015-.497.015c-1.787 0-3.575-.354-5.363-.778l-.069.007c-.449.044-1.005.098-1.354-.057a7 7 0 0 1-.994-.539c-1.42-.341-2.84-.646-4.26-.772q-.668-.06-1.336-.061-.614 0-1.229.039a9 9 0 0 0-.676.304c-.296.144-.559.271-.777.313-.524.1-1.118-.058-1.56-.176l-.203-.053q-.525.088-1.051.184-.035-.053-.071-.11c-.299-.472-.667-.466-1.246-.457a7 7 0 0 1-.888-.026c-.222-.022-.336-.209-.429-.362a1 1 0 0 0-.079-.121c-.089-.116-.183.009-.294.158-.144.192-.316.424-.544.215-.727-.666-1.047-.214-1.289.127-.071.1-.135.191-.201.241-.214.163-.518.002-.748-.22-.183-.176-.548-.002-.825.22-.105.084-.246.086-.413.088-.172.002-.372.004-.586.098-.539.238-.826.353-1.057.445l-.188.076c-.193.078-.433.143-.676.209-.291.079-.586.158-.81.265a42 42 0 0 1-1.746-.391c-.298-.072-.585-.479-.796-1.148-.212-.671-.33-1.544-.33-2.45s.118-1.78.33-2.45c.211-.67.498-1.077.796-1.149a39 39 0 0 1 1.806-.402c.734-.14 1.467-.236 2.2-.236a20 20 0 0 1 1.698.073c.431-.223.861-.425 1.164-.498.25-.059.433.06.589.161.107.07.203.132.299.123q.079-.01.207-.036c.348-.067.939-.182 1.477.036.239.096.517.286.782.468.379.26.733.502.911.428.314-.131.673-.02.991.078.302.093.567.175.718.024.18-.18.334-.107.562.002.158.075.353.168.617.205.304.043.52.169.703.276.258.152.453.265.742.056.321-.232.657-.38.922-.307.12.034.258.026.402.017.189-.011.389-.023.571.06.151.069.275.245.385.401q.051.073.099.135.18-.002.359-.011l.061-.091c.107-.163.238-.362.4-.461.257-.157.483-.059.721.046.185.081.378.166.599.135.15-.021.322-.092.492-.164.253-.105.502-.209.675-.143.065.025.121.135.176.245l.001.002.011.022a40 40 0 0 0 1.267-.275l.11-.084c.179-.134.353-.265.466-.451.123-.201.432-.318.758-.442.213-.08.433-.164.613-.275.105-.066.205.048.308.165.096.11.194.222.302.194a.6.6 0 0 0 .174-.111 1 1 0 0 1 .173-.12c.056-.027.181.035.342.114.099.049.211.104.33.149q.468-.107.938-.202c.065-.1.122-.229.167-.396.032-.119.059-.261.087-.407.038-.198.078-.403.133-.567.042-.128.093-.178.126-.125.016.024.028.071.039.113.013.048.024.091.038.09.009-.001.02-.035.032-.076.02-.067.047-.152.087-.155.148-.011.317.016.482.043.184.03.364.059.507.034.161-.029.389.098.619.225.159.088.319.176.457.212.134.035.274-.035.41-.104.163-.082.319-.161.452-.05.027.023.061.16.103.332.029.122.064.262.102.39q.255 0 .509.017l.018-.058v-.001c.139-.438.33-1.037.597-.679.068.09.111.258.15.409.038.148.072.281.121.309.056.032.123-.059.195-.158.102-.139.216-.295.33-.15l.024.031c.083.103.205.255.327.562q.542.123 1.084.282c.602.174 1.204.373 1.806.571.293.098.574.515.781 1.182.207.669.323 1.528.323 2.417s-.116 1.747-.323 2.415-.488 1.085-.781 1.183c-.478.157-.955.315-1.433.46q-.038.029-.075.053c-.186.125-.359.375-.532.625zM205.796 281.349c1.206 1.986 2.154 5.867 2.799 7.974l.013.042.008.034c.054.238.162.513.332.878.415.899 1.145 2.204 3.203 6.039a77 77 0 0 1 2.117 3.344c3.457 5.612 6.306 13.471 5.433 21.207-.773 7.741-4.225 14.176-8.114 19.54-1.077 1.498-2.205 2.666-3.339 3.719q-.213.22-.438.442c-2.834 2.832-6.554 5.451-9.078 6.728a56 56 0 0 1-7.319 3.11c-4.617 1.966-9.351 3.598-14.526 4.535l-.014.003c-6.14 1.051-12.604 1.337-18.966.186a43.3 43.3 0 0 1-10.44-3.281c-3.055-1.404-5.921-3.161-8.559-5.138a67 67 0 0 1-4.415-3.179c-1.869-1.467-3.435-2.867-4.624-4.111-2.882-3-5.469-6.847-7.245-9.725q-.437-.705-.815-1.328l-.152-.211-.01-.015a36.2 36.2 0 0 1-4.126-7.639q-.03-.307-.051-.623c-.15-2.623-1.024-5.562-1.292-10.383a34 34 0 0 1 .425-7.351c.314-1.816.81-2.675 1.202-3.361.117-.202.228-.389.33-.581.35-.656.392-1.433.484-2.365.119-1.2.324-2.69 1.421-4.27 3.553-4.915 4.925-7.051 5.923-8.931.303-.531.595-1.01.948-1.451.973-1.227 2.713-2.5 4.328-3.319q.357-.175.695-.326c1.246-.562 3.311-2.322 4.835-3.762.574-.543 1.444-1.146 2.487-1.856 1.068-.727 2.326-1.57 3.612-2.562 3.266-2.512 5.113-3.764 6.601-4.764a65.091 65.091 0 0 1 5.826-3.503c2.036-1.096 4.192-2.119 5.869-2.895 4.525-1.489 9.398-2.507 14.488-2.499 2.615-.003 5.153.819 6.751 2.08 1.614 1.263 2.168 2.757 1.823 4.003-.349 1.258-1.506 2.217-3.023 2.929-1.527.708-3.304 1.136-5.17 1.313-3.768.346-7.568 1.504-11.29 3.082-4.544 1.93-8.978 4.466-13.404 7.183-3.096 1.903-6.177 3.939-9.28 6.023l-.963.647a276 276 0 0 1-3.958 3.357 40 40 0 0 0-2.007 1.875c-1.041 1.036-1.886 1.707-2.603 2.319-.492.422-.914.816-1.247 1.291-.178.255-.408.61-.672 1.051-1.102 1.785-2.559 5.012-3.635 8.126-.496 1.376-1.058 3.017-1.441 4.653-.564 2.334-.726 4.644-.47 5.757.429 1.954.804 4.192 1.378 6.136.535 1.852 1.232 3.42 1.899 4.136.402.434.71.858 1.015 1.342l-.01-.014c.345.538.671 1.132 1.066 1.835.56.992 1.25 2.196 2.339 3.719 1.255 1.75 2.089 3.04 2.807 4.114 1.025 1.516 1.829 2.641 3.47 3.85 1.821 1.337 3.683 2.657 5.041 3.813.616.528 1.378 1.06 2.186 1.576 1.068.683 2.219 1.336 3.238 1.993.839.543 1.484 1.113 2.076 1.606q.277.23.543.433a31 31 0 0 0 2.284.799q.205 0 .431-.005c.758-.014 1.667-.059 2.742.028 1.707.136 3.137.474 4.718.747 1.221.209 2.533.371 4.024.288 1.032-.057 2.186-.232 3.329-.452 1.709-.324 3.367-.75 4.549-.881.322-.036.627-.006.929.04l-.012.003q.162.03.326.062l.005.002.08.015c2.725-.735 5.465-1.811 8.122-3.057.219-.135.442-.272.659-.408 1.07-.665 2.084-1.344 2.674-1.926.639-.627 2.47-1.724 4.298-2.993 1.199-.827 2.394-1.723 3.29-2.526.522-.467 1.149-.71 1.792-.977.594-.244 1.201-.509 1.711-.979.252-.233.493-.525.733-.833.207-.266.433-.563.66-.836.219-.262.816-.712 1.459-1.289.311-.279.635-.594.9-.892q.156-.193.309-.39c1.048-1.783 1.986-3.635 2.71-5.443.044-.44.011-.836-.106-1.176a4 4 0 0 0-.347-.699c-.18-.321-.37-.645-.486-1.016-.089-.29-.07-.573.059-.722a.8.8 0 0 1 .222-.156c.088-.047.166-.089.187-.163.015-.054-.015-.124-.052-.208-.058-.135-.135-.307-.082-.514.199-.773.427-1.632.583-2.472.176-.926.262-1.835.215-2.542-.048-.804.048-1.928-.016-3.133-.041-.837-.155-1.7-.353-2.436-.194-.723-.586-1.429-1.004-2.111-.5-.817-1.038-1.603-1.307-2.412-.053-.163.016-.443.094-.803.056-.254.116-.548.143-.863-.576-.97-1.188-1.95-1.842-2.983l-.14-.065-.002-.001c-1.074-.508-2.563-1.168-3.304-3.335-.187-.552-.166-.99-.15-1.393.016-.395.041-.732-.141-1.148-.207-.473-.602-.939-1.04-1.534-.362-.485-.765-1.087-1.054-1.77a3.5 3.5 0 0 1-.293-1.029l-.022-.199c-.078-.664-.179-1.633-.059-2.682-.758-2.685-1.386-5.41-1.975-7.926-1.015-4.31-1.873-7.517-3.881-9.3-.997-.948-2.239-2.143-3.238-3.485-.982-1.338-1.531-2.725-1.224-3.968.321-1.227 1.467-2.247 3.433-2.608 1.95-.348 4.696.056 7.283 1.836 4.367 2.921 6.715 7.814 8.068 11.33q.135.278.263.56c.631 1.379 1.342 2.543 2.048 3.673.162.258.327.527.483.776"/><ellipse cx="146.841" cy="309.499" fill="#000" rx="4.512" ry="6.768"/><ellipse cx="178.426" cy="309.499" fill="#000" rx="4.512" ry="6.768"/></svg>