<svg xmlns="http://www.w3.org/2000/svg" width="50" height="44" fill="none" viewBox="0 0 50 44"><path fill="#fff" d="M1.765 13.562a.67.67 0 0 1 0-.67L7.778 2.476a.67.67 0 0 1 .58-.335h12.028c.239 0 .46.128.58.335l6.013 10.416a.67.67 0 0 1 0 .67l-6.013 10.415a.67.67 0 0 1-.58.335H8.358a.67.67 0 0 1-.58-.335zm4.563 11.253a2.35 2.35 0 0 0 2.03 1.172h12.027c.838 0 1.612-.447 2.031-1.172l6.014-10.416a2.35 2.35 0 0 0 0-2.345L22.416 1.638a2.35 2.35 0 0 0-2.03-1.172H8.359c-.838 0-1.613.447-2.031 1.172L.314 12.054a2.35 2.35 0 0 0 0 2.345z"/><path fill="#fff" d="M16.288 19.038C13.515 14.806 14.478 8.72 18.71 5.71h.001c1.805-1.281 4.108-2.982 6.559-4.184C27.71.331 30.442-.446 33.094.282c.973.25 1.739.592 2.347 1.071.616.485 1.02 1.072 1.328 1.732.3.641.517 1.378.742 2.16.23.797.477 1.678.84 2.689.2.558.604 1.172 1.132 1.996.503.787 1.083 1.715 1.49 2.784.413 1.082.654 2.316.49 3.728-.164 1.408-.725 2.941-1.84 4.636-.74 1.124-2.21 2.251-3.783 3.158-1.596.92-3.429 1.685-5.004 2.023h-.002c-3.414.723-6.198.272-8.582-1.086-2.353-1.342-4.24-3.526-5.963-6.133zM19.66 7.049c-3.479 2.475-4.311 7.56-2.002 11.086 1.667 2.522 3.382 4.458 5.406 5.611 1.994 1.137 4.36 1.556 7.427.908l.129-.029c1.342-.308 2.956-.98 4.399-1.812 1.511-.87 2.707-1.842 3.232-2.638 1.003-1.524 1.451-2.817 1.58-3.923.128-1.102-.055-2.07-.392-2.953-.342-.896-.837-1.698-1.34-2.484-.479-.748-1.015-1.55-1.294-2.326-.384-1.07-.646-2.004-.872-2.79-.231-.801-.417-1.414-.653-1.92-.227-.488-.488-.847-.856-1.136-.375-.296-.91-.557-1.74-.771l-.007-.002-.007-.002c-2.082-.576-4.369 0-6.678 1.133-2.304 1.13-4.483 2.736-6.332 4.048"/></svg>