<svg xmlns="http://www.w3.org/2000/svg" width="40" height="40" fill="none" viewBox="0 0 40 40"><circle cx="14" cy="14" r="14" fill="#fff5e1" fill-opacity=".2" transform="matrix(1 0 0 -1 6 33.98)"/><path fill="#231f20" d="M31.231 26.63c-.386.525-1.094 1.547-1.553 2.061l-.024.029a9 9 0 0 1-.337.367c-.304.305-.7.736-1.652 1.499q-.433.31-.889.586A13.44 13.44 0 0 1 20 33.123a13.4 13.4 0 0 1-4.34-.648l-.14-.05c-.915-.329-1.982-.893-2.63-1.284-.83-.49-1.357-.89-1.78-1.228-2.36-2.018-3.99-4.91-4.445-8.015a13.2 13.2 0 0 1 .372-5.611c.16-.501.347-.968.539-1.388.27-.592.554-1.096.795-1.506.575-.993 1.356-2.041 2.022-2.746q.162-.175.31-.322a13.4 13.4 0 0 1 1.81-1.425l.119-.103c.502-.429 1.202-.863 2.387-1.34a14 14 0 0 1 1.866-.594c.477-.115.718-.188.918-.25q.087-.027.17-.049c.192-.05.402-.055.65-.053.32.004.703.016 1.206-.028q.087-.009.171-.014c1.498-.088 2.169.15 2.66.298.15.048.285.095.424.137.45.133 1.1.296 1.589.437.39.106 1.123.453 1.64.78.195.122.467.274.777.468.322.201.686.448 1.048.747.91.761 1.32 1.24 1.653 1.618q.14.16.263.315c.266.327.582.744.872 1.186.348.527.656 1.09.858 1.533a13.3 13.3 0 0 1 1.28 3.551c.133.638.267 1.249.413 1.711.146.458.3.73.465.73.164 0 .329-.275.425-.777.096-.505.103-1.196-.016-1.903a14.4 14.4 0 0 0-1.34-4.102 14.2 14.2 0 0 0-3.2-4.182 14.4 14.4 0 0 0-3.391-2.263 13.5 13.5 0 0 0-2.6-1.065 8.4 8.4 0 0 0-1.4-.27c-.26-.03-.487-.05-.719-.079A13.657 13.657 0 0 0 20 5.221a12 12 0 0 0-2.352.208c-.568.108-1.214.286-1.816.5-.862.301-1.62.676-2.01.846-.69.295-1.43.74-2.043 1.185-.587.422-1.063.837-1.35 1.053-.345.258-.606.52-.968.926-.25.283-.549.637-.93 1.136a11 11 0 0 0-.906 1.405c-.292.538-.49.95-.81 1.558a10 10 0 0 0-.798 2.036c-.071.279-.151.595-.223.93-.094.44-.17.91-.203 1.343a6.5 6.5 0 0 0-.001.913l.015.234a15 15 0 0 0-.005.849l-.013.144c-.02.25-.04.568-.02.951.033.613.139 1.141.279 1.689.11.426.241.864.399 1.364.107.34.236.728.38 1.105.215.562.468 1.1.68 1.455.08.133.164.238.248.34l.001.001.018.021a14.7 14.7 0 0 0 1.762 2.433q.083.101.169.201c.277.325.563.627.743.833.194.224.745.726 1.378 1.19.413.306.86.596 1.23.825.218.133.441.227.673.317.217.084.44.164.676.271q.177.082.38.18.179.084.382.168c.126.05.415.142.79.24.23.06.497.123.774.182q1.096.285 2.223.398.235.045.397.1c.077.026.142.055.209.084.091.04.186.08.32.113a1 1 0 0 0 .322.025 1 1 0 0 0 .084-.02q.044-.014.092-.017.036.001.08.013a.8.8 0 0 0 .213.023c.363-.008.78-.04 1.182-.09.449-.054.884-.13 1.23-.193.387-.07.93-.22 1.46-.405.37-.129.734-.273 1.045-.4.304-.125.624-.248.93-.377.366-.155.714-.32.988-.498.055-.036.114-.098.187-.177q.076-.084.178-.188.528-.32 1.024-.685l.042-.018h.001c.318-.135.761-.334 1.208-.819.113-.123.169-.217.219-.3.048-.084.091-.158.174-.245.093-.1.219-.202.354-.316.19-.16.398-.346.56-.573l.034-.05c.117-.165.285-.412.42-.68a14.36 14.36 0 0 0 2.656-6.351c.109-.694.097-1.37 0-1.865-.096-.492-.258-.763-.419-.762-.162 0-.313.267-.458.716-.144.454-.278 1.052-.41 1.677a13.3 13.3 0 0 1-.99 2.94l-.076.144c-.188.357-.4.668-.622.967q-.077.105-.155.206"/><path stroke="#231f20" stroke-linecap="round" stroke-linejoin="round" stroke-width="2" d="M19.005 25.122c-1.946-1.946-4.571-4.07-5.277-4.393 1.134-1.76 3.09-3.098 4.063-3.764.497-.391.997-.892 1.513-1.408"/><path stroke="#231f20" stroke-linecap="round" stroke-width="2" d="M26.62 19.64c-1.245.016-3.533.247-5.819.37-.576.058-1.155.23-1.732.29-.577.061-1.133.006-2.394.02"/></svg>