<svg xmlns="http://www.w3.org/2000/svg" width="40" height="40" fill="none" viewBox="0 0 40 40"><path fill="#231f20" d="M25.764 31.264c.043-.024.22-.116.295-.16-.075.068-.45.25-.295.16m4.479-6.973-.06.181c.074-.164.16-.39.223-.546.01-.025-.001.047.022-.014.023-.06 0-.056.03-.145.035-.099.197-.555.239-.718a12.4 12.4 0 0 0 .348-1.852c-.062.647.035-.002.041-.184 0-.04-.023-.036.012-.685.01-.281.033-.195.041-.328a3 3 0 0 0-.012-.396c-.026.532-.024.01-.056-.406a12 12 0 0 0-.096-.9c-.013-.086-.054-.215-.075-.329-.015-.078-.015-.139-.04-.255a12 12 0 0 0-.448-1.583c.156.287-.068-.247-.078-.27-.034-.13.18.43.106.205q-.176-.465-.39-.912c.111.247-.19-.306-.235-.414.006.056-.728-1.317-.907-1.485-.035-.036.151.228-.304-.367-.05-.064-.02-.048-.048-.08-.017-.02-.147-.112-.238-.25-.036-.049.25.212-.333-.4.21.263-.846-.807-1.074-.969l.117.118c-.2-.186-.25-.203-.298-.242a10 10 0 0 0-.658-.493c-.227-.147-.241-.126-.506-.297l.183.131a11 11 0 0 0-.563-.331c.459.214-.094-.056-.13-.071-.058-.03.03.001-.066-.047-.01-.005-.001.014-.15-.06-.313-.15-.257-.138-.39-.2-.012-.004.027.024-.205-.073-.742-.294.008-.01.036.003.037.017-.19-.15.42.153-.204-.103-.217-.131-.24-.143-.02-.011-.386-.164-.407-.17-.184-.065-.03.013-.067.001-.029-.011-.47-.197-.591-.186-.204-.11.138 0 .498.132.056.01-.336-.144-.357-.15-.517-.172-.242-.042-.361-.058-.063-.007-.267-.093-.081-.005-.472-.134-.182-.068-.211-.08-.045-.017-.214-.053-.234-.059-.03-.01.079.007-.041-.027-.02-.006-.219-.037.03.035-.334-.086-.311-.061-.418-.118-.246.01-.162-.07-.254-.093-.244-.054-.181.007-.195.007-.091-.007-.773-.117-.944-.12.07-.03.545.059.65.07.358.03-.497-.085-.234-.093q-.165-.002-.33 0c-.197-.045.088-.038-.452-.065-.09.018.382.022.286.035-.056.005-.37-.012-.376-.005-.006.006.277.015.232.023-.1.008-1.125-.037-.342-.03-.19-.007-.3-.043-.451-.043l-.072.003c-.046.004.023.014.072.026.041.01.07.021 0 .029-.067.007-.223.008-.538.019-.023-.023.412-.02.424-.02.016-.003-.064-.051-.078-.054-.05-.018-1.104.074-1.328.093.09.01-.79.13-.882.168-.024.007.074.004.047.012-.166.044-.624.125-.83.187-.232.067-.198.075-.21.078-.102.031-.024-.004-.086.016-.096.025-.728.255-.757.274-.01.004.099-.021-.036.037-.022.011-.018-.02-.411.165-.47.229.34-.126.152-.016-.319.108-.295.134-.378.17-.028.014-.251.093-.474.216q.239-.137.483-.261c-.165.073-.472.24-.603.308-.065.033-.023-.015-.16.064-.028.018-.119.125.229-.096.037 0-.14.084-.215.135-.012.007-.043.06-.152.103-.025.013.181-.232-.444.245-.02.016.06-.023.04-.008-.013.01-.181.118-.199.132-.017.014.07-.03.048-.013-.106.088-.282.152-.046-.007q-.123.073-.244.15c.104-.03-.115.095-.219.176-.656.528-.198.197-.304.296-.165.164-.071 0-.32.24-.02.025.302-.24-.307.3q.13-.124.263-.246c-.077.019-.318.296-.337.317-.223.228-.083.064-.397.42-.028.032-.097.094-.154.164-.238.291.341-.36.373-.36.007-.01-.622.68-.638.71-.1.094.27-.328.187-.258-.045.014-.857 1.075-.99 1.308-.174.255-.284.352-.24.381-.09.048-.097.134-.117.168-.236.416-.236.418-.409.79-.037.082-.084.145-.094.175-.006.018.023-.007-.009.079-.05.116-.34.82-.362.874-.028.05.104-.305.067-.247-.097.257-.175.51-.253.775-.033.11-.027.05-.04.098-.008.02-.097.407-.088.392.003-.04.354-1.213.279-.899-.017.06-.106.263-.066.238a11.3 11.3 0 0 0-.514 3.227c-.02-.63.065-1.338.184-1.985.015-.088.08-.386.058-.353-.126.546-.21 1.24-.248 1.777-.001.018-.011-.047-.017.018-.013.12 0 .514-.005.581-.002.011-.017-.214-.03-.146a.4.4 0 0 0 .006.197c.013.052.029.1.03.175-.006.116.006.899.055 1.09.041.203-.042-.574-.015-.518.052.524.106 1.058.209 1.545.002.009 0-.069.024.04.044.189.037.242.056.335.018.1.115.446.123.494a.4.4 0 0 1-.042-.07c-.05-.148-.039-.21-.042-.223-.013-.052-.035-.1-.046-.148-.018-.078-.02-.124-.043-.227-.015-.072-.017 0-.03-.069-.007-.026-.024-.307-.067-.325-.066.005.555 2.217.713 2.404a11 11 0 0 1-.206-.553c.126.38.354.803.326.853a11.5 11.5 0 0 0 2.6 3.58c.193.182.062.11.4.388q-.12-.12-.237-.244c.155.163.93.784 1.071.861.018.011.057.007.264.141.184.118.204.153.302.218.082.055.18.106.205.122.02.012.02.027.066.056.146.09.042-.008.17.11l-.11-.057c.177.107.418.254.145.12-.046-.024-.001-.014-.035-.032-1.317-.78-.29-.114.197.113.11.087.817.401.842.409.031.018-.096-.02.059.06.028.026 1.008.364.648.262-.075-.017-.54-.197-.65-.245.245.15.89.313.962.332.285.096-.56-.143.084.066.498.149.036-.012.232.033.108.029.673.193.666.151.198.039.079.033.103.04s.414.07.541.096c.015.004-.036.015-.02.019.03.01.41.058.425.057.01 0-.078-.027-.04-.027.043.003.41.045.43.04.029-.002-.424-.045-.346-.056.208.03.547.046.686.038a4 4 0 0 1-.306-.019c.035-.022.468.005.319.018.095-.007.031-.016.085-.025.014-.002.147.004.173 0 .003 0-.134-.017-.106-.021.05-.006.454.005.488.006.093.008-.238.015-.266.024-.004.003.278.03.283.03.016.023-.299.003-.263.022l.234.016c-.302.022-.856-.021-1-.015.444.035.91.04.91.09-.001.021-.195.03-.188.035.028.02.299.003.309.003l.012.004"/><path fill="#231f20" d="M21.984 21.112c-.003.01-.028.046-.037.063-.006-.029.05-.1.037-.063m-.84 2.62.059-.04c-.063.023-.146.06-.206.077-.01.003.01-.02-.013-.012s-.012.025-.044.039c-.037.016-.213.058-.273.074-.225.064-.456.12-.69.136.238-.043-.005-.027-.071-.016-.015.002-.01.044-.252.044-.105-.002-.073-.028-.122-.036a1 1 0 0 0-.146.003c.195.04.002.037-.153.027a7 7 0 0 1-.336-.04c-.032-.005-.085.006-.128-.001-.03-.005-.05-.02-.093-.028q-.305-.059-.595-.17c.13-.004-.081-.051-.09-.058-.04-.03.169.045.09.006a4 4 0 0 1-.34-.138c.088.049-.14-.02-.17-.056-.008.054-.463-.316-.534-.364-.015-.01.065.084-.148-.096-.023-.02-.005-.023-.018-.032-.008-.005-.08-.01-.11-.068-.01-.022.11.055-.125-.148.057.12-.323-.293-.37-.386l.025.059c-.053-.088-.075-.094-.088-.113-.055-.075-.117-.186-.165-.257-.056-.083-.08-.07-.131-.175l.028.08a4 4 0 0 1-.119-.213c.122.148-.019-.036-.025-.05-.013-.02.016.003-.004-.031-.002-.004-.012.008-.041-.047-.06-.116-.035-.105-.058-.154-.002-.005-.006.017-.047-.069-.121-.274.008-.001.016.008.008.012.011-.1.1.136-.031-.079-.013-.096-.017-.105l-.066-.147c-.034-.064-.025 0-.033-.011-.007-.01-.05-.182-.105-.207.014-.094.05.035.107.164.015.016-.031-.132-.033-.14-.063-.188-.061-.073-.096-.108-.019-.019-.02-.105-.027-.023-.055-.175-.006-.073-.007-.085-.001-.019-.027-.078-.027-.086-.002-.012.019.024.011-.021-.001-.008-.037-.076-.023.02-.029-.126-.04-.113-.019-.162-.078-.075.022-.07.019-.105-.008-.092-.05-.057-.053-.062-.023-.03-.041-.288-.052-.35.036.02.022.202.036.24.04.128-.008-.187.047-.097l-.048-.116c.021-.076.04.028.017-.169-.027-.03.013.14-.008.107-.013-.02-.023-.135-.028-.137-.008-.002.007.102-.005.086-.029-.035-.015-.415.005-.127-.003-.07.032-.11.031-.166q0-.013-.003-.025c-.003-.017-.014.007-.026.025-.01.016-.021.026-.029 0a.7.7 0 0 1-.002-.2c.022-.006.002.154.004.158.002.006.052-.022.055-.027.004-.017.002-.406.042-.484-.035.028.04-.29.043-.325 0-.01-.025.021-.025.01.002-.064.073-.223.097-.298.026-.084.009-.078.01-.083.013-.037.013-.004.02-.027.01-.035.097-.266.1-.278.002-.004-.03.027-.012-.024.003-.009.018.004.075-.146.07-.18-.08.112-.065.03.078-.101.05-.11.067-.14.006-.01.067-.077.11-.16a4 4 0 0 0-.08.186c.032-.058.086-.174.118-.22.015-.022.023.008.05-.043.007-.01-.015-.079-.069.065-.022.002.024-.056.036-.087.002-.005-.015-.038.024-.065.01-.006.025.134.125-.143.003-.009-.024.012-.021.003.002-.006.047-.065.05-.072.004-.008-.027.014-.023.005.019-.05.097-.076.034.008l.075-.076c-.052.01.023-.05.052-.089.186-.247.04-.1.063-.15.04-.078.045.012.114-.097.008-.009-.118.087.098-.126l-.088.1c.042.005.107-.119.114-.127.08-.087.03-.023.146-.157.01-.012.041-.03.064-.055.092-.107-.144.116-.159.114-.01-.004.251-.239.265-.241.048-.022-.117.108-.074.096.01-.01.394-.326.486-.368.102-.056.171-.04.144-.087.055.03.061-.016.074-.023l.293-.15c.03-.016.062-.013.072-.02.005-.005-.013-.015.015-.034.04-.028.311-.113.334-.109.023.002-.11.044-.081.05.095-.033.186-.067.284-.093.04-.011.023.005.04 0 .008-.002.146-.047.14-.05-.018-.011-.448.127-.34.074.02-.01.105-.01.084-.036.39-.112.794-.166 1.196-.162-.23.024-.49.027-.729.074-.032.005-.143.026-.126.038.201-.04.454-.082.651-.082.006 0-.016.015.008.016.044 0 .186-.025.21-.019.004.001-.077.02-.052.032.032.014.052.005.07-.008.02-.013.037-.029.064-.028.043 0 .324.047.396.037.077-.014-.208-.032-.186-.046.195-.005.39.04.569.075.003 0-.022-.019.018-.012.072.011.085.035.118.046.036.012.164.043.179.056a.1.1 0 0 1-.033.012c-.057-.008-.07-.037-.076-.039-.018-.006-.04 0-.057-.006-.028-.008-.042-.02-.08-.03-.026-.006-.004.016-.03.01-.008-.002-.1-.061-.118-.023 0-.007.794.239.867.283a4 4 0 0 0-.194-.093c.133.06.305.104.296.152.483.23.92.554 1.278.948.06.073.004.053.112.166l-.057-.11c.052.061.26.349.294.395.005.005.034-.002.085.07.045.066.034.088.053.126.015.032.04.063.044.073.004.008-.006.017.002.035.024.056.031-.005.025.068l-.026-.036c.031.067.06.163.003.073-.01-.015.008-.007.001-.02-.277-.461-.07-.084.032.075.008.05.132.29.13.302 0 .013-.03-.024-.02.037.007.011.137.346.071.232-.012-.024-.068-.186-.085-.224.003.103.129.3.134.326.025.1-.092-.18-.026.044.047.172.025.004.054.067.018.036.038.24.072.226.018.068-.01.032-.009.04.001.01.038.142.036.187 0 .006-.021-.008-.022-.002 0 .011.022.14.023.146.002.003.015-.03.02-.018.007.014.017.142.021.148.01.01-.012-.147.009-.123.004.073.026.19.044.238a1 1 0 0 1-.011-.108c.029.01.038.163.013.112.013.033.018.01.03.028.003.004.006.052.01.06.002.002.01-.047.016-.038a.7.7 0 0 1 .01.174c-.008.034-.018-.084-.03-.094-.001-.001-.023.099-.025.1-.02.006-.007-.104-.026-.091l-.011.082c-.019-.105-.02-.297-.048-.344.021.152.022.313-.028.313-.021 0-.035-.064-.04-.062-.018.01.003.1.002.103l-.003.004c-.01 0-.021-.128-.027-.134-.01-.01-.045.048-.053.048-.002-.003-.014-.091-.027-.06-.013.03-.012.107-.014.11-.008.015-.019-.12-.025-.123-.002-.002-.016.07-.02.072-.005.002-.017-.052-.032-.073-.011-.015-.018.031-.02.023 0-.005-.008-.13-.01-.136-.004-.009-.015.021-.018.017-.005-.006-.003-.046-.008-.04-.002.004-.038.161-.05.16-.02-.001.018-.164-.055-.011 0 .001.007.037.006.038-.014.022-.04-.092-.032.049-.034-.26-.03-.032-.066-.07-.014-.013-.025-.112-.027-.112-.016.01-.001.041-.009.052-.004.006-.027-.08-.037-.06-.005.011.002.104.001.107-.01.037-.023-.007-.03.001-.005.006-.004.06-.005.062s-.025-.071-.033-.086c-.006-.012-.013.033-.016.024-.016-.048.014-.154-.032-.05-.003.006 0 .043 0 .044-.014.024-.019-.045-.032-.056-.022-.02-.005.078-.024-.003a.6.6 0 0 0-.003.167c-.016-.198-.076-.261-.065-.046-.001-.07-.032-.06-.033-.08-.001-.013.022-.113-.043-.063-.008.006.007.064-.012.047-.005-.142-.01-.002-.013-.002-.037 0-.042-.341-.063-.398-.018-.066-.063-.117-.067-.131-.011-.047.014-.012.017-.024s-.063-.136-.064-.143c-.002-.027.025-.007.025-.01.003-.036-.073-.205-.09-.254-.01.006.026.102-.016.05-.05-.06-.001-.085 0-.088a3 3 0 0 0-.567-.867c-.017.021.147.178.146.186.004.034-.245-.251-.277-.287l.062.089c-.065-.02-.13-.143-.207-.189-.025-.014.008.03.006.03-.032-.01-.064-.05-.024-.04-.07-.036-.05-.043-.095-.08-.002-.002.01.024-.03 0-.02-.012-.113-.08-.133-.078-.008 0 .01.077.041.044.088.091.045.007.084.037.005.005-.023.013.08.081-.046.02-.136-.092-.16-.101-.045-.02.103.119.153.117-.036.016.008.012.042.043.037.034.013.028.033.046.055.049.05.01.078.068.005-.091.082.067.1.114a3 3 0 0 0-.172-.154l.002.017-.044-.041.014-.002c-.093-.051-.097-.086-.103-.091a2.4 2.4 0 0 0-.28-.203c-.015-.008-.016.016-.112-.06-.03-.023.01-.021-.03-.04-.071.016-.052-.017-.067-.024-.041-.021-.072-.023-.076-.025-.053-.023-.13-.058-.189-.08 0 0 .024.026-.012.007-.012-.006-.113-.112-.23-.123q.04.017.081.038c-.03-.02-.27-.064-.217-.033.033.018.13.002.128.043-.072-.043-.513-.1-.547-.105-.005-.001.026-.011.02-.014-.005-.002-.108-.006-.121-.011-.008-.004.038-.009.034-.014-.003-.004-.131-.014-.139.003.032-.007.12.003.073.014-.006.001-.036-.01-.044-.008-.067.018.133.02.164.024-.066.005-.147 0-.232-.002-.081-.002-.163 0-.233.011-.06-.008.086-.026.018-.032-.14-.012-.035.02-.039.023-.032.015-.158-.041-.15.013-.05 0-.036-.01-.105.009l.03.006c-.07.043-.25.003-.24-.005.03-.025.121-.019.128-.02.01-.003.03-.066.16-.036.044-.045-.196.008-.09-.036-.075.012-.383.067-.42.1-.005.005.03.031-.048.039-.037.003.046-.026.027-.029-.064-.026-.692.301-.786.4-.007.005-.011-.006-.018 0-.021.015-.086.087-.126.112.089-.044-.055.075-.091.107-.056.046-.066.029-.092.047-.1.073-.189.245-.28.291.037.023-.118.116-.16.182-.035.051-.055.14.003.082a2 2 0 0 0-.143.272c-.007.014-.009-.011-.02.014 0 .002.01.01 0 .032-.07.18-.055.084-.077.114l-.025.04c.04-.107.093-.226.11-.257-.042.013-.105.23-.133.287 0 .002-.013-.01-.014-.009-.01.023-.056.172-.028.147.008-.006.03-.073.06-.153-.006.023.017.013.016.018-.01.047-.065.154-.08.194-.003.009.008.012.008.013-.014.036-.04.012-.02.059-.058.056.032-.127.004-.121-.03.002-.126.443-.087.448q-.006 0-.015.018a.5.5 0 0 0-.024.172c0 .004.031.005.031.01-.001.01-.036.16-.018.218l.016-.091c-.007.183.006.155.015.094l.002-.009c.008-.046.018-.106.02-.107a1 1 0 0 1 0 .186c-.002.05-.007.083-.02.06v-.06c.001-.033 0-.061-.011-.021l-.001.021c0 .032.004.085.002.089-.008.018-.02-.04-.031-.089-.008-.036-.016-.068-.025-.057q.01.027.01.057c.003.037.001.077.006.113.003.026.019.032.02.035.006.047-.012.021-.01.037 0 .009.042.099-.007.085.071.303.038.081.025-.105.02.058.022.174.034.225.004.018.018.005.025.035.012.064.06.367.084.445-.02-.046-.032-.027-.02.01.013.035.025-.002.03.004.004.007.052.18.068.206-.056-.123-.062-.09-.022.02l-.032-.042c.03.06.064.202.089.234.003.005.007-.021.009-.018.02.028.06.139.068.141.006.002-.007-.047.007-.034.003.003.008.055.036.093.01.015.017-.001.02.002.024.028-.007.021.031.077.029.04.067.059.1.119-.1-.2-.008-.037.053.032.01.011.022-.013.066.064-.149-.124.012.058.045.096.002.002-.01.013.005.032.002.001.008-.008.024.009.148.155.048.06.067.098.008.017.093.081.113.1.005.005-.005.01.013.028.033.03.07.048.093.066.003.003-.01.017.037.048.013.01.03.016.017-.003-.045-.06-.168-.132-.213-.204-.042-.064.127.102.137.109.004.003-.037-.022-.003.012.029.028.104.053.146.095a.3.3 0 0 1 .022.053c-.003 0-.064-.041-.06-.029 0 .002.037.031.038.04s-.024.076-.016.084c.018.02.014-.004.027.007.027.025.12.115.137.097l-.05-.04c.099.065.063.028.08.034.017.005.001.02.033.043.007.006.15.086.152.076-.085-.033-.043-.039-.046-.041-.013-.01-.038-.007-.056-.019-.126-.081.014-.02-.013-.044-.009-.008-.036-.01-.04-.014-.013-.01-.004-.024-.014-.03-.023-.011-.01.025-.013.024-.027 0-.092-.067-.032-.055-.022-.027-.043-.004-.058-.03-.029-.05.032.002.052.01.072.032.084.055.18.108.034.019.081.029.098.037.01.005.083.1.121.03.033.025.07.1.112.116.037.013.037-.018.04-.017.006 0 .048.02.065.022s.014-.011.043-.005c.071.015.06.041.067.046.075.048.052-.003.071 0 .017.005.255.085.31.083l-.067.003c.034.026.08.005.075.037.017-.05.089 0 .113.001.01.001.01-.008.022-.006.046.006.149.024.174.021.108-.009-.162-.067-.18-.075.041.01.283.02.175-.015-.017-.005-.05.015-.059.014-.065-.001-.012-.016-.017-.018-.008-.005-.053.01-.064.006-.003-.002.023-.017-.037-.026.032-.012.201.022.224.018.009-.001-.04-.042.106.004l-.005-.011a3 3 0 0 0 .247-.005c-.009.009-.055.027.003.021.034-.003.008-.02.011-.021.031.005.555-.067.65-.111.032-.01.12-.055.126-.058.041-.014.19-.063.217-.079.017-.01-.006-.016.01-.022.015-.006.006.014.01.013.04-.008.297-.168.362-.199a1.5 1.5 0 0 0-.206.163c.002 0 .055-.015.062-.025.022.003.057-.063.09-.074.004-.002.002.026.057-.004.018-.01.055-.054.112-.07.065-.047.406-.307.404-.35 0-.001-.048.035-.027 0 .028-.048.026.018.072-.025.008-.006.12-.14.121-.148.015-.056-.09.054-.091.05a1 1 0 0 1 .08-.11c.004-.003-.035.098.032-.006l-.035.025c.03-.05.05-.04.06-.05.03-.033.03-.09.105-.124.02-.01.013.024.015.023.026-.01.008-.057.052-.069.003 0-.024.076.05-.041l-.023.02c.006-.02.073-.143.082-.16.03-.045.026.007.05-.044-.041.019.03-.133.047-.114-.018-.034.06-.155.083-.219.016-.04.03-.126.035-.138.007-.015.025-.004.038-.031.004-.008.014-.097.052-.168.008-.014.05-.038.052-.008.004.052-.047.134-.027.138.023.005.041-.12.05-.153.044-.15.05-.058.058-.06.02-.007.034-.093.036-.096.01-.014.013.05.023.052.014.004.053-.077.054-.057.003.029-.031.103-.032.108.001.067.05-.015.07-.037.006-.007.009.024.011.018.038-.091-.04-.027-.027-.09.012-.055.023.02.024.019.002-.003.013-.07.022-.08.005-.005.019.178.037.175q.01-.087.014-.174c.025 0-.004.08-.003.088.002.018.022-.028.03-.025.004.002.012.061.027.01.005-.017-.006-.056.018-.119-.006.229.027.075.037.069s.015.107.029-.027c.047 0 .014.005.017.044.004.048.036-.058-.002.111.024-.006.042-.145.044-.152.002-.006.01.026.014.016.058-.127.028-.04.06-.075.002-.003.023-.128.019-.031-.01.176-.056.243.006.284.052-.126.024-.291.025-.33.004-.061.013.003.017-.005.002-.002.004-.055.005-.056.055-.034-.016.236-.023.321l.032-.065-.013.093c.037-.146.008-.005.042.04.008.01.008-.092.015.026.02-.083.024-.055.023-.133.017.004.009.18.002.248.063-.236-.02-.109.04-.312-.016-.04-.024.059-.026.05-.009-.03.02-.097-.017-.182-.006-.013-.031.04-.024-.042a.4.4 0 0 1 .023-.06c.015.008.006.06.012.063.005.002.006-.057.007-.057.018 0 .004.05.01.043.013-.015.064-.227.036.051-.006-.233-.016-.03-.017.06 0 .023.01.03.01.063 0 .043-.012.091-.013.113-.002.024.044-.106.007.086.042-.095.036-.272.059-.368.047-.196.035.141.032.177 0 .01.017-.02.017-.014.002.01-.03.2-.023.221.009.021.01-.07.024-.074.01-.003-.016.232.012.107.02-.087.006-.25.044-.275q-.015.196-.05.387.043-.1.079-.204c-.018.147-.059.269-.074.409.122-.319.01.116.009.122.003.003.073-.118.084-.138-.01.121-.123.474-.012.282a.4.4 0 0 0-.027.132c.024-.004.077-.208.082-.17.009.044-.035.089-.053.147-.1.298.029.26-.126.544l.019-.013a4.2 4.2 0 0 1-.598.861c-.063.126-.31.4-.455.51-.028.024-.178.121-.191.126-.023.01.084-.073.029-.044-.01.008-.26.174-.233.175.03-.016.111-.083.127-.09.126-.031-.681.431-.73.438l.063-.01q-.082.033-.165.063m.806-2.459c-.003-.029.038-.073.05-.106.018-.046-.007-.148.038-.086q-.04.098-.088.192m-.699.749c.043-.022.038.03-.003.042-.004.001-.055-.013.003-.042m.374-.324-.031.032c-.036.017.05-.072.03-.032m-2.127.952c.052-.001.014-.036-.018-.022-.002 0 .014.022.018.022m.037.001c.042.031.123-.034.058-.026a.4.4 0 0 0-.058.026m1.855-.725c.004.013-.037.04-.055.052-.006-.01.04-.037.055-.052m-1.071.594c0 .01.162-.042.168-.059-.023.015-.169.051-.168.059m-.423.101c.004.001.062-.01.06-.017-.03-.007-.08.012-.06.017m-.866-.022c-.004.002.03.062-.067.008-.014-.008.043-.01.038-.014l-.026-.01a1 1 0 0 1 .102.015c.02.018-.046 0-.047.001m-.452-.079c-.013.005-.072-.022-.085-.03-.002-.002.017-.019-.01-.028-.023-.007 0 .027-.04.006-.041-.02.022-.012.018-.015s-.073-.021-.066-.033c.006-.008.073.028.09.032.024.006.003-.02.039-.002.023.011 0 .034.004.037s.092.017.05.033m.384.061q.006 0 .013.002zm2.925-1.185c-.021.015.01-.052.034-.069.009.005-.03.066-.034.069m-2.974 1.199c-.07-.023-.015-.02.049-.014-.021.001-.026.021-.05.014m1.992-.299q-.006 0-.01-.007.014.002.01.007m-.154.069c-.045.04.06-.012.054-.023a.2.2 0 0 0-.054.023m-1.32.282c.005.002-.08.05.041.015-.064-.007.004-.011.003-.016-.002-.012-.11-.004-.133-.011-.02.022.071.006.088.012m-1.58-.523c.02-.002.055.028.08.046-.019.003-.055-.027-.08-.046m2.672-4.983c-.205-.058-.217-.117-.036-.035.003.002.05.034.036.035m-1.81-.072c-.026-.017.037-.04.083-.042.01 0 .052.014.013.029-.006-.029-.073-.022-.096.013m.156 5.532c-.024.01-.085-.017-.118-.029.024-.006.09.017.118.029m.975-5.648c-.023-.005-.04.015-.036.017.016.009.06-.003.036-.017m-.768 5.691c.001.01-.086.004-.088-.02.018.005.087.014.088.02m-1.18-.48c.008.012-.054-.022-.068-.038.007-.007.062.03.068.038m1.58-5.22c-.02-.002-.071 0-.076.008-.007.01.067.004.076-.009m2.842 2.096a.24.24 0 0 1-.055-.1c-.007-.067.058.096.055.1m-2.259-2.067c.06.031-.007 0-.008.02.042.008.147.032.08-.003-.014-.007-.052-.012-.072-.017m-.057-.017c-.008.005-.058.02-.018.024.019.002.052-.016.018-.024m2.137 1.629c-.007-.061.092.186.089.195l-.001.01c.009.006.027.053.015.063-.004-.014-.02-.052-.02-.057v-.005a1.4 1.4 0 0 1-.083-.206m-.201-.391c.06.04.026.076.022.072-.055-.05 0-.03 0-.032-.001-.006-.043-.04-.022-.04m.168.307.025.055c.007.047-.06-.095-.025-.055m-3.863 3.913c-.033-.022.01-.02.03-.003.002.002 0 .022-.03.003m1.726-5.459c-.007-.006-.243-.043-.23-.015.02-.004.284.043.23.015m-1.722.26c.037-.017.007.024-.017.026-.008 0 .007-.02.017-.025m.942 5.467c.045-.008.031.035-.005.016-.001-.001.003-.016.005-.016m-.63-5.583c-.13.064-.127-.023.06-.06l-.013.015c.21-.053.015 0-.033.022-.018.008.002.015-.015.023m-.506.22c-.148.026.1-.082.166-.12-.057.053-.141.096-.016.055-.165.094-.105.039-.113.04-.01.003-.03.024-.037.025m.326-.166c.006-.005.066-.018.086-.028-.022.028-.13.059-.086.028m3.26.688c.015-.006.031-.005.06.035-.016-.007-.041-.025-.06-.035m.4 3.432c.018-.027.054-.082.03-.072-.001.002-.037.068-.03.072m-2.757-4.351c-.007-.003-.187.017-.123.026.019.001.182-.016.123-.026m.932.071a.4.4 0 0 0-.077-.011c-.007.01.068.02.077.011m1.918 4.142c.003-.003.045-.095.033-.088-.02.013-.045.099-.034.088m-4.034 1.24c-.008-.003-.01-.022-.012-.024-.006-.003-.141-.078-.08-.065.009.004.197.12.224.133 0 .024-.075-.037-.096-.047-.004-.001-.015.013-.036.004m3.715-4.356c.016-.004.132.138.116.146a3 3 0 0 0-.116-.146m-.056-.072c-.018-.036.043.031.056.055-.007.006-.053-.05-.056-.055m-1.874-1.065c-.019 0 .035.028.022.03-.008.001-.048-.01-.062-.006-.004.002.035.025.047.026.017 0 .003-.016.021-.014.062.008.115.027.171.038.005 0-.032-.017.011-.009.007.002.045.025.097.035.127-.02.199.049.345.082a1 1 0 0 0-.113-.056c-.117-.048-.339-.1-.471-.116-.034-.005-.019.007-.033.006-.012-.001.004-.019-.035-.016m2.156 4.412c.025-.004.042-.058.06-.089-.021.003-.038.061-.06.089m-.876-3.902c-.015-.009-.058-.044-.066-.041s.055.05.066.041m-3.75 4.444-.03-.034c-.016-.038.07.057.03.034m-.56-.847c-.016-.029-.034-.057-.023-.073.005.02.034.072.023.073m-.239-1.374c-.02.005 0-.091.005-.11.007.008.01.106-.005.11m5.067-1.823c.04.045.054.015.07.053.002.007-.033.064-.059 0-.005-.012.038.011-.011-.053m-3.032-.762c.01-.017.057-.027.088-.035-.004.012-.067.027-.088.035m3.574 3.946c.03-.018.063-.144.04-.118-.003.003-.032.102-.04.118m-3.514 1.645c-.055 0 .05.035.087.03-.016-.003-.083-.03-.087-.03m-2.11-2.666v-.062c.014-.047.016.113 0 .061m.384 1.345a.4.4 0 0 1-.079-.167c.027.018.104.181.08.167m4.515-3.674q.048.043.084.09c-.013.001-.085-.082-.084-.09m-4.902 2.12.002-.009zm4.103-2.64c-.032-.019-.032.002-.03.003.022.016.065.017.03-.004m1.385 4.167c.02-.002.039-.062.058-.09-.016.002-.046.065-.058.09m-4.176-3.904c-.049.01.095-.109.136-.117a1 1 0 0 1-.136.117m.954 5.319c0 .014.08.015.065.005-.01-.006-.065-.014-.065-.005m-.734-5.474c.013-.012.055-.02.046-.006-.011.018-.05.009-.046.006m1.492-.363c-.008-.003-.11.01-.068.024.03.01.034-.01.04-.01.009 0 .17.03.028-.014m-2.46 1.214c.019-.034.052-.067.077-.099a.3.3 0 0 1-.077.099m1.416 4.545c.007.01.249.084.116.028-.008-.002-.137-.052-.116-.028m3.105-4.818-.017-.02zm-.52-.44c.017-.001-.04-.042-.06-.048-.012.007.058.047.06.048m-3.933.604c.01-.022.042-.05.06-.073.004.01-.046.07-.06.073m-.642 1.472c.01-.044.018-.1.007-.104q.003 0 .006-.005c.003-.004.006-.053.014-.074.038-.123-.058.493-.04.13zm.472 2.04c.003.03.06.08.053.062-.005-.013-.056-.09-.053-.062m-.416-.913c-.001.008.027.075.034.075-.004-.042-.032-.113-.034-.075m.521 1.087c.009.014.039.017.038.015-.004-.018-.045-.045-.038-.015m4.471-3.98a.22.22 0 0 0-.104-.065.1.1 0 0 0-.013-.027c-.004-.029-.518-.405-.188-.133.01.008.003-.013.045.022.003.002-.002.012.006.019.02.016.119.108.144.12v.008c.015.033.12.072.11.056m-5.026 2.754c-.001.015.012.06.022.062 0-.023-.02-.096-.022-.062m1.964 2.232c.025.017.1.026.082.012-.012-.008-.112-.03-.082-.012m-1.834-1.793c-.046-.162-.014-.038-.036-.058zm5.354-2.557c-.012-.024.028-.01.03.022 0 .01-.024-.008-.03-.022m.4 1.138c.02-.026.02.088-.002.046zm-.217-.82c-.022-.01-.028-.02-.047-.069.036.068.02-.003.047.069m-5.684.709h.002zm.676 2.438c.003.025.044.068.043.046 0-.002-.03-.046-.043-.047m4.263-4.166q0 .004-.006.002.002-.003.006-.002m-4.467 3.92c.01-.004-.037-.082-.04-.084-.043-.034.018.053.04.084m2.088 1.28c.005-.001-.022-.031-.041-.024-.016.006.023.025.04.023m3.196-4.02c.01.026.023.064.013.075-.004-.018-.022-.073-.013-.076m.156.613a.6.6 0 0 1-.04-.156c.02-.005.032.125.04.156m-.819-1.668c0-.002-.047-.057-.05-.041-.003.023.06.06.05.041m-2.67 5.04c-.033.003.036.043.073.027.02-.008-.067-.028-.072-.027m-1.634-.85c.035.025-.029-.06-.049-.062.013.016.036.053.049.062m-.74-1.233c.002.14.048.049.035.028a.2.2 0 0 0-.036-.028m5.77.016c0-.02-.04.042-.03.054.005.008.03-.042.03-.054m-5.655-1.996-.006.015zm.879 3.513c-.04-.103-.058-.064-.065-.07-.013-.012-.035-.05-.062-.07l.1.06c-.023-.02-.201-.213-.21-.213-.014.004.047.06.048.061.002.004-.013.039-.009.045.007.012.174.16.198.187m-.896-1.27c-.004-.021.007-.032 0-.04-.002-.003-.015.002-.023-.008zm1.062 1.333c.013.029-.082-.047-.083-.051-.01-.021.073.027.083.05m-.72-.714c.001.004.052.081.059.075-.01-.023-.08-.124-.06-.075m-.37-.68c-.01-.031-.018-.093-.035-.08zm2.188 1.901c.053.044.033-.001-.017-.023-.019.011.009.016.017.023m.187.058c.016.01.19.023.166.002-.009-.006-.11-.002-.115-.004-.006-.003.027-.017-.026-.02.003.006-.03.02-.025.022m-.142-.027c.055.035.076-.007.032-.015-.017-.004-.04.01-.032.015m-.239-.061c.02.01.075.031.117.026a3 3 0 0 1-.154-.045c-.008.006.02.01.037.019m3.944-3.008c.011-.05.019.064.015.069-.01.014-.02-.047-.015-.07m.251.662c.008-.014.026-.021.022-.055l-.053.091c.023.03.023-.021.031-.036m.122-.111c0 .004.047-.016.01.042-.025.039-.014-.19.006-.229.006.046-.016.145-.016.187m.22-.396a.5.5 0 0 1 .003.1c-.015.054-.021-.085-.003-.1m-.026.29c.013-.041.009.054 0 .082-.008.002-.001-.075 0-.081m.004-1.054c.02-.052-.05-.08-.024-.012.001.003.023.014.024.012m.063.856c-.01.042-.011-.053-.006-.082.008-.002.008.075.006.082m0-.902c.009-.066-.057-.03-.058-.022a.5.5 0 0 0 .052.16c-.038-.163.001-.106.006-.138m-.108-.274c-.023-.054.002.093.028.116-.008-.028-.021-.1-.028-.116m-.088-.344a.4.4 0 0 0-.055-.13c.016.03.04.121.055.13m.005-.08c-.004-.052-.05-.045-.016.002.001.002.016 0 .016-.002m-.099-.262c.002-.038-.053-.052-.031-.004.007.014.031.008.031.004m.35.866c-.003-.048-.047-.1-.028-.001l-.038-.1c.014.131.052.113.058.15.008.053-.027.056-.04.047.03.038.06.22.074.325 0-.094-.007-.247-.02-.339-.002-.026-.017-.05-.02-.072-.007-.036.014-.007.014-.01m-.527-1.19c-.034-.093-.038-.018-.003.024.002.002.004-.022.003-.024m.603 2.063c-.022.13-.038.033-.022.306-.016-.115-.018-.008-.026-.03-.007-.02.005-.085-.015-.047.024-.05.025-.27.026-.28.002-.005.043.01.037.051m-.226-1.438c.037-.05-.045-.031-.029-.107-.09-.056.087.22.046.276-.107-.329.022.233.021-.021.034.2.03.06.049.086.02.028.04.141.057.13a4 4 0 0 0-.064-.2c-.019.078-.05-.06-.035-.117zm.082.384a.6.6 0 0 0-.053-.137c.002.02.064.223.053.137m.124.647c-.004-.053-.006-.137-.026-.164.008.053.008.137.026.164m-1.175-2.447c-.058-.038.09.112.058.058zm.903 1.273c-.013-.071-.047-.02-.014.022.002.003.015-.019.014-.022m.295 1.686c.014.005-.007.194-.011.227-.009-.02-.002-.233.011-.227m.032-.42c.038-.113-.032-.255-.034-.27 0-.016.022.006.023.003 0-.009-.028-.178-.032-.186-.002-.005-.024.03-.039-.003.032.064.06.375.062.39.003.013.025-.084.02.065m-.033-.31c-.005.043-.024-.074-.026-.104-.001-.065.027.098.026.104m-.042-.286c0-.014-.027-.135-.042-.142-.001.06.043.173.042.142m-.528-1.264c-.019-.026-.06-.105-.072-.103.02.026.06.105.072.103m.59 2.939c.02-.052-.002.073-.015.107a.5.5 0 0 1 .015-.107m-.22-2.399c0-.021-.182-.372-.219-.415.024.05.196.399.203.416.003.004.017.002.017 0m.257.815c.023.033.008.06.008.065.006.044.023.136.004.118-.004-.08-.058-.247-.012-.183m-.58-1.42c-.077-.108.048.117.044.08a1 1 0 0 0-.043-.08m.345.644c.029.02.15.4.162.462-.04-.048-.034-.097-.059-.17-.007-.02-.015-.01-.015-.013-.012-.033.008-.012 0-.033-.001-.014-.12-.278-.088-.246m.25.795c.015.02.056.265.053.275-.008.076-.05-.256-.053-.275m-.244-.837c.045.028.099.22.036.1-.006-.012-.015-.068-.035-.1m-.32-.604a.7.7 0 0 0-.085-.123c.01.018.12.191.086.123m.066.045c-.002-.002 0 .035-.032-.022-.003-.005.008-.025-.044-.09a.1.1 0 0 0-.036-.026c.024.087.21.28.112.138m.515 1.397c.006-.015.036.013.029.044-.004.013-.022-.007-.03-.044m-.836-1.808c.064.054-.1-.147-.112-.153-.001.012.106.147.112.153m.852 3.523c-.02.067-.021.022-.023.025-.055.139-.018.108-.021.132-.007.05-.037.032-.049.117.021-.14-.008-.016-.02-.016-.052 0 .075-.17.08-.24.002-.01-.032.055-.03.03.006-.08.135-.308.063-.048m.019-1.65c.022.03.038.274.018.212-.001-.01-.046-.254-.018-.211m-8.044-.012c-.003-.06-.04.073-.034.1.003.013.035-.073.034-.1m-.106.958c.008.071.067.14.052.054-.002-.01-.045-.063-.052-.054m2.129-3.858c-.074.02-.052.048-.006.02.017-.008.008-.02.006-.02m-1.814 2.074c-.004.006-.033.087-.024.087.015-.028.05-.128.024-.087m1.832-2.09c-.035.027.043.012.078-.034-.023.014-.074.031-.078.034m5.717 1.855c-.028-.026-.07-.121-.1-.172.013-.015.08.135.1.172m-7.85 1.718c.012.067.025-.076.007-.063zm4.403-4.077c-.05.007.103.034.062.01zm.664.105c-.035-.012-.19-.042-.131-.02.009.004.127.03.131.02m3.018 5.141c.024-.014-.013.096-.021.11-.003.006-.01-.092.02-.11m-6.375-4.471c-.03.024-.111.08-.118.099.035-.031.14-.09.118-.1m-1.696 2.998c-.027.056-.03.157 0 .133.004-.11-.027.012 0-.133m2.328-3.402c-.029.012-.038.046-.035.046.035-.004.067-.05.035-.046m-1.69 1.519c-.012-.005-.06.081-.046.074.004-.002.053-.07.045-.074m6.484-.592c-.023-.04.078.054.096.093 0 .026-.092-.088-.096-.093m-3.989-1.206c0-.018-.147.03-.084.028a.3.3 0 0 0 .084-.028m1.465-.107c-.104.004.322.08.213.04a3 3 0 0 0-.213-.04m.693.154c-.017-.007.008-.059.073-.016.008.006-.04.007-.033.012.004.003.155.06.162.063.008 0 .005-.02.014-.018.009 0 .097.05.145.07.09.036.106.027.114.03.021.01.053.035.096.055.219.097.541.278.674.417a2.2 2.2 0 0 0-.42-.261c.058-.005-.229-.094-.06-.046a8 8 0 0 0-.765-.306m-5.307 4.52c-.026-.041.01.182.037.196a4 4 0 0 0-.037-.196m-.054-1.039c0-.02-.036-.046 0-.153.01-.032.013.006.017 0 .002-.001.037-.098.026-.015-.014.127-.03.008-.04.075a1 1 0 0 0 .009.132s0-.04.003-.046c.01-.023.02-.01.021-.013.002-.01.012-.215.036-.24.004-.009-.03.32-.032.334-.002.008-.034 0-.038.009-.003.004-.002.139-.005.156l-.003.011c.01-.019.004.101-.007.098a.5.5 0 0 1 .003-.089l.001-.003c-.015.016.01-.266-.013-.208 0-.083.025.015.022-.048m.046-.395.004.028c.022-.144.08-.302.132-.46.013-.04-.022 0 .001-.051.019-.04.054-.08.05-.056-.001.006-.043.086-.056.13-.036.128-.008.101-.01.109s-.037.085-.048.13c-.027.111-.029.165-.072.316.005-.091-.03-.047-.001-.146m3.794-3.286c.005-.012.1-.008.134-.011-.005.01-.1.006-.134.011m1.509 8.216c.022-.025-.188.027-.129.027.013 0 .102-.02.129-.027m-.961.149c-.03.006.088.013.087-.002 0-.004-.084.001-.087.002m-3.546-6.754c.002-.005.055-.065.058-.067.047-.03-.123.171-.058.067m2.367 6.67c.102.012-.193-.067-.106-.03.004.003.102.029.107.03m-.409-.116c.023.008.125.047.128.042.004-.008-.111-.052-.128-.042M17.74 16c-.02-.014.117-.06.162-.08.019.014-.119.056-.162.08m-.776.454c.484-.36.395-.252-.023.03-.008-.01-.007-.006.023-.03m.653-.408c-.014.021-.076.05-.117.07.003-.011.088-.053.117-.07m3.34 7.758c-.03.03-.196.061-.17.045a1 1 0 0 1 .17-.045M16.211 17.2c-.026-.002.095-.137.109-.144.05-.031-.105.129-.11.144m2.328-1.5c.027-.023.118-.035.175-.046-.023.018-.127.034-.175.046m-.41.107.085-.027c.069-.006-.151.064-.084.027m5.567 4.913c0 .003-.014.064-.016.066-.027.05.017-.13.016-.066"/><path fill="#231f20" d="M21.712 23.541c.002 0 .005.01.009.012-.018.011-.02-.012-.01-.012m1.31-.756-.017.004c.004.009.015.015.017.024 0 .002-.012.01-.01.012.002.003.015-.012.02-.01s.013.03.019.035c.023.021.053.035.07.063-.034-.012-.02.021-.01.023.002 0 .028-.026.045.004.01.019-.04.042.003.048.007-.044.023-.024.039-.01.003.002.019.026.03.034.003.003.021-.006.025-.002.003.002-.002.012.003.016a.4.4 0 0 1 .058.058c-.046.024-.006.024-.007.027-.005.014-.028-.005-.026.01l.038.031c-.005-.014.042-.016.035 0 .029-.033.026.08.045.077.004 0 .008-.027.027.006.002.004-.008.012-.006.013s.037-.024.026-.002c-.004.009-.037.014 0 .036.019-.042.058.025.06.043l.007-.018c-.001.02.01.012.012.014.007.011.009.034.018.04.01.01.029-.01.033.01l.004-.021.02.026c-.042.007.003.005.005.006.003.001-.01.008-.005.01 0 0 .01-.01.016-.005.015.01 0 .02.006.026 0 0 .008-.01.018-.003.035.021-.006.006-.009.006s-.029.046-.04.01c.004.011-.011.028-.01.03 0 0 .016.012.018.012.012.002.017-.015.02-.016.003 0 .005.03.042.002-.022.038-.032.023-.05.014-.009.004 0 .025.001.026.02.019.034-.017.054-.028.01-.006 0 .018.016-.01.02.014-.004.016-.005.02 0 .004.012.004.012.005 0 .003-.012.006-.01.013 0 .002.02-.005.018-.02.01.014.02.002.002.029.05-.035-.02.031-.019.037.003.015.034-.021.036-.022.014-.008.026.028.037.03-.026.021-.02-.02-.028-.019-.028.003.006.03-.034.052l.037-.014c-.013.027-.031.025-.005.037.02-.014-.016-.01 0-.02.01-.007.023.003.027-.001.005-.005-.01-.009-.001-.015.02-.013.04.039.004.02.008.008-.021.044-.004.04.01-.001.032-.071.06-.026-.015.016-.02-.01-.02-.01l-.037.042c-.004.007.052.026.043.05.017-.022.031.025.04.023.003-.001.012-.017.015-.017.014-.002.008.037.015.045.008.009.017-.003.018-.002.003.004-.007.008-.005.01.003.004.026.029.028.029.001 0 .01-.017.017-.014.001 0-.014.015.008.024.026.01.005-.031.028-.039-.01.034.011.012.013.017 0 .002-.01.028 0 .036l-.028-.01c.003.009.02.017.021.026.001.004-.016.017-.01.022.001.001.042-.03.011-.029.012-.014.01.002.018.001 0 0 .024-.02.015-.002-.002.004-.077.057-.003.039.002-.001.007-.012.01-.013.001 0 .005.01.007.01s.007-.013.01-.014c.014-.004-.014.037-.022.024q0 .012-.003.023c.023-.03.013-.002.018.002.035.025.032-.012.046-.016.022-.006-.028.033-.003.031.002 0 .007-.033.025.006l-.015-.01c-.023.027.017.013.018.014.015.008-.002.009.028.013.003 0 0 .01.006.01.026 0-.01-.025 0-.036.004-.006.036.029.035.032-.006.015-.02-.01-.03.006-.003.006.054.044.058.058.005.017-.024.056.015.018-.035.04-.006.018-.005.02.013.02.013.02.03.031.005.003-.004.017 0 .016.001 0 .012-.014.019-.015.01 0 .024.04.02.048-.006.009-.015-.009-.024.005q.014.013.03.028c.003.005-.007.01-.005.012 0 .001.021.008.023.005.006-.008-.042-.047-.017-.05.005 0-.005.026.015.003l.1.13c-.038-.006-.048-.045-.073-.067-.003-.003-.012-.015-.021-.003.017.022.047.041.059.067 0 .001-.012.009-.011.013 0 .007.03.005.029.011 0 .001-.022.007-.027.017-.015.027.033-.018.038-.012.003.005.008.055.03.047s-.012-.029.002-.04c.031.007.037.039.056.055 0 0 .008-.012.013-.01.009.005-.003.02-.002.026s.016.016.012.023l-.017.012c-.011 0 .005-.02.004-.02 0-.003-.01.002-.01 0-.003-.003.002-.011-.001-.016-.003-.003-.012.012-.014.009 0-.001.017-.039-.012-.011-.01.008.06.1.075.101l-.01-.03c.005.021.044.016.012.05l.148.164c.006.012-.02.029.001.038l.009-.033c.003.013.028.057.038.058.001 0 .022-.018.032-.011s-.004.022-.003.029c.001.006.01.006.01.008 0 .001-.01.01-.009.014.001.01.022-.02-.001.015h-.008c.003.01 0 .034-.017.03-.003-.001.007-.008.006-.01-.055-.051-.03.008.003.013-.008.018.026.037.025.04-.003.005-.018.01-.02.026-.001.003.042.032.012.036-.006 0-.02-.02-.024-.024-.018.037.044.02.046.024.006.015-.044.004-.024.03.016.02.017-.014.032-.015.008 0 .009.04.034.014.01.004-.008.013-.008.015s.021.008.02.018l-.016.015c0 .002.015.013.017.012.001 0 .01-.015.014-.017.005-.001.015.014.019.011.006-.004-.013-.016.003-.026.003.01.024.013.04.007-.005.002-.012-.004-.014-.008.02-.018.036-.003.015.007.012-.005.014-.011.023-.017.003-.001.008.003.012 0 .001 0 .003-.012.008-.015.01-.006.022.01.021.013-.002.009-.02.004-.029.01l-.009.03c-.014.015-.014-.007-.027.008v.017c-.024.003-.037-.023-.057-.013.02.011.036.028 0 .063-.015.015-.03.017-.034.02-.012.015.012.01.012.011l-.003.003c-.007.008-.026 0-.03.003-.008.006-.029.038-.034.044-.002 0-.017-.003-.024.01-.008.014 0 .023 0 .024-.005.008-.025-.001-.029.002-.002.002-.006.02-.009.024s-.016.005-.028.013c-.01.006-.01.017-.012.017s-.015-.014-.017-.013-.01.013-.012.015c-.004.003-.005-.005-.008 0-.002.002-.017.05-.025.059-.014.014 0-.037-.04.036l.008.001c-.008.013-.037.016-.018.03-.048-.012-.025.017-.054.037-.01.008-.026 0-.028.001-.01.013.003.008-.002.015-.003.004-.025.006-.031.016-.003.006.01.015.01.016-.004.012-.018.015-.022.022-.003.004.003.01.003.012l-.032.01c-.006.003-.007.015-.01.015-.016.005-.002-.035-.027.015-.001.003.004.007.004.007-.008.014-.017.006-.027.013-.018.012.003.016-.018.017-.002.017.003.02.014.027-.032-.017-.08.013-.05.04-.009-.01-.03.012-.033.01-.002-.001.007-.035-.035.019-.006.007.01.007-.005.017-.015-.022-.008.007-.01.009-.029.028-.05-.04-.061-.045-.013-.005-.044.01-.046.007-.006-.006.01-.012.013-.018s-.037-.002-.037-.004c.002-.008.019-.018.019-.02.004-.012-.031-.026-.035-.036-.009.009.004.023-.018.029-.027.006.011-.033.013-.035l-.14-.137c-.02.021.026.036.024.04-.012.02-.062-.032-.061-.045v.027c-.031.016-.018-.033-.04-.034-.008 0-.01.016-.01.016-.014.005-.014-.009.004-.016-.022.002-.008-.01-.015-.019 0 0-.006.013-.017.01-.004 0-.02-.017-.03-.01-.005.002-.034.047-.001.016.002.033.02-.009.026-.001 0 .001-.02.016.006.025-.036.029-.03-.015-.038-.014-.015.001-.003.046.027.026-.028.023-.002.005.004.013.005.008-.005.012-.001.016.01.01.023-.012.015.012.042-.057.021.008.015.028l-.04-.025q-.002.006-.006.01l-.007-.01.009-.006c-.03.002-.016-.02-.017-.021q-.02-.026-.046-.05c-.002-.002-.017.015-.021-.014-.001-.01.016-.017.008-.021-.041.026-.014 0-.016-.003-.007-.006-.02-.002-.02-.003-.01-.006-.02-.02-.03-.027 0 0-.006.015-.008.006-.001-.003.025-.066-.005-.067l.003.022c0-.01-.045-.032-.049-.012-.002.013.039-.004.013.025-.003-.02-.078-.069-.076-.08 0-.002.013-.006.013-.009 0-.001-.016-.013-.014-.018 0-.004.013-.003.015-.007.002-.003-.012-.024-.024-.014.009 0 .017.016.001.02-.002 0 .001-.012-.001-.011-.023.004.008.029.012.033-.032-.003-.042-.047-.072-.058.002-.017.027-.002.025-.02-.003-.034-.018.009-.02.01-.014.004.02-.063-.018-.024 0-.013.006-.016-.009-.02l-.004.011c-.033.012 0-.068.006-.07.017-.007.01.023.012.023.002.001.046-.034.027.018.033-.02-.009-.044.024-.047-.013-.007-.036-.067-.054-.062-.002.001-.025.03-.022.007.002-.011.014 0 .017-.008.012-.025-.094-.108-.113-.125-.001 0 .007-.008.006-.01-.003-.003-.028-.003-.03-.014-.003.029-.03.005-.034-.004-.007-.012.008-.026.006-.033-.004-.028-.063-.019-.044-.063-.03.032-.006-.037-.016-.048-.008-.008-.04.001-.042.024-.013-.015-.033-.023-.048-.034-.003-.002.01-.009.005-.011 0 0-.01.008-.014.006-.034-.018-.002-.025-.001-.036V24.6l.042.032c.016-.025-.037-.03-.04-.044l.011-.011c-.002-.004-.027-.02-.036-.003q-.001.008.02.024c-.006 0-.016.014-.017.014-.013 0-.017-.028-.02-.036-.002-.001-.01.007-.01.007-.003-.007.022-.028-.007-.01.02-.038.022.013.038-.007.013-.016-.054-.068-.076-.045l.006-.011c.003-.012-.015-.026-.023-.025l-.023.022c-.002 0-.005-.038-.026-.033l.003.021c-.024-.024-.027-.014-.026.001v.002c.002.011.006.024.004.026-.006.007-.051-.031-.023-.043.004-.002.014.026.019.002 0-.004-.016-.012-.015-.014.006-.015.047-.002.06-.02-.022.007-.023-.009-.034-.013-.005-.001-.017.009-.017.008-.01-.003.005-.01.003-.013-.001 0-.038.011-.002-.02-.066-.017-.036.013-.01.037-.02.004-.03-.018-.039-.022-.003-.002-.013.011-.02.01-.013-.005-.042-.06-.05-.074.01.003.02-.011.015-.015-.006-.005-.018.016-.02.017-.004 0-.02-.032-.026-.034.024.013.032-.003.018-.02l.017-.004c-.014-.004-.015-.042-.026-.041l-.01.013c-.008 0-.014-.027-.018-.024s-.005.018-.012.02c-.002 0 .006-.02-.004-.023-.003-.002-.012.01-.013.01-.01 0 .01-.014-.002-.02-.008-.005-.03.006-.033-.009.01.05-.007.017-.026.01-.003 0-.019.019-.022-.002.057-.006.01-.024.003-.031 0 0 .011-.012.008-.016 0 0-.008.008-.011.006-.035-.024-.008-.014-.006-.027.001-.006-.024-.009-.028-.012 0-.001.008-.009.004-.012-.007-.005-.02-.002-.025-.005 0 0 .012-.014 0-.017-.003-.001-.01.001-.01.008-.003.022.037.02.036.043 0 .021-.034-.01-.036-.011 0-.001.012-.001.007-.009-.004-.006-.036.006-.04-.007l.014-.027s.015.005.019-.002c0 0-.006-.007-.003-.012.004-.006.05-.056.05-.06-.001-.006-.01.008-.011.005-.004-.007-.006-.038-.023-.022l.005.012c-.017-.014-.018 0-.023 0-.006.002.01-.012.006-.019-.001-.001-.026-.02-.032-.014.022.003 0 .016 0 .017 0 .003.014-.004.016 0 .018.02-.018.017-.017.025 0 .003.012-.002.012 0 .001.003-.01.014-.008.015.006.001.018-.02.019-.02.013-.007.013.018-.012.028-.002.01.02-.01.015.002-.01.024-.016.01-.022.01-.02-.001-.015-.012-.033-.024-.006-.005-.023 0-.026-.003-.002 0 .02-.051-.037.005 0-.012.028-.058.02-.062-.007-.004-.025.018-.026.018-.002 0-.007-.007-.012-.007-.006.001-.012.01-.02.01-.017-.003.004-.023.004-.026.003-.027-.02.008-.026.007-.004 0-.027-.046-.042-.046l.021-.003c.008-.018-.019-.003.004-.026-.038.036-.024 0-.028-.002-.002 0-.008.006-.01.004-.008-.005-.017-.024-.023-.024-.029-.002-.014.06-.012.063-.006-.006-.048-.031-.05.002 0 .005.02-.007.023-.007.013.005-.01.013-.01.015 0 .003.02-.005.02-.002 0 .002-.017.012-.009.02-.017.01-.031-.026-.037-.026-.003 0-.023.035-.017-.013l-.007.008-.038-.031c.007-.005.025-.01.015-.016-.007-.003-.016.013-.017.013-.008 0-.079-.08-.095-.093-.005-.005-.03-.008-.03-.009-.008-.005-.024-.034-.03-.037-.003-.002-.012.012-.014.009s.011-.011.011-.012c-.002-.01-.059-.04-.059-.06.003.01.056.02.063.012 0-.002.001-.017-.004-.015.006-.012-.03.008-.03-.003 0 0 .018-.014.012-.026-.002-.004-.022 0-.016-.021-.018-.005-.057-.085-.078-.072-.001 0 .002.015-.011.016-.017.002.02-.022.015-.034a.1.1 0 0 0-.031-.022c-.025.01-.011.039-.013.04-.006.005-.027-.01-.026-.012 0-.002.038-.01.012-.019l-.003.014c-.013-.003.002-.02 0-.022-.002-.01-.033.008-.013-.032.005-.01.019-.015.02-.016.007-.014-.026.01-.01-.016.002-.002.026-.003.007-.023l-.002.01c-.008.002-.03-.014-.031-.018-.005-.01.017-.019.007-.025-.015.025-.041.005-.022-.011-.026.018-.028-.018-.037-.028-.006-.006-.027-.009-.028-.012s.015-.018.014-.025c0-.002-.024-.004-.019-.03.001-.005.022-.034.032-.037.017-.004.01.029.024.014.016-.016-.01-.024-.013-.03-.011-.031.018-.036.023-.042.01-.013-.001-.024 0-.026.003-.007.02-.009.028-.016.01-.01.017-.039.023-.04.008-.001.004.024.005.024.018-.001.03-.036.037-.05.003-.004.012-.006.013-.008.003-.028-.035.03-.04.018-.004-.01.02-.016.02-.017.001 0-.007-.01-.003-.017.002-.003.054-.01.066-.024l-.03-.013c.017-.018.014.005.017.004.006-.001.008-.016.014-.02.004-.004.023-.01.022-.02 0-.005-.017.003-.013-.017.043.012.034-.017.039-.024s.033-.008.014-.021c.033-.035.011-.01.021-.012.013-.002.011-.025.023.003.015-.017-.003-.032-.002-.034 0-.002.011-.006.013-.01.015-.045.011-.02.026-.044.001-.003-.006-.024.008-.016.025.015.011.046.062.002.006-.036-.043-.023-.048-.027-.008-.006.01-.009.011-.012 0-.002-.006-.007-.005-.008.031-.04.027.026.043.03l.008-.024.011.01c-.006-.028.004-.005.037-.03.008-.006-.015-.005.016-.011-.005-.014.004-.017-.013-.017.012-.011.044-.006.058-.004-.013-.04-.041.018-.041-.027-.019.01-.005.018-.009.02-.011.005-.005-.016-.044.005-.007.004-.016.025-.024.015l.007-.02c.011-.01.013 0 .018-.004s-.005-.008-.004-.01c.013-.012.01.001.014-.004.006-.01.01-.06.033-.023-.04-.01-.017.011-.002.016.004 0 .012-.006.018-.005.008 0 .01.01.014.01.004.002.007-.03.023-.004.007-.029-.03-.029-.029-.052.005-.046.046-.016.052-.015.002 0 .009-.013.01-.013s.018.025.028.019-.008-.007 0-.017c.006-.006.041.008.032-.01-.006-.012-.047-.004-.024-.033l.047.034.007-.052c.018.012.02.036.049.037-.003-.066.036-.014.04-.018.003-.002.015-.04.017-.048.022.003.063.034.073-.019-.003.011.024.003.025.002.013-.015-.016-.027 0-.036.018-.01.004.014.011.019.039.022.103-.059.122-.017l.006-.01.088.113a.11.11 0 0 1 .098.031.1.1 0 0 1 .007.036c-.002.006-.016-.005-.017.008 0 .003.023.036.033.021-.001-.004-.018-.008-.016-.012.009-.033.08.072.093.068l.006-.018zm-1.253.744c-.016.009-.014-.009-.023-.01-.012-.002-.071.034-.018-.009zm.128.164c0-.013.032-.035.026-.018 0 .002-.026.036-.026.018m-.058-.083.006.007c-.006.016-.021-.003-.006-.007m.353.326c-.008-.006-.027.023-.013.018zm-.004-.006c.016-.028-.04.005-.026.01zm-.304-.271c.009-.008.011.003.012.008-.007.008-.009-.006-.012-.008m.177.173c.007-.007-.017-.03-.028-.023.008 0 .022.028.028.023m.071.052c0-.002-.01-.008-.015-.002-.004.011.013.01.015.002m.122.123c.002-.001.033-.044.023-.005-.001.005-.019.007-.02.01v.007c-.01-.003-.018-.01-.016-.012.007-.014.012 0 .013 0m.092.037c.007-.005.013.007.013.012 0 0-.018.015-.013.018s.016-.02.02-.01c.004.009-.017.012-.017.013 0 .002.017.005.007.014-.007.007-.013-.009-.017-.01s-.013.014-.016.006c-.002-.005.02-.023.02-.025.001-.002-.023-.002.003-.018m-.086-.024h-.002zm-.462-.481c-.003.01-.022.008-.017-.005.006-.006.017.003.017.005m.486.471c.005.015-.01.015-.024.01.007 0 .022-.015.023-.01m-.298-.28-.008.008zm.016.03c.02-.004.004-.02-.005-.011-.003.003.005.011.005.011m.199.186c0-.001.048-.026.004-.016.005.014-.009.008-.012.011-.009.01.015.016.015.023.019-.013-.009-.011-.007-.017m.252.222c-.011.008-.015-.002-.019-.007.012-.007.015.002.02.007m1.143 1.146c-.039-.021-.004-.064.008-.021 0 0-.002.019-.008.02m-.247-.267c.014-.02.026-.014.025 0 0 .003-.012.025-.021.022.02-.02.02-.037-.004-.022M22.3 24.005c.014-.008.015.009.018.015-.012.007-.017-.007-.018-.015m1.218 1.19c-.002-.004-.019.008-.02.01-.003.008.015.002.02-.01m-1.246-1.221c.007-.007.025-.002.01.016-.002-.004-.014-.012-.01-.016m.178.18c.001-.004.017 0 .017.006-.008.006-.018-.002-.017-.005m1.012.995c-.002-.004-.008-.011-.015-.006-.008.006.004.014.015.006m.539.514c-.002.003-.033.011-.033.001 0-.018.034-.004.033-.001m-.446-.446c-.005.023-.001 0-.016.015.006.006.02.022.024-.002.001-.005-.006-.009-.008-.013m-.003-.013c-.006.004-.027.013-.02.017.002.002.023-.01.02-.017m.375.397c.005-.02.034.023.033.026l-.002.005c.005-.003.013.003.003.014 0-.003-.008-.007-.007-.01v-.001c-.01.006-.028-.03-.027-.034m-.048-.074c.029-.01-.002.024-.004.025-.024.003.007-.014.008-.016s-.017.002-.004-.009m.04.057.008.009c-.005.017-.024-.007-.008-.01m-1.502-1.515c.002.009-.015.015-.014.008 0-.001.012-.016.014-.008m1.127 1.134c.001-.003-.023-.045-.039-.024.005 0 .033.047.04.024m-.239-.248c.006.006-.018.017-.014.007 0-.003.012-.008.014-.007m-1.033-1.013c-.016.003.017-.027.011-.011zm1.07 1.069c-.031-.01.028-.06.035-.015l-.01.005c.022.038-.001.006-.012.001-.003-.001-.01.01-.014.009m-.066-.087c.02-.058.03.004.046.01-.026.005-.037-.01-.035.023-.03-.023-.003-.027-.003-.03s-.01 0-.008-.003m.05.05c.003 0 .003.016.007.018-.017.009-.022-.018-.007-.018m.48.499c.012-.01.021-.016.024-.005q-.012.003-.023.005m-1.989-2.005c-.004-.005-.009-.018-.017-.005 0 .002.011.011.017.005m1.64 1.632c.001-.002-.023-.028-.026-.008 0 .006.024.027.027.008m.128.13c-.002-.002-.012-.009-.015-.006-.009.008.006.013.015.006m-1.78-1.795c0-.002-.015-.014-.019-.007-.006.012.017.012.019.007m.656.63c.002 0-.008.013-.008.014.001.001.027.018.004.024a.2.2 0 0 1-.03-.04c.013-.017.011.01.016.012 0 0 .014-.012.018-.01m1.39 1.43c.011-.008.043.01.03.022zm-.01-.013c.001-.013.016-.002.017.004-.007.007-.018-.003-.017-.004m-.266-.335c-.005 0-.012.021-.016.022-.003.001-.003-.01-.01-.007-.001 0-.01.02-.007.02.003.002.011-.01.014-.008.009.008.009.023.017.031 0 0 .003-.012.008-.006.002.001-.004.018.005.023.05-.018.029.028.062.036.002-.004-.005-.028-.005-.03a.4.4 0 0 0-.06-.072c-.004-.004-.01.005-.011.004-.002-.002.013-.013.003-.014m-1.748-1.684c.011-.016-.005-.015-.009-.02-.01.014.007.012.009.02m1.913 1.897c-.003-.002-.007-.014-.011-.01-.006.004.001.018.01.01m-1.163-1.172.005.007c-.005.016-.02-.004-.005-.007m.136.142c.006.003.015.003.006.015-.002-.004-.014-.008-.006-.015m.193.192c.013-.016.017.007.018.01-.007.006-.028 0-.018-.01m.945.905c.007.009.027-.015.022 0 0 .003-.043.05-.035.025.001-.005.018-.01.013-.025M23.38 25c.011-.008.015.001.019.007-.008.006-.015-.005-.019-.007m-1.59-1.602c.01-.017-.018-.025-.023-.012 0 .002.02.009.023.012m.573.584c.018-.004.006-.022-.01-.017.004.002.009.017.01.017m.503.485c.001 0 .008.008.008.01-.005.016-.024-.008-.008-.01m-.182-.201c.011-.006.023.019.018.032-.017.008-.032-.025-.018-.032M23.81 25.4q.01.008.01.022c-.008.006-.015-.017-.01-.023m-.915-.905v.002zm.79.77c-.002-.008-.014.006-.014.007 0 .008.017.001.014-.007m-1.845-1.827c.01-.014-.007-.013-.009-.02-.008.01.004.017.01.02m1.439 1.44c.007-.018.047-.009.044.005-.008.008-.045-.002-.044-.004m-.92-.936c.008-.01-.014-.009-.016-.002-.001.004.01.008.015.002m.97.959c.006 0 .002.014-.005.018-.01.005.004-.018.006-.018m.218.201c0-.002-.023-.006-.027.01-.003.01.011-.003.012-.002.001 0 .006.04.015-.008m-.399-.37c.009.001.011.011.017.017-.008.003-.022-.008-.017-.018m-.747-.752c.003-.006-.03-.042-.021-.01 0 .001.013.025.021.01m1.449 1.447-.002-.005zm-.091-.094c.008-.005 0-.016-.006-.015-.009.007.005.016.006.015m-.584-.594c.007 0 .008.01.013.013-.008.006-.018-.005-.013-.013m-.212-.226c.002.01.012.016.02.008l-.004.005c0 .002.01.005.01.01.002.034-.076-.057-.005-.03zm-.285-.29c.006-.012-.016-.01-.017-.004-.001.004.01.018.017.005m.14.13c.001-.002-.015-.005-.02 0 0 .01.018.013.02 0m-.156-.168c-.001-.003-.02.01-.02.01-.003.008.015.003.02-.01m1.212 1.184c.001-.008-.02-.007-.033 0l.004-.01c.001-.008-.079-.097-.041-.02 0 .002.007-.01.013 0 0 0-.007.007-.006.01.003.003.016.026.026.024l-.003.005c-.007.015.04-.003.04-.01m-1.035-.998c0-.005-.008-.008-.015-.002 0 .006.013.013.015.002m-.412-.42c.001-.009-.019-.009-.021 0-.002.005.02.011.02 0m.347.362c.015.03.006.005.02-.001zm1.18 1.185c-.002-.006.022-.02.015-.006-.002.004-.014.01-.015.006m.169.157c.013-.02.018.005.001.01zm-.107-.12c-.014.008-.017.008-.021-.002.013.007.014-.012.02.001m-1.032-1.015-.002.001zm-.346-.353c.006-.012-.002-.02-.01-.007 0 0 .001.013.01.007m1.203 1.202q-.001.003-.004.004zm-1.153-1.167c-.007.007.002.022.003.021.02-.005.003-.017-.003-.021m-.33-.34c-.002 0-.017.023-.007.018.008-.004.011-.019.006-.018m1.686 1.691c.004.004.009.01.001.02-.001-.005-.008-.014-.001-.02m.085.084c-.015.006-.025-.005-.03-.013.013-.014.022.012.03.013m-.25-.253s-.005-.015-.013-.004c-.011.015.011.012.013.004m-1.513-1.494c.01-.002.02-.031 0-.02-.01.005-.002.02 0 .02m.26.24c-.011 0-.007.023.005.015-.002-.003-.002-.015-.006-.015m.202.183c.01-.046-.031.014-.024.013zm-1.027-1.014c-.006.002-.011.025 0 .017.006-.005.004-.017 0-.017m1.277 1.3-.002-.002zm-.467-.558c-.026.052.003.02.003.022.002.003-.003.019.004.021l-.029-.002c.001.007.022.056.029.05.01-.007-.004-.015-.003-.017 0-.001.024-.028.024-.03 0-.003-.03-.033-.028-.044m.175.239c0 .005-.01.016-.005.015 0 0 .01-.01.014-.01zm-.232-.226c.008-.015.02.005.018.007-.005.01-.025.005-.018-.007m.137.134c0-.002-.01-.018-.015-.011-.002.008.013.026.015.01m.107.098c.003.005.002.023.015.008zm-.387-.411c.015-.031-.01.002-.01.016.012-.008.007-.011.01-.016m-.009-.043c.002-.006-.025-.024-.034-.009-.003.006.021.008.021.01s-.018.01-.008.015c.004-.005.02-.014.021-.016m.017.021c.01-.025-.025.005-.019.011.003.003.017-.007.019-.01m.03.036c0-.006-.004-.018-.02-.013l.019.024c.007-.005 0-.006 0-.011m1.81 1.714c.002-.016.02-.005.018-.002-.005.01-.02.009-.019.002m-2.217-2.643c.002-.005.012-.018.002-.016l-.015.038c.024-.017.01-.016.013-.022m.058-.088c.001 0 .03-.034.016-.006-.01.019-.049.006-.04-.012.011-.001.016.018.024.018m.088-.179c.003-.003.016.004.015.006-.003.016-.026.009-.015-.006m.026.037c.001-.01.015-.004.015.003-.005.006-.015 0-.015-.003m2.428 2.362c.016-.026-.034.015-.017.013zm-2.413-2.42c-.001.01-.015.004-.015-.003.006-.006.015.001.015.003m2.46 2.366c.008-.021-.04.032-.042.035-.005.011.027.003.034 0-.025-.01.003-.024.007-.035m-.062 0c-.012 0-.006.026.011.014-.004-.002-.008-.014-.011-.014m-.021-.053c-.002-.006-.007-.02-.017-.014.005.003.007.02.017.014m.016-.032c.006-.016-.027.015-.012.011zm-.018-.04c.01-.016-.025.01-.02.017.001.002.02-.015.02-.017m.13.063c0-.01-.027.005-.02.018l-.02-.001c.001.026.03-.006.033 0 .004.007-.022.031-.03.038.019-.01.038.008.052.016-.003-.016-.008-.043-.013-.056-.002-.004-.011 0-.013-.003-.002-.005.011-.012.011-.012m-.167-.102c.004-.024-.02.013-.01.013zm-2.258-2.309c0 .026-.026.034.028.036-.03.006-.014.012-.024.017-.007.004-.01-.007-.017.008.007-.018-.019-.037-.018-.04 0-.002.031-.03.031-.02m2.377 2.34c.034-.041-.026.017-.002-.021-.054.036.024.024-.01.066-.031-.04-.014.061.018-.02 0 .04.014 0 .024-.005.011-.004.014.016.028.001l-.025-.018c-.023.037-.028.013-.009-.016zm.012.067c0-.001-.02-.012-.025-.005-.001.006.025.023.025.005m.074.062c-.005-.006-.008-.02-.022-.012.005.006.008.02.022.012m-.282-.287c-.017.002.002.026.007.01 0-.002-.007-.01-.007-.01m.174.147c.005-.019-.028.02-.014.017zm-2.34-2.322c.01-.009.023.017.027.02-.01.006-.037-.01-.026-.02m2.491 2.438c.021-.043-.03-.02-.031-.023s.015-.014.015-.015l-.02-.018c-.001 0-.018.023-.028.026.018-.004.043.035.047.034.003 0 .014-.03.017-.004m-.031-.032c-.004.013-.017.002-.017-.004 0-.013.017.003.017.004m-.022-.036c0-.004-.01-.018-.02-.01-.006.018.019.017.02.01m-.14-.139c-.005-.002-.007-.018-.015-.01.004.002.006.018.015.01m-2.162-2.235c.002-.012.017-.003.017.004-.005.006-.017-.003-.017-.004m2.28 2.248a.2.2 0 0 0-.055-.04c0 .012.038.052.043.05.002 0 .012-.01.012-.01m.088.081c.016-.008.004.009.004.01.003.006.015.012.001.021-.003-.012-.035-.014-.005-.03m-.156-.15c-.018-.009-.004.03.005.014 0-.001-.003-.013-.005-.014m.076.07c.012-.006.043.041.05.047-.024.012-.015-.006-.024-.012-.002-.002-.009.006-.009.006-.004-.004.007-.01.005-.012-.001-.001-.04-.02-.023-.029m.09.074c.01-.004.037.018.036.02-.006.021-.036-.015-.035-.02m-.078-.093c.024-.016.03.017.006.014-.002 0 .002-.015-.006-.014m-.067-.069s-.01-.019-.017-.013c0 .005.018.027.017.013m.029-.014s-.01.015-.015.007c0 0 .013-.016 0-.019-.003 0-.015.006-.015.007-.014.03.054.014.03.005m.128.165c.005-.007.026-.021.02-.01-.003.006-.016.014-.02.01m-.195-.2c.018-.003-.005-.03-.01-.029-.005.008.008.029.01.029m-2.1-2.182c.005.01-.008.014-.008.014.001.028.018.004.022.004.01 0-.015.023.003.021-.028.002-.01.008-.018.017-.034.037-.001-.035-.016-.034-.002 0-.006.018-.012.02-.018.002.013-.077.03-.042m2.319 2.373c.013-.007.027.027.012.03-.002 0-.032-.02-.012-.03m-1.103-1.134c.014-.003.012-.027.002-.022-.005.002-.009.024-.002.022m-.055-.132c-.009-.005-.054.026-.04.028a.2.2 0 0 0 .04-.028m.43.469c.006-.021-.019.004-.013.01.002.001.012-.01.012-.01m-.276-.27c0-.001-.01-.008-.016-.002 0 .007.014.013.016.002m.281.268c-.009 0-.02.026.003.013-.004 0-.002-.013-.003-.013m.649.656c-.014.007-.02-.007-.028-.01.012-.015.021.008.028.01m-1.07-1.079c-.016.003-.01.025.001.011zm.65.65c-.012.003-.008.029.002.01zm.061.07c0-.006-.017-.02-.019-.007 0 .002.012.014.02.007m-1.862-1.862c.012-.016.02-.002.019.002 0 .002-.034.018-.019-.002m1.522 1.518c-.005-.002-.012-.015-.02-.01.005.004.007.026.02.01m-.342-.346c.01-.02-.002-.029-.019-.007.012.01.016-.019.02.007m.432.401c-.002-.004-.023.012-.023.014-.006.011.019-.004.023-.014m-.238-.207c.008-.008-.005-.014-.009-.008-.001.003.003.015.01.008m.727.726c.003-.012.023-.006.019.007-.01.014-.02-.006-.019-.007m-.412-.432c.013-.012-.009-.02-.013-.004 0 .004.01.008.013.004m.157.128c-.024.004.007.056.014.027a.1.1 0 0 0-.014-.027m.06.077c-.001-.003.04-.042.031-.02 0 .003-.016.01-.017.012s.009.023.01.023.014-.014.016-.015c.003 0 .001.02.006.026.01.01.02 0 .021 0 .003.002 0 .014.004.018.023.023.067.05.062.09-.007-.025-.032-.031-.05-.044.026-.018-.041-.007 0-.016a.3.3 0 0 1-.084-.074m-.785-.805c.018-.01-.007-.028-.024-.014 0 .005.022.015.024.014m.132.067c.005 0 .033-.026.03-.002 0 .008-.01.01-.012.013-.001.001-.005.024-.015.018-.015-.009.019-.02.013-.027-.001-.001-.028.001-.03.005 0 0 .006.001.006.003-.003.007-.012.014-.012.015 0 .002.033.007.024.023-.004.004-.044-.018-.044-.021s.024-.025.026-.028c0-.002-.021-.006-.02-.01v-.003c-.005.01-.016-.003-.008-.01.004-.003.01.006.01.007l-.001.001c.007-.01.034.017.04-.001.015 0-.02.017-.007.017m.052.023-.01.005c.02.007.024.035.04.05.004.005.014-.015.015-.006s-.008.026-.013.027c-.001 0-.001-.017-.006-.02-.016-.01-.025.005-.026.005s0-.017-.005-.021c-.012-.01-.025-.008-.03-.032.017 0 .03-.023.035-.008m.483.537c.009-.008.01.008.015.01-.009.008-.01-.008-.015-.01m-1.324-1.345c-.015.01.002.035.007.018.002-.003-.004-.015-.007-.018m.085.101c.006 0 .005-.021-.005-.011-.004.003.004.011.005.011m.92.896c.001 0 .006.011.005.012-.009.019-.026-.014-.005-.012m-.791-.8c-.018 0 .007.032.009.012 0 0-.008-.012-.01-.012m.042.038c-.003-.002-.008-.016-.013-.012-.006.006.001.022.013.012m.943.949c.014-.016.016.008.023.011-.014.016-.016-.009-.023-.011m-.074-.096c.069.045.025.064-.01.003.009-.01.006-.006.01-.003m.071.074c-.011.008-.015-.002-.019-.007.008-.006.014.006.02.007m-1.2-1.206c.016-.009.017.022.009.024-.002 0-.017-.02-.009-.024m1.026 1.034c.013-.016.025.007.023.011-.008.018-.018-.013-.023-.011m.27.262c.015-.009.018.006.023.011-.012.008-.018-.006-.022-.011m-.03-.049.007.01c-.005.017-.024-.008-.007-.01m-1.651-1.671s.006.006.005.007c-.005.016-.02-.004-.005-.007"/></svg>