<svg xmlns="http://www.w3.org/2000/svg" width="160" height="50" fill="none" viewBox="0 0 160 50"><g fill="#ff6c37" clip-path="url(#a)"><path d="M57.841 30.199V16.614a.54.54 0 0 1 .193-.415.72.72 0 0 1 .493-.172h3.823a4.5 4.5 0 0 1 3.11 1.05q1.17 1.051 1.169 3.316v.182q0 2.264-1.189 3.325a4.6 4.6 0 0 1-3.162 1.057H59.55v5.242a.49.49 0 0 1-.248.444 1.17 1.17 0 0 1-1.194 0 .49.49 0 0 1-.267-.444m1.697-6.65h2.743a2.63 2.63 0 0 0 1.973-.72c.507-.597.757-1.37.695-2.15v-.25a2.96 2.96 0 0 0-.695-2.15 2.63 2.63 0 0 0-1.973-.715h-2.728zM72.565 26.518v-6.085q0-2.279 1.182-3.345a5.28 5.28 0 0 1 6.337 0c.795.71 1.19 1.826 1.194 3.345v6.087q0 2.285-1.194 3.345a5.25 5.25 0 0 1-6.347 0c-.782-.712-1.172-1.817-1.172-3.347m1.701 0q-.002 2.872 2.644 2.872a2.6 2.6 0 0 0 1.973-.716c.506-.6.755-1.374.696-2.156v-6.085a2.96 2.96 0 0 0-.698-2.152 2.62 2.62 0 0 0-1.973-.715c-1.766 0-2.644.956-2.644 2.865zM87.284 28.723c.007-.228.088-.448.231-.626a.66.66 0 0 1 .494-.306.82.82 0 0 1 .463.257q.282.252.588.56c.274.255.6.448.956.567.473.177.975.261 1.48.249a3.08 3.08 0 0 0 2.062-.636 2.3 2.3 0 0 0 .75-1.867 2.47 2.47 0 0 0-.684-1.81 4.6 4.6 0 0 0-1.657-1.058 47 47 0 0 1-1.974-.78 4.2 4.2 0 0 1-1.666-1.272 3.45 3.45 0 0 1-.685-2.215 4 4 0 0 1 .404-1.85c.239-.49.614-.9 1.081-1.182.439-.26.912-.455 1.406-.582a6.4 6.4 0 0 1 1.555-.182 7.9 7.9 0 0 1 2.397.36c.76.249 1.144.582 1.144.987-.009.217-.08.427-.202.606a.6.6 0 0 1-.528.326 6.6 6.6 0 0 1-.907-.36 4.5 4.5 0 0 0-1.88-.385 3.56 3.56 0 0 0-1.973.493 1.79 1.79 0 0 0-.76 1.599 1.86 1.86 0 0 0 .666 1.519c.496.405 1.06.716 1.668.917a27 27 0 0 1 1.973.79 4.2 4.2 0 0 1 1.647 1.425c.482.741.721 1.614.684 2.496 0 1.391-.404 2.437-1.213 3.147a4.69 4.69 0 0 1-3.21 1.06 5.74 5.74 0 0 1-3.04-.754c-.856-.506-1.27-1.004-1.27-1.493M101.07 16.776a.87.87 0 0 1 .163-.523.49.49 0 0 1 .444-.227h8.228a.49.49 0 0 1 .443.227.9.9 0 0 1 .163.523.95.95 0 0 1-.163.553.49.49 0 0 1-.443.237h-3.231v12.633a.49.49 0 0 1-.249.444 1.17 1.17 0 0 1-1.194 0 .49.49 0 0 1-.249-.444V17.566h-3.28a.5.5 0 0 1-.445-.227.94.94 0 0 1-.187-.563M116.273 30.199v-13.32a.742.742 0 0 1 .606-.849.8.8 0 0 1 .266 0c.539 0 .987.356 1.357 1.071l3.172 6.087 3.197-6.087q.583-1.071 1.351-1.07a.734.734 0 0 1 .842.829v13.319a.5.5 0 0 1-.248.443 1.17 1.17 0 0 1-1.194 0 .5.5 0 0 1-.249-.443V19.583l-3.053 5.741a.73.73 0 0 1-.665.494.71.71 0 0 1-.628-.494l-3.052-5.84V30.2a.5.5 0 0 1-.249.444 1.03 1.03 0 0 1-.572.186 1.05 1.05 0 0 1-.597-.162.49.49 0 0 1-.284-.468M132.869 30.105a.5.5 0 0 1 .04-.163l4.138-13.319c.119-.39.459-.587 1.031-.587.573 0 .913.197 1.031.587l4.148 13.383a.2.2 0 0 0 0 .074q.006.03 0 .06a.59.59 0 0 1-.331.493 1.33 1.33 0 0 1-.74.197.56.56 0 0 1-.607-.38l-.887-2.96h-5.298l-.886 2.958a.56.56 0 0 1-.616.39c-.243-.001-.48-.071-.684-.203a.59.59 0 0 1-.339-.53m2.935-4.05h4.523l-2.264-7.558zM149.124 30.199V16.614q-.001-.586.848-.587c.262-.006.517.082.72.248.24.235.434.513.572.819l5.039 9.866V16.603a.49.49 0 0 1 .248-.435 1.26 1.26 0 0 1 1.194 0 .5.5 0 0 1 .252.435V30.2a.49.49 0 0 1-.252.444c-.178.113-.386.17-.597.163a1.22 1.22 0 0 1-1.07-.77L150.82 19.87V30.2a.5.5 0 0 1-.063.256.5.5 0 0 1-.186.188 1.17 1.17 0 0 1-1.194 0 .5.5 0 0 1-.253-.444M36.975 11.78a.273.273 0 0 0-.125.365.81.81 0 0 1-.102.883.271.271 0 0 0 .42.346 1.36 1.36 0 0 0 .17-1.473.27.27 0 0 0-.364-.12"/><path d="M26.513.193C13.63-1.456 1.846 7.631.193 20.496-1.458 33.36 7.642 45.12 20.525 46.77c12.884 1.65 24.668-7.437 26.32-20.297 1.65-12.86-7.449-24.628-20.331-26.28m4.842 14.648a1.68 1.68 0 0 0-1.161.49l-8.727 8.71-1.86-1.859c8.597-8.562 10.147-8.644 11.748-7.341m-9.533 9.511 8.702-8.689a1.215 1.215 0 0 1 2.07.895 1.2 1.2 0 0 1-.412.87l-9.208 8.075zm.648 1.356-2.156.464a.12.12 0 0 1-.111-.203l1.264-1.262zm-5.495-.897 2.298-2.294 1.722 1.719-3.88.833a.154.154 0 0 1-.183-.172.15.15 0 0 1 .043-.086M9.83 36.668a.15.15 0 0 1-.129-.182.15.15 0 0 1 .04-.072l1.854-1.851 2.395 2.39zm4.753-2.46a.45.45 0 0 0-.23.497l.397 1.695a.249.249 0 0 1-.414.23L11.93 34.23l7.37-7.359 3.568-.765 1.712 1.71c-2.462 2.15-5.825 4.301-9.997 6.39zM24.927 27.5l-1.644-1.64 9.21-8.076a1.7 1.7 0 0 0 .231-.25c-.29 2.637-3.977 6.353-7.794 9.964zm7.165-12.644a3.563 3.563 0 0 1 2.294-6.067c.915-.062 1.82.23 2.525.815l-3.16 3.156a.23.23 0 0 0 0 .332l2.443 2.44a3.57 3.57 0 0 1-4.097-.678zm5.052 0q-.244.242-.529.432l-2.367-2.364 3.005-3a3.56 3.56 0 0 1-.11 4.93z"/></g><defs><clipPath id="a"><path fill="#fff" d="M0 0h160v49.455H0z"/></clipPath></defs></svg>