<svg xmlns="http://www.w3.org/2000/svg" width="116" height="32" fill="none" viewBox="0 0 116 32"><g clip-path="url(#a)"><mask id="b" width="116" height="32" x="0" y="0" maskUnits="userSpaceOnUse" style="mask-type:luminance"><path fill="#fff" d="M116 0H0v32h116z"/></mask><g fill="#343434" mask="url(#b)"><path fill-rule="evenodd" d="M0 5.517c0-1.463.593-2.866 1.648-3.901A5.68 5.68 0 0 1 5.625 0H27c1.492 0 2.923.581 3.977 1.616a5.46 5.46 0 0 1 1.648 3.901v17.831c0 3.152-4.067 4.52-6.04 2.032L20.42 17.6v9.435c0 1.317-.534 2.58-1.483 3.51A5.1 5.1 0 0 1 15.356 32h-9.73a5.68 5.68 0 0 1-3.978-1.616A5.46 5.46 0 0 1 0 26.483zm5.625-1.103c-.622 0-1.125.494-1.125 1.102v20.967c0 .61.503 1.104 1.124 1.104h9.901c.31 0 .393-.247.393-.552V14.382c0-3.153 4.067-4.52 6.04-2.032l6.168 7.78V5.518c0-.61.057-1.103-.563-1.103z" clip-rule="evenodd"/><path fill-rule="evenodd" d="M0 5.517c0-1.463.593-2.866 1.648-3.901A5.68 5.68 0 0 1 5.625 0H27c1.492 0 2.923.581 3.977 1.616a5.46 5.46 0 0 1 1.648 3.901v17.831c0 3.152-4.067 4.52-6.04 2.032L20.42 17.6v9.435c0 1.317-.534 2.58-1.483 3.51A5.1 5.1 0 0 1 15.356 32h-9.73a5.68 5.68 0 0 1-3.978-1.616A5.46 5.46 0 0 1 0 26.483zm5.625-1.103c-.622 0-1.125.494-1.125 1.102v20.967c0 .61.503 1.104 1.124 1.104h9.901c.31 0 .393-.247.393-.552V14.382c0-3.153 4.067-4.52 6.04-2.032l6.168 7.78V5.518c0-.61.057-1.103-.563-1.103z" clip-rule="evenodd"/><path fill-opacity=".4" fill-rule="evenodd" d="M0 5.517c0-1.463.593-2.866 1.648-3.901A5.68 5.68 0 0 1 5.625 0H27c1.492 0 2.923.581 3.977 1.616a5.46 5.46 0 0 1 1.648 3.901v17.831c0 3.152-4.067 4.52-6.04 2.032L20.42 17.6v9.435c0 1.317-.534 2.58-1.483 3.51A5.1 5.1 0 0 1 15.356 32h-9.73a5.68 5.68 0 0 1-3.978-1.616A5.46 5.46 0 0 1 0 26.483zm5.625-1.103c-.622 0-1.125.494-1.125 1.102v20.967c0 .61.503 1.104 1.124 1.104h9.901c.31 0 .393-.247.393-.552V14.382c0-3.153 4.067-4.52 6.04-2.032l6.168 7.78V5.518c0-.61.057-1.103-.563-1.103z" clip-rule="evenodd"/><path d="M27 0c1.492 0 2.922.581 3.977 1.616a5.46 5.46 0 0 1 1.648 3.901v17.831c0 3.152-4.067 4.52-6.04 2.032L20.42 17.6v9.435c0 1.317-.534 2.58-1.483 3.51A5.1 5.1 0 0 1 15.356 32a.57.57 0 0 0 .52-.34.5.5 0 0 0 .042-.211V14.382c0-3.153 4.068-4.52 6.04-2.032l6.168 7.78V1.104C28.126.494 27.621 0 27 0m27.997 9.422v8.37l-8.274-8.37h-4.307v13.689h3.928v-8.996l9.012 8.996h3.569V9.42zM66.205 20.06v-2.425h8.793v-2.914h-8.793v-2.248h10.667V9.422H62.198v13.689H77.09v-3.05zm21.323 3.5c5.523 0 9.112-2.659 9.112-7.294s-3.589-7.294-9.112-7.294-9.091 2.66-9.091 7.294c0 4.635 3.569 7.295 9.091 7.295m0-3.246c-3.07 0-4.964-1.466-4.964-4.048 0-2.58 1.914-4.048 4.965-4.048 3.07 0 4.964 1.467 4.964 4.048s-1.894 4.048-4.965 4.048m24.167-10.892v8.37l-8.275-8.37h-4.306v13.689h3.928v-8.996l9.011 8.996h3.569V9.42z"/></g></g><defs><clipPath id="a"><path fill="#fff" d="M0 0h116v32H0z"/></clipPath></defs></svg>