<svg xmlns="http://www.w3.org/2000/svg" width="137" height="28" fill="none" viewBox="0 0 137 28"><g clip-path="url(#a)"><mask id="b" width="137" height="28" x="0" y="0" maskUnits="userSpaceOnUse" style="mask-type:luminance"><path fill="#fff" d="M136.315 0H0v27.508h136.315z"/></mask><g mask="url(#b)"><path fill="#231f20" d="M30.729 6.199h7.052c5.104 0 6.397 3.08 6.397 5.59s-1.322 5.59-6.397 5.59H33.43v8.806h-2.701zm2.7 8.805h3.561c2.142 0 4.284-.502 4.284-3.215s-2.142-3.215-4.284-3.215h-3.56zm14.28-8.902a1.86 1.86 0 0 1 1.83 2.203 1.862 1.862 0 0 1-3.692-.272 1.873 1.873 0 0 1 1.862-1.93m-1.245 6.7h2.509v13.383h-2.509zm5.413 0h2.537v2.067h.058a4.72 4.72 0 0 1 4.4-2.404c2.595 0 4.823 1.554 4.823 5.107v8.613h-2.508v-7.898c0-2.52-1.438-3.447-3.049-3.447-2.113 0-3.724 1.352-3.724 4.46v6.885h-2.537zm16.469 7.628c0 2.337 2.17 3.862 4.515 3.862a4.61 4.61 0 0 0 3.666-1.998l1.93 1.467a7 7 0 0 1-5.943 2.762c-4.236 0-6.88-3.042-6.88-7.03a6.76 6.76 0 0 1 4.192-6.526 6.75 6.75 0 0 1 2.688-.502c4.708 0 6.512 3.61 6.512 7.058v.907zm8.027-2.037c-.058-2.23-1.303-3.862-3.86-3.862a4.13 4.13 0 0 0-4.148 3.862zm14.172-2.027a4.23 4.23 0 0 0-3.328-1.497c-2.76 0-4.178 2.23-4.178 4.74a4.3 4.3 0 0 0 2.61 4.208 4.3 4.3 0 0 0 1.713.34 3.97 3.97 0 0 0 3.241-1.496l1.805 1.786a6.58 6.58 0 0 1-5.075 2.056 6.66 6.66 0 0 1-6.55-4.246 6.7 6.7 0 0 1-.445-2.725 6.76 6.76 0 0 1 4.264-6.589 6.75 6.75 0 0 1 2.73-.469 6.87 6.87 0 0 1 5.133 2.115z"/><path fill="#231f20" d="M99.914 12.465a7.02 7.02 0 0 1 6.427 4.443c.34.86.507 1.777.491 2.701a7.02 7.02 0 0 1-12.074 4.767 7.031 7.031 0 0 1 5.156-11.911m0 11.692c2.701 0 4.399-1.93 4.399-4.663 0-2.732-1.698-4.654-4.4-4.654-2.7 0-4.409 1.931-4.409 4.654s1.698 4.663 4.41 4.663m9.165-11.354h2.537v2.066a4.74 4.74 0 0 1 4.41-2.404c2.595 0 4.824 1.554 4.824 5.108v8.612h-2.538v-7.898c0-2.52-1.437-3.447-3.039-3.447-2.122 0-3.724 1.352-3.724 4.46v6.885h-2.47zm16.498 7.627c0 2.337 2.171 3.863 4.515 3.863a4.64 4.64 0 0 0 3.666-2l1.93 1.469a6.99 6.99 0 0 1-5.924 2.732c-4.226 0-6.879-3.041-6.879-7.03a6.757 6.757 0 0 1 6.908-7.028c4.718 0 6.522 3.611 6.522 7.058v.907zm8.008-2.037c-.058-2.23-1.293-3.862-3.859-3.862a4.12 4.12 0 0 0-4.149 3.862z"/><path stroke="#231f20" stroke-linecap="square" stroke-width="1.77" d="m14.067 5.06.675-3.756"/><path stroke="#231f20" stroke-linecap="square" stroke-linejoin="round" stroke-width="1.77" d="M17.173 3.727 14.82.85l-3.203 1.873"/><path stroke="#231f20" stroke-linecap="square" stroke-width="1.77" d="m11.249 21.087.656-3.756"/><path stroke="#231f20" stroke-linecap="square" stroke-linejoin="round" stroke-width="1.77" d="m14.356 19.745-2.373-2.868-3.194 1.883"/><path stroke="#231f20" stroke-linecap="square" stroke-width="1.77" d="m12.61 13.343.655-3.756"/><path stroke="#231f20" stroke-linecap="square" stroke-linejoin="round" stroke-width="1.77" d="m15.716 12.001-2.363-2.858-3.194 1.873"/><path fill="#231f20" d="M10.39 27.498a1.573 1.573 0 1 0 0-3.147 1.573 1.573 0 0 0 0 3.147"/><path stroke="#231f20" stroke-linecap="square" stroke-width="1.68" d="m5.933 20.759-2.885 2.008"/><path stroke="#231f20" stroke-linecap="square" stroke-linejoin="round" stroke-width="1.68" d="M6.107 24.012 2.7 23.008l.251-3.543"/><path stroke="#231f20" stroke-linecap="square" stroke-width="1.68" d="m16.41 22.641 2.007 2.897"/><path stroke="#231f20" stroke-linecap="square" stroke-linejoin="round" stroke-width="1.68" d="m15.118 25.634 3.54.242 1.004-3.39"/><path stroke="#231f20" stroke-linecap="square" stroke-width="1.72" d="m19.7 16.761 3.532.637"/><path stroke="#231f20" stroke-linecap="square" stroke-linejoin="round" stroke-width="1.72" d="m20.917 19.86 2.74-2.384-1.727-3.177"/><path stroke="#231f20" stroke-linecap="square" stroke-width="1.72" d="m18.669 9.752 3.145-1.738"/><path stroke="#231f20" stroke-linecap="square" stroke-linejoin="round" stroke-width="1.72" d="m18.842 6.42 3.348 1.391-.627 3.563"/><path stroke="#231f20" stroke-linecap="square" stroke-width="1.72" d="m4.795 14.135-3.541-.618"/><path stroke="#231f20" stroke-linecap="square" stroke-linejoin="round" stroke-width="1.72" d="M2.586 16.626.83 13.45l2.71-2.395"/><path stroke="#231f20" stroke-linecap="square" stroke-width="1.72" d="M8.152 7.889 5.79 5.185"/><path stroke="#231f20" stroke-linecap="square" stroke-linejoin="round" stroke-width="1.72" d="m9.127 4.712-3.618.154-.637 3.563"/></g></g><defs><clipPath id="a"><path fill="#fff" d="M0 0h137v28H0z"/></clipPath></defs></svg>