<svg xmlns="http://www.w3.org/2000/svg" width="149" height="22" fill="none" viewBox="0 0 149 22"><g clip-path="url(#a)"><mask id="b" width="149" height="22" x="0" y="0" maskUnits="userSpaceOnUse" style="mask-type:luminance"><path fill="#fff" d="M149 0H0v22h149z"/></mask><g mask="url(#b)"><mask id="c" width="149" height="23" x="0" y="0" maskUnits="userSpaceOnUse" style="mask-type:luminance"><path fill="#fff" d="M0 0h149v22.142H0z"/></mask><g mask="url(#c)"><path fill="url(#d)" d="m25.033 17.458-4.087 4.382a.95.95 0 0 1-.692.302H.879a.476.476 0 0 1-.348-.798l4.082-4.382a.95.95 0 0 1 .692-.302H24.68a.473.473 0 0 1 .353.798m-4.087-8.827a.96.96 0 0 0-.692-.302H.879a.475.475 0 0 0-.348.798l4.082 4.385a.96.96 0 0 0 .692.302H24.68a.476.476 0 0 0 .346-.798zM.879 5.483h19.375a.95.95 0 0 0 .692-.302L25.033.798A.474.474 0 0 0 24.68 0H5.305a.95.95 0 0 0-.692.302L.531 4.685a.475.475 0 0 0 .348.798"/><path fill="#231f20" d="M48.653 9.365H38.288V5.95h13.06V2.538H38.252a3.407 3.407 0 0 0-3.425 3.388v3.46a3.41 3.41 0 0 0 3.425 3.392h10.38v3.414H35.075v3.413h13.578a3.41 3.41 0 0 0 3.425-3.388v-3.46a3.406 3.406 0 0 0-3.425-3.392m20.08-6.827H58.33a3.41 3.41 0 0 0-3.434 3.388v10.291a3.403 3.403 0 0 0 3.434 3.39h10.405a3.407 3.407 0 0 0 3.425-3.39V5.927a3.4 3.4 0 0 0-3.425-3.389zm-.025 13.654H58.354V5.952h10.35zm36.468-13.654H95.028a3.407 3.407 0 0 0-3.425 3.388v13.68h3.46V14h10.102v5.607h3.46V5.926a3.41 3.41 0 0 0-2.136-3.143 3.4 3.4 0 0 0-1.313-.245m-.025 8.047H95.049V5.951h10.102zm40.424-8.047h-10.149a3.406 3.406 0 0 0-3.425 3.388v13.68h3.46V14h10.079v5.607H149V5.926a3.42 3.42 0 0 0-2.12-3.136 3.4 3.4 0 0 0-1.305-.252m-.035 8.047h-10.102V5.951h10.102zm-20.066 5.607h-1.384l-4.948-12.224a2.27 2.27 0 0 0-2.113-1.43h-3.07a2.27 2.27 0 0 0-2.283 2.26v14.808h3.46V5.95h1.384l4.945 12.225a2.28 2.28 0 0 0 2.122 1.42h3.07a2.27 2.27 0 0 0 2.106-1.391c.116-.275.176-.57.177-.869V2.538h-3.466zm-46.8-13.654h-3.46v13.68a3.41 3.41 0 0 0 2.129 3.14c.416.168.86.253 1.31.248H89.03v-3.414H78.675z"/></g></g></g><defs><linearGradient id="d" x1="2.494" x2="22.809" y1="22.671" y2="-.233" gradientUnits="userSpaceOnUse"><stop offset=".08" stop-color="#9945ff"/><stop offset=".3" stop-color="#8752f3"/><stop offset=".5" stop-color="#5497d5"/><stop offset=".6" stop-color="#43b4ca"/><stop offset=".72" stop-color="#28e0b9"/><stop offset=".97" stop-color="#19fb9b"/></linearGradient><clipPath id="a"><path fill="#fff" d="M0 0h149v22H0z"/></clipPath></defs></svg>