<svg xmlns="http://www.w3.org/2000/svg" width="149" height="22" fill="none" viewBox="0 0 149 22"><g clip-path="url(#a)"><path fill="#231f20" d="M148.411 0H0v22h148.411z"/><path fill="#fff" d="M0 0h148.411v22.142H0z"/><path fill="#343434" d="m24.934 17.458-4.07 4.382a.95.95 0 0 1-.69.302H.876a.473.473 0 0 1-.465-.555.5.5 0 0 1 .118-.243l4.066-4.382a.95.95 0 0 1 .69-.302h19.298a.47.47 0 0 1 .473.553.48.48 0 0 1-.122.245m-4.07-8.827a.96.96 0 0 0-.69-.302H.876a.472.472 0 0 0-.467.555.5.5 0 0 0 .12.243l4.066 4.385a.96.96 0 0 0 .69.302h19.298a.473.473 0 0 0 .463-.555.5.5 0 0 0-.119-.243zM.875 5.483h19.298a.94.94 0 0 0 .69-.302l4.07-4.383a.476.476 0 0 0-.09-.724.47.47 0 0 0-.261-.074H5.284a.94.94 0 0 0-.69.302L.53 4.685a.476.476 0 0 0 .347.798M48.46 9.365H38.138V5.95h13.008V2.538H38.101c-.9-.005-1.765.35-2.404.985a3.41 3.41 0 0 0-1.008 2.403v3.46a3.42 3.42 0 0 0 1.006 2.406 3.4 3.4 0 0 0 2.406.986H48.44v3.414H34.937v3.413H48.46a3.4 3.4 0 0 0 2.404-.986 3.42 3.42 0 0 0 1.007-2.402v-3.46a3.42 3.42 0 0 0-1.005-2.406 3.4 3.4 0 0 0-2.406-.986m9.64-6.827a3.38 3.38 0 0 0-2.41.982 3.4 3.4 0 0 0-1.01 2.406v10.291a3.42 3.42 0 0 0 1.008 2.408 3.4 3.4 0 0 0 2.412.981h10.363a3.38 3.38 0 0 0 2.405-.985 3.4 3.4 0 0 0 1.007-2.404V5.927a3.4 3.4 0 0 0-.581-1.891 3.39 3.39 0 0 0-2.83-1.498zm10.336 13.654H58.123V5.952h10.31zM104.76 2.538H94.652c-.9-.005-1.764.35-2.404.985a3.41 3.41 0 0 0-1.007 2.403v13.68h3.447V14h10.061v5.607h3.447V5.926a3.403 3.403 0 0 0-2.128-3.143 3.4 3.4 0 0 0-1.308-.245m-.025 8.047H94.674V5.951h10.061zM145 2.538h-10.109a3.38 3.38 0 0 0-2.405.985 3.4 3.4 0 0 0-.742 1.1 3.4 3.4 0 0 0-.265 1.303v13.68h3.447V14h10.039v5.607h3.446V5.926a3.42 3.42 0 0 0-1.007-2.403A3.38 3.38 0 0 0 145 2.538m-.035 8.047h-10.062V5.951h10.062zm-19.987 5.607H123.6l-4.929-12.224a2.265 2.265 0 0 0-2.105-1.43h-3.057a2.25 2.25 0 0 0-1.604.657 2.27 2.27 0 0 0-.67 1.603v14.808h3.446V5.95h1.378l4.926 12.225a2.28 2.28 0 0 0 2.114 1.42h3.057a2.26 2.26 0 0 0 2.098-1.391c.116-.275.175-.57.176-.869V2.538h-3.452zM78.363 2.538h-3.446v13.68a3.42 3.42 0 0 0 1.01 2.409 3.4 3.4 0 0 0 2.414.98h10.337v-3.415H78.364z"/></g><defs><clipPath id="a"><path fill="#fff" d="M0 0h149v22H0z"/></clipPath></defs></svg>