<svg xmlns="http://www.w3.org/2000/svg" width="163" height="28" fill="none" viewBox="0 0 163 28"><g clip-path="url(#a)"><path fill="#676566" d="M0 20.9c0-.904 1.112-1.358 1.762-.718l4.731 4.656c.65.64.19 1.734-.73 1.734h-4.73a1.05 1.05 0 0 1-.73-.297A1 1 0 0 1 0 25.556zm0-4.903c0 .27.109.527.302.718l9.715 9.56c.194.19.456.297.73.297h5.336c.92 0 1.38-1.094.73-1.734l-15.05-14.81C1.112 9.388 0 9.84 0 10.746zM0 5.842c0 .27.109.528.302.718l20.035 19.715c.193.19.456.297.73.297h5.335c.92 0 1.38-1.094.73-1.734L1.762-.127C1.112-.767 0-.313 0 .591zm10.32 0c0 .27.108.528.302.718l18.575 18.278c.65.64 1.761.187 1.761-.718v-5.251c0-.27-.108-.528-.302-.718L12.082-.127c-.65-.64-1.763-.186-1.763.718zM22.4-.127c-.65-.64-1.762-.186-1.762.718v5.251c0 .27.109.528.302.718l8.255 8.123c.65.64 1.762.187 1.762-.717V8.714c0-.27-.108-.527-.302-.718z"/><path fill="#343434" d="M43.896 21.701 34.18 12.14c-.65-.64-1.762-.187-1.762.718v13.374a1 1 0 0 0 .302.719 1.03 1.03 0 0 0 .73.297h15.051a1.05 1.05 0 0 0 .73-.297 1 1 0 0 0 .302-.719v-1.218c0-.56-.464-1.009-1.03-1.081a8.03 8.03 0 0 1-4.607-2.232m-6.525 2.297c-.438 0-.858-.17-1.167-.476a1.6 1.6 0 0 1-.484-1.148c0-.43.174-.844.484-1.149a1.666 1.666 0 0 1 2.334 0c.31.305.484.718.484 1.149 0 .43-.174.844-.483 1.149-.31.304-.73.475-1.168.476"/><path fill="#afafaf" d="m1.675 20.105.087.077 4.731 4.656c.622.612.228 1.64-.612 1.728l-.118.006h-4.73c-.253 0-.498-.091-.687-.257a1 1 0 0 1-.339-.64L0 25.556v-4.655c0-.866 1.017-1.318 1.675-.796m0-10.154.087.077 8.557 8.421v8.123L.303 16.715a1 1 0 0 1-.294-.585L0 15.997v-5.25c0-.867 1.017-1.319 1.675-.797M0 .591C0-.274 1.017-.726 1.675-.204l.087.077 8.557 8.42v8.125L.303 6.56a1 1 0 0 1-.294-.584L0 5.842z"/><path fill="#929292" d="m10.32 8.295 10.016 9.856c.162.16.264.366.294.585l.009.134v7.703l-10.017-9.857a1 1 0 0 1-.293-.585l-.01-.133zm0 10.154 6.493 6.39c.622.612.228 1.64-.613 1.728l-.117.006H10.32zM11.993-.203l.088.077 8.254 8.123c.162.159.264.365.294.585l.009.133v7.703L10.622 6.561a1 1 0 0 1-.293-.585l-.01-.133V.592c0-.866 1.018-1.317 1.675-.795"/><path fill="#343434" d="M61.574 22.833h4.24v-6.92h3.543c3.892 0 6.388-2.27 6.388-5.783s-2.496-5.784-6.388-5.784h-7.783zm4.24-10.485V7.912h3.114c1.61 0 2.576.844 2.576 2.218 0 1.373-.966 2.218-2.576 2.218zm17.602 10.696c4.133 0 7.14-2.905 7.14-6.866 0-3.962-3.007-6.867-7.14-6.867-4.187 0-7.139 2.905-7.139 6.867 0 3.961 2.952 6.866 7.14 6.866m-3.22-6.866c0-2.113 1.288-3.566 3.22-3.566 1.906 0 3.194 1.453 3.194 3.566s-1.288 3.565-3.194 3.565c-1.932 0-3.22-1.452-3.22-3.565m17.145 6.866c3.167 0 5.315-1.954 5.315-4.252 0-5.387-7.274-3.644-7.274-5.757 0-.58.617-.95 1.503-.95.913 0 2.013.554 2.362 1.769l3.167-1.294c-.617-1.928-2.899-3.249-5.663-3.249-2.98 0-4.831 1.743-4.831 3.83 0 5.044 7.166 3.644 7.166 5.73 0 .74-.698 1.242-1.745 1.242-1.502 0-2.55-1.03-2.871-2.271l-3.167 1.214c.698 2.007 2.737 3.988 6.038 3.988m15.516-.343-.269-3.354c-.456.238-1.046.317-1.53.317-.966 0-1.61-.687-1.61-1.875v-5.045h3.275V9.522h-3.275V5.667h-3.945v3.855h-2.147v3.222h2.147v5.547c0 3.222 2.228 4.753 5.153 4.753.805 0 1.557-.132 2.201-.343m13.756-18.355v7.184h-7.461V4.346h-4.241v18.487h4.241v-7.738h7.461v7.738h4.267V4.346zm13.679 18.698c4.133 0 7.139-2.905 7.139-6.866 0-3.962-3.006-6.867-7.139-6.867-4.187 0-7.139 2.905-7.139 6.867 0 3.961 2.952 6.866 7.139 6.866m-3.22-6.866c0-2.113 1.288-3.566 3.22-3.566 1.906 0 3.194 1.453 3.194 3.566s-1.289 3.565-3.194 3.565c-1.932 0-3.22-1.452-3.22-3.565m17.974 6.233c1.476 0 2.792-.502 3.489-1.374v1.268c0 1.48-1.207 2.51-3.059 2.51-1.316 0-2.469-.635-2.657-1.718l-3.597.555c.483 2.509 3.086 4.199 6.254 4.199 4.16 0 6.924-2.403 6.924-5.969V9.522h-3.892v1.136c-.724-.819-1.959-1.347-3.542-1.347-3.758 0-6.119 2.535-6.119 6.55s2.361 6.55 6.199 6.55m-2.362-6.55c0-1.981 1.181-3.249 3.006-3.249 1.852 0 3.033 1.268 3.033 3.249 0 1.98-1.181 3.248-3.033 3.248-1.825 0-3.006-1.268-3.006-3.248"/></g><defs><clipPath id="a"><path fill="#fff" d="M0 0h162.4v28H0z"/></clipPath></defs></svg>