<svg xmlns="http://www.w3.org/2000/svg" width="114" height="33" fill="none" viewBox="0 0 114 33"><g clip-path="url(#a)"><mask id="b" width="114" height="33" x="0" y="0" maskUnits="userSpaceOnUse" style="mask-type:luminance"><path fill="#fff" d="M113.667 0H0v33h113.667z"/></mask><g fill="#343434" mask="url(#b)"><path d="M16.5 21.656a5.156 5.156 0 1 0 0-10.312 5.156 5.156 0 0 0 0 10.312M25.79 28.708c.44.439.395 1.165-.12 1.51A16.42 16.42 0 0 1 16.499 33a16.42 16.42 0 0 1-9.17-2.782c-.516-.345-.56-1.071-.122-1.51l3.768-3.768c.341-.34.87-.394 1.298-.175a9.24 9.24 0 0 0 4.226 1.016 9.24 9.24 0 0 0 4.226-1.016c.428-.22.957-.166 1.297.175z"/><path d="M25.67 2.781c.516.346.56 1.072.121 1.51L22.024 8.06c-.34.34-.869.394-1.297.174A9.281 9.281 0 0 0 7.219 16.5c0 1.522.366 2.958 1.015 4.226.22.429.166.957-.174 1.297l-3.768 3.769c-.44.438-1.165.394-1.51-.121A16.42 16.42 0 0 1 0 16.5C0 7.387 7.387 0 16.5 0c3.394 0 6.548 1.025 9.17 2.781"/><path fill-rule="evenodd" d="M53.883 3.352c0-.143.115-.258.258-.258h3.867c.142 0 .258.115.258.258v26.297a.26.26 0 0 1-.258.257H54.14a.26.26 0 0 1-.258-.258zm-5.458 20.977a.265.265 0 0 0-.355.01 6.8 6.8 0 0 1-2.082 1.342 6.9 6.9 0 0 1-2.681.516 5.8 5.8 0 0 1-2.273-.391 5.7 5.7 0 0 1-1.928-1.241c-.998-1.02-1.573-2.474-1.573-4.208 0-3.472 2.31-5.846 5.774-5.846.93-.013 1.85.175 2.696.55.767.341 1.456.828 2.027 1.432.098.104.26.116.367.022l2.61-2.259a.25.25 0 0 0 .026-.358c-1.963-2.195-5.04-3.328-7.965-3.328C37.177 10.57 33 14.544 33 20.39c0 2.891 1.038 5.326 2.789 7.045 1.75 1.72 4.244 2.729 7.122 2.729 3.608 0 6.512-1.384 8.215-3.159a.25.25 0 0 0-.02-.364zm31.144-2.685a.255.255 0 0 1-.255.225H65.767a.25.25 0 0 0-.244.312c.674 2.498 2.683 4.01 5.426 4.01.925.02 1.841-.17 2.679-.556a6 6 0 0 0 2.03-1.522.19.19 0 0 1 .264-.023l2.724 2.371c.104.091.119.248.03.354-1.645 1.94-4.31 3.349-7.965 3.349-5.625 0-9.867-3.895-9.867-9.812 0-2.904 1-5.338 2.665-7.057a9.2 9.2 0 0 1 3.097-2.05 9.4 9.4 0 0 1 3.67-.673c5.701 0 9.388 4.01 9.388 9.545q-.011.766-.096 1.527M65.604 18.05a.246.246 0 0 0 .242.314h9.007a.25.25 0 0 0 .244-.316c-.614-2.125-2.172-3.543-4.591-3.543a5 5 0 0 0-2.076.378 4.95 4.95 0 0 0-1.727 1.194 5.3 5.3 0 0 0-1.099 1.973m27.463-7.478a.26.26 0 0 1 .26.258v4.33c0 .15-.127.268-.276.257a17 17 0 0 0-1.073-.057c-3.373 0-5.353 2.374-5.353 5.49v8.798a.26.26 0 0 1-.258.257H82.5a.26.26 0 0 1-.258-.258v-18.55c0-.142.115-.257.258-.257h3.867c.142 0 .258.115.258.258v2.603a.027.027 0 0 0 .048.016c1.511-2.019 3.743-3.142 6.1-3.142zm10.476 11.34a.08.08 0 0 1 .061-.027q.045.001.071.04l4.889 7.859c.047.075.13.121.219.121h4.396a.258.258 0 0 0 .22-.393l-6.709-10.824a.26.26 0 0 1 .028-.31l6.464-7.13a.258.258 0 0 0-.191-.431h-4.586a.26.26 0 0 0-.19.083l-7.478 8.152a.258.258 0 0 1-.448-.174V3.352a.26.26 0 0 0-.258-.258h-3.867a.26.26 0 0 0-.258.258v26.297c0 .142.115.257.258.257h3.867a.26.26 0 0 0 .258-.258V25.51c0-.065.024-.128.069-.175z" clip-rule="evenodd"/></g></g><defs><clipPath id="a"><path fill="#fff" d="M0 0h113.667v33H0z"/></clipPath></defs></svg>