<svg xmlns="http://www.w3.org/2000/svg" width="160" height="28" fill="none" viewBox="0 0 160 28"><g clip-path="url(#a)"><path fill="#1d4aff" d="M11.076 15.045c-.374.75-1.444.75-1.819 0l-.896-1.793a1.02 1.02 0 0 1 0-.91l.896-1.792a1.017 1.017 0 0 1 1.82 0l.896 1.793a1.02 1.02 0 0 1 0 .91zm0 10.167c-.374.75-1.444.75-1.819 0l-.896-1.793a1.02 1.02 0 0 1 0-.91l.896-1.792a1.017 1.017 0 0 1 1.82 0l.896 1.793a1.02 1.02 0 0 1 0 .91z"/><path fill="#f9bd2b" d="M0 21.353c0-.906 1.095-1.36 1.736-.72l4.661 4.662c.641.64.187 1.736-.719 1.736H1.017A1.017 1.017 0 0 1 0 26.014zm0-4.91c0 .27.107.528.298.719l9.571 9.571c.19.19.45.298.72.298h5.256c.906 0 1.36-1.095.72-1.736L1.735 10.466c-.64-.64-1.736-.186-1.736.72zM0 6.276c0 .27.107.528.298.719l19.738 19.738c.19.19.45.298.72.298h5.256c.906 0 1.36-1.095.72-1.736L1.735.3C1.096-.341 0 .113 0 1.019zm10.167 0c0 .27.107.528.298.719l18.3 18.3c.64.64 1.736.187 1.736-.72V19.32c0-.27-.107-.529-.298-.72L11.903.3c-.64-.64-1.736-.186-1.736.72zM22.07.3c-.64-.641-1.736-.187-1.736.719v5.257c0 .27.107.528.298.719l8.133 8.133c.64.64 1.736.187 1.736-.72V9.153c0-.27-.107-.529-.298-.72z"/><path fill="#231f20" d="m43.248 21.478-9.573-9.573c-.64-.64-1.736-.187-1.736.719v13.39a1.017 1.017 0 0 0 1.017 1.017h14.828a1.017 1.017 0 0 0 1.017-1.017v-1.219c0-.562-.457-1.01-1.014-1.083a7.85 7.85 0 0 1-4.54-2.234zm-6.429 2.3a1.627 1.627 0 1 1 .002-3.255 1.627 1.627 0 0 1-.002 3.255"/><path fill="#1d4aff" d="M0 26.014a1.017 1.017 0 0 0 1.017 1.017h4.661c.906 0 1.36-1.095.72-1.736l-4.662-4.661c-.64-.64-1.736-.187-1.736.719zM10.167 8.731 1.736.3C1.096-.34 0 .113 0 1.019v5.257c0 .27.107.529.298.72l9.869 9.868zm-8.431 1.736C1.096 9.827 0 10.28 0 11.186v5.257c0 .27.107.529.298.72l9.869 9.868v-8.133z"/><path fill="#f54e00" d="M20.334 9.152a1.02 1.02 0 0 0-.298-.72L11.903.3c-.64-.64-1.736-.187-1.736.719v5.257c0 .27.107.529.298.72l9.869 9.868zm-10.167 17.88h5.678c.906 0 1.36-1.096.72-1.737l-6.398-6.397zm0-18.301v7.712c0 .27.107.529.298.72l9.869 9.868V19.32a1.02 1.02 0 0 0-.298-.72z"/><path fill="#231f20" d="M60.664 22.972h4.178v-6.928h3.49c3.834 0 6.293-2.274 6.293-5.79 0-3.518-2.459-5.792-6.293-5.792h-7.668zm4.178-10.498V8.032h3.067c1.587 0 2.538.846 2.538 2.221s-.951 2.221-2.538 2.221zm17.342 10.71c4.072 0 7.033-2.91 7.033-6.876s-2.961-6.874-7.033-6.874c-4.125 0-7.034 2.908-7.034 6.874 0 3.967 2.909 6.875 7.034 6.875m-3.174-6.876c0-2.115 1.27-3.57 3.174-3.57 1.877 0 3.146 1.455 3.146 3.57 0 2.116-1.27 3.57-3.146 3.57-1.904 0-3.174-1.454-3.174-3.57m16.893 6.875c3.12 0 5.235-1.956 5.235-4.257 0-5.394-7.165-3.649-7.165-5.764 0-.582.608-.952 1.48-.952.9 0 1.984.555 2.327 1.772l3.12-1.296c-.608-1.93-2.855-3.252-5.579-3.252-2.935 0-4.76 1.745-4.76 3.834 0 5.05 7.06 3.649 7.06 5.738 0 .74-.687 1.242-1.718 1.242-1.48 0-2.512-1.03-2.83-2.274l-3.12 1.217c.688 2.01 2.698 3.992 5.95 3.992m15.286-.343-.264-3.358c-.45.238-1.032.317-1.508.317-.952 0-1.586-.688-1.586-1.878v-5.05h3.226V9.645h-3.226v-3.86h-3.887v3.86h-2.116v3.226h2.116v5.553c0 3.226 2.195 4.76 5.077 4.76.793 0 1.533-.133 2.168-.344m13.553-18.378v7.193h-7.351V4.463h-4.178v18.509h4.178v-7.748h7.351v7.748h4.204V4.462zm13.477 18.721c4.072 0 7.033-2.908 7.033-6.875s-2.961-6.874-7.033-6.874c-4.125 0-7.034 2.908-7.034 6.874 0 3.967 2.909 6.875 7.034 6.875m-3.173-6.875c0-2.115 1.269-3.57 3.173-3.57 1.877 0 3.147 1.455 3.147 3.57 0 2.116-1.27 3.57-3.147 3.57-1.904 0-3.173-1.454-3.173-3.57m17.709 6.24c1.454 0 2.75-.502 3.438-1.374v1.269c0 1.48-1.19 2.512-3.015 2.512-1.296 0-2.433-.635-2.618-1.719l-3.543.556c.476 2.512 3.041 4.204 6.161 4.204 4.099 0 6.822-2.406 6.822-5.976V9.645h-3.834v1.137c-.714-.82-1.93-1.348-3.49-1.348-3.702 0-6.029 2.538-6.029 6.557s2.327 6.558 6.108 6.558m-2.327-6.557c0-1.983 1.163-3.252 2.961-3.252 1.825 0 2.988 1.269 2.988 3.252s-1.163 3.253-2.988 3.253c-1.798 0-2.961-1.27-2.961-3.253"/></g><defs><clipPath id="a"><path fill="#fff" d="M0 0h160v28H0z"/></clipPath></defs></svg>