<svg xmlns="http://www.w3.org/2000/svg" width="40" height="40" fill="none" viewBox="0 0 40 40"><path stroke="#3784ff" stroke-linecap="round" stroke-linejoin="round" stroke-width="1.5" d="M24 20.9v4.2c0 3.5-1.4 4.9-4.9 4.9h-4.2c-3.5 0-4.9-1.4-4.9-4.9v-4.2c0-3.5 1.4-4.9 4.9-4.9h4.2c3.5 0 4.9 1.4 4.9 4.9"/><path stroke="#3784ff" stroke-linecap="round" stroke-linejoin="round" stroke-width="1.5" d="M30 14.9v4.2c0 3.5-1.4 4.9-4.9 4.9H24v-3.1c0-3.5-1.4-4.9-4.9-4.9H16v-1.1c0-3.5 1.4-4.9 4.9-4.9h4.2c3.5 0 4.9 1.4 4.9 4.9" opacity=".4"/></svg>