<svg xmlns="http://www.w3.org/2000/svg" width="40" height="40" fill="none" viewBox="0 0 40 40"><path fill="#231f20" d="M19.389 7.38c.71-.048 2.078-.029 2.83-.018h.042c.178.003.347.004.545.005.472.001 1.11.004 2.441.035a395 395 0 0 1 2.999 0c2.32-.05 4.39 2.053 4.315 4.352q-.021 2.386-.05 4.773l.001.16c.005 1.05.011 2.35-.006 3.168-.023 1.039-.044 1.744-.062 2.324a1831 1831 0 0 0-.062 6.067c.002 1.427-.802 2.813-2.025 3.528a4.1 4.1 0 0 1-2.111.576 786 786 0 0 0-3.962.004c-.559.01-1.09.023-1.582.035-.692.016-1.308.03-1.816.035-1.226.011-2.616-.007-3.649-.02l-.475-.006-2.46.021-.166-.012c-.603-.047-1.326-.052-2.382-.053q-.275.002-.577-.04a4.05 4.05 0 0 1-2.038-.903c-.43-.367-.58-.622-.705-.82l-.099-.172c-.108-.195-.233-.394-.354-.647a3.07 3.07 0 0 1-.313-1.526c.065-1.574.016-2.29-.022-2.835a15 15 0 0 1-.027-.471c-.019-.5 0-1.212.025-1.75.02-.428 0-1.282-.025-1.93-.01-.244-.01-.575-.01-.966 0-.403 0-.87-.011-1.37-.027-1.262-.04-1.933-.05-2.473l-.01-.44c-.008-.452-.016-1.013-.023-1.582-.01-.68-.018-1.37-.03-1.895l.007-.78a4.25 4.25 0 0 1 1.55-3.24c.603-.501 1.344-.743 1.882-.77.543-.03.832.096.83.194 0 .106-.28.186-.717.35a4.9 4.9 0 0 0-1.47.854 3.4 3.4 0 0 0-1.183 2.612l.009.922q.024 2.573.026 5.147a980 980 0 0 1-.008 3.97c.025 1.009.048 2.015.057 2.724.006.585-.007 1.012-.019 1.377-.008.252-.015.474-.014.7l.005.485c.003.316.006.719.008 1.167a3.495 3.495 0 0 0 1.744 2.99 3.26 3.26 0 0 0 1.562.431h.31c.734-.016 1.575-.003 2.317.008.709.01 1.329.02 1.681.003.421-.02.78-.012 1.314 0 .37.009.825.02 1.443.023.713.005 1.218.02 1.646.032.604.017 1.058.03 1.735.006a47 47 0 0 1 2.157-.035c.281.004.604.003.94.002.444-.001.91-.003 1.337.007.352.008.642.028.9.045l.231.016h.48q.17 0 .336-.017l.13-.025c.229-.05.502-.13.822-.269.502-.223.907-.5 1.264-.867a3.2 3.2 0 0 0 .91-2.35c-.01-.499-.018-.973-.011-1.319.003-.152.015-.282.028-.412v-.001l.002-.027-.03-2.962-.01-.257c-.016-.42-.03-.826-.052-1.091a45 45 0 0 1-.05-1.772c-.01-.499-.019-1.014-.031-1.435-.008-.246.005-.48.019-.72.012-.224.025-.454.022-.706q-.003-.19-.013-.407l-.014-.405c-.003-.131.004-.424.013-.8.006-.232.012-.495.017-.772l-.023-2.194a4 4 0 0 0-.045-.39c-.013-.075-.03-.14-.046-.205-.023-.09-.046-.182-.064-.31a1.5 1.5 0 0 1-.014-.307q.005-.04.012-.068a.3.3 0 0 0 .007-.074.3.3 0 0 0-.012-.064c-.01-.04-.023-.089-.032-.167a3.3 3.3 0 0 0-.243-.907 3 3 0 0 0-.534-.831 3.6 3.6 0 0 0-.948-.751 3 3 0 0 0-.849-.303 2.7 2.7 0 0 0-.56-.044l-.299.007c-.38.01-.747.018-1.058.006-.063-.003-.141-.019-.24-.038q-.103-.022-.24-.044l-1.189-.002-.043.006c-.325.05-.771.118-1.397.078-.16-.01-.26-.03-.35-.047-.088-.017-.167-.032-.283-.035-.132-.004-.287.007-.457.018-.238.016-.504.033-.77.017l-.059-.004c-.193-.011-.479-.029-.764-.063q-1.268-.014-2.534-.032-2.113-.031-4.225-.065a14 14 0 0 1-1.827-.135c-.485-.076-.757-.173-.757-.274s.273-.199.757-.275a14 14 0 0 1 1.827-.134l3.351-.053.176-.006c.436-.014.84-.042 1.245-.07z"/><path fill="#231f20" d="M10.585 14.164c.185-.048.543-.029.74-.018h.01c.047.003.09.004.143.005.123.001.29.004.637.035q.152-.002.304-.002c1.092 0 2.185.04 3.277.088h.042a10 10 0 0 1 .828.006c.271.022.455.043.607.061a93 93 0 0 0 2.603.088 49 49 0 0 0 1.567.003q.22-.017.413-.035.273-.025.475-.036c.32-.011.683.007.953.02l.124.006.643-.02.043.012c.183.054.407.053.761.052q.23-.001.543.003a.8.8 0 0 1 .262.041l.048.014a.4.4 0 0 0 .18-.018c.087-.022.193-.048.332-.025.444.076.64.025.788-.014q.063-.018.123-.027c.13-.019.316 0 .457.024.111.02.335 0 .504-.024.064-.01.15-.01.252-.01.105 0 .227 0 .358-.012.33-.027.505-.04.646-.05l.115-.009c.118-.009.265-.016.413-.024.178-.008.358-.018.495-.03q.533.02 1.066.045c.183.008.358.054.487.13.13.076.202.176.202.279s-.073.202-.202.278-.304.122-.487.13q-.55.026-1.103.046a38 38 0 0 1-1.344.027q-.47 0-.94-.007l-.098-.001c-.263.025-.526.048-.71.056-.154.007-.265-.006-.36-.018q-.097-.014-.183-.014-.048 0-.127.004c-.213.008-.573.02-.903-.004a10 10 0 0 1-.477-.053c-.232-.03-.448-.057-.557-.049-.192.015-.411.003-.605-.009a2.3 2.3 0 0 0-.44-.002c-.11.02-.203.012-.342 0a6 6 0 0 0-.377-.024c-.187-.005-.318-.019-.43-.031a1.7 1.7 0 0 0-.453-.007 3.3 3.3 0 0 1-.564.035 4 4 0 0 0-.245-.002 4 4 0 0 1-.35-.007 1.3 1.3 0 0 1-.235-.045l-.06-.015h-.22l-.037.011a1.5 1.5 0 0 1-.244.053c-.157.018-.295.006-.44-.005-.114-.01-.231-.02-.367-.016-.092.002-.197.01-.3.019a3 3 0 0 1-.413.016.4.4 0 0 1-.108-.028l-.007-.003q-.387.014-.774.032l-.067.01c-.11.014-.216.03-.285.05a3 3 0 0 1-.463.05c-.13.01-.265.02-.375.032a.6.6 0 0 1-.188-.019c-.058-.012-.118-.025-.184-.022a1 1 0 0 0-.106.013l-.106.013c-.034.004-.11-.004-.209-.012l-.202-.018q-.286.013-.573.024a.4.4 0 0 0-.102.044q-.029.021-.053.047a.4.4 0 0 1-.081.064c-.026.015-.057.02-.078.014a.1.1 0 0 1-.023-.012q-.011-.01-.023-.01-.01 0-.02.008c-.013.008-.029.017-.053.018a7 7 0 0 1-.295-.005 5 5 0 0 0-.31-.004c-.098.003-.237-.011-.377-.026a6 6 0 0 0-.28-.024 2 2 0 0 0-.25.012c-.1.01-.196.018-.277.006-.016-.003-.037-.019-.062-.038a1 1 0 0 0-.063-.045l-.31-.001-.012.006c-.085.05-.201.118-.365.078a.25.25 0 0 1-.091-.047c-.023-.017-.044-.032-.074-.035-.035-.004-.075.007-.12.018-.062.016-.131.033-.2.017l-.016-.004a1 1 0 0 1-.2-.063l-.662-.033q-.552-.03-1.103-.064a1.1 1.1 0 0 1-.478-.135c-.126-.076-.197-.173-.197-.274s.07-.199.197-.275.299-.123.478-.134l.875-.053.046-.006c.114-.014.22-.042.325-.07z"/><path fill="#231f20" d="M16.585 16.227c.049.137.029.4.018.545v.008l-.004.105c-.002.09-.005.214-.035.47l.001.223c0 .805-.04 1.61-.088 2.415v.031c.006.202.012.453-.006.61-.022.2-.043.336-.061.447-.039.64-.073 1.28-.088 1.919a27 27 0 0 0-.002 1.154q.016.162.034.305.027.201.036.35a6 6 0 0 1-.02.702l-.006.091.02.474-.012.032c-.053.134-.053.3-.052.56q.002.17-.003.4c-.002.1-.023.151-.04.193l-.015.036c-.013.04.002.082.018.132.022.065.049.143.025.245-.076.327-.024.471.014.58a1 1 0 0 1 .028.091.9.9 0 0 1-.025.337c-.02.082 0 .247.025.371.01.047.01.111.01.186 0 .078 0 .168.01.264.028.243.041.372.052.476l.008.085c.009.087.016.195.024.304.009.13.018.264.03.365q-.02.393-.045.785a.64.64 0 0 1-.13.36.36.36 0 0 1-.278.148.36.36 0 0 1-.279-.149.64.64 0 0 1-.13-.358 65 65 0 0 1-.046-.814q-.025-.495-.027-.99a36 36 0 0 1 .009-.764 9 9 0 0 1-.057-.524 1 1 0 0 1 .018-.266 1 1 0 0 0 .014-.134q0-.036-.004-.094a4.6 4.6 0 0 1 .004-.665c.011-.107.033-.232.053-.352.03-.17.057-.33.049-.41-.015-.14-.002-.303.009-.446.01-.136.02-.255.003-.323a.7.7 0 0 1 0-.253c.008-.071.019-.159.023-.278.005-.137.02-.234.031-.317a.9.9 0 0 0 .007-.334 1.8 1.8 0 0 1-.035-.415q.005-.082.002-.18c-.001-.086-.003-.176.007-.258.008-.068.027-.124.045-.173l.016-.045-.002-.161-.01-.028a1 1 0 0 1-.052-.18 1.2 1.2 0 0 1 .005-.324c.009-.084.019-.17.015-.27a3 3 0 0 0-.018-.222c-.012-.113-.024-.226-.017-.304a.2.2 0 0 1 .028-.08l.003-.005-.031-.57-.01-.05a1.2 1.2 0 0 0-.051-.21c-.023-.054-.036-.194-.05-.34-.01-.096-.019-.195-.032-.276a.3.3 0 0 1 .02-.139.4.4 0 0 0 .021-.136q-.003-.036-.012-.078-.009-.037-.014-.078c-.003-.025.004-.082.013-.154q.009-.068.017-.149l-.023-.422a.2.2 0 0 0-.045-.075q-.021-.022-.046-.04-.035-.024-.065-.06c-.014-.018-.02-.041-.014-.056a.1.1 0 0 1 .013-.018q.009-.007.01-.017 0-.006-.009-.014c-.007-.01-.017-.021-.017-.04-.002-.066.002-.142.005-.216.003-.083.006-.164.003-.229-.003-.072.012-.175.026-.278.01-.072.02-.144.024-.206a1 1 0 0 0-.012-.184.6.6 0 0 1-.005-.204c.002-.012.018-.027.037-.046l.045-.047q0-.114.002-.229l-.007-.008c-.05-.062-.118-.148-.077-.269.01-.03.03-.05.046-.067.017-.017.032-.032.035-.054a.2.2 0 0 0-.018-.088c-.015-.046-.033-.097-.017-.149l.004-.01a.6.6 0 0 1 .064-.148q.014-.244.032-.488.03-.406.065-.813a.65.65 0 0 1 .134-.352.36.36 0 0 1 .275-.145c.1 0 .198.052.274.146.076.093.123.22.134.351l.053.645.006.034c.014.084.042.162.07.24z"/></svg>