<svg xmlns="http://www.w3.org/2000/svg" width="40" height="40" fill="none" viewBox="0 0 40 40"><mask id="a" width="40" height="40" x="0" y="0" maskUnits="userSpaceOnUse" style="mask-type:alpha"><path fill="#d9d9d9" d="M0 0h40v40H0z"/></mask><g mask="url(#a)"><path fill="#000" d="M18.333 32.375V20.958l-10-5.791v11.416zm3.334 0 10-5.792V15.167l-10 5.791zM20 18.083l9.875-5.708L20 6.667l-9.875 5.708zM6.667 29.5a3.3 3.3 0 0 1-1.23-1.208A3.25 3.25 0 0 1 5 26.625v-13.25q0-.917.438-1.667.436-.75 1.229-1.208l11.666-6.708A3.3 3.3 0 0 1 20 3.333q.875 0 1.667.459L33.333 10.5q.792.459 1.23 1.208.437.75.437 1.667v13.25q0 .917-.437 1.667-.438.75-1.23 1.208l-11.666 6.708a3.3 3.3 0 0 1-1.667.459 3.3 3.3 0 0 1-1.667-.459z"/></g></svg>