<svg xmlns="http://www.w3.org/2000/svg" width="40" height="40" fill="none" viewBox="0 0 40 40"><g transform="translate(1.454, 1.454) scale(0.92729)"><mask id="a" width="40" height="40" x="0" y="0" maskUnits="userSpaceOnUse" style="mask-type:alpha"><path fill="#d9d9d9" d="M0 0h40v40H0z"/></mask><g mask="url(#a)"><path fill="#000" d="M8.5 26.75a13.8 13.8 0 0 1-1.375-3.25 12.8 12.8 0 0 1-.458-3.417q0-5.583 3.875-9.5Q14.417 6.668 20 6.667h.292L17.625 4l2.333-2.333 6.667 6.666L19.958 15l-2.333-2.333L20.292 10H20q-4.167 0-7.083 2.938Q10 15.875 10 20.083q0 1.084.25 2.125.25 1.042.75 2.042zm11.542 11.583-6.667-6.666L20.042 25l2.333 2.333L19.708 30H20q4.167 0 7.083-2.937Q30 24.125 30 19.917q0-1.084-.25-2.125A9.5 9.5 0 0 0 29 15.75l2.5-2.5a13.8 13.8 0 0 1 1.375 3.25q.459 1.666.458 3.417 0 5.583-3.875 9.5-3.875 3.915-9.458 3.916h-.292L22.375 36z"/></g></g></svg>