<svg xmlns="http://www.w3.org/2000/svg" width="40" height="40" fill="none" viewBox="0 0 40 40"><mask id="a" width="40" height="40" x="0" y="0" maskUnits="userSpaceOnUse" style="mask-type:alpha"><path fill="#d9d9d9" d="M0 0h40v40H0z"/></mask><g mask="url(#a)"><path fill="#000" d="M13.333 26.667h3.334V13.333h-3.334zm6.667 0L30 20l-10-6.667zm0 10q-3.458 0-6.5-1.313t-5.292-3.562T4.646 26.5 3.333 20t1.313-6.5 3.562-5.292T13.5 4.646 20 3.333t6.5 1.313 5.292 3.562 3.562 5.292 1.313 6.5-1.313 6.5-3.562 5.292-5.292 3.562q-3.041 1.313-6.5 1.313m0-3.334q5.583 0 9.458-3.875T33.333 20t-3.875-9.458T20 6.667t-9.458 3.875T6.667 20t3.875 9.458T20 33.333"/></g></svg>