<svg xmlns="http://www.w3.org/2000/svg" width="40" height="40" fill="none" viewBox="0 0 40 40"><g transform="translate(1.454, 2.227) scale(0.92729)"><mask id="a" width="40" height="40" x="0" y="0" maskUnits="userSpaceOnUse" style="mask-type:alpha"><path fill="#d9d9d9" d="M0 0h40v40H0z"/></mask><g mask="url(#a)"><path fill="#000" d="M20 26.667q3.124 0 5.313-2.188 2.187-2.187 2.187-5.312t-2.187-5.313T20 11.667t-5.312 2.187-2.188 5.313 2.188 5.312T20 26.667m0-3q-1.875 0-3.187-1.313-1.313-1.312-1.313-3.187t1.313-3.188T20 14.667t3.188 1.312 1.312 3.188-1.312 3.187T20 23.667m0 8q-6.084 0-11.083-3.396t-7.25-9.104q2.25-5.708 7.25-9.105 5-3.395 11.083-3.395t11.083 3.396q5 3.395 7.25 9.104-2.25 5.708-7.25 9.104T20 31.667m0-3.334q4.708 0 8.646-2.479t6.02-6.687q-2.082-4.209-6.02-6.688T20 10q-4.708 0-8.646 2.48-3.938 2.478-6.02 6.687 2.082 4.208 6.02 6.687T20 28.334"/></g></g></svg>