<svg xmlns="http://www.w3.org/2000/svg" width="48" height="135" fill="none" viewBox="0 0 48 135"><g fill="#ffcb83" clip-path="url(#a)"><path d="M39.493 58.337c.237-3.417 1.345-6.078 1.124-10.335-.332-4.237-.82-4.83-1.602-9.574-.846-4.764-2.966-9.193-3.685-11.183-.734-2.011-1.356-2.025-2.706-4.683-1.446-2.723-2.511-4.137-4.28-6.193-1.604-2.022-7.28-7.943-9.32-9.962-2.044-2.191-4.866-3.955-6.55-5.113a20 20 0 0 0-1.29-.83c-.143-.084-.227-.099-.249-.07-.027.038.041.145.207.275a39 39 0 0 1 3.21 2.83c2.236 2.254 2.898 2.313 5.906 5.397 3.066 3.268 4.582 5.367 7.81 9.385 3.046 4.097 3.13 5.506 6.427 11.895 2.938 6.633 2.246 7.718 2.972 14.764.638 7.102-.269 16.221-1.404 20.442-1.038 4.234-2.913 9.795-5.206 15.563-2.262 5.787-6.001 12.527-9.151 18.645-3.13 6.132-7.884 14.702-9.846 18.792a224 224 0 0 0-1.79 3.769c-.746 1.548-1.368 2.846-2.937 4.895-.299.373-.623.757-.999 1.123a4.7 4.7 0 0 1-.589.494 1.8 1.8 0 0 1-.3.169c-.046.02-.092.029-.09.029s.01-.001.037.004c.026.015.098-.009.214.165.119.25-.04.393-.054.407-.04.037-.048.035-.058.041.98-.529 1.803-1.161 2.644-1.823a24 24 0 0 0 1.826-1.629c1.044-1.034.684-.939-.492-.06a74 74 0 0 1-1.677 1.219c-.982.681-1.841 1.231-2.501 1.445-.061.018-.121.035-.17.044-.053.022-.092.037-.164.093a.56.56 0 0 0-.214.438.57.57 0 0 0 .358.523c.097.041.164.048.213.054.195.017.291-.008.389-.025.189-.04.337-.098.47-.153.268-.117.486-.247.69-.385.4-.27.73-.564 1.04-.892.617-.662 1.157-1.464 1.773-2.718a27 27 0 0 1 1.644-2.934c.466-.719.908-1.314 1.265-2.064.72-1.462.338-1.597 4.667-8.689 4.345-7.057 6.63-11.009 8.183-13.773 1.553-2.73 4.35-8.723 6.511-13.404 2.296-4.63 5.697-14.612 6.706-18.763 1.101-4.123.73-4.224 1.038-7.645"/><path d="M7.816 123.705c.176-1.952 1.337-3.291 1.665-5.655.327-2.363-.063-2.802.538-5.464.286-1.27.471-2.561.624-3.687.17-1.248.297-2.294.494-2.912.373-1.178-.175-1.387.175-3.094.34-1.708.363-2.779.258-4.312a56 56 0 0 1-.073-1.765v-.023c-.162-2.013-.323-4.84-.24-6.088.122-1.7-.444-3.629-.889-4.736a5 5 0 0 0-.131-.308c-.007-.01-.02-.062-.02-.028 0 .006.002.002-.001.026-.016.017.033.07-.132.13-.147-.008-.115-.042-.13-.043q-.01-.01-.013-.015c-.006-.008-.005-.009-.005-.009l.007.008.017.026.073.116q.07.112.131.207c.052.078.103.103.137.09.042-.018.06-.096.02-.208l-.077-.218-.045-.121-.016-.037-.008-.015c-.024-.01.059.004-.103-.064-.12.002-.13.083-.136.096-.005.022-.004.032-.005.035a.2.2 0 0 0 .004.038c.005.032.01.052.015.076.135.515.206 1.166.183 1.925-.085 1.875.263 2.054.246 4.598-.024 1.726-.166 2.98-.162 4.553v-.042a48 48 0 0 0-.05 2.489c-.031 2.976-.974 3.53-1.144 7.754a19 19 0 0 1-.132 1.565c-.37 2.83-1.199 3.527-1.975 7.065-.906 4.113-1.449 9.436-1.96 11.934l-.08.39c-.125.611-.258 1.254-.39 1.954q-.1.52-.19 1.089c-.03.197-.058.381-.08.627a3 3 0 0 0-.011.37c.01.077-.01.13.081.417.033.088.091.233.234.399.167.237.718.497 1.097.416.402-.073.486-.179.594-.249.104-.083.128-.112.17-.156.13-.148.149-.196.184-.25.059-.097.086-.153.113-.204.63-1.342 1.545-2.521 2.665-3.758 1.514-1.668 3.67-3.228 5.892-4.687 1.174-.773 2.37-1.544 3.493-2.324 3.244-2.263 7.983-5.297 10.148-6.738 2.167-1.442 2.698-1.788 4.93-2.919 1.282-.65 2.98-1.671 4.323-2.693.676-.515.43-.564-.348-.218-1.136.506-1.985 1.071-2.642 1.205-1.313.269-1.862.397-3.148 1.396-1.286 1-2.212.903-3 1.422-.784.522-.618.777-4.878 2.957-4.26 2.19-6.53 3.519-8.105 4.446-.556.327-1.306.832-2.138 1.427-1.536 1.092-3.327 2.534-4.831 3.804-1.318 1.109-3.415 3.157-4.537 5.579-.018.035-.037.067-.022.042.021-.023-.012-.022.18-.21.077-.061.135-.135.407-.236.276-.127.907-.044 1.179.24.253.242.268.348.32.458.03.076.04.12.05.162.04.232.016.154.022.155l.007-.086c.015-.146.04-.332.068-.509q.086-.547.186-1.061c.13-.685.264-1.309.385-1.812q.046-.192.092-.371c.61-2.333.264-2.407.44-4.361"/></g><defs><clipPath id="a"><path fill="#fff" d="M0 0h48v135H0z"/></clipPath></defs></svg>