<svg xmlns="http://www.w3.org/2000/svg" width="40" height="40" fill="none" viewBox="0 0 40 40"><path fill="#231f20" d="M27.434 29.579c-.005-.015-.016-.074-.023-.1.024.025.04.15.023.1m-2.074-1.785.04.039c-.025-.045-.066-.102-.09-.144-.004-.008.018.003.007-.013s-.021-.004-.038-.025c-.019-.024-.09-.145-.12-.184-.108-.145-.23-.282-.343-.423.131.134.018-.018-.022-.053-.009-.008-.029.012-.151-.13-.08-.09.03-.041-.127-.168.087.13-.017.02-.104-.062-.015-.014-.134-.132-.19-.18-.02-.016-.059-.03-.085-.05-.017-.015-.025-.033-.051-.055a11 11 0 0 0-.375-.293c.1.022-.049-.057-.054-.062-.025-.032.118.066.066.02a7 7 0 0 0-.238-.158c.062.047-.106-.028-.127-.056-.005.036-.358-.249-.427-.267-.014-.003.061.054-.128-.05-.02-.012-.008-.018-.02-.022-.006-.003-.061.009-.096-.028-.013-.014.098.01-.128-.081.075.07-.317-.114-.39-.146l.04.03c-.07-.04-.088-.033-.104-.04-.066-.026-.156-.068-.22-.087-.075-.022-.082 0-.167-.034l.058.032-.18-.053c.148.009-.03-.01-.041-.012-.018-.003.01-.008-.02-.014-.003 0-.001.01-.048 0-.097-.02-.08-.03-.12-.039-.004 0 .007.012-.064 0-.226-.038.002-.008.011-.007.012 0-.056-.059.132 0-.063-.02-.066-.04-.073-.042l-.125-.023c-.056-.005-.01.017-.022.017-.008 0-.141-.041-.18-.008-.059-.046.044-.027.153-.011.017-.005-.1-.034-.107-.034-.156-.026-.074.017-.111.03-.02.007-.079-.022-.025.012-.14-.017-.053-.02-.062-.024-.013-.005-.063-.004-.069-.006-.009-.002.024-.007-.011-.015-.006-.001-.066.007.007.024-.098-.015-.092 0-.122-.03-.074.042-.047-.036-.074-.041-.07-.015-.053.027-.057.029-.027.009-.225-.019-.274-.014.02-.028.158.008.189.005.104-.01-.145-.024-.068-.055l-.096.024c-.057-.025.026-.033-.13-.03-.026.02.11.001.082.016-.016.008-.106.007-.108.012-.002.006.08.002.066.01-.028.018-.325-.004-.098-.012-.055 0-.087-.03-.131-.03q-.01 0-.02.002c-.014.003.006.012.02.023.012.008.02.017 0 .023a.7.7 0 0 1-.155.008c-.007-.019.119-.008.122-.009.005-.002-.018-.043-.022-.045-.015-.008-.319.023-.385.01.026.02-.23.022-.258.034-.007.002.023.014.015.016-.049.014-.185.005-.246.014-.069.01-.058.02-.062.021-.03.004-.008-.008-.026-.005-.029.004-.22.037-.23.041-.002.001.032.01-.009.02-.007.002-.006-.016-.127.018-.145.041.107-.002.05.029-.1-.004-.092.02-.118.024-.008.001-.08-.004-.15.016q.075-.025.151-.048c-.052.008-.148.037-.19.044-.02.003-.009-.018-.053-.006-.009.003-.034.054.075.005.013.012-.044.017-.068.028-.004.002-.012.03-.048.024-.009 0 .054-.099-.147.018-.006.004.02.005.014.01-.004.002-.06.016-.065.019s.023.005.017.009c-.035.022-.097 0-.018-.023l-.083.011c.037.02-.038.022-.074.035-.226.088-.066.052-.102.075-.057.04-.027-.028-.115.023-.008.005.112-.02-.11.056l.095-.041c-.03-.02-.116.049-.123.052-.083.04-.03.005-.149.074-.01.006-.038.01-.06.025-.092.059.134-.051.145-.042.005.003-.24.114-.249.117-.04.005.108-.058.073-.058-.013-.003-.352.18-.42.216-.081.037-.136.024-.114.063-.044-.026-.048.012-.058.018-.12.068-.12.068-.217.136-.021.015-.047.016-.054.023-.004.005.013.01-.007.03q-.11.079-.232.143c-.018.003.073-.058.05-.056-.066.045-.125.093-.19.141-.026.02-.018.003-.03.011a1 1 0 0 0-.083.082c.012-.003.29-.223.226-.153-.012.013-.076.035-.052.049a7 7 0 0 0-.72.615c.113-.144.274-.272.417-.397.02-.018.09-.072.073-.075-.127.1-.273.24-.39.344-.004.003.001-.018-.013-.006-.028.021-.095.116-.112.126-.003.002.032-.056.01-.048-.053.018-.022.066-.052.097-.025.023-.197.172-.221.227-.026.057.118-.118.118-.095-.091.123-.203.23-.291.345-.002.002.02-.008.002.018-.032.046-.054.047-.073.068-.02.021-.08.106-.093.114a.1.1 0 0 1 0-.029c.02-.04.047-.04.05-.044.01-.012.013-.029.022-.04.015-.018.028-.023.048-.047.013-.017-.01-.01.002-.025.005-.006.081-.05.06-.076-.012-.013-.417.517-.438.583l.104-.137c-.074.09-.125.223-.163.21a6.7 6.7 0 0 0-.58 1.153c-.03.07-.04.023-.076.145l.056-.085q-.081.183-.138.375c0 .006.018.02 0 .09-.016.062-.035.067-.047.099-.01.027-.014.06-.017.067-.002.006-.013.006-.019.021-.018.047.02.015-.024.055l.005-.036c-.02.056-.053.133-.04.045.002-.015.009 0 .012-.011.112-.431-.002-.093-.022.063-.024.035-.062.258-.066.265-.006.01-.01-.031-.03.017-.006.01-.047.31-.05.198 0-.023.029-.165.035-.2-.047.075-.033.275-.037.296-.017.085-.002-.171-.035.024-.023.15.017.011.018.07 0 .033-.043.201-.011.2-.003.06-.015.023-.017.03s-.004.123-.013.16c0 .005-.016-.011-.017-.006a1 1 0 0 0-.006.125c0 .003.016-.023.018-.012.003.014-.005.12-.001.127.005.009.008-.124.022-.101a.7.7 0 0 0 .01.2 1 1 0 0 1 0-.089c.023.01.019.137.002.093.009.028.015.01.023.025.002.004.002.043.006.05 0 .002.01-.038.014-.03a.7.7 0 0 1 .003.142c-.006.027-.013-.07-.023-.077-.001-.002-.02.08-.022.082-.018.005-.005-.087-.02-.077l-.011.069c-.017-.089-.004-.25-.02-.293 0 .13-.002.266-.043.266-.018 0-.027-.057-.032-.055-.016.008 0 .088 0 .09q0 .004-.003.004c-.01 0-.015-.113-.019-.119-.007-.01-.04.04-.046.04-.002-.001-.007-.083-.02-.055-.013.027-.014.098-.015.1-.007.015-.013-.11-.017-.114-.002-.002-.016.065-.02.067-.004.001-.011-.05-.023-.07-.009-.016-.017.028-.018.02-.001-.005.002-.124.001-.13-.002-.008-.014.019-.016.015-.004-.006.001-.044-.003-.04-.003.004-.044.152-.054.151-.017-.002.026-.16-.044-.013l.003.038c-.013.022-.03-.095-.029.048-.017-.266-.025-.033-.053-.073-.01-.016-.012-.12-.013-.12-.015.01-.005.043-.012.054-.004.006-.016-.087-.026-.066-.005.01-.006.11-.007.113-.01.04-.019-.009-.025 0-.005.005-.006.065-.007.067-.002.002-.018-.08-.023-.097-.005-.013-.013.035-.015.026-.011-.054.024-.17-.023-.059-.003.007-.003.05-.004.05-.013.026-.012-.052-.022-.066-.017-.025-.01.088-.02-.006a.7.7 0 0 0-.01.192c-.007-.228-.049-.311-.053-.056.002-.081-.024-.073-.024-.097 0-.015.03-.132-.03-.08-.007.006 0 .079-.014.056.01-.173-.01-.004-.011-.004-.036-.003.014-.427.02-.499.004-.084-.014-.163-.012-.18.008-.061.015-.01.021-.023s.004-.187.007-.195c.01-.032.021.003.022 0 .015-.04.04-.27.057-.333-.01 0-.035.128-.036.045-.002-.097.044-.093.046-.096q.127-.64.358-1.25c-.025-.004-.105.27-.108.276-.033.029.132-.424.166-.473l-.064.119c.001-.082.1-.225.134-.33.011-.035-.027.023-.027.022.006-.042.04-.097.034-.047.028-.095.036-.076.07-.143.001-.004-.023.02-.001-.036.01-.026.076-.16.077-.182 0-.01-.073.039-.044.064-.089.138-.008.054-.036.11-.005.01-.015-.02-.073.129-.022-.044.083-.198.093-.228.02-.063-.116.17-.108.228-.017-.034-.012.015-.037.07-.028.059-.024.029-.039.061-.038.09-.003.06-.051.127.083-.05-.045.128-.081.182a9 9 0 0 1 .107-.286l-.015.012.033-.073.003.015c.038-.134.073-.156.078-.166.063-.13.138-.28.208-.41.011-.019-.014-.016.078-.148.03-.043.018.007.045-.045.002-.082.03-.065.04-.084.032-.053.043-.09.046-.095.039-.066.1-.16.146-.231 0-.001-.034.028 0-.015.011-.016.15-.129.225-.26l-.077.09c.03-.036.213-.301.154-.247-.037.033-.08.148-.113.14.066-.085.43-.554.471-.58.005-.004-.013.032-.006.026.005-.004.094-.107.11-.117.009-.006-.027.042-.021.041a.8.8 0 0 0 .12-.138c-.024.034-.107.116-.074.064.005-.007.039-.031.044-.04.05-.075-.13.121-.157.153.099-.137.293-.31.426-.45.065-.047-.072.092-.002.037.146-.112.025-.045.028-.05.026-.04.18-.1.15-.134.055-.039.042-.02.11-.087l-.035.018a.6.6 0 0 1 .265-.163c-.026.038-.127.094-.134.101-.011.01-.012.07-.158.144-.028.065.203-.149.108-.04.07-.067.393-.298.433-.34.004-.006-.04-.012.049-.058.042-.021-.049.046-.027.039.058-.032.8-.526.957-.594.01-.005.01.006.02 0 .029-.015.13-.083.186-.105-.119.038.096-.068.152-.091.086-.036.088-.018.125-.03.146-.05.354-.174.48-.178-.02-.034.2-.051.292-.079.072-.022.171-.076.068-.062.126-.036.259-.078.378-.109.02-.005-.005.012.028.003.003 0 .005-.012.034-.02.238-.063.126-.014.173-.018l.058-.005a7 7 0 0 0-.342.084c.041.012.308-.077.39-.085.002 0-.005.015-.002.014.03-.005.221-.043.18-.052q-.105.01-.205.035c.028-.009.004-.02.009-.02.059-.02.211-.032.265-.038.012-.001.01-.01.012-.01.048-.006.032.023.078-.011.092.02-.163.03-.142.049.015.009.572-.069.57-.09q.002.005.025.008c.036.006.193-.007.22-.013.004-.001.001-.026.007-.027.014-.002.206.01.278-.004l-.117-.009c.235-.005.2-.01.12-.018h-.011c-.061-.006-.14-.009-.14-.01q.12-.015.242-.01c.064.003.107.009.077.018H20c-.043-.001-.08 0-.028.009h.141c.024.008-.05.015-.113.025-.046.007-.086.014-.072.022a.3.3 0 0 1 .072-.01c.047-.003.096 0 .143-.002.032 0 .04-.013.045-.014.06-.001.026.011.046.012.01 0 .13-.024.106.014.393-.005.109-.027-.13-.031.076-.013.224.001.292.003.024 0 .01-.014.051-.014.084-.002.48.058.58.08-.063-.005-.046.012.002.018.049.007.011-.018.02-.019.012-.001.238.047.276.053-.172-.025-.136-.004.008.025h-.065c.086.01.259.07.308.075.008.001-.017-.017-.012-.017.044.005.185.053.192.051s-.052-.027-.028-.026c.005 0 .06.03.12.043.021.004.011-.01.017-.01.047.008.015.019.098.04.061.015.111.01.193.043-.266-.107-.04-.028.076.003.02.006.01-.02.116.027-.244-.044.06.04.119.065.003.001 0 .014.029.025.002.001.002-.009.03.001.26.095.09.04.136.068.02.012.149.051.182.066.008.003 0 .01.03.023.052.023.103.035.138.05.004.002-.002.015.064.041.019.008.041.013.018-.004-.08-.054-.254-.105-.346-.16-.085-.05.199.07.213.078.005.003-.053-.015.002.011.047.023.145.04.212.08.005.003.051.05.048.05s-.09-.038-.08-.026c0 0 .055.028.06.035.006.01.003.072.014.08.027.018.014-.004.033.007.04.022.17.112.184.097l-.067-.04c.129.067.078.03.098.037.022.008.008.02.05.045.01.005.188.106.188.099-.103-.049-.056-.045-.06-.049-.017-.01-.045-.013-.068-.027-.162-.095.012-.017-.024-.044-.013-.009-.044-.015-.05-.018-.017-.012-.011-.024-.024-.03-.03-.014-.006.021-.008.021-.032-.004-.125-.072-.053-.056-.034-.027-.05-.007-.076-.032-.05-.05.037.003.063.013.092.037.114.06.236.127.044.025.102.045.122.057.014.007.108.117.148.064.042.034.089.118.136.147.042.027.042-.001.047 0 .006.004.055.04.074.049.022.01.017-.004.05.015.083.049.067.067.074.074.08.081.06.025.082.038.022.01.271.224.328.264l-.074-.043c.03.043.086.06.07.08.035-.026.095.063.119.083.01.008.014.002.025.012.046.039.142.135.168.155.114.085-.131-.182-.154-.201.044.037.286.251.192.134-.014-.018-.057-.031-.067-.04-.068-.055-.006-.021-.01-.027-.007-.01-.06-.036-.07-.048-.004-.004.031.006-.031-.05.041.015.206.184.23.203.009.007-.017-.065.104.099l.002-.012q.12.117.237.24c-.014-.005-.067-.041-.01.015.032.032.02-.003.023 0 .037.022.499.582.576.7.028.038.115.14.12.149.037.049.149.233.172.27.016.021.013-.007.025.013s-.011.007-.008.012c.027.048.251.4.285.495a2 2 0 0 0-.2-.296c0 .002.028.07.04.08.002.027.073.085.09.13.002.005-.024-.005.012.07.012.026.06.085.08.16.061.09.27.624.298.654.001.001-.022-.076.005-.029.037.064-.02.017.007.096l.093.238c.043.06-.018-.136-.015-.134.009.004.069.164.07.171 0 .007-.07-.116-.007.039l-.01-.058c.032.073.016.086.021.104.015.058.062.11.055.212-.002.026-.023-.01-.024-.007-.003.032.04.06.028.11-.001.003-.043-.093.006.083l-.003-.038c.012.023.062.202.066.227.014.071-.018.014 0 .084.014-.051.066.166.043.158.032.025.049.215.063.303.009.055.037.167.038.184.002.022-.016.018-.015.057 0 .011.03.125.022.23-.001.02-.026.064-.038.028-.019-.061-.01-.182-.027-.178s.012.161.014.204c.007.198-.024.086-.029.092-.013.014-.004.121-.005.126-.005.019-.022-.056-.031-.057-.012 0-.025.104-.03.081-.009-.033.001-.128 0-.134-.019-.076-.036.032-.047.062-.003.01-.013-.025-.013-.018-.01.113.04.02.041.096.002.067-.022-.018-.023-.015 0 .003.004.083-.002.096-.002.006-.052-.198-.067-.187q.015.097.025.195c-.02.006-.011-.089-.014-.098-.006-.02-.012.036-.018.034s-.024-.064-.026-.006c0 .02.017.06.006.134-.033-.25-.034-.075-.04-.068-.007.008-.031-.11-.02.034-.038.009-.012-.002-.021-.043-.012-.05-.017.067-.02-.116-.018.012-.006.158-.008.166 0 .007-.012-.025-.014-.013-.028.14-.017.044-.037.085-.002.003-.005.132-.012.034-.015-.178.004-.255-.054-.28-.013.133.03.29.032.33.003.061-.01-.002-.013.006-.001.003.002.055 0 .056-.04.039-.008-.234-.023-.32l-.015.07-.007-.093c-.003.15-.004.006-.042-.028-.008-.008.013.088-.017-.02.001.08-.008.055.007.128-.014-.001-.041-.165-.055-.228.005.23.045.095.03.295.02.037.011-.058.014-.05.012.026 0 .093.039.17.006.012.022-.043.024.037 0 .01-.014.061-.015.06-.012-.006-.01-.057-.014-.059-.005-.002 0 .055-.002.055-.015.002-.007-.047-.011-.04-.01.016-.037.219-.035-.045.024.218.018.027.008-.057-.003-.022-.012-.027-.017-.058-.006-.04-.005-.087-.008-.107-.003-.022-.015.105-.023-.077-.013.094.019.256.006.347-.024.183-.04-.126-.046-.158 0-.008-.012.021-.012.016-.002-.01-.007-.185-.02-.201-.01-.017.006.063-.004.07-.006.003-.036-.205-.031-.091.003.078.04.221.01.247a7 7 0 0 0-.032-.344l-.02.19c-.012-.127-.01-.239-.04-.358-.005.295-.04-.091-.047-.094-.003-.001-.018.116-.022.135-.021-.1-.075-.4-.084-.218a.3.3 0 0 0-.031-.106c-.014.012.022.18.003.154-.021-.03-.005-.078-.015-.126-.053-.249-.124-.164-.164-.412l-.006.017a7 7 0 0 0-.217-.79 5 5 0 0 1-.236-.474l-.06-.167c-.004-.019.043.076.03.029-.002-.01-.102-.222-.108-.2.01.024.055.094.057.107.027.092-.3-.547-.337-.567l.013.048zm1.98 1.585c.023.027.032.108.047.152.022.062.102.159.036.124a8 8 0 0 0-.083-.276m-.465-1.326c.02.062-.03.03-.04-.023-.001-.006.012-.06.04.023m.25.63-.02-.057c-.007-.052.05.107.02.057m-1.75-2.727c.05.05.035-.007-.005-.03-.002-.002.001.027.005.03m.034.037c.02.057.134.102.07.042zm1.55 2.275c-.012-.003-.034-.065-.044-.092.009-.003.032.067.044.092m-.841-1.459c-.007.002.126.19.143.198-.023-.028-.135-.2-.143-.198m-.376-.458c.003.005.056.065.06.059-.018-.036-.072-.082-.06-.059m-.829-.836c-.004-.001.013.07-.076-.043-.013-.017.05.022.046.016l-.025-.027c.052.04.105.083.108.09.015.03-.05-.035-.053-.036m-.503-.359a.5.5 0 0 1-.098-.07c-.002-.002.02-.009-.012-.03-.026-.017.001.026-.047-.012-.05-.037.026-.002.023-.006-.006-.005-.09-.052-.08-.06.006-.005.087.058.109.07.028.018.003-.016.046.018.027.02-.003.03.003.035.004.004.108.063.056.055m.433.294q.007.003.015.01zm2.436 3.752c-.002-.034.035.058.036.097a.4.4 0 0 1-.036-.097m-2.495-3.776c-.072-.067-.012-.028.059.024-.025-.015-.035-.002-.059-.024m1.785 2.108q0-.007.005-.01.002.017-.005.01m-.109-.2c-.053-.06.03.075.039.07zm-1.149-1.444c.004.006-.104-.043.032.049-.057-.065.01-.004.012-.007.006-.01-.105-.105-.125-.13-.031-.004.068.068.081.088m-1.838-1.33c.022-.002.076.031.112.052-.023 0-.076-.032-.112-.052m-9.724 2.49c.155-.242.215-.244.05-.04-.004.003-.056.058-.05.04m1.689-1.78c.033-.001-.036.056-.087.086-.011.007-.062.022-.02-.016.013.02.087-.027.107-.07m9.295.13c-.03-.008-.093-.07-.128-.1.029.008.099.07.128.1m-10.39.918c.02-.022.02-.048.016-.045-.02.013-.047.065-.017.045m10.604-.734c-.002.008-.094-.062-.088-.082.018.017.09.076.088.082m-1.407-.983c.014.012-.072-.026-.095-.042.006-.007.086.034.095.042m-8.871 1.357a.4.4 0 0 0 .068-.076c0-.013-.068.06-.068.076m-2.155 4.445a.4.4 0 0 1 0-.149c.025-.085.002.145 0 .149m1.652-3.86c-.067.056.005-.008-.01-.016-.038.044-.126.156-.052.09.014-.013.044-.054.062-.074m.054-.057c.001-.011.027-.07-.006-.028-.016.02-.025.063.006.028m-1.603 3.278c.03-.071-.048.27-.05.279l-.006.01c.002.013-.008.079-.021.084.004-.02.012-.073.015-.079l.002-.005q.02-.147.06-.289m.16-.557c-.004.09-.044.094-.044.087.011-.096.022-.029.024-.031.004-.006.01-.074.02-.056m-.127.442-.02.078c-.025.056.024-.146.02-.078m11.362-4.734c-.042-.031.009-.016.035.008.003.002.002.02-.035-.008m-9.769 1.536c.01-.009.221-.236.194-.236-.018.02-.256.282-.194.236m1.74-1.531c-.046.03-.006-.02.023-.03.01-.003-.01.022-.023.03m9.068.782c.05.03.016.05-.012.007-.001-.002.01-.009.012-.007m-9.436-.544c.147-.12.146-.044-.064.084l.013-.02c-.232.164-.019.007.036-.037.02-.016-.004-.012.014-.027m.615-.389c.18-.053-.135.097-.215.157.072-.067.181-.13.025-.057.212-.135.133-.064.142-.068.01-.005.04-.03.048-.032m-.406.258c-.008.007-.079.044-.101.062.023-.036.155-.109.101-.062M12.96 28.63c.01.01.012.028-.014.085 0-.02.01-.06.014-.085m14.333.823c.01.042.026.126.032.098 0-.003-.025-.1-.032-.098M14.869 25.8c.007-.006.183-.165.113-.12-.022.013-.178.163-.113.12m-.822.91a1 1 0 0 0 .059-.083c-.005-.01-.061.071-.059.084m13.287 2.957c0 .005.03.133.033.118.005-.03-.034-.139-.034-.119m-3.499-4.828c-.01-.005-.015-.024-.018-.026-.008-.005-.185-.102-.11-.078.014.003.259.159.29.182.002.023-.094-.058-.12-.072-.005-.003-.016.009-.042-.006m-10.972 4.102c.007.012-.057.24-.069.233zm.04-.113c.025-.045-.011.067-.026.1a.4.4 0 0 1 .026-.1m1.461-2.438c.013-.02-.047.025-.039.01.005-.009.045-.045.052-.061a.2.2 0 0 0-.055.038c-.014.017.01.01-.006.028-.052.061-.105.11-.152.17-.004.005.036-.03 0 .015-.006.007-.05.04-.091.097-.062.147-.16.214-.259.383.007-.004.099-.118.104-.124.099-.13.277-.36.388-.49.028-.032.008-.022.02-.036.01-.012.01.012.038-.03m12.917 3.043c-.01.024.017.091.027.136.01-.02-.02-.092-.027-.136M13.337 27.86c.01-.02.047-.082.046-.09-.002-.009-.054.08-.046.09m9.488-3.535-.055-.024c-.041-.03.112.035.055.024m-1.266-.398c-.042-.007-.084-.01-.095-.026.026.007.102.018.095.026m-1.82-.16c.008.017-.118.01-.142.01.009-.007.135-.022.142-.01m-6.726 4.874c-.028.072.001.065-.027.107-.004.007-.063.013-.015-.06.01-.013 0 .047.042-.047m2.504-3.373c-.009.02-.06.055-.093.08.002-.012.07-.062.093-.08m11.853 4.634c-.008.039.033.2.036.158 0-.006-.032-.135-.036-.158m-2.824-4.584c-.062-.032.048.058.09.077-.016-.012-.086-.075-.09-.077m-4.368-1.544-.08-.003c-.06-.014.147-.007.08.003m1.8.277a1 1 0 0 1-.23-.068c.04-.006.264.064.23.068m-8.852 4.294q-.032.075-.068.143a.5.5 0 0 1 .068-.143m.583-1.082c.028-.038.01-.038.007-.036-.023.026-.038.077-.007.035m13.56 2.228c-.01.019.02.091.027.135a.4.4 0 0 0-.027-.135M16.414 24.7c.058-.015-.139.116-.186.133q.087-.076.186-.133m8.287.768c-.004.012.081.065.068.047-.008-.011-.066-.054-.068-.047m-8.577-.579c-.017.015-.067.033-.055.017.015-.02.059-.02.055-.017m-1.528 1.258c.008-.006.09-.107.044-.077-.031.022-.024.037-.03.044-.007.006-.163.146-.014.033m3.03-1.974c-.045.02-.103.035-.151.053a.5.5 0 0 1 .151-.053m6.772 1.063c.008.01.263.21.125.087-.007-.008-.146-.12-.125-.087m-11.022 2.609c-.002.02.042-.058.05-.084-.004-.011-.05.081-.05.084m4.1-3.607c-.027.014-.08.028-.113.042a.3.3 0 0 1 .113-.042m2.029-.42c-.06 0-.131.008-.132.017q-.002-.003-.009-.004c-.005-.001-.067.009-.094.008-.166-.007.63-.057.17 0zm2.69.32c.028.02.122.036.1.025-.015-.009-.128-.046-.1-.025m-1.253-.267c.01.003.1.008.104.002-.051-.013-.148-.017-.104-.002m1.492.36c.02.009.05.001.049 0-.018-.014-.078-.02-.049 0m-9.317 4.28a.5.5 0 0 0 .04-.147.1.1 0 0 0 .022-.028c.008-.026.37-.738.11-.269-.008.015.011 0-.02.06-.002.004-.01.003-.017.015-.015.028-.09.182-.097.216q-.003 0-.007.005c-.03.034-.044.17-.031.148m7.645-4.66c.018.006.076.01.083.002-.028-.007-.125-.014-.083-.002m3.624 1.418c.026.027.109.075.09.052-.012-.014-.12-.084-.09-.052m-3.048-1.338c-.21-.046-.05-.008-.084-.002zm-8.563 5.508c.011-.033.023.012.002.045-.007.01-.008-.027-.002-.045m-.237 1.517c.021-.028.001.113-.01.057zm.146-1.063c-.008-.025-.007-.04.01-.103-.016.095.014.01-.01.103m9.94-5.594c.022.02.092.046.075.028a.2.2 0 0 0-.075-.028m-9.467 4.065q-.004.003-.002-.006zm9.084-4.191a.4.4 0 0 0-.108-.045c-.067-.005.063.03.108.045m2.72 1.582c.005.004-.009-.038-.032-.047-.018-.007.013.035.032.047M12.65 30.11c-.006.036-.014.086-.026.093.006-.023.019-.095.026-.093m-.094.79a.8.8 0 0 1 .007-.202c.015 0-.008.162-.007.202m.52-2.3c.002-.003.04-.085.025-.078-.022.011-.04.1-.025.078m11.762-2.97c-.035-.021.02.057.063.072.023.008-.057-.069-.063-.072m-2-1.231c.051.014-.067-.047-.088-.043.022.01.071.037.088.043m-1.751-.478c.16.058.08-.015.049-.015a.3.3 0 0 0-.049.015m6.289 6.405c.007.023.01-.067-.002-.077-.008-.006-.003.062.002.077m-4.12-5.686c-.085-.094-.09-.056-.1-.06-.019-.01-.06-.044-.1-.06l.137.048a3 3 0 0 0-.335-.167c-.014.006.083.044.085.046.004.003.007.037.015.042.014.007.263.124.298.151m-1.824-.664c-.025-.009-.03-.021-.044-.021-.004 0-.007.01-.022.01zm2.031.725c.023.027-.107-.047-.11-.05-.02-.02.091.027.11.05M22.29 24.2a.6.6 0 0 0 .115.036c-.027-.016-.174-.066-.115-.036m-.942-.237c-.04-.009-.113-.033-.107-.015zm3.359 1.604c.04.069.035.02-.011-.03-.023-.003.004.019.01.03m.168.172c.013.017.174.158.16.126-.006-.012-.105-.086-.109-.09-.005-.008.035.007-.016-.035-.001.007-.04-.007-.035-.001m-.132-.119c.043.064.08.046.038.01-.017-.014-.044-.019-.038-.01m-.233-.194a.5.5 0 0 0 .117.089l-.152-.125c-.01 0 .018.02.035.036m-11.878 5.923c.011-.059.014.076.012.082-.009.017-.017-.056-.012-.082m14.454-.536c-.003.016-.016.028-.006.062l.022-.107c-.026-.025-.013.028-.016.045m-.077.139c0-.005-.035.023-.015-.04.014-.045.044.186.029.228-.01-.045-.006-.146-.014-.188m-.142.404a1 1 0 0 1-.007-.093c.01-.053.023.079.007.093m-.001-.274c-.005.04-.014-.048-.012-.075.007-.003.013.07.012.075m-13.68-.28c.029-.04-.02-.084-.016-.017 0 .004.015.019.016.017m13.643.47c.006-.04.013.05.009.076-.007.003-.01-.069-.009-.075m-13.581-.495c.023-.054-.039-.04-.042-.034a.5.5 0 0 0 .007.153c.003-.152.024-.093.035-.119m-.007-.266c0-.054-.029.08-.015.108.002-.027.015-.093.015-.108m.068-.316a.5.5 0 0 0 .02-.126c-.004.031-.028.112-.02.126m.039-.058c.02-.042-.014-.06-.013-.007 0 .002.012.008.013.007m.063-.242c.02-.025-.007-.066-.018-.02-.004.014.016.022.018.02m-.093.818c.01-.04-.009-.097-.021-.009l-.002-.094c-.027.114.01.11.005.142-.006.046-.035.04-.044.03.014.04.002.202.001.297.012-.083.034-.216.047-.296.003-.023-.003-.046 0-.066.005-.031.014-.002.014-.004m.172-1.136c.04-.078-.01-.036-.017.013 0 .002.016-.011.017-.013m13.23 1.812c.014-.115.038-.033-.001-.27.025.1.015.005.025.024.008.016.004.075.017.04-.013.045-.006.241-.01.25-.001.005-.036-.008-.031-.044m-13.317-1.178c.048-.02-.019-.043.027-.091-.038-.083-.036.2-.084.227.053-.3-.075.193.024-.007-.05.169 0 .057.004.085.005.03-.018.126-.001.123l.022-.179c-.044.053-.015-.068.02-.104zm-.084.333q.009-.065.006-.13c-.007.017-.026.203-.006.13m-.041.578c.002-.047.013-.12.001-.147-.003.047-.014.12-.001.147m.523-2.36c.013-.06-.06.11-.028.065.002-.002.027-.063.028-.066m-.38 1.314c.025-.057-.022-.037-.02.01 0 .002.02-.008.02-.01m13.294 1.22c-.01-.004-.007-.169-.01-.198.012.016.023.203.01.198m-13.401-.09c.04-.092.004-.22.006-.235.002-.013.017.01.018.006l.01-.16c0-.006-.025.019-.03-.012.006.06-.018.33-.015.343.002.01.03-.07.01.057m.014-.269c-.013.036-.007-.067 0-.092.012-.054 0 .087 0 .092m.03-.246a.4.4 0 0 0 .008-.127c-.02.048-.016.153-.008.127m.222-1.158c.006-.027.036-.098.028-.104-.007.026-.036.097-.028.104m13.02 1.21c-.003.046-.017-.059-.016-.09q.013.045.016.09m-13.088-.66.079-.384c-.02.041-.093.36-.09.377 0 .004.01.01.01.007m-.098.707c.01.031-.007.05-.008.053-.005.037-.008.115-.02.097.01-.066.006-.213.028-.15m.233-1.263c.026-.109-.047.094-.025.07zm-.138.593c.004.026-.06.35-.064.402-.014-.05.007-.085.015-.148.002-.017-.007-.014-.006-.016.004-.03.01-.006.013-.024.001-.012.032-.251.042-.214m-.087.688q.004.116-.008.232c-.02.061.002-.217.008-.232m.11-.714c.017.04-.028.197-.02.085.001-.011.02-.054.02-.085m.134-.55a1 1 0 0 0 .033-.118c-.008.015-.058.177-.033.119m.008.066c.001-.003-.02.02-.004-.033.001-.004.02-.008.033-.075a.1.1 0 0 0-.003-.036c-.046.061-.054.282-.026.144m-.24 1.203c.009-.01.027.018.015.04-.006.01-.017-.01-.014-.04m.349-1.618c-.01.068.062-.13.063-.142a1 1 0 0 0-.063.142m12.71 1.453c-.004-.057.01-.023.01-.026.001-.122-.02-.087-.024-.105-.012-.04.018-.037-.004-.102.034.108.012.008.022.004.04-.019.001.15.016.206.002.007.009-.052.015-.032.02.064-.022.272-.035.055m-13.045.224c.01.027-.015.226-.022.173-.002-.01.007-.213.022-.173m5.984-6.114c-.046.015.064.018.084.008.01-.004-.063-.014-.084-.008m.774.025c.056 0 .117-.042.047-.038-.008 0-.053.031-.047.038m-3.536.904c.059-.017.04-.04.003-.018-.013.008-.005.018-.003.018m2.085-.814c.006 0 .073-.015.07-.02-.026 0-.108.02-.07.02m-2.099.827c.027-.023-.036-.01-.06.031a.4.4 0 0 1 .06-.031m-3.036 4.288c-.006-.032.016-.112.026-.159.016-.001-.022.125-.026.159m6.346-5.225c.054-.012-.061-.02-.05-.005zM15.213 26.9c.02-.035-.073.049-.038.034zm-.35.411c.02-.022.098-.12.06-.088-.006.005-.066.081-.06.088m11.606 3.204c-.014.018-.022-.074-.022-.087 0-.005.04.064.022.087M17.007 25.5c.026-.016.098-.049.107-.062-.033.018-.124.052-.107.062m2.718-.733c.047.016.127.012.106-.01-.087.004.011.02-.106.01m-3.221 1.054c.021-.012.025-.04.022-.04-.027.006-.047.046-.022.04m1.647-.788c.004.009.078-.017.066-.02-.004-.001-.07.013-.066.02m-4.228 3.97c.02-.032-.01.074-.031.101-.02.01.028-.098.03-.102m2.031-2.788c.006.013.096-.069.052-.048a.2.2 0 0 0-.052.048m-.828.828c.04-.075-.19.183-.116.126.005-.004.112-.119.116-.126m-.357.433c.01-.01.043.023-.005.06-.006.005.004-.031-.002-.028a2 2 0 0 0-.084.108c-.003.006.014.008.012.015-.003.006-.058.064-.08.098-.043.065-.037.079-.04.084-.01.016-.034.037-.054.069-.1.16-.23.418-.32.54.07-.114.12-.232.183-.349.002.047.08-.178.038-.045.02-.06.316-.521.352-.552m5.662-2.669c-.035.013.141.023.157.006a1 1 0 0 0-.157-.006m-.815.036c-.016.004-.03.036-.116.026-.025-.002.002-.012-.002-.015-.002 0-.081-.01-.017-.017.099-.012.011.022.064.018a1 1 0 0 0 .1-.027c-.001 0-.031.005-.036.004-.02-.005-.011-.015-.014-.015-.009-.001-.165.027-.19.016q.13-.025.262-.032c.007 0 .006.028.012.03.004.001.107-.013.121-.01h.01c-.017-.007.078-.009.075 0a.4.4 0 0 1-.069.003h-.003c.014.009-.205.018-.157.031-.064.012.008-.023-.04-.012m-.303.042.018-.01c-.11.018-.239.021-.366.043-.032.005.008.016-.035.018-.035.002-.075-.007-.057-.014.004-.001.075-.003.11-.01.1-.019.073-.03.079-.03.006-.002.072-.001.107-.006.088-.012.129-.027.25-.026-.069.016-.027.034-.106.035m-3.719 1.703c.003.01-.056.054-.074.074-.003-.01.055-.055.074-.074m9.585.899c.027.009-.072-.13-.055-.086.004.01.043.069.055.086m-.474-.592c-.018-.014.035.06.044.053a.3.3 0 0 0-.044-.053m-6.798-1.707-.066.02c-.044-.003.151-.061.066-.02m6.115 1.09c.067.041-.114-.11-.066-.055zm-.261-.2c.015.011.079.065.083.062.006-.005-.068-.067-.083-.062m-7.24-.199c.017.01-.082.06-.112.084-.017-.01.082-.061.112-.084m.606-.336c-.4.231-.33.148.021-.02.006.01.005.006-.02.02m-.515.292c.008-.018.054-.043.085-.061-.001.01-.065.046-.085.061m8.664 1.831c-.028-.016-.088-.13-.07-.116.004.004.082.12.07.116m-7.401-2.45c.016.013-.117.054-.128.055-.045 0 .119-.048.128-.055m-1.876 1.066c-.01.026-.069.065-.103.094.008-.022.073-.07.103-.094m.263-.19-.056.04c-.049.02.096-.082.056-.04m10.115 4.65-.005-.051c.008-.044.02.099.005.051M18.4 20.15c-.013-.005-.058-.035-.078-.046.03 0 .122.064.078.046m-2.686-1.31.041.068c-.026-.07-.065-.161-.084-.228-.003-.01.018.013.01-.012-.009-.025-.023-.015-.037-.051-.017-.04-.065-.233-.082-.3a4 4 0 0 1-.145-.76c.043.264.023-.004.012-.077 0-.016-.037-.011-.04-.278.001-.115.024-.08.03-.134.003-.026.002-.07-.002-.16-.035.215-.032.002-.02-.169 0-.029.026-.265.042-.369.004-.035-.003-.092.005-.14.006-.032.019-.055.028-.102q.062-.334.18-.655c-.005.139.051-.092.058-.101.029-.047-.052.183-.013.095q.067-.191.15-.376c-.051.1.03-.148.065-.183-.049-.004.332-.52.388-.598.01-.017-.085.076.107-.163.021-.025.022-.009.032-.023.006-.008.019-.08.077-.119.023-.013-.066.117.157-.145-.124.073.322-.357.422-.414l-.061.033c.094-.063.102-.084.122-.1.082-.061.202-.135.28-.19.09-.062.079-.082.194-.143l-.086.037q.114-.072.233-.136c-.166.129.04-.022.055-.03.022-.013-.006.016.033-.006.004-.003-.008-.01.053-.043.127-.067.113-.043.168-.069.005-.002-.018-.004.076-.049.303-.135.002.007-.009.014-.014.01.104-.002-.154.105.087-.037.103-.023.113-.027.008-.005.155-.072.163-.075.071-.037.002-.022.015-.03.011-.007.2-.062.23-.112.1.004-.04.046-.184.109-.019.015.144-.04.152-.042.21-.072.085-.06.125-.093.021-.018.114-.025.026-.026.194-.06.08-.01.094-.012.02-.003.086-.029.095-.03.013-.002-.029.018.022.008.008-.002.085-.037-.02-.018.138-.033.124-.042.177-.027.086-.07.076.014.114.01.102-.013.066-.046.07-.049.035-.021.32-.048.389-.057-.024.03-.224.025-.267.038-.143.04.207-.014.106.036l.13-.044c.083.015-.032.033.186.01.035-.023-.154.014-.117-.005.021-.011.15-.021.151-.026.003-.006-.113.008-.095-.002.04-.026.461-.017.14.002.078-.004.124.025.185.025q.015 0 .029-.003c.019-.002-.009-.012-.029-.022-.017-.008-.029-.018 0-.024a1 1 0 0 1 .221 0c.009.018-.17 0-.174.002-.007.002.025.043.03.046.02.002.45.008.538.046-.032-.03.322.048.36.053.011 0-.024-.022-.013-.021.072.005.25.077.333.104.093.03.085.014.09.016.041.014.006.011.03.02.04.01.296.109.308.114.004.001-.032-.03.025-.009.01.005-.003.015.162.082.197.084-.126-.082-.038-.06.115.08.12.057.154.075.011.007.087.07.179.119a5 5 0 0 0-.204-.096c.065.036.193.1.243.134.024.016-.005.02.05.051.011.007.08-.003-.075-.07-.004-.02.06.028.095.043.005.002.038-.008.07.03.007.01-.135.004.16.134.01.004-.015-.024-.005-.02.006.003.071.053.08.057.008.004-.019-.027-.009-.022.053.024.088.1-.004.03l.085.08c-.015-.05.054.03.096.062.27.211.105.052.157.081.083.05-.005.04.11.123.01.009-.098-.126.135.113l-.109-.1c.002.04.13.12.138.129.095.09.027.033.17.166.013.012.032.045.06.07.112.107-.128-.158-.128-.172.003-.01.257.282.26.296.027.051-.115-.131-.099-.087.012.01.352.44.398.542.061.112.054.181.093.16-.02.052.021.065.029.08.089.173.088.174.163.324.016.033.016.067.023.078.005.007.012-.012.03.02.03.045.125.343.122.367 0 .025-.046-.122-.05-.092.037.105.072.206.101.314.012.046-.003.025.002.044.003.008.05.162.05.155.01-.018-.136-.495-.084-.373.011.023.017.114.037.093.122.43.181.875.178 1.318-.02-.253-.028-.54-.078-.803-.006-.037-.028-.158-.038-.14.045.221.088.5.09.718 0 .007-.013-.018-.013.008 0 .048.022.205.017.232-.001.005-.018-.085-.027-.057a.1.1 0 0 0 .007.078c.01.02.024.04.023.07.001.048-.043.358-.037.437.01.085.032-.229.043-.205.001.214-.043.429-.081.626 0 .004.017-.024.01.02-.014.078-.035.095-.046.132-.011.039-.046.18-.057.198a.1.1 0 0 1-.009-.035c.01-.063.036-.08.038-.085.006-.02.003-.043.008-.062.008-.032.02-.048.03-.09.006-.028-.014-.003-.007-.031.002-.01.056-.115.025-.131.01 0-.25.882-.3.962q.051-.108.096-.217c-.062.148-.116.335-.158.331a4.6 4.6 0 0 1-1.028 1.435c-.08.07-.053.013-.178.133q.06-.035.117-.071c-.067.06-.381.298-.433.336-.006.005-.002.031-.082.089-.072.05-.094.043-.135.066-.035.018-.07.045-.081.05-.008.004-.017-.003-.036.006-.061.03.001.028-.074.032l.04-.028c-.073.037-.178.076-.077.012.017-.011.007.006.02-.001.512-.316.098-.074-.08.038-.054.015-.323.153-.335.152-.015.002.028-.03-.038-.012-.012.007-.387.154-.258.086.027-.013.208-.079.25-.099-.111.016-.335.144-.365.15-.112.032.203-.095-.046-.018-.192.055-.006.022-.078.052-.04.02-.266.051-.254.078-.076.02-.035-.005-.044-.004-.01.001-.159.04-.21.04-.006.001.01-.018.004-.018-.012 0-.157.025-.163.026-.004.002.033.01.019.016-.017.007-.16.019-.167.023-.01.008.165-.015.138.003q-.136.012-.267.043c.014-.004.093-.01.12-.011-.01.024-.182.035-.125.013-.036.012-.01.016-.031.026-.005.003-.058.005-.068.01-.002 0 .053.007.043.012-.02.01-.181.012-.195.009-.037-.006.095-.015.105-.025.002-.001-.11-.018-.111-.02-.007-.018.117-.007.102-.023l-.091-.009c.117-.015.332-.02.386-.044-.171.022-.352.023-.352-.019 0-.017.073-.029.07-.033-.011-.016-.112.003-.116.002L20 21.488c0-.009.145-.018.151-.023.012-.008-.052-.037-.052-.044.002-.001.103-.012.068-.023s-.123-.009-.126-.01c-.017-.007.137-.017.141-.022.002-.002-.08-.013-.083-.017-.002-.003.06-.014.084-.027.018-.01-.035-.014-.026-.016.006 0 .15-.009.156-.012.01-.003-.024-.01-.02-.014.007-.004.053-.004.047-.008-.005-.001-.184-.028-.183-.038.002-.017.189.012.013-.046l-.044.006c-.025-.012.107-.034-.056-.027.3-.032.037-.026.08-.056.017-.01.132-.022.132-.024-.012-.013-.048 0-.06-.006-.007-.003.094-.025.07-.033-.012-.003-.12.005-.125.003-.042-.007.01-.019 0-.025-.007-.004-.071-.002-.073-.003s.084-.021.102-.029c.013-.005-.039-.01-.029-.012.057-.015.182.007.06-.029-.007-.002-.051.002-.052.001-.028-.01.053-.016.067-.027.024-.02-.092-.003.004-.02-.073-.008-.113-.005-.198 0 .235-.016.312-.069.056-.055.082-.002.07-.028.095-.03.015 0 .135.017.077-.036-.008-.007-.078.007-.056-.009.17-.008.003-.01.002-.011 0-.029.412-.049.48-.073.08-.02.144-.064.16-.069.057-.014.014.011.028.013s.167-.07.174-.071c.033-.005.006.02.01.02.042 0 .248-.09.306-.112-.006-.008-.122.038-.056-.007.076-.052.099-.014.102-.012.383-.17.737-.409 1.04-.7-.02-.013-.212.183-.22.182-.037.013.305-.296.344-.337l-.1.082c.032-.07.168-.164.226-.255.02-.029-.031.015-.03.013.016-.036.06-.078.043-.033.048-.082.051-.062.096-.118.002-.003-.025.015.005-.034.015-.022.096-.138.097-.16.001-.008-.075.026-.049.055-.103.114-.014.05-.05.098-.006.007-.008-.021-.093.103-.011-.046.114-.166.127-.194.027-.054-.134.137-.141.19-.01-.036-.014.011-.051.053-.04.046-.03.02-.051.045-.06.068-.02.054-.084.096.093-.014-.082.1-.135.127a4 4 0 0 0 .189-.211l-.018.006.05-.055v.015c.067-.11.102-.122.109-.13q.134-.166.243-.35c.01-.018-.012-.014.074-.137.026-.04.018.007.042-.042-.005-.078.023-.062.032-.08.025-.052.03-.088.033-.093.028-.065.07-.16.096-.233 0-.002-.025.032-.004-.014.008-.016.113-.15.133-.29l-.04.101c.02-.038.08-.333.048-.265-.018.041-.013.156-.049.159.048-.09.123-.635.124-.678.002-.005.01.032.012.024.002-.006.008-.133.012-.15.003-.01.007.047.01.043.005-.004.015-.162 0-.172.006.04-.003.148-.012.09-.001-.007.009-.044.007-.053-.014-.083-.017.163-.023.202-.002-.08.004-.182.006-.287.001-.1-.001-.2-.014-.288.006-.073.025.107.028.024.005-.172-.018-.044-.02-.05-.014-.04.028-.191-.018-.185-.002-.062.008-.043-.013-.128l-.003.035a.6.6 0 0 1-.013-.29c.023.037.025.147.027.156.003.013.058.042.04.196.04.057-.019-.238.025-.107-.013-.09-.087-.465-.121-.512-.004-.006-.024.032-.039-.061-.007-.045.028.057.028.035.023-.075-.36-.846-.478-.963-.006-.008.004-.01-.002-.02-.019-.025-.1-.11-.132-.157.06.103-.083-.075-.121-.118-.056-.068-.04-.075-.064-.105-.09-.12-.286-.243-.351-.343-.018.032-.144-.137-.223-.19-.06-.042-.163-.077-.089-.012a3 3 0 0 0-.326-.18c-.017-.01.011-.007-.019-.021-.002-.001-.01.006-.037-.005-.215-.091-.103-.063-.14-.087l-.05-.028c.128.05.272.118.309.138-.02-.04-.276-.13-.347-.163-.002-.001.012-.01.01-.01-.028-.014-.206-.073-.175-.045.008.007.09.035.185.072-.027-.007-.013.014-.018.013-.057-.016-.187-.078-.236-.095-.011-.004-.013.005-.015.004-.044-.016-.018-.036-.071-.023-.072-.056.152.042.143.017-.005-.03-.535-.153-.54-.117q0-.005-.022-.014a1 1 0 0 0-.208-.03c-.005.001-.006.027-.01.027-.014-.002-.196-.036-.265-.021l.11.015c-.222-.01-.188.003-.114.01l.011.002c.057.007.13.017.13.02.002.004-.133 0-.226-.003-.06-.002-.1-.006-.072-.016.004-.002.04 0 .072 0 .04 0 .075 0 .026-.01L20 13.434c-.038 0-.103.004-.107.002-.023-.006.047-.017.107-.026.044-.007.082-.013.07-.021a.3.3 0 0 1-.07.01q-.07 0-.137.004c-.03.003-.037.016-.041.017-.057.006-.026-.009-.045-.007-.01 0-.12.038-.103-.003-.367.075-.1.033.127.018-.071.017-.211.024-.273.036-.023.005-.008.016-.045.024q-.271.044-.538.112c.056-.023.035-.031-.01-.016-.043.015 0 .021-.008.026-.01.003-.217.069-.249.086.15-.066.11-.067-.02-.016l.052-.034c-.075.034-.241.086-.28.114-.007.005.022.004.019.006-.036.022-.166.079-.17.086-.003.006.055-.015.037 0-.003.003-.062.018-.11.05-.017.013 0 .016-.004.02-.036.027-.023-.004-.09.043-.05.034-.077.074-.147.117.236-.134.041-.016-.044.058-.014.012.01.018-.08.076.158-.17-.066.024-.11.065-.003.002-.013-.008-.035.012-.002.001.006.006-.014.025-.188.181-.072.06-.115.088-.018.012-.1.111-.122.137-.006.006-.01-.004-.03.02-.037.04-.061.083-.084.11-.003.003-.015-.007-.054.049-.011.016-.02.036 0 .017.067-.06.162-.203.244-.264.074-.057-.128.151-.135.165-.004.004.028-.044-.011-.002-.034.036-.072.122-.121.175a.4.4 0 0 1-.056.034c0-.002.052-.076.039-.07-.002 0-.037.046-.045.05-.01.003-.071-.011-.08-.002-.022.024.001.015-.012.03-.028.035-.129.154-.114.169l.045-.062c-.077.12-.036.074-.044.092-.008.02-.02.006-.046.046q-.055.088-.094.183c.043-.102.042-.055.045-.06.01-.016.012-.043.026-.065.096-.154.017.012.043-.022.009-.012.016-.042.02-.047.012-.016.023-.01.03-.021.015-.028-.021-.008-.02-.01.004-.03.078-.114.057-.046.03-.03.011-.048.038-.069.054-.042-.006.035-.018.059-.042.084-.066.102-.13.219-.024.042-.04.098-.05.118-.006.011-.104.111-.045.144-.028.042-.101.098-.12.148-.016.045.011.04.01.044 0 .007-.024.06-.027.079-.005.022.008.015-.001.05-.022.087-.043.077-.048.085-.05.096-.003.062-.008.085-.007.02-.098.316-.098.382q0-.04.002-.08c-.025.043-.01.097-.037.093.04.018-.005.108-.008.138-.001.012.006.012.005.026-.008.056-.028.183-.026.213.004.133.062-.2.071-.225-.011.052-.028.35.005.216.005-.02-.01-.06-.01-.072.004-.08.014-.015.017-.022.003-.01-.007-.065-.003-.078.002-.005.013.027.024-.048.008.038-.028.25-.025.279.001.01.036-.05-.005.13l.01-.005q-.004.153.003.306c-.007-.01-.023-.068-.017.005.003.04.017.01.018.013-.008.04.08.691.134.81.011.041.06.152.064.16.017.052.08.236.098.27.01.022.013-.004.021.016.008.019-.012.005-.01.01.011.05.2.375.241.454a3 3 0 0 0-.185-.265.3.3 0 0 0 .032.075c.002.025.068.077.084.116.002.005-.024-.002.013.065.013.023.06.073.086.139.054.084.377.5.423.506.002 0-.045-.057-.005-.027.055.039-.013.023.04.08.007.009.169.151.177.153.062.026-.074-.102-.07-.103.009 0 .128.099.133.103.003.006-.112-.054.012.035l-.034-.041c.059.04.053.059.066.07.04.037.103.05.153.128.014.02-.024.007-.022.01.015.026.063.018.084.062.002.003-.088-.037.054.056l-.025-.025c.022.01.17.095.191.106.057.036-.003.023.058.054-.028-.04.157.05.138.062.037-.01.188.078.266.107.048.02.152.042.167.048.019.008.008.023.041.037.01.004.117.023.205.062.017.008.049.045.013.045-.06 0-.163-.053-.166-.036-.004.019.146.047.186.057.183.05.072.047.076.054.009.017.113.035.117.037.017.009-.059.008-.062.016-.003.012.095.05.071.05-.034 0-.124-.034-.13-.035-.078-.004.021.044.049.062.008.005-.029.006-.022.008.11.038.03-.033.105-.017.066.013-.023.018-.02.02.003.001.083.014.095.021.006.006-.21.006-.204.022q.102.013.204.022c.003.02-.093-.008-.103-.008-.02.001.034.02.03.026 0 .004-.07.008-.01.023.02.005.065-.002.14.021-.268-.016-.086.02-.079.028s-.123.007.033.025c.002.04-.005.012-.05.013-.056 0 .068.033-.13-.008.009.02.17.043.178.044.008.003-.03.007-.017.012.149.053.046.025.088.052.003.003.148.024.037.018-.204-.014-.283-.058-.327-.008.147.051.336.033.38.035.071.005-.003.01.006.015l.065.005c.04.047-.272-.02-.37-.031l.076.03-.108-.015c.17.038.006.006-.043.032-.01.006.105.012-.028.011.095.022.063.024.151.027-.003.014-.203-.002-.28-.012.27.067.122-.01.355.05.046-.012-.068-.022-.058-.024.034-.006.111.02.207-.007.016-.005-.047-.028.048-.02.01.001.07.02.07.021-.01.012-.07.004-.072.008-.003.005.065.006.065.008.001.015-.057.002-.049.007.018.012.26.058-.058.029.266 0 .034-.012-.068-.016-.026-.001-.034.007-.072.006-.048-.002-.104-.014-.129-.016-.027-.002.122.043-.097.002.109.04.31.042.42.063.224.044-.16.027-.2.021-.01 0 .024.016.017.016-.013.001-.229-.035-.252-.03s.08.013.085.024c.004.01-.261-.026-.12.005.098.022.283.017.31.05a4 4 0 0 1-.436-.061q.114.04.233.077c-.166-.022-.303-.064-.46-.089.36.128-.129 0-.134-.002-.003.002.134.072.157.083-.135-.017-.526-.148-.31-.034a.6.6 0 0 0-.145-.037c.006.022.232.086.191.088-.048.003-.1-.039-.164-.06-.329-.117-.276 0-.59-.171l.014.018a4.6 4.6 0 0 1-.945-.67c-.132-.079-.427-.36-.546-.52a3 3 0 0 1-.14-.21c-.012-.024.079.096.045.036-.01-.01-.19-.287-.188-.26.018.032.09.124.097.142.04.134-.463-.758-.467-.813l.014.068zm2.496 1.248c.033.003.09.05.129.067.054.024.169.02.105.05a3 3 0 0 1-.234-.117m-.92-.871c.03.051-.023.035-.042-.012-.002-.005.003-.058.042.012m.401.464-.04-.039c-.023-.04.085.066.04.039m-1.148-2.655c.001.065.03.018.019-.023 0-.002-.019.018-.019.023m0 .046c-.027.052.029.152.021.072zm.869 2.315c-.013.002-.048-.048-.062-.07.007-.005.044.052.061.07m-.72-1.34a.8.8 0 0 0 .07.21c-.017-.029-.063-.21-.07-.21m-.117-.527c0 .005.011.077.018.074.003-.036-.015-.099-.018-.074m.026-1.075c0-.004-.054.042-.002-.08.008-.019.006.05.009.044l.01-.033a1 1 0 0 1-.019.127c-.017.027.002-.056.002-.058m.109-.557a.4.4 0 0 1 .037-.104c.002-.003.014.016.026-.018.01-.027-.024.006 0-.045.023-.052.008.024.01.02.004-.006.029-.09.038-.084.007.005-.034.09-.04.112-.008.029.017 0-.003.045-.012.029-.03.004-.033.01-.003.005-.025.112-.035.064m-.089.472-.003.016zm1.442 3.643c-.02-.023.059.02.082.047-.004.007-.079-.043-.082-.047m-1.45-3.702c.026-.086.018-.02.008.059 0-.026-.016-.03-.008-.059m.356 2.474a.01.01 0 0 1 .006-.01q0 .015-.006.01m-.086-.19c-.043-.06.02.072.029.067a.4.4 0 0 0-.029-.067m-.337-1.644c-.002.007-.041-.097-.014.053.007-.08.01.004.014.003.01-.003.004-.136.011-.165-.017-.024-.007.088-.011.109m.638-1.959c-.001.021-.037.066-.059.098 0-.021.036-.067.059-.098m6.075 3.313c.074-.253.126-.274.035-.048-.002.005-.036.065-.035.048m.081-2.24c.012-.03.038.05.044.105.001.012-.008.06-.024.012.024-.004.013-.085-.02-.117m-6.73.193c-.007-.029.022-.105.035-.146a.6.6 0 0 1-.034.146m6.864 1.204c.004-.028-.011-.049-.013-.044-.009.02 0 .075.013.044m-6.915-.948c-.008.002.002-.105.023-.109-.006.022-.017.107-.023.109m.578-1.465c-.013.011.03-.064.048-.083.006.007-.04.075-.048.083m6.35 1.96a.3.3 0 0 0-.008-.095c-.009-.008-.002.083.008.095m-2.542 3.524a.4.4 0 0 1 .125-.059c.08-.015-.12.061-.125.059m2.5-2.805c-.03.075.002-.009-.016-.009-.01.053-.038.183-.003.096.007-.017.013-.063.019-.087m.019-.072c-.004-.01-.013-.068-.019-.02-.003.023.009.063.019.02m-1.961 2.657c.072-.016-.227.112-.238.11h-.01c-.01.009-.067.031-.078.022.018-.005.064-.024.07-.025h.006c.017-.016.237-.102.25-.107m.472-.26c-.055.066-.088.04-.083.036.064-.062.032-.007.035-.007.007-.001.051-.048.047-.028m-.37.215-.067.033c-.055.014.117-.071.067-.033M16.85 15.48c.024-.042.016.007-.002.035-.002.002-.02.003.002-.035m6.618 2.128c.007-.01.047-.3.021-.284.005.025-.046.351-.021.284m-.314-2.123c.022.047-.02.005-.026-.023-.002-.01.02.011.026.023m-6.63 1.162c.005.054-.03.04-.013-.006 0-.001.013.004.013.006m6.775-.78c-.072-.16.006-.146.059.082l-.015-.019c.068.258.003.019-.023-.042-.009-.023-.012 0-.02-.02m-.27-.621c-.047-.17.093.126.136.21-.057-.074-.11-.178-.053-.028-.111-.205-.052-.127-.054-.136-.004-.01-.027-.039-.029-.046m.2.402c.005.01.025.081.035.105-.027-.029-.069-.161-.035-.105m-.825 4.029c.005.013 0 .03-.046.067.01-.017.033-.046.046-.067m-4.179.495c.034.022.102.065.087.042a.4.4 0 0 0-.087-.042m5.28-3.41c.002-.009-.023-.23-.028-.152 0 .023.02.224.027.152m-.086 1.146q.01-.046.016-.094c-.009-.007-.023.084-.016.094m-5.023 2.374q.05.03.106.046c-.019-.02-.12-.058-.106-.046m-1.49-4.974c.005-.01.023-.015.025-.018.003-.008.095-.173.073-.102-.006.01-.142.245-.157.277-.023.005.045-.092.057-.117.002-.005-.01-.015.002-.04m5.28 4.58c.002.016-.171.156-.178.142q.09-.068.178-.142m.087-.07c.04-.025-.041.05-.069.067a.4.4 0 0 1 .069-.067m1.26-2.32c0-.023-.024.044-.026.029 0-.01.012-.06.008-.076a.2.2 0 0 0-.024.059c-.001.02.014.002.01.025-.008.075-.028.14-.04.21-.001.007.016-.04.006.014-.001.008-.023.055-.036.12.007.15-.06.244-.105.422q.033-.069.061-.141.097-.282.135-.578c.006-.042-.005-.023-.003-.04.001-.015.014.004.014-.044m-5.329 2.67c.008.024.071.05.108.072-.006-.02-.074-.047-.108-.072m4.733-1.091c.011-.018.051-.073.05-.08-.002-.01-.057.07-.05.08m-5.385-4.617.041-.038c.043-.023-.072.083-.041.038m1.025-.7c.035-.017.07-.037.087-.03-.024.007-.088.04-.087.03m1.67-.297c-.007-.018.11.002.133.007-.01.006-.128.005-.133-.007m2.203 6.247c-.054.05-.026.058-.068.081-.007.004-.06-.019.012-.059.013-.007-.02.041.056-.022m.92-3.724c.017.014.03.07.04.109-.01-.007-.03-.083-.04-.11m-4.777 4.406c.024.029.175.077.143.053-.005-.003-.123-.043-.143-.053m-1.982-4.332c.006-.066-.035.063-.033.107.004-.019.033-.103.033-.107m3.223-2.611.075-.002c.056.011-.137.015-.075.002m-1.63.484a.7.7 0 0 1 .2-.102c-.025.027-.22.128-.2.102m4.447 5.553a1 1 0 0 1-.105.106.6.6 0 0 1 .105-.106m.62-.986c.02-.04.002-.037 0-.035-.016.029-.022.08 0 .035m-5.036 1.715c.006.02.075.047.11.07-.005-.015-.08-.054-.11-.07m4.726-5.14c-.017-.055.118.126.131.173a2 2 0 0 1-.131-.173m-6.42 1.176c-.012.001-.019.097-.01.078.006-.012.017-.08.01-.078m6.6-.9c.012.017.025.065.011.053-.017-.016-.015-.058-.011-.053m.428 1.827c.002-.01-.008-.135-.02-.083-.008.035.008.041.008.05s-.028.207.012.033M22.12 14.15c.04.025.08.064.119.095a.5.5 0 0 1-.119-.095m-5.488 1.747c-.01.009-.098.306-.037.14.003-.01.06-.168.037-.14m6.342 3.167c-.003.019.045-.052.054-.076-.004-.011-.054.074-.054.076m-.726-4.825c.025.014.06.051.087.074a.3.3 0 0 1-.086-.074m-1.78-.796c.055.012.122.021.125.012q0 .003.009.006c.004.002.063.009.088.017.151.04-.596-.077-.158-.043zm-2.465.59c-.033.008-.097.072-.075.062.014-.008.108-.072.075-.063m1.103-.516a.4.4 0 0 0-.092.038c.05-.008.136-.04.092-.038m-1.308.651c-.017.011-.025.041-.023.04.02-.007.056-.053.023-.04m4.79 5.464a.4.4 0 0 0 .084-.121.1.1 0 0 0 .029-.02c.033-.006.478-.637.163-.226-.01.012.012 0-.03.053-.002.003-.01 0-.019.01-.018.024-.127.148-.144.177l-.008.002c-.035.022-.093.14-.075.125m-3.314-6.156c-.018 0-.072.016-.076.025.028-.003.118-.026.076-.025m-2.676 2.42c-.018.033-.033.123-.019.099.008-.015.038-.136.019-.099m2.144-2.26c.195-.061.046-.017.071-.038zm3.09 6.572c.03-.015.009.024-.029.033-.011.002.012-.025.029-.033m-1.373.495c.03.016-.107.02-.055.001zm.99-.274c.014-.021.026-.028.084-.052-.082.043 0 .017-.085.052m-3.796-6.134c-.027.008-.08.058-.056.052a.2.2 0 0 0 .056-.052m5.02 5.216q-.006 0-.002-.006.003 0 .002.006m-4.724-5.464a.5.5 0 0 0 .098-.055c.044-.047-.062.027-.098.055m-1.521 2.557c0 .006.026-.028.02-.051-.003-.018-.021.03-.02.051m4.825 3.912c-.032.012-.078.029-.09.022.022-.006.088-.03.09-.022m-.74.194a1 1 0 0 1 .19-.044c.004.016-.153.035-.19.044m2.004-1.014c.003-.001.067-.06.051-.06-.023.002-.073.073-.051.06m-6.052-3.259c-.001-.04-.039.046-.027.09.006.022.026-.083.027-.09m1.014-1.998c-.032.04.066-.041.071-.061-.018.015-.06.046-.071.061m1.48-.91c-.165.018-.062.048-.036.034a.3.3 0 0 0 .036-.034m-.02 7.062c.024.002-.053-.04-.066-.033-.01.005.052.031.067.033m-1.804-5.826c.107-.063.073-.075.08-.083.013-.016.055-.047.08-.079l-.078.117c.024-.029.25-.254.25-.261 0-.015-.067.06-.07.061-.004.003-.036-.006-.043 0-.014.009-.189.213-.219.245m1.507-1.116c.025-.007.036.001.046-.006.004-.002 0-.013.012-.02zm-1.595 1.307c-.03.02.058-.098.063-.1.022-.015-.039.084-.063.1m.853-.885a.5.5 0 0 0-.091.072c.026-.014.148-.101.091-.072m.816-.456c.037-.013.11-.028.096-.04zM16.456 16.3c-.041.066-.001.039.02-.023-.007-.021-.014.012-.02.023m-.06.228c-.01.02-.027.23-.009.2.006-.01.006-.133.008-.139.003-.008.014.032.019-.032-.006.003-.016-.036-.018-.029m.031-.172c-.033.068.001.091.01.037.005-.02-.005-.047-.01-.037m.07-.29a.4.4 0 0 0-.032.14q.024-.093.052-.186c-.005-.009-.01.024-.02.046m3.59 4.777c.059.01-.077.017-.083.014-.017-.01.056-.017.083-.014m-.773.192c.016.007.025.023.064.022l-.108-.051c-.034.018.026.02.044.029m.133.108c-.005 0 .02.04-.048.006-.046-.022.218-.003.264.015-.053.003-.168-.019-.216-.021m.458.196a1 1 0 0 1-.113.001c-.063-.014.096-.017.113-.001m-.331-.027c.048.012-.061.006-.093-.003a.4.4 0 0 1 .093.003m1.201-.011c.058.014.094-.048.016-.021-.004.001-.018.02-.016.02m-.973.072c-.049-.01.06-.008.092-.004.003.007-.085.006-.092.004m1.022-.022c.074.004.036-.05.027-.05-.037-.002-.156.044-.181.053.185-.04.119-.005.154-.003m.313-.112c.062-.024-.104.01-.131.033.031-.008.114-.026.131-.033m.387-.11a.6.6 0 0 0 .147-.063c-.035.017-.136.049-.147.063m.086-.004c.057-.01.055-.05 0-.014-.003.001-.002.014 0 .014m.293-.12c.04-.003.061-.055.008-.028-.016.007-.012.028-.008.028m-.978.39c.054-.005.115-.046.003-.023l.114-.04c-.148.022-.13.053-.172.06-.06.01-.06-.02-.05-.03-.044.027-.249.062-.369.077.107-.003.278-.016.382-.032.03-.005.056-.018.081-.023.04-.007.008.012.01.012m1.342-.595c.1-.045.023-.038-.026 0-.002.002.023.001.026 0m-2.326.688c-.147-.02-.038-.03-.346-.024.13-.01.009-.014.034-.021.02-.005.095.006.053-.01.056.02.304.023.316.024.006.002-.01.036-.057.03m1.618-.271c.05.027.038-.043.118-.037.069-.085-.247.1-.304.069.369-.126-.258.042.021.016-.222.048-.068.031-.098.05-.033.021-.16.047-.149.06q.112-.031.225-.072c-.084-.009.071-.05.132-.042zm-.43.108q.08-.022.156-.058c-.022.004-.252.074-.156.058m-.728.141c.06-.005.155-.01.186-.028-.06.009-.155.012-.186.028m2.742-1.355c.045-.063-.12.107-.064.066zm-1.422 1.032c.078-.02.026-.043-.023-.01-.003.002.02.01.023.01m-1.898.347a2 2 0 0 1-.256-.015c.022-.006.263.004.256.015m.474.024c.125.03.286-.035.303-.037s-.007.019-.003.019c.01 0 .2-.032.208-.036.007-.002-.032-.018.006-.033-.073.031-.423.068-.44.069-.014.003.094.019-.074.018m.349-.038c-.049-.003.084-.024.116-.027.073-.005-.11.028-.116.027m.32-.052a.6.6 0 0 0 .16-.047c-.067.004-.195.05-.16.047m1.414-.609c.03-.02.116-.07.115-.081-.029.022-.115.07-.115.081m-3.294.664c.058.02-.081-.006-.12-.02q.06.006.12.02m2.684-.26c.023 0 .414-.207.462-.248-.053.03-.442.228-.461.234-.005.004-.004.016-.002.015m-.91.294c-.037.022-.067.01-.072.01-.05.008-.152.027-.131.01.088-.006.276-.063.203-.02m1.58-.663c.122-.088-.125.06-.086.05.003 0 .073-.04.086-.05m-.713.393c-.024.029-.445.172-.515.186.055-.038.109-.037.19-.066.021-.007.013-.014.015-.014.038-.014.013.005.036-.003.016-.002.311-.134.274-.103m-.887.284c-.023.015-.297.06-.309.058-.084-.003.288-.052.309-.058m.931-.283c-.033.043-.245.11-.11.042.014-.006.074-.02.11-.042m.67-.366q.072-.043.136-.097c-.019.012-.21.138-.136.097m-.054.066c.003-.002-.036.006.027-.033.005-.003.024.005.098-.052a.1.1 0 0 0 .03-.037c-.092.036-.313.231-.155.122m-1.55.597c.016.004-.015.032-.05.027-.014-.002.01-.019.05-.027m2.007-.957c-.062.07.159-.116.166-.13q-.087.06-.166.13m-3.919.957c-.075-.022-.025-.02-.029-.021-.156-.058-.12-.024-.145-.029-.055-.01-.038-.034-.131-.052.153.03.016-.005.015-.016-.004-.044.19.08.268.089.011.002-.062-.032-.034-.028.087.012.345.135.056.057m1.838.033c-.034.021-.305.044-.235.025.012 0 .284-.05.235-.025m.013-9.024c.067 0-.082-.039-.111-.034-.015.002.082.033.111.034m-1.067-.104c-.079.007-.157.059-.06.044.01-.002.07-.039.06-.044m4.257 2.396c-.026-.079-.05-.06-.02-.008.01.018.02.01.02.008m-2.273-2.046a.4.4 0 0 0-.096-.03c.032.016.142.057.096.03m2.289 2.067c-.028-.04-.007.043.038.086-.015-.026-.035-.082-.038-.086m-2.03 6.37c.03-.029.135-.078.191-.112.015.011-.15.09-.192.111m-1.908-8.779c-.075.01.084.021.07.007zm4.48 4.925c-.006-.054-.03.114-.01.069zm-.112.735c.013-.039.045-.21.023-.145a1 1 0 0 0-.023.145M18.742 21.5c.017.022-.105-.019-.122-.028-.006-.003.1 0 .122.028m4.946-7.11c-.026-.034-.088-.125-.106-.135.033.04.1.155.106.135m-3.307-1.92c-.063-.024-.175-.028-.148-.004.122.006-.014-.023.148.003m3.738 2.628c-.013-.032-.044-.046-.043-.042.007.038.05.076.043.042m-1.651-1.902c.003-.009-.091-.064-.082-.051.003.004.079.059.082.051m.649 7.225c.042-.029-.062.083-.103.106-.026.004.098-.102.103-.106m1.303-4.432c.016.002-.034-.161-.028-.093a.4.4 0 0 0 .028.094m.111 1.619c0-.115-.078.357-.04.236.004-.009.042-.226.04-.236m-.163.766c.007-.018.05.004.009.078-.005.01-.003-.042-.008-.035l-.065.18c-.002.009.016.004.015.013-.002.01-.05.11-.072.163-.04.1-.034.115-.037.124-.01.024-.035.06-.056.108-.105.242-.302.599-.447.753q.164-.221.284-.468c-.001.06.106-.25.047-.067.05-.075.321-.783.33-.849m-4.972-5.912c.047-.023-.2.018-.218.042.033-.005.213-.04.218-.042m1.153-.046c.023 0 .05-.029.169.006.035.01-.007.01 0 .015.002 0 .11.035.017.022-.14-.018-.009-.025-.084-.037a1 1 0 0 0-.145.002c.001 0 .044.002.051.005.026.009.012.017.015.018.012.001.238.019.267.04.01.004-.356-.04-.37-.04-.01-.003-.003-.03-.012-.033-.004-.002-.153-.004-.172-.007l-.013-.003c.022.009-.112.002-.108-.007q.049 0 .098.003l.004.002c-.018-.014.295.014.229-.006.092.002-.015.02.054.02m.436.058-.03.002c.159.027.334.088.508.147.044.016 0-.018.055.006.046.02.09.055.064.049-.006-.002-.096-.046-.144-.06-.141-.043-.11-.017-.119-.02s-.095-.038-.144-.05c-.123-.031-.182-.037-.35-.081.1.009.05-.023.16.007m3.588 4.221c.01.005.008.11.011.147-.01-.005-.007-.11-.011-.147m-8.996 1.66c.022.027-.034-.204-.03-.14 0 .014.021.112.03.14m-.161-1.057c-.006-.032-.01.098.002.096a1 1 0 0 0-.002-.096m7.412-3.928c.005.003.072.062.073.064.036.05-.185-.14-.073-.064m-7.317 2.632c-.016.11.067-.214.03-.118zm.124-.45c-.009.025-.05.137-.045.14a.4.4 0 0 0 .045-.14m8.547-.457c.01-.02.063.13.084.18-.01.018-.059-.132-.084-.18m-.492-.86c.384.541.277.435-.03-.026.008-.007.004-.007.03.027m.44.725c-.02-.016-.052-.085-.075-.13.012.004.057.098.075.13m-8.49 3.675c-.029-.034-.067-.216-.052-.186.003.007.063.198.051.186m7.24-5.242c0-.023.149.11.157.125.036.051-.141-.118-.157-.125m1.619 2.585c.021.03.036.13.048.194-.016-.027-.035-.141-.048-.194m-.117-.45.03.094c.01.074-.066-.169-.03-.094m-5.38 6.162-.071-.017c-.057-.027.143.022.072.017"/><path fill="#231f20" d="M14.122 31.124c-.044-.02-.215-.118-.29-.16.092.035.448.238.29.16m-6.884-5.873.101.209a13 13 0 0 1-.264-.67c-.011-.031.03.046.003-.029-.027-.074-.037-.054-.077-.162-.048-.12-.218-.686-.27-.883a13 13 0 0 1-.434-2.258c.106.785.018-.01-.003-.228-.002-.048-.05-.038-.073-.83-.004-.343.02-.238.026-.4.003-.076.002-.212.004-.48-.044.644-.04.01-.004-.497.002-.088.074-.792.124-1.099.016-.105.026-.27.051-.409.018-.096.04-.166.068-.308.135-.662.316-1.303.55-1.937-.095.384.122-.286.14-.313.067-.147-.187.535-.08.268q.207-.567.464-1.112c-.146.296.157-.41.24-.526-.085.024.954-1.565 1.145-1.782.037-.048-.225.248.345-.465.063-.076.048-.04.08-.08.019-.025.112-.192.258-.33.057-.047-.248.306.443-.452-.32.26.997-1.017 1.287-1.196l-.165.117c.265-.202.307-.246.366-.292.24-.184.585-.416.82-.573.275-.181.264-.202.598-.393l-.242.13q.34-.21.691-.398c-.524.325.116-.065.161-.085.07-.037-.025.025.09-.036.013-.007-.01-.009.17-.1.38-.19.326-.145.488-.22.015-.006-.042.006.239-.119.9-.376-.003.006-.035.026-.043.023.274-.082-.482.251.252-.115.286-.107.315-.12.024-.013.466-.204.49-.212.218-.094.02-.029.062-.048.033-.018.582-.205.7-.28.275-.053-.143.073-.575.246-.062.03.42-.141.445-.148.624-.208.27-.12.402-.182.069-.032.332-.09.087-.044.575-.17.23-.054.268-.063.056-.013.257-.075.283-.08.038-.008-.09.034.058 0 .025-.006.258-.081-.05-.011.41-.1.374-.102.52-.107.274-.11.212-.014.324-.033.299-.049.206-.07.221-.076.107-.037.943-.139 1.15-.156-.078.033-.664.072-.791.1-.427.08.61-.07.3.01q.196-.04.393-.074c.243.003-.1.035.552-.017.105-.028-.461.034-.349.011.066-.016.446-.041.453-.045.007-.008-.336.02-.282.008.118-.038 1.366-.047.416-.013.23-.008.364.02.547.018q.04 0 .086-.002c.056-.002-.026-.012-.086-.022-.05-.009-.085-.018 0-.024.081-.005.271-.01.654.01.027.017-.501-.012-.516-.008-.02.002.076.044.093.047.058-.006 1.337.051 1.603.125-.103-.046.956.145 1.07.174.03.005-.08-.034-.048-.028.208.031.748.191.997.268.28.083.247.063.263.067.123.04.022.017.097.04.115.03.88.313.917.332.011.004-.107-.059.06.005.027.013.005.014.49.222.58.257-.393-.202-.146-.108.363.19.36.164.459.213.034.018.282.161.554.308q-.295-.154-.598-.294c.196.097.573.288.728.381.076.045.004.024.17.118.034.021.197.06-.248-.167-.028-.032.176.091.273.143.015.008.085.018.198.104.025.025-.32-.116.507.349.026.015-.057-.05-.031-.036.018.01.217.148.24.162s-.068-.06-.04-.043c.145.086.3.245.02.046l.273.21c-.082-.096.152.1.278.196.805.627.281.189.425.29.228.168.03.067.357.33.028.027-.328-.335.393.345q-.16-.15-.325-.296c.045.077.39.356.413.381.28.271.09.089.5.496.036.037.106.125.183.205.317.33-.4-.454-.418-.477.002-.02.77.827.784.867.098.134-.34-.392-.268-.282.044.026 1.055 1.3 1.206 1.594.198.32.247.489.287.467.017.114.09.18.113.222.279.51.276.513.497.96.047.1.073.19.091.225.01.02.007-.025.056.075.076.136.395 1.008.403 1.078.016.067-.134-.368-.12-.285.114.311.217.616.308.937.038.134.01.068.026.126.008.024.135.487.132.467.016-.052-.423-1.473-.294-1.103.027.07.086.332.098.284.383 1.271.578 2.598.582 3.924-.023-.76-.084-1.618-.232-2.403-.019-.107-.092-.47-.096-.423.144.662.263 1.5.287 2.15.001.021-.015-.055-.012.024.007.145.037.618.03.699 0 .013-.019-.257-.027-.175a.8.8 0 0 0 .008.236c.01.062.023.121.022.211.005.141-.075 1.079-.093 1.313-.005.25.076-.69.08-.62-.026.637-.13 1.282-.25 1.872-.003.01.027-.078.002.055-.047.231-.078.287-.106.398-.03.119-.141.54-.165.594a1 1 0 0 1 .01-.095c.044-.184.08-.245.085-.261.017-.063.025-.126.04-.183.023-.095.043-.145.072-.27.02-.087-.013-.006.006-.09.009-.03.108-.355.08-.393.052.004-.725 2.656-.896 2.888q.146-.324.275-.655c-.174.449-.39.986-.444 1.006a13.7 13.7 0 0 1-3.137 4.282c-.238.21-.122.079-.514.423q.163-.12.323-.246c-.196.185-1.138.907-1.3 1.01-.021.014-.035.055-.282.22-.22.146-.266.152-.387.224-.102.059-.214.13-.245.147-.024.013-.038.009-.095.04-.18.095-.022.04-.216.109l.128-.075c-.218.117-.522.258-.206.081.054-.03.012.004.052-.018 1.563-.93.319-.181-.241.122-.148.07-.976.463-1.009.466-.04.012.099-.06-.094.01-.036.027-1.185.446-.777.28.085-.03.636-.232.765-.29-.316.103-1.036.4-1.123.42-.339.102.639-.231-.121.005-.587.168-.03.03-.254.103-.126.046-.804.185-.78.207-.233.053-.1.008-.129.013a10 10 0 0 1-.637.118c-.018.002.037-.022.017-.02l-.5.072c-.01.002.098.003.054.012-.05.012-.483.054-.506.059-.034.01.5-.05.413-.025-.248.026-.646.07-.81.09.04-.005.28-.022.363-.029-.037.029-.554.06-.378.032-.112.015-.035.016-.098.029-.016.003-.175.01-.205.015-.004.002.16.003.128.01a7 7 0 0 1-.584.017c-.112-.005.284-.016.316-.027.005-.001-.331-.015-.336-.018-.02-.017.354-.009.31-.025l-.276-.006c.356-.013 1.01-.044 1.176-.081-.523.055-1.072.059-1.072.017 0-.017.226-.032.217-.036-.033-.014-.346.007-.358.005q-.015 0-.014-.002c0-.008.447-.022.468-.029.037-.008-.161-.034-.161-.04.007-.002.322-.02.215-.028-.107-.007-.384-.003-.393-.004-.053-.005.43-.023.443-.03.007-.002-.251-.007-.259-.01-.006-.004.19-.018.266-.034.057-.011-.11-.011-.081-.014.02 0 .473-.025.495-.03.033-.004-.073-.008-.058-.011.022-.005.168-.013.148-.016-.014.002-.582-.003-.578-.015.006-.016.604-.008.046-.047-.004 0-.138.01-.142.009-.083-.01.348-.04-.18-.024.978-.054.122-.027.265-.06.055-.012.434-.038.435-.041-.037-.011-.157.007-.199.003-.022-.002.315-.04.238-.044-.04 0-.398.021-.412.02-.142-.004.03-.02 0-.025-.021-.003-.236.003-.242.002-.01 0 .282-.028.342-.038.046-.006-.127-.006-.095-.01.193-.019.61-.017.208-.035-.025 0-.175.008-.18.008-.092-.009.184-.023.233-.037.084-.022-.313.01.017-.02-.25.003-.385.01-.675.017.8-.03 1.078-.1.193-.057.282-.008.248-.034.332-.038.053-.002.462-.007.272-.05-.024-.004-.271.02-.194 0 .592-.037.012-.008.01-.011.009-.016 1.447-.15 1.688-.224.282-.06.526-.146.586-.161.199-.05.037.005.083-.002.047-.003.604-.187.631-.197.11-.028.005.021.016.019.14-.027.878-.301 1.08-.388-.01-.006-.42.155-.17.039.29-.137.323-.105.332-.106a12.8 12.8 0 0 0 3.685-2.404c-.024.001-.741.643-.766.648-.1.08 1.122-.99 1.247-1.149q-.163.16-.331.31c.167-.197.59-.584.821-.878.076-.095-.083.074-.081.07.081-.11.227-.27.133-.137.201-.263.182-.216.34-.415.008-.01-.068.069.051-.093a9 9 0 0 0 .378-.544c.013-.025-.168.159-.156.205-.335.43-.088.151-.216.32-.02.025.014-.042-.313.379.038-.1.434-.568.49-.659.12-.178-.425.527-.514.666.026-.078-.042.047-.173.197-.143.164-.088.087-.166.175-.217.238-.111.154-.308.334.223-.146-.31.334-.476.46q.368-.35.705-.728l-.046.036q.09-.097.18-.198l-.022.038c.288-.357.37-.435.394-.463.304-.374.627-.829.884-1.243.036-.064.001-.026.279-.48.087-.147.022.001.113-.17.078-.23.103-.212.136-.276.094-.183.138-.302.146-.319.108-.229.259-.57.358-.83.002-.005-.063.126.007-.042.025-.057.277-.575.395-1.062q-.058.185-.123.37c.063-.141.316-1.181.236-.931-.043.153-.114.54-.158.572.15-.33.467-2.27.45-2.426.003-.02.002.11.006.08.005-.021.035-.47.04-.531.005-.036 0 .164.005.148.006-.015.032-.575.016-.609.005.14-.016.526-.019.323 0-.026.013-.162.012-.194-.008-.295-.03.586-.05.722.014-.285.033-.646.035-1.023a10 10 0 0 0-.043-1.028c-.01-.26.045.382.033.089-.033-.608-.029-.16-.032-.18-.02-.147-.025-.668-.072-.661-.025-.219-.007-.15-.066-.456l.012.122q-.105-.501-.166-1.01c.05.139.113.518.118.55.01.047.09.167.13.698.068.21-.12-.831-.016-.361-.04-.323-.36-1.624-.452-1.798-.01-.02-.003.09-.096-.227-.045-.15.08.206.063.136.029-.249-1.317-2.95-1.739-3.36-.022-.03-.006-.025-.027-.054-.066-.091-.326-.406-.45-.562.248.332-.262-.291-.403-.44-.208-.231-.184-.227-.274-.327-.348-.387-.976-.89-1.272-1.164-.003.04-.542-.439-.819-.616-.213-.144-.543-.317-.258-.121-.372-.239-.781-.46-1.153-.642-.061-.03.028.002-.077-.049-.01-.004-.028-.001-.119-.043-.756-.336-.382-.187-.52-.256a4 4 0 0 0-.181-.081c.45.176.952.42 1.084.49-.099-.088-.97-.46-1.228-.556-.008-.004.027-.004.018-.008-.095-.043-.72-.255-.598-.195.034.015.322.11.657.242-.091-.033-.029.008-.045.002-.196-.072-.672-.254-.846-.308-.04-.012-.04-.002-.046-.004-.156-.05-.084-.057-.254-.077-.277-.117.537.154.484.12-.03-.063-1.888-.505-1.893-.445a1 1 0 0 0-.084-.024 7 7 0 0 0-.735-.097c-.016 0-.012.026-.031.024-.046-.007-.693-.075-.935-.06q.195.01.39.025c-.786-.032-.666-.009-.403 0l.039.002c.203.01.462.032.466.034.008.004-.478-.02-.808-.02-.213-.002-.357-.003-.256-.014.015-.002.143-.003.256-.003.145.001.266.002.093-.01H20c-.136-.001-.364.007-.38.006-.08-.005.17-.022.38-.03.157-.007.29-.011.244-.02a5 5 0 0 1-.244.008c-.157.002-.326.003-.482.011-.11.006-.135.02-.149.022-.203.014-.09-.006-.157-.002-.038.001-.433.062-.361.017-1.306.185-.36.042.445-.005-.256.026-.752.066-.975.101-.08.012-.03.018-.164.04-.28.027-1.585.3-1.914.418.203-.066.139-.062-.018-.013-.158.05-.02.027-.05.038-.034.008-.767.254-.883.31.541-.214.413-.183-.049-.004l.196-.09c-.27.105-.839.333-.985.415-.024.012.067-.018.054-.011-.132.066-.582.286-.6.303-.015.012.177-.08.11-.038-.014.008-.204.091-.377.196-.065.04-.02.026-.036.036-.133.085-.063.02-.308.173-.179.114-.3.214-.545.375.811-.51.129-.082-.19.16-.05.04.004.02-.307.245.63-.52-.202.12-.362.263-.009.008-.02 0-.102.067-.007.006.01.004-.065.068-.69.621-.252.22-.39.331-.059.047-.374.371-.457.46-.02.02-.017.004-.092.082-.132.14-.24.273-.322.369-.01.01-.023 0-.175.185-.042.053-.087.114-.022.044.213-.235.603-.694.873-.931.24-.22-.488.506-.517.553-.013.014.117-.139-.022.01-.119.128-.309.385-.476.584q-.075.079-.154.155c.004-.008.2-.26.167-.227-.005.003-.132.162-.152.18-.024.022-.123.056-.15.09-.071.087-.017.037-.061.094-.098.12-.42.552-.41.58q.074-.111.153-.219c-.278.409-.15.24-.187.3-.038.065-.042.038-.133.177q-.191.306-.36.624c.18-.34.13-.205.139-.22.035-.058.069-.138.116-.215.34-.538.014.015.098-.11.029-.042.076-.135.088-.153.04-.059.052-.052.077-.092.06-.094-.028.003-.024-.005.044-.09.278-.4.157-.19.088-.115.078-.143.153-.23.15-.174-.055.1-.105.178-.177.281-.242.356-.483.76-.086.146-.173.327-.21.397-.025.042-.278.437-.223.48-.087.16-.246.399-.318.572-.065.156-.022.116-.027.13-.009.023-.087.21-.109.275-.025.076-.003.042-.045.163-.102.3-.118.285-.131.315-.14.353-.053.207-.077.287-.032.072-.33 1.125-.355 1.357l.045-.278c-.052.16-.062.34-.09.338.036.041-.055.377-.068.481-.006.04.002.039-.006.09-.03.196-.087.648-.09.756-.029.469.113-.725.143-.815-.04.185-.13 1.25-.064.764.01-.075.005-.211.01-.254.028-.287.019-.06.023-.082.007-.038.015-.228.024-.277.003-.017.002.092.044-.18-.012.135-.113.9-.11 1.002 0 .037.04-.188-.026.47l.01-.022q-.021.552.006 1.104c-.01-.04-.031-.245-.018.014.01.15.02.038.02.052-.04.14.302 2.494.496 2.922.042.15.191.562.204.592.061.189.316.845.38.971.037.08.014-.001.046.07.03.067-.013.003-.005.023.054.173.712 1.366.896 1.633-.113-.162-.623-1.008-.614-.99 0 .004.105.22.134.262.03.077.198.304.273.437.009.015-.044-.032.098.201.05.08.195.279.325.491.18.313 1.41 1.752 1.541 1.805.003.002-.18-.19-.047-.07.178.16-.002.037.198.232.026.033.611.542.636.552.193.134-.32-.306-.31-.304.02.013.452.37.471.384.016.015-.358-.251.078.085l-.142-.125c.206.157.215.185.264.224.153.122.338.224.577.429.063.054-.057-.014-.049-.007.075.066.2.109.311.21.01.007-.295-.165.222.16l-.104-.073c.075.044.608.352.683.389.211.117.016.034.233.145-.129-.09.536.235.49.232.104.023.673.289.953.387.174.066.54.174.597.191.068.023.042.033.166.074.035.012.412.108.74.2.064.019.194.077.071.058-.21-.031-.59-.156-.589-.14 0 .023.525.144.667.174.654.144.272.086.287.096.04.025.403.086.419.089.062.016-.198-.014-.203-.007-.007.012.341.089.26.08-.115-.01-.434-.085-.454-.089-.267-.04.09.058.19.087.03.01-.094-.005-.069 0 .385.084.088-.022.345.022.23.037-.068.011-.06.013.011.004.286.044.328.055.021.01-.7-.067-.673-.05q.345.056.689.095c.015.023-.313-.037-.347-.041-.07-.007.12.032.111.037-.005.004-.232-.016-.03.02.07.013.218.02.474.064-.894-.094-.278-.005-.253.007.025.01-.404-.029.115.035.018.042-.013.012-.161 0-.182-.018.233.059-.424-.052.035.027.564.1.593.103.025.004-.095-.001-.053.007.498.092.155.037.298.075.012.005.487.053.125.026-.662-.056-.928-.139-1.048-.1.48.11 1.08.13 1.227.138.228.015-.009.01.02.015.009.002.206.014.209.015.137.056-.878-.064-1.193-.116q.126.03.253.055a12 12 0 0 1-.347-.049c.548.093.02.01-.124.02-.032.002.333.049-.085.002.305.055.207.047.484.076-.008.016-.635-.064-.879-.111.861.174.376.043 1.124.17.142 0-.218-.04-.188-.04.105.004.352.051.652.04.05-.003-.154-.036.15-.012.032.003.226.03.223.03-.026.011-.218-.005-.227-.001-.008.004.207.015.208.016.006.015-.18-.005-.153.001.058.014.83.091-.18.02.841.036.107-.002-.217-.029-.082-.006-.104 0-.223-.01-.153-.012-.33-.04-.408-.05-.085-.011.391.083-.3-.03.348.083.977.133 1.325.167.706.072-.495.008-.62-.015-.033-.003.078.021.055.02-.038.001-.712-.096-.78-.102-.07 0 .247.04.266.052.014.014-.804-.117-.364-.034.305.06.87.1.964.138q-.678-.066-1.347-.197.36.09.729.163c-.507-.072-.938-.173-1.411-.278 1.126.31-.378-.056-.392-.072-.007.003.431.154.502.175-.405-.073-1.588-.468-.907-.202a6 6 0 0 0-.43-.132c.03.034.703.241.59.218-.133-.022-.303-.101-.496-.167-.983-.359-.754-.168-1.7-.638l.051.037a13.8 13.8 0 0 1-2.845-1.925c-.364-.265-1.225-1.103-1.59-1.567-.077-.09-.425-.556-.446-.595-.046-.067.226.287.11.122-.032-.03-.592-.837-.559-.775.058.094.26.373.291.42.16.371-1.398-2.235-1.393-2.407l.07.19a14 14 0 0 1-.223-.53m6.246 5.56c.097.042.32.184.459.255.19.1.542.212.376.192a13 13 0 0 1-.835-.447m-3.42-3.063c.126.171-.002.063-.097-.083-.01-.017-.07-.15.097.083m1.503 1.632-.146-.135c-.112-.12.293.254.146.135m-4.195-9.531c0 .235.029.064.02-.081a.3.3 0 0 0-.02.08m-.002.167c-.026.183.038.547.024.257zm3.168 8.32a2.4 2.4 0 0 1-.22-.252c.008-.004.158.185.22.253m-2.652-4.81a7 7 0 0 0 .25.76c-.049-.109-.245-.754-.25-.76m-.407-1.904c0 .02.04.28.045.27-.01-.127-.05-.356-.045-.27m.095-3.86c.002-.015-.08.17.037-.282.017-.066-.019.175-.012.152l.028-.12c-.04.212-.074.436-.08.457-.029.099.026-.201.027-.207m.488-1.976q.06-.189.137-.372c.005-.01.004.042.05-.078.038-.096-.038.04.04-.146.081-.186-.01.07-.002.054.009-.022.124-.315.131-.301.004.01-.132.317-.16.396-.037.1.022-.016-.045.15-.041.103-.042.037-.051.059-.01.018-.128.39-.1.237zm4.901 14.704c-.087-.068.19.106.29.18a3 3 0 0 1-.29-.18M7.66 17.253c.079-.313.03-.081-.023.201.014-.09-.002-.096.023-.201m1.291 8.869q-.008-.02-.003-.025c.013.033.012.038.003.025m-.338-.673c-.124-.227.103.245.113.237.002-.003-.109-.228-.113-.237M7.38 19.548c-.001.023-.033-.345-.017.189.012-.285.009.015.013.011.01-.012.016-.487.03-.593-.014-.084-.02.317-.026.393m2.398-6.996c-.03.059-.152.223-.23.338a3 3 0 0 1 .23-.338M31.86 24.395c.303-.898.373-1.007.085-.185-.005.016-.1.241-.085.185m.273-8.008c-.007-.092.082.191.123.383.01.043.03.205-.02.027.025 0-.04-.282-.103-.41m-24.446.685c.008-.094.088-.373.133-.52-.016.093-.1.39-.133.52m24.908 4.298c.012-.1.001-.169-.002-.152-.014.076-.02.265.002.152M7.504 17.989c-.011.011.047-.369.073-.39-.018.079-.067.38-.073.39m2.116-5.226q.09-.147.194-.282c.002.01-.17.251-.194.282m23.04 6.993a3 3 0 0 0-.015-.338c-.01-.03.004.297.015.338m-9.256 12.46c-.012.001.315-.116.463-.159.283-.078-.45.163-.463.159m9.065-9.904c-.069.274.006-.031-.014-.022-.032.186-.136.65-.05.335.017-.062.047-.226.064-.313m.05-.257c0-.031.014-.236-.012-.061-.012.08-.015.214.013.06m-7.104 9.405c.24-.088-.827.378-.865.375l-.034.01c-.038.02-.245.096-.273.093.063-.02.23-.085.25-.09l.02-.007c.072-.03.86-.357.902-.381m1.682-.94c-.23.18-.295.174-.274.16.256-.185.099-.05.108-.053.02-.01.201-.146.166-.107m-1.325.772-.239.118c-.184.077.434-.228.239-.118M8.635 14.36c.082-.154.017.006-.038.108-.004.008-.033.03.038-.107m23.901 7.555c.02-.037.138-1.068.103-1.008.01.09-.15 1.255-.103 1.008m-1.161-7.536c.08.164-.025-.007-.063-.097-.014-.033.043.055.063.097M7.415 18.5c-.01.19-.043.146-.012-.016.002-.006.012.009.012.016m24.52-2.775c-.236-.584-.108-.473.138.31l-.032-.07c.274.906.022.06-.062-.155-.03-.083-.016-.011-.044-.085m-1.018-2.19c-.275-.545.302.464.444.765-.162-.28-.361-.647-.11-.136-.398-.732-.222-.433-.235-.464-.018-.035-.087-.142-.099-.165m.728 1.424c.016.032.11.279.146.367-.061-.119-.247-.577-.146-.367m-2.976 14.29c-.008.024-.041.07-.2.205.045-.047.14-.141.2-.205M13.624 30.97c.123.074.372.215.301.162a6 6 0 0 0-.301-.162m19.02-12.057c.005-.03-.089-.816-.07-.543.013.082.08.797.07.543m-.307 4.068a6 6 0 0 0 .07-.334q-.05.164-.07.334m-18.083 8.347c.016.011.412.2.372.174a3 3 0 0 0-.372-.174M8.908 13.785c.017-.032.053-.068.06-.079.01-.028.357-.604.237-.376-.027.033-.509.871-.558.988-.039.034.165-.325.214-.413.008-.016 0-.033.047-.12m18.945 16.182c-.012.032-.645.507-.649.486q.331-.233.649-.486m.313-.252c.135-.102-.166.155-.26.223-.005-.005.241-.207.26-.223m4.478-8.205c.007-.079-.04.162-.036.107.002-.035.03-.21.03-.268 0-.016-.036.163-.042.215-.008.074.013.004.003.084-.034.267-.081.503-.128.75-.005.022.037-.15 0 .041-.005.03-.052.205-.103.432-.079.509-.217.865-.424 1.483.014-.02.182-.48.189-.508.179-.516.4-1.473.472-2.041.02-.146.002-.076.01-.139.006-.05.015.012.029-.156m-19.09 9.427c.051.049.265.16.4.234-.041-.038-.273-.154-.4-.234m16.987-3.844c.043-.064.177-.261.183-.28.01-.025-.182.261-.183.28M11.23 10.803c.005-.007.14-.133.147-.137.129-.104-.278.275-.147.136m3.673-2.445c.128-.058.257-.117.306-.122-.084.03-.318.137-.306.122m5.97-1.034c-.027-.02.393.025.472.037a5 5 0 0 1-.472-.037m7.853 21.942c-.19.176-.134.158-.264.26-.021.015-.12.034.104-.142.04-.032-.098.114.16-.118m3.387-13.103c.03.06.087.256.123.39-.015-.027-.092-.296-.123-.39M14.968 31.675c.104.066.63.259.505.198q-.255-.095-.506-.198m-7.162-15.25c.053-.224-.086.232-.11.383.016-.067.106-.368.11-.383M19.403 7.3c.011-.001.255-.009.267-.008.2.006-.49.028-.267.008m-5.808 1.702c.07-.056.583-.327.706-.373-.108.064-.796.436-.706.373M29.466 28.5a8 8 0 0 1-.367.382c.02-.03.351-.37.367-.382m2.227-3.464c.064-.141.036-.118.032-.11-.05.106-.106.27-.032.11m-17.999 6.01c.04.04.273.158.404.23-.034-.03-.299-.17-.404-.23m16.901-18.078c-.093-.172.354.483.424.636.002.013-.405-.614-.424-.636m-22.99 4.146c-.016.012-.073.34-.053.272.012-.043.061-.28.053-.272m23.602-3.16c.039.065.11.223.075.172a.6.6 0 0 1-.075-.172m1.528 6.426c.004-.032-.003-.472-.016-.29-.009.125.006.145.006.175.002.034-.047.732.01.115M27.563 9.765c.135.095.29.22.424.329a10 10 0 0 1-.424-.329M7.953 15.88c-.026.034-.335 1.08-.149.49.008-.036.199-.601.149-.49m22.669 11.142c-.026.054.14-.196.183-.274.007-.028-.179.267-.183.274m-2.616-16.929c.08.06.216.179.31.259a5 5 0 0 1-.31-.259m-6.343-2.73c.195.03.436.067.44.058l.03.01c.015.004.225.036.314.057.544.09-2.108-.293-.565-.112zM12.918 9.4c-.1.052-.35.245-.28.202.047-.032.38-.256.28-.202m3.926-1.76q-.17.044-.334.102c.171-.043.484-.13.334-.102m-4.635 2.254a.6.6 0 0 0-.11.107c.06-.04.21-.172.11-.107m16.936 19.03c.078-.07.297-.325.336-.388a1 1 0 0 0 .084-.08c.108-.03 1.691-2.228.612-.768-.035.045.021-.01-.122.172-.01.012-.021.012-.05.049-.066.087-.443.525-.518.614l-.02.015c-.103.099-.381.442-.322.386M17.437 7.502a2 2 0 0 0-.27.066c.095-.019.412-.087.27-.066m-9.524 8.4c-.048.117-.131.426-.096.336.019-.056.149-.471.096-.336m7.643-7.857c.682-.234.161-.06.262-.107q-.132.052-.262.107m10.949 22.921c.1-.057-.004.032-.12.086-.037.016.064-.054.12-.086m-4.88 1.687c.1.008-.38.052-.195.017zm3.494-.957c.066-.045.112-.066.313-.156-.294.14-.014.027-.313.156m-13.435-21.37c-.077.05-.265.22-.201.178q.105-.084.2-.178m17.796 18.21q-.014.01.006-.013.003 0-.006.013M12.757 9.486c-.003.012.319-.2.332-.208.178-.133-.202.116-.332.209M7.33 18.384a.6.6 0 0 0 .039-.183c.002-.062-.032.108-.039.183m17.096 13.598q-.15.062-.31.099c.078-.024.31-.106.31-.099m-2.615.659c.14-.03.468-.084.674-.124.008.018-.54.105-.674.124m7.093-3.486c.009-.005.23-.219.192-.197-.054.033-.257.254-.192.197M7.43 17.796c.016-.137-.062.171-.064.317-.003.075.06-.294.064-.317m3.66-6.946c-.125.13.204-.174.244-.223-.062.055-.2.176-.244.223m5.256-3.103c-.556.138-.24.103-.145.067.013-.005.158-.07.145-.067m-.076 24.475c.078.02-.204-.085-.244-.088-.026 0 .194.077.244.088M9.955 12.041c.288-.284.237-.271.259-.299.049-.058.173-.183.267-.29a14 14 0 0 0-.308.38c.075-.105.848-.911.868-.925.015-.032-.23.22-.237.228-.011.01-.07.029-.094.052-.044.032-.663.735-.755.854m5.266-3.895c.086-.031.115-.03.154-.048.013-.006.011-.017.056-.038zm-5.665 4.497c-.078.084.225-.327.238-.337.06-.065-.176.266-.238.337m3.037-3.054q-.168.115-.326.244c.084-.06.511-.363.326-.244m2.895-1.551c.13-.049.378-.123.345-.13q-.173.062-.345.13m-8.004 9.29c-.078.245-.022.133.035-.086.003-.07-.022.046-.035.086m-.164.802c-.02.068-.095.799-.067.688.007-.038.041-.46.046-.478.006-.03.003.106.03-.117-.007.012-.004-.117-.009-.093m.105-.598c-.068.245-.04.309-.005.12.013-.072.015-.155.005-.12m.243-1.008q-.077.24-.123.487.08-.326.177-.65c0-.027-.03.086-.054.163m12.631 16.338c.203.007-.265.02-.285.016-.059-.008.194-.017.285-.016m-2.56.06c.056.015.09.035.217.048a14 14 0 0 1-.37-.095c-.102.005.092.032.153.047m.468.161c-.018-.002.075.049-.153-.008-.154-.035.7.06.852.08-.17-.004-.545-.054-.699-.072m1.494.275c.01.004-.32-.002-.357-.007-.199-.02.303-.007.357.007m-1.048-.07c.153.022-.19-.007-.29-.025a4 4 0 0 1 .29.025m3.781-.115c.17-.006.306-.088.055-.028a.2.2 0 0 0-.055.028m-3.056.211c-.154-.014.188-.003.29.003.01.007-.267 0-.29-.003m3.183-.175c.223-.026.134-.07.106-.066-.113.015-.497.106-.577.123.582-.106.366-.047.471-.057m.996-.269c.198-.06-.316.067-.41.104.1-.024.354-.086.41-.104m1.202-.371q.236-.082.462-.187c-.11.05-.421.162-.462.187m.246-.066c.166-.053.19-.104.009-.018-.007.003-.015.02-.009.018m.902-.386c.11-.037.21-.128.044-.046-.05.024-.056.05-.044.046m-3.059 1.099c.163-.029.364-.101.02-.027q.18-.045.358-.095c-.45.092-.411.115-.54.141-.182.034-.173.002-.139-.014-.144.05-.777.153-1.148.19a13 13 0 0 0 1.17-.146c.09-.016.176-.042.253-.057.124-.026.017.01.026.008m4.191-1.72c.295-.165.096-.082-.063.023a.4.4 0 0 0 .063-.023m-7.22 2.01c-.451-.03-.12-.02-1.065-.06.396.012.023-.013.1-.015.063-.002.294.02.16-.003.177.034.946.051.982.049.02.001-.032.035-.177.029m4.974-.849c.121 0 .138-.08.357-.13.255-.157-.76.3-.907.288 1.14-.387-.768.212.05.008-.668.189-.214.077-.314.118-.106.044-.487.14-.464.15q.348-.095.691-.21c-.234.04.236-.1.401-.133zm-1.303.384c.025-.002.523-.153.488-.152-.065.021-.778.22-.488.152m-2.254.408c.184-.016.475-.043.574-.07-.185.025-.474.049-.574.07m8.503-4.092c.159-.178-.357.344-.2.202a6 6 0 0 0 .2-.202m-4.445 3.09c.228-.084.106-.076-.055.004-.01.005.044 0 .055-.003m-5.841 1.056c-.016.013-.672-.035-.786-.051.065.002.806.044.785.05m1.456.011c.376.016.876-.091.93-.099.055-.006-.028.022-.016.02.029 0 .611-.093.638-.103.02-.004-.088-.008.03-.037-.23.069-1.3.192-1.354.19-.043.005.284.004-.228.029m1.068-.112c-.146.012.261-.05.36-.065.22-.03-.341.066-.36.065m.978-.171c.047-.007.46-.105.492-.127-.197.04-.597.145-.492.127m4.347-1.813c.093-.06.35-.222.358-.24-.09.064-.348.223-.358.24M17.222 33.31c.179.046-.241-.038-.36-.072-.006-.007.344.07.36.072m8.147-.797c.069-.009 1.268-.608 1.42-.721q-.69.375-1.405.7c-.016.009-.023.024-.015.021m-2.765.856c-.118.037-.2.034-.216.037-.15.025-.461.075-.395.051.268-.03.846-.162.611-.088m4.813-1.952c.378-.253-.363.21-.26.159q.131-.077.26-.159m-2.185 1.158c-.082.064-1.353.504-1.565.544.18-.072.333-.1.58-.182.066-.023.046-.025.053-.027.114-.04.032 0 .102-.025.048-.006.957-.373.83-.31m-2.696.816c-.071.029-.9.156-.935.152-.252.02.872-.13.935-.152m2.816-.847c-.122.083-.75.309-.33.132.041-.017.216-.077.33-.132m2.037-1.081c.02-.01.417-.272.418-.284-.055.04-.636.417-.418.284m-.195.154c.01-.007-.093.04.097-.077.016-.01.055-.013.286-.173.047-.032.113-.091.108-.088-.251.148-.98.645-.491.338m-4.67 1.79c.045-.001-.058.04-.157.046-.043.003.034-.022.157-.046m6.086-2.825c-.205.187.465-.367.491-.404-.024.015-.469.388-.491.404M16.778 33.31c-.225-.058-.083-.034-.093-.036-.477-.139-.355-.087-.431-.104-.162-.04-.128-.059-.4-.131.449.12.043.003.033-.011-.037-.053.586.198.815.24.031.007-.196-.064-.115-.048.26.058 1.064.297.191.09m5.514.158c-.105.037-.918.128-.704.09.036 0 .858-.13.704-.09m.033-26.948c.197.022-.254-.067-.339-.07-.042-.002.253.059.339.07m-3.196-.216c-.236.017-.477.084-.187.053.03-.003.214-.049.187-.053m12.833 7.014c-.107-.221-.126-.193-.036-.037.031.055.04.044.036.037m-6.897-6.047a3 3 0 0 0-.28-.1c.097.04.424.165.28.1m6.939 6.113c-.076-.124.028.104.128.252-.043-.08-.12-.239-.128-.252M25.84 32.397c.105-.062.416-.212.588-.307.028.005-.46.247-.588.307M20.128 6.295c-.223.01.254.024.21.01zM33.675 20.93c.003-.162-.048.348-.02.209zm-.336 2.212c.034-.118.136-.631.087-.434-.006.03-.092.424-.087.434M16.237 33.178c.06.034-.307-.078-.359-.098q.184.032.36.098M31.11 11.976q-.15-.21-.314-.406c.098.12.325.45.314.406m-9.97-5.634c-.19-.035-.523-.05-.442-.023.366.02-.043-.026.443.023m11.256 7.76a.4.4 0 0 0-.093-.141c.04.103.129.236.093.141m-5-5.642c0-.012-.28-.181-.245-.153.011.009.245.161.245.153m1.967 21.552c.115-.096-.214.222-.323.302-.058.033.311-.288.323-.302m3.97-13.25c.02.012-.117-.48-.077-.283.01.05.072.28.077.284m.308 4.853c.033-.34-.184 1.08-.11.71.01-.027.111-.68.11-.71m-.482 2.296c.018-.056.056-.014-.033.215-.012.03.02-.118.01-.093-.004.015-.176.519-.186.54-.007.026.017.002.01.028-.008.029-.133.332-.198.491-.12.3-.126.335-.136.36-.03.071-.091.187-.157.329-.321.721-.94 1.764-1.337 2.249.334-.445.61-.9.875-1.385-.051.156.364-.728.125-.21.163-.214 1.011-2.325 1.027-2.524M18.205 6.38c.14-.037-.594.073-.652.107.097-.017.635-.105.652-.107m3.417-.06c.069.006.139-.021.495.048.105.021-.016.01.003.016.007.002.331.07.06.029-.414-.06-.036-.03-.256-.062a6 6 0 0 0-.425-.032c.003 0 .13.011.15.015.078.015.039.02.05.022.036.002.698.084.79.12.032.001-1.051-.146-1.095-.142-.027-.004-.013-.03-.04-.035-.014-.004-.454-.03-.51-.034l-.04-.004c.066.01-.331-.01-.319-.017.008-.004.28.01.29.012l.012.002c-.054-.02.87.06.673.03.27.02-.04.017.162.032m1.282.195-.084-.01c.465.09.99.24 1.506.412.131.044-.014-.024.156.04.136.05.281.12.206.097-.018-.007-.293-.115-.434-.158-.417-.13-.316-.079-.34-.087-.028-.008-.288-.094-.434-.13-.364-.091-.536-.124-1.037-.23.293.045.138-.008.461.066m10.809 12.369c.012.017.025.326.031.438-.01-.017-.021-.327-.031-.438M6.768 23.829c.038.088-.142-.6-.106-.416.007.041.08.33.106.416m-.513-3.145c-.01-.095 0 .289.013.287.004 0-.013-.275-.013-.287m22.14-11.608c.016.01.22.174.225.18.127.119-.548-.416-.225-.18M6.586 16.827c-.069.324.176-.643.09-.35a14 14 0 0 0-.09.35m.384-1.334c-.027.075-.14.41-.136.416.004.009.134-.374.136-.416m25.508-1.353c0-.043.183.387.246.536 0 .042-.173-.392-.246-.536m-1.515-2.514c1.14 1.6.88 1.251-.078-.088.007-.009.002-.01.078.088m1.338 2.127c-.042-.059-.142-.258-.215-.39.021.02.164.293.215.39M7.005 24.643c-.058-.11-.209-.636-.173-.546.005.023.193.587.173.546M28.534 9.165c-.024-.044.43.335.459.37.13.128-.415-.347-.459-.37m4.879 7.597c.038.098.097.39.132.576-.026-.082-.093-.42-.132-.576m-.378-1.322c.005.011.09.263.092.275.057.21-.181-.502-.092-.275m-15.97 18.067-.212-.048c-.172-.052.417.082.212.048"/></svg>