<svg xmlns="http://www.w3.org/2000/svg" width="40" height="40" fill="none" viewBox="0 0 40 40"><g transform="translate(3.737, 3) scale(0.814371)"><path fill="#f7f4ed" d="M35.556 36.416a4.444 4.444 0 0 1-4.445 4.445H8.89a4.444 4.444 0 0 1-4.445-4.445V19.823A4.444 4.444 0 0 1 8.89 15.38H31.11a4.444 4.444 0 0 1 4.445 4.444z"/><path fill="#3784ff" d="M22.944 39.986c-.066.002-.328-.003-.442-.002.129-.024.677-.006.442.002m-11.666 1.732.284-.018c-.269-.004-.63 0-.878-.005-.04-.001.065-.018-.031-.019-.097 0-.078.023-.218.025-.157.003-.877-.014-1.126-.013l-.42.001a5.15 5.15 0 0 1-2.7-.738c1.02.518-.006-.009-.262-.2-.044-.054-.126.063-.93-.761-.456-.57-.04-.045-.709-1.052.457.816-.08.062-.34-.633-.065-.111-.333-1.107-.333-1.562-.006-.09-.018-.204-.024-.327a4 4 0 0 1-.01-.226c0-.118.012-.208.012-.384a287 287 0 0 1 0-2.455c.059.482.025-.377.028-.416.016-.196.02.691.03.34l-.005-1.471c-.007.402-.05-.533-.03-.705-.052.075.045-2.236.027-2.587-.003-.074-.029.406-.017-.707.001-.12.017-.075.015-.138 0-.038-.05-.267-.023-.51.01-.09.043.48.03-.772-.05.499-.028-1.736-.015-2.147l-.02.246c.018-.406 0-.48.002-.571.004-.37.02-.877.02-1.22-.003-.403-.034-.404-.022-.873l-.02.334.005-.972c.041.75.002-.162 0-.222 0-.095.016.042.014-.118 0-.016-.016.007-.018-.24-.004-.516.016-.434.016-.65 0-.016-.008.021-.014-.129a4 4 0 0 1 .001-.233c.137-1.41-.012.006.011.061.001.053.04-.205.042.172.002.105.002.268-.003.518.006-.34.033-.374.034-.412v-.106c-.006-.21.029-.611.035-.64.037-.337-.022-.044-.016-.11-.01-.059.198-.865.233-1.063.199-.355-.077.221-.184.883-.016.096.157-.615.181-.648.324-.885.113-.41.164-.613.031-.107.237-.44.04-.136.41-.768.18-.291.206-.34.045-.072.202-.332.227-.361.034-.044-.067.12.063-.055.021-.029.216-.327-.064.035.366-.49.338-.45.503-.578.244-.35.246-.183.368-.29.338-.274.211-.232.226-.25.096-.142 1.166-.736 1.465-.808-.105.062-.886.384-1.034.51-.522.348.777-.424.406-.15q.243-.15.503-.274c.342-.08-.132.057.769-.194.14-.07-.639.175-.487.113.086-.05.617-.18.628-.183.008-.016-.472.108-.399.08.15-.132 1.956-.258.591-.11.33-.048.524-.015.784-.018q.05 0 .105-.003c.067-.004-.033-.018-.105-.032-.073-.012-.122-.024 0-.033.098-.008.328-.013.798-.008.033.026-.614.007-.63.01-.024.002.093.06.113.064.072.01 1.639-.022 1.97.007-.131-.034 1.184-.006 1.327-.016.038-.003-.104-.024-.064-.026.255-.013.942.024 1.261.025.357.001.312-.017.332-.017.157.001.032.013.128.013.145 0 1.142.003 1.192 0 .015 0-.148-.021.07-.025.037 0 .013.024.657.013.775-.012-.538-.03-.216-.056.498.037.482 0 .617.004.046 0 .394.031.772.03l-.813.014c.266.005.784-.001 1.004.005.107.003.019.028.252.027.049 0 .245-.061-.365-.034-.049-.022.241-.007.376-.013.02-.001.1-.038.273-.015.041.005-.408.112.75.035.038-.003-.092-.016-.055-.019.025-.002.32.004.353.002.034-.002-.11-.017-.07-.02.205-.014.473.043.052.039l.422.021c-.15-.043.22-.012.415-.013 1.248-.009.412-.037.627-.052.345-.023.081.051.593.029.048-.002-.571-.034.637-.016l-.535.004c.103.042.644-.003.686-.004.475-.006.154.01.858-.012.063-.002.2.008.335.003.558-.021-.736-.013-.771-.03a54 54 0 0 1 1.422-.002c.203.018-.63.008-.472.03.058.007 2.042-.009 2.44 0 .459.01.666.067.669.003.13.063.244.02.302.02.71.006.712.007 1.32 0 .135 0 .249.018.296.015.028-.002-.024-.022.112-.029a30 30 0 0 1 1.404.024c.084.011-.478.005-.377.023.407.002.797-.002 1.207 0 .17 0 .082.013.156.014l.392-.008c.138-.003.248 0 .236-.003a3 3 0 0 0-.236-.01c-.473-.005-1.578-.003-1.193-.022.092-.004.418.026.366-.01q.413 0 .827.004a5.26 5.26 0 0 1 4.123 2.032c-.686-.851-1.74-1.589-2.865-1.854-.151-.045-.677-.128-.615-.098.97.103 2.114.623 2.794 1.265.022.02-.07-.04.011.036.16.132.634.62.69.723.012.014-.249-.27-.185-.171.162.253.268.268.412.485.15.15.661 1.4.707 1.738.047.173.01-.074-.066-.345-.073-.273-.192-.564-.163-.522.27.62.39 1.307.384 1.961q-.003.306-.002.603c0 .013.017-.1.019.065.004.286-.02.362-.023.501-.004.15 0 .683-.01.754a1 1 0 0 1-.024-.115c-.01-.232.02-.314.02-.335.002-.08-.01-.157-.009-.23.001-.119.012-.184.013-.342 0-.108-.02-.003-.019-.108 0-.038.047-.452 0-.49-.015-.013-.035 3.372-.023 3.71l.017-.87c-.014.589.024 1.297-.032 1.347l-.014 6.556c-.004.39-.04.176-.03.818l.035-.498a92 92 0 0 0-.017 2.023c.001.03.034.073.037.438.002.323-.022.375-.027.548-.004.145.002.308.001.35 0 .034-.016.047-.019.126-.008.251.035.048-.014.297l-.005-.182c-.007.303-.03.717-.04.27-.002-.076.012-.01.012-.067-.002-2.241-.03-.452-.008.334-.015.14-.013.732-.012 1.09 0 .178-.008.303-.01.317-.01.058-.012-.16-.048.124-.002.029-.044.47-.14.815-.091.346-.198.598-.109.304.05-.117.23-.913.228-1.111-.05.46-.327 1.507-.404 1.612-.205.445.338-.879-.11.128-.407.742.004.061-.145.352-.067.18-.696.91-.661.907-.229.241-.11.085-.14.114-.022.033-.505.472-.693.574-.022.014.032-.05.01-.037a8 8 0 0 1-.602.36c-.014.009.128-.042.075-.01-.057.047-.616.28-.649.288-.038.035.65-.264.543-.199-.311.154-.845.342-1.068.404.055-.015.38-.104.491-.143-.038.06-.748.233-.51.15-.152.046-.045.03-.13.061-.022.01-.245.047-.287.057-.006.003.227-.021.182-.008-.08.039-.767.095-.824.08-.158-.003.401-.03.445-.056.006.002-.466 0-.474-.007-.027-.02.495-.028.434-.05a5 5 0 0 1-.386.005c.496-.006 1.397-.204 1.604-.325-.686.266-1.465.292-1.462.231 0-.022.308-.06.294-.067-.046-.013-.471.032-.488.027l-.019-.004c.002-.005.606-.05.635-.07.05-.016-.223-.03-.223-.041.01.001.43-.066.286-.063-.145.008-.514.032-.527.028-.07 0 .572-.064.587-.083.01-.002-.334.023-.344.015-.01-.003.249-.043.346-.078.073-.025-.146 0-.108-.009.029.004.611-.12.637-.14.04-.014-.097.009-.079 0 .027-.012.211-.062.186-.061-.017.016-.748.126-.746.098.007-.017.77-.115.052-.072l-.18.03c-.107-.007.436-.09-.232-.019 1.232-.191.15-.045.328-.11.069-.019.53-.126.53-.135-.05-.006-.192.044-.244.045-.027.005.374-.12.279-.11-.048.012-.48.108-.5.104-.174.014.036-.032-.004-.035-.025 0-.289.032-.296.03-.01 0 .343-.068.413-.095.054-.016-.156.01-.118 0 .23-.049.723-.143.242-.082-.03.004-.207.04-.212.039-.113.002.214-.058.267-.09.093-.046-.366.072.014-.033a6 6 0 0 1-.795.105c.478-.03.784-.141.847-.174.061-.041-.108.02-.624.082.328-.039.285-.078.38-.095.061-.005.527-.102.296-.12-.028 0-.302.08-.22.039.658-.174.012-.01.01-.019-.002-.024.405-.114.809-.312.407-.19.79-.493.891-.593.243-.225.394-.479.437-.534.14-.187.04-.02.076-.058.05-.032.357-.623.36-.657.06-.113.027.014.033.003.106-.13.343-1 .342-1.254-.009.008-.088.502-.062.19.019-.362.07-.38.077-.39l.003-.169q0-2.81-.002-5.619c-.034.024-.008 1.291-.012 1.32-.027.17-.027-1.971-.015-2.233l-.022.598c-.04-.34.012-1.094-.006-1.587-.005-.16-.02.146-.022.14-.015-.179-.003-.466.017-.251-.02-.437.002-.373.004-.708 0-.017-.016.127-.023-.139-.003-.124-.003-.786-.017-.875-.006-.037-.068.3-.014.341-.026.72.024.23.023.51 0 .043-.03-.056-.016.65-.054-.135-.014-.947-.02-1.086-.014-.287-.041.896 0 1.113-.041-.102-.005.084-.007.347-.002.289-.014.163-.014.32 0 .426.03.25.002.601.083-.343.011.603-.01.878l-.013-1.345-.013.077.002-.354.012.056c-.027-.609.004-.757.004-.807.004-.64.003-1.378.003-2.024 0-.097-.027-.03-.006-.737.007-.226.028-.013.025-.269-.057-.32-.011-.313-.011-.408 0-.273-.014-.44-.015-.465-.002-.337 0-.83-.002-1.2 0-.008-.017.185-.012-.056.002-.084.077-.841.052-1.503l-.015.516c.007-.202-.012-1.621-.032-1.274-.012.212.036.732-.01.788.007-.253.005-1.125.002-1.908.003-.56-.152-1.043-.171-1.117-.006-.022.05.11.043.079a6 6 0 0 0-.206-.548c-.012-.038.087.158.084.14.009-.02-.279-.575-.325-.587.096.12.285.505.168.313-.014-.025-.077-.16-.098-.19-.18-.269.302.57.319.727-.197-.572-.725-1.387-1.322-1.776-.22-.183.35.238.103.03-.535-.41-.157-.086-.175-.098-.136-.091-.606-.424-.637-.357-.221-.1-.144-.086-.474-.176q.063.024.125.051a13 13 0 0 0-1.1-.227q-.017-.003-.007-.005h.007c.172-.025.584.051.617.061.049.015.227-.058.761.203.251.025-.888-.301-.36-.184a4.1 4.1 0 0 0-1.018-.145 31 31 0 0 0-1.243.001c-.03.003.11.047-.325.024-.207-.01.292-.01.197-.02-.29-.031-4.252-.012-5.005-.01-.049 0-.031-.014-.079-.014-.147 0-.685.021-.949.015.547.025-.515.027-.785.024-.41-.004-.384-.028-.562-.033-.682-.02-1.74.037-2.27-.016.029.053-.918-.026-1.348-.026-.337 0-.826.034-.371.055-.582-.002-1.195.008-1.74.011-.091 0 .033-.015-.12-.014-.015 0-.034.016-.166.018-1.092.013-.56-.02-.765-.03l-.26-.008c.636-.003 1.37-.01 1.566-.01-.168-.033-1.41.007-1.774-.002-.013 0 .031-.02.018-.02-.137 0-1.006.006-.827.028.048.006.448.006.922.004-.128.005-.032.025-.055.026-.275.01-.948-.01-1.186-.012-.055-.001-.05.012-.06.012-.217-.003-.128-.04-.35-.002-.394-.047.736-.007.657-.038-.062-.023-2.571-.01-2.564.027a.6.6 0 0 0-.114-.015 16 16 0 0 0-.976-.002c-.02.002-.012.038-.037.039-.063 0-.917-.028-1.236-.006l.517.015c-1.04 0-.88.01-.533.022l.05.001c.27.009.613.016.619.02.012.006-.635.01-1.068.006-.237-.003-.397.01-.286-.013.017-.004.159-.012.286-.01.19 0 .349 0 .122-.014l-.122-.002c-.153-.002-.407.024-.425.025-.09.001.187-.048.425-.059.205-.01.38-.02.32-.03a5 5 0 0 1-.32.014 4 4 0 0 0-.544.041c-.123.021-.15.046-.164.05-.223.05-.102.005-.176.022-.043.003-.458.179-.396.101-1.322.692-.397.1.492-.099-.279.069-.807.26-1.021.394-.078.046-.024.035-.151.116a4.2 4.2 0 0 0-.822.675c-.318.336-.553.75-.635.926.1-.218.05-.165-.03.003-.074.17.014.039.002.073-.035.027-.302.852-.291 1.003.112-.642.054-.508-.039.044q.007-.12.02-.243c-.03.177-.071.462-.075.72-.005.246-.01.467-.005.567.001.035.018-.09.02-.07.006.194-.011.854-.005.885.005.026.019-.256.026-.151.002.021-.022.293-.016.56.002.1.018.04.02.065.007.208-.02.085-.016.465.003.28.03.487.021.872.034-1.265.02-.201.03.328.002.084.031.012.017.518-.053-1.078-.028.308-.029.59 0 .017-.02.022-.02.16 0 .013.014-.004.015.125.01 1.225-.006.442-.019.674-.005.1.013.695.014.856 0 .037-.014.02-.013.162 0 .253.015.479.016.646 0 .02-.02.02-.014.336.002.089.01.189.016.062.02-.418-.015-1.212.005-1.685.019-.431.02.929.02 1 0 .026-.01-.24-.012.03-.002.23.035.651.027.995 0 .026-.032.3-.034.288-.001-.012-.008-.433-.017-.372-.001.007 0 .275-.008.31-.008.043-.089.158-.09.216-.006.146.013.05.011.146-.002.203-.026.91.002.932l.005-.35c.003.65.015.373.02.465.005.099-.02.07-.021.29-.001.047.004.962.014.946-.016-.506.014-.319.015-.342.002-.089-.015-.202-.015-.321.003-.837.03.007.037-.19.002-.069-.012-.204-.012-.233.003-.094.022-.095.02-.158-.003-.146-.03.025-.032.013-.017-.13.004-.641.034-.323.01-.191-.025-.213-.011-.365.028-.301.021.15.026.272.017.439.003.569.008 1.19.001.223.019.488.02.591 0 .066-.06.682.034.7-.009.24-.071.616-.068.863.002.222.036.152.037.172.002.032 0 .3.004.39.006.107.019.054.024.223.013.42-.022.408-.024.452-.025.5.023.281.027.392.004.103-.015 1.553-.003 1.858l-.02-.372c-.022.222.013.457-.025.462.044.031.036.271.028.457a2 2 0 0 0-.003.156c.003.045.013.042.017.099.007.224.102.72.15.832.094.245.034.049-.02-.225a4.4 4.4 0 0 1-.072-.684c-.039.22.296 1.343.177.818-.02-.08-.08-.215-.089-.262-.063-.309.005-.069.003-.093-.006-.042-.057-.244-.058-.3 0-.018.027.098.01-.201.002.15.148.974.214 1.07.024.033-.055-.2.206.466v-.028c.184.352.426.674.714.949-.038-.023-.211-.168-.007.028.12.11.047.011.059.021.037.125 1.475 1.064 2.445.956h.644c.209-.001.79-.019.835-.02.265-.001 1.205.01 1.392.008.117-.002.006-.02.11-.02.098.002-.003.02.026.02.24.007 2.056-.017 2.487 0-.264-.005-1.58.03-1.553.043.006.002.326.016.392.01.109.015.483-.032.686-.023.023 0-.067.027.296.032.125.002.452-.019.782.004.477-.011 2.987.023 3.16-.005.004-.002-.35-.011-.11-.023.317-.015.032.037.402.041.056 0 1.085-.005 1.118-.008.312-.029-.587-.04-.575-.044.032-.009.779-.014.81-.012.028.002-.581.04.151.026l-.252-.014c.345-.009.378.018.461.02.26.005.54-.036.956.015.11.013-.073.028-.06.03.133.018.301-.03.5.005.015.003-.447.025.36.025l-.166-.01c.113-.008.93-.013 1.04-.011.322.005.042.03.365.027-.207-.034.775-.038.718-.01.137-.036.971-.008 1.363-.007.248 0 .753-.015.831-.013.096.002.067.027.24.032.05.002.564-.016 1.016.01.087.005.271.047.108.057-.278.018-.805-.016-.798.01s.717.01.908.014c.883.016.373.044.396.053.059.02.54.02.56.022.084.008-.258.025-.263.038-.006.016.459.046.353.052-.151.008-.578-.017-.605-.016-.352.016.13.055.264.074.04.005-.12.015-.087.017.51.025.107-.054.447-.05.303.006-.087.03-.075.032.015.002.377.003.434.012.028.005-.914.054-.875.076l.902-.015c.023.029-.409.008-.454.01-.09.007.161.021.15.03-.005.006-.3.026-.034.035.092.003.284-.017.617.003-1.16.026-.356.043-.322.053s-.52.034.152.03c.029.056-.015.017-.205.027-.234.012.306.03-.549.017.05.026.736.024.772.026.032.002-.12.015-.066.02.644.05.201.026.388.059.016.003.625.015.162.02-.845.008-1.197-.03-1.34.05.625.034 1.382-.017 1.572-.018.29 0-.01.015.025.02l.266.001c.179.06-1.114.001-1.522.012l.328.027h-.444c.705.02.024.008-.151.057-.04.01.424-.008-.105.022.39.007.265.017.619.004-.01.02-.804.041-1.117.051 1.106.022.475-.05 1.432-.011.178-.025-.28-.02-.242-.024.134-.014.447.008.825-.042.061-.008-.199-.034.186-.032.043 0 .288.021.285.023-.033.017-.275.01-.286.018-.009.007.262.003.263.004.008.022-.226.008-.192.015.073.015 1.048.06-.224.047 1.057-.024.135-.023-.276-.014-.105.002-.132.015-.281.02-.193.005-.418 0-.517.002-.107.002.5.032-.379.023.448.03 1.239-.002 1.678.02.888.042-.618.051-.775.055-.042.001.098.019.07.02-.045.001-.9-.007-.984.008s.313-.001.34.014c.017.01-1.014.028-.456.034.385.005 1.094-.035 1.214.008l-1.698.01.93.05c-.636.005-1.185-.013-1.788.01 1.45.053-.47.043-.491.049-.007.004.563.047.655.054-.506.017-2.042.025-1.143.078a5 5 0 0 0-.553.02c.05.023.912.008.771.029-.163.024-.39-.009-.641-.006-1.285.014-.933.136-2.222.116l.077.013-4.202-.02c-.549.037-2.007.06-2.724.055-.144 0-.852-.02-.906-.023-.099-.007.446-.01.2-.022-.052-.002-1.251-.01-1.166.01.135.003.555-.008.624-.003.484.035-3.213.007-3.396.021l.245.02zm10.72-1.673c.14-.021.49-.005.698-.011.286-.008.773-.089.564-.008zm-6.148-.031c.282.01.063.056-.168.037-.026-.002-.214-.052.168-.037m2.957.021-.264-.001c-.219-.018.516-.015.264.001M5.858 38.437c.147.207.072.035-.026-.088a.3.3 0 0 0 .026.088m.104.148c.086.187.416.427.198.199-.023-.02-.204-.206-.198-.199m10.893 1.447c-.031.014-.322.007-.447.004.004-.013.325-.003.447-.004m-7.377.004c-.012.01 1 .01 1.068-.005-.16.007-1.056-.005-1.068.005m-2.173-.347c.017.013.28.123.277.109-.126-.06-.358-.158-.277-.11m-2.05-3.45c-.003-.02-.065.242-.024-.378.006-.091.022.234.024.202q.007-.101.007-.165c.004.198.006.4.006.518l-.001.082c-.008.06-.013-.006-.013-.082zm-.047-2.707a6 6 0 0 1 0-.526c0-.015.027.05.025-.121-.001-.137-.029.068-.024-.2.004-.27.023.091.025.067.002-.031-.01-.45.005-.436.012.01.004.457.007.568.003.142.022-.03.018.207-.003.15-.037.066-.039.098-.001.026.019.547-.017.342zm.053 2.288.001.078zm15.922 4.24c-.147-.01.288-.024.453-.01.003.01-.43.012-.453.01m-15.95-4.507c.008-.43.02-.114.028.267-.007-.12-.031-.123-.028-.267m7.989 4.505q-.028-.004-.031-.013c.047.007.051.011.03.013m-1.001-.012c-.343.02.354.02.35.005a6 6 0 0 0-.35-.005m-6.53-1.89c.012.023-.24-.297.089.187-.153-.27.02.009.023 0-.001-.014-.26-.464-.286-.578-.062-.072.132.318.173.39zm-.468-9.501c.016.085.01.358.01.542-.016-.086-.011-.358-.01-.542m29.552-5.684c-.015-1.261.05-1.425.024-.27 0 .022-.018.346-.024.27m-4.358-6.828c-.12-.028.274-.033.532-.021.059.003.275.031.028.037.008-.035-.374-.048-.56-.016M5.214 35.31c-.018-.125-.005-.51-.002-.712.015.124.008.533.002.712M34.717 19c-.023-.108-.068-.173-.064-.154.015.083.077.28.064.154M5.213 36.53a.4.4 0 0 1-.012-.113c-.004-.148-.002-.369.016-.392l-.001.392c0 .062 0 .109-.003.113m.002-7.527c-.006.079-.016-.33-.01-.455.011.01.013.403.01.455M33.919 17.43a2 2 0 0 0-.261-.267c-.03-.016.224.24.261.267m.367 20.906c-.007.01.153-.339.22-.494.145-.29-.19.494-.22.494m.535-18.252c-.023.375 0-.041-.025-.025-.001.253-.002.881.022.449.005-.084.002-.306.003-.424m.008-.333c-.008-.034-.044-.257-.033-.063a.7.7 0 0 0 .019.134q.005.022.01 0a.4.4 0 0 0 .004-.071m-.018 16.23c.01-.16.013.106.013.434.004.303-.062.66-.069.678l-.013.038c0 .048-.056.284-.083.306.023-.07.066-.262.072-.285l.006-.021c.004-.053.067-.42.066-.716.003-.224.006-.41.008-.434m.022-2.556c.032.385-.022.453-.024.42-.023-.419.018-.146.02-.159.003-.029-.016-.327.004-.26m-.013 2.032-.002.352c-.018.265-.014-.65.002-.352M5.17 31.492c.005-.231.026-.004.018.15 0 .012-.023.054-.018-.15m29.647-11.894a3.3 3.3 0 0 0-.078-.6c-.06-.277-.166-.527-.167-.489.02.044.135.375.183.673.052.298.055.556.062.416m-7.25-3.495c.241 0-.023.029-.152.018-.048-.004.09-.018.151-.018M5.247 37.098c.057.202-.004.171-.022-.012 0-.007.02.004.022.012M29.5 16.12c-.835.017-.637-.074.448-.043l-.102.012c1.253.014.086.006-.221.011-.117.002-.019.017-.125.02m-3.207-.019c-.804-.064.731-.022 1.171-.03-.426.026-.982.022-.226.05-1.105.005-.645-.021-.69-.023-.052-.003-.22.006-.255.003m2.12 0c.047-.002.397.011.523.009-.176.022-.83.004-.522-.01m6.405 14.646c.018.029.03.1.024.377-.009-.085-.016-.262-.024-.377m-12.554 9.389c.19.001.569.008.453-.01-.013-.002-.453 0-.453.01m10.992-23.361c-.014-.043-.791-.45-.53-.295.09.026.751.467.53.295m1.58 4.212c0-.087-.003-.443-.007-.45-.014-.025-.007.412.007.45M23.224 40.153c.024.002.606 0 .542-.01-.121-.015-.628.004-.542.01M5.13 30.65c-.001-.048.018-.113.018-.13 0-.039-.007-.928.017-.589.004.057-.005 1.337-.008 1.503-.025.064 0-.482-.003-.615-.001-.024-.023-.039-.024-.168m29.707 1.536c.016.04.027 1.085.007 1.073zm.002-.53c.012-.224.016.299.01.453a5 5 0 0 1-.01-.454m-.005-12.527c-.02-.088.003.187-.012.127-.007-.039-.035-.235-.058-.295-.006-.017.015.185.024.242.014.081.02 0 .033.089.026.185.033.358.03.531q-.005.186-.005.376c0 .03.013-.204.013.053 0 .04-.019.279-.016.587.058.68.001 1.18.022 2.042.005-.032.02-.678.02-.716.008-.598.01-1.59.01-2.342a4 4 0 0 0-.016-.364c-.018-.164-.022-.083-.03-.153-.01-.056.025.007-.015-.178m-12.672 21.02c.091.022.41.008.613.009-.072-.02-.414-.005-.613-.01M34.857 26.96c-.001-.102.006-.418-.001-.444a3 3 0 0 0 0 .444M5.136 25.635l.001-.264c.018-.219.015.516-.001.264m.005-5.854c-.002-.157.006-.316.03-.366-.017.098-.02.384-.03.366m4.903-3.707c-.039-.024.52-.008.626-.006-.039.01-.598.024-.626.006m24.85 14.632c-.002.342.034.27.018.487-.003.036-.078.15-.05-.226.005-.067.023.197.031-.26m-4.77-14.628c.088-.016.36-.012.543-.01-.041.011-.412.008-.542.01m-5.85 24.094c.16.022.9.005.717-.01-.026-.001-.614.01-.718.01M5.141 34.44c-.017-.305-.023.326-.006.526 0-.09.007-.506.006-.526M8.225 16.12c.011-.006.283-.041.295-.04.223-.01-.54.092-.295.04M5.11 21.7c-.014-.116-.003-.882.012-1.053.021.165.006 1.198-.012 1.053M34.883 29.3q0 .365-.01.699a8 8 0 0 1 .01-.7M9.288 16.06l.05.001zm25.604 7.78c.005-.204-.018-.162-.019-.15-.007.154.013.381.019.15M22.396 40.18c.07.02.415.005.612.01-.057-.016-.453-.012-.612-.01m3.036-24.121c-.256-.022.788-.047 1.009-.033.016.013-.971.036-1.009.033M5.112 35.388c-.016.02.003.459.01.366.005-.06 0-.379-.01-.366m21.854-19.352c.098-.005.327.01.246.02a.7.7 0 0 1-.246-.02m7.44 1.894c-.009-.038-.3-.435-.199-.258.07.122.1.13.118.157.03.026.364.741.082.101M19.58 16.046c.218-.006.481.001.71 0-.094.01-.617.013-.71 0M5.108 33.696c-.007.052-.01 1.493.01.675 0-.048.009-.836-.01-.675m29.785-2.99.003-.15q0 .085-.003.15m.003-3.883c.011.079.014-.318.008-.435-.014-.036-.01.424-.008.435m-14.59-10.792c.132-.007.37 0 .533 0-.028.01-.476.01-.533 0m-9.223-.012c.261.006.582.003.587-.01l.04.006c.02.003.3-.003.421 0 .727.027-2.806.017-.758-.02zM5.08 22.737c-.016.148.004.563.01.455.005-.075.006-.603-.01-.455m.714-5.15a2.3 2.3 0 0 0-.2.34c.103-.171.313-.471.2-.34m-.732 6.288a.7.7 0 0 0 .024.2c.01-.094-.01-.356-.024-.2m29.9 6.123a6 6 0 0 0-.028-.675c.004-.018.008-.066.013-.154.007-.118.014-3.68-.018-1.29-.001.074.014-.028.011.276 0 .02-.012.03-.013.092-.001.143-.01.905 0 1.058q-.002.001-.006.032c-.017.188.036.768.042.661M6.246 17.066a1.3 1.3 0 0 0-.21.234c.073-.082.335-.339.21-.234M5.063 33.74c-.01.166.007.587.016.46.006-.078-.006-.651-.016-.46m.107-14.77c.234-.78.05-.189.068-.313q-.04.155-.068.313m29.751 15.433c.004-.152.036.026.018.193-.005.053-.02-.108-.018-.193M32.882 39.8c.115-.021-.386.197-.2.09.008-.003.193-.085.2-.09m2.06-3.341-.008-.044a3 3 0 0 1-.008-.41c.005.412.02.064.017.41zM11.667 16.007q.003 0 .003.002-.003 0-.003-.002m-6.6 8.763c-.017.12-.015.453.001.354a3 3 0 0 0-.001-.354m29.867 4.553q-.003.022-.006-.018.003-.002.006.018m-29.88-6.346c.012.012.016-.496.015-.516-.021-.292-.016.307-.016.516m.036 14.03a.6.6 0 0 0-.006-.214c-.016-.069-.013.13.006.213m29.757.297c-.03.135-.09.322-.116.35.035-.086.108-.355.116-.35m-1.769 2.411c.134-.096.44-.313.615-.476.026.022-.477.405-.615.476m1.876-9.28c.001-.013.008-.417-.008-.362-.022.08 0 .476.008.362M5.062 36.316c-.006-.097-.018-.02-.024.1-.005.09-.001.207.016.282.014.062.004-.154.008-.282zm-.017-10.504c.01.239.025-.352.01-.434-.002.11-.013.35-.01.434m.411-7.755c-.317.573-.088.283-.051.176.005-.016.059-.19.051-.176m20.68 22.207c.105-.006-.29-.03-.342-.014-.032.01.273.018.341.014m-10.817-24.27h-.094zM4.983 27.974c.066-.528.015-.473.016-.519 0-.099.018-.33.015-.516l.022.642c.005-.17.03-1.638.018-1.669-.015-.044-.01.418-.011.432-.002.02-.044.091-.046.134-.002.07-.003 1.3-.014 1.496m.082-8.622c.018-.103.04-.13.044-.178.001-.016-.014-.021-.008-.078q-.022.127-.036.256m-.023 9.568c-.02.15-.012-.521-.01-.543.013-.114.026.42.01.543M5.04 23.23c0 .024-.007.54.004.535.008-.136.01-.824-.004-.535m.075-4.203c.03-.155.134-.432.102-.407a4 4 0 0 0-.102.407m-.102 16.67c-.039.336.01.177.022-.12-.017-.09-.016.066-.022.12m-.016 1.03c-.025.088.165.912.163.778a7 7 0 0 1-.126-.536c-.001-.034.039.116.003-.14-.006.017-.04-.129-.04-.101m-.009-.752c-.029.333.025.408.025.158 0-.098-.02-.205-.025-.158m.005-1.36c-.005.12-.013.439.005.659l.005-.884c-.01-.034-.006.12-.01.225m26.467 5.762c.238-.004-.307.045-.332.033-.068-.011.227-.027.332-.033m-3.257.372c.074.006.122.026.284.016l-.489-.044c-.126.033.125.022.205.028m.622.123c-.023.001.103.053-.194.018-.201-.023.89-.046 1.088-.023-.218.01-.696-.002-.894.005m1.912.224c.013.004-.402.01-.45.007-.252-.015.382-.029.45-.007m-1.323-.01c.195.01-.236.017-.365.011-.012-.01.335-.012.365-.01m4.709-1.027c.195-.118.29-.31.044-.07-.011.01-.052.075-.044.07m-3.791 1.09c-.195-.01.236-.017.365-.011.012.01-.336.012-.365.01m3.966-1.13c.241-.185.102-.176.074-.152-.116.101-.51.453-.6.515.633-.477.405-.285.526-.363m.855-1.088c.14-.239-.253.35-.33.46.088-.105.293-.39.33-.46m.649-1.552c.039-.145.098-.59.085-.666-.002.165-.081.602-.085.666m.096-.33c.046-.234-.002-.295-.017-.023 0 .01.014.031.017.023m.06-1.274c.021-.143-.03-.306-.032-.074 0 .068.03.09.032.074m-1.32 4.046c.162-.158.324-.4 0-.047q.169-.188.316-.392c-.41.47-.363.453-.49.582-.187.169-.202.12-.172.078-.126.166-.843.679-1.32.858a5 5 0 0 0 1.377-.819c.096-.082.176-.175.252-.25.12-.123.027-.001.036-.01m1.32-5.657c.024-.42-.027-.154-.018.083.001.01.018-.072.019-.083m-5.069 7.14c-.561-.02-.153-.05-1.328-.006.494-.03.027-.022.124-.034.077-.01.367-.002.198-.022.222.022 1.182.016 1.225.02h-.001c.025.001-.039.05-.218.043m5.045-3.9c.09-.142.008-.217.092-.514-.023-.206-.033.075-.096.422-.058.349-.195.756-.26.83.263-.78.154-.528.057-.21-.11.313-.265.68-.005.163-.398.863-.11.292-.156.433-.048.153-.34.61-.31.597q.273-.42.455-.886c-.168.28.102-.336.188-.553q.021-.141.035-.282m-.75 1.691c.03-.02.365-.647.327-.615-.023.096-.56.948-.327.615m-2.413 1.916c.243-.083.605-.249.715-.336-.221.128-.589.274-.715.336M36 29.865c-.016-.297-.02.617-.002.352 0-.013.003-.338.002-.352m.017 6.798c.029-.332-.032-.176-.03.07 0 .014.028-.055.03-.07m-5.584 4.65c-.02.015-.835.005-.98.005.083-.014 1.003-.022.98-.005m1.92-.114c.523-.066 1.13-.449 1.191-.49.067-.036-.025.043-.01.035.044-.004.715-.467.735-.507.02-.018-.113.05.008-.065-.202.278-1.534.942-1.625.921-.057.018.386-.076-.298.106m1.36-.581c-.18.096.3-.208.407-.295.25-.175-.376.294-.408.295m1.057-.863c.053-.04.42-.5.428-.556-.165.224-.53.661-.428.556m1.293-5.919c-.002-.137.01-.514-.004-.535.002.137-.01.514.004.535m-8.41 7.594c.228.011-.299.016-.453.01a6 6 0 0 1 .454-.01m8.494-4.818a3 3 0 0 0 .005-.196c0-.447-.008-1.604-.013-1.795-.009.19-.01 1.374-.008 1.795v.165c0 .024.015.042.016.03m-1.682 3.574c-.116.13-.22.18-.237.193-.166.135-.537.374-.465.305.335-.176.93-.755.702-.498m1.687-6.468c-.007-.561-.028.518-.007.376 0-.009.008-.318.007-.376m-.011 3.103c.003.07-.039.579-.2 1.08a5.2 5.2 0 0 1-.5 1.113c.11-.247.233-.428.366-.767.035-.091.014-.071.018-.081.056-.16.027-.035.062-.134.011-.03.12-.374.175-.696.059-.321.074-.614.079-.515m-1.741 3.44c-.051.105-1.044.746-1.105.735-.166.063.119-.06.43-.251.315-.186.64-.454.675-.484m1.778-3.61c.045.207-.144 1.132-.053.495.008-.06.054-.317.053-.496m.007-2.873a11 11 0 0 0-.003-.623c-.005.084-.009.938.003.623m.036.304c0-.014-.02.123-.018-.151 0-.023.024-.066.015-.411a1 1 0 0 0-.018-.17c-.037.359.033 1.441.021.732m-1.825 6.208c.055-.034-.042.09-.162.163-.052.03.027-.049.162-.163m1.798-8.369c.018.34.021-.728.017-.782-.011.034-.019.748-.017.782m-9.073 9.647c-.286-.004-.108-.019-.122-.02-.61-.021-.448.013-.543.017-.205.008-.172-.033-.517-.016.57-.025.051-.014.035-.029-.064-.06.76.028 1.044.015.04-.001-.253-.02-.152-.026.33-.017 1.354.075.255.06m7.029-1.048c-.094.135-1.131.66-.865.502.06.006 1.041-.639.865-.502M11.759 14.692c.242-.016-.32-.033-.424-.022-.051.006.317.028.424.022m-4.104.082c-.329.084-.638.265-.247.126.04-.015.286-.127.247-.126m19.066-.115c-.3-.022-.283.02-.062.019.078 0 .071-.018.062-.019m-11.47.006a4 4 0 0 0-.364.01c.128.006.559 0 .364-.01m11.565-.012c-.178.008.129.038.347.008-.111.003-.328-.008-.347-.008m9.46 21.348c-.018-.15-.012-.572-.015-.814.022-.026.01.64.015.814M9.045 14.652c-.273.016.31.029.257.008zm26.876 3.266c-.092-.21.142.48.095.284 0-.01-.088-.273-.095-.284m.355 2.975c.004-.15.003-.791-.01-.542-.002.039-.002.53.01.542M26.439 41.58c.08.023-.39.017-.456.013-.027-.001.35-.043.456-.013m-1.67-26.925c-.155.002-.559-.003-.63.01.19-.003.681.014.63-.01m-14.482-.004c-.237-.025-.643-.022-.543.01.448-.002-.055-.03.543-.01m17.53-.025c-.124-.002-.22.029-.205.03.135.014.33-.018.206-.03m-9.356.025c-.007-.013-.407-.007-.353.002.017.002.359.009.353-.002m17.822 16.114c.012-.183.024.376.01.542-.02.08-.011-.519-.01-.542m-4.98-16.128c.008-.007-.085-.014-.192-.014-.158 0-.352.008-.196.018.03.002.116.002.196 0 .098-.001.188-.001.192-.004m4.93 4.21c-.08-.342.087.603.065.975.002.126.007.173.015.042l.001-.042c.019-.2-.06-.939-.081-.974m.076 3.013c.003-.073.07-.037.044.263-.004.039-.021-.145-.025-.113-.003.02-.012.67-.01.7.002.032.023-.006.025.027.003.037-.016.437-.016.647 0 .395.017.438.017.47 0 .095-.012.253-.012.445 0 .965.015 2.44-.023 3.205.016-.68 0-1.33-.005-2.007.037.199-.029-.996.014-.297-.01-.322-.017-3.103-.009-3.34m-29.9-6.626c.164-.134-.746.43-.782.53.101-.098.753-.527.782-.53m4.463-.682c.085-.004.165-.049.606-.026h.002c.129.006-.018.017.005.021.009.002.412.024.077.027-.51.006-.048-.033-.32-.033-.033 0-.548.024-.518.03.003 0 .158-.005.183-.003.097.008.05.022.064.023.044.001.858-.022.977-.002.038.007-1.298.022-1.35.019-.033-.002-.02-.04-.053-.045-.018-.002-.556.013-.625.01l-.047-.004c.08.012-.406.011-.391-.002.008-.005.344-.002.356-.001l.014.001c-.07-.015 1.065-.014.82-.035.329-.012-.047.031.2.02m1.581-.024-.102.012c.576-.01 1.24.01 1.904.01.168 0-.026-.025.195-.018.177.005.372.028.276.033-.023.001-.383-.014-.563-.012-.532.004-.397.026-.428.026-.035 0-.37-.014-.552-.013-.46.001-.67.014-1.297-.003.362-.014.164-.044.567-.035m21.754 1.055c.031.001.373.287.49.4-.026-.01-.354-.31-.49-.4M9.454 41.683c.116-.022-.752-.028-.523-.01.05.005.414.01.523.01M5.31 40.26c-.108-.086.296.293.31.274 0-.002-.3-.26-.31-.274m14.586-25.71c.022-.001.34.004.35.005.212.023-.838.01-.35-.005M3.609 35.329c.014.405.02-.813.002-.44-.001.018-.003.42-.002.44m-.004-1.692c0 .097-.007.528 0 .533.01.009.018-.484 0-.533m24.297-19.093c-.047-.025.52-.006.718-.01.047.025-.52.006-.718.01m-3.583-.019c2.393-.02 1.865.034-.143.012-.003-.016-.008-.01.143-.012m3.064.003c-.087.016-.358.011-.542.01.033-.01.41-.007.542-.01M10.487 41.717c-.15.02-.815-.005-.697-.013.028-.002.752.002.697.013m9.61-27.188c-.056-.024.662-.014.717-.009.222.022-.66.004-.718.01m11.237-.002c.153-.016.582.035.852.096-.125-.015-.617-.092-.852-.096m-1.709-.02.353.002c.264.019-.65.014-.353-.001M27.518 41.75l-.264-.001c-.219-.018.516-.014.264.001"/><path fill="#3784ff" d="M20.834 24.96c.006.005.02.033.028.044-.027 0-.052-.06-.028-.044m1.949 1.894-.018-.061c-.003.058 0 .135-.005.189 0 .009-.018-.014-.019.007 0 .02.023.017.026.047.002.034-.014.189-.014.242.002.202.015.404.006.606-.018-.208-.035.001-.028.06.002.012.045.01.034.219-.006.133-.069.01-.038.231.044-.17.04-.002.042.13 0 .024-.006.21-.004.292 0 .028.023.07.024.108 0 .025-.012.045-.011.083q.004.264 0 .53c-.06-.105-.026.08-.028.089-.016.042-.02-.15-.03-.074l.005.318c.007-.087.049.115.03.152.051-.016-.045.482-.028.558.004.016.03-.088.017.152 0 .026-.016.017-.015.03 0 .008.05.058.023.11-.008.016-.032-.067-.032.063l-.001.146c.07-.15-.026.537-.099.648l.04-.067c-.05.116-.044.141-.053.168-.04.107-.118.244-.165.339-.055.11-.027.126-.114.243l.072-.077q-.08.129-.17.249c.1-.213-.03.04-.043.054-.018.024-.004-.02-.034.02-.003.004.015.01-.033.07-.102.123-.102.089-.147.137-.005.004.022 0-.06.084-.268.254-.003-.008.003-.021.01-.016-.114.033.112-.175-.075.072-.102.06-.11.068l-.14.138c-.06.064.01.027-.001.04-.009.014-.19.128-.203.2-.115.016.026-.067.153-.184.014-.023-.14.086-.149.09-.198.139-.066.096-.095.149-.017.027-.119.055-.02.038-.192.12-.085.03-.099.035-.021.007-.085.054-.095.057-.014.005.025-.03-.028-.007-.008.003-.081.065.03.02-.144.07-.126.078-.19.066-.074.108-.09-.01-.13.001-.109.029-.06.07-.065.075-.033.035-.346.098-.422.114.024-.043.245-.051.291-.075.15-.069-.227.04-.125-.04l-.135.071c-.095-.018.03-.048-.207-.006-.036.034.168-.026.13.002-.023.017-.163.037-.165.043-.002.01.124-.015.106 0-.042.04-.51.034-.156.002-.087.006-.136-.034-.203-.034q-.015 0-.031.004c-.02.003.009.017.031.031.019.012.032.025 0 .034a.8.8 0 0 1-.245-.003c-.008-.025.188.004.194 0 .007-.002-.028-.061-.033-.065-.02 0-.495-.025-.583-.09.028.048-.344-.098-.384-.112-.012-.002.02.034.008.03-.079-.015-.25-.141-.33-.193-.092-.056-.09-.035-.095-.038-.04-.027 0-.017-.025-.033a4 4 0 0 1-.286-.218c-.003-.003.02.046-.032.005-.008-.008.01-.017-.135-.148-.172-.162.093.139.007.086-.082-.134-.102-.107-.129-.14-.009-.012-.057-.111-.127-.203q.08.096.169.183c-.051-.063-.154-.183-.187-.241-.016-.029.02-.021-.02-.079-.008-.012-.095-.026.035.11-.009.025-.05-.055-.077-.086-.004-.005-.049-.005-.058-.062 0-.016.153.052-.083-.217-.007-.01 0 .032-.008.023-.006-.005-.041-.09-.047-.097-.006-.009 0 .037-.008.027-.041-.05-.021-.149.028-.03l-.033-.126c-.022.059-.037-.057-.058-.112-.125-.358-.074-.109-.108-.167-.05-.097.04-.037-.016-.184-.003-.014-.004.18-.05-.19q.015.082.032.162c.033-.038-.036-.194-.037-.207-.02-.145 0-.047-.032-.262-.002-.015.003-.043.004-.073q0-.01-.002-.021c-.01-.055-.013-.027-.016.02-.003.082.003.203-.006.21a2.118 2.118 0 0 1-.01-.37c.018-.044.008.135.03.101.007-.012-.009-.44 0-.526.01-.1.067-.144.003-.144.063-.028.02-.053.02-.066.006-.153.007-.153 0-.284 0-.03.018-.054.015-.064-.002-.006-.022.005-.029-.024-.008-.04.013-.285.024-.303s.005.103.023.081c.002-.088-.002-.172 0-.26 0-.037.014-.018.014-.034a1 1 0 0 0-.016-.128c-.011.013-.004.404-.026.301-.005-.02.025-.09-.011-.079l.024-1.049c.028.201.003.427.006.637 0 .03-.003.127.015.115.005-.179-.005-.401.007-.573 0-.006.017.014.02-.006.005-.039-.022-.164-.015-.185.001-.004.023.068.037.046.035-.056-.043-.07-.042-.118 0-.037.039-.285.015-.347-.026-.066-.015.183-.036.165-.021-.17.001-.34-.001-.5 0-.002-.017.022-.02-.013-.003-.062.02-.078.024-.108.004-.033 0-.148.009-.163a.1.1 0 0 1 .025.025c.01.05-.02.068-.021.072-.001.017.01.034.01.05-.002.025-.012.04-.013.073 0 .024.02.001.019.024 0 .008-.047.097 0 .106.015.002.034-.728.022-.8l-.017.187c.014-.127-.024-.28.032-.29l.011-1.092q.001-.22.04-.437c.025-.112.045-.044.08-.227a2 2 0 0 0-.067.134 5 5 0 0 1 .2-.559c.003-.008-.023-.034.024-.131.043-.086.072-.087.102-.128.025-.035.046-.078.054-.088.006-.008.02-.003.036-.02.048-.056-.02-.032.061-.063l-.026.046c.056-.068.146-.147.078-.04-.012.02-.012-.004-.022.009-.34.542-.059.115.064-.071.048-.035.258-.276.273-.278.015-.005-.013.044.049.007.007-.014.337-.277.232-.163-.023.02-.183.141-.217.176.11-.045.286-.251.316-.265.105-.06-.172.16.057.017.181-.103-.003-.03.06-.082.036-.032.265-.104.243-.14.074-.036.038.004.048.002.01-.003.156-.072.21-.078.006 0-.006.027 0 .027.013-.002.16-.046.167-.048.003-.003-.037-.013-.024-.021.016-.011.164-.036.172-.042.01-.012-.172.03-.146.003.085-.014.221-.05.277-.074a1 1 0 0 1-.126.022c.008-.036.19-.057.13-.025.039-.017.011-.022.032-.037.006-.004.062-.01.073-.015.001-.002-.058-.01-.047-.017a.8.8 0 0 1 .209-.015c.04.008-.102.02-.112.036-.002.002.118.025.12.028.006.025-.125.01-.109.032l.097.012c-.123.021-.349.035-.402.073.177-.04.367-.042.367.017 0 .025-.074.043-.07.049.011.021.113-.006.117-.004q.006.002.005.004c0 .012-.146.026-.152.034-.012.011.055.052.055.062-.002.001-.102.018-.067.033.035.014.12.012.124.014.016.009-.133.025-.137.032-.002.003.08.017.081.023.003.005-.057.02-.078.04-.017.014.034.02.026.022-.007.001-.142.015-.148.019-.009.005.024.015.02.02-.005.006-.049.007-.042.012.005.002.175.036.174.052 0 .023-.173-.015-.01.064l.04-.008c.024.016-.093.05.051.037-.265.048-.03.037-.067.08-.014.016-.112.033-.112.036.012.018.041 0 .053.008.006.005-.078.036-.056.047.01.005.1-.007.105-.005.036.01-.007.027.002.035.006.006.06.003.06.004.003.002-.068.031-.081.042-.01.007.032.014.024.018-.044.02-.147-.01-.046.04.006.003.041-.002.042-.002.023.016-.04.023-.05.04-.017.026.072.003-.001.028.058.01.088.007.153 0-.182.022-.229.096-.04.077-.061.003-.05.04-.068.042-.011 0-.101-.023-.051.051.006.01.055-.01.041.013-.119.01 0 .013 0 .017.003.04-.28.061-.324.093-.051.026-.08.082-.09.087-.036.017-.015-.014-.026-.017-.013-.002-.093.086-.098.087-.022.005-.016-.026-.018-.025-.033.001-.146.108-.18.135.01.01.076-.045.051.007-.027.06-.073.017-.077.016-.21.2-.351.468-.395.752.031.001.049-.184.057-.186.026-.017-.04.283-.044.323q.013-.043.03-.084c.023.038 0 .098-.006.16a.5.5 0 0 0 .001.102c.006.034.021-.032.022-.03.016.038.004.1-.017.054.02.094-.002.08-.004.153 0 .003.017-.028.023.03.003.026.003.17.017.188.006.008.068-.064.015-.073.026-.156-.025-.05-.023-.11 0-.01.03.012.016-.14.053.029.013.204.02.234.013.062.041-.193 0-.24.041.022.005-.018.006-.075.002-.062.015-.035.015-.069v-.025c-.005-.037-.027-.024-.001-.065-.085.043-.006-.085.023-.115a1 1 0 0 0-.001.178l.013-.01v.012l-.002.056-.013-.012c.027.131-.003.163-.003.174-.004.138-.004.297-.004.436 0 .021.027.007.006.16-.007.048-.028.002-.024.057.057.07.011.068.011.088 0 .06.014.095.014.1.002.073 0 .18.002.26 0 .001.018-.04.013.011-.002.019-.077.182-.053.325l.016-.112c-.008.044.011.35.032.275.012-.046-.037-.157.01-.17-.014.102.007.665-.004.708-.002.006-.017-.03-.018-.023-.002.007.002.136-.004.153-.004.01-.013-.047-.018-.042s-.01.165.008.174c-.007-.04 0-.15.015-.092.002.007-.01.046-.008.055.024.084.018-.168.018-.207.024.159-.004.404.012.587-.016.075-.024-.11-.037-.026-.027.175.021.047.023.052.016.043-.069.19-.004.19-.01.064-.018.044-.01.133l.014-.036c.037.1-.057.309-.064.293-.02-.042.01-.151.01-.16-.001-.014-.067-.052-.008-.203-.045-.062-.03.239-.06.102.005.093-.026.473-.007.528.003.006.047-.024.024.07-.01.044-.01-.063-.02-.043-.031.063-.012.918-.01 1.08 0 .01-.014.007-.014.017 0 .032.021.148.015.205.025-.118.027.11.024.169v.002c-.004.058-.027.055-.03.08-.016.105.071.242.046.33.047-.021.02.135.052.195.023.046.09.09.075.021a1 1 0 0 0 .151.2c.01.01-.014.006.001.022.002.001.015-.007.029.006.117.103.043.07.057.099a.2.2 0 0 0 .023.032 1.4 1.4 0 0 1-.167-.16c-.013.043.145.151.182.19.001 0-.016.01-.014.012.014.016.123.088.114.053-.002-.009-.05-.042-.105-.086.017.01.02-.016.023-.014.036.018.102.091.13.112.007.005.014-.007.015-.006.024.019-.006.045.042.028.025.07-.095-.05-.102-.02-.012.036.336.19.348.142q0 .006.012.019c.018.02.12.04.138.036.003-.001.009-.037.013-.037.008.002.127.048.175.027l-.073-.021c.148.011.125-.005.077-.017l-.007-.002a1 1 0 0 1-.084-.025.7.7 0 0 1 .147.002c.039.003.065.008.047.022-.002.002-.026.001-.047 0-.027 0-.05 0-.017.015l.017.001c.026 0 .068-.005.071-.003.015.009-.03.024-.071.037-.03.01-.056.02-.048.03a.1.1 0 0 1 .048-.013c.03-.003.063 0 .093-.007.021-.004.025-.023.027-.023.038-.009.018.012.031.01.008 0 .076-.052.071.005.237-.096.06-.045-.089-.026.046-.024.138-.031.177-.047.014-.005.001-.02.024-.031a2.4 2.4 0 0 0 .335-.129c-.03.026-.01.038.016.02s-.011-.027-.008-.032c.005-.004.128-.08.143-.1-.078.077-.047.08.027.02l-.02.04c.038-.04.144-.102.158-.134.003-.005-.022-.003-.02-.005.013-.025.087-.09.084-.098-.002-.005-.038.018-.034.002 0-.003.043-.02.06-.056.006-.013-.012-.015-.011-.019.01-.029.023.001.048-.048.017-.037.008-.075.039-.12-.111.143-.027.017-.01-.054.003-.012-.026-.013.01-.073-.003.158.044-.03.052-.069 0-.002.02.003.025-.016 0-.002-.013-.003-.01-.02.026-.17.018-.06.037-.09.009-.013 0-.1 0-.122.001-.005.015-.002.015-.023q-.001-.034-.01-.062l-.005-.045c0-.005.021-.005.014-.073-.002-.019-.01-.04-.015-.013a.5.5 0 0 0-.006.13c.004.053.009.113-.009.152-.024.057-.008-.13-.011-.14 0-.004.01.033.013-.005v-.006c-.003-.052-.035-.135-.028-.204.001-.006.032-.065.034-.063s.008.094.018.08c0-.001 0-.059.007-.066.008-.01.09-.034.091-.047.005-.031-.013-.01-.012-.031.003-.044.027-.197-.001-.201l-.005.075c-.003-.14-.015-.08-.02-.1s.019-.015.02-.063c.001-.01-.004-.207-.014-.204.016.11-.014.069-.015.074-.002.02.015.044.015.07-.003.18-.03-.002-.037.04-.002.015.013.044.012.05-.002.02-.021.021-.02.034.004.032.03-.005.032-.002.017.028-.004.138-.033.07-.011.04.025.045.01.078-.028.065-.02-.032-.025-.059-.017-.094-.003-.122-.008-.256-.002-.048-.02-.105-.02-.128 0-.014.06-.147-.035-.15.01-.052.072-.134.069-.187-.003-.048-.036-.033-.038-.037-.002-.007 0-.065-.004-.084-.005-.023-.018-.012-.023-.048-.013-.09.02-.088.023-.098.026-.108-.023-.06-.027-.084-.003-.022.015-.335.003-.401l.02.08c.022-.048-.013-.098.025-.1-.061-.009-.02-.108-.022-.138 0-.011-.01-.01-.011-.025-.002-.057.006-.186 0-.217-.022-.135-.06.209-.062.236 0-.054-.014-.36-.043-.22-.005.022.023.06.024.073.007.082-.018.017-.02.024-.004.01.02.065.017.08 0 .004-.023-.027-.024.052-.021-.038-.004-.26-.009-.29-.002-.01-.048.055-.003-.134l-.013.006-.005-.317c.01.012.03.071.026-.004-.003-.043-.025-.01-.026-.015-.006-.038.002-.721 0-.854-.002-.045-.02-.17-.02-.18-.002-.057.01-.26.008-.3-.002-.026-.02-.002-.02-.024.001-.021.019 0 .02-.005.006-.052-.017-.444 0-.537-.005.057.03.34.043.335a.3.3 0 0 0 .009-.084c.015-.024-.032-.105-.023-.148.001-.005.028.014.032-.064.002-.027-.018-.098.005-.169-.007-.061.002-.28.005-.453.002-.07-.006-.127-.019-.135-.001 0-.006.045-.02.016-.02-.037.036-.008.034-.055a1 1 0 0 0-.038-.139c-.039-.029-.021.082-.026.08a.4.4 0 0 1-.037-.091c.001-.005.06.056.02-.026l-.004.034c-.021-.038.002-.05 0-.06-.006-.033-.055-.048-.032-.117.005-.018.03-.003.03-.006.009-.024-.044-.021-.024-.06 0-.004.05.04-.003-.054l.002.025a1 1 0 0 1-.084-.11c-.021-.037.021-.022-.008-.054-.009.041-.095-.053-.07-.067-.039.011-.098-.084-.14-.116-.026-.021-.09-.046-.098-.052-.009-.009.008-.028-.01-.045-.005-.005-.072-.023-.116-.072-.009-.009-.016-.058.01-.058.044-.002.094.064.105.042.013-.025-.087-.058-.11-.07-.113-.062-.036-.062-.035-.071-.001-.023-.071-.046-.074-.048-.01-.012.046-.012.05-.024.007-.015-.055-.066-.038-.066.026-.002.084.045.088.045.06.005 0-.058-.016-.083-.005-.008.024-.008.02-.012-.076-.052-.035.045-.087.024-.048-.018.022-.025.02-.027s-.06-.02-.068-.03c-.004-.008.167-.008.169-.029a2 2 0 0 0-.159-.032c.003-.029.073.011.081.011.017-.001-.022-.028-.018-.036.003-.005.06-.01.016-.032-.016-.007-.055.003-.111-.03.217.025.076-.026.071-.038-.004-.011.107-.008-.022-.036.007-.055.007-.017.046-.017.048 0-.05-.048.11.014 0-.029-.137-.064-.144-.066s.028-.009.018-.016c-.12-.077-.035-.035-.067-.075-.003-.004-.13-.036-.03-.025.18.024.24.088.294.021-.122-.078-.3-.058-.34-.062-.062-.007.005-.014-.002-.02-.002-.002-.057-.007-.058-.008-.032-.068.246.033.332.054l-.063-.046.096.026c-.148-.06-.004-.01.05-.043.012-.008-.097-.022.03-.014-.085-.034-.054-.036-.138-.044.007-.02.195.012.268.033-.244-.11-.12.004-.331-.09-.047.015.06.035.05.037-.033.006-.102-.034-.197.003-.015.006.04.04-.047.026a.4.4 0 0 1-.062-.03c.01-.017.065-.004.068-.011s-.06-.01-.06-.012c0-.021.053-.002.046-.01-.014-.016-.243-.087.059-.039-.254-.006-.035.015.063.025.025.002.033-.01.07-.006.046.004.097.024.12.028.027.005-.108-.066.096.003-.096-.064-.293-.075-.396-.107-.215-.066.16-.034.199-.023.01.001-.02-.023-.014-.022.013-.002.22.06.245.056.025-.007-.077-.023-.08-.039 0-.014.258.056.123.002-.094-.04-.281-.042-.304-.088q.22.037.43.114a2 2 0 0 0-.218-.126c.166.043.295.114.45.168-.332-.218.136.015.14.022a2 2 0 0 0-.134-.135c.139.04.502.286.32.096a.5.5 0 0 0 .143.077c.004-.03-.214-.159-.17-.153.055.005.093.07.153.112.302.224.313.065.562.373l-.005-.026c.272.335.463.735.552 1.156.056.113.119.384.123.611q.003.089.002.153c-.001.031-.02.184-.024.195-.007.022-.01-.096-.021-.043-.003.012-.011.27.01.252.002-.03-.008-.12-.003-.135.035-.104.007.693.02.733l.021-.053zm-1.836-1.833c-.027-.004-.037-.048-.057-.065-.028-.025-.127-.018-.05-.05a1 1 0 0 1 .107.115m.132.847c.011-.061.056-.014.038.036-.002.005-.053.046-.038-.036m.001-.479.005.033c-.014.029-.026-.06-.005-.033m.044 2.922c-.002-.067-.043-.018-.026.023 0 .003.026-.018.026-.023m0-.048c.037-.052-.037-.157-.03-.073.001.008.029.076.03.073m-.027-2.612c.014.007.007.07.004.096-.013 0-.002-.07-.004-.096m.004 1.591a.7.7 0 0 0-.004-.23c.006.034-.006.227.004.23m.015.56c.002-.006 0-.081-.01-.08-.013.038.002.104.01.08m0 1.111c.002.004.064-.052.024.082-.006.02-.023-.05-.025-.044a.2.2 0 0 0-.007.036 1 1 0 0 1-.003-.134c.017-.029.01.058.01.06m.046.584c.01.013.005.095 0 .113 0 .004-.027-.01-.025.027.002.03.03-.015.025.043s-.024-.02-.025-.015c-.002.007.01.097-.006.095-.012-.003-.004-.1-.006-.123-.003-.03-.023.006-.019-.045.003-.032.037-.014.039-.02.001-.007-.018-.119.017-.075m-.052-.494-.002-.016zm-.1-3.9c-.002.021-.038-.02-.036-.045.01-.006.036.042.036.045m.128 3.958c-.009.093-.02.025-.028-.058.006.027.03.027.028.058m-.015-2.626q-.003.006-.013.006.01-.013.014-.006m-.011.215c.02.074.019-.076.005-.075a.3.3 0 0 0-.005.075m.01 1.747c.002-.007.062.099.017-.054-.007.081-.014-.005-.02-.003-.014.003 0 .14-.006.17.027.024.002-.09.009-.113m.025 2.152c-.015-.018-.01-.077-.01-.117.017.019.011.078.01.117m-2.292-3.567c.015.272-.05.307-.025.058 0-.005.018-.075.025-.058m-.017 2.335c-.028.025-.033-.06-.021-.115.003-.013.031-.06.037-.006-.034-.002-.048.08-.016.12m2.318-.203c.019.026.005.11.003.153-.016-.027-.009-.115-.003-.153m-2.335-1.238c-.002.028.022.048.025.043.009-.022-.01-.076-.025-.043m2.338.97c.011-.004.022.106-.006.114.002-.024-.001-.111.006-.114m-.003 1.628c.006-.017.016.072.01.098-.012-.002-.014-.087-.01-.098m-2.327-2.137c-.002.026-.002.09.008.097.012.01.008-.085-.008-.097m.588-3.776c.004.003-.032.06-.058.069-.052.015.054-.072.058-.07m-.609 3.043c.024-.08.001.01.026.006 0-.055.002-.19-.022-.097-.005.018-.002.066-.004.091m-.008.075c.008.009.033.067.031.017 0-.024-.028-.061-.03-.017m.328-2.874c-.049.017.107-.122.116-.12h.008c.002-.01.032-.034.046-.023-.01.006-.034.026-.038.027h-.004a.8.8 0 0 1-.128.116m-.21.269c-.006-.062.048-.044.047-.039-.006.06-.025.009-.027.01-.005.001-.006.045-.02.028m.158-.222c0-.003.03-.035.031-.035.037-.015-.045.075-.031.035m2.124 5.085c-.005.05-.025.001-.018-.032 0-.003.023-.012.018.032m-2.394-2.218c-.004.011-.019.307.012.29-.004-.025.012-.362-.012-.29m-.008 2.212c0-.052.03.005.018.033-.004.01-.018-.02-.018-.033m2.387-1.233c-.016-.054.037-.043.019.004 0 .002-.018-.002-.02-.004m-2.37.816c.017.18-.074.138-.043-.096l.012.021c.014-.27.006-.018.012.048.001.025.017.004.019.027m-.019.692c-.064.173-.022-.158-.03-.253.026.092.022.212.05.05.005.238-.021.138-.023.148-.002.011.006.047.003.055m0-.457c-.002-.01.011-.086.01-.113.021.038.003.179-.01.113m.03-4.331c-.017-.006-.029-.018-.015-.054.006.013.01.038.014.054m2.18-.474c-.013-.023-.038-.068-.044-.045 0 .002.035.05.043.044m-2.214 3.635c-.003.008-.004.234.015.156.006-.023.003-.229-.015-.156m.002-1.17c0 .02.003.096.007.098.014.005.006-.09-.007-.097m2.148-2.581c0-.004-.055-.062-.056-.05 0 .023.06.063.056.05m.299 5.29c0 .011-.018.025-.018.029 0 .008.006.2-.018.127a6 6 0 0 1 .008-.324c.026-.014.001.104.004.132 0 .005.022.009.024.037m-2.389-4.891c-.016-.01.027-.148.046-.138q-.027.068-.046.138m-.023.068c-.018.026-.004-.044.008-.062.01.003-.005.058-.008.062m-.096 2.542c.003.023.027-.047.032-.031.003.01-.006.06.002.077.002.004.024-.047.023-.062 0-.022-.019 0-.019-.024 0-.077.012-.145.012-.217 0-.007-.012.044-.012-.012 0-.008.018-.06.016-.126-.058-.147-.001-.255-.022-.44-.006.006-.02.145-.02.154-.01.155-.011.434-.011.597 0 .042.012.021.012.04 0 .014-.022-.003-.013.044m2.29-2.889c.013-.023-.024-.051-.04-.074-.01.02.03.048.04.074m-2.25 1.173c0 .022-.006.09 0 .096.01.007.015-.091 0-.096m2.45 4.984-.007.036c-.022.027-.004-.072.007-.036m-.361.707c-.016.02-.031.043-.05.035.014-.009.043-.046.05-.035m-1.022.343c.003.025-.073-.002-.086-.008.008-.009.085-.01.086.008m-1.09-6.743c.01-.047-.028-.044-.006-.071.004-.005.08-.005.043.04-.006.009-.018-.032-.037.031m.023 3.967c-.016-.018-.012-.077-.01-.117.011.01.008.09.01.117m2.084-4.67c0-.032-.09-.087-.08-.059.002.003.07.048.08.06m.371 4.592c.018.066.023-.07.006-.113.001.02-.007.109-.006.113m-1.118 2.872-.049.002c-.037-.016.09-.02.05-.002m.945-.55c.004.022-.07.104-.098.112 0-.03.094-.138.098-.112m-2.308-6.006V25.6a.4.4 0 0 1 .012-.088c.01.006 0 .064-.007.088zm1.197 6.561-.007-.002zm-1.206-5.384c-.005.044.018.035.018.033.007-.034-.013-.083-.018-.033m2.295-1.891c.011-.02-.03-.05-.043-.075-.007.016.03.057.043.075m-2.278 5.489c-.022.055-.047-.17-.033-.218.013-.003.036.21.033.218m2.504-1.295c.015-.005-.004-.1-.011-.08-.005.014 0 .082.01.08m-2.528.964c-.005-.021.01-.07.02-.053.013.022-.018.058-.02.053m-.013-1.9c-.002.01.014.134.03.082.012-.036-.011-.041-.011-.05s.028-.209-.019-.032m.11 3.233c-.017-.026-.023-.064-.032-.094.012.01.038.077.032.094m2.435-1.932c.006-.012.01-.322-.01-.146 0 .01-.01.18.01.146m-2.513-4.05-.005.02zm-.016.739c-.012-.017-.015.069-.009.094.014.008.01-.092.009-.094m.045 5.15c-.011-.015-.014-.05-.02-.072.011.001.028.062.02.073m.907.881c-.034-.015-.079-.026-.083-.013l-.004-.008c-.002-.003-.042-.01-.057-.021-.091-.05.392.093.098.055zm1.469-.672c.024-.012.03-.075.018-.064-.007.009-.042.076-.018.064m-.566.583c.007 0 .053-.038.05-.046-.033.01-.082.048-.05.047m.647-.728c.007-.012-.012-.036-.014-.035-.013.01-.007.052.014.035m-2.566-5.858c-.008.018.004.072.02.094l.005.01a.1.1 0 0 0-.012.034c-.007.025-.015.794.018.278 0-.016-.014.006-.012-.06 0-.004.013-.006.014-.02 0-.03.009-.194-.001-.227q.003 0 .006-.007l.003-.008c.009-.03-.035-.108-.04-.094m1.813 6.637c.013 0 .046-.02.045-.03-.019.002-.074.03-.045.03m.825-2.692c.009-.036-.008-.126-.017-.099-.006.017.006.14.017.1m-.504 2.499c-.118.072-.026.02-.033.046q.017-.022.033-.046m-1.896-7.04c-.015.018-.028-.022 0-.033.008-.003.008.025 0 .034m.782-.574c-.025-.023.07-.028.038 0zm-.61.327c.003.025-.002.033-.035.06.04-.049-.013-.019.035-.06m.522 7.507v-.002zm1.666-.932c.02-.013.029-.062.01-.05-.002 0-.02.04-.01.05m-2.573-5.627q.004-.005.007.004-.004 0-.007-.004m2.5 5.878c-.01-.006-.048.058-.048.06-.002.049.036-.031.047-.06m.13-2.762c-.002-.006-.033.03-.02.053.009.017.025-.032.02-.053m-2.14-4.166c.018-.015.045-.034.059-.026-.014.007-.053.035-.06.026m.465-.236c-.023.024-.082.043-.121.055-.01-.022.097-.044.12-.055m-.965 1.117c-.002.002-.014.061.002.054.023-.01.008-.07-.002-.054m2.623 3.453c.01.04.043-.05.018-.091-.013-.021-.02.085-.018.091m.008 2.196c-.005-.036-.031.048-.018.062.004-.016.02-.05.018-.062m-.62.99c.12-.022.021-.06.01-.043a.2.2 0 0 0-.01.043m.007-7.61c-.017-.003.02.048.034.04.01-.006-.023-.038-.034-.04m-1.567 7.448.01.009zm2.251-1.224c-.065.114-.015.102-.015.112 0 .021-.019.07-.016.111l-.022-.138-.012.154c-.006.067-.02.138-.014.14.015.01.016-.06.017-.062s.045-.012.047-.018l.004-.06c.002-.086.004-.211.011-.24m-.507 1.24c-.017.009-.031 0-.035.008-.001.003.009.015.004.024zm.448-1.444c.02-.032.012.112.01.117-.013.025-.026-.09-.01-.117m-.105.97c.003-.003.037-.072.026-.075-.014.016-.056.108-.026.075m-.383.515c-.022.016-.073.033-.054.049q.028-.024.054-.049m.519-2.947c.038-.073-.01-.038-.023.026.018.02.017-.014.023-.026m.028-.232c.007-.02 0-.227-.02-.195-.008.01.01.13.009.135-.002.009-.024-.03-.02.034.007-.003.029.033.031.026m-.004.172c.03-.072-.024-.088-.024-.034 0 .021.02.044.024.034m-.004.293a.3.3 0 0 0-.006-.142l-.004.19c.01.008.005-.025.01-.048m-1.443-5.12c-.044-.013.056-.022.061-.018.013.012-.041.024-.06.019m.645-.262c-.012-.01-.015-.033-.05-.033q.041.036.08.073c.035-.023-.016-.03-.03-.04m-.09-.156c.005.001-.008-.057.046-.006.035.032-.197-.003-.236-.028.048-.004.148.03.19.034m-.4-.285a.4.4 0 0 1 .109 0c.059.021-.094.022-.11 0m.316.047c-.045-.019.06-.006.088.008.001.01-.081-.006-.088-.008m-1.151.035c-.062-.015-.078.072-.009.03.003-.002.011-.03.009-.03m.937-.127c.047.014-.06.011-.09.005-.003-.01.083-.008.09-.005m-1.001.061c-.077.002-.021.072-.012.072.038-.001.143-.073.166-.087-.174.069-.118.015-.154.015m-.276.184c-.052.038.1-.026.12-.059-.03.015-.105.047-.12.059m-.344.199c-.03.02-.114.084-.117.106.026-.029.114-.086.117-.106m-.088.021c-.054.024-.028.072.01.018 0-.002-.008-.018-.01-.018m-.238.211c-.04.015-.028.08.011.035.012-.013-.006-.036-.01-.035m.827-.666c-.055.014-.103.076.004.033q-.052.031-.103.065c.144-.045.115-.084.156-.1.058-.019.068.023.062.04.035-.044.236-.108.354-.134-.107.01-.28.039-.382.072-.03.009-.053.03-.077.039-.039.014-.011-.015-.014-.015m-1.074 1.005c-.075.083.004.048.027-.009.001-.003-.025.007-.027.01m2.06-1.18c.148.031.036.041.35.042-.134.01-.011.02-.038.029-.022.006-.095-.012-.055.013-.053-.033-.304-.04-.315-.04-.006-.002.01-.051.058-.043m-1.572.505c-.07-.024-.017.06-.106.07-.026.12.208-.177.286-.145-.324.225.249-.097-.03-.018.21-.098.056-.051.08-.081.025-.033.146-.085.13-.102q-.107.06-.206.13c.093-.002-.05.076-.12.08zm.4-.21c-.009.001-.152.095-.137.098.02-.01.229-.132.136-.098m.707-.256c-.06.01-.157.022-.184.05.06-.017.154-.026.184-.05m-1.96 2.202c.01.079.032-.161.008-.093-.002.003-.01.089-.009.093m.723-1.61c-.072.043-.002.06.03.007.002-.003-.027-.009-.03-.007m1.823-.632c.007-.016.222.02.26.03-.025.006-.267-.016-.26-.03m-.485-.031c-.134-.039-.291.063-.308.066s.004-.026 0-.026c-.01 0-.201.06-.209.067-.006.003.039.022.004.046.066-.052.42-.124.44-.125.013-.004-.1-.023.073-.028m-.355.072c.051 0-.081.04-.114.046-.075.013.107-.048.114-.046m-.32.101c-.016.003-.147.063-.15.083.068-.015.186-.09.15-.083m-1.155 1.063c-.017.033-.073.12-.063.132.013-.035.071-.12.063-.132m3.078-1.144c-.055-.034.084.017.12.042a.6.6 0 0 1-.12-.042m-2.685.488c-.027.006-.324.367-.346.431.035-.055.335-.401.354-.412.003-.006-.005-.02-.008-.019m.847-.541c.033-.034.068-.02.073-.022.051-.015.156-.05.138-.025-.093.016-.277.114-.211.047M17.77 24.42c-.067.143.094-.115.059-.09a1 1 0 0 0-.059.09m.522-.683c.009-.043.395-.314.466-.34-.044.058-.101.066-.175.118-.02.014-.008.02-.01.022-.034.025-.016-.005-.038.01-.017.005-.266.237-.243.19m.831-.523c.02-.023.303-.11.316-.106.09-.002-.295.095-.316.106m-.88.534c.012-.062.209-.197.096-.08-.01.011-.069.043-.096.08m-.493.641c-.006.006-.086.154-.077.162.012-.022.129-.236.077-.162m.01-.094c-.001.003.037-.02-.005.047-.003.006-.031.005-.07.098a.1.1 0 0 0-.005.052c.073-.078.176-.379.08-.197m1.362-1.1c-.019-.004.008-.046.046-.043.016.002-.005.027-.046.043m-1.583 1.683c.009-.1-.076.198-.07.215.01-.008.067-.206.07-.215m3.6-1.653c.074.04.02.03.024.033.148.101.12.052.148.061.056.024.027.053.12.093-.153-.068-.02.004-.024.019-.015.059-.172-.14-.255-.163-.011-.004.056.051.027.043-.089-.03-.33-.232-.04-.086m-1.946-.084c.03-.033.32-.086.247-.053-.013 0-.294.093-.247.053m-.019 10.273c-.072-.009.08.06.113.056.016 0-.081-.052-.113-.056m1.144.179c.086-.013.164-.091.061-.065-.01.003-.071.057-.06.065m-2.964-3.48c-.022.064.02.06.02.013-.001-.017-.019-.015-.02-.013m.92 2.818c.005.008.086.07.09.06-.027-.027-.127-.105-.09-.06m-.926-2.839c.008.038.038-.028.009-.075.002.024-.01.071-.009.075m.702-6.28c-.017.043-.102.134-.142.193-.024-.008.11-.155.142-.194m1.904 9.774c.08-.014-.09-.03-.076-.01zm-2.608-5.565c.013.043.031-.093.008-.055zm.008-.592c-.005.032-.003.17.01.117.002-.008.002-.114-.01-.117m3.97-4.12c-.01-.033.108.043.122.059.005.005-.11-.02-.123-.06m-3.973 7.225c.003.033-.003.12.01.135-.003-.04.014-.146-.01-.135m2.236 3.02c.066.037.188.046.16.01-.131-.012.013.034-.16-.01m-2.265-3.678c-.002.027.029.047.03.045.014-.03-.018-.072-.03-.045m.349 2.327c-.012.009.053.11.053.09 0-.005-.045-.096-.053-.09m-.293-7.015c-.02.053-.006-.115.02-.16.024-.02-.019.153-.02.16m-.049 3.942c-.02-.004-.008.13.008.078.004-.013-.001-.076-.008-.078m-.023-1.29c.023.09.04-.289.01-.19a3 3 0 0 0-.01.19m.014-.62c-.002.016-.069.008-.043-.056.003-.009.02.03.025.024.002-.004.012-.145.01-.151s-.023.001-.026-.006c-.002-.008.016-.094.017-.14 0-.085-.018-.094-.018-.1 0-.021.013-.056.013-.097 0-.208-.015-.526.022-.691-.015.147.001.287.006.433-.037-.043.029.215-.014.064.01.07.016.67.008.72m3.338 6.33c-.047.037.22-.043.231-.08zm-1.264.069c-.026-.003-.061.037-.188-.023-.037-.018.01-.015.004-.02-.003-.003-.114-.061-.015-.034.151.039.005.037.085.06.01.004.17.016.163.008-.001 0-.049-.005-.056-.01-.027-.014-.01-.024-.013-.026-.013-.002-.26-.049-.286-.083-.01-.004.384.091.4.09.01.004-.002.04.007.047.005.004.17.015.191.02q.009 0 .014.004c-.023-.014.124 0 .119.013a.6.6 0 0 1-.108-.008l-.005-.002c.02.021-.325-.036-.255-.004-.103-.01.02-.027-.057-.032m-.473-.127h.033a2.3 2.3 0 0 1-.512-.287c-.043-.03-.008.025-.06-.02-.041-.036-.075-.092-.048-.078.006.004.086.082.133.111.14.086.117.044.125.049.01.005.09.07.14.094.128.063.19.08.365.16-.11-.024-.064.026-.176-.03m-1.652-4.93c-.013-.006-.001-.087-.003-.116.013.004.001.085.003.115m5.48-1.316c-.023-.025-.028.162-.01.113a1 1 0 0 0 .01-.113m-.014.84c.006.026.022-.075.005-.075a.3.3 0 0 0-.005.076M17.4 31.85a1 1 0 0 1-.029-.105c0-.069.093.24.03.105m5.36-2.74c-.014-.087-.02.176-.002.096zm.005.365c0-.02.006-.113 0-.115-.011-.001-.019.105 0 .115m-5.527.385c-.025.01-.006-.113-.01-.155.025-.01.006.112.01.155m-.019.773c-.02-.517.034-.403.013.03-.016.001-.011.002-.013-.03m.003-.661c.016.018.012.077.01.117-.01-.007-.007-.089-.01-.117m5.56-2.947c.02.033-.006.176-.014.15-.002-.005.002-.161.013-.15m-5.422 4.772c-.02.025-.073-.195-.07-.213.004-.072.056.198.07.213m-.143-2.67c-.02-.027-.01-.105-.01-.155.017.023.01.113.01.155m-.015.361c-.001-.003 0-.073.002-.076.018-.057.013.14-.002.076m3.9-6.476c.003 0 .074.033.076.035.055.044-.155-.052-.076-.035M24 5.101c-.044-.032-.22-.169-.3-.222.106.04.464.337.3.222m-8.438.815.157-.097c-.16.07-.365.187-.507.267-.023.013.027-.038-.027-.005-.054.032-.032.045-.108.096a7 7 0 0 0-.6.426 6 6 0 0 0-.799.825q-.194.245-.349.524c.281-.512-.041-.021-.1.14-.009.038.005.03-.199.607-.111.38-.092 0-.2.674.147-.504.029-.008-.019.41-.013.07-.072.661-.076.933-.002.092.016.233.015.357 0 .084-.014.149-.014.276v.068c.003.59.004 1.172 0 1.765-.059-.36-.025.282-.028.311-.016.147-.02-.517-.03-.254l.005 1.1c.007-.301.05.398.03.527.013-.013.016.073.016.217l.018.824-.862.02c-.463-.003-1.517-.056-1.718-.043-.055.003.304.029-.528.017-.09-.001-.056-.017-.104-.015-.028 0-.2.05-.382.023-.066-.01.355-.042-.56-.03l-.779.018-.018-.814v-.016l-.002.016.018.816.78-.017c.054.008.048.014 0 .019l-.798.018-.02-.836c-.02-.225-.003-1.372.007-1.622l-.02.184c.018-.303.001-.358.002-.427.004-.276.021-.655.02-.912-.002-.3-.034-.302-.021-.652l-.021.25.005-.727c.041.56.002-.121 0-.166 0-.072.016.031.014-.089 0-.012-.016.006-.018-.179-.004-.382.016-.326.016-.482v-.005c0-.015-.015.04-.016-.253.01-.932.008.006.013.04.002.04.045-.177.044.219q.001.106-.004.285c.005-.195.022-.255.03-.286l.004-.022c0-.026.001-.483.003-.509-.003-.226-.027-.028-.029-.072-.003-.036.046-.59.005-.727.074-.264.027.16.02.605.006.066.04-.424.043-.45.05-.634-.018-.287-.033-.429-.007-.075.05-.333-.013-.096.065-.584.045-.227.052-.264.011-.057.03-.263.036-.288.008-.037 0 .095.028-.052.005-.024.022-.267-.039.04.071-.412.052-.383.117-.515-.008-.3.088-.196.118-.306.086-.292.011-.221.012-.238.002-.114.301-.923.398-1.119-.005.092-.262.636-.29.767-.115.43.225-.585.168-.262q.05-.197.113-.393c.137-.214-.014.109.283-.497.024-.113-.214.427-.18.312.015-.07.197-.419.198-.428-.006-.012-.165.308-.149.253.008-.135.747-1.222.222-.374.081-.136.16-.223.234-.31.052-.061.103-.123.153-.206.08-.123-.48.492.279-.49.034-.005-.297.398-.301.412-.009.017.094-.025.106-.036.028-.05.81-1.04 1.033-1.195-.105.044.682-.662.773-.733.021-.022-.08.036-.056.013.146-.145.607-.455.82-.597.237-.162.199-.154.212-.164.106-.068.028-.003.093-.045.094-.07.789-.47.827-.485.01-.006-.116.037.037-.048.028-.013.017.009.481-.223.564-.27-.406.156-.181.025.379-.14.354-.162.455-.204.036-.014.306-.097.592-.202q-.306.12-.605.256c.2-.082.586-.238.756-.289.083-.025.024.021.201-.038.038-.011.168-.124-.288.062-.045-.007.18-.072.282-.11.016-.006.066-.062.206-.08.035 0-.288.186.594-.126.029-.01-.076.003-.048-.007.019-.008.252-.057.278-.063.026-.008-.09.003-.06-.007.16-.05.382-.038.05.028q.168-.026.336-.047c-.127-.02.173-.046.327-.07.994-.143.325-.081.494-.118.275-.052.07.04.48-.014.037-.002-.447-.014.466-.039h.053l-.043.001c-.14.005-.267.011-.395.02.054.023.241.006.385-.007.09-.007.154-.014.165-.015l.108-.003h.011c.199 0 .073.008.534-.01.047-.003.15.008.25.003.417-.022-.55-.013-.577-.03a29 29 0 0 1 1.072-.002c.063.007 0 .009-.094.011-.135.003-.34.005-.267.018.011.002.114.002.267.002.489-.013 1.442.073 1.676.125.367.067.516.16.532.097.09.082.189.06.235.071.555.139.556.143 1.026.286.104.033.183.081.22.09.022.007-.01-.027.095.004.15.035.982.417 1.034.465.056.038-.35-.16-.285-.108.297.137.58.275.865.439.119.068.051.044.102.074.023.01.432.248.416.235-.021-.056-1.31-.742-.962-.579.069.029.286.178.267.127a11.1 11.1 0 0 1 3.038 2.443c-.514-.545-1.12-1.136-1.756-1.597-.085-.065-.383-.274-.357-.234.552.374 1.197.9 1.637 1.364.014.015-.05-.027.002.03.099.102.434.427.48.492.007.01-.186-.172-.142-.103.11.177.204.166.318.303.096.1.62.863.756 1.05.16.188-.37-.574-.32-.526.39.495.703 1.055.97 1.585.005.01-.021-.08.04.038.106.207.108.272.152.376.048.111.214.506.224.563a1 1 0 0 1-.056-.077c-.078-.17-.077-.24-.083-.257-.023-.06-.059-.112-.082-.166-.038-.087-.05-.14-.103-.255-.036-.078-.019.006-.054-.07-.012-.028-.12-.347-.178-.351.053-.032 1.01 2.507.994 2.795a11 11 0 0 0-.152-.682c.12.458.26 1.01.211 1.059.114.64.169 1.291.167 1.942l-.008 3.076c-.005.292-.041.132-.03.612q.016-.186.034-.372a68 68 0 0 0-.018 1.128l.015.667-.697.016a11 11 0 0 0-.385 0c-.023.002-.054.034-.327.037-.241.003-.28-.022-.41-.026-.108-.004-.23.002-.262 0-.025 0-.034-.015-.094-.018-.187-.008-.035.034-.222-.014l.136-.006c-.226-.007-.536-.029-.202-.04.057-.002.008.013.05.013 1.676-.003.338-.03-.249-.008-.15-.022-.996-.009-1.024-.013-.039-.006.106-.023-.084-.038-.018-.002-.261 0-.483 0l-.557.012-.013-.582c0-.266.004-.502.02-.28.002.035.003.15.002.28l.013.56.535-.012.477.002a3 3 0 0 0-.477-.014l-.524.012-.012-.548c-.008-.29-.032-.582-.032-.632.008-.327.04.628.045-.108.004-.566-.026-.035-.04-.253-.006-.122.027-.762-.016-.745-.005-.22.018-.091.02-.118.001-.027-.012-.46-.003-.6.002-.016.024.037.026.02.003-.035-.002-.452-.003-.468-.002-.011-.021.088-.026.048-.006-.048-.001-.45-.007-.471-.008-.032-.003.464-.025.381.006-.228-.009-.6-.027-.75.006.036.006.258.004.334-.032-.036-.031-.511-.006-.349-.014-.103-.02-.032-.034-.09-.003-.016-.004-.163-.01-.19 0-.005-.013.147-.02.117-.011-.055-.008-.5-.005-.537.008-.102.02.26.033.29.002.005.029-.303.03-.308.026-.018.008.325.03.286l.015-.255c.023.328.011.934.038 1.09-.008-.486-.007-.994.052-.993.025 0 .04.21.046.202.022-.03-.002-.322-.001-.332q.002-.014.004-.013c.013 0 .023.414.029.435.01.035.055-.15.064-.15.002.007.013.302.03.203.017-.101.018-.36.02-.368.01-.05.02.402.025.415.003.008.022-.235.028-.242.005-.006.017.178.034.251.013.054.023-.104.025-.076.001.02.001.447.003.468.004.031.019-.069.023-.054.005.02 0 .158.005.14.005-.013.057-.548.072-.544.023.006-.032.572.063.045 0-.004-.006-.132-.005-.135.017-.08.044.332.04-.171.03.935.035.116.076.255.015.053.022.416.024.417.02-.035.005-.15.014-.19.006-.021.026.303.04.23.007-.038.005-.382.006-.396.013-.136.027.03.036 0 .006-.02.006-.227.007-.232.003-.009.027.273.036.332.007.045.017-.123.02-.092.018.188-.027.587.035.202.004-.023.003-.169.003-.173.018-.09.02.178.034.226.025.082.011-.303.029.017a7 7 0 0 0 .01-.655c.013.779.078 1.054.076.189 0 .275.036.244.036.326 0 .051-.036.45.046.268.01-.023-.003-.266.018-.19-.006.582.013.013.016.012.047.007.008 1.428.014 1.673.006.283.044.535.044.596 0 .203-.02.035-.026.08-.007.046.03.622.027.651-.008.112-.03-.002-.032.01-.008.082-.005.39-.002.671l-.595-.594c.191-.002.37-.004.458-.002-.007-.014-.442-.016-.17-.04.316-.027.334.038.342.041l2.926-.001-.597.596v-1.421c-.035.018-.009.965-.013.986-.027.127-.027-1.473-.015-1.67l-.022.448c-.04-.255.012-.818-.006-1.187-.005-.119-.02.11-.022.105-.015-.134-.003-.348.018-.188-.02-.326.002-.279.003-.53 0-.012-.016.095-.022-.103-.003-.093-.003-.588-.018-.654-.005-.027-.067.224-.014.255-.026.539.024.172.023.381 0 .032-.03-.041-.016.486-.054-.1-.013-.708-.02-.812-.013-.214-.041.67 0 .832-.041-.076-.005.063-.007.26-.002.216-.014.122-.014.238 0 .32.03.187.002.45.083-.256.011.451-.01.657l-.013-1.006-.013.058.002-.265.012.042c-.026-.455.004-.566.004-.603.003-.379.003-.803.003-1.203a10 10 0 0 0-.004-.29c-.004-.067-.02-.018-.034-.509-.008-.155.027-.01.007-.187-.08-.215-.037-.215-.045-.28-.025-.187-.06-.3-.062-.316a10 10 0 0 0-.176-.811c-.001-.005.015.128-.021-.034-.012-.056-.08-.585-.273-1.006q.058.17.11.342c-.027-.14-.432-1.038-.356-.808.05.138.23.452.2.507-.06-.33-.95-1.901-1.057-2-.01-.017.07.073.057.05-.009-.02-.253-.353-.284-.399-.017-.028.1.113.096.098-.002-.015-.317-.427-.354-.435.09.092.303.378.176.24-.017-.018-.085-.123-.105-.144-.188-.197.322.432.387.54-.308-.404-.796-1.024-1.239-1.414-.162-.175.271.228.086.031-.39-.403-.123-.086-.137-.097-.109-.085-.415-.457-.458-.405-.151-.135-.094-.102-.328-.268l.082.078c-.269-.167-.782-.61-.739-.587.128.054.404.276.428.293.035.026.182.036.529.386.188.085-.598-.493-.225-.25-.23-.194-1.276-.86-1.454-.905-.02-.006.05.074-.215-.077-.127-.071.189.078.133.04-.134-.208-2.812-1.005-3.36-.937-.034-.003-.02-.015-.054-.018-.103-.01-.48-.01-.666-.016.211.018.08.02-.113.023a21 21 0 0 1-.467 0c-.307-.004-.288-.028-.42-.033a7 7 0 0 0-.553.002c-.388.016-.804.072-1.059.072.028.045-.641.07-.937.148-.232.054-.552.184-.239.119a9 9 0 0 0-1.15.4c-.059.025.016-.023-.083.02-.009.004-.016.023-.1.061-.688.33-.363.15-.497.202a3 3 0 0 0-.167.076c.393-.214.868-.417.997-.466-.126.002-.908.4-1.13.525-.009.004.01-.027.001-.023-.088.04-.608.365-.488.319.032-.013.27-.164.562-.323-.077.046-.008.033-.021.041-.166.098-.58.325-.72.417-.032.021-.022.03-.028.034-.127.083-.098.016-.203.138-.255.118.422-.298.362-.289-.072-.029-1.46 1.073-1.405 1.124a.3.3 0 0 0-.069.045c-.09.064-.431.42-.48.49-.01.01.022.03.01.044-.032.03-.443.468-.556.664q.114-.141.235-.276c-.45.572-.362.497-.212.307q.01-.014.023-.027c.118-.145.277-.326.282-.326.01-.005-.381.495-.535.714-.058.078-.087.113-.062.056l.045-.068c.089-.13.269-.366.124-.2-.017.02-.079.108-.135.193-.052.076-.097.15-.103.157-.033.04.014-.056.082-.171.097-.165.23-.366.185-.33-.056.099-.13.206-.206.315a3 3 0 0 0-.148.235c-.047.084-.042.114-.048.124-.082.158-.05.062-.078.114-.018.027-.132.361-.154.278-.384 1.11-.125.29.208-.331-.093.202-.278.6-.338.792-.022.068.009.034-.026.15-.096.225-.357 1.413-.373 1.744.014-.198-.012-.143-.027.01-.013.154.026.027.026.058-.005.03-.064.754-.059.878.012-.55-.015-.428-.033.04l-.011-.204c-.002.174-.02.468-.025.704a5 5 0 0 0-.002.324c.001.026.019-.067.02-.052.007.145-.01.638-.005.661.005.02.02-.19.026-.113.002.017-.021.22-.016.42.002.074.019.029.02.048.007.155-.02.063-.016.348.004.208.03.364.021.652.034-.946.02-.151.03.244.002.064.032.01.017.388-.053-.806-.028.23-.028.442 0 .011-.02.016-.02.12 0 .008.013-.004.014.092.01.916-.005.33-.018.504-.006.075.013.52.013.64 0 .026-.012.016-.013.104l-.654-.655h.018c.188 0 .358-.015.482-.016.015 0 .015.021.252.014.066-.002.14-.01.046-.016-.198-.012-.508-.003-.798 0l.672.673a7 7 0 0 1 .005-.462c.013-.216.018.168.02.462l-.697-.697.286-.001c.019 0-.18.01.022.012.172.002.487-.035.744-.027.02 0 .225.032.215.034-.008.001-.323.008-.278.017.006.001.206.001.232.008.032.008.119.089.161.091.11.005.039-.013.11-.012.152.003.68.026.697-.002l-.262-.005c.486-.002.279-.014.347-.02.074-.005.054.02.217.022.036 0 .72-.005.708-.015-.379.016-.238-.014-.256-.015-.066-.002-.15.015-.24.015-.626-.003.006-.03-.142-.037-.051-.002-.152.012-.174.012-.07-.003-.071-.022-.118-.02-.11.003.018.03.01.032-.098.017-.48-.004-.242-.034-.143-.01-.16.025-.273.011-.225-.028.112-.02.204-.026.327-.017.425-.003.889-.008.162-.001.352-.017.435-.02l-.684.685v-.008c-.001-.049.06-.51-.035-.524.009-.179.071-.46.068-.645-.002-.166-.036-.113-.037-.128-.002-.024 0-.225-.004-.292-.006-.08-.018-.04-.024-.166-.013-.314.021-.306.024-.338.025-.375-.023-.21-.027-.294-.003-.068.01-.912.006-1.271q0-.078-.003-.121l.008.12.012.162q.01-.084.008-.161c-.001-.105-.008-.188.018-.19-.062-.034-.016-.39-.013-.497.001-.042-.01-.04-.008-.093.004-.207.046-.679.055-.794.023-.498-.129.766-.12.86-.005-.192.087-1.328.008-.809-.012.08.004.226.002.27-.013.305-.022.064-.026.088-.007.04.006.241.001.294-.001.017-.02-.096-.03.191-.024-.14.05-.958.065-1.068.006-.04-.084.2.069-.508l-.017.022c.065-.399.158-.803.295-1.203-.006.046-.061.276.03-.007.056-.162-.008-.05-.003-.065.023-.074.296-.863.848-1.533a8 8 0 0 1 1.179-1.172c.134-.113.526-.409.56-.427.18-.134.885-.5 1.033-.557.09-.042-.004-.02.078-.055.076-.032.004.018.027.01.173-.112 1.645-.566 2.019-.552-.227 0-1.298.297-1.267.319.005-.001.266-.063.318-.082.091-.01.387-.127.558-.147.02-.001-.051.034.25-.008.103-.014.374-.07.65-.063.084-.008.245-.016.446-.015.334 0 .794.006 1.185.007.446.001.809.044.868.04.005-.003-.289-.042-.089-.033.267.015.024.036.329.083.049-.005.89.171.915.188.26.04-.466-.166-.457-.159.029-.01.64.145.661.16.023.01-.478-.102.114.064L21.55 3.9c.28.076.297.115.362.139.202.078.44.125.733.322.077.052-.067-.001-.057.006.09.063.24.083.367.193.009.01-.333-.162.249.17l-.114-.079c.09.033.662.402.73.465.21.166.01.043.222.206-.109-.14.515.39.455.385.113.047.573.57.765.833.128.16.377.499.409.556.04.07.007.062.077.187.02.035.254.396.383.75.026.067.047.223-.016.105-.105-.204-.278-.602-.299-.584-.016.016.261.527.313.676.252.677.07.3.07.32 0 .05.124.421.125.438.012.067-.086-.192-.1-.192-.016 0 .065.366.034.286-.038-.114-.126-.446-.136-.465-.115-.26-.013.116 0 .223.005.032-.045-.086-.038-.06.102.392.08.064.154.324.06.234-.048-.058-.047-.049.003.012.078.29.079.336.009.02-.252-.68-.27-.639q.125.331.215.674c-.021.025-.087-.309-.102-.341-.026-.066.015.127.004.121-.007-.003-.09-.217-.041-.016.016.07.078.208.111.466-.237-.869-.104-.257-.107-.231-.003.027-.13-.379-.001.12-.05.035-.019-.007-.064-.146-.06-.169.04.231-.131-.398-.009.043.13.545.13.574.003.023-.036-.086-.03-.045.053.487.005.155.002.299.002.012.061.465.002.122-.12-.62-.186-.879-.29-.955.118.448.266.99.284 1.132.03.214-.015-.006-.016.021 0 .01.024.194.023.197-.035.137-.116-.82-.23-1.104l.036.24a7 7 0 0 0-.089-.315c.125.506.003.017-.086-.09-.019-.023.101.293-.045-.065.08.273.044.188.125.433-.016-.004-.2-.55-.302-.754.25.76.18.306.317.986.052.121-.026-.202-.018-.176.038.091.069.316.16.582.015.043.013-.15.052.13.005.031.003.213 0 .21-.018-.021-.032-.199-.041-.205-.007-.006.02.19.018.191-.02.008-.027-.163-.03-.138-.008.057.022.76-.07-.154.115.757.049.092-.018-.2-.016-.074-.032-.09-.059-.196-.034-.135-.07-.293-.091-.362-.025-.073.07.355-.101-.255.076.313.23.862.242 1.18.028.637-.1-.433-.147-.536-.007-.03-.004.072-.009.053-.001-.034-.147-.622-.186-.673-.031-.052.067.212.056.234.002.012-.25-.669-.128-.296.088.255.24.734.21.825a6 6 0 0 0-.345-1.137q.098.312.163.63c-.127-.423-.254-.787-.467-1.149.386.927-.173-.276-.207-.273-.003-.003.149.36.166.42-.148-.315-.758-1.162-.455-.632a1.7 1.7 0 0 0-.232-.291c.008.037.343.507.271.441-.079-.079-.135-.224-.237-.358-.55-.662-.48-.41-1.096-.985l.03.042a5.8 5.8 0 0 0-2.437-1.23 9 9 0 0 0-1.302-.092 28 28 0 0 1-.544.003 33 33 0 0 1-.673-.024c-.02-.002 0-.004.032-.005.083-.004.24-.008.113-.016-.008 0-.05-.002-.113-.002-.218-.01-.711.035-.664.049.087-.01.362-.04.407-.035.16.015-.37.015-.936.135a5.4 5.4 0 0 0-1.205.396l.154-.045q-.211.083-.416.183m7.75-1.218c.111.043.35.218.493.317.2.131.567.335.38.284a7.5 7.5 0 0 0-.874-.6M18.468 3.57c.21.011.047.057-.126.038-.019-.002-.16-.053.126-.038m2.36.156-.219-.04c-.179-.05.43.063.218.04m-9.515 5.052c.056-.254-.028-.08-.044.083a.3.3 0 0 0 .044-.083m.043-.18c.08-.187.134-.604.045-.286-.01.03-.05.295-.045.286m7.864-5.01c-.024.014-.242.007-.335.004.003-.013.244-.002.335-.004m-5.696 1.66c-.007.005.68-.491.728-.524-.116.067-.732.502-.728.523m-1.474 1.637c.011-.02.183-.28.172-.277-.102.116-.234.36-.172.277m-.973 4.125c.003.014.066-.187.02.293-.006.07-.02-.181-.023-.157a2 2 0 0 0-.008.128c-.004-.224 0-.459.005-.482.02-.106.004.212.006.218m.043 2.038c.01.044.004.328 0 .393 0 .01-.027-.037-.025.09.002.103.029-.05.024.15-.004.202-.023-.068-.025-.05-.002.023.01.336-.005.326-.012-.007-.004-.342-.007-.425-.003-.106-.022.023-.018-.155.003-.111.037-.05.039-.073.001-.02-.019-.409.017-.256m11.585-8.665c-.106-.065.228.085.341.167-.003.01-.323-.16-.341-.167m-11.61 7.154c-.007.29-.018.125-.025-.12l-.002-.083c.002.04.008.062.014.084.008.03.015.056.014.119m5.222-7.677q-.023.002-.028-.006c.04-.004.045 0 .028.006m-.802.247c-.26.123.284-.088.278-.096a3 3 0 0 0-.277.096m-4.268 4.995c.007-.025-.007.381.055-.201-.066.306-.01-.02-.016-.016-.021.01-.096.529-.113.64.014.093.05-.339.074-.422m-.974 5.203c.064-.016.268-.01.406-.01-.065.016-.269.011-.406.01m18.218-5.802c-.27-.827-.26-.952-.03-.186.006.015.051.235.03.186m-4.53-5.71c-.059-.065.184.062.33.165.034.023.146.126-.002.042.023-.027-.199-.174-.328-.208m-12.847 8.925c.018.093.005.38.002.532a4 4 0 0 1-.002-.532m16.22-5.826c-.048-.078-.104-.115-.097-.101.033.064.143.197.097.101m-16.208 4.875c.01-.013.013.383-.014.41.002-.084.006-.4.014-.41m-.594 3.547c.06.005-.247.016-.34.01.008-.012.302-.014.34-.01m15.889-9.588a2 2 0 0 0-.218-.222c-.028-.013.182.203.218.222m.386 9.769c.004-.011.037.333.029.486-.016.29-.032-.474-.029-.486m.983-7.859c.1.242-.014-.025-.03-.003.083.153.27.547.161.267-.021-.055-.094-.19-.131-.264m-.108-.214c-.021-.021-.137-.17-.054-.031.038.064.121.157.053.03m-.508 8.361c.251.022-.902.01-.935.007l-.036-.006a1 1 0 0 1-.13.005l.74.74c0-.07.004-.142.014-.156l-.001.155-.753-.752.13.003c.076-.015.922 0 .97.004m1.91.023c-.287.032-.338-.023-.314-.024.314-.023.11.018.12.02.021.002.244-.016.194.004m-1.519-.014c-.012.001-.253 0-.263-.002-.198-.018.486-.013.263.002m-16.407-.22c-.006.174-.026.004-.018-.11 0-.01.023-.042.018.11m16.455-8.259c-.005-.04-.52-.845-.518-.775.063.055.62.982.518.775M22.16 1.989c.16.05-.022.023-.105-.012-.031-.013.065 0 .105.012M11.18 10.227c-.002-.2.048-.155.018.016-.002.006-.018-.008-.018-.016m12.228-7.744c-.538-.216-.37-.261.299.098l-.07-.021c.765.417.054.026-.143-.057-.073-.033-.019.01-.086-.02m-2.103-.711c-.537-.17.505.071.798.166-.293-.058-.666-.153-.165.005-.743-.185-.43-.125-.459-.138-.035-.01-.152-.026-.174-.033m1.415.403c.031.009.253.11.334.142-.12-.03-.54-.204-.334-.142m6.173 11.893c.018.022.03.075.024.282-.009-.064-.016-.196-.024-.282M23.45 4.894c.132.085.382.276.315.205-.006-.01-.308-.215-.315-.205m2.454-.75c-.015-.025-.566-.5-.387-.323.058.049.545.496.387.324m2.176 3.047a4 4 0 0 0-.14-.28c-.019-.009.117.261.14.28m-4-1.813c.017.011.38.327.344.287-.06-.082-.395-.338-.344-.287m-12.314 9.02c-.037 0-.085-.019-.097-.019-.03 0-.695.007-.44-.017.024-.002.357 0 .656.002l-.719.719.006-.468c.025-.048 0 .36.003.46l.002.008.708-.708c-.015.005-.036.02-.119.023m17.145.746c.007.014.014.196.016.383l.703-.702c-.21.003-.424 0-.42-.01l.42-.003-.716.715zm.002-.397c.012-.167.016.224.01.34a3 3 0 0 1-.01-.34m-1.436-8.8c-.043-.06.058.144.027.103-.02-.026-.1-.168-.136-.208-.01-.01.063.141.089.182.037.057.017-.009.057.055.13.21.228.409.336.614.01.02-.055-.131.028.028.013.024.073.181.165.374.249.408.327.753.518 1.322a7 7 0 0 0-.132-.482c-.148-.482-.53-1.305-.81-1.754-.069-.116-.046-.054-.076-.103-.025-.04.024-.005-.066-.131m-4.104-1.088c.051.058.278.192.411.294-.034-.052-.275-.203-.411-.294m5.558 6.378.001-.154c.001-.078 0-.156-.003-.166a.8.8 0 0 0-.008.166.7.7 0 0 0 .01.154m-19.647 3.27.001-.198c.019-.164.015.386 0 .197m.005-4.379c-.002-.134-.006-.269.013-.313-.005.084 0 .329-.013.313m1.64-5.176c-.036.005.232-.28.285-.331-.013.026-.26.326-.285.331m18.039 9.086c-.002.255.034.201.018.364-.003.026-.078.112-.05-.17.005-.05.023.148.032-.194m-5.153-11.4c.06.013.226.107.336.173-.03-.005-.255-.133-.336-.173m.889 3.34c.08.106.487.561.4.437a9 9 0 0 0-.4-.436m-13.517 6.39c.018.227.023-.245.006-.394 0 .067-.007.378-.006.393m-1.045-6.345c.003-.01.115-.19.121-.197.106-.138-.207.371-.121.197m-.883 5.542a7 7 0 0 1 .012-.788c.021.123.007.896-.012.788m19.698 1.42q0 .273-.01.524c-.012-.035.001-.504.01-.523M10.59 5.357q.01-.014.023-.027zM28.75 9.059c-.026-.14-.041-.107-.04-.098.017.106.068.258.04.098m-5.235-4.067c.037.049.277.199.402.304-.026-.043-.291-.234-.402-.304M20.72 1.631c-.175-.05.553.035.7.089.008.01-.674-.089-.7-.09m-9.503 10.028c.01-.01.005-.166-.002-.242-.003-.036-.006-.055-.009-.032l-.001.032c-.002.079.004.25.012.242m10.558-9.846c.068.012.219.07.162.063-.073-.007-.18-.066-.162-.063m5.102 3.273c-.016-.026-.29-.324-.194-.186.066.095.095.095.113.116.022.021.398.55.08.07M16.563 1.671c.149-.032.332-.053.49-.072a5 5 0 0 1-.49.072m-5.343 11.253c.007-.04.01-1.117-.01-.505 0 .036-.009.625.01.505m17.747 1.114q0-.048.002-.113zm.002-2.904c.004.022.007-.005.01-.051a2 2 0 0 0-.005-.258c-.011-.019-.007.166-.006.258zM17.065 1.582c.09-.018.257-.029.37-.038-.018.01-.33.042-.37.038m-5.688 2.795c.132-.127.294-.283.287-.295l.025-.014c.012-.008.152-.145.22-.198.374-.344-1.39 1.393-.406.347zM9.229 12.34c-.016.111.004.421.01.34.004-.055.006-.45-.01-.34m.133-4.152c-.009.03-.037.313-.029.322.028-.162.065-.459.03-.322M9.21 13.19a.4.4 0 0 0 .024.15c.01-.07-.01-.266-.024-.15m19.827.318a3 3 0 0 0-.028-.504q.005-.019.012-.116c.007-.088.015-2.751-.018-.965-.001.056.014-.02.011.207 0 .015-.012.023-.013.07-.001.106-.009.675.001.79q-.003 0-.006.024c-.018.14.035.574.04.494m-19.57-5.87c-.018.054-.05.23-.043.251.02-.087.082-.375.042-.25m1.8 5.253c.008-.124-.008-.439-.017-.344-.006.059.006.487.016.344M9.24 9.44c.053-.677.008-.162-.002-.267q0 .135.002.268m19.114 5.452c.114.003-.02.035-.144.018-.04-.006.08-.02.144-.018M26.7 12.685c-.029.097-.012-.376.007-.192.001.009-.006.185-.007.192m.113 2.23c.077-.02.127-.022.344-.018-.321.006-.023.023-.344.017M11.662 4.081h.002zM9.215 13.86c-.016.09-.015.339.001.265.002-.008.011-.228-.001-.265m19.794-.855q-.004.015-.007-.014.003-.001.007.014m-19.807-.485c.012.009.017-.371.015-.386-.02-.218-.016.229-.015.386m2.11-2.175c0-.02-.04.11-.03.191.006.063.03-.114.03-.191m14.763 4.578.604.605c0-.12 0-.288.015-.32-.002.077-.003.302-.013.32l-.607-.607q.002 0 .001.002m.603-2.052c.018.142.018.467.015.675-.023.003-.01-.541-.015-.675m2.35.965c.001-.01.008-.312-.007-.27-.023.06-.001.355.007.27m-17.757-2.883c.008.14.047-.18.028-.329-.01-.076-.03.306-.028.329m-2.077 3.687c.009.178.024-.263.008-.325 0 .082-.011.261-.008.325m.064-5.99c-.1.527.014.245.015.15 0-.013-.013-.163-.015-.15m16.31-1.413c.053.07-.101-.216-.139-.24-.022-.017.108.194.14.24M9.766 14.544c-.395-.066-.354-.015-.388-.016-.074 0-.246-.018-.386-.015l.48-.022c-.08-.003-.54-.014-.878-.018l.61.61a6 6 0 0 0 0-.37c-.015-.033-.01.313-.012.323-.001.008-.013.026-.025.047l-.573-.574c.018.01.038.02.053.021.053.003.972.003 1.119.014M9.19 9.77c.007-.087.025-.111.022-.152 0-.014-.016-.016-.019-.063zm1.281 4.715c.112.02-.39.012-.405.01-.086-.013.314-.026.405-.01m-1.284-1.776c-.002.018-.008.403.003.4.008-.102.01-.617-.003-.4m.008-3.212c.007-.13.039-.373.013-.347q-.009.172-.013.347m2.121 1.93.002-.01c.03-.203.002-.152-.016 0l-.008.1c.017.067.016-.05.022-.09m.044-.825c.004-.07.054-.82.027-.708-.013.04-.027.473-.028.493-.003.03-.019-.109-.026.12.008-.012.024.12.027.095m-.018.613c.031-.255-.02-.314-.024-.121 0 .075.02.157.024.12m-.006 1.021c.005-.09.013-.328-.005-.493l-.005.661c.01.026.006-.09.01-.168m15.204-.863c-.015.198-.02-.257-.017-.277.012-.057.024.189.017.277M25.83 8.91c.012.055.005.096.05.21a7 7 0 0 0-.075-.366c-.065-.08.012.096.025.156m.016.484c-.005-.016-.03.087-.055-.135-.012-.153.21.634.196.787-.033-.16-.095-.511-.14-.652m-.013 1.418c-.002.01-.027-.29-.029-.323 0-.183.053.273.029.323m-.1-.949c.016.14-.048-.164-.065-.255.008-.012.064.234.065.255m.06 3.514c-.035.158.04.299.025.056 0-.011-.023-.062-.025-.056m-.03-2.852c-.003-.14.03.167.027.26-.008.01-.026-.24-.028-.26m-.054 2.963c-.025.21.06.136.063.11.014-.108-.02-.477-.028-.552.013.552-.023.344-.035.442m.051.964c.01.194.026-.301.003-.396.001.097-.006.341-.003.396m.417 1.417c.105.003.415.01.467-.003-.114.003-.423-.01-.467.003m.236.04c.163.019.202-.034.014-.019-.007.001-.02.018-.014.02m.916.02c.107.02.23-.03.056-.032-.051 0-.067.03-.056.031m-1.711-2.18c-.01.154.027.351.031.024l.017.345c.02-.428-.03-.397-.028-.52.003-.172.045-.158.058-.124-.026-.14-.026-.739-.03-1.085-.012.304-.03.798-.037 1.097-.002.086.01.17.008.242-.002.117-.019.013-.02.021m2.916 2.18c.314.024.115-.027-.062-.018a.3.3 0 0 0 .062.018m-2.906-5.002c-.002-.391.075-.116-.084-.923.085.336.025.015.048.08.019.052.038.254.041.135.01.157.052.829.04.86-.002.018-.05-.027-.045-.152m.55 5.077c.105.062.147-.037.353.015.167-.046-.153-.036-.456-.035l-.446.01-.01-.467c0-.193.003-.378.028-.427-.008 1.12.063-.74-.032.042.034-.645-.012-.211-.024-.311-.013-.106 0-.471-.022-.452l.005.67c.05-.22.035.237-.006.391l.014.087.011.504.482-.01zm-.533-1.635c0 .022.006.507.016.475.007-.064 0-.753-.016-.475m-.01-2.135c0 .174-.01.443.008.538 0-.174.01-.443-.009-.538m4.44 1.174c-.016-.222-.02.462-.002.264.001-.01.003-.253.002-.264m-3.391 2.587c.225.019.119-.042-.049-.026-.01 0 .038.025.049.026m-1.08-5.385c-.01-.014-.066-.578-.092-.676.033.052.118.69.093.676m-.025 1.318c-.054.346.008.816.007.868-.002.051-.025-.03-.026-.018-.001.027.001.573.003.6 0 .018.034-.08.044.032-.019-.22-.007-1.218-.01-1.27-.003-.04-.038.263-.018-.212m0 .997c.013-.137.015.246.01.338-.011.206-.012-.32-.01-.338m-.013.92c-.003.043-.006.438.01.471.02-.186-.003-.57-.01-.471m3.214 2.19c.102-.003.384.01.4-.004-.102.002-.384-.01-.4.003m-3.726-7.258c.049.148-.091-.184-.134-.28.008-.01.132.267.134.28m1.668 7.346c.06.004 1.297-.006 1.47-.013-.169-.01-1.395-.01-1.45-.006-.017.002-.028.018-.02.019m-1.249-2.624c-.02-.114.004-.188.005-.202.003-.14-.002-.431.017-.367-.007.247.018.795-.022.569m3.395 2.625c.42-.008-.387-.028-.281-.008.007.001.238.008.28.008m-2.284.004c-.037.007-.25.008-.509.008l-.595.014-.014-.623c0-.397.006-.9.006-1.02.03.178.007.321.008.56 0 .065.013.048.013.055 0 .111-.014.028-.014.097l.004.308.014.605.578-.013c.265-.003.59-.005.509.01m-1.124-2.694c-.012-.07-.016-.842-.013-.873.022-.232.017.813.013.873m1.237 2.72c-.133.035-.747.012-.327-.005.04-.002.21.013.327.006m2.126.002a6 6 0 0 0 .466-.003c-.063-.004-.701-.008-.466.003m-.227.037c.01 0-.092-.021.113-.019.017 0 .05.024.307.016a.7.7 0 0 0 .128-.019c-.269-.037-1.078.034-.548.022M25.44 13.42c-.01.041-.04-.059-.025-.15.007-.038.024.034.025.15m4.828 1.526c.018.255.022-.544.017-.585a9 9 0 0 0-.017.585m-5.487-6.442c-.08-.173-.015-.073-.018-.082-.169-.373-.153-.259-.186-.313-.077-.113-.029-.117-.169-.302.227.31.032.02.038.003.03-.07.246.45.334.618.014.022-.058-.162-.022-.103.124.19.306.856.023.179m.632 4.697c-.018-.1-.001-.853.013-.653.003.032.012.799-.013.653M10.815 3.073c.132-.143-.21.15-.259.218-.025.033.2-.156.26-.218m-2.03 2.441c-.111.218-.157.475-.039.2.012-.029.059-.22.039-.2M21.925.432c-.23-.076-.225-.031-.053.007.06.014.06-.005.053-.007m-8.86 1.004c-.022.01-.263.147-.25.15.092-.047.392-.214.25-.15M22 .444c-.14-.026.09.059.267.077C22.18.499 22.015.446 22 .444m5.16 15.803c.112-.017.428-.012.609-.015.02.023-.48.011-.609.015M9.35 4.667c-.115.186.17-.184.129-.161a5 5 0 0 0-.129.161m18.91-.033c-.104-.12.175.299.113.173a5 5 0 0 0-.113-.173m1.103 1.898c-.043-.112-.276-.57-.197-.386.014.028.183.382.197.386m-4.805 1.575c.009.058-.147-.213-.17-.252-.008-.016.162.175.17.252M20.384.18c-.123-.01-.448-.034-.503-.023.151.001.542.05.503.023M9.968 3.89c-.145.126-.347.381-.271.339.226-.278-.054.013.27-.34M22.78.636c-.096-.032-.178-.025-.168-.02.1.045.259.063.168.02M15.448.488c-.009-.012-.316.08-.273.077.015-.002.28-.068.273-.077m14.91 13.594c.012-.137.023.282.01.405-.021.06-.012-.387-.01-.405M25.282 1.821c.024-.011-.411-.262-.25-.145.04.028.242.147.25.145m3.39 3.347c-.19-.277.514.945.35.612-.006-.027-.329-.59-.35-.612m1.017 2.068c-.018-.055.057-.051.113.184.008.031-.058-.102-.053-.076.005.013.162.513.168.536.009.025.02-.01.03.014.012.027.084.342.123.506.076.309.097.34.103.365.016.075.03.202.057.354a10.4 10.4 0 0 1 .153 2.525q.008-.284.006-.561a11 11 0 0 0-.058-1.006c.057.155-.119-.792-.01-.24.02-.266-.517-2.437-.631-2.6M8.384 6.38c.023-.147-.21.572-.192.64.024-.094.183-.622.192-.64m1.827-2.905c.045-.051.055-.133.327-.366h.001c.08-.068.002.022.018.011.006-.004.258-.21.064-.023-.292.29-.052.003-.209.156a5 5 0 0 0-.27.322c.003-.002.085-.096.1-.11.06-.05.044-.013.052-.02.023-.028.476-.503.565-.548.02-.024-.736.74-.757.778-.02.018-.04-.016-.062.002-.012.008-.286.344-.323.387l-.027.027c.05-.044-.196.262-.198.245 0-.009.17-.219.178-.225l.008-.008c-.053.029.554-.658.408-.524.173-.202-.003.05.125-.104m.916-.892-.055.063c.348-.31.791-.617 1.244-.904.115-.072-.03-.01.124-.099.125-.07.274-.13.21-.086-.017.01-.274.147-.395.228-.357.24-.252.2-.273.214-.023.015-.252.158-.37.248-.293.226-.419.34-.807.664.208-.205.067-.123.322-.328m15.863.494c.023.002.233.223.31.301-.02-.004-.227-.227-.31-.3M14.546 6.54c.043-.07-.392.302-.266.217.027-.02.21-.173.266-.217m-1.475 1.94c-.02.07.098-.2.084-.204a2 2 0 0 0-.084.204M16.559.157c.017-.004.273-.035.281-.034.172-.002-.669.107-.281.034M12.72 11.703c-.014-.303-.02.608-.002.33.001-.014.003-.316.002-.33m.005 1.265c-.001-.072.006-.394 0-.399a1.8 1.8 0 0 0 0 .399M22.87.578c-.028-.036.4.13.55.188.027.036-.396-.143-.55-.188M20.03.024c1.93.185 1.5.163-.116.006-.001-.016-.006-.011.116-.006m2.443.416c-.072-.005-.284-.068-.427-.103.028-.006.323.075.427.103m-7.36 5.732c-.074.066-.439.299-.381.248.01-.016.404-.28.381-.248m1.602-6.06c-.048-.02.532-.077.577-.072.18.004-.531.055-.577.073m8.643 1.624c.097.04.335.209.487.32-.078-.038-.352-.235-.487-.32m-1.18-.67c.012.003.247.12.256.128.185.111-.479-.22-.255-.129m.545 7.75-.068-.156c-.041-.138.149.3.068.156"/></g></svg>