<svg xmlns="http://www.w3.org/2000/svg" width="40" height="40" fill="none" viewBox="0 0 40 40"><g transform="translate(-3.483, -3.93) scale(1.187838)"><path fill="#231f20" d="M27.145 33.878c.053-.03.271-.143.363-.197-.093.081-.554.306-.363.197m5.682-8.524-.077.225c.093-.205.2-.487.278-.681.013-.032-.003.057.026-.019s.002-.068.04-.18c.044-.123.243-.693.296-.896.209-.753.345-1.532.436-2.31-.08.807.038-.003.047-.23 0-.05-.023-.045.018-.854.013-.35.038-.243.047-.41a5 5 0 0 0-.014-.493c-.027.663-.026.012-.065-.506a15 15 0 0 0-.12-1.123c-.017-.108-.065-.27-.091-.41-.019-.099-.02-.174-.051-.319a15 15 0 0 0-.56-1.976c.188.36-.087-.306-.1-.336-.044-.16.224.537.129.258a14 14 0 0 0-.485-1.138c.139.308-.234-.384-.29-.517.012.066-.913-1.641-1.135-1.851-.043-.045.192.283-.377-.46-.063-.078-.027-.058-.062-.098-.021-.024-.179-.143-.294-.313-.046-.06.307.268-.418-.497.267.324-1.053-1.009-1.339-1.21q.076.073.148.146c-.252-.23-.313-.253-.372-.302a12 12 0 0 0-.822-.612c-.283-.184-.3-.161-.63-.374q.115.08.23.162-.345-.217-.703-.413c.57.271-.117-.07-.163-.089-.072-.036.038.004-.082-.057-.013-.005-.001.016-.187-.075-.39-.188-.321-.172-.486-.248-.016-.006.033.028-.256-.094-.925-.367.01-.012.044.006.046.02-.24-.18.522.195-.254-.128-.271-.16-.3-.175a15 15 0 0 0-.508-.212c-.23-.083-.037.012-.082-.002-.036-.015-.587-.244-.736-.236-.256-.132.17.004.62.17.07.014-.42-.178-.447-.184-.644-.215-.3-.058-.448-.08-.078-.011-.333-.115-.1-.009-.588-.168-.227-.083-.264-.097-.056-.021-.266-.067-.292-.075-.038-.012.098.01-.051-.032-.025-.007-.272-.047.037.04-.416-.107-.387-.077-.521-.145-.306.005-.203-.083-.318-.11-.305-.066-.225.004-.242.003-.114-.01-.964-.145-1.178-.15.087-.033.68.073.812.089.445.04-.62-.105-.293-.108a14 14 0 0 0-.412-.006c-.246-.052.11-.042-.564-.076-.111.018.476.028.357.041-.07.006-.46-.016-.468-.009s.345.019.289.028c-.124.006-1.404-.047-.427-.036-.236-.009-.373-.05-.563-.05q-.042 0-.088.004c-.058.004.027.016.088.03.053.01.087.023 0 .03V5.9c-.083.008-.277.01-.67.023-.029-.025.514-.024.529-.024.02-.003-.08-.057-.097-.059-.062-.022-1.377.09-1.656.116.112.01-.985.16-1.1.207-.03.01.091.004.058.013-.208.053-.777.158-1.035.236-.288.084-.246.091-.262.095-.127.04-.03-.003-.107.021-.119.031-.908.318-.944.342-.01.005.123-.028-.045.044-.028.014-.021-.023-.512.207-.587.284.423-.16.187-.026-.396.139-.368.168-.471.214-.036.016-.312.117-.59.27q.297-.168.603-.323c-.206.091-.588.298-.752.385-.08.041-.027-.016-.197.082-.036.022-.152.15.283-.123.046-.002-.175.104-.27.167-.014.009-.055.072-.19.127-.03.017.233-.278-.551.31-.025.018.073-.031.048-.012-.016.012-.226.147-.247.164-.022.018.085-.039.059-.018-.134.108-.35.194-.056-.005q-.152.092-.302.188c.126-.041-.145.118-.274.219-.82.657-.25.242-.383.365-.208.202-.086.004-.397.303-.026.03.373-.303-.385.372q.162-.156.328-.307c-.092.027-.396.37-.42.395-.279.284-.102.08-.496.523-.035.04-.12.117-.192.205-.298.361.425-.45.464-.453.007-.012-.778.85-.797.886-.123.12.337-.407.236-.319-.055.018-1.07 1.34-1.235 1.632-.217.318-.348.443-.298.475-.106.064-.12.168-.145.21-.294.52-.293.522-.51.986-.047.102-.102.182-.116.22-.008.022.027-.01-.014.096a76 76 0 0 0-.45 1.091c-.033.063.13-.38.086-.306-.12.32-.218.635-.315.965-.04.138-.032.064-.048.123-.01.025-.122.508-.111.488.002-.05.44-1.513.344-1.121-.02.075-.129.328-.083.296a14.1 14.1 0 0 0-.638 4.025c-.022-.784.081-1.668.23-2.474.018-.111.1-.483.074-.441a15.4 15.4 0 0 0-.308 2.216c-.002.022-.013-.058-.02.022-.015.15-.002.641-.007.724-.002.015-.019-.266-.033-.181a.6.6 0 0 0 .006.245c.014.064.032.125.033.218-.007.145.013 1.12.071 1.358.048.253-.054-.714-.023-.645.062.654.133 1.32.26 1.927.003.01-.002-.085.029.05.053.236.048.302.071.417.024.124.144.557.155.616a1 1 0 0 1-.05-.087c-.06-.186-.05-.261-.055-.278-.016-.066-.042-.126-.056-.186-.023-.097-.026-.153-.054-.283-.02-.089-.019.001-.037-.085-.008-.032-.034-.382-.082-.406-.08.007.695 2.763.89 2.996a14 14 0 0 1-.258-.688c.158.473.44 1.002.41 1.062a14.3 14.3 0 0 0 3.24 4.46c.243.226.082.134.502.48q-.15-.148-.298-.3c.194.202 1.16.974 1.336 1.072.022.013.068.01.326.178.23.148.256.19.378.27.103.067.225.132.256.151.024.015.026.033.083.069.182.111.05-.008.213.135l-.137-.071c.22.132.523.313.183.144-.058-.03-.002-.015-.045-.038-1.64-.971-.36-.145.246.14.14.106 1.018.499 1.05.508.038.023-.12-.026.074.07.036.033 1.255.455.808.326a13 13 0 0 1-.808-.306c.306.18 1.107.392 1.196.416.354.118-.697-.182.106.076.62.185.044-.011.287.046.135.036.838.238.829.19.247.048.098.038.128.046.03.01.515.09.674.121.019.005-.045.016-.025.02.039.012.51.074.53.072.012 0-.099-.032-.052-.03.055.003.51.055.536.05.036-.002-.527-.056-.43-.067.259.037.68.058.853.05a5 5 0 0 1-.38-.024c.042-.024.582.01.396.023.119-.006.039-.018.106-.026.017-.002.183.004.215 0 .004 0-.166-.02-.132-.024.062-.006.566.008.608.009.117.009-.296.016-.33.026-.006.003.345.033.35.034.021.025-.37.002-.326.024q.146.01.291.017c-.376.025-1.066-.027-1.245-.022.554.044 1.134.05 1.133.105 0 .024-.242.033-.233.039.035.023.371.004.384.005q.015 0 .014.003"/><path fill="#231f20" d="M22.588 21.422c-.004.013-.035.06-.046.08-.006-.034.063-.127.046-.08m-1.161 3.119.073-.05c-.076.03-.177.075-.25.096-.013.004.012-.022-.016-.013-.028.01-.015.028-.054.045-.044.02-.26.072-.332.092a4.2 4.2 0 0 1-.84.165c.29-.05-.007-.03-.087-.017-.018.002-.012.049-.308.05-.127-.002-.088-.031-.148-.04a1 1 0 0 0-.178.003c.238.046.003.042-.186.03-.033 0-.295-.032-.41-.05-.038-.005-.102.007-.154-.002-.037-.007-.061-.023-.114-.033a4.3 4.3 0 0 1-.724-.206c.156-.002-.1-.061-.11-.07-.05-.034.204.057.107.01a5 5 0 0 1-.414-.168c.108.059-.167-.028-.205-.07-.008.06-.567-.382-.652-.442-.02-.012.08.1-.18-.119-.027-.024-.007-.026-.023-.037-.01-.007-.093-.016-.133-.085-.013-.026.133.07-.154-.178.073.143-.391-.359-.45-.471l.032.07c-.065-.107-.09-.115-.107-.137-.067-.091-.144-.226-.203-.313-.068-.1-.094-.086-.158-.214l.037.097a5 5 0 0 1-.146-.26c.146.182-.023-.044-.031-.06-.015-.026.019.005-.006-.038-.002-.004-.012.01-.048-.058-.073-.14-.044-.126-.072-.186-.002-.006-.006.02-.055-.085-.148-.334.009-.001.017.01.01.015.009-.119.12.168-.04-.096-.02-.116-.024-.127l-.081-.18c-.04-.078-.028 0-.037-.015-.009-.012-.062-.22-.126-.252.013-.114.057.043.126.2.018.02-.04-.159-.042-.168-.077-.23-.07-.092-.111-.135-.021-.023-.024-.127-.031-.028-.066-.214-.009-.09-.01-.104-.002-.022-.032-.095-.033-.105-.002-.014.022.031.013-.025-.002-.009-.044-.092-.025.024-.036-.153-.049-.137-.026-.197-.088-.092.024-.084.02-.126-.012-.112-.057-.071-.061-.076-.026-.038-.05-.352-.063-.428.04.026.027.247.043.294.047.156-.012-.228.052-.118l-.056-.142c.023-.092.045.034.018-.205-.03-.038.015.17-.008.129-.015-.024-.027-.164-.033-.166-.008-.003.009.124-.004.105-.033-.043-.019-.507.004-.155-.003-.085.035-.136.035-.203l-.003-.031c-.004-.02-.017.01-.03.031-.011.02-.024.032-.032 0a1 1 0 0 1-.001-.243c.024-.009 0 .187.003.192.003.007.058-.028.061-.034.004-.02.004-.494.051-.59-.04.035.05-.353.054-.396 0-.012-.028.026-.028.014.003-.08.087-.273.116-.365.031-.103.012-.095.014-.1.015-.046.014-.006.023-.034.011-.043.117-.325.123-.339 0-.004-.036.034-.014-.028.004-.01.02.003.09-.179.088-.218-.093.138-.075.04.093-.126.062-.134.082-.17.007-.014.08-.096.132-.198q-.052.112-.1.227c.04-.072.106-.214.144-.269.019-.027.026.008.06-.053.008-.013-.014-.095-.082.08-.025.003.03-.068.045-.106.002-.006-.015-.044.03-.078.013-.008.022.157.15-.176.004-.01-.028.015-.024.005.002-.008.057-.08.061-.089.004-.01-.032.019-.027.007.024-.06.115-.094.039.008l.09-.093c-.06.013.03-.06.064-.108.227-.301.05-.12.08-.18.05-.094.052.012.138-.12.009-.01-.142.108.12-.152l-.108.122c.05.003.13-.146.14-.155.097-.106.037-.029.178-.191.013-.015.05-.036.077-.067.114-.129-.174.142-.19.141a3 3 0 0 1 .321-.294c.058-.027-.142.131-.091.115.012-.012.48-.397.593-.448.123-.069.205-.053.175-.106.063.031.073-.02.089-.03.191-.1.192-.098.356-.184.037-.018.076-.016.088-.025.007-.005-.016-.016.02-.038.048-.034.378-.14.406-.135.027.002-.135.053-.1.06.115-.041.227-.082.346-.115.05-.013.028.006.049 0 .009-.003.178-.057.17-.06-.021-.013-.546.155-.414.092.026-.013.129-.015.104-.043a5.1 5.1 0 0 1 1.457-.2c-.28.027-.598.033-.888.09-.04.007-.175.032-.155.046.245-.05.554-.1.794-.102.008 0-.02.017.01.018.053 0 .226-.029.256-.021.005 0-.094.023-.063.035.039.016.063.006.086-.008s.044-.033.078-.032c.052-.001.395.054.482.044.094-.015-.253-.038-.226-.053.236-.005.474.05.692.092.004 0-.026-.021.023-.013.087.014.104.04.144.054.043.014.2.053.218.067a.1.1 0 0 1-.04.013c-.069-.01-.086-.044-.092-.046-.023-.007-.048-.002-.07-.008-.034-.01-.05-.024-.097-.035-.032-.008-.005.018-.036.01-.01-.003-.125-.07-.145-.029 0-.009.97.29 1.058.344a5 5 0 0 0-.236-.112c.162.073.37.129.361.184.59.279 1.124.674 1.562 1.155.074.089.008.063.139.2l-.072-.132c.063.075.318.426.36.482.005.007.039 0 .101.089.055.08.043.105.066.151.02.04.05.078.055.09.004.009-.006.019.004.04.03.07.035-.003.03.084l-.03-.045c.039.082.076.2.006.088-.012-.019.009-.008 0-.023-.338-.565-.083-.105.04.09.012.06.162.356.16.369.001.016-.035-.03-.02.044.008.013.166.424.088.284-.014-.03-.083-.229-.104-.274.008.124.156.366.163.398.031.123-.11-.22-.028.053.057.21.028.006.063.083.021.044.049.293.085.278.023.083-.009.038-.008.05.001.01.045.172.044.228 0 .006-.024-.01-.025-.004 0 .014.026.172.028.179.002.004.016-.037.022-.022.008.018.02.174.026.182.01.011-.016-.18.008-.15.006.089.031.231.05.29a1 1 0 0 1-.012-.13c.032.01.043.198.015.136.015.04.02.011.034.034.003.006.007.063.012.074.001.002.01-.059.017-.047a1 1 0 0 1 .01.213c-.007.04-.019-.104-.032-.115-.002-.002-.025.12-.028.122-.023.007-.008-.127-.03-.112l-.011.1c-.02-.128-.024-.363-.055-.42.025.186.026.383-.03.383-.023 0-.038-.08-.044-.076-.02.012.004.122.003.127l-.004.004c-.012 0-.023-.157-.03-.164-.01-.013-.05.058-.06.058 0-.003-.014-.112-.03-.075-.014.038-.012.134-.014.137-.009.018-.022-.148-.028-.152-.003-.003-.018.086-.023.09-.005.001-.018-.066-.035-.091-.013-.019-.02.038-.023.028 0-.007-.009-.16-.012-.168-.004-.011-.016.026-.02.02-.005-.006-.004-.056-.009-.049-.002.006-.04.199-.055.197-.022 0 .02-.202-.06-.013 0 .001.008.046.007.047-.016.027-.045-.114-.036.06-.04-.321-.034-.039-.074-.085-.015-.018-.028-.14-.03-.14-.018.012-.001.05-.01.064-.004.008-.03-.1-.042-.075-.005.014.004.129.003.133-.01.046-.026-.01-.034.001-.005.007-.004.076-.005.078-.002.002-.028-.09-.037-.108-.007-.015-.014.04-.018.03-.018-.06.014-.193-.036-.064-.003.008 0 .055 0 .057-.015.03-.02-.057-.035-.072-.025-.025-.005.098-.027-.004a1 1 0 0 0-.003.21c-.018-.248-.086-.328-.072-.059-.002-.086-.036-.074-.037-.1-.001-.016.023-.142-.048-.08-.009.008.008.082-.013.06-.008-.178-.012-.003-.015-.003-.04 0-.051-.43-.077-.502-.022-.083-.075-.149-.08-.166-.014-.059.016-.015.019-.03.004-.015-.076-.172-.078-.18-.002-.035.028-.008.028-.012.002-.045-.092-.26-.114-.32-.012.006.035.128-.015.06-.06-.077-.006-.105-.005-.109a3.8 3.8 0 0 0-.715-1.093c-.018.024.186.223.185.233.009.041-.306-.319-.347-.362q.04.053.08.11c-.079-.03-.166-.18-.261-.24-.03-.018.012.037.01.037-.04-.015-.081-.065-.032-.049-.087-.048-.063-.054-.12-.102-.004-.002.013.03-.038-.002-.023-.015-.142-.1-.166-.1-.01 0 .017.09.054.054.113.113.054.012.103.05.007.006-.026.013.103.1-.054.02-.17-.118-.2-.13-.057-.027.133.146.193.148-.042.016.011.015.054.054.046.043.018.034.043.056.069.063.06.017.098.088 0-.109.103.085.127.143a4 4 0 0 0-.216-.197l.004.02-.056-.052h.017c-.115-.068-.123-.108-.131-.116a3 3 0 0 0-.357-.256c-.018-.011-.017.016-.14-.077-.04-.03.01-.024-.04-.048-.086.014-.065-.023-.084-.032-.052-.027-.091-.03-.096-.033-.066-.03-.164-.074-.239-.101-.001 0 .031.03-.015.007-.016-.009-.147-.133-.294-.15q.053.021.104.046c-.04-.024-.343-.083-.274-.046.041.021.162.007.162.053-.092-.053-.65-.128-.694-.132-.006-.002.033-.012.024-.015-.006-.002-.135-.009-.152-.014-.01-.004.047-.01.043-.015s-.166-.017-.176.002c.04-.007.152.004.093.016-.008.002-.047-.011-.056-.009-.085.02.168.022.207.027-.083.006-.186-.001-.294-.003-.102-.002-.206 0-.295.014-.076-.009.109-.03.023-.036-.177-.01-.044.024-.05.026-.04.018-.199-.043-.19.017-.064 0-.045-.01-.132.013l.037.006c-.091.049-.315.011-.302.002.037-.029.152-.025.161-.027.014-.004.04-.075.202-.044.057-.052-.246.014-.113-.038-.093.015-.482.088-.53.128-.005.005.038.033-.06.045-.047.006.057-.032.035-.033-.08-.03-.873.38-.993.506-.008.006-.013-.007-.021 0-.027.02-.111.108-.16.141.11-.059-.073.092-.118.132-.07.059-.08.039-.113.063-.125.093-.241.306-.353.369.043.024-.145.148-.198.232-.043.063-.073.174-.002.098-.072.109-.13.233-.182.343-.008.018-.01-.013-.023.018-.001.003.01.014-.002.04-.09.226-.067.107-.094.145a.4.4 0 0 0-.03.051c.05-.134.118-.284.139-.324-.048.019-.132.29-.167.363-.001.003-.014-.013-.015-.01-.014.028-.072.216-.039.184.009-.008.037-.093.074-.193-.007.028.02.015.018.02-.014.06-.081.195-.099.246-.004.012.008.015.008.017-.017.045-.046.016-.024.074-.068.072.04-.16.009-.151-.035.003-.158.559-.113.564q-.006.001-.018.023a.7.7 0 0 0-.03.217c.001.005.035.007.035.012-.001.014-.042.203-.022.275l.018-.114c-.009.23.006.195.016.119l.002-.012c.01-.059.021-.134.024-.135a2 2 0 0 1-.001.235c-.003.062-.008.105-.021.075-.002-.004-.001-.042 0-.075 0-.042 0-.077-.014-.027l-.001.027c0 .04.004.107.003.112-.009.024-.023-.05-.035-.112-.01-.046-.018-.085-.028-.072q.01.034.012.072c.003.047 0 .097.006.143.004.032.021.04.022.043.008.06-.012.027-.01.047 0 .012.047.125-.007.108.085.382.043.103.027-.133.022.074.027.22.04.285.005.023.02.007.03.045.013.08.077.464.108.561-.024-.057-.037-.035-.022.011.016.046.028 0 .034.008.004.01.067.226.086.26-.07-.156-.075-.114-.024.023l-.038-.053c.037.077.083.254.114.295.004.006.007-.026.01-.022.023.036.077.175.086.178.006.003-.011-.059.005-.042.004.004.013.068.048.117.013.018.02 0 .023.003.03.037-.007.026.041.097.036.051.082.076.123.151-.129-.25-.012-.045.065.043.013.014.024-.014.081.082-.182-.16.019.072.06.119.003.003-.01.015.009.04.002.001.009-.01.028.012.187.197.061.076.087.123.01.02.116.103.142.127.006.006-.006.012.017.034.042.038.088.062.117.085.003.003-.01.019.047.06.017.011.038.02.02-.003-.059-.073-.21-.168-.27-.258-.054-.08.159.132.172.14.005.004-.045-.028-.003.014.037.035.13.07.183.123a.4.4 0 0 1 .03.064c-.003 0-.08-.054-.075-.039.001.002.048.04.05.05s-.024.087-.014.096c.024.024.017-.003.033.011.035.03.154.142.174.122l-.063-.049c.122.081.077.036.097.044.022.008.004.023.044.052.008.008.19.11.191.098-.107-.043-.055-.047-.06-.05-.016-.012-.046-.011-.069-.026-.159-.102.016-.022-.018-.051-.012-.01-.045-.015-.05-.02-.017-.013-.007-.028-.02-.034-.028-.015-.01.027-.013.026-.034-.002-.118-.084-.043-.066-.03-.033-.053-.008-.073-.039-.039-.06.039.004.064.016.09.041.106.069.226.136.043.025.102.04.123.05.012.006.108.12.151.041.043.032.094.12.146.139.047.017.044-.018.049-.017.007 0 .06.025.081.028.024.004.017-.011.053-.003.09.021.078.05.086.055.097.058.066-.001.09.003.021.007.323.107.392.105l-.084.002c.044.03.101.008.095.044.021-.055.113.001.144.004.011.001.012-.009.027-.007.057.008.188.03.22.027.137-.008-.206-.077-.23-.087.053.012.36.027.222-.013-.02-.007-.062.015-.074.015-.083-.003-.016-.019-.022-.022-.01-.004-.067.01-.08.006-.005-.002.028-.018-.05-.03.041-.012.257.03.286.025.01-.002-.05-.047.134.005l-.006-.012a4 4 0 0 0 .313-.006c-.01.01-.069.03.005.024.043-.005.01-.024.014-.024.04.007.705-.085.826-.141.042-.013.154-.067.162-.071.052-.018.24-.082.275-.102.022-.011-.006-.018.014-.026s.007.016.013.015c.05-.012.378-.212.46-.253a2 2 0 0 0-.265.201.3.3 0 0 0 .078-.032c.028.001.075-.077.116-.092.005-.002.001.03.07-.008.024-.013.072-.067.142-.09.084-.058.513-.391.513-.444 0-.001-.06.046-.031.002.037-.059.03.02.087-.035a3 3 0 0 0 .154-.186c.022-.07-.11.071-.111.066-.001-.01.097-.134.102-.139.005-.003-.048.121.04-.01l-.044.034c.039-.062.062-.053.075-.066.038-.041.042-.111.13-.158.024-.013.014.028.017.026.03-.014.013-.069.064-.087.004-.001-.033.095.061-.054q-.014.012-.027.026c.008-.025.093-.18.105-.2.037-.06.03.005.06-.059-.048.026.042-.166.06-.144-.017-.041.078-.196.107-.277.02-.05.04-.16.046-.175.008-.02.028-.006.044-.04.005-.01.02-.123.064-.213.01-.018.057-.05.059-.012.003.065-.058.17-.035.174.025.005.05-.152.061-.193.054-.19.058-.074.067-.078.022-.009.04-.117.042-.122.01-.017.014.062.025.066.015.004.06-.098.061-.073.003.036-.037.13-.038.136 0 .083.056-.02.079-.049.007-.008.01.031.012.023.044-.115-.045-.033-.028-.111.015-.07.025.024.026.022.003-.003.016-.088.026-.1.006-.006.017.222.038.217q.012-.108.02-.216c.027-.002-.007.098-.006.109.002.022.025-.035.033-.032.005.002.013.076.03.013.007-.022-.005-.07.023-.149-.011.285.029.092.04.085.01-.008.014.132.032-.034.053-.001.016.005.02.054.002.06.04-.073-.006.138.027-.008.05-.18.052-.19.003-.007.01.033.016.02.065-.158.031-.049.066-.093.004-.004.028-.159.022-.04-.012.22-.065.302.003.352.06-.157.031-.36.033-.409.005-.075.014.004.019-.005.002-.003.005-.069.006-.07.061-.043-.02.293-.03.398l.037-.082-.016.116c.044-.181.008-.006.045.048.009.012.011-.113.017.031.023-.102.027-.068.028-.163.019.004.007.22-.003.305.075-.292-.02-.134.05-.385-.017-.05-.027.073-.03.062-.008-.037.024-.12-.015-.224-.007-.017-.036.05-.027-.052a1 1 0 0 1 .026-.074c.016.01.006.074.012.077.007.003.008-.07.01-.07.02 0 .003.062.01.053.015-.019.073-.28.04.063-.005-.288-.018-.037-.02.073 0 .029.01.037.01.078 0 .053-.014.112-.016.14s.051-.131.006.105c.05-.117.044-.335.07-.454.055-.242.04.174.034.217 0 .012.02-.025.02-.017.002.013-.037.247-.03.272.01.026.014-.086.028-.091.012-.004-.021.285.012.131.024-.107.01-.308.054-.337q-.019.238-.062.474.049-.123.091-.251c-.022.18-.07.33-.092.501.146-.392.008.142.007.149.003.003.086-.146.098-.17-.015.147-.152.578-.022.342a.5.5 0 0 0-.035.161c.027-.006.093-.255.099-.21.007.054-.043.11-.066.181-.122.363.024.312-.162.659l.021-.016c-.198.38-.443.733-.727 1.05-.08.151-.382.484-.557.619a3 3 0 0 1-.232.154c-.028.013.103-.09.036-.053-.012.01-.315.214-.284.214.036-.02.136-.102.155-.11.152-.04-.83.524-.89.531l.077-.014a5 5 0 0 1-.201.078m1.11-2.917c0-.036.05-.093.066-.134.023-.058.002-.183.05-.11a4 4 0 0 1-.115.244m-.884.954c.053-.029.043.034-.007.05-.006.002-.066-.012.006-.05m.473-.413-.04.04c-.043.023.065-.09.04-.04m-2.704 1.207c.067-.002.018-.04-.023-.025-.003 0 .018.025.023.025m.047 0c.053.035.156-.038.073-.028a1 1 0 0 0-.073.029m2.359-.917c.003.014-.048.05-.07.065-.007-.01.051-.047.07-.065m-1.363.754c0 .012.206-.055.215-.074-.03.018-.215.066-.215.074m-.538.127c.006.001.08-.012.076-.021-.038-.006-.101.016-.076.02m-1.1-.028c-.004.002.04.07-.083.007-.018-.01.053-.01.047-.014a.2.2 0 0 0-.034-.013 1 1 0 0 1 .13.02c.027.02-.058 0-.06 0m-.572-.106c-.016.005-.091-.029-.107-.04-.003-.001.02-.02-.016-.031-.028-.01.004.03-.048.005-.052-.026.026-.013.022-.016-.006-.004-.093-.029-.084-.041.006-.01.091.035.115.041.029.008.001-.022.047 0 .029.014.001.037.007.041.005.004.116.024.064.04m.486.084q.007 0 .016.002zm3.715-1.508c-.026.02.015-.063.045-.086.01.005-.04.083-.045.087M18.679 23.3c-.088-.029-.02-.024.062-.014-.027 0-.032.023-.062.014m2.53-.378q-.007 0-.012-.008.017.002.012.008m-.195.088c-.058.049.076-.016.069-.029a.3.3 0 0 0-.07.03m-1.678.358c.007.002-.1.055.054.017-.082-.009.004-.012.003-.018-.003-.013-.139-.005-.169-.014-.025.025.09.008.112.015m-2.003-.668c.024 0 .068.037.1.06-.023.002-.069-.035-.1-.06m3.39-6.323c-.26-.076-.278-.142-.047-.041.005.002.065.041.047.041m-2.296-.09c-.032-.018.048-.047.106-.05.013-.001.064.014.014.032-.006-.032-.09-.022-.12.018m.198 7.018c-.03.01-.109-.022-.15-.037a.4.4 0 0 1 .15.037m1.235-7.163c-.029-.005-.05.016-.045.019.02.01.077-.002.045-.019m-.973 7.217c.002.012-.109.003-.111-.025.022.007.11.018.11.025m-1.498-.609c.011.015-.067-.029-.085-.05.008-.007.078.041.085.05m2.006-6.62c-.026-.002-.091 0-.098.01s.086.004.098-.01m3.6 2.659a.35.35 0 0 1-.066-.128c-.011-.085.07.123.066.128m-2.862-2.62c.076.038-.009 0-.01.023.054.01.187.04.1-.001-.017-.008-.065-.015-.09-.021m-.073-.02c-.01.006-.072.02-.021.027.023.003.065-.017.02-.027m2.71 2.063c-.012-.076.115.236.112.247q0 .009-.002.012c.011.009.034.068.02.08-.004-.018-.023-.066-.024-.072v-.006a2 2 0 0 1-.107-.261m-.258-.494c.072.053.036.094.03.089-.066-.065-.002-.036-.002-.04-.001-.007-.052-.05-.028-.05m.214.388c.003.002.033.066.033.07.01.058-.075-.121-.033-.07m-4.893 4.956c-.043-.027.01-.021.037 0 .002 0 .001.024-.037 0m2.186-6.914c-.01-.008-.308-.053-.292-.02.026-.006.36.051.292.02m-2.181.33c.047-.022.007.027-.022.03-.011.002.01-.023.022-.03m1.193 6.926c.056-.009.04.04-.006.017-.002 0 .004-.017.006-.017m-.8-7.076c-.164.08-.156-.019.08-.07l-.018.018c.266-.07.02-.002-.042.026-.024.01.001.017-.02.026m-.639.282c-.182.04.127-.102.212-.149-.073.065-.18.12-.023.065-.21.118-.132.05-.142.053-.011.004-.039.03-.047.031m.413-.211c.008-.006.083-.024.108-.036-.028.033-.165.074-.108.036m4.13.87c.017-.006.037-.003.073.046-.019-.008-.05-.032-.072-.046m.505 4.349c.023-.035.068-.105.04-.091-.002.002-.047.086-.04.091m-3.491-5.511c-.01-.003-.238.023-.157.031.025 0 .231-.02.157-.031m1.18.09a.5.5 0 0 0-.098-.015c-.008.012.086.025.098.015m2.427 5.244c.004-.004.057-.12.043-.11-.024.017-.057.125-.043.11m-5.104 1.568c-.01-.005-.014-.027-.017-.029-.008-.003-.178-.1-.102-.08.01.006.25.151.283.167.002.028-.095-.047-.12-.06-.006-.001-.018.015-.044.002m4.702-5.512c.018-.004.163.175.145.185a4 4 0 0 0-.145-.185m-.072-.092c-.023-.045.054.04.07.07-.007.007-.066-.064-.07-.07m-2.373-1.34c-.024 0 .044.03.028.033-.01.002-.061-.013-.078-.008-.005.002.045.029.06.03.021.001.003-.018.026-.015.078.01.145.033.217.046.006.001-.042-.02.014-.009.008.002.056.029.122.041.159-.018.252.063.436.108a1 1 0 0 0-.144-.069 3 3 0 0 0-.595-.146c-.043-.006-.024.009-.042.007-.015-.002.005-.02-.044-.019m2.73 5.578c.029-.006.052-.074.074-.113-.024.005-.047.078-.074.113m-1.11-4.938c-.02-.012-.074-.055-.083-.053s.07.062.082.053m-4.745 5.623-.039-.044c-.02-.046.088.074.04.044m-.709-1.072c-.019-.036-.04-.072-.03-.091.007.025.043.09.03.091m-.301-1.739c-.024.007 0-.115.006-.138.008.01.01.133-.006.138m6.407-2.302c.05.056.065.021.086.068.003.008-.033.073-.068-.006-.007-.014.045.017-.018-.062m-3.833-.968c.014-.02.072-.033.112-.043-.006.013-.085.033-.112.043m4.521 4.993c.034-.024.08-.183.052-.15-.003.005-.041.129-.052.15m-4.445 2.082c-.069-.004.063.04.11.036-.02-.004-.105-.036-.11-.036m-2.667-3.375-.001-.078c.015-.059.018.143.001.078m.487 1.7a.6.6 0 0 1-.102-.21c.033.025.131.23.102.21m5.707-4.644q.06.054.107.113a.4.4 0 0 1-.107-.113m-6.199 2.68.002-.01q0 .005-.002.01m5.188-3.337c-.04-.022-.04.001-.037.003.029.02.082.022.037-.003m1.752 5.268c.024-.004.049-.078.073-.114-.019.004-.057.083-.073.114m-5.28-4.936c-.06.014.123-.133.173-.145.008.008-.166.142-.174.145m1.207 6.724c.001.016.1.019.081.008-.012-.007-.082-.018-.081-.008m-.928-6.918c.017-.015.07-.025.057-.01-.015.021-.061.013-.057.01m1.885-.458c-.01-.003-.139.011-.085.027.036.01.042-.01.051-.01.01 0 .214.034.034-.017m-3.108 1.532c.024-.042.065-.084.096-.124a.4.4 0 0 1-.096.124m1.79 5.745c.008.012.314.105.145.037-.01-.003-.173-.065-.145-.037m3.923-6.088-.021-.026zm-.657-.557c.02 0-.052-.05-.077-.06-.014.007.074.06.077.06m-4.969.764c.014-.027.053-.064.076-.092.003.011-.06.088-.076.092m-.81 1.86c.013-.056.022-.127.01-.13l.007-.008c.003-.004.008-.067.018-.093.045-.156-.075.623-.049.165zm.597 2.576c.005.037.074.102.065.079-.006-.016-.071-.114-.065-.079m-.525-1.154c0 .01.033.096.042.095-.007-.052-.041-.141-.042-.095m.66 1.372c.01.018.046.024.045.021-.006-.022-.056-.057-.046-.021m5.639-5.02a.3.3 0 0 0-.13-.085.1.1 0 0 0-.017-.032c-.006-.036-.654-.51-.235-.17.012.01.003-.015.055.029.004.003-.002.014.01.023.024.02.15.135.18.152l.002.01c.02.039.148.093.135.073m-6.341 3.474c-.001.018.015.074.027.078-.002-.03-.026-.122-.027-.078m2.478 2.816c.033.02.128.033.103.017-.015-.01-.14-.04-.103-.017m-2.314-2.263c-.06-.204-.019-.047-.044-.073zm6.758-3.227c-.015-.031.032-.012.037.029.001.012-.03-.012-.037-.03m.504 1.436c.023-.032.024.111 0 .058zm-.275-1.034c-.026-.014-.034-.027-.057-.088.045.085.023-.002.057.088m-7.173.894h.002zm.854 3.076c.006.03.057.086.053.06 0-.003-.037-.058-.053-.06m5.38-5.257q0 .007-.007.002 0-.002.007-.002m-5.636 4.946c.01-.004-.05-.101-.052-.104-.052-.045.024.066.052.104m2.634 1.613c.006 0-.028-.034-.053-.026-.019.006.03.028.053.026m4.03-5.07c.013.034.03.083.02.096-.006-.024-.029-.093-.02-.096m.197.775a.8.8 0 0 1-.047-.198c.022-.006.038.159.047.198M22.18 17.13c-.001-.003-.061-.072-.063-.053-.001.028.075.077.063.053m-3.367 6.358c-.042.002.045.05.092.032.023-.009-.085-.032-.092-.032m-2.062-1.074c.043.033-.039-.073-.062-.077.016.02.046.066.062.077m-.932-1.555c.009.175.057.063.041.036a.3.3 0 0 0-.04-.036m7.274.02c.002-.024-.045.054-.036.07.007.009.036-.054.037-.07m-7.131-2.518-.008.02zm1.114 4.426c-.055-.124-.074-.08-.082-.087-.017-.015-.046-.062-.08-.088l.124.08c-.03-.026-.256-.268-.265-.268-.018.003.06.074.061.076.002.005-.014.045-.008.052.009.015.22.2.25.235m-1.133-1.596c-.006-.027.005-.04-.002-.05-.003-.004-.017.001-.026-.011zm1.339 1.68c.017.035-.103-.06-.105-.065-.013-.025.09.038.105.065m-.909-.9c.002.005.067.102.075.095-.014-.029-.102-.156-.075-.095m-.466-.858c-.013-.039-.024-.116-.042-.1zm2.76 2.395c.067.05.04 0-.022-.026-.024.01.01.018.022.026m.236.07c.02.01.24.027.208.004-.01-.007-.138-.004-.144-.007-.008-.003.034-.018-.033-.023.003.008-.038.022-.031.025m-.179-.035c.07.041.096-.006.04-.016-.022-.004-.05.01-.04.016m-.301-.076a.33.33 0 0 0 .147.033 4 4 0 0 1-.194-.056c-.01.007.025.012.047.023m4.955-3.787c.012-.062.02.08.017.087-.012.018-.023-.059-.017-.087m.272.824c.009-.018.03-.027.026-.069l-.061.115c.025.037.026-.027.035-.046m.139-.14c0 .006.052-.02.01.052-.029.049-.013-.234.01-.283.006.057-.02.18-.02.23m.248-.49a.6.6 0 0 1 .003.122c-.018.067-.023-.104-.003-.122m-.03.358c.014-.052.008.066-.002.1-.009.002 0-.092.001-.1m-.002-1.3c.022-.062-.058-.1-.027-.015.002.004.026.018.027.016m.077 1.054c-.011.053-.012-.065-.006-.1.01-.003.008.092.006.1m-.007-1.108c.008-.081-.065-.038-.066-.029-.004.041.05.17.062.197-.046-.2-.001-.13.004-.168m-.128-.339c-.027-.066.005.114.034.143-.01-.034-.026-.123-.034-.143m-.111-.423a.6.6 0 0 0-.067-.16c.019.038.05.15.067.16m.003-.096c-.008-.063-.059-.057-.019.002.002.003.019.001.019-.002m-.124-.321c0-.045-.063-.065-.035-.006.008.017.035.01.035.006m.424 1.065c-.004-.06-.054-.124-.031-.003l-.045-.123c.019.161.061.14.069.186.01.065-.03.067-.045.057.035.047.072.27.089.399-.001-.115-.011-.303-.027-.416-.005-.032-.021-.06-.026-.088-.008-.044.016-.009.016-.012m-.641-1.463c-.044-.112-.045-.023-.003.029.002.002.004-.026.003-.029m.735 2.534c-.025.16-.041.04-.025.375-.017-.141-.02-.01-.03-.037-.007-.023.007-.103-.015-.057.027-.061.029-.33.03-.343.002-.007.047.01.04.062m-.28-1.764c.04-.058-.051-.04-.036-.13-.103-.071.107.27.061.336-.131-.403.033.284.024-.025.044.244.035.073.057.106.024.035.05.174.068.161a5 5 0 0 0-.077-.245c-.02.094-.06-.076-.044-.144zm.106.47c0-.008-.058-.183-.064-.168.003.024.078.274.064.169m.151.794c-.006-.065-.009-.168-.031-.201.009.065.01.168.031.201m-1.442-3.002c-.07-.049.111.135.07.07zm1.105 1.563c-.018-.087-.053-.026-.015.026.002.003.016-.022.015-.026m.364 2.068c.015.006-.01.238-.015.278-.009-.024 0-.285.015-.278m.034-.516c.042-.137-.038-.312-.04-.33-.001-.02.025.008.025.003a3 3 0 0 0-.039-.227c-.002-.007-.026.035-.043-.005.037.079.073.46.075.479.003.015.027-.103.022.08m-.04-.38c-.005.053-.028-.091-.03-.127-.003-.08.032.12.03.127m-.052-.35c0-.017-.034-.165-.052-.174.001.074.053.212.052.174m-.648-1.549c-.022-.032-.073-.128-.087-.126.024.032.074.128.087.126m.717 3.6c.024-.062-.003.09-.019.132a.7.7 0 0 1 .02-.132m-.27-2.934a4 4 0 0 0-.268-.508l.25.507c.003.006.019.004.018 0m.313.997c.026.04.01.073.01.078.008.055.028.167.007.145-.006-.098-.07-.302-.017-.223m-.708-1.737c-.095-.133.06.141.053.097 0-.003-.043-.083-.053-.097m.421.788c.033.025.183.488.198.564-.046-.06-.041-.118-.072-.207-.008-.024-.017-.014-.018-.017-.014-.04.009-.014 0-.04-.002-.017-.145-.34-.108-.3m.304.971c.018.025.068.325.064.338-.008.092-.059-.314-.064-.338m-.299-1.022c.052.035.12.27.044.12-.007-.013-.019-.08-.044-.12m-.39-.739a1 1 0 0 0-.105-.15c.012.022.146.233.104.15m.076.058c-.002-.004.003.041-.038-.029-.004-.006.009-.029-.054-.11a.1.1 0 0 0-.043-.032c.033.105.254.344.135.17m.632 1.706c.006-.018.04.016.033.053-.003.017-.024-.009-.033-.053m-1.023-2.21c.078.066-.122-.179-.138-.186 0 .014.132.178.138.185m1.036 4.304c-.024.082-.025.027-.026.031-.065.17-.024.132-.027.16-.01.062-.043.041-.058.144.027-.169-.009-.019-.023-.018-.058.002.09-.208.097-.294.002-.012-.037.068-.035.037.01-.096.158-.377.072-.06m.027-2.014c.025.037.047.335.023.258 0-.013-.055-.31-.023-.258m-9.826-.015c-.002-.073-.047.09-.04.122.004.016.04-.09.04-.122m-.123 1.17c.008.086.076.17.058.066-.002-.011-.05-.077-.058-.066m2.595-4.71c-.089.027-.064.058-.008.025.02-.011.01-.025.008-.024m-2.215 2.532c-.004.008-.04.106-.03.106.019-.035.06-.156.03-.106m2.237-2.55c-.043.032.05.012.095-.043-.028.018-.09.04-.095.043m6.978 2.264c-.033-.033-.085-.149-.122-.211.016-.017.098.166.122.211m-9.58 2.097c.013.081.027-.093.008-.077-.002.002-.01.073-.009.077m5.372-4.976c-.06.008.127.038.077.013zm.812.128c-.043-.015-.232-.052-.16-.025a.7.7 0 0 0 .16.025m3.683 6.275c.027-.018-.017.116-.027.134-.004.007-.008-.112.027-.134m-7.78-5.458c-.037.03-.136.098-.146.12.043-.037.17-.111.145-.12m-2.071 3.66c-.03.068-.033.191-.001.162.005-.134-.03.015 0-.163m2.842-4.15c-.034.015-.047.054-.043.053.042-.006.082-.059.043-.053m-2.064 1.852c-.012-.006-.07.1-.055.09.005-.003.064-.087.055-.09m7.915-.723c-.03-.048.093.067.115.114.002.03-.111-.108-.116-.114m-4.869-1.47c.001-.02-.179.038-.103.034a.4.4 0 0 0 .103-.034m1.787-.129c-.127.004.394.095.261.048-.01-.005-.25-.05-.26-.048m.846.188c-.02-.009.008-.066.088-.016.01.006-.048.005-.04.012.005.003.19.073.198.075.01.002.006-.02.016-.02.011.001.12.06.178.084.11.045.128.036.138.04.026.01.065.04.118.065.266.119.658.34.822.507a3 3 0 0 0-.512-.32c.07-.002-.277-.116-.072-.054a9 9 0 0 0-.934-.373m-6.472 5.512c-.03-.05.015.222.045.24a5 5 0 0 0-.045-.24m-.06-1.266c0-.026-.04-.056 0-.187.013-.038.016.008.02.001.002-.002.043-.12.03-.019-.019.154-.034.01-.046.092a1 1 0 0 0 .008.16s.001-.048.004-.056c.011-.028.022-.012.024-.016.001-.013.016-.261.043-.293.005-.01-.039.391-.04.407-.003.01-.038.002-.043.012-.003.005-.003.169-.007.19l-.003.014c.012-.024.004.123-.008.118a1 1 0 0 1 .004-.108l.001-.004c-.017.02.013-.324-.013-.252 0-.102.028.017.026-.059m.057-.48.004.033c.027-.176.096-.368.16-.56.016-.05-.025 0 .003-.062.022-.05.063-.099.058-.07-.002.008-.052.106-.067.16-.045.156-.012.122-.015.131s-.044.104-.057.159c-.033.136-.037.2-.087.385.007-.11-.033-.057 0-.176m4.62-4.006c.006-.014.121-.01.163-.014-.006.013-.121.008-.163.014m1.838 10.011c.028-.028-.228.035-.156.034.015 0 .124-.025.156-.034m-1.17.182c-.036.008.107.015.106-.002a1 1 0 0 0-.107.002m-4.32-8.229c.003-.006.067-.08.07-.08.056-.038-.15.206-.07.08m2.884 8.124c.123.016-.236-.08-.13-.035.005.003.124.034.13.035m-.498-.14c.028.009.151.056.155.05.005-.009-.136-.062-.155-.05m-.504-9.507c-.023-.016.143-.072.198-.097.022.015-.145.068-.198.097m-.944.554c.59-.436.48-.31-.028.036-.01-.011-.008-.006.028-.036m.795-.497c-.017.025-.092.06-.142.086.004-.014.107-.066.142-.086m4.067 9.446c-.036.035-.239.075-.206.056.008-.003.22-.07.207-.056m-5.778-8.04c-.03-.002.117-.167.133-.175.059-.04-.128.156-.133.175m2.835-1.826c.033-.027.144-.043.214-.056-.029.02-.156.041-.214.056m-.498.132c.004-.003.099-.033.103-.034.083-.01-.185.077-.103.034m6.775 5.98c0 .003-.018.077-.02.079-.03.062.022-.159.02-.08"/><path fill="#231f20" d="M22.234 24.323c.003 0 .007.011.011.014-.02.012-.024-.016-.011-.014m1.491-.805-.02.003c.006.01.02.019.023.03 0 .002-.014.01-.012.013s.017-.013.023-.01c.007.003.017.035.025.042.028.026.065.045.086.079-.04-.017-.023.023-.01.026.003 0 .031-.028.052.008.014.022-.044.047.007.056.005-.052.026-.027.045-.01.004.003.025.033.037.043.004.003.025-.006.03-.001.005.003-.001.014.005.019q.039.032.072.072c-.053.025-.006.028-.007.03-.004.017-.033-.006-.03.01l.047.04c-.007-.016.049-.016.041.001.032-.036.036.096.058.095.004 0 .007-.031.032.01.003.003-.009.012-.006.013s.041-.025.03 0c-.004.01-.042.014.004.042.018-.048.069.033.073.054l.006-.02c0 .023.013.014.015.017.009.014.012.04.023.05.013.01.034-.01.04.011l.004-.024.025.032c-.05.006.003.006.006.008.004.001-.012.009-.006.012.001 0 .011-.011.02-.005.017.013.002.024.008.03 0 0 .008-.011.021-.002.043.027-.007.007-.01.007s-.031.052-.047.008c.006.014-.01.033-.01.034s.02.017.022.017c.014.002.019-.017.023-.018.003 0 .008.037.05.005-.024.044-.037.025-.059.013-.01.005.003.03.004.03.023.024.038-.016.06-.029.012-.006.003.022.019-.011.024.018-.003.02-.004.023-.001.005.014.006.014.008 0 .003-.014.006-.011.015 0 .001.024-.005.02-.023.012.017.024.003.004.034.058-.038-.021.035-.02.042.004.018.038-.023.04-.024.017-.007.034.036.047.038-.03.024-.024-.024-.034-.023-.034.001.008.035-.037.058l.042-.014c-.013.03-.035.028-.003.043.022-.015-.02-.013-.001-.024.011-.006.027.005.032.001.005-.005-.014-.01-.003-.017.022-.015.05.048.006.024.01.009-.022.05-.002.047.012-.002.033-.082.069-.028-.017.018-.024-.013-.025-.012l-.04.046c-.004.008.063.034.053.063.019-.026.04.03.05.028.003 0 .013-.018.015-.019.017-.001.012.044.021.054s.02-.002.02-.002c.005.006-.007.01-.004.013.004.004.032.035.035.035.001 0 .01-.019.019-.015.001.001-.015.016.01.028.032.015.005-.035.031-.043-.01.039.014.015.016.02 0 .003-.01.033.003.043l-.034-.014c.005.011.024.022.027.032.001.006-.018.02-.01.026 0 .001.047-.034.01-.033.014-.016.013.002.021.002.001 0 .028-.022.018-.002-.003.005-.086.062-.001.045.003 0 .008-.013.01-.014.003 0 .008.012.01.012s.008-.015.01-.015c.017-.004-.014.042-.023.027l-.002.026c.024-.033.014-.001.021.004.043.03.037-.013.053-.016.025-.005-.032.036-.002.036.003 0 .006-.039.03.009l-.019-.014c-.024.031.021.017.023.018.018.01-.002.011.033.017.003.001 0 .012.008.012.03.003-.013-.03-.003-.042.005-.006.045.036.043.04-.005.018-.023-.013-.033.006-.003.007.066.055.072.072.007.02-.025.064.017.021-.037.046-.006.02-.004.023.017.025.017.025.038.04.005.002-.004.018 0 .017.002 0 .014-.015.022-.015.011 0 .03.047.025.057s-.017-.011-.026.004c.01.014.025.022.036.035.004.006-.007.012-.005.014 0 .001.026.011.028.007.006-.009-.053-.058-.023-.059.005 0-.005.03.018.004l.126.16c-.045-.01-.06-.057-.09-.084-.004-.004-.015-.02-.026-.005.021.027.058.051.074.083 0 0-.014.009-.013.014.002.008.037.007.035.015 0 .001-.024.006-.03.018-.016.031.038-.019.044-.012.004.006.013.065.037.058.026-.008-.015-.035.001-.047.038.01.046.048.07.068 0 0 .007-.014.014-.01.01.005-.002.023 0 .03.001.006.019.02.015.027l-.02.013c-.013 0 .005-.022.005-.023-.002-.003-.012.002-.014 0-.002-.005.003-.014-.001-.02-.003-.003-.013.014-.016.01 0-.001.018-.044-.015-.014-.01.01.077.122.095.124l-.014-.037c.008.027.054.022.018.061l.184.202c.008.015-.022.032.004.044l.008-.037c.004.015.037.068.049.07.001 0 .024-.02.037-.01.01.007-.004.025-.002.033.002.007.01.007.011.01 0 .001-.009.011-.008.015.002.013.024-.02-.001.019l-.01-.002c.005.014.003.04-.018.034-.003 0 .008-.008.007-.01-.068-.064-.034.007.004.015-.008.02.034.045.032.05s-.02.01-.022.028c0 .003.052.04.017.043-.007 0-.024-.025-.03-.03-.018.043.053.028.056.032.008.018-.051.002-.026.034.02.025.019-.016.036-.016.01 0 .013.047.04.018.013.005-.008.016-.008.018s.026.01.026.022c0 .001-.018.014-.018.016 0 .003.019.017.02.016.002 0 .01-.017.016-.019.005-.002.018.017.023.014s-.017-.02.001-.031c.005.013.03.017.047.012-.004.002-.014-.007-.015-.011.022-.02.04 0 .017.01.014-.005.016-.013.027-.02.002 0 .009.004.013.002.001 0 .003-.015.009-.018.01-.006.026.014.025.017-.002.01-.023.003-.033.01-.002.002-.007.032-.009.033-.016.018-.017-.008-.03.009v.02c-.028.002-.044-.03-.068-.018.024.013.044.034.004.073-.016.017-.034.018-.038.023-.014.016.014.01.014.012l-.002.003c-.01.01-.032 0-.037.002-.008.006-.03.043-.037.05-.001 0-.02-.005-.027.01-.008.016.002.027.001.028-.005.009-.029-.003-.033 0-.003.003-.006.025-.009.029s-.018.004-.033.013c-.01.006-.01.019-.013.019s-.018-.017-.02-.016c-.004 0-.01.015-.013.017-.005.003-.007-.006-.01-.002-.002.003-.016.06-.025.069-.017.015-.002-.044-.044.04l.009.002c-.009.014-.043.016-.02.033-.057-.017-.028.019-.06.04-.013.009-.032-.002-.033 0-.012.015.003.009-.002.017-.003.004-.03.005-.035.017-.004.006.012.018.011.02-.003.014-.019.016-.024.023-.003.005.005.014.005.015-.002.002-.03.007-.037.01s-.007.017-.01.017c-.019.004-.005-.04-.031.016-.002.003.005.008.005.008-.009.016-.02.006-.032.014-.02.013.005.02-.02.018 0 .02.005.025.02.033-.04-.022-.093.01-.058.043-.01-.012-.033.014-.037.01-.002 0 .006-.04-.04.02-.006.008.012.01-.005.02-.02-.027-.01.008-.011.01-.032.031-.062-.05-.075-.057-.016-.007-.05.009-.053.006-.008-.008.011-.014.014-.02.003-.007-.044-.005-.044-.008.001-.01.02-.02.02-.021.005-.015-.038-.034-.043-.046-.01.01.007.028-.02.033-.03.006.012-.038.014-.04l-.172-.17c-.023.024.032.044.03.048-.013.023-.076-.04-.075-.057l.002.033c-.036.016-.024-.04-.05-.043-.008-.001-.01.018-.01.018-.016.006-.017-.01.003-.018-.026 0-.01-.013-.018-.023 0-.001-.007.014-.019.01-.006-.001-.025-.02-.037-.014-.005.003-.036.054 0 .02.004.038.023-.01.03 0 .002 0-.021.018.01.03-.04.03-.038-.02-.046-.02-.017 0-.001.054.033.033-.03.024-.001.006.005.015.008.01-.004.014 0 .019.013.013.027-.012.02.016.044-.065.025.01.018.033l-.047-.032-.007.011-.01-.011.01-.007c-.035 0-.02-.024-.02-.026-.017-.021-.039-.043-.058-.062-.003-.003-.019.017-.025-.018-.003-.01.018-.018.008-.024-.047.029-.017-.002-.02-.004-.008-.008-.022-.004-.023-.005-.011-.008-.024-.024-.037-.034 0 0-.006.018-.01.007 0-.004.027-.076-.009-.079l.005.025c-.001-.01-.055-.04-.059-.016-.001.014.046-.002.017.03-.005-.023-.096-.086-.094-.1 0-.001.015-.006.015-.008s-.02-.017-.018-.024c0-.003.015-.002.018-.006.002-.003-.016-.03-.03-.018.01 0 .021.02.003.023-.003 0 0-.014-.003-.013-.027.004.011.034.017.04-.038-.006-.053-.058-.088-.073 0-.02.031 0 .028-.02-.006-.042-.02.007-.023.008-.016.005.02-.072-.023-.029-.002-.015.006-.018-.011-.024l-.005.014c-.038.01-.004-.08.003-.083.019-.007.014.028.015.029.003 0 .052-.038.033.022.038-.021-.013-.053.026-.054-.016-.01-.047-.081-.068-.076-.002 0-.027.034-.025.006 0-.013.016.002.02-.008.011-.029-.118-.132-.142-.154-.001 0 .009-.01.007-.01-.005-.005-.034-.007-.038-.02 0 .034-.033.004-.039-.006-.01-.015.008-.03.006-.039-.007-.033-.076-.026-.057-.077-.034.036-.01-.044-.022-.057-.01-.01-.047-.002-.048.026-.015-.019-.04-.03-.058-.044-.003-.003.01-.01.005-.013 0 0-.01.01-.016.006-.04-.023-.004-.029-.003-.041l-.002-.014c.02.017.046.035.052.04.018-.027-.045-.037-.05-.054l.013-.012c-.003-.005-.033-.026-.043-.006-.002.006.01.017.025.03-.007-.001-.018.015-.019.015-.015 0-.021-.034-.026-.043-.002-.002-.01.007-.01.007-.005-.009.023-.031-.01-.012.02-.043.027.017.045-.006.014-.017-.069-.083-.093-.058l.006-.013c.004-.013-.02-.03-.027-.03-.002 0-.026.025-.027.025-.002-.002-.008-.046-.032-.04l.005.024c-.03-.03-.033-.018-.03 0v.002c.003.013.008.029.006.03-.007.008-.063-.04-.03-.052.004-.002.018.032.022.005.001-.005-.019-.016-.018-.019.006-.017.056.001.068-.02-.024.008-.026-.01-.04-.016-.006-.002-.019.009-.02.008-.01-.004.006-.013.003-.015-.001-.001-.044.01-.004-.024-.078-.024-.041.013-.008.043-.023.003-.036-.023-.048-.028-.004-.002-.015.012-.022.01-.016-.007-.054-.073-.064-.09.012.004.024-.012.016-.017-.007-.006-.02.018-.023.018-.003.001-.025-.038-.032-.04.029.016.037-.003.02-.023l.02-.004c-.017-.005-.02-.05-.033-.05-.002 0-.01.015-.01.015-.011-.001-.02-.032-.024-.029s-.005.02-.013.022c-.002 0 .006-.023-.006-.027-.004-.002-.013.01-.014.01-.012 0 .01-.015-.004-.023-.01-.006-.034.005-.04-.012.015.06-.007.02-.03.01-.003-.001-.02.02-.026-.004.067-.003.01-.027.002-.036 0 0 .012-.014.008-.018 0 0-.008.009-.013.006-.042-.03-.01-.017-.007-.032 0-.007-.03-.012-.035-.017 0 0 .009-.01.004-.013-.008-.007-.024-.004-.03-.008 0 0 .014-.015 0-.02-.004 0-.012.001-.012.01-.001.025.045.025.046.052 0 .025-.041-.014-.043-.016-.001 0 .014 0 .007-.009-.005-.008-.042.004-.047-.011 0-.001.012-.03.014-.031.001 0 .018.007.022 0 0-.002-.007-.01-.004-.015.005-.007.055-.064.054-.067 0-.007-.01.008-.012.004-.004-.008-.01-.044-.028-.026l.007.013c-.021-.017-.021 0-.027 0-.007 0 .01-.015.005-.023 0-.001-.031-.025-.038-.018.026.004 0 .02 0 .02.002.004.017-.004.02 0 .023.026-.02.02-.019.03 0 .003.015-.003.015-.001.001.004-.012.017-.009.018.007.002.02-.021.021-.022.015-.007.016.022-.013.032-.001.013.023-.01.018.003-.01.028-.018.01-.025.01-.024-.002-.019-.015-.04-.03-.008-.006-.027-.002-.03-.005-.003-.001.019-.06-.044.003-.001-.013.029-.066.02-.071-.008-.005-.029.02-.03.02-.002 0-.009-.01-.014-.01-.007.002-.014.011-.022.01-.021-.004.002-.026.002-.029.002-.032-.024.007-.03.006-.005 0-.035-.055-.052-.056l.024-.003c.008-.02-.022-.004.003-.03-.042.04-.028-.001-.034-.004-.002-.001-.008.006-.01.004-.01-.006-.022-.03-.03-.03-.033-.003-.012.069-.01.074-.006-.008-.057-.04-.058-.002 0 .006.024-.007.026-.006.016.007-.009.014-.01.017 0 .004.023-.005.023 0 0 0-.02.011-.009.022-.02.01-.038-.033-.046-.033-.002 0-.024.039-.02-.017l-.008.01-.046-.04c.008-.005.029-.01.016-.018-.008-.004-.018.015-.019.015-.01-.001-.098-.1-.117-.116-.007-.005-.036-.01-.037-.012-.01-.006-.03-.042-.037-.046-.004-.002-.013.013-.015.01-.003-.003.012-.012.012-.014-.003-.011-.072-.049-.074-.073.005.011.067.026.075.017 0-.001 0-.02-.006-.017.007-.014-.035.007-.035-.006 0 0 .02-.016.013-.03-.003-.004-.026 0-.02-.025-.022-.007-.073-.104-.097-.09-.001.001.003.018-.012.018-.02.001.023-.025.015-.039a.2.2 0 0 0-.038-.027c-.028.01-.01.044-.012.046-.007.005-.032-.014-.032-.016s.044-.01.013-.022l-.002.017c-.016-.004 0-.023 0-.027-.005-.01-.04.008-.019-.037.006-.013.02-.017.022-.019.008-.016-.029.011-.011-.018.001-.003.03-.003.005-.027l-.002.012c-.008.002-.035-.02-.037-.024-.006-.013.018-.021.007-.029-.016.029-.048.003-.027-.015-.028.02-.034-.023-.045-.035-.007-.008-.033-.012-.034-.015-.001-.005.016-.02.015-.03 0-.002-.028-.005-.024-.035 0-.006.023-.04.035-.042.02-.003.013.035.03.018s-.014-.028-.018-.036c-.015-.037.019-.04.024-.047.012-.016-.003-.03-.002-.031.003-.008.024-.01.033-.018.011-.01.017-.044.024-.045.01 0 .006.029.007.029.021 0 .033-.04.041-.057.003-.005.014-.006.014-.008.002-.033-.039.032-.045.019-.006-.012.022-.018.023-.019 0-.001-.01-.013-.005-.02.002-.004.062-.01.076-.025l-.037-.017c.019-.02.017.007.02.007.007-.002.01-.019.016-.024.004-.004.026-.009.024-.022 0-.005-.02.003-.016-.02.052.016.039-.018.044-.026.006-.008.038-.008.016-.024.036-.038.012-.012.024-.013.015 0 .011-.029.027.006.016-.02-.006-.038-.005-.04 0-.003.013-.007.014-.011.015-.053.013-.024.029-.051 0-.003-.01-.029.008-.018.03.02.016.054.073.006.004-.041-.052-.03-.058-.035-.01-.008.01-.01.012-.013 0-.002-.008-.008-.007-.01.035-.045.034.033.052.038l.009-.028.014.013c-.01-.033.003-.006.041-.033.008-.006-.018-.007.018-.012-.007-.016.004-.019-.016-.02.013-.013.051-.004.067-.002-.018-.047-.047.02-.05-.034-.021.011-.005.021-.008.023-.014.005-.008-.019-.052.003-.008.004-.017.029-.027.016l.007-.023c.012-.01.015 0 .02-.004s-.006-.01-.005-.01c.014-.015.012 0 .016-.005.007-.012.01-.07.038-.024-.047-.016-.02.011-.002.017.005.002.014-.006.021-.005.01.002.013.013.017.014s.007-.036.027-.004c.007-.033-.038-.035-.037-.062.002-.055.053-.016.06-.015.002.001.01-.015.01-.014.003 0 .023.03.035.023s-.01-.009 0-.02c.006-.006.048.012.036-.009-.008-.014-.056-.008-.03-.04l.056.042.006-.06c.022.016.026.044.06.046-.009-.078.04-.014.046-.018.003-.002.014-.047.017-.055.025.004.076.044.085-.018-.004.013.027.005.029.004.014-.017-.021-.033-.003-.043.02-.01.005.018.014.023.047.03.118-.062.143-.011l.006-.011.11.137c.041-.008.1.02.118.043a.2.2 0 0 1 .01.043c0 .007-.019-.007-.02.008 0 .003.03.044.041.028-.002-.006-.021-.011-.02-.017.009-.037.1.09.114.087l.006-.021zm-1.424.793c-.018.01-.018-.01-.028-.013-.014-.003-.082.036-.022-.011zm.16.202c0-.016.036-.04.03-.02 0 .002-.029.041-.03.02m-.073-.101.007.008c-.005.019-.025-.005-.007-.008m.436.405c-.01-.008-.03.026-.014.02zm-.006-.007c.018-.032-.046.003-.03.01zm-.375-.338c.01-.009.015.004.016.01-.008.009-.01-.008-.016-.01m.22.214c.008-.007-.022-.036-.034-.029.009.001.027.035.034.03m.087.066c0-.002-.012-.01-.018-.003-.003.013.016.012.018.003m.151.152c.003 0 .036-.05.027-.004-.001.007-.021.008-.022.01v.01c-.012-.006-.022-.013-.02-.016.007-.016.014 0 .015 0m.11.05c.01-.006.017.01.017.015 0 0-.02.016-.014.02.005.003.017-.021.022-.01.005.01-.018.013-.018.014 0 .003.02.007.009.017-.008.007-.016-.011-.021-.013s-.014.016-.018.006c-.003-.006.022-.026.022-.028s-.028-.004.002-.021m-.101-.033q-.003 0-.004-.002zm-.575-.596c-.003.012-.025.008-.02-.006.007-.008.02.005.02.006m.601.585c.007.018-.01.017-.026.01.008 0 .024-.016.026-.01m-.368-.35-.008.01zm.022.038c.023-.003.002-.023-.007-.013-.004.003.006.013.007.013m.245.232c0-.002.055-.028.004-.019.006.016-.01.009-.013.012-.01.011.018.02.018.029.021-.015-.01-.015-.01-.022m.31.277c-.013.008-.017-.004-.022-.01.013-.008.018.004.022.01m1.417 1.42c-.047-.028-.008-.076.009-.025 0 .001-.002.023-.009.025m-.307-.33c.015-.023.03-.014.03.001 0 .004-.013.03-.024.026.023-.023.02-.043-.006-.027m-1.3-1.292c.016-.009.019.011.023.02-.014.006-.021-.01-.023-.02m1.508 1.477c-.003-.005-.022.008-.022.01-.004.01.017.004.022-.01m-1.542-1.515c.007-.008.029 0 .011.019-.002-.005-.016-.014-.011-.02m.22.224c.001-.006.02 0 .02.006-.008.008-.021-.002-.02-.006m1.253 1.234c-.002-.005-.01-.014-.018-.009-.01.007.006.017.018.009m.667.638c-.003.003-.038.01-.038 0-.002-.022.04-.003.038 0m-.553-.552c-.004.026-.002-.001-.017.016.006.008.024.027.027-.002.001-.005-.007-.01-.01-.014m-.005-.016c-.006.004-.03.013-.023.019.004.002.028-.011.023-.019m.466.49c.005-.024.043.03.041.034l-.002.005c.006-.003.016.004.005.017-.002-.003-.01-.01-.01-.012l.002-.002c-.013.007-.037-.037-.036-.041m-.06-.09c.033-.01-.002.029-.004.03-.027.002.008-.017.009-.019 0-.003-.02.001-.005-.01m.05.07c.002 0 .01.01.01.011-.004.02-.028-.01-.01-.012m-1.862-1.877c.003.01-.017.017-.017.008 0 0 .014-.017.017-.008m1.397 1.405c.001-.004-.03-.054-.047-.031.006 0 .041.057.047.031m-.297-.307c.007.008-.02.019-.016.008 0-.004.014-.01.016-.008m-1.28-1.257c-.017.003.02-.03.014-.012zm1.326 1.325c-.036-.013.03-.067.042-.015l-.011.005c.028.046-.002.007-.014.001-.005-.002-.012.011-.017.01m-.082-.106c.019-.067.036.006.055.014-.03.005-.044-.014-.04.026-.036-.029-.005-.032-.005-.035s-.01-.003-.01-.005m.063.062c.002 0 .004.019.009.021-.02.01-.027-.022-.01-.021m.596.617c.012-.01.023-.017.027-.005q-.013.003-.027.005m-2.467-2.484c-.005-.006-.011-.022-.02-.006 0 .001.013.013.02.006m2.033 2.024c0-.003-.03-.035-.031-.011-.001.006.029.033.031.01m.159.16c-.003-.002-.016-.01-.019-.008-.01.009.008.017.018.009m-2.208-2.224c0-.002-.02-.017-.023-.01-.007.015.021.017.023.01m.812.783c.002.001-.009.015-.009.016.001.001.032.023.006.029a.2.2 0 0 1-.039-.05c.015-.019.015.014.02.016.002 0 .017-.013.022-.01m1.726 1.771c.012-.01.05.014.036.027zm-.014-.017c0-.015.019-.002.02.006-.007.008-.02-.004-.02-.006m-.334-.411c-.006 0-.012.025-.018.026-.003 0-.004-.013-.011-.01-.002 0-.01.023-.007.024s.012-.012.015-.01c.011.011.012.029.022.038.001.001.003-.014.01-.006.001.001-.004.02.007.028.058-.019.035.034.074.045.003-.004-.006-.033-.007-.034a.5.5 0 0 0-.075-.089c-.005-.006-.01.005-.013.003s.015-.014.003-.015m-2.163-2.091c.013-.018-.006-.018-.011-.024-.012.015.009.015.011.024m2.37 2.352c-.004-.003-.008-.016-.014-.013-.006.005.003.022.014.013m-1.442-1.452.007.009c-.005.018-.025-.006-.007-.009m.17.175c.007.004.017.005.007.019-.002-.005-.016-.01-.007-.018m.238.238c.015-.017.021.01.023.015-.008.006-.033-.002-.023-.015m1.169 1.125c.009.01.03-.015.026.002 0 .003-.047.056-.04.026.002-.005.022-.01.014-.028m-.58-.531c.014-.008.018.003.023.01-.009.006-.018-.007-.022-.01m-1.971-1.985c.01-.02-.023-.03-.027-.015 0 .002.024.012.027.015m.71.723c.021-.003.006-.025-.01-.02zm.624.602s.01.011.009.012c-.005.02-.028-.01-.01-.012m-.228-.247c.013-.007.028.024.024.038-.02.01-.04-.03-.024-.038m1.396 1.403a.05.05 0 0 1 .014.027c-.009.007-.019-.02-.014-.027m-1.132-1.122v.003zm.977.956c-.002-.01-.016.006-.016.007 0 .01.02.003.016-.007m-2.285-2.266c.01-.015-.01-.015-.012-.024-.01.012.006.02.012.024m1.783 1.786c.007-.022.055-.008.052.008-.009.01-.053-.005-.052-.008m-1.142-1.16c.01-.011-.016-.012-.018-.004-.001.005.012.01.018.004m1.203 1.19c.006-.001.003.016-.006.02-.011.005.004-.02.006-.02m.268.25c0-.003-.028-.009-.031.009-.003.012.013-.002.014-.001s.01.047.017-.008M24 25.814c.01.002.013.014.02.02-.009.005-.026-.01-.02-.02m-.927-.932c.003-.006-.037-.05-.026-.014.001.002.018.032.026.014m1.796 1.794-.003-.006zm-.113-.116c.01-.005 0-.02-.007-.019-.01.009.006.02.007.019m-.724-.735c.008 0 .01.01.015.015-.008.006-.021-.006-.015-.015m-.264-.28c.003.012.015.02.023.01l-.003.006c0 .002.012.006.012.013.004.04-.093-.072-.008-.037zm-.354-.359c.006-.014-.019-.013-.02-.006 0 .005.014.021.02.006m.174.162c0-.003-.018-.008-.024-.002 0 .012.021.017.024.002m-.195-.207c-.001-.005-.021.009-.022.01-.003.009.017.004.022-.01m1.5 1.468c.002-.009-.024-.01-.038-.001l.004-.013c.001-.008-.099-.118-.05-.026.002.003.008-.01.016 0 0 .001-.008.01-.006.012.003.005.02.033.031.03l-.003.006c-.006.017.046-.001.047-.008m-1.28-1.239c.001-.005-.01-.01-.017-.004 0 .008.016.017.017.004m-.51-.52c0-.01-.023-.011-.026-.002-.001.006.024.015.025.003m.43.448c.02.037.008.006.023 0zm1.463 1.468c-.002-.007.024-.022.018-.006-.002.005-.017.01-.018.006m.208.195c.015-.022.023.008.003.013zm-.133-.148c-.016.01-.02.009-.025-.003.017.01.016-.014.025.003m-1.278-1.259-.002.002zm-.43-.436c.008-.015-.003-.024-.01-.01-.002.001.001.016.01.01m1.492 1.49-.005.004zm-1.43-1.446c-.008.007.003.025.005.025.023-.005.002-.02-.005-.025m-.41-.421c-.002 0-.018.025-.007.02.009-.004.012-.02.006-.02m2.09 2.096c.005.004.011.011.003.022-.002-.005-.01-.015-.003-.022m.105.104c-.017.006-.03-.007-.036-.017.015-.016.028.015.037.017m-.309-.313c0-.002-.007-.018-.016-.006-.012.017.014.014.016.006m-1.875-1.853c.013-.002.022-.036 0-.025-.011.006-.002.025 0 .025m.32.298c-.012-.001-.005.027.008.018-.002-.004-.002-.018-.007-.018m.25.228c.009-.053-.035.015-.026.014zm-1.271-1.257c-.008.001-.012.028 0 .02.007-.006.004-.02 0-.02m1.584 1.61-.003-.003q.001 0 .003.002m-.584-.686c-.028.059.003.024.005.025.002.004-.003.022.005.026l-.034-.004c.002.008.029.067.037.06.011-.008-.005-.018-.005-.02 0-.001.027-.032.026-.034 0-.004-.036-.04-.035-.053m.22.291c0 .007-.01.02-.005.018.001 0 .012-.01.017-.011zm-.287-.28c.008-.017.023.008.022.01-.005.012-.03.004-.022-.01m.169.166c0-.002-.011-.02-.018-.014-.002.01.017.032.018.014m.133.122c.004.007.003.027.018.01zm-.482-.508c.016-.035-.012.002-.011.019.014-.01.009-.013.011-.019m-.012-.05c.001-.008-.032-.03-.041-.013-.003.006.025.01.025.012 0 .003-.02.012-.009.018.005-.005.024-.015.024-.017m.02.026c.01-.03-.028.004-.02.012.002.003.019-.008.02-.012m.037.043c0-.007-.004-.021-.023-.016l.023.03c.008-.007 0-.008 0-.014m2.237 2.13c.003-.017.024-.003.023 0-.006.01-.024.009-.023 0m-2.774-3.247c.002-.006.013-.02.002-.019l-.015.044c.026-.019.01-.018.013-.025m.063-.1c.001 0 .032-.038.018-.006-.01.021-.057.004-.048-.017.014 0 .02.022.03.023m.092-.205c.002-.003.019.005.018.009-.003.017-.03.008-.018-.009m.032.046c.001-.012.018-.004.018.003-.006.007-.018-.001-.018-.003m3.005 2.931c.017-.03-.038.015-.019.015zm-2.99-3c-.001.013-.018.005-.018-.003.006-.007.018.002.018.004m3.041 2.94c.009-.025-.044.034-.046.038-.005.013.032.005.04.003-.03-.014.002-.03.006-.04m-.072-.004c-.013-.002-.005.03.014.017-.004-.003-.01-.017-.014-.017m-.028-.064c-.002-.007-.01-.024-.02-.017.006.003.01.024.02.017m.018-.036c.005-.019-.032.015-.014.012zm-.024-.049c.01-.018-.029.011-.023.019.002.002.022-.017.023-.019m.157.082c0-.012-.032.005-.022.02l-.025-.002c.003.03.036-.005.04.002.004.008-.024.036-.035.043.023-.011.047.012.064.022-.005-.019-.012-.05-.02-.067-.001-.005-.012 0-.014-.004-.004-.006.012-.013.012-.014m-.204-.13c.004-.028-.023.014-.01.015zm-2.801-2.858c.002.03-.029.037.035.043-.035.006-.016.014-.027.02-.009.003-.012-.01-.02.008.008-.021-.024-.045-.023-.049 0-.002.034-.032.035-.022m2.943 2.901c.038-.045-.03.019-.004-.024-.06.04.03.03-.007.077-.039-.049-.012.071.02-.023.002.049.016 0 .028-.003.013-.005.018.019.032.003l-.03-.023c-.024.042-.032.014-.01-.02zm.019.081c0-.001-.024-.016-.03-.008-.001.007.031.029.03.008m.091.077c-.007-.007-.01-.024-.027-.015.007.007.01.024.027.015m-.35-.355c-.02.001.004.031.009.011 0 0-.009-.012-.01-.011m.214.184c.004-.022-.032.023-.015.019zm-2.899-2.88c.01-.01.028.022.032.026-.012.007-.044-.015-.032-.026m3.084 3.026c.022-.049-.038-.027-.039-.03 0-.002.018-.015.018-.015a.1.1 0 0 0-.025-.023c-.002 0-.02.026-.031.029.021-.004.053.043.057.043s.014-.036.02-.004m-.039-.04c-.004.015-.02.001-.02-.006 0-.015.02.005.02.007m-.028-.044c0-.004-.013-.021-.025-.012-.005.02.024.02.025.012m-.174-.171c-.005-.003-.009-.022-.018-.014.005.003.009.022.018.014m-2.684-2.767c.001-.014.02-.001.02.007-.005.006-.02-.005-.02-.007m2.824 2.79a.3.3 0 0 0-.066-.05c0 .013.047.062.053.06zm.11.1c.017-.008.004.01.004.011.004.008.018.016.003.026-.005-.014-.043-.02-.008-.037m-.194-.186c-.022-.012-.004.034.006.016 0-.001-.004-.015-.006-.016m.093.087c.014-.007.054.05.062.059-.027.012-.018-.008-.028-.017-.003-.002-.01.007-.01.006-.005-.004.007-.01.005-.013-.002-.001-.05-.025-.029-.035m.112.093c.01-.005.044.022.043.026-.006.024-.043-.021-.043-.026m-.1-.115c.029-.017.038.022.01.017-.003 0 0-.017-.01-.017m-.082-.085c0-.001-.013-.023-.02-.016 0 .005.022.033.02.016m.034-.015c-.001 0-.01.018-.017.008 0-.001.014-.018-.002-.022-.003-.001-.017.006-.017.007-.014.035.064.02.036.007m.161.203c.005-.008.028-.024.022-.01-.003.005-.017.014-.022.01m-.243-.249c.022-.002-.008-.035-.012-.034-.006.008.01.034.012.034m-2.607-2.698c.006.01-.01.015-.01.016.004.032.022.005.027.005.012 0-.016.027.005.026-.033 0-.011.008-.02.018-.038.041-.004-.04-.02-.04-.003 0-.007.02-.014.021-.021.002.01-.09.032-.046m2.877 2.938c.015-.008.034.033.016.034-.003 0-.04-.023-.016-.035m-1.37-1.404c.018-.003.013-.031.002-.026-.005.002-.01.027-.002.026m-.073-.159c-.01-.006-.06.027-.044.03.002.001.04-.023.044-.03m.535.578c.007-.023-.02.005-.014.01.003.003.014-.009.015-.01m-.34-.334c0-.002-.013-.01-.019-.003 0 .007.017.015.018.003m.347.333c-.01 0-.021.03.005.016-.005-.002-.004-.016-.005-.016m.805.812c-.016.007-.025-.008-.034-.014.014-.015.026.012.034.014m-1.327-1.336c-.019.002-.01.028.002.013zm.806.805c-.014.003-.008.034.003.013zm.076.086c-.001-.007-.021-.025-.022-.01 0 .003.014.018.022.01m-2.308-2.308c.013-.017.023 0 .023.005 0 .002-.04.018-.023-.005m1.886 1.883c-.006-.003-.014-.019-.024-.013.007.004.01.03.024.012m-.424-.43c.01-.023-.004-.033-.022-.009.014.012.017-.02.022.01m.534.5c-.003-.005-.026.013-.027.014-.005.013.022-.002.026-.014m-.293-.259c.009-.009-.007-.016-.011-.01-.002.003.004.018.011.01m.9.9c.003-.013.028-.005.023.01-.01.016-.022-.008-.022-.01m-.51-.534c.013-.013-.013-.024-.017-.006 0 .005.012.01.016.006m.191.16c-.028.004.013.066.019.033a.1.1 0 0 0-.019-.033m.075.095c0-.004.045-.047.037-.021-.002.003-.019.01-.02.013a.1.1 0 0 0 .014.027c.002 0 .015-.015.017-.016.003 0 .002.023.009.03.01.012.024.001.025.002.003.003 0 .016.005.021.028.029.082.062.08.11-.01-.03-.04-.039-.064-.056.03-.018-.048-.01 0-.018a.4.4 0 0 1-.103-.092m-.974-.997c.02-.01-.01-.033-.03-.018.002.006.028.02.03.018m.16.087c.005 0 .037-.027.035 0 0 .009-.012.012-.014.015 0 .001-.003.028-.015.02-.019-.011.02-.023.012-.031 0-.001-.032 0-.034.004 0 0 .008.002.007.004-.003.008-.013.016-.014.017 0 .002.04.01.03.028-.003.005-.053-.024-.052-.028 0-.002.027-.027.028-.03 0-.003-.025-.009-.024-.013v-.004c-.005.01-.019-.004-.01-.013.004-.003.012.009.012.01v.001c.007-.012.04.022.047 0 .018.002-.023.02-.008.02m.063.03-.011.006c.023.01.03.043.05.062.005.005.015-.017.017-.006.002.009-.008.03-.014.03-.001 0-.002-.02-.008-.024-.02-.013-.03.005-.03.005-.002-.001-.002-.02-.008-.026-.014-.012-.03-.01-.036-.04.02.002.034-.024.04-.006m.602.663c.01-.009.012.01.018.013-.01.008-.013-.01-.018-.013m-1.642-1.665c-.018.011.004.04.01.021 0-.004-.007-.018-.01-.021m.106.123c.007 0 .004-.024-.007-.013-.004.004.006.014.007.014M25 24.832s.007.013.006.014c-.009.022-.03-.018-.006-.014m-.982-.99c-.021-.003.01.037.012.014zm.053.046c-.004-.002-.012-.02-.016-.015-.008.007.002.026.016.015m1.169 1.175c.015-.017.02.012.027.015-.015.018-.02-.01-.027-.015m-.093-.117c.083.057.032.077-.013.004.01-.011.007-.008.012-.004m.088.092c-.013.008-.018-.003-.023-.01.009-.006.017.008.023.01m-1.488-1.495c.018-.009.02.027.012.029-.002 0-.02-.023-.012-.029m1.272 1.281c.015-.018.03.01.028.015-.008.021-.022-.017-.027-.015m.335.325c.016-.008.02.009.027.016-.014.007-.021-.01-.027-.016m-.04-.059c.001 0 .01.01.01.012-.005.02-.028-.01-.01-.012m-2.047-2.07.007.009c-.006.018-.025-.006-.007-.01"/></g></svg>