<svg xmlns="http://www.w3.org/2000/svg" width="15" height="18" fill="none" viewBox="0 0 15 18"><path fill="#ffcb83" d="M9.825 8.607c.039-.467.97-.35 1.118-.864s-.22-.8.164-1.273c.384-.474.396-1.144.693-1.288.295-.143-.196-.437.1-.707q.053-.048.093-.093c.212-.234.247-.457.244-.789-.002-.152.054-.397.147-.654a3.6 3.6 0 0 1 .26-.564c.017-.031.034-.06.055-.101.012-.028.021-.028.045-.122-.008-.045.063-.04-.059-.282-.074-.132-.305-.164-.338-.147-.066.009-.094.023-.112.03-.07.033-.072.04-.09.048a1.1 1.1 0 0 1-.315.158c-.178.046-.288.172-.36.323-.111.229-.124.503-.176.657a.6.6 0 0 0-.032.216c.001.027.024.057.053.08.036.028.08.044.1.027.1-.08.277-.184.541-.238a.7.7 0 0 0 .237-.082c.167-.097.189-.356.438-.45-.002.003-.003.005-.018.016-.027.009.008.028-.195.07-.046.004-.15.015-.278-.05a.47.47 0 0 1-.223-.253c-.05-.173-.026-.173-.027-.22.006-.058.011-.069.013-.08-.305.244-.81.499-.933 1.142-.056.274-.227.39-.413.506-.269.165-.563.32-.577.934-.024 1.038-.86.703-1.416 1.451S7.87 8.002 7.558 8.465c-.31.463-.772 1.06-1.064 1.796-.16.405-.462.798-.743 1.205-.23.333-.447.677-.567 1.054-.266.842-.7 2.008-.865 2.576-.164.568-.21.706-.608 1.097a1.6 1.6 0 0 0-.447 1.044c-.01.217.148.272.318.163.249-.161.314-.387.56-.391.494-.008.692-.023.698-.446.004-.424.544-.273.609-.48.063-.21-.199-.37.582-1.134.778-.767 1.133-1.236 1.393-1.55.129-.156.243-.449.375-.765.133-.318.284-.66.492-.918.416-.514.996-1.703 1.4-2.088.405-.386.096-.555.134-1.021"/><path fill="#ffcb83" d="M11.821 2.741a.5.5 0 0 1 0 .16c-.085.488-.87.792-.89 1.437-.02.713.415.894.15 1.673-.257.76-.11 1.588-.333 1.94l-.02.03c-.252.34.313.451.11.954-.2.509-.161.85.003 1.324.068.195.133.554.196.93l.002.03c.125.515.21 1.101.125 1.42-.144.544.37 1.059.638 1.341q.042.045.083.077 0-.006.003-.004.001.001.001-.004l-.002-.009-.004-.015c.008-.02-.035.01.03-.127.051-.073.158-.068.176-.056.026.01.024.01.032.015q.015.01.016.013l.007.008q.002.004 0 .004l-.006-.001-.037-.015-.072-.03c-.03-.01-.068.002-.099.025-.038.028-.064.07-.048.102l.028.06.018.037.01.014c.005.005 0 .005.026.023.014-.003-.003.04.126.006.118-.089.064-.135.074-.136-.004-.022-.005-.023-.007-.028-.008-.025-.008-.026-.01-.036-.046-.152-.043-.341.025-.577.18-.575-.165-.553-.121-1.31.025-.366.102-.67.14-.98l.004.056a2.5 2.5 0 0 0 .017-1.03c-.122-.753.579-.922.53-1.832a2.5 2.5 0 0 0-.049-.376c-.254-1.293.668-1.28 1.035-2.477.2-.649.245-1.42.27-2.128.007-.214.011-.417.017-.624l.008-.336c0-.077.008-.108-.006-.326-.015-.073.02-.11-.113-.432a1.1 1.1 0 0 0-.294-.382c-.162-.164-.62-.308-.878-.252-.552.113-.581.258-.68.321-.229.237-.193.24-.226.283-.088.163-.08.156-.133.215-.312.34-1.126.82-1.934 1.41a4.5 4.5 0 0 1-.715.416c-.765.366-1.671.66-2.402 1.171-.984.691-2.414 1.621-3.054 2.1s-.8.594-1.524.795a2.9 2.9 0 0 0-1.306.822c-.187.209-.073.335.188.305.382-.045.632-.237.883-.128.503.22.71.297 1.062-.115.351-.411.763-.01.997-.181.234-.172.109-.458 1.508-.82 1.4-.363 2.144-.641 2.662-.82.457-.158 1.22-.745 1.975-1.118.111-.055.214-.102.323-.147.877-.347 2.458-1.41 3.246-2.2.16-.141.314-.366.323-.392l-.034.044a1 1 0 0 1-.077.09c-.053.052-.088.116-.328.265a1.4 1.4 0 0 1-.744.189 1.3 1.3 0 0 1-.59-.163 1.2 1.2 0 0 1-.348-.283c-.273-.355-.24-.457-.274-.546-.03-.156-.022-.187-.023-.226.009-.105.024-.074.037-.068.026.028.058.083.092.139.07.115.149.258.185.486"/></svg>