<svg xmlns="http://www.w3.org/2000/svg" width="115" height="142" fill="none" viewBox="0 0 115 142"><path fill="#3784ff" d="M66.777 31.645c-1.323-3.658-4.348-5.316-7.011-8.883-2.826-3.51-2.72-4.76-7.076-7.777-4.41-2.936-9.073-5.68-11.498-6.206-2.31-.469-2.21-1.7-5.583-2.46-3.298-.69-5.413-1.318-8.237-2.244-2.997-1.057-12.224-2.39-15.633-1.997-3.575.29-7.192-.53-9.65-.684a20 20 0 0 1-1.8-.191C.093 1.172.001 1.099 0 1.025-.002.932.135.838.384.82A61 61 0 0 0 5.43.233c3.747-.574 4.339.093 9.49.096 5.24.089 8.46-.227 14.52 1.383 5.925 1.786 7.954.27 15.822 4.605 7.476 4.778 9.275 3.64 16.265 9.626 7.064 6.226 10.924 17.511 12.182 22.632 1.534 5.162 2.761 12.362 2.436 19.9-.255 7.51-.83 16.805-2.99 24.766-2.06 7.983-5.978 18.864-8.103 23.749-2.093 4.869-2.634 6.069-4.284 10.902q-.102.298-.215.607c-.986 2.7-2.632 6.138-4.815 8.551-1.227 1.263-1.197.734-.373-.733 1.155-2.187 2.139-3.998 2.303-5.33.163-1.418.246-2.388.542-3.419.258-.907.686-1.858 1.45-3.223 1.607-2.873 1.123-4.727 1.87-6.448.712-1.746 1.463-1.481 3.85-10.853 2.284-9.394 3.156-14.563 3.736-18.145.587-3.56 2.27-10.979 2.29-16.87.297-5.862-.622-17.748-2.447-22.128-1.638-4.39-1.002-4.587-2.183-8.256M51.86 127.696c.288.29-.616-1.225-.39-1.079.238.14.796.891.803.628.004-.262.516.155.346-.198-.172-.352.531.574.462.303-.07-.27.072-.188.376.054.305.243.738.315.535-.116s.391.126.569.229c.055.032.12.084.184.142.026.024.076.081.122.139.057.072.11.146.112.16.006.067.056.219.212.522.29.567-.149.034-.083.39s.375.928-.038.722c-.41-.209.597 1.207-.228.595-.818-.62.234.86.103 1.248-.104.295-.658.029-1.059-.01.111-.108.237-.216.44-.452.156-.216.6-.645.58-1.662-.015-.517-.293-1.103-.606-1.419a2.3 2.3 0 0 0-.782-.549c-.407-.165-.598-.171-.765-.192-.299-.026-.418-.014-.521-.006-.182.018-.221.056-.172.164.13.202-.123-.353.257-.12.393.227.994.387 1.364.517.367.133.463.148.391-.107-.039-.151.124-.159.556.049.218.105.467.318.552.462.124.21-.037.165.25.46.57.592.776.835.34.613-.436-.224.334.536.192.508-.144-.028-.602-.465-.507.143.08.618-.034.884-.088 1.083-.066.21-.685-.003-.873.345-.1.177-.34.33-.733.494-.21.081-.437.176-.88.236-.217.022-.517.061-1.033-.078a2.7 2.7 0 0 1-.461-.184 2.7 2.7 0 0 1-.578-.41c-.406-.356-.77-1.054-.821-1.641a2.7 2.7 0 0 1 .15-1.273c.096-.262.207-.454.31-.606a2 2 0 0 1 .452-.485c.253-.182.402-.19.565-.187.094.162.252.411.395.568m4.842-3.956c.389.182-.732-1.184-.426-1.132.308.051.977.706.99.401.01-.303.616 0 .418-.344-.2-.343.622.479.542.196s.087-.235.44-.054c.355.181.854.139.625-.289-.23-.426.453.031.655.098a1 1 0 0 1 .21.109c.031.02.087.07.14.123a.7.7 0 0 1 .126.148c.007.074.062.23.24.527.33.552-.17.076-.094.454.076.377.437.923-.035.806-.47-.118.706 1.16-.24.71-.944-.454.295.874.196 1.303-.1.431-1.126.019-1.23.227-.105.211-.184.569-.578.6-.31.024-.308.473-.564.613a.4.4 0 0 1-.266.031c-.54-.098-1.255-.204-1.655-.344s-.49-.17-.515.135c-.014.175-.22.187-.62-.091-.203-.139-.394-.406-.437-.572-.064-.242.097-.175-.119-.527-.433-.701-.598-.971-.197-.684.403.286-.235-.59-.099-.541.137.048.545.54.525-.084-.022-.623.052-.852.083-1.035a.08.08 0 0 1 .042-.055c.14-.075.584.052.62-.211.041-.303.515-.486.433-.857-.082-.369.403.154.79.339m-13.148 6.041c.918-3.595-.4-6.711.496-11.109.893-4.394 1.92-4.924 2.426-10.03.383-3.895 1.225-7.73 1.53-10.346.096-.817.14-1.506.11-2.046-.142-2.293 1.055-2.417 1.065-5.64-.016-3.224.222-5.129.586-7.92.13-1.015.21-2.794.139-4.81l.006.052c-.347-3.553-1.007-7.773-1.672-9.684-1.036-3.006-.986-6.652-1.791-8.615q-.123-.31-.234-.582l-.006-.012-.028-.078-.016-.048c-.005-.036-.013.022-.028-.164.006-.042 0-.195.21-.285.199-.051.252.03.261.025a.3.3 0 0 1 .093.082l.03.043q.024.038.04.068a8 8 0 0 1 .304.658c.066.164.048.272-.014.314-.077.05-.221-.002-.354-.18a14 14 0 0 0-.255-.331 4 4 0 0 0-.169-.197c.005.002-.03-.017.042.034.01.002.025.03.135.034.129.004.235-.14.237-.191.018-.122.003-.087.004-.11l-.005-.02c.005.006.028.046.047.077l-.005-.01c.581.839 1.217 2.019 1.855 3.366 1.523 3.366.898 3.916 2.047 8.601.615 2.611 1.19 4.606 1.657 6.863.002.02.01.083.011.104.256 1.855.388 3.892.175 6.47-.55 5.589.966 7.125-.723 14.579q-.057.245-.12.5c-1.974 7.831-.318 8.889-1.208 16.815-.62 5.462-2.013 11.82-2.95 16.761-.416 2.214-.747 4.198-.796 5.493-.008.19-.002.44.003.412-.009-.032.026-.032-.092-.396-.053-.13-.077-.229-.274-.515a2.2 2.2 0 0 0-.467-.476 2.25 2.25 0 0 0-2.049-.345c-.28.096-.379.161-.508.239-.245.162-.306.236-.385.313-.23.253-.196.248-.212.26-.002.001.014-.03.036-.075 2.146-4.696 6.846-9.097 12.002-12.594 2.296-1.553 4.783-3.234 7.422-4.895 3.95-2.486 8.154-4.976 12.254-6.932 6.806-3.254 16.451-7.695 20.967-9.633 4.517-1.939 5.611-2.412 9.702-4.771 2.351-1.356 5.725-2.957 8.743-3.983 1.518-.517 1.348-.061 0 .808-1.973 1.272-3.747 2.013-4.63 2.928-1.762 1.827-2.528 2.575-5.443 3.544-2.915.97-3.685 2.588-5.313 3.292-1.62.706-1.905.113-9.631 4.728-7.718 4.624-11.962 7.101-14.87 8.851-2.02 1.219-5.796 3.053-9.382 5.123-1.55.895-3.055 1.843-4.376 2.803-3.991 2.793-11.616 8.655-13.139 13.027a5 5 0 0 1-.158.299c-.04.068-.081.139-.155.246-.076.104-.141.219-.41.479-.119.107-.338.313-.762.503-.458.24-1.576.371-2.375-.128-.404-.243-.547-.409-.72-.608a2.7 2.7 0 0 1-.304-.451 3 3 0 0 1-.21-.503c-.07-.224-.092-.361-.11-.466a5 5 0 0 1-.035-.263c-.05-.541-.04-.765-.046-1.048.049-3.556.529-4.312 1.062-5.904.221-.618.468-1.359.733-2.4"/></svg>