<svg xmlns="http://www.w3.org/2000/svg" width="81" height="25" fill="none" viewBox="0 0 81 25"><path fill="#f4ebf5" d="M34.722 11.75c-1.746-.183-3.108.71-5.235.602-2.127-.109-2.44-.574-4.882-.452-2.42.122-4.869-.182-5.95.017-1.064.2-1.209-.381-2.737-.242-1.53.14-2.457.07-3.817-.11-1.328-.18-5.475-.307-6.984-.057-1.49.248-3.221-.13-4.249-.205a6 6 0 0 1-.755-.097C.036 11.19 0 11.153 0 11.116c-.001-.046.05-.093.15-.1.476-.04 1.272-.13 2.167-.312 1.68-.336 1.858.006 4.156-.177 2.28-.182 3.62-.513 6.324-.325 2.65.189 3.295-.683 7.063-.216 3.776.467 4.18-.443 7.937-.59 3.765-.148 8.522.31 10.793.244 2.265-.065 5.316-.206 8.534-.134s7.185-.301 10.733-.18c3.534.127 8.555.21 10.887.22 1.407.015 2.275-.008 3.111-.128a11.5 11.5 0 0 0 1.87-.436c.293-.096.605-.201.916-.336.153-.066.304-.14.432-.223.063-.04.122-.085.157-.12.018-.016.03-.034.023-.017.002.02-.032-.002-.001.175.01.037.051.154.192.218a.34.34 0 0 0 .315-.017c.086-.057.091-.086.105-.107-.347.503-.71.857-1.102 1.23-.116.12-.315.233-.508.22-.19-.01-.314-.085-.422-.127-.286-.135-.44.034-.456-.065-.004-.038.022-.128.162-.209.142-.088.382-.06.545-.034.2.018.196-.012.291-.12.364-.48.725-.929.849-1.257.02-.036.03-.06.083-.114.046-.032.12-.148.38-.103a.416.416 0 0 1 .3.335c.013.071.007.117.004.15-.022.135-.053.188-.08.249-.055.11-.11.187-.154.257-.968 1.161-1.532 1.344-3.039 1.424-.26.005-.49.023-.708.054-.975.13-1.541.533-2.272.543-.809-.009-.874-.282-5.116.156-4.26.42-6.588.526-8.229.627-1.587.099-4.996-.11-7.623.031-2.624.145-7.984.12-10.137.304-2.159.185-2.164-.172-3.91-.355"/><path fill="#231f20" fill-opacity=".4" d="M34.722 11.75c-1.746-.183-3.108.71-5.235.602-2.127-.109-2.44-.574-4.882-.452-2.42.122-4.869-.182-5.95.017-1.064.2-1.209-.381-2.737-.242-1.53.14-2.457.07-3.817-.11-1.328-.18-5.475-.307-6.984-.057-1.49.248-3.221-.13-4.249-.205a6 6 0 0 1-.755-.097C.036 11.19 0 11.153 0 11.116c-.001-.046.05-.093.15-.1.476-.04 1.272-.13 2.167-.312 1.68-.336 1.858.006 4.156-.177 2.28-.182 3.62-.513 6.324-.325 2.65.189 3.295-.683 7.063-.216 3.776.467 4.18-.443 7.937-.59 3.765-.148 8.522.31 10.793.244 2.265-.065 5.316-.206 8.534-.134s7.185-.301 10.733-.18c3.534.127 8.555.21 10.887.22 1.407.015 2.275-.008 3.111-.128a11.5 11.5 0 0 0 1.87-.436c.293-.096.605-.201.916-.336.153-.066.304-.14.432-.223.063-.04.122-.085.157-.12.018-.016.03-.034.023-.017.002.02-.032-.002-.001.175.01.037.051.154.192.218a.34.34 0 0 0 .315-.017c.086-.057.091-.086.105-.107-.347.503-.71.857-1.102 1.23-.116.12-.315.233-.508.22-.19-.01-.314-.085-.422-.127-.286-.135-.44.034-.456-.065-.004-.038.022-.128.162-.209.142-.088.382-.06.545-.034.2.018.196-.012.291-.12.364-.48.725-.929.849-1.257.02-.036.03-.06.083-.114.046-.032.12-.148.38-.103a.416.416 0 0 1 .3.335c.013.071.007.117.004.15-.022.135-.053.188-.08.249-.055.11-.11.187-.154.257-.968 1.161-1.532 1.344-3.039 1.424-.26.005-.49.023-.708.054-.975.13-1.541.533-2.272.543-.809-.009-.874-.282-5.116.156-4.26.42-6.588.526-8.229.627-1.587.099-4.996-.11-7.623.031-2.624.145-7.984.12-10.137.304-2.159.185-2.164-.172-3.91-.355"/><path fill="#f4ebf5" d="M74.712 9.422c-.883-.475-1.878.146-2.992-.323-1.113-.47-1.15-.969-2.495-1.277-.641-.148-1.255-.392-1.788-.609-.592-.24-1.084-.449-1.424-.46-.649-.022-.517-.588-1.388-.775-.87-.193-1.35-.474-1.977-.97a10 10 0 0 0-.747-.512l-.02-.01c-.834-.594-2.045-1.349-2.668-1.535-.85-.25-1.484-1.133-1.849-1.635a2 2 0 0 1-.097-.145c.004-.002-.028-.029.013-.004.005.002.002.002.024.01.023-.005.047.063.178-.055.062-.134.017-.122.023-.137l-.008-.02c-.005-.01-.007-.01-.008-.012q-.003-.001-.002.002l.005.014.025.063q.026.065.045.12a.1.1 0 0 1-.027.112.1.1 0 0 1-.135-.009l-.084-.082-.048-.048-.016-.019-.007-.01c.002-.025-.023.056-.008-.117.058-.104.134-.075.148-.075q.031.008.032.012.011.005.016.009l.011.008.037.026c.212.167.501.317.876.432.93.265.834.606 2.009 1.126.8.348 1.434.5 2.142.852l-.036-.02c.336.147.686.33 1.09.582 1.28.774 1.89.078 3.717 1.221.259.16.487.278.705.37 1.325.557 1.93.026 3.701.462 2.059.505 4.486 1.752 5.73 2.093l.194.054c.305.083.627.169.977.27q.26.075.549.169c.101.034.194.064.334.122a2 2 0 0 1 .239.117c.054.04.1.039.303.246.06.068.16.184.24.386.13.255.102.86-.145 1.156-.25.319-.381.343-.49.404-.118.052-.153.059-.208.074-.18.043-.22.037-.273.043-.09.004-.128.003-.162.003-.7-.024-1.333.087-2.126.256-1.057.23-2.21.855-3.351 1.496a24 24 0 0 1-1.857.967c-1.813.815-4.35 2.099-5.548 2.648-1.2.55-1.49.689-2.488 1.463a7.8 7.8 0 0 1-2.278 1.197c-.42.13-.428-.059-.112-.356.462-.436.934-.649 1.093-.995.318-.693.463-.973 1.275-1.212s.841-.9 1.275-1.103c.434-.201.593.067 2.504-1.424 1.916-1.49 3.034-2.22 3.81-2.733.274-.181.684-.39 1.16-.61.879-.412 1.984-.84 2.924-1.254.816-.361 2.311-.843 3.76-.778.014 0 .027-.002-.027 0-.043.01-.039-.018-.306.068-.093.04-.188.059-.407.255-.244.186-.466.786-.34 1.162.096.34.184.406.26.506.055.063.091.096.126.125.207.16.17.113.191.13.006.004-.001 0-.012-.004a5 5 0 0 0-.211-.074 13 13 0 0 0-.504-.154 12 12 0 0 0-.897-.224l-.189-.036c-1.202-.197-1.103-.539-1.986-1.015"/><path fill="#231f20" fill-opacity=".4" d="M74.712 9.422c-.883-.475-1.878.146-2.992-.323-1.113-.47-1.15-.969-2.495-1.277-.641-.148-1.255-.392-1.788-.609-.592-.24-1.084-.449-1.424-.46-.649-.022-.517-.588-1.388-.775-.87-.193-1.35-.474-1.977-.97a10 10 0 0 0-.747-.512l-.02-.01c-.834-.594-2.045-1.349-2.668-1.535-.85-.25-1.484-1.133-1.849-1.635a2 2 0 0 1-.097-.145c.004-.002-.028-.029.013-.004.005.002.002.002.024.01.023-.005.047.063.178-.055.062-.134.017-.122.023-.137l-.008-.02c-.005-.01-.007-.01-.008-.012q-.003-.001-.002.002l.005.014.025.063q.026.065.045.12a.1.1 0 0 1-.027.112.1.1 0 0 1-.135-.009l-.084-.082-.048-.048-.016-.019-.007-.01c.002-.025-.023.056-.008-.117.058-.104.134-.075.148-.075q.031.008.032.012.011.005.016.009l.011.008.037.026c.212.167.501.317.876.432.93.265.834.606 2.009 1.126.8.348 1.434.5 2.142.852l-.036-.02c.336.147.686.33 1.09.582 1.28.774 1.89.078 3.717 1.221.259.16.487.278.705.37 1.325.557 1.93.026 3.701.462 2.059.505 4.486 1.752 5.73 2.093l.194.054c.305.083.627.169.977.27q.26.075.549.169c.101.034.194.064.334.122a2 2 0 0 1 .239.117c.054.04.1.039.303.246.06.068.16.184.24.386.13.255.102.86-.145 1.156-.25.319-.381.343-.49.404-.118.052-.153.059-.208.074-.18.043-.22.037-.273.043-.09.004-.128.003-.162.003-.7-.024-1.333.087-2.126.256-1.057.23-2.21.855-3.351 1.496a24 24 0 0 1-1.857.967c-1.813.815-4.35 2.099-5.548 2.648-1.2.55-1.49.689-2.488 1.463a7.8 7.8 0 0 1-2.278 1.197c-.42.13-.428-.059-.112-.356.462-.436.934-.649 1.093-.995.318-.693.463-.973 1.275-1.212s.841-.9 1.275-1.103c.434-.201.593.067 2.504-1.424 1.916-1.49 3.034-2.22 3.81-2.733.274-.181.684-.39 1.16-.61.879-.412 1.984-.84 2.924-1.254.816-.361 2.311-.843 3.76-.778.014 0 .027-.002-.027 0-.043.01-.039-.018-.306.068-.093.04-.188.059-.407.255-.244.186-.466.786-.34 1.162.096.34.184.406.26.506.055.063.091.096.126.125.207.16.17.113.191.13.006.004-.001 0-.012-.004a5 5 0 0 0-.211-.074 13 13 0 0 0-.504-.154 12 12 0 0 0-.897-.224l-.189-.036c-1.202-.197-1.103-.539-1.986-1.015"/></svg>