<svg xmlns="http://www.w3.org/2000/svg" width="511" height="506" fill="none" viewBox="0 0 511 506"><path fill="#c0d8ff" d="M158.35 84.355a21.32 21.32 0 0 0-18.46 10.657L54.872 242.268a21.32 21.32 0 0 0 0 21.315l85.018 147.256a21.32 21.32 0 0 0 18.46 10.658h170.036a21.32 21.32 0 0 0 18.46-10.658l85.018-147.256a21.32 21.32 0 0 0 0-21.315L346.846 95.012a21.32 21.32 0 0 0-18.46-10.657z" opacity=".3"/><path fill="#69a3ff" d="M357.468 119.796c25.896-22.819 60.602-44.295 93.856-43.7 33.46.69 65.566 23.74 81.564 52.048 15.793 28.214-14.034 52.74 0 106.124 9.026 34.33 51.473 59.702 43.155 87.604-8.113 27.995-37.681 58.712-74.296 76.661-36.508 17.756-80.27 22.652-113.21 16.394-32.733-6.164-60.286-33.675-89.219-59.636-29.031-26.248-42.48-42.574-43.214-69.994-.528-27.326 11.756-65.458 35.025-92.372 23.162-26.722 40.551-50.503 66.339-73.129" opacity=".3"/></svg>