<svg xmlns="http://www.w3.org/2000/svg" width="169" height="6" fill="none" viewBox="0 0 169 6"><path fill="#3784ff" d="M160.34 3.41c.201-.013.474.09.712.098.977.035 1.344.104 2.219.134 1.321.107 5.093-.412 5.215.249l.001.02c-.003.13-.324.303-.359.454-.034.15.103 1.08-.364 1.184-.677.155-2.405.05-2.773.065-.257.02-.567.116-.898.14-1.058.073-1.603.008-2.552.233a57 57 0 0 1-1.127-.384c-.501.047-1.23-.133-1.532-.133-.256 0-.386.092-.645.088-.297-.004-.717-.122-1.243-.126-.854-.007-1.006.238-1.528.248-.525.011-1.338-.162-2.03-.107l-.026.007-.228.064.169.197c-.335.013-.475-.122-.791-.14-.378-.022-.556.091-.807.078-.2-.011-.484-.124-.738-.13-.38-.012-.305.133-.513.149-.09.006-1.605.002-1.698-.002-.645-.03-.694-.226-1.217-.272-1.437-.127-2.923-.056-4.262-.075a19 19 0 0 1-1.808-.122c.965-.439-1.086-.946-.355-.127-.655-.149-1.133.032-1.759-.04-.402-.048-.675-.172-1.255-.204-1.023-.056-2.166.18-2.427-.388-1.21.025-2.24-.238-2.703.222-.312.01-1.09-.327-1.436-.388-.326-.057-2.845-.34-3.257-.373-.41-.032-1.137-.083-1.486-.061-.437.026-.779.512-1.518-.124-.911-.006-1.225-.042-2.068-.16-.152-.022-.164-.11-.253-.116-.184-.01-.494.036-.825.025-.543-.02-.836-.221-.793.064l-1.074.08-.362-.185q-.287.073-.58.145c.245-.394-1.102-.23-.683.029-.683-.124-1.357-.246-2.05-.368.121-.458-1.507-.135-1.385.124l-.235-.014c-.682-.16-1.314-.091-2.156-.216-.826-.124-.759-.165-1-.39l-.378.006h.023l-.212.011c-1.054.573-.844-.434-2.64-.012-.557-.376-1.966-.208-2.9-.118-.108.01-.112.082-.256.1-.354.046-1.249-.068-1.225.163l-.929-.224-.766.105-.002.215c-.508-.258-1.31-.188-1.709-.259-.078-.014-.092-.114-.337-.148-.286-.041-.819-.029-1.162-.071l-.41.316c-.613.039-.816-.258-1.176-.293a59 59 0 0 0-1.307-.023c-.522.03-.384.282-1.886.173-.267-.02-.48-.113-.722-.126-.427-.022-1.722.122-1.83.297-.51-.244-1.902-.206-2.306-.286-.122-.025-.144-.169-.522-.214-.307-.036-1.101.048-1.49.014-.412-.037-.556-.162-.742-.177-.174-.015-.338.076-.576.067-.744-.031-1.412-.211-2-.235-.856-.035-1.608.226-2.33.33-.174-.025-.345-.092-.53-.098-2.288-.084-4.869-.207-7.164-.315-1.074-.053-3.712-.482-3.016.177-.367.107-3.053-.187-3.576-.193-.507-.008-.913.106-1.317.106-1.218-.002-2.08-.088-3.548.015-.38.028-.792.167-1.021.166-.276-.001-.562-.133-.914-.14-.846-.015-2.403.042-3.22.029-.148-.003-.206-.12-.413-.153-.812-.133-1.741-.106-1.571.265a5 5 0 0 0-.535-.068c-.859-.062-1.671.082-2.488.097-2.074.042-5.848-.068-7.651.067-1.138.087-1.112.255-2.782.089-.371-.037-.738-.085-1.188-.13-1.055-.103-2.015-.425-2.825-.063-1.166-.11-2.102-.052-2.964-.379l-.309.227-.43.003-.133-.22c-1.027-.027-2.328.269-3.195.269-1.454-.01-5.188-.065-6.558-.085-.725-.018-.762.142-1.188-.155l-.486.099q-.145.115-.286.231c-.926.07-2.025.067-2.887.192q-.14.02-.283.044c-1.613.268-3.824.763-5.375.87-.416.028-.943-.041-1.343.02-.575.086-.686.345-1.424.458-1.265.193-3.673.27-4.854.49-.354.066-.5.181-.743.233-1 .217-1.84.366-2.725.73-1.028.037-1.017-.252-1.424-.428C1.41 4.77.46 4.678.184 4.69c-.18-.033.034-.437-.184-.46 1.49-1.082 2.042-.877 3.157-.967 1.941-.442 3.85-.73 5.767-1.034.192.056.371.114.558.17V2.4c.754-.015 1.035-.274 1.418-.38 2.046-.563 5.236-1.03 8.386-1.454C21.95.218 24.547.22 26.462.18 27.38.158 30.343.011 30.97.15c.162.035.207.164.38.17 1.538-.08 3.076-.147 4.613-.21 3.157.232 6.42.12 9.596.121 3.233.001 6.45-.02 9.648-.1A369 369 0 0 1 71.142.055c1.644.03 3.71-.026 5.32.076.661.042.945.257 1.824.126l.023.168c.762-.046 1.267-.159 2.119-.146.73.011 2.642.066 3.277.11.332.022.205.122.515.132.53.017 1.665-.086 2.394-.059.66.024 1.77.187 2.279.19C90.724.659 92.725.56 94.67.68c.538.034 1.224.195 1.393.197.33.004.433-.124.654-.132 1.124-.045 2.873.17 3.969.21 3.547.131 7.291.159 10.832.212l.041.002.117.006c2.268.12 6.01.302 8.099.522.445.047.317.184.694.206.419.024.656-.06.849-.057 1.359.023 4.348.102 5.622.279.241.033.411.157.557.165.074.005.245-.062.478-.056 2.048.053 3.535.189 5.536.337 3.832.282 8.283.408 12.308.716.867.066 1.47.324 1.588.328.267.01.454-.13 1.005-.136 1.525-.018 3.48.18 5.087.248q.497.022.921.023c.866.003 2.045-.139 2.882-.15.673-.008 2.248.113 2.554.035.181-.047.263-.207.484-.223m-22.799 1.384c.136-.252-1.141-.113-.675.055.105.038.64.01.675-.055M78.485 1.828l.028.223.5-.078-.277-.142z"/></svg>