<svg xmlns="http://www.w3.org/2000/svg" width="129" height="9" fill="none" viewBox="0 0 129 9"><path fill="#3784ff" d="M124.19.004c.162-.024.366.066.561.064.767-.005 1.052.052 1.736.058.112 0 .289-.004.431-.012l.04-.003c-.006.003.064-.013-.088.018a1.3 1.3 0 0 0-.349.144c-.018.02-.27.124-.476.512-.104.195-.17.501-.12.78.047.281.179.49.287.616.227.25.364.29.453.335.189.076.179.06.198.068l.07.015c.065.01.074.01.075.01l-.026-.003a9 9 0 0 0-.274-.013c-.413-.014-.895-.026-1.34-.057-.891-.062-1.66-.198-1.66-.536l.001-.02c.011-.13.271-.27.31-.415.039-.146.01-1.086.381-1.14.538-.07 1.828.175 2.122.17.102-.002.215-.023.333-.044.068-.01.118-.022.198-.029.035-.003.071-.006.121-.006.024 0 .042-.001.111.007l.061.01.053.014c.043.014.096.023.217.095.059.038.145.093.243.227a.86.86 0 0 1 .145.626c-.108.484-.395.565-.399.585a1 1 0 0 1-.179.082c-.049.015-.077.021-.101.027-1.057.152-1.319.067-2.081.336-.296-.111-.599-.223-.886-.336-.386.07-.961-.072-1.19-.056-.098.007-.176.037-.257.066a.7.7 0 0 1-.238.059c-.22.012-.565-.081-.966-.053-.66.046-.772.302-1.165.346-.406.045-1.044-.073-1.575.033-.068.03-.128.06-.192.089l.143.184c-.256.037-.373-.088-.616-.083-.291.006-.431.132-.62.138-.155.004-.371-.087-.578-.075-.304.018-.227.157-.385.188a62 62 0 0 1-1.305.13c-.505.022-.565-.17-.96-.174-1.135-.01-2.252.182-3.301.275a11 11 0 0 1-1.403.031c.706-.519-.903-.85-.28-.096-.509-.093-.884.129-1.36.11-.313-.013-.533-.112-.988-.094-.783.033-1.661.37-1.9-.174-.932.13-1.746-.04-2.066.46-.243.038-.871-.229-1.14-.258-.259-.028-2.219-.085-2.548-.08-.32.006-.877.02-1.148.073-.338.066-.56.58-1.182.014-.697.075-.962.069-1.609.026-.118-.007-.135-.094-.204-.092-.142.006-.381.08-.637.1-.422.03-.665-.145-.607.134l-.818.176-.297-.15-.438.196c.153-.415-.865-.131-.521.088-.533-.061-1.081-.122-1.615-.184.056-.466-1.172-.002-1.057.245l-.184.007c-.548-.1-1.022.022-1.682-.031s-.6-.101-.807-.305l-.456.057c-.774.62-.694-.396-2.04.115-.457-.347-1.539-.103-2.25.042-.083.017-.081.088-.192.116-.27.066-.976.008-.938.236l-.73-.164q-.292.075-.585.154l.013.215c-.413-.225-1.027-.1-1.337-.144-.061-.009-.08-.107-.27-.125-.224-.02-.638.03-.906.012l-.123.143-.17.201c-.468.083-.649-.197-.928-.206a34 34 0 0 0-1.015.075c-.398.07-.27.31-1.438.318-.209 0-.382-.076-.57-.07-.332.012-1.316.258-1.386.44-.416-.202-1.485-.053-1.804-.1-.097-.016-.126-.157-.421-.171-.239-.012-.852.135-1.151.132-.32-.003-.442-.116-.586-.117-.136 0-.255.103-.44.112-.58.029-1.112-.098-1.566-.076-.658.032-1.23.35-1.774.508-.137-.01-.275-.065-.418-.057-1.78.09-3.787.152-5.571.193-.833.02-2.908-.248-2.323.367-.285.13-2.383-.009-2.786.011-.4.02-.704.155-1.017.175-.942.06-1.614.017-2.753.186-.295.045-.605.201-.781.21-.212.01-.449-.109-.722-.1-.65.02-1.87.137-2.496.152-.114.002-.161-.112-.327-.139-.645-.104-1.36-.048-1.21.317-.832-.161-1.571.078-2.33.136-1.597.122-4.517.216-5.902.46-.871.153-.839.318-2.143.255-.289-.014-.577-.04-.928-.056-.821-.038-1.592-.3-2.19.111-.911-.04-1.633.075-2.324-.2l-.223.243-.333.027-.118-.212c-.798.03-1.79.394-2.464.435-1.132.068-4.05.137-5.127.107-.573-.015-.594.143-.94-.157l-.378.091-.225.226c-.73.05-1.603-.004-2.299.042-1.266.083-3.158.399-4.439.354-.321-.012-.73-.13-1.041-.11-.455.032-.55.28-1.127.321-.995.072-2.865-.088-3.804-.006-.279.024-.403.122-.596.144-.806.093-1.47.129-2.236.317-.848-.177-.795-.478-1.072-.762-.21-.213-.844-.699-.942-.891-.069-.136.143-.329.05-.477.989-.187 1.417-.079 2.24.084l4.486-.315.425.225c.58.06.81-.171 1.117-.24 2.936-.66 8.797-.668 12.065-.823.707-.034 2.986-.292 3.479-.187.127.028.17.154.303.152l3.55-.456c2.458.046 4.973-.278 7.432-.462 6.657-.498 13.248-1.001 19.806-1.353 1.268-.068 2.873-.257 4.113-.266.52-.004.749.191 1.42-.002l.03.166c.59-.1.96-.249 1.627-.3.561-.042 2.04-.133 2.539-.139.258-.004.168.106.407.092.408-.024 1.277-.216 1.844-.247.513-.028 1.378.045 1.775.006 1.416-.138 2.952-.398 4.469-.429.42-.008.962.1 1.092.089.255-.021.322-.156.495-.182.548-.082 1.29-.078 1.974-.072.411.003.802.006 1.12-.007 2.787-.118 5.736-.316 8.511-.417 1.756-.064 4.67-.214 6.288-.183.352.007.265.155.559.143.325-.014.495-.118.646-.133 1.054-.099 3.364-.29 4.364-.23.19.013.332.12.445.115.057-.002.183-.084.361-.099 1.593-.131 2.741-.13 4.305-.16 2.972-.059 6.435-.321 9.566-.344.675-.005 1.16.203 1.254.198.212-.011.33-.165.763-.216 1.413-.167 3.333-.065 4.674-.181.673-.058 1.567-.276 2.23-.339.233-.023.651-.028 1.013-.035.451-.01.848-.022.974-.071.139-.056.188-.22.365-.246m-17.546 3.094c.085-.263-.889-.012-.515.114.085.029.494-.045.515-.114m-45.867 1.68.04.22.379-.114-.224-.121z"/></svg>