<svg xmlns="http://www.w3.org/2000/svg" width="203" height="56" fill="none" viewBox="0 0 203 56"><path fill="#3784ff" d="M48.376 51.093c.527.628.59.8.16.29-.12-.143-.242-.36-.16-.29m4.958 3.823c1.035.193.48.165.305.14-.742-.123-1.358-.468-1.656-.498-.453-.221-.007-.04-.282-.191a6 6 0 0 1-1.355-1.012l-.067-.067c-.02-.053-.092-.16-.064-.164.089.08.253.237.452.423.836.884 2.49 1.357 2.667 1.37m-3.702-2.415c.148.169.055.123.363.416.044.086-.262-.195-.404-.349-.003-.005.032.002-.002-.035-.253-.272-.641-.683-.604-.732.216.303.498.528.647.7m-2.843-3.774c-.084-.062-.17-.216-.276-.452.017.012.028.013.047.028.068.134.153.287.23.424m-.477-.854c-.142-.146-.602-1.126-.494-.967q.24.491.494.967m63.495-18.656c.028.15.05.393.07.69.042.878.251 2.18.361 2.526.59 2.1 1.569 3.562 3.027 4.938.771.71 1.604 1.307 2.496 1.75q.243.12.511.208c.19.17.412.327.657.47-.167-.037-.249-.066-.434-.11-.19-.041-.602-.202-.724-.209.128.121.713.315.906.344.365.067.142-.02.396.007.255.025.693.117 1.028.086.781-.073-.681-.077-.918-.128.091-.092.707.073.965-.023-.099-.022-.488-.09-.632-.084-.145.008.074.09-.232.045a5 5 0 0 1-.573-.27c.275.046.714.129.99.135.807.026 1.671-.071 2.542-.225.826-.145 1.62-.458 2.38-.906 1.226-.685 2.356-1.703 3.398-2.834l-.038.03-.066.053-.002.004-.11.106a1.3 1.3 0 0 1-.146.135l.085-.106.194-.24q.128-.084.254-.17a30 30 0 0 0 .957-1.114l.058-.049.055-.051.078-.09c.134-.156.294-.352.424-.515l.098-.124.229-.29.024-.032.021-.012a.8.8 0 0 0 .167-.219l.015-.028.094-.122q.161-.21.382-.493l.264-.337.002-.003.153-.195a12 12 0 0 0 .472-.634c.195-.278.95-1.38 1.319-1.917.164-.238.306-.486.344-.595l.286-.405a.2.2 0 0 1 .016-.04c.02-.037.057-.098.098-.164.076-.125.164-.266.155-.288l-.265.394-.018.026c-.071.08.208-.414.334-.564.1-.12.119-.045.114.023l.135-.189a.2.2 0 0 0 .015-.053c.006-.026.011-.055.038-.11.136-.281.615-.92.475-.616.125-.172.132-.203.139-.239.008-.038.016-.083.171-.31.185-.269.272-.368.353-.46.044-.05.086-.098.142-.169.05-.064.132-.178.226-.307l.002-.003c.199-.272.447-.623.53-.683.094-.069.003.084-.079.214q.363-.492.718-.991l-.028-.024c.299-.462.378-.534.355-.438q.447-.638.888-1.286c.053-.095.108-.19.153-.266a1.3 1.3 0 0 0-.157.216 1.3 1.3 0 0 1-.122.173c-.177.149.348-.807.321-.59-.007.053-.014.113.055.04.051-.055.216-.297.269-.391v.007l.016-.037.023-.063c.021-.057.046-.126.07-.18.03-.063.068-.138.108-.215.44-.866.079-.209.664-1.017a4 4 0 0 0 .134-.21 4 4 0 0 1 .273-.398 6 6 0 0 0 .32-.47c.004-.006-.005.004-.019.02-.337.373.217-.303.232-.324a.2.2 0 0 1 .027-.035c.016.002-.082.176-.196.378-.107.19-.229.407-.284.529l.155-.237a2.5 2.5 0 0 1 .174-.29c.02-.028.022-.02.025-.014l.139-.213c.004-.015 0-.018-.001-.018l-.001-.003c.07-.126.395-.633.446-.683q.02-.02.029-.022l.366-.562q.013-.03.033-.062.042-.069.094-.135l.182-.279-.002-.004c-.003-.01-.007-.02.002-.04-.307.5-.264.393-.218.274.021-.055.044-.112.033-.114-.014 0-.075.091-.133.178-.072.108-.139.21-.104.112.188-.268.296-.46.406-.655.344-.615.472-.676.198-.244-.057.091-.116.184-.151.258-.041.085-.037.117-.032.146q.004.02.001.046l.008-.017c.01-.019.251-.44.278-.481.148-.244.149-.233.149-.212.001.01.001.023.021.006.007-.008.027-.037.048-.067.027-.039.054-.078.054-.07.002.005-.004.024-.014.048l.118-.18q.025-.056.051-.1c.009-.015.204-.3.207-.3l-.001.007q.587-.897 1.187-1.793l.012-.014.02-.024.058-.066a8.6 8.6 0 0 0 1.247-1.766 1.3 1.3 0 0 0 .132-.32q.002-.015-.004-.02l.036-.085c.093-.162.108-.153.118-.146q.004.004.009.003c.012-.006.069-.031.096-.04.478-.654.957-1.279 1.471-1.912a43 43 0 0 1 1.604-1.87c.355-.392.726-.783 1.103-1.162-.041.022-.066.029.032-.092.145-.18.588-.563.663-.624l.036-.047c.03-.043.074-.104.168-.198.203-.217 1.165-1.224 1.441-1.394.217-.17.425-.33.65-.495q.124-.087.237-.163.04-.019.096-.05c.393-.225 1.15-.667 1.613-.86-.106.078-.243.172-.353.255l.292-.11-.036.047q.418-.22.848-.42l-.002-.001a.5.5 0 0 1 .177-.078c.14-.063.286-.126.425-.184l.131-.074.072-.103c.081-.024.159-.045.243-.068.221-.114.448-.21.613-.241q.2-.083.4-.16c.089-.04.187-.078.285-.112.127-.073.484-.351 1.076-.576l.084-.03-.017.176q.307-.113.627-.18l.153-.126.086.071a5 5 0 0 1 1.248.006V.13a5 5 0 0 1 .285.045l-.039.063.019.005q.17.035.331.061l-.118-.06c.54.1 1.063.271 1.561.499q.082.068.163.138.035.016.064.033c.002.002-.002.01-.002.02l.065.06.027.015q.19.036.379.082.254.165.495.351c.129.1.227.217.305.33.165.255.251.498.318.71.101.384.151.752.19 1.123q.037.058.061.111l.027.22.036.05c.017.174.026.413.121.872l-.155-.043q0 .067-.005.152.15.706.273 1.414-.091.325-.186.646.022.786.028 1.57l.01.168c.025-.172.049-.333.073-.508.073.164.144.317.216.48-.043.322-.089.628-.134.948.119 1.539-.133 3.038.174 2.48l-.044-.62c.05.27.1.53.149.802l-.103.738.056.917-.109.259.108.747c-.059.207-.119.42-.179.626q.027 1.564.056 3.127c.003.186.008.363.014.546-.069 1.821.098.97.257 2.218q.022.868.113 1.735.108.303.225.603.03.278.068.557c.21.861.493 1.7.864 2.498a12 12 0 0 1-.042-.536q.112.218.231.428.17.622.408 1.233l.149.21q.219.305.469.576.412.547.943.993l-.037.14q.269.073.538.123c.376.241.779.451 1.197.651.144.068.323.12.513.156a2.4 2.4 0 0 1-.531-.119 16 16 0 0 1-.524-.221q.236.156.481.306c.108.069.236.129.374.18.336.069.701.09 1.067.09a10 10 0 0 0 .333-.072 21 21 0 0 0 2.326-.021 62 62 0 0 0 2.802-.332c.808-.216 2.275-.25 2.332-.548l.214-.026-.046.009c.655-.135 1.32-.316 1.97-.52.15-.069.305-.141.452-.213l.283.014q.431-.217.863-.449c.414-.168.832-.348 1.242-.531l-.355.244a52 52 0 0 0 3.504-1.598q.04-.14.075-.28c.434-.209.87-.426 1.298-.644l.098-.204a86 86 0 0 0 2.043-1.219c.724-.371 1.447-.755 2.161-1.143.629-.503 1.874-1.434 2.641-1.848l-.035.025c.193-.122.355-.206.471-.232a40 40 0 0 0 2.797-2.623l-.059.235.267-.21.067-.331q.52-.423 1.031-.863l-.26.428q-.19.2-.382.395.313-.226.625-.457l-.021.026c.872-.854 1.617-1.6 2.279-2.263l.159-.158c.767-.758 1.161-1.037 1.326-1.086q.056-.015.079.005c.071.062-.078.373-.468.922l-.1.138a33 33 0 0 1-1.834 2.267c.131-.121.257-.236.362-.323-.061.088-.137.19-.204.284q.107-.076.213-.155c-.006.024-.005.04-.017.071-.389.428-.868 1.032-1.231 1.41-.331.345-.563.494-.827.75-.26.259-1.067 1.12-.981.88-.049.039-.118.097-.166.132.038.13-.373.384-.744.73-.173.163-.647.701-.282.165-.061.049-.089.065-.142.104-.344.456-.59.638-1.032.938l-.053.039-.28.16c-.359.209-1.083.646-.703.532-.311.295-.833.498-1.084.67-.253.172.13 0-.211.23-.055.039-.543.351-.693.435-.148.083-.005-.064-.234.089-1.002.664-1.899 1.331-2.978 1.984-3.217 1.906-6.35 3.622-10.291 4.704l-.232.058-.092.018c-.953.16-3.716.564-4.073.558-1.314.014 1.427-.378-.438-.218-.47.436-1.571.481-3.236.496-.671-.027-1.532.057-2.673-.445-.638-.307-1.274-.684-1.685-1.019-.923-.795-.139-.213-.624-.75-.439-.21-.883-.606-1.394-1.392l-.059-.093c-.523-.83-.918-1.752-1.25-2.718-.113-.325-.288-.761-.376-1.142-.109-.474.013-.377-.043-.668-.053-.291-.101-.017-.186-.33-.044-.14-.228-1.142-.211-1.36.002-.05.063.131.089.087.014-.024.144-.035.099-.275-.142-.197-.27-.2-.356-.957-.104-.967-.111-1.886-.103-2.87q.003-.34.003-.689c-.001-.273-.091-.92.007-1.218.028-.087.142-.043.133-.477-.008-.373-.059-.435-.1-.76-.016-.122.037-.157.004-.393-.033-.238-.108-.569.03-.724-.042-.031-.08-.036-.12-.058-.011-.414.138-1.125.011-1l-.015-1.279.135-.223c.048.253-.008.65.079.694l.008-1.1c-.229.097-.361-1.044-.117-.795.047.046-.005-.703-.025-.864-.019-.159-.112-.2-.062-.535.029-.187.082-.306.004-.754-.017.273-.041.567-.063.846.001-.411-.047-.94-.011-1.312.009-.091.056.264.069.096.015-.169-.025-.853-.109-.705.161-.317.019-.275-.023-.933-.005-.085.119-.757.001-1.055-.041-.104-.139.108-.138-.412-.003-.377.141.002.15-.426-.111.207-.263-.429-.332-.784-.123-.621-.031-.536-.042-.734-.026-.355-.238-.518-.183-.608a1 1 0 0 1 .092.13c-.04-.116-.098-.19-.062-.167q-.055-.05-.112-.097l-.078.152c-.3-.198-.396-.335-.656-.497-.037-.022-.018.034-.057.013-.311-.159-.41-.222-.673-.24.036-.14-.415-.206-.74-.329-.091-.036-.135-.115-.15.039-.635-.133-1.09-.076-1.606-.046.07.029.05.069-.018.113-.202.117-.721.278-1.063.37-.133.036-.286-.025-.548.095.09.015.189.035.285.05-.54.221-.473.042-.923.248-.199.094-.007.181-.41.287-.228.06-.436-.052-.41.2-.285.155-.139-.005-.349.094-.13.061-.23.214-.428.313-.378.186-.952.35-.878.51-.244.173-.105-.004-.326.153-.303.21-.959.837-1.166.83l-.001.001c-.187.238-.957.852-.852.606.417-.313.655-.667.244-.33-.405.338-.521.426-.602.43-.185.196-.262.321-.53.581-.196.19-.473.424-.706.66.016.016.019.04-.026.103-.117.158-.616.585-.76.746l-.009.01c-.012.045.02.062-.12.238-.038.048-.16.136-.298.26-.098.124-.197.248-.29.358l-.12.134c-.169.24-.446.645-.579.812-.08.1-.271.27-.301.305-.107.127-.009.104-.095.222-.599.826-1.32 1.81-1.875 2.667l-.089.138a99 99 0 0 0-1.353 2.188c-.494.815-.8 1.533-.708.748-.441.649-.203.438-.197.58.004.084-.139.241-.154.282-.048.136.153-.13.113-.022-.16.43-1.276 2.128-1.504 2.506-1.049 1.741-1.831 3.097-2.843 4.695a71 71 0 0 1-1.988 2.946 58 58 0 0 0-.85.708c.104-.14.17-.215.277-.373s.384-.537.385-.622c-.163.15-.521.66-.625.816-.2.298-.009.097-.132.3-.123.205-.439.566-.572.814-.312.582.469-.544.593-.745.101.04-.4.57-.412.742.085-.082.373-.407.426-.518.051-.111-.157.087.033-.166.19-.18.398-.378.589-.553-.145.24-.441.62-.584.84-1.597 2.438-3.109 4.901-4.914 7.367-.164.225-.504.673-.686.878-.143.162-.175.083-.283.253-.009.018.091-.032-.069.185a21 21 0 0 1-1.46 1.708c-1.636 1.712-3.748 3.343-6.384 3.815-1.866.32-4.054.564-6.187-.454a13 13 0 0 1-3.584-2.612c-.232-.216-1.019-1.123-1.121-1.32-.333-.57-.173-.533-.514-.751-.201-.291-.001-.126-.071-.273-.029-.057-.337-.351-.386-.52-.111-.385.213.183.376.36-.26-.516-.608-.995-.813-1.445-.059-.128.013-.18.004-.208-.199-.542-.326-.43-.384-.38.1.28.206.548.325.82-.266-.512-.379-.931-.542-1.487-.038-.133-.054.071-.122-.243q.034-.167.076-.327c-.238-.696-.33-.948-.181-.03-.099-.357-.184-.72-.253-1.08.083.12.128-.087.017-.43-.026-.079-.05.145-.085.044-.041-.101-.13-.89-.128-.957-.01-.375.036-.554.049-.761.009-.12.005-.25-.028-.433a3 3 0 0 1-.018.435c-.011.093-.027.127-.049.003l-.01-.066c-.066-.465-.074-2.4-.06-2.964a23 23 0 0 1 .126-2.256c.017-.157.093-.147.123-.448.039-.41.068-1.14.126-1.599.015.092.028.205.042.307l.053-.3c.011.012.023.013.035.034 0 .572.071 1.27.083 1.779.01.468-.041.782-.036 1.142.005.367.122 1.445.002 1.328-.003.066-.003.16-.007.224.121-.05.051.492.093.97.019.225.157.822-.041.37.002.08-.003.115-.004.184.149.418.154.72.153 1.258q-.001.178.004.39c.005.454.118 1.352.155.843.125.358.142 1.02.23 1.322.085.296.025-.185.139.211.017.07.186.634.241.81.051.175-.049.037.052.296.454 1.125 1.042 2.007 1.805 3q.433.556.92 1.057c-.629-.797-.949-1.436-1.854-2.437a12.4 12.4 0 0 1-1.007-2.34l.008-.157-.044-.147a12 12 0 0 1-.272-1.133 14 14 0 0 1-.215-1.724q-.044-.7-.082-1.492c-.122-2.51-.148-5.787.005-9.248l.006-.125.018-.334c.004-.059.018-.307.042-.564.007-.072.05-.55.123-.875q.017-.075.035-.131l.085-.787.073.014.025-.641-.023-.084c.009-.445.016-.89.013-1.332l-.002-.672.063-.556c.009-.621.021-1.223.031-1.792l-.084-.092q.052-.452.1-.904c.01-.59.016-1.135.019-1.617l-.034.043q-.05-.902-.13-1.794c.017-.241.032-.49.044-.732a26 26 0 0 0-.1-.558c-.067-.798-.164-1.594-.372-2.34a5 5 0 0 0-.048-.576 2.8 2.8 0 0 0-.325-.569c.074.152.129.313.175.485-.206-.45-.507-.807-.882-.878a15 15 0 0 0-.389-.078l-.076.118a9 9 0 0 1 .498.095c.084.028.041.07.056.076.281.168.372.203.416.173a.96.96 0 0 0-.509-.35c.404.094.599.397.806.864.046.116.041-.025.128.247-.009.07-.024.13-.037.196.235.704.302.982.147.142.099.347.17.704.226 1.072-.06-.161-.087-.025-.003.368.019.092.032-.092.057.024.031.12.097.919.096.983.015.594-.057.617.003 1.195-.006-.164 0-.836.043-.346.059.549.031 2.66.004 3.283a44 44 0 0 1-.132 2.435c-.013.166-.057.099-.08.422-.03.401-.056 1.136-.087 1.627l-.008.11-.006-.11-.001-.014c.002-.467.01-.913.026-1.3-.076-1.429-.036-3.05-.045-3.564l.009.018c.003-.07.005-.17.009-.24-.031-.012-.038-.122-.039-.286l.007-.287-.005.011a10 10 0 0 0-.002-.547c.01-.146.017-.294.022-.426l.005.027c-.001-.088.002-.127.003-.202l-.001-.007.001-.035.003-.107c.007-.198.012-.44.013-.66a10 10 0 0 0-.031-.801q-.014-.211-.047-.525c.069.317.132-.247-.014-1.142-.057-.119.019.21-.002.217-.02 0-.05-.335-.068-.208.074.553.078.287.14.717-.034-.1-.062.014-.089-.061-.043-.12-.056-.357-.083-.406l-.017-.098a9 9 0 0 0-.133-.724c-.063-.236-.242-1.11-.447-1.37l.042.044a1 1 0 0 0-.092-.114l-.034-.042a1 1 0 0 1-.095-.114q.02.007.02-.002a.7.7 0 0 0-.25-.116 14 14 0 0 0-.575-.123q.003-.01.031-.011a15 15 0 0 0-1.517-.197 16 16 0 0 0-2.359-.007 18 18 0 0 0-2.288.309l-.073.07-.002.008c.002.013.005.03-.174.048l-.09-.002q0-.008-.016-.012a1.1 1.1 0 0 0-.333-.004 5.4 5.4 0 0 0-1.622.444c-.13.06-.266.13-.357.177l-.076.04-.026.014-.016.008q-.971.36-1.896.821h.008c-.007.005-.293.16-.308.168a1 1 0 0 1-.102.04l-.181.096a.1.1 0 0 1 .048-.008c.007 0-.033.023-.072.046l-.067.042c-.018.017-.006.019.004.02.02.003.03.004-.213.13l-.475.244-.016.007.095.007a.3.3 0 0 0 .092-.027c.072-.03.165-.083.254-.133.155-.086.305-.165.305-.108-.218.125-.381.205-.546.288a5 5 0 0 0-.635.373c-.094.033.003-.032.108-.1.084-.054.172-.111.171-.125-.002-.01-.058.01-.111.03-.115.043-.218.075.267-.205a.04.04 0 0 1-.038 0l-.004-.002-.273.169a1.2 1.2 0 0 1-.19.121q-.27.175-.536.359-.001.01-.02.029a12 12 0 0 1-.638.46s-.001-.006-.017-.001l-.194.148c.007.002.013.005-.012.026a3 3 0 0 1-.263.19l-.212.173c.112-.065.306-.2.482-.319.185-.125.343-.226.347-.21a.2.2 0 0 1-.032.027c-.064.054-.18.15.078.025-.57.432-.427.285-.368.22.013-.015.022-.025.017-.021-.185.134-.3.239-.42.348-.063.058-.128.118-.203.184a3 3 0 0 1-.146.121 3 3 0 0 0-.18.154 6 6 0 0 0-.258.28c-.112.127-.219.253-.24.27-.045.005-.15.076-.267.163l-.1.076-.193.144c-.048.033-.11.07-.162.1l-.059.035-.034.023.007-.002a4 4 0 0 0-.334.335c-.045.06-.024.066.011.057l.073-.02c.029-.007.036.002-.026.066-.295.3-.591.48-.528.365.016-.026.08-.088.148-.153.08-.075.165-.156.182-.191-.066.057-.15.13-.234.199a89 89 0 0 0-1.095 1.107c.09-.04.035.05-.363.429l-.028-.024q-.424.443-.84.89c.114-.105.246-.223.197-.118-.043.093-.34.401-.573.65a10 10 0 0 0-.253.273 3 3 0 0 0-.132.168l-.053.07q-.225.242-.473.52a.3.3 0 0 1-.095.066c-.032.014-.06.027-.194.184.098-.076.085-.035.02.054l-.386.447a2 2 0 0 1-.1.093c-.045.039-.07.05-.094.062a.3.3 0 0 0-.046.028l-.142.173c.031-.01.065-.015.081-.003l-.166.199c-.04.025-.13.123-.212.213-.05.055-.097.108-.127.136a.2.2 0 0 1-.032.025q-.148.189-.293.379c-.092.066-.28.27-.45.494-.127.169-.3.399-.476.642-.02.008-.066.045-.21.218q-.047.11-.109.228c-.23.33-.426.625-.509.751-.085.13-.16.253-.216.349a13 13 0 0 0-.29.52l-.184.348-.09.152a23 23 0 0 0-1.015 1.926c-.15.317-.327.764-.498 1.135-.217.476-.223.353-.356.646s.045.035-.077.348c-.057.144-.47 1.146-.586 1.367-.027.05.028-.137-.01-.095-.02.023-.105.028-.198.271-.01.207.058.223-.246.986-.486 1.219-.983 2.371-1.521 3.674-.118.288-.345.972-.542 1.294-.058.095-.113.054-.3.514-.164.4-.155.456-.274.8-.046.13-.097.172-.181.419-.084.245-.188.6-.35.77.014.03.036.034.053.054-.18.436-.61 1.197-.467 1.057-.196.453-.392.9-.593 1.354l-.197.241c.089-.261.315-.687.278-.73q-.265.586-.532 1.165c.2-.113-.266 1.084-.308.83-.008-.045-.343.739-.413.91-.069.17-.026.21-.229.56-.115.2-.212.33-.392.797l.477-.892c-.21.435-.455.995-.674 1.383-.054.096.103-.277.005-.1a5 5 0 0 0-.11.22c-.13.266-.287.63-.19.517-.272.332-.155.283-.478.976-.04.087-.483.8-.572 1.116-.031.112.147-.104-.146.454-.216.409-.087-.008-.338.45.189-.217-.09.488-.284.905-.347.74-.352.63-.491.87-.25.429-.359.797-.547 1.036.06-.124.112-.238.168-.359q-.21.4-.425.797l.13-.038c-.215.446-.36.635-.569 1.008-.028.052.026 0-.002.053-.228.425-.323.566-.446.876-.108.021-.363.575-.68 1.005-.09.121-.183.187-.07.18-.553.818-.991 1.424-1.6 2.03.302-.212-.445.678-.992 1.135-.145.124-.334.212-.626.465.112-.055.24-.122.357-.186-.603.518-.56.373-1.106.77-.247.166.019.116-.516.393-.312.155-.597.169-.563.309-.41.208-.198.056-.495.186-.188.078-.348.202-.646.303a8 8 0 0 1-.88.225c-.275.056-.48.103-.453.153-.364.094-.129-.005-.462.077-.443.117-1.553.38-1.813.325h-.002c-.344.111-1.67.173-1.396.082.708-.012 1.169-.149.488-.084-1.131.067-.932.006-1.197-.085-.04-.013-.367-.037-.299-.05.07-.009.764-.016.376-.06-.075-.007-.435.006-.507-.04-.072.003-.11.01-.168.014-.641-.166-.682-.16.484-.094q-.046.026-.095.051c.166-.015.31-.033.489-.056 1.267.015 2.857-.337 3.904-.566.916-.202-.333.117-.357.12-.225.087.203.008.216.029s-.5.174-.035.058c.063-.015.658-.235.676-.25.07-.06 0-.065.032-.089a.3.3 0 0 1 .053-.024l-.056.014c-2.86.645-5.527 1.108-7.965-.31a4.3 4.3 0 0 1-.708-.566 30 30 0 0 1-.76-.782 20.6 20.6 0 0 1-3.135-4.313c-.23-.373-.453-.762-.661-1.149l-.164-.407q-.497-1.043-.903-2.115l.009-.111c-.584-1.153-.375-1.606-.936-2.586a41 41 0 0 1-.384-1.339l.032-.328-.059-.119a44 44 0 0 1-.227-1.19q-.135-.437-.26-.872c.053-.24-.485-2.548-.315-2.112a74 74 0 0 1-.154-1.005l.077.23.008-.158-.16-.733c.113-.383-.072-.78-.106-.95-.057-.278-.13-.798-.139-.831-.012-.05.008.43-.07.035q-.005-.324-.006-.647l-.055-.068-.03-.439.051.002-.016-.258-.063-.141-.165-1.103-.027-.83-.064-.427-.101-.082-.039-1.171-.102-.635-.027.155.057.227-.032.05-.184-.985-.01-.41-.075-.308-.182-1.341.034-.339-.063-.392-.006.319-.16-1.115-.103-.027-.047-.497.05-.035q-.088-1.021-.18-2.042l-.114-.067c-.075-.924-.257-1.863-.371-2.684-.048-.345-.029-.81-.11-.728l-.1-.666c-.07-.451-.138-.889-.21-1.335l-.155-.564a81 81 0 0 0-.082-.874c-.14-.424-.664-2.58-.563-2.538-.147-.47-.113-.44-.315-.991a14 14 0 0 0-.071-.413 9 9 0 0 0-.249-.672c-.14-.275-.3-.535-.473-.746a2.4 2.4 0 0 0-.286-.462l-.069.04a2 2 0 0 0-.238-.152 4 4 0 0 0-.162-.085c-.227-.05-.178-.086-.244-.177-.06-.07-.265-.292-.92-.213q.293-.011.584.067.102.075.193.158a1.9 1.9 0 0 0-.775-.088q-.269 0-.55.08l-.062.027q-.247.106-.488.217-.768.278-1.49.632-.668.375-1.298.816-.13.053-.263.11-.255.22-.508.456c-.078.053-.149.102-.223.155l-.095.008c-.32.261-.636.534-.944.81-.234.181-.459.36-.687.546l.056.01a47 47 0 0 0-2.872 2.855l-.007.007c-.138.076-.531.666-.587.504l-.054.126-.311.306-.02-.055-.226.25.029.065.283-.253c-.216.23-.424.454-.636.686l.052-.127c-.302.28-.947 1.301-.614.386q.226-.23.46-.463l-.31.214.007-.123.428-.414.164-.26-.165.139.207-.298c.257-.295.526-.598.785-.886l.165-.13c.463-.492.948-.99 1.43-1.466l-.133.217.384-.381.086-.16q.19-.197.375-.384 0 .074-.003.146l-.322.416c.11-.092.222-.187.331-.276l.003-.11c.146-.137.303-.283.45-.418l-.252.161.067-.149c.2-.2.413-.409.623-.609l.1-.028q.22-.233.447-.461.128-.09.26-.18l.09-.112q.282-.228.574-.454c.13-.08.255-.154.387-.231q.169-.154.344-.306a15.7 15.7 0 0 1 2.363-1.35c.316-.215.958-.453 1.388-.601.253-.089.43-.116.394-.145.67-.146 1.363.048 1.957.427q.05.03.099.065.163.138.297.302c.508.496.822 1.218 1.08 1.938.281.923.473 1.873.65 2.834l.029-.31q.096.456.182.904l.042.557.153.504c-.112.256.18.836.264 1.627.086.163.114.372.136.604.026.303.039.639.164.914l-.055-.066.074.492q.105.51.205 1.01l-.055.04.053.44-.085-.232.04.383.255 1.36.002.361.07.182.073.816.038-.065-.047-.365.047.013q.078.609.154 1.219l.018-.102.129 1.034v-.023c.008-.137.116-.046.02-.759-.083-.61-.14-.708-.243-1.245-.04-.203 0-.253-.078-.638s-.216-.942-.13-1.175c-.043-.055-.077-.066-.116-.106-.099-.675-.133-1.809-.215-1.62q-.139-.939-.292-1.873l-.034-.202.06-.35c.04.156.073.346.104.53.048.284.09.557.142.604l-.093-.612q-.093-.598-.186-1.172c-.17.135-.603-1.719-.32-1.294.055.08-.209-1.135-.28-1.397-.067-.26-.16-.332-.229-.861-.043-.306-.029-.488-.28-1.208.098.433.183.898.259 1.345-.137-.659-.384-1.512-.531-2.078-.035-.142.172.41.106.148-.049-.271-.488-1.306-.479-1.074-.092-.47-.098-.475-.821-1.225-.036-.031-.142-.15-.312-.279-.305-.244-.826-.499-1.167-.49-.182.021.1.07-.706.075-.592.09.01-.153-.634-.005l-.022.007.025.001c.042.005.045.022.019.05-.124.124-.874.46-1.34.689-1.027.51-.882.382-1.213.53-.594.281-1.041.706-1.375.838.162-.118.303-.225.46-.336q-.527.336-1.03.701.052.05.102.101c-.547.442-.801.582-1.248.95-.064.052.014.029-.05.084-.503.445-.676.581-1 .976-.086-.084-.676.585-1.195 1.036-.143.123-.252.148-.169.25-.942.92-1.598 1.658-2.366 2.371.264-.142-.298.521-.84 1.134-.144.162-.29.323-.419.462-.16.174-.342.244-.661.641.109-.067.237-.148.353-.221-.647.776-.58.511-1.12 1.167-.242.293-.007.225-.503.716-.288.286-.533.322-.513.608-.364.446-.174.12-.435.417-.162.185-.303.467-.553.75-.484.547-1.206 1.186-1.144 1.34-.326.405-.122.066-.42.434-.396.49-1.347 1.779-1.583 1.882-.29.452-1.38 1.728-1.178 1.326.586-.663.957-1.282.386-.592-.938 1.133-.773.88-1.026.972-.038.013-.308.322-.26.224.048-.096.615-.814.28-.5-.064.061-.35.468-.424.47-.056.087-.08.137-.124.21-.553.473-.615.48.346-.693l-.058.193c.13-.206.238-.386.38-.608 1.057-1.258 2.457-3.08 3.428-4.17.845-.95-.297.425-.32.46-.198.315.192-.11.208-.076s-.445.66-.025.137c.053-.067.59-.861.606-.902.12-.32-.266.12.611-.97.313-.389 1.241-1.504 1.589-1.922.387-.467.749-.803.974-1.077.228-.279-.02-.046.253-.374.206-.25.467-.552.722-.841.412-.47.84-.938 1.15-1.289.593-.666.716-.886 1.307-1.519.41-.438.99-.975 1.462-1.465.135-.089-.004.21.315-.112.385-.386-.21.091-.038-.124.383-.395.138-.086.153-.098.208-.17.533-.498.793-.718-.181.133-.354.264-.543.409.697-.597.295-.34.834-.847.139-.128.526-.355 1.03-.796.111-.112 1.341-1.12 1.793-1.388.184-.12.514-.275.585-.313.244-.136.197-.171.423-.3a16 16 0 0 1 2.314-1.057c1.092-.463 2.48-.154 3.29.401.247.154.473.34.664.537 1.343 1.663 1.36 2.634 1.833 4.337.364 1.585.702 3.007.107 1.352.204 1.221.21.86.337 1.17.074.19.087.46.11.546.074.279.016-.219.073-.001.089.336.217 1.034.34 1.796.195 1.196.362 2.562.424 3a622 622 0 0 1 1.184 8.984c.243 1.95.446 3.76.702 5.688q-.043.649-.081 1.3c-.031-.274-.04-.415-.083-.73-.043-.313-.132-1.073-.196-1.26-.003.289.123 1.299.167 1.61.082.589.07.211.136.62.033.203.062.49.094.772.031.283.068.57.116.81.176.844.042-.088-.055-.819-.035-.26-.07-.503-.087-.608.051.055.088.319.124.603.04.325.086.687.154.877a10 10 0 0 0-.075-.89l-.017-.095c-.048-.226-.05.14-.105-.354.003-.33.003-.7.009-1.03.068.417.135 1.037.194 1.468l.027.192c.747 4.754 1.91 9.368 4.562 13.292.24.36.754 1.048.995 1.36.188.247.021.144.256.395.028.029 0-.062.292.26.291.318.769.822 1.264 1.305.362.36.838.599 1.186.722 1.84.625 4.065.243 6.114-.253 5.128-1.288 7.288-7.04 9.68-11.693l-.132.2.206-.618q.448-.977.907-1.952l.207-.297.009-.013q.824-1.655 1.608-3.33l-.09.447q.206-.44.41-.886l.044-.327c.124-.295.252-.6.374-.896l.093.25-.174.592.008-.012c.04-.072.285-.827.393-.984l.043-.057.234-.513-.309.448.007-.294q.296-.729.59-1.468l.14-.119c.123-.365.248-.739.368-1.104l.276-.507.05-.252c.177-.41.35-.812.524-1.223l.397-.72.245-.802c.662-1.528 1.314-3.055 1.994-4.583.28-1.117 1.62-3.402 1.427-3.33.224-.443.458-.881.715-1.314a29 29 0 0 1 1.582-2.365q.285-.324.576-.64a46 46 0 0 1 2.752-3.296 77 77 0 0 1 3.882-3.66q-.253.121-.504.245.613-.571 1.233-1.133l.165-.118q.336-.244.677-.471c.225-.236.45-.463.685-.69.51-.04 1.217-1.005 2.54-1.66.549-.6 1.746-.755 2.507-1.316l-.054.012c.02-.025.029-.045.052-.07.144-.045.305-.098.455-.144-.093.102-.232.152-.44.199l-.085.111q.427-.173.862-.328.876-.368 1.79-.653l.085.091q.259-.059.52-.112c-.013-.01-.009-.024.024-.04.822-.2.95-.091.293.04a1 1 0 0 1-.208.02l-.247.112q.349-.066.699-.12 1.124-.276 2.28-.416c-.035-.021-.063-.043-.043-.068.308-.053 1.252-.108 2.028-.08l.003-.002q.207.008.414.02c.354.02.623.047.694.053a4 4 0 0 1 .326.041q.375.046.746.108L106 .87l-.161-.077c.362.058.725.13 1.08.213.377.084.716.312.947.57.235.239.352.27-.028-.146-.371-.357-.714-.458-.898-.515-.253-.082-.185-.123-.279-.253-.023-.03-.331-.104-.245-.117.084-.018.792.111.457-.033-.064-.028-.457-.058-.482-.131-.081 0-.125.008-.193.011-.53-.233-.565-.316.626-.091l-.163.062c.14 0 .267 0 .404.004q.144.016.3.055c1.216.474 1.671 1.59 1.936 2.357a9 9 0 0 1 .409 2.134c.053 1-.093-.401-.112-.432-.099-.283-.068.173-.112.166-.04-.006-.181-.606-.094-.084.015.066.21.798.226.827.153.235.144-.217.246.863.037.383.08 1.486.088 1.896.011.456-.059.822-.052 1.092s.053.017.059.334c.011.629-.047 1.529-.055 2.102-.009.65.056.838.047 1.463-.005.374-.051.857-.053 1.294q0 .11.002.216c-.039.119-.174-.11-.172.224.001.41.1-.158.137.047.011.412-.043.125-.047.134-.032.198-.024.544-.048.79.035-.16.067-.322.101-.495-.07.677.042.334.041.874-.001.14-.12.456-.113.94a41 41 0 0 1-.001 1.613c-.009.156-.067.406-.072.462-.017.196.048.178.044.362-.034 1.365-.109 2.918-.108 4.214.002 1.227.013 1.9.048 3.15.035 1.162.19 2.218-.186.972-.01.898.077.638.165.87.053.139.02.344.032.406.038.203.057-.155.086.005m-57.646 24.96c.49.13.045-.031 1.023.341-.987-.216.39.24.389.277-.005.04-.483-.091-.635-.123-.233-.04.085.109-.19.041-.279-.046-1.21-.53-1.482-.76a5 5 0 0 1-.555-.451 17 17 0 0 1-.595-.565c-.3-.3-.734-.818-.914-1.031-.18-.21-.358-.41-.39-.443-.186-.189-.11-.012-.348-.304.009-.07-.273-.56.085-.156-.05-.064-.106-.152-.153-.21-.223-.279-.138-.053-.248-.176-.184-.21-.037-.107-.037-.112-.146-.266-.088-.106-.172-.184a8 8 0 0 1-.44-.564c-.064-.096.033-.003-.01-.067-.181-.279-.361-.571-.54-.85-.174-.272-.298-.392-.253-.452.008-.008.11.144.095.07-.005-.026-.117-.294.087.006q.087.127.179.274l-.082-.08q.068.114.14.23c-.042-.02-.086-.043-.12-.051.047.125.135.2.147.218.158.268.115.293.266.414a17 17 0 0 1-.317-.547l.03-.023.064.104-.018-.086c.151.25.312.523.451.759l-.185-.194c.206.285.073.143.207.367.072 0 .143.127.264.303.122.175-.015-.09.114.08.258.342.689.992.803.991.331.481-.112-.038-.144-.046-.152-.036.611.81.755.884.094.146.075.189.372.49.404.404-.432-.552.109.009.366.373.298.36.476.554.1.108.231.24.354.355.375.359.76.568.544.369-.094-.09-.335-.265-.49-.424a1 1 0 0 1-.087-.098c-.05-.069.124-.07-.23-.285-.034-.02.115.192-.14-.061-.074-.074-.3-.361-.507-.564-.091-.089-.49-.437-.694-.707-.223-.294.14.11.061-.011-.082-.123-.366-.459-.336-.488.175.14.16.23.212.287.203.217.075-.036.358.298.027.087-.283-.105.16.347 0-.001-.088-.134.053.009.25.252.729.735 1.04 1.04-.001-.08-.381-.45-.553-.688.26.263.549.536.795.785a9 9 0 0 0 .519.474 4.6 4.6 0 0 1-.625-.496l.067.063q.317.3.674.531c-.105-.027-.7-.424-.286-.083.038-.034.645.35.883.41m3.458.939c-.313.053-.806.042-1.337-.015.098-.031.957.043 1.337.015m-9.57-8.093c-.088-.352.46.75.712 1.189l-.171-.303.041.179q-.097-.164-.19-.33c.06.147.113.285.173.425-.207-.212-.193-.28-.41-.711-.139-.281-.206-.355-.376-.697a29 29 0 0 1-1.922-4.97c.05-.051.074-.022.175.285l-.055.013q.101.301.208.596c-.052-.2-.102-.401-.148-.594l.116.358c.037.11.065.116.11.267.095.317.178.8.317 1.127.082.191.036-.138.197.355-.142-.238-.253-.397.04.317-.129-.463-.016-.115.063.022.047.084-.193-.532-.02-.158.032.088.56 1.293.514 1.28-.113-.03-.139-.091.259.647-.425-1.029.02-.176.218.289.1.234-.12-.108.15.413m-2.324-6.059c.084.327.142.376.185.632.003.023-.092-.152-.136-.305a25 25 0 0 1-.288-1.2c-.01-.353.206.76.239.873m-.252-1.011c-.095-.387-.188-.79-.273-1.179v.002q.018.013.035.028c.074.378.155.772.239 1.149m13.73 14.93c-.083.075.331.025.486-.003.556-.096.908-.118 1.103-.224-.342.037-.55.119-.714.145-.36.052-.397.008-.875.081m2.116-.386c.148-.023.102.022.3-.018a8 8 0 0 0 .258-.058 6 6 0 0 0 .772-.232c.214-.088.142-.114.305-.195-.362.143-.722.261-1.093.361q-.267.073-.542.142m3.112-1.222c-.294.166-.592.41.068.017.03-.017.23-.188.442-.3.139-.072.061.002.242-.098.171-.114.504-.397-.752.381m4.935-5.278c-.073.124-.134.28-.09.22.331-.472.432-.806.09-.22m-23.28-5.892-.005-.015h.001zm22.502 7.092c.144-.233.285-.472.419-.707-.101.14-.206.284-.31.422q-.053.142-.11.285m-.389.33c.018.045.075.032.293-.24-.002-.068-.139.08-.293.24m2.307-3.682c.21-.327.157-.569-.024-.061-.018.048.009.085.024.061m-21.385 3.053-.007-.01.013.007zm80.326-11.3c-.229.16-.313.476-.267.443.225-.166.431-.558.267-.443m-64.021 14.77c-.826.552-.886.686-.933.738-.27.238-.462.216-.538.258-.366.194.175.043.228.012.816-.44.523-.39.579-.451.12-.144.653-.476.664-.556m-16.259-3.45-.11-.179.02.019-.192-.35c.086.135.17.262.26.395zm25.449-11.75c-.316.492-1.035 2.195-.467 1.08.097-.193.023-.098.08-.218v-.001c.06-.125.624-1.225.387-.86M56.818 54.8c.19.02.473-.03.809-.09l-.127-.024q-.338.063-.682.114m73.247-20.55c-.15.237-.473.624-.392.654q.216-.27.432-.547zm1.533-2.49c-.12.228.078.02.056.122-.024.106-.506.792-.106.37.125-.134.604-1 .833-1.232-.071-.231-.267.306-.557.6-.086.088.025-.239-.226.14m-58.19 3.736.3-.72-.322.7zM89.902 7.849l-.095.104-.303.283-.143.088zM75.486 30.566c-.195.398-.37.961-.206.664.2-.359.526-1.315.206-.664m-.96 2.394c.405-.888.575-1.53.109-.377-.026.064-.018.166-.11.377m17.14-26.663c-.306.171.781-.751 1.148-.952l-.24.279-.134.105c-.12.086-.328.239-.579.433l-.199.135zm46.321 16.256c-.637.673-.614.942-.258.46.043-.057.297-.456.258-.46M65.393 50.379c-.036.012.087-.293-.208.184-.105.163-.045.148-.427.568.35-.39.362-.3.406-.34.35-.33.561-.757.469-.702-.027.018-.205.276-.24.29m-18.948-2.88c-.129-.244-.25-.483-.371-.732l.07.05q.149.348.301.682m89.259-22.003c.017.072.614-.428.684-.508.455-.518.55-.892.951-1.396-.22.082-.398.52-.669.806-.083.087.053-.331-.307.147l-.001.001c-.116.155-.472.75-.658.95M93.296 5.038c-.167.085.087-.19.46-.325.014-.004.01.005.007.013s-.006.015.005.012c.035-.014.173-.088.339-.172.338-.173.785-.377.638-.272a17 17 0 0 0-.638.354c-.054.021-.1.036-.147.051-.061.02-.124.04-.204.078a4 4 0 0 0-.409.23l-.063.039zm46.975 12.979c-.073.07-.339.497-.341.543-.001.042.052-.01.101-.057l.102-.152-.079.13c.05-.046.082-.066.013.079l-.737 1.177.188-.077.105-.253.178-.22c.055.34-.586.921-.871 1.58-.04-.023-.085-.043-.121-.07-.701 1.03-.204.34-.059.323.083-.009-.188.317-.218.384-.197.461.563-.58.77-.924.207-.342.426-.862.656-1.244.137-.226.198-.234.335-.462.205-.34.578-.943.73-1.253.055-.113-.085-.055-.112-.03-.066.062-.115.231-.175.314s-.057.006-.128.117c-.072.112-.416.712-.434.755-.101.248.158-.088-.038.221-.506.24.286-.7.359-.853.163-.347.107-.302.015-.185-.139.207-.278.41-.29.418-.119.074-.043-.065.073-.236.004-.03.006-.054-.02-.03zM148.9 6.61c.517-.511.311-.124.226-.04-.365.366-.75.549-.782.84-.206.232-.044-.045-.18.088-.273.27-.477.632-.751.929-.05-.002-.145.043-.158-.002.231-.356 1.503-1.693 1.645-1.815M59.737 54.208l.08-.025q.516-.157 1.007-.367c-.497.192-.699.251-1.026.296l-.051.006zm12.641-16.76c-.025.042-.415.885-.386.894.082-.145.566-1.166.386-.893m73.499-27.306c.388-.539.544-.536.223-.123-.092.119-.255.219-.223.123m-36.933 25.556c-.057-.077-.571-1.198-.587-1.065.245.622.562 1.268.915 1.857-.002-.047-.08-.226-.119-.314-.097-.219-.054-.176-.209-.478m37.85-26.772c.127-.127.111-.02.315-.304l.017.007c.013.046-.147.28-.244.394-.005.004-.01-.046-.037-.016-.193.222-.454.603-.522.527.223-.185.343-.477.471-.608M62.22 53.072c-.375.213-.572.367-.477.364a10 10 0 0 0 .741-.44zm45.136-24.19-.009.353-.033-.21-.011.3.132.314q-.041-.377-.079-.757m29.999-6.22c-.214.239-.009.232.099.094s.257-.444.394-.533c-.098.215-.28.421-.422.681-.169.31.109.03.14-.06.062-.182-.106-.04.188-.396.248-.303.152.123.335-.15.232-.347.067-.256-.061-.156l.373-.673c-.406.65-.55.67-.747.725-.187.266.057.06-.136.338-.068.098-.145.111-.163.13m-6.828 10.735c-.355.514-.265.57-.003.104.056-.1.033-.106.003-.104M60.958 53.735q.331-.13.652-.282l-.002-.03a10 10 0 0 1-.648.281zm-4.373.96c.3-.034.814-.075.814-.123q-.397.05-.802.08zm15.401-16.51v.002zM55.343 54.752q.355-.012.702-.045-.341.01-.684.003zM99.556 2.385c.074-.027.383-.077.672-.113.189-.025.37-.044.468-.058-.352.201-1.198.189-1.14.17m8.277 29.21c-.176-1.54-.418-.827-.19.434.079.075-.017-.234.014-.26.03-.026.057.339.089.166-.078-.555-.099-.245-.174-.652.048.07.096-.086.134-.036.071.094.069.44.127.348m34.503-16.629.007-.009c.143-.17.306-.116.332-.148.29-.377.293-.663.086-.448-.121.125-.185.418-.278.368.207-.288.264-.403.269-.45zm7.078-8.775c.005-.12.493-.506.702-.7-.14.221-.425.447-.702.7M64.546 51.276c.369-.383.258-.322.303-.398q-.125.136-.251.265zm95.02-49.689c-.1-.032-.236-.016-.19.007.347.173.649.153.19-.007M141.489 16.43c-.159.336-.599.948-.464.959.406-.521.235-.324.332-.6.066-.188.303-.428.132-.36m-33.251 17.663c.066.194.135.382.21.575l-.018-.235q-.098-.166-.192-.34M98.656 2.51c.06-.095 1.418-.323 1.223-.248-.541.092-.51.113-.469.13.02.008.041.017.004.037-.207.103-.81.148-.758.081m-37.18 50.897q.224-.09.44-.188.074-.06.146-.124-.195.105-.389.2zM143.16 13.69c.395-.372.513-.395.442-.484-.069.085-.111.123-.092.07l.067-.098-.048-.045zM154.583 2.4c-.232.097-.454.323.048.07.023-.012.182-.16.352-.183.108-.012.043.046.184.026.148-.018.414-.31-.584.087m-1.077.533c-.382.214-.742.436-1.107.679.107-.042.088.035.226-.033a8 8 0 0 0 .689-.388c.136-.1.084-.164.192-.258M103.957 1.7c.214 0 .683.02.583.046-.045.01-.168-.003-.277-.012-.129-.012-.242-.02-.185.008.433.075.813.096 1.325.15l.046.006c.005 0-.012-.007-.037-.016-.064-.023-.177-.062-.102-.068l.086.017c.224.047.148.045.487.103l.21.037q.05.017.12.035c.07.018.164.038.26.06q.098.023.194.048a.3.3 0 0 1 .111.054c-.021.004-.061-.01-.118-.026-.124-.03-.278-.072-.419-.107a3 3 0 0 0-.349-.075.3.3 0 0 0-.064.013c-.045.013-.104.031-.158.032.029.006.092.014.164.024.143.02.312.046.284.064l-.004.002-.004.003h-.001c-.042.03-.109.074-.422.025-.028-.004-.047-.012-.069-.02a.5.5 0 0 0-.106-.031 4 4 0 0 0-.245-.03c-.111-.012-.224-.022-.32-.037a1 1 0 0 1-.092-.023 1 1 0 0 0-.143-.033 2 2 0 0 0-.179-.003c-.136.003-.308.008-.483-.01-.12-.012-.322-.088-.094-.091.14-.001.169.01.195.02a.2.2 0 0 0 .057.013c.063.006.14.01.214.013.176.008.346.02.338.064.171.017.159-.032.113-.047-.122-.06-1.621-.181-1.761-.144-.004.001.004.003.015.006.046.011.153.037-.137.081-.22.034-.496.041-.62.046l-.067.003c-.007.002.009.008.034.017.1.039.315.102-.52.086-.099.014-.08.025-.064.035.012.006.022.012-.012.018-.094.015-.487.064-.534.066l-.07-.031.11-.017c.199-.03.607-.075.585-.099-.484.057-.666.064-1.049.083l-.085.001c-.114 0-.287.003-.361.059-.015.012.057.005.139-.003.11-.011.232-.021.174.009a4 4 0 0 0-.602.132c-.067 0-.008-.021.045-.04.036-.012.07-.023.056-.025-.01-.003-.392.024-.413.027a19.31 19.31 0 0 0-.714.151c-.087.02-.2.042-.289.06l-.153.033a2 2 0 0 0-.16.056c-.069.025-.14.053-.216.074q-.058.014-.136.027l.094-.044.136-.063c.079-.036.154-.07.245-.107l.064-.002c.082.016.417-.068.919-.181.119-.027.129-.037.136-.047.005-.006.01-.011.042-.02a10 10 0 0 1 .651-.13c.271-.048.548-.088.77-.126-.009-.016-.136.004-.234.02l-.11.016c-.055.002-.112-.04.073-.074.348-.062.466-.046.576-.032.054.008.108.014.187.014.51-.008 1.216-.057.849-.12.437.013.446.01.464-.004.007-.005.016-.012.061-.016.365-.041.444-.033.588-.022.069.005.153.012.287.018zm47.038 2.856c-.015.146.25-.039.345-.111.356-.27.612-.333.716-.531-.247.09-.363.26-.471.327-.24.152-.29.077-.59.315m-6.761 7.673c-.017.038-.093.135-.211.301l-.013.022a1 1 0 0 1-.108.229l.152-.23q.153-.232.182-.309zc.005-.011.007-.021 0-.021l-.002.002zm-36.766 15.43-.076.22.125.208c-.017-.139-.033-.286-.049-.427M97.732 2.797c.13-.033.268-.06.256-.043a3 3 0 0 0-.454.162l.004-.003q.003 0 .005-.003l.006-.004zm-1.29.425q.078-.032.139-.05l-.05.035a1 1 0 0 0-.134.112l-.285.112c-.046-.014.025-.087.33-.21m99.418 19.238.104.018c-.016-.015-.014-.055-.015-.092zm-33.479-6.45c.043-.376-.058-.908-.118-.633-.071.329.047 1.245.118.633m-32.863 18.666c-.262.21-.824.918-.352.446.12-.12.244-.305.352-.447m29.087-33.313q.289-.003.587.035a5 5 0 0 0-.342-.121 4 4 0 0 0-.245.086m3.649 8.39c.131-.472-.067-2.089-.088-1.03-.004.183.037.093.042.208l-.001.001c.005.116-.048 1.165.047.82m-1.055-7.405a.4.4 0 0 0 .198.123c.019-.032.066-.067.058-.075a.6.6 0 0 0-.162-.085c-.04-.016-.107.02-.094.037m1.076 11.39c-.029.834.137 1.467.086.363-.004-.061-.087-.157-.086-.362m-.03-2.398.044.682.004-.662zm-63.929-8.74a18 18 0 0 1-.493.146l.057-.03.075-.04q.18-.04.361-.077m46.678 8.466a.1.1 0 0 0 .02-.021l.005-.008zm-.235.224c-.063.12.051-.02.235-.224-.027.016-.01-.064-.042-.024zm.862-1.287c-.048.064-.097.13-.136.186.015.042.057.058.02.126l-.036.06a3 3 0 0 0 .272-.317c-.074.02-.142.03-.12-.055m12.708-8.878c-.036.07-.017.125.206.182.058-.062-.062-.125-.206-.182m-12.974 9.283c-.022.07.014.058.078 0-.025.005-.018-.075-.022-.074l-.034.025a.3.3 0 0 0-.022.05m1.318-1.704c-.051.066-.088.126-.086.152.003.047.112-.063.21-.174.152-.203-.034-.04-.124.022m-.7.838a7 7 0 0 1-.154.203c.024.042.099-.018.187-.118.012-.049.005-.08-.033-.085M14.334 27.618c.185-.218.475-.659.586-.72-.178.242.193-.073.36-.317.162-.23.118-.21-.047-.05.61-.744 1.288-1.625 1.81-2.178-.086.119-.088.152-.088.185v.001c.197-.234.328-.338.548-.626-.057.022-.143.1-.23.182.505-.59 1.146-1.459 1.547-1.826-.385.461-.673.799-.5.75l.456-.583c.292-.256-.156.349.135.012.249-.341.349-.378.593-.715-.04-.06-.157-.016-.46.214.866-1.064 1.745-2.147 2.604-3.181-.247.372-.592.742-.736.926-.127.163-.075.158-.181.302.016-.025-.372.387-.274.345l.414-.412c.39-.45.149-.278.457-.65.193-.16 1.031-1.124.734-.92-.173.21-.412.554-.458.501.282-.362.467-.523.776-.938.174-.15-.117.269.185-.085.122-.154.004-.07.095-.192.338-.205.927-.921 1.47-1.54-.242.35-.478.794-.872 1.196.117-.075-.033.113-.046.167-.297.31-.958 1.194-.825.96.048-.082.313-.372.23-.325-.369.371-.834 1.146-.181.375-.156.194-.303.382-.457.573-.284.202.081-.244-.046-.199-.15.147-.439.54-.503.671.475-.576.051-.043.365-.313-.503.568-.67.899-1.142 1.404.285-.364.416-.639.547-.912-.248.266-.62.816-.546.838-.23.279-.486.537-.409.554.13-.146.253-.28.364-.387-.777 1.06-1.737 2.168-3 3.816-.2.223-.374.39-.59.645-.237.372-.73.892-.902 1.085s-.411.509-.496.603c-.534.584-.892.825-1.316 1.215l-.009.01c.146-.288-.057-.224.038-.46M147.387 7.955c.2-.214.56-.834.075-.188l-.098.013-.01.009zm.285-.341.008-.012-.024.024zm1.998-2.137c-.151.12-.331.253-.429.39l.261-.092q.095-.145.233-.286zm-66.208 8.407c.228-.2.879-.943.402-.467-.121.121-.276.316-.402.467m70.697-11.495a.5.5 0 0 0 .235.03c.539-.195.469-.27.466-.337l-.25.113-.005.005a.33.33 0 0 1-.208.088l-.12.051zm-11.947 12.63c-.062.104-.126.21-.187.307.028-.002.099-.1.251-.372zm-3.34 5.376.127-.135.021-.255-.119.189zm4.846-7.698a2 2 0 0 0-.174.29c.079-.122.16-.25.231-.364zm-35.785-4.281c.008.165.015.338.021.503q.025-.091.049-.187zm54.48 1.07c.01-.038-.025-.845-.078-.855-.012.14.005 1.112.078.855m.247 8.163c-.047.057-.186.054-.203.25-.027.307.037.608.102.432.02-.052.053-.646.101-.682m-23.07 1.555c0-.023.09-.167.098-.195l-.108.16zM78.183 23.04l.086-.205zm.404-1.198c-.005.05.086-.097-.041.182l-.096.164c-.07.18-.141.369-.216.557l.22-.349c.273-.641.466-1.087.609-1.418-.083.14-.432.936-.506 1.128-.041-.066.317-.727.36-.952-.033.056-.116.21-.19.361l-.083.192zm-1.382 3.406c-.137.357-.281.727-.426 1.093q.05-.113.1-.209c.013-.024.015-.012.014.01l.087-.209.39-.942c-.057.086-.118.18-.165.257M41.247 19.74l.073.3-.029-.273zm41.098-4.511c.418-.557.408-.644.054-.128-.075.11-.067.123-.054.128M75.67 29.06l.175-.41-.002-.004zm87.397-5.129c-.016-.262-.127-.65-.139-.446-.014.203.159.774.139.446m-21.484-8.524c-.031.096-.088.38-.044.388.072.01.292-.244.393-.469-.012-.02-.013-.05.032-.126-.021-.045-.106-.03.14-.334.013-.016.05-.05.095-.093.108-.19.302-.52.43-.7.002-.048-.007-.082-.058-.062-.085.035-.322.462-.442.632-.052.072-.116.09-.126.104-.123.167-.123.252-.219.415-.045.076-.17.147-.201.245m-33.598-8.624c.02.288.038.583.052.876l.006-.374.02.248q.004-.156.006-.315zm54.541 5.84.026-.268-.072.024.079.529.038-.203zm-5.344-11.479-.04.013c.042.02.044.056.064.056.275-.014.561-.16.599-.237-.094.018-.218.041-.375.08l-.003-.096c-.087.06-.156.116-.245.184m5.653 8.714a88 88 0 0 0-.058-1.576c-.105.046-.157-.398-.248-.346-.052.027-.009.542-.017.734-.003.083-.048.096-.05.111-.011.194.036.303.044.495.003.09-.064.157-.037.277.027.123.132.472.174.492.076.03.13-.332.063-.631-.033-.144-.14-.034-.09-.46.007-.058.113-.3.099-.506.077.25.098 1.104.085 1.457.016.006.027-.013.035-.047m-25.7 12.682c-.203.267-.282.509-.101.347.056-.049.419-.558.5-.598-.091.058-.272.083-.399.25m17.094-20.268c-.075.036-.1.065-.097.087l.158-.085c-.026-.006-.046-.01-.061-.002m-20.045 24.833c-.169.165-.417.63-.181.364.189-.215.35-.53.181-.364m11.282-17.191c-.251.262-.303.265-.521.601.155-.148.457-.42.521-.601M105.37 1.748a5 5 0 0 0-.25-.015q.195.032.405.062l-.148-.026zm43.973 3.737c.035.042.065.149.218-.14.016-.03.021-.051.028-.072-.054.045-.17.177-.246.212m7.767-4.393-.029.013a3 3 0 0 1-.267.103.8.8 0 0 1 .271-.063l.008-.002.048-.012zm-17.206 17.173.155-.181-.048-.057.175-.235-.106.034zM101.628 1.559q.288-.022.575-.037c.318-.026 1.523-.028 1.725.007.607.077.415.126.9.074.358.032.055.046.204.074.03.006.17.006.318.012l-.008-.023a17.3 17.3 0 0 0-3.617-.256zm52.589.503c-.142.1-.201.199-.151.225.092-.05.178-.098.271-.147-.054.012-.101.021-.116.014-.045-.022.273-.235-.004-.092M44.043 37.812c-.038-.206-.088-.458-.135-.703l-.015.097.075.336-.059.002.068.468.174.417-.025-.17zM152.628 3.05q.133-.079.27-.156l-.027-.021a1 1 0 0 1-.097.037l-.151.088zm10.29 14.279c-.044.191-.12.199-.207.22-.016.31.079.088.066.413-.005.114-.063.117-.068.139-.052.268.117.297.134.139.017-.159-.021-.526.047-.617.033.264-.011.491.01.803a.5.5 0 0 0 .027.165l-.003-.378c-.017-.036-.023-.08-.002-.245zM45.768 44.142a11 11 0 0 1-.199-.468l.002.141.09.264c.01-.01.026-.013.048.003a.3.3 0 0 1 .06.06M162.217 3.774c.011-.17.023-.524-.09-.713.031.302-.005.318.09.713m-10.103-.536c.016-.003.03-.004.033.002.018.035-.335.335-.007.102.016-.012.076-.07.148-.14.002-.03-.017-.05-.059-.049zm-97.23 50.746q-.21.045-.47.054.25.058.505.1l-.048.02.025.002q.175-.02.32-.028c-.422-.062.342-.073.73-.13q-.375.005-.75-.013-.156 0-.312-.005M43.247 32.55l-.077-.125.123.724-.01.268.098.288.026.652.117.193-.021-.11c-.026-.151-.13-.9-.198-1.478zm29.729 2.122.07-.145q-.011.014-.022.032zM53.863 54.015l.157.049.045.007-.096-.045zm108.85-47.26a52 52 0 0 0-.063-.907c-.07-.136-.041.232-.021.536.006-.145.011-.297.018-.442.016.231.03.453.043.683l-.049-.014c.003.065.004.117.001.138-.018.13-.141.074-.07.43.027.136.076-.03.074-.197.089.603.115.464.112.115zm5.265 24.442c.088.103.342.27.499.354.162.082.233.096.023-.046l-.043-.032c-.12-.088-.326-.186-.479-.276m-5.262-16.215-.003.22.081.258.037-.149zm.167-2.557c-.023.038-.035.265-.05.347-.025.137-.067-.185-.092-.11l.001.003c-.025.076-.028.578-.007.633.048.123.083-.323.118.029l-.014 1.375.064-.033q-.007-1.131-.02-2.244M43.676 35.006c-.048-.413-.083-.132-.152-.453l.06.762.024-.207.08.21a1.4 1.4 0 0 0-.012-.312M153.475 2.472q.053-.02.116-.04l.114-.055-.038-.035-.193.096zm-29.193 36.897c-.189.184-.338.356.462-.22l-.001-.01c-.293.216-.478.31-.461.23m-49.048-10.09a2 2 0 0 0-.06.156l.117-.284c.147-.288.217-.44.255-.545-.123.255-.235.485-.312.672M157.505.862l.024.006.026-.019a.2.2 0 0 0-.05.013M42.887 29.772l.002-.01-.009-.075zM149.395 5.313l.007-.011-.006.005zm-7.852 10.052.005-.005a4 4 0 0 0 .183-.303zm-99.415 8.231.02.09-.025-.2zm95.781-2.491q.046-.041.135-.155c.123-.16.221-.342.264-.461-.139.212-.275.421-.399.616m-95.417 5.277.014.048-.028-.24zm120.475-6.241a1 1 0 0 0-.025.241c-.005.18.078.9.063 1.136.015.024.036.005.06-.037q-.064-.666-.098-1.34M43.397 32.103c-.061-.146-.114-.24-.167-.38l.097.739-.028-.008c.012.031.024.052.03.033.011-.032.126-.004.067-.384M108.38 8.318l.018.144.004-.217zm4.349 30.874.048.037-.004-.009zm50.17-23.355c-.033.729-.024.714.014.6l-.004-.592zm.315 6.844c.002.247.079.74.112.9.058.292.07.196.102.27a19 19 0 0 1-.214-1.17m2.764 6.61a6.4 6.4 0 0 1-.615-.78l-.076-.115a2 2 0 0 1 .082.181c.017.048-.045 0-.085-.018-.021-.008-.035-.008-.029.019a.8.8 0 0 0 .099.184c.183.224.086-.01.193.08.081.074.414.507.431.45M101.733 1.398q.27-.05.54-.09-.245.003-.488.013zm-45.65 52.557.072.005a.2.2 0 0 0-.071-.005m110.638-23.707c.503.396.638.352.145.043-.104-.069-.127-.06-.145-.043m-3.207-6.025c.038.229.081.495.154.695.049.133.076.185.086.19q-.132-.435-.24-.885m8.189 7.372c-.051.022-.071.043-.025.056.132.035.349-.026.472-.077zM42.221 21.574c-.039-.604-.24-1.486-.233-1.044.008.528.297 2.028.233 1.044m-30.502 8.85c.412-.569 2.397-2.984 2.596-3.225.788-.966.404-.321.272-.159-.553.683-1.066 1.106-1.218 1.529-.335.422-.03-.047-.243.202-.417.49-.806 1.092-1.239 1.608l-.002.003c-.053.014-.171.103-.166.043m16.76-19.636c-.146.141-.3.353-.226.291.573-.477.9-.932.227-.29M9.402 33.328c.679-.882.854-.936.296-.235-.156.196-.379.383-.296.235m1.58-2.028c.197-.223.124-.055.482-.535l.012-.004c.035.016-.276.446-.446.654-.006.006.012-.064-.031-.012-.318.384-.786 1.013-.819.92.326-.328.604-.798.803-1.023m30.663-13.422c.164 1.353.438 2.385.155.592-.016-.1-.109-.265-.155-.592m-1.082-6.471c-.003-.752-.867-3.357-.44-1.66.068.292.07.156.117.336v.002c.057.182.353 1.875.323 1.322m.456 2.569.22 1.11-.173-1.073zm-18.99 3.797c-.277.316-.563.797.058.042.027-.033.222-.355.427-.537.134-.115.054.015.228-.141l-.002.002c.172-.155.502-.744-.71.634m-6.974 8.596c.052-.173.741-.948 1.05-1.337-.24.39-.636.842-1.05 1.337m4.218-5.306c.136-.133.098-.015.28-.213a20 20 0 0 0 .885-1.026c.18-.24.116-.27.258-.48-.481.578-.942 1.136-1.423 1.718m7.824-8.921c.253-.286.516-.578.777-.86-.175.151-.34.295-.512.448-.092.14-.176.273-.265.412m3.924-3.648c.427-.261.664-.713.05-.13-.057.057-.082.15-.05.13M17.405 23.249c-.055.207.3-.201.435-.365.482-.584.806-.85.967-1.181-.31.286-.486.591-.63.753-.317.354-.361.291-.772.793m25.388 1.028c-.03.085-.15.063-.127.377.037.5.15.996.173.717.007-.085-.08-1.044-.046-1.094M26.607 12.385c-.012.098.034.122.366-.173.044-.128-.156.017-.366.173m17.39 21.968c-.023-.406-.145-1.046-.144-.739 0 .311.175 1.244.145.739M13.21 27.814c.343-.573-.02-.192.797-1.032-.738 1.055.376-.19.405-.079.015.064-.368.477-.472.646-.16.258.11.04-.088.32s-.928 1.083-1.157 1.365c-.44.542-.808 1.042-1.172 1.494-.367.455-.955 1.106-1.192 1.391-.24.289-.462.58-.499.634-.214.32-.037.219-.353.614-.059-.044-.564.401-.121-.222-.068.081-.16.173-.224.257-.302.39-.077.272-.21.466-.224.328-.1.046-.107.05-.272.243-.114.158-.2.317-.046.082-.487.694-.583.814-.096.118.002-.071-.062.007-.281.343-.568.691-.841 1.057-.263.351-.384.622-.435.524-.008-.015.138-.227.068-.196-.024.01-.282.251.012-.185q.123-.18.27-.372l-.084.173.227-.287c-.023.086-.048.178-.058.246.119-.091.201-.278.216-.296.263-.312.278-.214.41-.52-.186.216-.36.415-.539.62l-.018-.064.102-.129-.08.032c.242-.3.517-.612.753-.87-.067.117-.139.245-.201.359.287-.392.14-.134.364-.38.01-.15.138-.28.318-.496.182-.219-.085.016.092-.22.359-.476 1.04-1.163 1.07-1.398.514-.516-.058.21-.075.281-.069.29.88-.974.99-1.22.156-.128.19-.078.547-.543.483-.629-.624.623.042-.215.449-.564.416-.427.647-.687.433-.489 1.158-1.422.85-1.184-.124.097-.419.528-.558.642-.078.064-.015-.294-.333.312-.03.058.21-.133-.103.253-.089.11-.42.425-.665.753-.107.143-.535.8-.833 1.122-.321.348.136-.244.006-.128-.133.12-.504.584-.523.515.167-.314.247-.248.312-.336.248-.338-.015-.172.363-.621.086-.02-.171.529.358-.184 0-.005-.149.126.023-.106.298-.4.883-1.139 1.267-1.606-.07-.042-.534.535-.8.773.504-.64 1.066-1.366 1.481-1.751l-.564.741.678-.845c-.066.134-.532.837-.159.411-.02-.114.479-.746.641-1.017m100.64 11.731-.01-.028a10 10 0 0 1-.903-.681q.44.375.913.71M6.61 36.725c.126-.147.27-.32.406-.484-.062.168-.191.33-.385.531l-.048.051c.01-.028.012-.048.02-.073zM40.615 10.99c.003-.056-.322-1.365-.38-1.38.057.225.405 1.79.38 1.38M5.3 38.4q.452-.565.907-1.14c-.147.305-1.056 1.384-.907 1.14m67.493-4.817c-.057.14-.112.277-.15.38q.084-.158.167-.332zM41.597 16.085l-.045-.433-.057.03c.069.295.135.581.2.872-.004-.104-.01-.217-.016-.324zM160.396.647a8 8 0 0 0-.746-.225q.302.105.588.239.173.03.346.073zm-51.668 20.684c-.121.186-.178-.39-.182-.864l-.042.196-.003.092.08.496c-.036.28-.072.557-.106.84l-.005.408.12.29-.05.618c.047-.29.122-.767.064-1.048-.029-.139-.156.09-.088-.55.051-.468.139.041.212-.478m-85.659-5.183c-.855.864-.91 1.199-.964 1.29-.267.451-.432.41-.505.495-.342.409.151.083.2.03.766-.828.515-.733.572-.86.124-.277.67-.809.697-.955m85.633 3.018-.096-.251-.007.692c.031-.167.068-.191.098-.31zM41.02 10.222c-.127-.72-.44-1.326-.382-.935.036.234.271.833.145.695-.228-1.053-.296-.942-.3-.924-.06.123-.333-.646-.393-.558-.025.047.251.865.317 1.183.03.134-.005.153 0 .178.064.31.144.484.22.803.033.142-.003.248.06.441.063.191.268.783.309.814.077.061.011-.539-.147-1.018-.078-.236-.13-.066-.241-.753-.015-.093-.01-.472-.113-.817.187.42.501 1.794.595 2.373.08.056-.143-.907-.2-1.28-.046-.314.14-.143.13-.202m69.274 25.427.032.025c.014-.058.026-.132-.114-.395q.038.186.082.37m-1.776-11.611-.01-.199-.023.32zM48.27 47.818c.111.361.867 1.541.444.75-.109-.206-.307-.51-.444-.75M151.48 2.942l.09-.059.032-.03zm-42.814 25.811c.048.064-.025-.852-.046-1.053-.009-.086-.033-.149-.052-.221l-.016.05.021.444c.012.241.025.49.04.733q.022.008.053.047M5.406 37.905c-.289.205.46-.754.934-1.354.07-.09.137-.172.193-.241l-.288.371c.053-.031.1-.056.152-.087l.015-.008-.01.013-.301.405c.126-.125.244-.236.366-.356l.035-.034-.02.044c-.194.404-.256.38-.653.865-.257.312-.338.477-.653.879-1.467 1.908-3.066 3.77-4.564 5.78-.06-.068-.044-.143.226-.526l.021.106c.174-.25.358-.503.53-.739-.18.201-.363.41-.538.614q.12-.167.32-.432c.099-.129.1-.19.24-.358.295-.355.742-.728 1.044-1.142.175-.24-.136-.019.325-.537-.22.384-.365.663.3-.196-.435.43-.106.068.017-.136.08-.13-.498.588-.146.092.069-.095 1.21-1.567 1.193-1.45-.022.24-.089.302.607-.69-.967 1.123-.164-.019.269-.505.222-.25-.097.256.386-.378M103.364.725c-.327-.015-.676.028-1.021.066q.15.012.302.028.172-.046.344-.088.225.009.448.021c.013-.012.014-.023-.073-.027M25.501 13.31c-.034-.002.22-.497-.259.199-.168.246-.112.24-.613.815.462-.541.429-.336.483-.385.437-.392.836-1.016.735-.991-.03.008-.314.366-.346.362m83.163 16.266.003.045v-.038zM104.409.774c-.296-.046-.543-.074-.737-.006q.412.03.82.079zm-61.18 23.758c-.07-.657-.133-.531-.161-.37l-.193-1.3c.151 1.238.055 1.22-.058 1.256.047.503.086.154.139.68.018.186-.032.182-.032.217.007.431.16.5.144.243-.017-.258-.122-.857-.08-.995.08.43.087.799.165 1.308.093.603.105.111.064-.074-.083-.369-.11-.132-.14-.783-.026-.553.206.335.151-.182M1.525 45.599c.13-.052.072.012-.077.124a4 4 0 0 1-.285.192c-.06.036-.12.07-.196.106-.04.018-.079.036-.138.055-.065.009-.112.069-.355-.002-.165-.062-.36-.227-.424-.407-.068-.18-.049-.287-.05-.33.042-.368.128-.494.185-.644.06-.133.12-.246.235-.384.02-.023-.118.296-.221.527-.022.054-.092.18-.135.398a.72.72 0 0 0 .051.444c.086.18.25.286.381.338.328.068.32-.02.404-.035.063-.029.112-.055.16-.082q.139-.081.237-.147c.133-.088.217-.147.228-.153M100.854.78c.225-.01.103.059.548-.013l.008.008c.011.043-.384.117-.584.14-.008 0 .038-.042-.012-.037-.373.037-.95.17-.929.064.349 0 .745-.15.969-.162m8.119 13.216c.009-.042.005-.068-.046-.081l-.013.196zm-91.932 9.4c.173-.116.411-.432.705-.797l-.12.047zm25.257-3.45v.003l.044.353.124.428.001-.237zM1.68 45.52c.457-.354.89-.717 1.323-1.078v.001l-.038.084c-.421.332-.843.667-1.285.993m41.183-24.416c-.085-.653-.291-1.686-.393-2.415-.061-.437-.017-.42-.08-.86-.092-.652-.257-1.795-.384-2.405l-.02-.076c-.044-.127-.092-.074-.094-.037l.004.052c.016.137.09.424.106.557.016.15-.04-.013-.012.195.032.215.216 1.369.233 1.453.106.495.06-.124.136.465-.22.296-.3-1.398-.363-1.697-.232-1.126-.107-.203-.095.025.012.226-.104-.313-.107-.192v.006c0 .125.115.934.147 1.03.07.206-.004-.52.108.06.102.736.2 1.49.295 2.234q.045-.043.091-.084l-.103-.505-.023-.401c.295.764.217 1.744.471 3.054-.048-.07-.097-.13-.146-.206.197 1.935.086.651.188.68.058.016.081.607.107.74.178.917.02-1.02-.066-1.673M39.538 6.968c.93 1.744.212-.502-1.028-1.177a3 3 0 0 0-.504-.25c-.283-.075.083.07.465.313.402.24.762.652.822.752.121.206-.016.138.349.68.128.21.055-.054-.104-.318m-5.36-.835c-.274.088-.816.282-1.14.526.486-.227.5-.203 1.14-.526M.85 43.637l-.013.019v-.003zm107.994-13.1q.022.247.052.487l.006.006c-.021-.188-.04-.385-.053-.576zM45.893 41.374c-.301-.49.102.554.198 1.065v-.003c.027.154-.248-.467-.027.231.164.43.086.056.186.254.093.2.526 1.432.344.695-.066-.223-.656-1.832-.702-2.242m1.325 4.242c.419.905.577 1.007.14.192-.09-.176-.118-.191-.14-.192m95.311-33.523c.05-.072.14-.213.255-.394.774-1.32 3.248-4.639 2.687-3.465q-.01.018-.005.014c.443-.42 1.092-1.829 1.917-2.148a.3.3 0 0 0 .06-.028c.038-.032.139-.147.257-.277.197-.219.434-.47.509-.505-.077.093-.202.218-.321.34a6 6 0 0 0-.196.207 2 2 0 0 0-.147.188 2.2 2.2 0 0 1-.268.324c-.367.385-.241.186-.185.095.014-.023.024-.038.02-.036l-.035.036c-.385.388-.656.675-.924 1.062-.021.061.053-.028.143-.135a1.5 1.5 0 0 1 .199-.214c.095-.057-.251.308-.397.467l-.064.07c-.091.108-.144.178-.188.236-.091.12-.145.19-.411.456-.033.034-.044.037-.053.04-.021.007-.037.01-.3.386.177-.342-.304.21-.6.67-.044.068-.066.119-.09.17-.048.106-.098.215-.333.507-.124.154-.131.08-.102.032.01-.016.038-.053.071-.095.066-.083.148-.187.139-.203a15 15 0 0 0-.495.648c-.151.205-.3.412-.415.563-.021.027-.028.03-.036.032-.041.012-.25.31-.418.576-.11.175-.201.336-.208.374l-.024.06c-.066.077-.123.14-.183.208l-.106.118-.072.081c.109-.218.183-.26.319-.46M19.631 20.24l.944-1.22c-.465.564-.628.77-.944 1.034zm23.952 6.796c-.11.087.074.973.077 1.488 0 .156-.202-.702-.124.206v.001c.025.292.198 1.46.211 1.83.067.166.14-.71.135-.857-.04-.956-.24-1.731-.3-2.668m-36.383 8.52-.01.014q.002-.014.006-.026zm102.982-.812c-.149-.397-.473-.948-.414-.637.064.383.664 1.291.414.637M52.804 52.707c-.26-.152-.851-.546-.731-.394.165.244.78.438.731.394M21.867 17.34c-.36.415-.549.766-.462.748.238-.296.47-.585.709-.88zM103.993.094c.525-.086.114-.17 1.021.03-1.012.026.282.228.214.339-.039.057-.463-.028-.618-.007-.237.03.017.133-.244.144-.263.007-1.082-.085-1.364-.078-.531.005-1.006.068-1.444.106-.442.035-1.11.064-1.393.103-.279.036-.56.1-.605.115-.276.092-.118.151-.495.232-.021-.086-.545-.115.015-.29-.082.015-.181.02-.26.039-.365.094-.164.173-.335.235-.284.105-.09-.04-.093-.043-.284-.004-.14.047-.263.117-.066.035-.602.228-.717.263-.113.032.027-.06-.048-.04a9 9 0 0 0-.981.313c-.321.127-.481.281-.496.158-.002-.02.174-.106.11-.128-.02-.008-.291.023.065-.156q.155-.076.327-.14l-.118.094q.132-.047.264-.091a2 2 0 0 0-.12.176c.12.005.238-.099.257-.104.306-.085.282.014.482-.156-.206.049-.413.099-.612.15q.004-.036.005-.07l.122-.04-.073-.03c.291-.094.595-.161.866-.21-.09.052-.19.111-.277.165.353-.13.152-.013.403-.057.062-.125.201-.14.414-.19s-.064-.053.15-.12c.44-.135 1.192-.168 1.316-.339.566-.01-.135.13-.174.177-.17.185.995-.092 1.189-.194.159.03.15.097.595.03.602-.088-.683-.039.136-.138.549-.06.458.025.725.024.497-.004 1.403-.04 1.112-.143-.118-.042-.517.018-.656-.019-.076-.02.157-.244-.351-.056-.049.02.186.082-.196.107-.108.007-.465-.036-.776.018-.139.021-.721.19-1.056.21-.363.02.2-.09.064-.103-.136-.014-.596.07-.574-.004.254-.126.275-.004.357-.023.317-.074.067-.159.527-.211.062.058-.364.29.307.156.009-.003-.153-.025.068-.067.382-.073 1.11-.15 1.578-.163-.011-.098-.59-.063-.87-.104.635-.071 1.355-.118 1.796-.02q-.367.016-.729.047.425-.02.846-.019c-.115.036-.766.142-.328.163.061-.107.687-.116.935-.158m4.539 2.311c-.163-.109.002.32.048.477.188.585.141.91.296 1.167.009-.334-.122-.585-.157-.754-.083-.37.023-.379-.187-.89M7.221 35.459q-.09.112-.177.225l.018-.037-.338.397.387-.54zm101.599-7.894c.108-.489-.021-2.155-.075-1.549l.008.462c.009.014.016.032.017.088v.001c.001.14-.043 1.402.05.998m.388 4.72c.197.955.608 1.613.189.404-.022-.07-.138-.172-.189-.405m-.353-2.8.044.475q.017.175.038.346-.01-.171-.017-.347l-.015-.443zm.212-15.994.014.292.003-.005-.001.043.027.525.066-.498zM48.055 47.097c.225.399.586 1.051.698 1.093a21 21 0 0 1-.506-.908zM109.23 7.873c.005-.315-.114-.722-.084.006.002.032.075.31.03.51-.012.048-.023.06-.034.07l.034.216c.025-.133.048-.378.054-.802m-83.476 4.728c-.326.433-.66.808-1.116 1.3-.083.193-.172.394-.249.582.693-.783.117-.29.731-.962.057-.11-.277.29-.228.207.235-.394.721-.767 1.102-1.247zm68.5-9.914q.498-.243 1.01-.454c-.198.166-1.19.583-1.01.454m14.87 8.457c.251-.373.195-1.253.048-1.231l-.012.715zm-88.43 7.673.59-.684v-.061l-.59.683zm88.268-1.354c-.083.366.167.712.081.094-.008-.06-.074-.121-.081-.094m.226-11.135a21 21 0 0 0-.162-1.687c-.002.071-.019.088-.034.11.045.349.078.688.106 1.033l.002.348c.032.051.066.096.088.196m.111 6.788c-.068-.062-.13-.048-.181.275.066.09.122-.081.181-.275M16.804 23.39c.258-.324.715-.8.705-.89l-.705.796zm12.66-14.42c-.384.316-1.354 1.376-.292.332l.056.032.237-.364m-8.297 9.082.412-.415.299-.53zm-5.417 6.58.584-.75-.584.657zm26.152-9.497c-.093-.956-.07-.595-.218-1.157-.099-.37-.11-.797-.19-.718.154.66.292 1.796.408 1.875M33.98 5.976c.577-.389-1.666.678-1.662.94.385-.266 1.383-.777 1.662-.94m77.425 30.259c-.005.074-.136.136-.016.324.189.296.471.524.398.335-.025-.054-.409-.605-.382-.659M94.453 2.295c-.336.002.85-.537 1.345-.696q-.17.065-.34.135c.055.009.104.02.16.03q-.186.08-.368.164c.15-.03.286-.05.43-.075-.29.258-.327.182-.786.366-.29.119-.395.216-.743.392-1.64.837-3.183 1.955-4.605 3.17-.057-.094-.04-.147.22-.386l.02.11q.254-.24.504-.465-.259.17-.512.344.119-.107.306-.267c.093-.08.094-.136.227-.236.284-.21.712-.368 1.011-.621.173-.146-.128-.086.33-.359-.227.263-.377.453.289-.037-.426.191-.102.01.028-.123.08-.085-.498.312-.142.014.07-.073 1.262-.856 1.24-.747-.053.219-.13.224.643-.295-1.03.489-.147-.126.332-.31.24-.093-.14.176.411-.108m14.525 24.977c.009-.046-.024-1.023-.076-1.045-.017.167.003 1.344.076 1.045M31.052 7.728c.135-.166-.613.398-.68.475-.293.304.536-.314.68-.475m12.414 18.21c-.01-.112-.1-.867-.133-.895-.007 1.198.206 1.792.133.895m66.083-16.635c.112-.906-.102-1.128-.123-1.203-.11-.389.071-.446.069-.53-.011-.4-.201.03-.204.083-.046.847.105.664.153.765.103.222.016.783.105.885m7.321 30.888c-.259-.076-.674-.144-.494-.048.181.105.819.146.494.048M88.175 6.942c-.303.103.59-.584.68-.66.132-.116.203-.204.27-.28a.9.9 0 0 1 .235-.2c.018-.01-.075.142-.178.262l-.06.063c-.122.114-.916.8-.947.815m53.021 7.118c-.273.431-.346.282.034-.09l.044-.043q-.03.06-.078.133m-31.953 16.953q-.005-.15-.007-.303l-.071.023q.071.306.156.605l.007-.227zM88.06 7q-.46.434-.914.872l.002-.002.01-.077q.449-.399.902-.793m21.583 19.777c.038-.519-.117-.984-.176-.707-.035.161.073.624-.035.507.035-.77-.052-.7-.069-.69-.114.072-.155-.504-.25-.459-.055.023-.024.647-.033.879-.005.099-.049.107-.051.125v.002c-.013.234.034.366.042.602.004.108-.064.181-.036.326s.141.596.184.622c.078.053.125-.388.055-.747-.033-.178-.143-.068-.091-.569.007-.067.116-.34.106-.59.072.319.092 1.336.087 1.762.081.048.03-.667.064-.94.027-.228.198-.08.203-.123m-.102-14.708c.032-.015.196.386.076-.235-.042-.213-.089-.193-.084-.75.003.52-.125.393-.137.445-.089.426.054.972.123.908.021-.02-.01-.351.022-.368M89.778 5.384l-.012.01h-.001zM108.6 2.029c.027.199.19.513.311.888l.042-.115a5 5 0 0 0-.353-.773m-12.053-.624-.012.004.015-.019zm29.006 35.215c.25-.119.95-.858.443-.443-.129.106-.302.305-.443.443m-13.641-.506c-.247-.355-.275-.243-.262-.125-.183-.23-.351-.465-.512-.708.435.707.356.74.246.837.188.29.128.045.335.34.073.102.024.133.035.156.144.264.313.194.215.05-.1-.144-.378-.448-.372-.56.198.216.315.44.555.69.288.293.136-.008.037-.09-.194-.162-.153 0-.376-.379-.184-.324.299.068.099-.211m-2.509-30.847c.062.39.112.784.156 1.172-.037-.553-.063-.76-.003-1.075zM96.595 1.334q-.105.034-.205.07l.026-.02-.39.114q.236-.106.473-.205zm13.462 32.255.084.229q.094.125.189.245l-.027-.162a11 11 0 0 1-.246-.312m-.816-13.252c.047-.201.147-.6.101-.892-.061.382-.102.381-.101.892m.476-12.3c.003-.414-.103-.705-.167-.652q.027.425.047.85zm-.445 16.27c.131 1.638.137-1.15.095-1.334-.095-.354-.061.9-.085 1.05-.026.153-.148.065-.095.501.021.166.077-.018.085-.216m1.551 9.842c-.184-.384-.506-.998-.638-1.466-.079-.276-.029-.28-.097-.559-.106-.418-.219-1.173-.285-1.579-.026-.149-.113-.106-.12-.077-.018.076.052.31.057.41.005.102-.047-.007-.033.134.009.146.164.913.189.964.116.32.071-.09.153.29-.267.253-.323-.907-.354-1.103-.166-.758-.112-.133-.114.025-.005.153-.097-.21-.111-.127l.001.004c-.018.087.067.64.105.705.075.135.018-.362.126.026.092.494.216.99.374 1.47l.1-.084a12 12 0 0 1-.145-.314l-.037-.268c.358.444.318 1.132.802 1.885-.064-.025-.128-.042-.192-.071.545 1.186.204.388.317.36.064-.017.199.352.256.422.381.487-.196-.653-.354-1.047m-1.211-27.536c.005.232.008.456.01.686l.049.033a53 53 0 0 0-.01-.684zm.267 5.971c-.055-.394-.054-.758-.025-1.257l-.226-.447c-.019.77.117.22.089.89.035.089.023-.292.043-.224.096.331-.046.77.003 1.224zm3.175 24.73c-.064.14.433.48.656.745.066.082-.464-.197-.01.219.144.139.813.572 1.009.73.124.016-.244-.477-.31-.546-.46-.436-.941-.67-1.345-1.148m8.537 1.773c-.258.302.357-.071.693-.162.102-.025-.259.258.174.038.256-.168.011-.093.119-.197.112-.094.858-.551.38-.361-.141.074-1.091.669-1.366.682m2.638-1.357c.529-.45.539-.611.085-.147-.098.096-.096.124-.085.147M108.727 1.798c.228.368.354.94.443.969a5 5 0 0 0-.344-.937zM107.264.49c.424.124.807.39 1.07.663a2.5 2.5 0 0 0-.95-.696q-.062.015-.12.033m2.528 6.794-.047.442q.073.223.143.448a52 52 0 0 0-.096-.89m-.032 9.117c.03-.362-.074-1.42-.052-.323l-.074.011q.063.153.126.312m15.281 20.45c.225-.236.615-.595.6-.705q-.266.262-.539.51zm-15.527-16.585c.079.483.233-1.237.031-1.346-.007.333-.07 1.116-.031 1.346m.139-2.412c.052.151.089-.515.076-.592-.051-.304-.128.439-.076.592m.064 12.5c.01-.246.017-.365.013-.438-.006-.127-.038-.126-.087-.382-.054-.278.012-.585-.098-.535.033.27.041.628.064.924.018.231.05.405.108.43m2.849 6.43c-.046-.054-.368-.437-.406-.431.359.722.783.89.406.43"/></svg>