<svg xmlns="http://www.w3.org/2000/svg" width="283" height="163" fill="none" viewBox="0 0 283 163"><path fill="#231f20" d="M273.713 133.487c-3.745 2.603-7.363 4.418-12.155 6.503l-.007.003q-.984.423-2.093.877c-5.821 2.376-13.635 5.149-25.472 8.584-13.196 3.798-23.376 6.036-30.091 7.472-.374.08-.753.161-1.19.257-.982.213-2.263.502-4.488.96-2.081.423-4.904.982-9.002 1.634-2.183.345-4.727.714-7.718 1.078-9.889 1.265-25.561 2.245-40.064 1.812a299 299 0 0 1-23.488-1.525c-8.863-.946-17.443-2.226-26.58-4.208q-.64-.14-1.272-.291c-8.941-2.021-18.452-6.986-26.313-15.458-6.1-6.397-10.888-13.272-16.777-19.288a82 82 0 0 0-2.288-2.264 68 68 0 0 0-6.559-5.513c-3.823-2.836-7.89-5.536-12.253-8.254-6.136-3.845-11.877-7.052-17.073-10.83C3.88 91.587-1.98 85.411.652 78.727l-.043.262q0-.399.01-.792c.088-5.053 1.577-10.438 5.116-14.865 5.476-7.346 17.673-12.354 29.668-16.088q1.541-.494 3.081-.977l.016-.005c7.242-2.266 14.376-4.479 20.416-6.96a211 211 0 0 0 8.692-3.765c11.848-5.58 16.01-8.24 19.675-10.14a214 214 0 0 1 4.163-2.194c5.478-2.853 14.127-6.634 23.237-9.472l.106-.033c1.491-.474 2.787-.708 2.843-.535.051.175-1.15.69-2.638 1.162-4.82 1.527-9.408 3.205-13.464 4.912-.138.228-1.186.796-2.465 1.36-3.34 1.259-12.694 6.615-27.7 14.338a432 432 0 0 0 4.916-2.246c1.236-.575 2.063-.966 3.511-1.698 3.335-1.697 8.478-4.544 14.021-7.265 1.401-.685 2.618-1.087 2.692-.92.08.165-1.005.834-2.4 1.517l-.082.04c-5.468 2.686-10.78 5.625-14.27 7.398-.894.458-1.65.839-2.235 1.13-.456.227-1.035.512-1.363.666l-.231.106a15 15 0 0 1-.996.411l-.118.054c-.556.254-1.113.505-1.722.779-2.327 1.028-5.932 2.73-13.552 5.741q-.29.114-.591.23c-7.31 3.099-20.519 6.153-35.966 12.254a103 103 0 0 1 3.138-1.221c2.656-.985 5.366-1.883 8.086-2.744a371 371 0 0 1 3.13-.974c1.69-.52 3.395-1.036 5.099-1.555 1.148-.35 2.304-.704 3.452-1.06l.008-.002c1.598-.496 3.195-1 4.802-1.527q.842-.276 1.666-.553a169 169 0 0 0 6.77-2.434l.509-.193.356-.134.75-.283.592-.224.076-.029a140 140 0 0 0 1.174-.452l.005-.002a75 75 0 0 0 1.276-.513 93 93 0 0 0 1.61-.678 152 152 0 0 0 2.558-1.125 20 20 0 0 1 1.821-.727c.492-.16.787-.209.826-.132.033.078-.19.275-.631.55-.437.27-1.09.612-1.74.913a189 189 0 0 1-2.682 1.21 134 134 0 0 1-2.943 1.253 90 90 0 0 1-1.55.618q-.374.146-.724.28l-.075.03-.378.145-.213.082-.594.226-.486.186a181 181 0 0 1-7.89 2.853 327 327 0 0 1-4.782 1.57c-1.155.37-2.32.738-3.477 1.103-1.71.54-3.422 1.076-5.121 1.619-1.064.339-2.089.67-3.145 1.016-2.74.901-5.459 1.838-8.137 2.875-2.671 1.035-5.305 2.17-7.82 3.482-2.504 1.306-4.98 2.85-7.11 4.618-1.57 1.296-3.024 2.775-4.176 4.3a21.5 21.5 0 0 0-1.652 2.52l-.005.01a21 21 0 0 0-1.116 2.332 22.5 22.5 0 0 0-1.405 5.302 27 27 0 0 0-.263 3.448l-.054.329a10 10 0 0 0-.477 1.928c-.253 1.694.06 3.466.897 5.065.83 1.607 2.078 3.041 3.546 4.402 1.922 1.77 4.131 3.344 6.412 4.85 2.28 1.501 4.655 2.938 7.046 4.37.844.506 1.673.999 2.518 1.503l.01.006a643 643 0 0 1 4.672 2.807 237 237 0 0 1 7.178 4.523 157 157 0 0 1 5.061 3.467q1.02.724 1.998 1.474a73 73 0 0 1 6.699 5.845c1.907 1.872 3.728 3.844 5.45 5.808q.68.776 1.353 1.562c2.124 2.479 4.114 4.911 6.13 7.259 2.014 2.345 4.071 4.631 6.29 6.775 2.21 2.137 4.59 4.133 7.167 5.867a44.3 44.3 0 0 0 8.205 4.358c2.866 1.16 5.868 2.035 8.93 2.665l.234.048a237 237 0 0 0 10.362 1.861 252 252 0 0 0 5.128.755 235 235 0 0 0 9.546 1.105c1.552.145 2.821.249 4.351.358 3.713.278 6.018.424 8.578.57a340 340 0 0 0 10.707.428c3.055.073 6.054.104 9.09.092a303 303 0 0 0 9.043-.169q4.504-.15 8.994-.444a255 255 0 0 0 14.092-1.305 229 229 0 0 0 4.926-.65c1.594-.23 3.141-.472 4.629-.724a163 163 0 0 0 4.327-.795 143 143 0 0 0 6.09-1.348 514 514 0 0 0 5.145-1.292 672 672 0 0 0 8.435-2.217 448 448 0 0 0 13.732-3.932c2.313-.706 4.322-1.318 6.401-1.961a387 387 0 0 0 5.476-1.737l.967-.317q2.245-.74 4.262-1.445a200 200 0 0 0 4.937-1.796 154 154 0 0 0 4.765-1.897 112 112 0 0 0 4.685-2.078 80 80 0 0 0 4.837-2.47c1.835-1.024 3.255-1.889 5.013-3.128 1.534-1.094 3.098-2.383 4.311-3.748 1.204-1.345 2.133-2.86 2.479-4.367.359-1.524.173-3.066-.479-4.727-.628-1.617-1.748-3.366-2.916-4.919-1.918-2.55-4.198-5.013-6.478-7.573-2.269-2.549-4.582-5.195-6.61-8.179-2.009-2.964-3.784-6.378-4.416-10.18a18 18 0 0 1-.246-2.955l.011.227c-.255-2.796.116-5.504.789-8.004a32 32 0 0 1 .678-2.198c.88-2.53 2-4.879 3.188-7.13l.024-.045c1.533-2.893 3.165-5.594 4.741-8.306.577-.993 1.124-1.946 1.662-2.92a75 75 0 0 0 1.526-2.896 43 43 0 0 0 1.319-2.903 28 28 0 0 0 1.007-2.89 18.5 18.5 0 0 0 .592-2.974c.114-1.041.112-2.206-.05-3.253a10.9 10.9 0 0 0-1.472-4.034l.009.015a35 35 0 0 0-2.727-3.835c-2.064-2.538-4.473-4.875-7.076-7.015a66 66 0 0 0-3.149-2.43 76 76 0 0 0-5.206-3.448 91 91 0 0 0-9.173-4.847 106 106 0 0 0-9.674-3.874 116 116 0 0 0-9.978-2.947 119 119 0 0 0-13.99-2.584c-2.859-.35-5.736-.597-8.61-.757a159 159 0 0 0-11.397-.214c-3.798.06-7.591.243-11.375.527q-3.397.256-6.784.616-1.784.226-3.425.46c-8.087 1.17-13.882 2.278-21.478 3.918-.726.161-1.317.3-2.032.47l-.429.103-3.501.842c-2.977.717-7.554 1.816-13.439 3.29-1.494.375-2.482.478-2.223.219.182-.182.933-.492 1.887-.79q-2.675.712-5.304 1.456c-.707.2-1.376.358-1.862.437s-.75.072-.739-.02.298-.263.802-.475c.503-.212 1.188-.45 1.891-.656a347 347 0 0 1 16.896-4.49q2.835-.675 5.69-1.303a308 308 0 0 1 10.452-2.105l1.037-.187c3.72-.665 7.492-1.261 11.246-1.766 3.772-.507 7.556-.926 11.354-1.244 3.799-.318 7.61-.534 11.431-.626a160 160 0 0 1 11.479.123c2.842.137 5.689.358 8.525.679a122 122 0 0 1 11.698 1.925 120 120 0 0 1 12.976 3.426c-5.567-1.88-10.146-2.983-14.515-3.845q-.877-.17-1.753-.329c-2.76-.495-5.49-.893-8.405-1.219a148 148 0 0 0-11.104-.783c-22.155-.47-34.748 2.192-42.567 3.354-7.811 1.352-11.136 2.074-14.268 2.64-4.426.793-12.836 2.844-17.006 4.05-1.507.426-2.79.649-2.84.473-.057-.172 1.143-.678 2.653-1.104 4.416-1.279 13.525-3.501 18.817-4.42 2.355-.406 5.033-.99 12.743-2.32 7.721-1.135 20.217-3.795 42.507-3.32 4.168.147 7.742.418 11.104.785a127 127 0 0 1 9.701 1.456l.011.002c5.412 1.056 11.311 2.455 18.968 5.367 13.466 4.842 29.157 15.588 34.479 25.025a13.9 13.9 0 0 1 2.07 7.025 17.4 17.4 0 0 1-.278 3.478c-.769 4.499-3.211 9.437-9.235 19.74-1.267 2.283-2.731 4.97-3.951 8.058-1.308 3.472-2.04 7.115-1.665 10.434l.004.069a15 15 0 0 0 .411 3.233c.848 3.526 2.762 6.502 4.816 9.166a58 58 0 0 0 1.868 2.274c1.553 1.804 3.205 3.546 4.811 5.264 1.287 1.378 2.645 2.815 4.036 4.416 2.419 2.94 5.591 6.323 6.295 11.728.635 5.584-3.547 10.348-8.137 13.564-10.181 6.85-20.28 9.932-28.586 12.789 6.225-2.023 10.817-3.716 14.87-5.391.739-.306 1.426-.598 2.07-.878 4.85-2.138 8.085-3.817 11.548-6.215 3.985-2.815 7.198-6.108 8.23-10.179 1.042-4.134-.538-7.773-1.964-10.238-3.06-4.986-6.045-7.733-8.874-10.859-1.511-1.626-3.169-3.4-4.798-5.38-2.905-3.564-6.001-8.032-6.101-13.266l-.005-.114a16 16 0 0 1-.093-1.652c-.044-5.526 2.692-11.42 5.923-17.306l.004-.007c.633-1.159 1.287-2.325 1.949-3.507 3.691-7.027 9.574-15.489 5.879-24.542a15 15 0 0 0-.942-1.788q-.366-.585-.806-1.23c-4.191-6.413-14.595-15.61-29.476-22.133a115 115 0 0 0-14.504-5.343c-4.921-1.434-10.858-2.864-18.482-3.815a123 123 0 0 0-3.952-.416c-7.894-.722-17.527-.751-27.411.031-4.87.378-9.801.933-14.634 1.617-14.593 2.085-27.734 5.08-40.608 8.701l-.007.003c-1.531.432-2.753.637-2.766.45-.002-.188 1.209-.697 2.743-1.13 12.906-3.623 26.035-6.604 40.617-8.682A235 235 0 0 1 177.75.583c9.962-.79 19.768-.76 27.775-.012 1.28.116 2.54.25 3.737.397 7.945.99 14.107 2.501 19.186 4.01a115 115 0 0 1 14.283 5.33c14.472 6.416 24.651 15.215 29.095 21.685.451.632.868 1.259 1.221 1.824.294.478.536.924.739 1.342 4.249 9.252-1.574 17.93-5.252 24.937-.652 1.17-1.304 2.328-1.939 3.477l-.003.007c-3.249 5.858-6.108 11.743-6.248 17.163q-.032 1.111.085 2.17l.008.173c.098 4.463 2.434 8.286 4.954 11.58 1.595 2.066 3.32 3.962 5.073 5.858 2.989 3.32 6.125 6.156 9.447 11.391 1.533 2.571 3.331 6.415 2.278 10.904-1.055 4.394-4.431 7.799-8.476 10.668M128.992 12.513c3.676-.904 6.665-1.625 8.898-2.165a337 337 0 0 0-8.898 2.165m131.175 60.171q.312-.865.663-1.719c-.667 1.561-1.255 3.17-1.691 4.825-.534 2.029-.837 4.143-.745 6.276-.132-3.402.721-6.595 1.773-9.382m12.793 59.464c4.306-3.056 7.967-7.081 7.953-11.972-.086-4.815-2.905-8.345-5.214-11.241-1.392-1.684-2.844-3.247-4.249-4.757q-.885-.946-1.771-1.889c3.351 3.741 6.538 7.232 8.498 10.568 3.217 4.944 2.473 10.25.249 13.099-2.08 2.939-4.555 4.694-6.722 6.166-1.454.959-2.515 1.575-3.947 2.364a74 74 0 0 1-3.418 1.859 103 103 0 0 1-5.239 2.478 142 142 0 0 1-5.366 2.229 195 195 0 0 1-5.442 2.035 243 243 0 0 1-5.103 1.756l-.3.1c-1.714.568-3.33 1.087-4.922 1.591-1.594.504-3.052.957-4.203 1.321-1.4.445-2.878.902-4.382 1.356q-2.258.682-4.625 1.364c-1.425.413-2.87.824-4.352 1.237l-1.468.406-.669.184a574 574 0 0 0 9.1-2.435c4.552-1.259 9.464-2.67 14.59-4.291 8.948-3.009 19.704-6.04 31.002-13.528m-100.238 28.905a230 230 0 0 0 7.605-.809 263 263 0 0 1-13.301 1.119q-4.285.252-8.575.376a309 309 0 0 1-17.197.017c-.915-.024-1.828-.051-2.75-.083 2.051.09 4.184.16 6.422.206 1.799.037 3.661.06 5.634.064q1.127.004 2.724-.003c4.207-.028 10.818-.125 19.438-.887m-57.136-.9a243 243 0 0 1-11.149-1.452q-.77-.117-1.525-.238c-.854-.136-1.705-.275-2.534-.416a261 261 0 0 0 17.626 2.453l.24.025q-1.37-.185-2.658-.372"/></svg>