<svg xmlns="http://www.w3.org/2000/svg" width="290" height="9" fill="none" viewBox="0 0 290 9"><path fill="#3784ff" d="M288.51 3.606c-.317.252-.838.484-1.236.721-1.68.974-2.354 1.202-3.947 1.84-1.088.426-3.175 1.19-5.215 1.585l.02-.005c-2.228.478-4.284.965-4.388.608q-.002-.01-.003-.02c-.011-.131.542-.435.591-.6s-.277-1.052.558-1.34c.625-.21 1.739-.461 2.766-.65l.014-.004c.924-.151 1.768-.343 2.073-.44.43-.138.933-.39 1.469-.6 1.72-.684 2.648-1.034 3.982-2.022a19 19 0 0 0 1.866-.73c.154-.123.331-.254.513-.387l-.192.228c.009-.014 0-.009-.012.062a.5.5 0 0 0 .066.329c.131.174.133.11.093.098a2 2 0 0 0-.429-.147 6 6 0 0 0-.853-.154c-.433-.033-.693.046-1.152.024-.524-.025-1.286-.163-2.255-.172-1.546-.012-1.848.241-2.747.262-.994.023-2.444-.12-3.714-.03l-.453.083.326.188c-.605.03-.878-.098-1.469-.098-.646 0-.993.123-1.455.125-.399.002-.86-.093-1.346-.083-.705.014-.552.154-.94.184-.124.01-2.943.116-3.072.12-1.18.019-1.34-.172-2.254-.177-2.685-.012-5.313.186-7.801.287-1.051.044-2.25.054-3.313.042 1.669-.525-2.065-.843-.653-.094-1.196-.088-2.11.138-3.216.124-.735-.009-1.249-.106-2.337-.082l-.143.004c-1.776.054-3.836.374-4.332-.154-2.174.142-4.139-.017-4.899.487-.562.041-2.044-.217-2.693-.242-.565-.025-5.253-.053-5.982-.044-.754.01-2.094.031-2.741.089-.79.07-1.33.588-2.775.03-1.675.086-2.259.082-3.798.049-.279-.006-.313-.093-.476-.09-.337.008-.91.086-1.516.108-1.006.036-1.552-.136-1.44.143l-1.943.187q-.345-.074-.691-.147l-1.047.202c.394-.417-2.041-.12-1.243.095q-1.882-.083-3.795-.164c.153-.467-2.761.01-2.512.257l-.433.01c-1.263-.094-2.448.034-3.973-.013-1.539-.046-1.398-.095-1.872-.297L199 3.254c-1.904.629-1.566-.391-4.824.134-1.064-.342-3.604-.089-5.312.063-.198.017-.2.089-.464.117-.651.068-2.289.015-2.229.244l-1.711-.16-1.397.16.012.214c-.95-.222-2.411-.093-3.14-.135-.145-.008-.178-.106-.629-.123-.526-.02-1.505.033-2.134.017q-.363.172-.723.346c-1.116.086-1.516-.194-2.173-.201-.118-.001-2.279.07-2.396.08-.954.07-.675.31-3.431.323-.491.001-.889-.075-1.333-.068-.785.013-3.14.261-3.322.444-.954-.201-3.495-.05-4.245-.098-.227-.014-.281-.156-.977-.17-.563-.012-2.011.136-2.725.134-.759-.004-1.032-.117-1.372-.118-.321 0-.615.103-1.053.113-1.366.028-2.606-.1-3.683-.078-1.559.032-2.936.35-4.237.506-.324-.011-.644-.065-.983-.058-4.208.086-8.948.14-13.165.171-1.961.015-6.833-.268-5.521.352-.682.129-5.627-.027-6.572-.012-.94.016-1.676.148-2.413.165-2.258.052-3.787 0-6.526.157-.704.04-1.452.193-1.865.2-.499.008-1.034-.115-1.679-.11-1.577.012-4.405.11-5.916.116-.272 0-.37-.115-.759-.144-1.517-.114-3.18-.071-2.878.297-1.974-.176-3.71.049-5.521.092a416 416 0 0 1-3.586.064c-3.688.055-7.943.104-10.4.253-2.061.128-2.028.296-5.08.191-.664-.023-1.357-.058-2.187-.086-1.922-.067-3.72-.356-5.173.032-2.16-.074-3.824.01-5.457-.295l-.561.234-.783.012-.244-.216c-1.903-.005-4.286.31-5.876.316-2.681.014-9.568-.087-12.109-.194-1.356-.056-1.395.1-2.188-.224l-.907.064-.559.208c-1.752-.005-3.768-.128-5.434-.144-2.994-.025-7.498.1-10.521-.105-.756-.05-1.688-.221-2.44-.242-1.067-.03-1.34.203-2.711.16a71 71 0 0 1-3.29-.216c-2.063-.17-4.288-.399-5.686-.495-.657-.044-.99.016-1.443-.018a29 29 0 0 1-2.43-.274 8 8 0 0 1-1.278-.301c-.242-.093-.508-.174-.866-.492a1.56 1.56 0 0 1-.46-.801 1.7 1.7 0 0 1 .042-.841c.144-.462.343-.735.526-.989C2.427.315 2.438.918 3.12.735c.512-.1 1.973-.463 2.252-.413.195.036-.139.482.111.497a55 55 0 0 1-2.117 1.534c-.289.201-.56.39-.815.583-.246.178-.507.443-.564.494-.013.003-.003-.046-.028-.144a.43.43 0 0 0-.11-.23c-.015-.01.018.015.074.04.11.054.286.111.467.158.375.097.788.167 1.209.227.842.12 1.707.2 2.583.27 1.755.138 3.495.228 5.269.309a57 57 0 0 0 .95.295c1.357.157 1.93-.038 2.664-.059 7.007-.176 20.78.315 28.521.35 1.647.012 7.046-.117 8.218.01.29.035.371.164.682.168 2.838-.092 5.597-.19 8.435-.292 5.768.15 11.735-.09 17.562-.204 3.206-.064 6.366-.131 9.597-.202 12.495-.278 24.905-.592 37.248-.833 3.006-.058 6.807-.238 9.728-.24 1.223-.002 1.741.194 3.348.003l.054.167c1.397-.099 2.289-.246 3.864-.295 1.334-.04 4.823-.128 6-.134.609-.003.385.107.951.093.967-.024 3.033-.215 4.371-.246 1.214-.028 3.255.045 4.187.006 3.354-.14 6.998-.403 10.577-.44.987-.009 2.259.097 2.567.086.604-.022.782-.158 1.188-.185 2.062-.134 5.271-.053 7.295-.095 6.583-.135 13.554-.357 20.108-.487 4.116-.082 11.036-.268 14.844-.257.829.002.612.152 1.305.136.768-.018 1.178-.125 1.534-.141 2.48-.113 7.987-.337 10.295-.289.45.01.783.115 1.053.108.136-.003.443-.087.869-.104 3.705-.153 6.484-.169 10.155-.22a826 826 0 0 0 8.589-.182c4.655-.115 9.478-.239 14.008-.259 1.592-.007 2.724.201 2.947.196.508-.011.767-.165 1.814-.215 3.354-.163 7.878-.04 11.039-.104 1.59-.032 3.747-.202 5.328-.195 1.34.074 3.843-.054 5.349.722.144.1.288.218.433.432.149.222.237.502.251.75.016.497-.101.71-.145.867-.06.115-.281.373-.383.453a1.5 1.5 0 0 1-.342.382m-41.231-1.028c.22-.265-2.092-.002-1.219.12.199.027 1.166-.052 1.219-.12M138.885 4.612l.068.22.907-.112-.514-.122z"/></svg>