<svg xmlns="http://www.w3.org/2000/svg" width="140" height="4" fill="none" viewBox="0 0 140 4"><path fill="#3784ff" d="M133.135.003c.167-.024.403.106.6.113.824.03 1.13.12 1.876.17 1.106.076 4.389-.094 4.389.807l-.001.027c-.011.171-.291.359-.332.553s-.01 1.448-.407 1.518c-.575.093-1.955-.228-2.261-.214-.21.01-.468.124-.736.144-.865.065-1.317-.018-2.096.292l-.934-.49c-.407.076-1.023-.14-1.27-.128-.203.01-.321.14-.532.145-.237.008-.601-.132-1.032-.11-.706.033-.832.37-1.255.412-.44.045-1.123-.138-1.684-.02l-.211.111.152.252c-.283.038-.404-.133-.664-.136-.305-.004-.461.159-.666.158-.168 0-.397-.131-.615-.123-.318.011-.248.2-.42.235-.068.013-1.331.117-1.402.119-.542.007-.589-.25-1.021-.273-1.199-.062-2.429.147-3.537.226a10 10 0 0 1-1.505-.021c.777-.66-.943-1.174-.3-.141-.549-.147-.938.132-1.459.084-.337-.03-.57-.174-1.05-.17-.854.008-1.787.415-2.032-.32-1.001.129-1.869-.138-2.23.511-.258.04-.92-.347-1.209-.4-.274-.049-2.376-.223-2.72-.233s-.945-.02-1.235.036c-.364.071-.618.744-1.266-.043-.753.064-1.021.041-1.722-.05-.126-.017-.141-.134-.215-.134-.152 0-.412.087-.684.097-.448.017-.704-.229-.654.147l-.886.189-.311-.217-.474.237c.186-.544-.925-.223-.565.089l-1.717-.338c.08-.618-1.257-.071-1.145.265l-.196-.002c-.574-.164-1.1-.03-1.8-.14-.698-.11-.633-.17-.845-.454l-.494.049c-.863.779-.71-.57-2.188.027-.473-.49-1.637-.232-2.409-.084-.09.018-.09.113-.21.142-.293.07-1.04-.052-1.014.255l-.775-.266-.633.167.003.287c-.425-.326-1.093-.2-1.422-.279-.066-.015-.08-.147-.284-.184-.238-.042-.682-.003-.966-.044l-.331.438c-.508.08-.686-.306-.984-.336a29 29 0 0 0-1.086.03c-.432.066-.31.395-1.56.324-.222-.013-.402-.126-.603-.131-.355-.008-1.425.25-1.51.488-.43-.298-1.583-.176-1.923-.262-.102-.027-.125-.217-.44-.257-.256-.033-.913.119-1.237.093-.344-.027-.467-.187-.62-.198-.146-.011-.28.118-.479.117-.619-.004-1.18-.212-1.669-.216-.707-.006-1.332.376-1.924.546-.147-.025-.292-.107-.446-.108a171 171 0 0 1-5.967-.164c-.888-.037-3.095-.556-2.506.309-.308.151-2.55-.197-2.977-.202-.426-.006-.764.15-1.1.152-1.011.006-1.723-.105-2.954.03-.319.035-.66.219-.848.216-.226-.003-.47-.18-.764-.191-.7-.026-2.006.032-2.678.002-.123-.006-.166-.162-.341-.21-.684-.191-1.45-.175-1.314.323-.876-.283-1.686-.025-2.498-.009-1.716.032-4.843-.084-6.338.125-.942.132-.918.356-2.306.163-.308-.043-.615-.1-.989-.152-.876-.12-1.68-.532-2.347-.035-.973-.129-1.748-.037-2.47-.463L29 3.581l-.358.008-.111-.292c-.855-.026-1.939.374-2.662.37-1.212-.004-4.336-.159-5.486-.29-.61-.07-.643.138-.992-.29l-.41.09-.257.28c-.783.005-1.712-.141-2.458-.14-1.36.003-3.401.261-4.766.092-.343-.043-.77-.236-1.106-.234-.488.003-.606.324-1.225.33-1.068.01-3.055-.363-4.064-.335-.3.009-.439.128-.646.14-.867.056-1.58.046-2.411.23-.893-.307-.816-.704-1.093-1.104-.21-.303-.853-1.003-.944-1.268C-.053.982.186.743.097.538c1.07-.163 1.519.017 2.388.305L7.298.808l.438.336c.616.13.878-.158 1.21-.224C12.127.295 18.389.784 21.89.855c.755.015 3.21-.136 3.728.046.134.047.172.22.314.227L29.756.82c2.621.268 5.33.047 7.971.006C44.872.714 51.945.578 58.973.619 60.33.628 62.054.5 63.384.582c.555.034.786.311 1.515.105l.023.223c.636-.09 1.043-.26 1.756-.276.6-.015 2.19-.026 2.72.003.276.014.173.153.43.153.44-.003 1.378-.195 1.985-.195.549 0 1.475.16 1.897.137 1.52-.083 3.177-.32 4.798-.257.448.018 1.024.199 1.164.194.274-.01.355-.186.54-.209.934-.114 2.39.095 3.306.103 2.985.027 6.146-.05 9.118-.017 1.877.02 4.997-.01 6.73.121.375.029.275.221.589.221.348 0 .536-.13.699-.14 1.126-.074 3.611-.205 4.673-.072.203.025.35.176.471.175.061 0 .2-.103.392-.113 1.701-.093 2.941-.033 4.607.002 3.192.067 6.889-.124 10.242-.021.73.023 1.231.32 1.334.317.225-.006.37-.206.826-.255 1.518-.163 3.562.05 5.006-.05.713-.05 1.693-.304 2.395-.36.561-.045 1.885.055 2.133-.057.151-.067.221-.284.402-.311m-18.886 3.373c.1-.346-.949-.059-.556.127.089.042.531-.037.556-.127m-49.147-.602.028.297.414-.123-.233-.179z"/></svg>