<svg xmlns="http://www.w3.org/2000/svg" width="13" height="13" fill="none" viewBox="0 0 13 13"><path fill="#3784ff" d="M5.96 6.142c.133-.05.185-.173.22-.319l-.023.022c.03-.216.001-.474.191-.613.314-.234.591-.085.843-.495.219-.357.622-.581.78-.789a.3.3 0 0 0 .056-.104c.08-.252.359.017.537-.249.183-.266.36-.341.645-.404.285-.064.982-.468 1.113-.77.13-.3.556-.3.751-.376a.5.5 0 0 1 .162-.035c.02-.001.042.013.058.033.02.023.03.054.016.07-.066.078-.148.21-.216.408-.125.367-.296.21-.578.568-.281.357-.364.69-.852.897-.455.2-.244.656-.778.885a2 2 0 0 1-.122.05c-.715.28-.288.741-.707 1.36-.178.263-.453.518-.753.736l-.031.03c-.384.24-.767.442-.945.626-.306.315-.692.764-1.203 1.128-.51.363-.937 1.035-1.539 1.4-.6.365-1.441.897-1.856 1.11s-.513.266-.791.61a1.4 1.4 0 0 1-.773.461c-.162.032-.205-.073-.127-.206.114-.194.28-.27.274-.445-.012-.35-.014-.487.298-.552.311-.065.168-.422.314-.498.147-.079.29.083.785-.596.494-.679.796-1.019.998-1.26.203-.242.807-.553 1.137-.948.33-.397 1.137-1.056 1.376-1.42s.399-.187.74-.315"/><path fill="#3784ff" d="M12.483 1.97c-.07.456.547.764.478 1.334-.078.56-.39.629-.357 1.246.03.623-.267 1.2-.182 1.485.085.289-.3.254-.283.642.015.39-.082.608-.274.902a2.4 2.4 0 0 0-.188.394l.004-.023c-.126.4-.175.976-.071 1.233.144.36-.125.77-.19 1.02a.7.7 0 0 1-.075.186c-.011.02-.037.03-.061.03-.031 0-.061-.015-.065-.04a1.8 1.8 0 0 0-.18-.53c-.203-.414.023-.455-.061-1.02-.051-.366-.143-.652-.13-.995l.007-.044c.02-.173.065-.354.16-.565.263-.601-.27-.843.181-1.666.435-.841-.156-1.006-.213-1.845-.056-.808.123-1.833-.022-2.337l.966.537-.07.023c-.65.2-1.36.353-2.167.367-.797.01-1.75.294-2.628.212-.878-.08-2.11-.199-2.679-.3s-.706-.124-1.247-.038a2.15 2.15 0 0 1-1.107-.14c-.182-.079-.14-.188.042-.24.268-.078.486-.03.623-.168.27-.276.383-.382.733-.232s.503-.216.705-.181c.202.033.209.25 1.226.038C6.373 1.04 6.93.956 7.313.89 7.695.82 8.518.939 9.135.807c.606-.125 1.931-.23 2.266-.45l.027-.02.777-.337.358.968c.199.487-.02.556-.08 1.003"/></svg>