<svg xmlns="http://www.w3.org/2000/svg" width="90" height="90" fill="none" viewBox="0 0 90 90"><g clip-path="url(#a)"><path fill="#d0e1ff" fill-opacity=".6" d="M0 24.457C0 10.95 10.95 0 24.457 0h41.086C79.05 0 90 10.95 90 24.457v41.086C90 79.05 79.05 90 65.543 90H24.456C10.95 90 0 79.05 0 65.543z"/><path fill="#3784ff" d="M33.337 41.018c-.337.012-.813-.053-1.21-.056-1.101-.01-1.744-.033-2.489-.055a1.993 1.993 0 0 1-1.962-1.999c.015-1.666 0-4.734.104-6.67.029-.891.672-1.44 1.12-1.583.468-.155.744-.047.739.018q0 .006-.003.013c-.017.043-.217.088-.393.19-.18.098-.32.246-.33.313.008.134.28.616.223.933a1 1 0 0 0-.007.116c.02 1.27-.12 3.736-.114 4.314.005.423.062.944.072 1.486.006.314.01.601.012.87.006.32.283.537.54.512a24 24 0 0 0 1.614-.107l1.887.245c.821-.038 2.065.07 2.564.064.409-.005.648-.07 1.075-.072.478-.004 1.212.066 2.082.055 1.426-.017 1.68-.185 2.535-.206.887-.023 2.267.069 3.399.01l.426-.056-.305-.126c.57-.019.815.067 1.339.068.616.002.931-.08 1.346-.079.34 0 .8.066 1.24.062.643-.006.503-.1.849-.118a423 423 0 0 1 2.831-.06c1.094-.003 1.19.126 2.062.137 2.42.031 4.904-.073 7.142-.113 1-.017 2.042-.01 3.038.011-1.57.33 1.904.587.605.07 1.11.074 1.895-.066 2.946-.042.68.015 1.15.087 2.122.085 1.722-.004 3.606-.207 4.101.16 2.022-.064 3.774.07 4.502-.255.522-.02 1.858.173 2.443.2.553.024 4.796.111 5.49.116.695.005 1.91.01 2.495-.018.734-.035 1.248-.372 2.555.022a51 51 0 0 1 3.477.025c.256.008.285.067.435.067.308 0 .832-.043 1.382-.049.904-.008 1.42.115 1.32-.073l1.789-.095.627.109.957-.118c-.375.271 1.869.11 1.141-.045l3.468.169c-.162.309 2.538.035 2.311-.133l.396.001c1.158.082 2.222.015 3.633.07s1.279.085 1.708.227l.997-.024c1.742-.39 1.434.285 4.419-.014.953.245 3.304.116 4.862.042.181-.009.184-.056.426-.07.59-.036 2.097.025 2.045-.128l1.565.133 1.279-.084-.006-.143c.858.163 2.207.1 2.872.14.133.007.161.073.573.091.481.021 1.377.002 1.95.023l.669-.22c1.025-.04 1.385.153 1.987.168.109.003 2.086-.01 2.193-.015.872-.033.625-.197 3.147-.162.449.007.813.063 1.219.066.717.004 2.878-.125 3.048-.244.87.149 3.198.088 3.883.131.207.013.254.108.89.129.516.016 1.843-.06 2.497-.047.694.014.942.093 1.253.099.294.005.565-.06.965-.059 1.25.002 2.382.106 3.37.108h.045c.366.007.621-.361.558-.64-.062-.731-.143-1.423-.19-2.095.012-.296.053-.588.054-.899.001-1.188.006-2.423.013-3.676a.444.444 0 0 0-.435-.445 1738 1738 0 0 1-6.627-.058c-1.791-.019-6.247-.278-5.058.154-.623.076-5.151-.098-6.012-.1s-1.543.074-2.22.075c-2.042.004-3.481-.052-5.966.015-.643.018-1.33.11-1.711.109-.458-.002-.951-.09-1.544-.096-1.414-.013-4.05.016-5.407 0-.247-.002-.334-.08-.689-.104-1.379-.096-2.926-.087-2.652.162-1.769-.142-3.405-.013-5.044-.005-3.465.016-9.777-.042-12.796.063-1.904.066-1.855.177-4.657.08-.623-.02-1.242-.05-1.996-.075-1.77-.06-3.392-.266-4.74-.017-1.964-.065-3.528-.02-4.986-.232l-.515.153-.723.004-.225-.146c-1.725-.013-3.914.187-5.375.185-2.448-.002-8.754-.08-11.076-.145-1.233-.035-1.3.07-2.005-.145l-.827.045-.517.14c-1.582.002-3.457-.07-4.964-.07-2.745.002-6.867.13-9.624.046-.691-.021-1.555-.118-2.232-.117-.985.002-1.225.162-2.475.165-2.155.005-6.167-.182-8.204-.167-.605.004-.887.064-1.305.07-1.751.027-3.189.022-4.868.115-1.804-.154-1.648-.352-2.207-.553-.423-.15-1.722-.501-1.906-.633-.13-.093.354-.213.172-.315 2.16-.082 3.068.008 4.823.152l9.719-.017.884.167c1.244.065 1.771-.079 2.442-.111 6.424-.313 19.067-.068 26.139-.033 1.524.007 6.481-.068 7.527.023.27.023.346.11.634.113l7.72-.153c5.291.134 10.762.023 16.094.002 14.425-.056 28.707-.123 42.897-.103 2.742.004 6.222-.06 8.907-.019 1.12.018 1.587.156 3.059.053l.046.112.09-.004a1.71 1.71 0 0 1 1.746 1.66c.025.509.045 1.043.049 1.71.007 1.05.011 3.601.003 4.96 0 .337-.098.624-.206.826-.223.392-.372.452-.476.526-.116.061-.21.147-.588.282-.152.05-.331.085-.528.087-.971.018-2.577.093-3.659.093-1.109 0-2.979-.08-3.832-.068-3.07.041-6.415.16-9.687.128-.904-.009-2.067-.1-2.35-.097-.553.005-.718.093-1.089.104-1.887.057-4.828-.047-6.677-.05-6.026-.014-12.41.024-18.41.008-3.791-.01-10.091.005-13.591-.06-.754-.015-.553-.111-1.187-.111-.703 0-1.083.065-1.411.07-2.273.037-7.291.102-9.437.036-.409-.013-.705-.088-.95-.088-.124 0-.404.052-.792.057-3.434.046-5.938.016-9.302-.001-6.444-.034-13.91.062-20.68.01-1.474-.011-2.485-.16-2.693-.158-.455.003-.746.103-1.668.127-3.065.082-7.192-.025-10.107.025-1.44.025-3.42.152-4.837.18-1.131.023-3.805-.027-4.306.029-.306.033-.447.142-.812.155m38.133-1.686c-.202.173 1.917.029 1.122-.064-.179-.02-1.07.019-1.122.064m89.52-7.797a1 1 0 0 1-.007.152.6.6 0 0 1 .384.233.66.66 0 0 0-.127-.271.7.7 0 0 0-.25-.114M27.528 47.118c-.012-.08.053-.193.057-.287.015-.395.06-.541.085-.898.007-.092.01-.215.012-.355-.022-.594.394-1.347.95-1.607.553-.283 1.025-.137 1.006.042v.013c-.012.084-.177.188-.182.29-.004.1.08.716.02.772-.051.04-.155.061-.254.123-.099.059-.176.155-.183.195-.01.05.026.116.043.172l.005.043c.033.413-.009.63.146 1.003l-.245.447c.038.195-.07.49-.063.608.005.097.069.154.072.255.004.113-.066.287-.055.493.016.338.185.398.206.601.022.21-.07.538-.01.806l.055.101.126-.072c.02.135-.066.193-.068.317-.002.146.08.221.08.32-.001.08-.066.19-.062.294.005.152.1.119.117.2.007.033.06.638.06.672.003.26-.125.282-.137.489l-.004.093c-.017.185.218.257.304.214l.03-.005c.19-.007.386.001.573.018-.372.33.452.587.144.07.263.074.449-.066.698-.042.161.015.273.087.503.085.408-.004.855-.207.973.16.479-.064.894.07 1.067-.256.123-.02.44.174.579.2.131.025 1.137.112 1.302.117.164.005.452.01.59-.018.175-.035.297-.372.607.022.36-.032.489-.021.824.025.06.008.067.066.103.066.073 0 .197-.043.328-.048.214-.009.337.114.313-.073l.424-.095.148.109.227-.119c-.089.272.443.112.27-.044l.823.168c-.038.31.602.036.548-.132h.094c.274.083.526.016.861.07.335.056.303.086.405.228l.236-.024c.413-.39.34.285 1.048-.014.226.245.783.116 1.153.042.043-.009.043-.056.1-.07.14-.036.498.025.485-.128l.371.133.303-.084-.001-.144c.203.164.523.1.681.14.031.008.038.074.136.092.114.021.326.002.462.022l.159-.22c.243-.039.328.154.47.17.027.002.495-.012.52-.016.207-.033.149-.197.747-.162.106.006.192.063.289.066.17.004.682-.125.722-.245.207.15.758.089.921.132.049.013.06.108.21.128.123.017.438-.06.593-.047.164.014.223.094.297.1.07.005.134-.06.229-.059.296.002.565.106.799.108h.01c.213-.004.28-.271.269-.39.024-.007.073-.003.089-.027a.44.44 0 0 0 .072-.223c.013-.741.042-1.522.074-2.234.018-.425.277-1.481-.155-1.2-.076-.147.099-1.22.101-1.425.003-.204-.075-.366-.076-.526-.003-.448.045-.773-.002-1.285a.2.2 0 0 0-.015-.043c-.024-.051-.127-.057-.134-.072-.008-.02.047-.098.016-.136-.044-.055-.145-.097-.239-.091-.166.002-.32.002-.436-.003-.059-.003-.08-.081-.163-.106-.328-.095-.694-.087-.63.162-.418-.141-.806-.012-1.195-.004-.821.016-2.318-.042-3.034.062-.45.066-.44.178-1.104.082-.147-.022-.294-.05-.473-.076-.42-.06-.804-.266-1.123-.018-.466-.064-.837-.018-1.183-.231l-.122.153-.171.004-.053-.146c-.41-.013-.928.187-1.274.185-.581-.002-2.076-.08-2.626-.145-.293-.035-.308.069-.476-.145l-.196.045-.122.14c-.375.002-.82-.07-1.177-.07-.651.002-1.628.13-2.282.046-.164-.022-.368-.118-.529-.117-.234.001-.29.162-.587.165-.51.005-1.462-.182-1.945-.168-.143.005-.21.064-.309.07-.415.028-.756.023-1.154.115-.428-.153-.39-.352-.523-.552-.1-.151-.409-.501-.452-.634-.03-.093.084-.212.04-.314.513-.082.728.008 1.144.152l2.304-.017.21.167c.295.065.42-.079.579-.112 1.523-.312 4.52-.068 6.196-.032.362.007 1.537-.068 1.785.023.064.023.082.11.15.113l1.83-.154c1.255.134 2.552.024 3.816.003 1.77-.029 3.532-.06 5.285-.082.951-.03 1.817.823 1.799 1.781q.013 1.572.003 3.138c-.004.65.06 1.475.02 2.111-.018.266-.157.377-.053.726l-.112.01c.038.255.103.433.129.685a1.3 1.3 0 0 1-.008.25 1.751 1.751 0 0 1-1.319 1.483c-.21.041-.144-.041-.332-.02l-.127.008c-.23.018-.61.093-.867.093-.263 0-.706-.08-.908-.068-.728.04-1.521.16-2.297.128-.215-.01-.49-.1-.557-.097-.131.005-.17.093-.258.104-.448.057-1.145-.047-1.583-.051-1.429-.014-2.942.025-4.365.009-.899-.01-2.392.005-3.222-.061-.179-.014-.131-.11-.281-.11-.167 0-.257.065-.335.07-.539.037-1.728.102-2.237.036-.097-.013-.167-.088-.225-.088-.03 0-.096.051-.188.057-.814.046-1.408.016-2.205-.001-1.19-.026-2.526.026-3.816.026a1.74 1.74 0 0 1-1.453-.787c-.304-.486-.133-.895-.14-.95l-.003-.031c-.014-.097-.103-.17-.126-.374-.081-.727.026-1.705-.025-2.396-.024-.342-.151-.81-.18-1.147-.022-.268.028-.902-.028-1.02-.034-.073-.142-.107-.156-.193m4.274 5.554c-.048.173.455.029.266-.064-.042-.021-.253.019-.266.064m21.906-1.023-.149.014.062.198.09-.111zM66.437 74.779c-.013-.104.052-.25.056-.373.015-.512.06-.702.085-1.166.013-.223.012-.59.02-.982-.01-.728.512-1.42 1.038-1.626.532-.227.924-.083.91.06v.014c-.015.082-.23.194-.235.299-.005.101.103.71.028.78-.114.064-.398.273-.41.473a1 1 0 0 0-.005.12c.004.13.061.29.072.457.032.537-.01.819.145 1.303l-.244.58c.037.253-.07.636-.064.79.005.126.07.2.072.33.004.148-.066.374-.055.642.017.439.185.517.206.78.022.273-.07.698-.01 1.046l.056.132.125-.094c.02.175-.066.25-.068.412 0 .067.01.123.022.172.024.031.06.046.065.068.005.025-.042.09-.013.129.043.052.108-.022.137-.016.013.017.16.03.177.012h.01c.337-.004.367.125.635.136.745.031 1.51-.073 2.199-.113.307-.017.629-.01.935.011-.483.33.587.587.187.07.34.074.583-.066.907-.042.209.015.354.087.653.085.53-.004 1.11-.207 1.262.16.623-.064 1.162.07 1.386-.255.16-.02.572.173.752.2.17.024 1.477.111 1.69.116.214.005.588.01.769-.018.226-.035.384-.372.786.022.468-.032.635-.02 1.07.025.08.008.088.067.134.067.095 0 .257-.043.426-.049.278-.008.437.115.406-.073l.551-.095.193.109.295-.118c-.116.271.575.11.351-.045l1.068.169c-.05.309.781.035.711-.133l.122.001c.357.082.684.015 1.119.07s.393.085.525.227l.307-.024c.537-.39.442.285 1.36-.014.294.245 1.018.116 1.498.042.055-.009.056-.056.13-.07.182-.036.646.025.63-.128l.482.133.394-.084-.002-.143c.264.163.68.1.884.14.04.007.05.073.176.091.148.021.424.002.601.023l.206-.22c.315-.04.426.153.612.168.033.003.642-.01.674-.015.269-.033.193-.197.97-.162.138.007.25.063.375.066.22.004.886-.125.938-.244.268.149.984.088 1.196.131.063.013.078.108.273.129.16.016.568-.06.769-.047.214.013.29.093.386.099.091.005.174-.06.297-.059.385.002.733.106 1.038.108h.014c.276-.005.353-.329.321-.462.025-.02.076-.034.086-.07a.5.5 0 0 0 .016-.108c.009-1.11.042-2.33.08-3.422.018-.552.277-1.924-.155-1.558-.065-.166.057-1.235.092-1.69a.2.2 0 0 0 .005-.066c-.016-.111-.128-.145-.174-.191a.4.4 0 0 0-.271-.134c-.275-.004-.568 0-.935.032-.198.018-.41.11-.527.109-.141-.002-.292-.09-.475-.096-.435-.013-1.247.016-1.665 0-.076-.002-.103-.08-.212-.105-.424-.095-.9-.087-.816.162-.545-.14-1.048-.012-1.553-.004-1.067.016-3.01-.042-3.94.063-.585.066-.57.177-1.433.08-.192-.02-.382-.05-.615-.075-.544-.06-1.044-.266-1.459-.017-.605-.065-1.086-.02-1.535-.232l-.159.153-.222.004-.07-.146c-.53-.013-1.204.187-1.654.185-.754-.002-2.695-.08-3.41-.145-.38-.035-.4.07-.617-.145l-.255.045-.16.14c-.486.002-1.063-.07-1.527-.07-.845.002-2.114.13-2.963.046-.213-.021-.479-.118-.687-.117-.303.002-.377.162-.762.165-.663.005-1.899-.181-2.526-.167-.186.004-.273.064-.401.07-.54.027-.982.022-1.5.115-.554-.154-.506-.353-.678-.553-.13-.15-.53-.501-.587-.633-.04-.093.109-.213.053-.315.665-.082.944.008 1.484.152l2.992-.017.273.167c.383.065.545-.079.752-.111 1.977-.313 5.87-.068 8.046-.033.47.007 1.996-.068 2.318.023.083.023.106.11.195.113l2.376-.153c1.63.133 3.314.023 4.955.002 3.322-.041 6.62-.09 9.899-.103.961-.025 1.828.84 1.805 1.802q0 .782-.004 1.562c-.004.844.061 1.915.019 2.742-.017.345-.155.489-.052.942l-.112.014c.045.395.13.648.138 1.091l.005.32c.009.364-.136.822-.402 1.137-.26.323-.608.495-.806.555-.267.073-.184-.018-.427.016q-.074.008-.164.012c-.299.018-.794.093-1.127.093-.342 0-.917-.08-1.18-.068-.945.041-1.975.16-2.982.128-.278-.009-.636-.1-.724-.097-.17.005-.22.093-.335.105-.58.056-1.486-.048-2.055-.052-1.856-.013-3.82.025-5.668.009-1.167-.01-3.106.005-4.184-.06-.232-.015-.17-.111-.365-.111-.217 0-.334.065-.435.07-.7.037-2.245.102-2.905.036-.126-.013-.217-.088-.293-.088-.038 0-.124.052-.244.057-1.057.046-1.827.016-2.863-.001-1.984-.034-4.283.062-6.367.01-.454-.011-.765-.16-.829-.158-.14.003-.23.103-.513.127q-.137.011-.281.02c-.873.067-1.786-.802-1.737-1.74a16 16 0 0 0-.01-1.085c-.024-.444-.151-1.053-.18-1.49-.022-.348.028-1.17-.028-1.325-.034-.094-.142-.138-.156-.25m7.954 4.573c-.062.173.59.029.346-.064-.056-.02-.33.019-.346.064m28.23-1.723-.148.018.061.257.09-.144zM32.356 67.698c-.314.012-.755-.053-1.125-.056a73 73 0 0 1-1.593-.032c-.98-.02-1.95-.751-1.971-2.022l.003-.181c.025-1.367-.004-4.506.103-6.49.028-.888.67-1.443 1.12-1.586.472-.157.751-.047.745.021q0 .008-.002.014c-.015.042-.201.088-.366.182-.167.091-.301.226-.311.29.004.13.268.627.19.916a.7.7 0 0 0-.018.164c.008 1.21-.122 3.366-.116 3.885.005.393.062.877.072 1.38.011.536.014.988.018 1.405.002.292.267.522.534.474.244-.017.501-.04.78-.069l1.754.245c.763-.038 1.919.07 2.382.064.38-.005.603-.07.999-.073.444-.003 1.127.066 1.935.056 1.325-.017 1.56-.185 2.355-.207.825-.022 2.107.07 3.159.01l.395-.055-.283-.126c.53-.02.758.067 1.244.068.573.002.865-.08 1.25-.079.317 0 .745.066 1.154.061.597-.005.467-.1.788-.117.128-.007 2.497-.059 2.631-.06 1.017-.003 1.105.126 1.916.137 2.248.03 4.556-.073 6.636-.113.929-.017 1.898-.01 2.824.01-1.459.33 1.769.587.562.071 1.03.073 1.76-.066 2.737-.042.632.015 1.07.087 1.971.085 1.6-.004 3.351-.207 3.812.16 1.879-.064 3.506.069 4.183-.256.485-.02 1.726.174 2.27.2.514.025 4.457.112 5.102.117s1.774.01 2.317-.018c.683-.035 1.16-.372 2.375.021a44 44 0 0 1 3.23.026c.239.008.265.066.404.066.287 0 .774-.043 1.285-.048.84-.009 1.32.114 1.226-.074l1.663-.094.583.109.889-.119c-.348.272 1.737.112 1.06-.044l3.222.168c-.15.31 2.359.036 2.147-.132h.369c1.076.083 2.064.016 3.376.07 1.311.056 1.188.086 1.587.228l.926-.024c1.619-.39 1.333.285 4.106-.014.886.245 3.07.116 4.518.042.169-.009.172-.056.396-.071.549-.035 1.949.026 1.901-.127l1.454.132 1.188-.083-.006-.144c.798.163 2.051.1 2.669.14.123.008.15.074.532.092.447.021 1.28.001 1.813.022l.621-.22c.953-.039 1.288.154 1.847.17.101.002 1.938-.012 2.037-.016.81-.033.581-.197 2.925-.162.417.006.755.063 1.132.065.666.005 2.675-.124 2.833-.244.808.15 2.971.088 3.608.132.192.013.236.108.827.128.479.017 1.712-.06 2.32-.047.645.014.875.094 1.164.1.273.005.525-.06.897-.06 1.162.003 2.213.107 3.131.109h.043c.368.007.615-.369.546-.64-.06-.634-.134-1.237-.179-1.823.012-.276.053-.547.054-.836.002-1.291.008-2.643.016-4.011a.45.45 0 0 0-.437-.45c-1.85-.015-3.697-.034-5.439-.053-1.665-.02-5.806-.278-4.7.154-.579.076-4.786-.099-5.587-.101-.8-.003-1.434.075-2.063.076-1.897.003-3.234-.052-5.544.015-.596.018-1.236.11-1.589.108-.425-.001-.883-.09-1.435-.096-1.314-.012-3.763.017-5.024.002-.23-.004-.311-.081-.64-.106-1.282-.095-2.719-.087-2.465.162-1.643-.141-3.163-.012-4.686-.004-3.22.016-9.086-.042-11.891.062-1.769.066-1.724.178-4.328.082-.578-.022-1.153-.05-1.854-.076-1.644-.06-3.151-.266-4.404-.018-1.825-.064-3.28-.019-4.633-.231l-.48.153-.67.004-.21-.146c-1.603-.013-3.637.187-4.994.185-2.275-.002-8.135-.08-10.293-.145-1.145-.035-1.207.069-1.862-.145l-.769.044-.48.141c-1.47.002-3.213-.07-4.613-.07-2.55.001-6.381.13-8.943.046-.642-.022-1.445-.118-2.074-.117-.915.001-1.138.162-2.3.165-2.002.005-5.73-.182-7.623-.168-.562.005-.824.064-1.212.07-1.628.028-2.964.023-4.524.115-1.676-.153-1.53-.352-2.05-.552-.394-.151-1.6-.501-1.772-.634-.12-.093.33-.212.16-.315 2.008-.081 2.851.009 4.482.153l9.03-.018.822.168c1.156.065 1.646-.08 2.27-.112 5.969-.312 17.717-.068 24.288-.032 1.416.007 6.022-.068 6.994.023.252.023.322.11.59.113l7.172-.154c4.918.134 10 .024 14.955.003 13.405-.056 26.676-.124 39.861-.103 2.548.004 5.782-.06 8.276-.019.874.014 1.32.114 2.251.085.274-.006.589.05.898.213q.001.066-.002.13c.52.317.798.862.815 1.393.039.67.078 1.302.083 2.184.006.945.011 3.198.004 4.486 0 .399-.137.731-.275.947-.235.346-.374.395-.476.457-.11.052-.202.124-.556.241a1.8 1.8 0 0 1-.491.076c-.903.018-2.396.093-3.401.093-1.031 0-2.768-.08-3.56-.069-2.854.042-5.962.16-9.002.129-.84-.01-1.921-.1-2.184-.097-.513.005-.666.093-1.012.104-1.753.057-4.486-.047-6.204-.051-5.6-.014-11.532.025-17.107.008-3.523-.01-9.376.006-12.628-.06-.702-.014-.515-.11-1.103-.11-.653 0-1.007.064-1.312.07-2.112.036-6.775.102-8.769.036-.38-.013-.655-.088-.882-.088-.115 0-.375.051-.737.056-3.19.047-5.517.017-8.643 0-5.988-.034-12.925.062-19.215.01-1.37-.011-2.31-.16-2.503-.159-.423.003-.694.103-1.55.128-2.848.082-6.683-.025-9.392.025-1.338.025-3.177.152-4.494.18-1.052.022-3.536-.027-4.002.028-.284.034-.415.142-.755.156m35.433-1.687c-.187.174 1.782.03 1.043-.063-.166-.021-.994.019-1.043.063m83.576-7.558q-.045.061-.096.118a.6.6 0 0 1 .174.347l.004.055.012-.055a.7.7 0 0 0 .036-.244.7.7 0 0 0-.13-.22"/><path fill="#3784ff" d="M11.964 30.828c-.012-.57.053-1.375.057-2.047.015-2.817.06-3.861.085-6.41l.007-1.026c-.132-2.44 1.49-6.314 4.29-8.014 2.723-1.82 5.51-1.516 5.453-1.333l-.003.014c-.047.073-1.026.22-1.153.35-.123.13.03.666-1.172 1.016-.875.26-2.323.91-3.398 1.909-1.1.972-1.77 2.194-1.958 2.647-.273.62-.471 1.436-.574 2.287a9 9 0 0 0-.064 1.124c.014 2.222.003 3.682.135 5.958l-.245 3.193c.038 1.389-.07 3.493-.063 4.337.005.692.069 1.098.072 1.82.004.808-.066 2.05-.055 3.523.017 2.412.185 2.842.206 4.29.022 1.5-.07 3.835-.01 5.75l.056.721.125-.516c.02.965-.066 1.38-.068 2.266-.002 1.043.08 1.575.08 2.277-.001.575-.066 1.355-.062 2.1.005 1.087.1.85.117 1.434.007.234.06 4.548.06 4.792.004 1.851-.125 2.012-.137 3.488-.03 4.095.074 8.298.113 12.085.018 1.691.01 3.456-.01 5.142-.33-2.656-.587 3.222-.07 1.023-.074 1.876.065 3.207.042 4.985-.016 1.15-.087 1.947-.085 3.59.003 2.914.207 6.102-.161 6.94.02 1.081.021 2.116.023 3.065-.003 1.925.696 3.389 1.26 3.932.346.711 1.593 2.393 2.394 2.885.357.303 2.424 1.52 4.605 1.484 1.803.021 3.489.04 4.007.042 1.175.005 3.23.01 4.22-.019 1.243-.035 2.112-.372 4.324.022 2.573-.032 3.49-.02 5.883.025.433.009.482.067.735.067.522 0 1.409-.043 2.34-.048 1.53-.009 2.403.114 2.233-.074l3.027-.094 1.062.108 1.618-.118c-.633.272 3.163.111 1.93-.045l5.869.169c-.273.309 4.294.036 3.91-.132h.671c1.96.082 3.759.015 6.147.07s2.164.086 2.89.228l1.687-.025c2.948-.389 2.427.285 7.477-.014 1.613.245 5.59.117 8.227.042.307-.008.312-.056.72-.07 1-.036 3.55.025 3.462-.128l2.647.133 2.165-.083-.011-.144c1.452.163 3.734.1 4.86.139.224.008.273.074.969.092.814.022 2.331.002 3.301.023l1.131-.22c1.735-.039 2.344.154 3.363.169.183.002 3.529-.011 3.709-.016 1.476-.032 1.058-.197 5.326-.161.761.006 1.375.063 2.062.065 1.214.004 4.871-.125 5.159-.244 1.471.149 5.41.088 6.57.131.35.014.429.109 1.505.129.873.016 3.12-.06 4.226-.047 1.175.014 1.594.094 2.12.099.497.006.956-.059 1.633-.058 2.115.002 4.031.106 5.702.107h.077c2.287-.004 4.147-1.076 5.439-2.353.35-.298.694-.601.996-.982a8.22 8.22 0 0 0 1.78-5.086c.015-4.833.041-9.838.07-14.44.018-3.031.277-10.571-.155-8.559-.076-1.053.099-8.715.101-10.172s-.075-2.612-.076-3.757c-.003-3.456.053-5.889-.015-10.095-.017-1.087-.109-2.25-.108-2.894.001-.775.09-1.61.096-2.613.013-2.393-.017-6.853-.001-9.149.003-.419.081-.566.105-1.166.095-2.334.087-4.951-.162-4.488.141-2.993.012-5.76.005-8.534-.005-1.784-.003-4.013-.001-6.396.244-4.657-4.732-8.42-8.074-8.034q-.69.01-1.287.022c-3.221.066-3.138.177-7.88.081-1.053-.021-2.101-.05-3.378-.076-2.992-.06-5.738-.266-8.019-.017-3.324-.065-5.971-.02-8.437-.232l-.872.153-1.222.004-.382-.146c-2.919-.013-6.623.187-9.094.186-4.143-.003-14.814-.08-18.742-.146-2.086-.035-2.198.07-3.392-.145l-1.4.045-.875.14c-2.676.002-5.85-.07-8.4-.07-4.644.002-11.62.13-16.284.046-1.17-.021-2.632-.118-3.777-.117-1.667.002-2.072.162-4.187.165-3.646.005-10.436-.181-13.882-.167-1.023.004-1.501.064-2.208.07-2.963.027-5.396.023-8.238.115-3.051-.154-2.788-.352-3.733-.553-.717-.15-2.914-.5-3.226-.633-.22-.093.599-.213.292-.315 3.656-.082 5.191.008 8.16.152l16.445-.017 1.496.168c2.105.064 2.998-.08 4.133-.112 10.87-.313 32.263-.068 44.229-.033 2.578.008 10.966-.068 12.735.023.458.024.586.11 1.073.114l13.063-.154c8.953.134 18.21.023 27.232.002h.057c5.06-.132 9.625 4.423 9.513 9.48.046 19.653.087 39.157.07 58.56-.004 4.64.061 10.528.019 15.07-.017 1.896-.155 2.686-.052 5.177l-.112.078c.026 1.273.066 2.276.097 3.379a8.8 8.8 0 0 1-.369 2.782c-.291 1.059-1.189 2.94-2.679 4.272-1.453 1.374-3.345 2.076-4.294 2.268-.994.195-.635.067-1.566.156q-.28.02-.627.024c-1.643.019-4.362.094-6.193.094-1.876 0-5.04-.08-6.483-.069-5.196.041-10.855.16-16.392.128-1.53-.009-3.497-.099-3.976-.096-.936.005-1.214.093-1.843.104-3.192.057-8.169-.047-11.298-.052-10.197-.013-20.999.025-31.151.009-6.415-.01-17.074.005-22.996-.061-1.277-.014-.937-.11-2.01-.11-1.188 0-1.832.065-2.387.07-3.846.037-12.337.103-15.968.036-.691-.012-1.193-.088-1.607-.087-.21 0-.683.051-1.341.056-1.903.015-3.637.022-5.308.024-3.667-.005-7.154-2.07-8.781-5.857a9.6 9.6 0 0 1-.735-3.691c.008-10.042-.064-21.218-.018-31.452.012-2.496.16-4.207.16-4.558-.004-.77-.104-1.263-.129-2.823-.081-5.186.026-12.17-.024-17.102-.025-2.437-.152-5.785-.18-8.184-.023-1.915.027-6.438-.029-7.287-.034-.516-.142-.755-.156-1.374m1.687 64.524c-.173-.341-.03 3.245.064 1.9.02-.303-.02-1.812-.064-1.9m145.664 5.49-.149.099.062 1.412.089-.793z"/></g><defs><clipPath id="a"><path fill="#fff" d="M0 24.457C0 10.95 10.95 0 24.457 0h41.086C79.05 0 90 10.95 90 24.457v41.086C90 79.05 79.05 90 65.543 90H24.456C10.95 90 0 79.05 0 65.543z"/></clipPath></defs></svg>