<svg xmlns="http://www.w3.org/2000/svg" width="90" height="90" fill="none" viewBox="0 0 90 90"><path fill="#d0e1ff" fill-opacity=".6" d="M0 24.457C0 10.95 10.95 0 24.457 0h41.086C79.05 0 90 10.95 90 24.457v41.086C90 79.05 79.05 90 65.543 90H24.456C10.95 90 0 79.05 0 65.543z"/><path fill="#3784ff" d="M41.614 26.276c.045-.179.187-.405.257-.61.27-.785.416-1.109.651-1.749q.045-.127.106-.262c.228-.835 1.914-2.105 3.385-1.56.715.21 1.247.737 1.462 1.172.224.442.206.745.104.777l-.013.003c-.082.005-.303-.286-.416-.277-.11.01-.641.295-.847.096-.153-.152-.44-.396-.804-.486-.359-.1-.726-.031-.84.023-.162.07-.312.229-.447.385-.165.19-.258.381-.317.575a8 8 0 0 0-.308 1.359l-.551.903c-.103.438-.415 1.05-.493 1.31-.064.214-.044.358-.112.58-.078.25-.268.61-.404 1.063-.224.745-.107.93-.231 1.38-.129.467-.448 1.154-.583 1.76l-.019.238.171-.12c-.077.302-.2.403-.29.674-.106.32-.082.508-.152.723-.057.176-.197.395-.267.625-.103.335.01.291-.032.476l-.053.194c-.076.28-.276.706-.538 1.014-.255.313-.543.508-.58.533-.755.439-.9.301-1.548.348h-.062c-1.306-.028-2.644.075-3.852.113-.545.018-1.114.01-1.657-.01.856-.33-1.039-.587-.33-.07-.605-.074-1.034.065-1.607.042-.371-.015-.628-.087-1.157-.085-.94.004-1.968.207-2.238-.16-.28.016-.55.02-.804.021-.539-.004-.901.3-.83.587-.097.102-.471.44-.5.677-.057.121-.03.883.495 1.252.346.27.639.498.745.578.304.226.837.62 1.112.785.345.206.769.099 1.115.837.69.461.922.644 1.52 1.135.107.088.086.145.152.193.136.099.392.232.638.404.405.283.56.548.626.364l.845.497.213.29.492.21c-.325.1.76.69.53.33l1.42 1.24.014.01c-.133.096.204.334.481.651.288.306.51.701.567.6q.044.138.072.281c.044.46.02.901-.123 1.344-.091.28-.187.578-.32.904-.29.716-.297.638-.504.816l-.145.525c.077 1.024-.513.656-.732 2.297-.393.419-.667 1.678-.86 2.51-.022.096.023.112-.004.242-.066.317-.378 1.08-.223 1.1l-.39.771-.137.69.138.04c-.228.301-.38.79-.505 1.153q-.043.131-.071.225c-.015.05-.09.052-.113.226-.034.204.074.573.192.79q.169.064.335.087c.283.243.324.462.559.57.02.009.23.076.444.074.214.005.419-.06.439-.069.206-.091.215-.174.395-.347.15-.14.386-.33.807-.619.202-.139.395-.21.576-.338.319-.226 1.197-1.024 1.202-1.175.471-.158 1.463-.954 1.79-1.138.1-.056.176.006.469-.182.237-.152.778-.639 1.074-.838.315-.212.471-.227.612-.322.133-.09.214-.229.391-.357.553-.399 1.114-.678 1.55-.993.371-.267.677-.57.963-.865.272-.26.6-.463.955-.575.221-.034.44-.014.667-.006a2.68 2.68 0 0 1 1.488.518c1.43 1.055 2.942 2.19 4.31 3.225.78.59 2.594 2.228 2.323 1.497.32.139 2.215 1.731 2.594 2.01q.093.067.183.127c.224.14.431.155.615.181.637.08 1.382-.308 1.419-1.15 0-.175-.095-.347-.159-.465a1 1 0 0 1-.051-.13c-.076-.237-.075-.52-.17-.83-.225-.738-.698-2.096-.912-2.805-.039-.129.02-.198-.016-.39-.142-.745-.41-1.545-.6-1.326-.165-.961-.563-1.77-.847-2.618-.266-.795-.612-1.886-.968-2.987-.408-1.183.129-2.54 1.013-3.162.404-.306.763-.585 1.046-.82.801-.663.714-.738 2.007-1.558.287-.182.578-.358.926-.579.816-.518 1.653-.872 2.102-1.505.904-.578 1.568-1.117 2.336-1.412l.138-.289.316-.235.186.046q.229-.163.464-.355c.467-.385.45-.982.351-1.343-.066-.354-.435-.937-1.137-.946-1.3-.029-2.655-.068-3.352-.104-.672-.035-.708.069-1.093-.145l-.451.044-.283.141c-.862.002-1.886-.07-2.707-.07-1.055 0-2.482.065-3.759.074a2.6 2.6 0 0 1-1.835-.746c-.305-.3-.528-.772-.632-1.185a3 3 0 0 0-.054-.189c-.168-.51-.36-.585-.574-1.233-.368-1.116-.867-3.256-1.224-4.308-.106-.312-.21-.44-.287-.655-.321-.9-.559-1.648-.93-2.49-.157-.984.057-.964.154-1.316.072-.266.186-1.048.281-1.185.067-.096.262.118.329-.008.442 1.096.509 1.595.668 2.55l1.655 5.036-.01.51h-.001c.148.666.374.895.518 1.233.208.488.427 1.052.654 1.672.18.492.7.898 1.288.886 3.388-.02 7.36.099 9.954.123.341.003.997-.008 1.691-.016 1.371-.094 2.37 1.273 2.382 1.677.041.184-.027.256.01.442.228.89-.147 1.95-.911 2.507l-1.524 1.194c-2.414 1.589-4.763 3.433-7.104 5.159l-.75.552a1.41 1.41 0 0 0-.492 1.567c1.231 3.699 2.457 7.381 3.665 11.053.92 2.307-2.22 4.592-4.135 3.008q-1.326-.962-2.647-1.927c-1.207-.883-2.781-1.946-3.941-2.84-.485-.374-.61-.636-1.32-1.024l.045-.106c-.563-.356-.963-.55-1.55-.957l-.065-.042c-.258-.217-1.075-.3-1.481.047-.2.145-.373.267-.49.347-.249.173-.199.05-.427.216-.39.286-1.17.971-1.711 1.364-.49.356-1.362.89-1.731 1.173-1.331 1.018-2.737 2.187-4.2 3.21-.277.193-.63.395-.864.532-.14.088-.253.142-.31.174-.348.188-.445.301-.72.377-.703.194-1.702-.017-2.362-.633-.684-.594-.971-1.548-.906-2.232q.024-.361.136-.697c.974-2.975 1.958-6.11 2.93-9.05l.663-2.027c.175-.497-.02-1.124-.459-1.436a109 109 0 0 1-2.211-1.665c-.325-.253-.18-.267-.46-.47-.31-.225-.516-.294-.664-.395-1.024-.7-3.277-2.255-4.185-2.997-.173-.141-.26-.297-.368-.376-.055-.04-.208-.088-.383-.208a80 80 0 0 1-1.115-.782c-1.38-.94-1.496-3.1-.062-4.228a2.64 2.64 0 0 1 1.622-.542c3.19.005 6.719-.063 9.956-.017.804.01 1.356.16 1.47.158.077 0 .146-.011.219-.026.12-.034.25-.09.47-.183.356-.154.687-.47.822-.889.4-1.215.852-2.49 1.147-3.508.22-.755.432-1.82.644-2.565.17-.594.668-1.965.7-2.243.019-.169-.06-.275-.012-.47M28.676 37.329c.11-.173-1.046-.03-.613.064.098.02.584-.019.613-.064m19.283 19.116.062-.139-.405-.217.155.222zM65.661 19.488c.001-.018.06.016.073.008.058-.035.107-.02.167-.042.09-.033.218-.275.53.05l.01.01c.058.062.107.145.172.217s.501.522.503.57c0 .065-.19.025-.203.047-.009.015.016.07.008.092-.027.071-.082.066-.02.22l-.222-.125c.003.05-.107.006-.117.024-.008.014.03.067.02.081-.011.016-.08-.014-.098.017-.028.051.081.18.072.218-.01.04-.112.012-.103.085l.026.052.096.082c-.003.03-.07-.026-.085-.013-.019.016.029.083.017.094-.01.01-.069-.025-.078-.01-.014.021.055.085.057.107a1 1 0 0 1-.039.12c-.028.033-.12-.058-.153-.042-.09.044-.087.186-.123.276-.017.04-.051.063-.094.075-.184-.28-.46-.371-.066-.035-.082-.022-.008.1-.054.111-.03.008-.093-.031-.119-.004-.046.05.042.248-.227-.004-.012.102-.154.054.05.308-.001.028-.173-.075-.208-.078a1 1 0 0 0-.236.065c-.023.015-.061.045-.058.081.004.046.222.302-.087.054-.021.064-.044.071-.116.076-.013.002-.055-.04-.059-.036-.009.009.007.054-.005.073-.02.03-.12-.044.013.089l.015.116-.093-.06.055.11c-.178-.206-.13-.029-.001.064l-.215-.027c-.21-.228-.097.043.026.158l-.012.01c-.09-.028-.073.05-.151.048-.078 0-.096-.026-.206-.117l-.011.045c.22.328-.239-.167-.116.13-.197-.15-.174.006-.166.102 0 .011.033.046.037.063.007.041-.078.038.03.147l-.136-.053.021.095.1.103c-.137-.094-.132-.012-.178-.022-.01-.002-.056-.049-.08-.05-.028-.003-.04.035-.07.036l.132.177c-.001.056-.145-.073-.172-.068a.4.4 0 0 0-.052.071c-.002.047.119.16.023.202-.017.008-.067-.023-.08-.014-.023.017.005.169.083.26-.128-.085-.151.023-.2.01-.016-.004-.083-.071-.115-.068-.026.002-.01.093-.038.102-.03.008-.092-.042-.105-.038-.011.004.026.058.014.069-.037.032-.14-.012-.17.014-.043.036.054.208.079.302-.017-.001-.054-.023-.063-.015-.113.1-.26.194-.398.27-.063.035-.37-.03-.036.248.035.072-.214.07-.24.09-.026.022.008.097-.01.116-.056.058-.135.057-.159.173-.006.03.038.115.027.125-.014.011-.09-.04-.11-.027-.05.03-.103.122-.153.148-.009.004-.065-.05-.092-.057-.105-.031-.143.017.037.189-.148-.054-.105.083-.146.134-.087.105-.306.235-.318.393-.008.1.07.178-.076.185-.032.002-.07-.002-.109 0-.091.005-.28-.1-.146.116-.1.007-.113.083-.302-.03l.092.123-.018.023-.108-.1c-.057.038.02.242-.023.28-.071.066-.303.181-.414.197-.06.009.01.085-.158-.05l.008.055.083.116c-.044.044-.147.043-.19.084-.076.076-.103.281-.24.295-.034.003-.126-.043-.144-.024-.027.028.077.15.044.187-.057.062-.3.037-.348.102-.014.02.02.07.012.086-.03.068-.075.103-.059.216-.157-.062-.29-.21-.445-.338-.117-.098-.396-.315-.493-.405-.068-.064-.137-.163-.213-.232.004-.118.092-.078.242-.022l.263-.277.14.097h.001c.08.013-.005-.105-.008-.147-.035-.4.492-.568.717-.735.048-.036.136-.225.229-.188.024.01.085.07.096.065l.112-.321c.243-.048.32-.276.458-.436.369-.433.726-.87 1.142-1.242.08-.072.134-.213.24-.256.043-.018.152.07.122-.045l.079.08c.005-.068-.03-.152.004-.197a.7.7 0 0 1 .157-.149c.02-.01.063.046.077.032.025-.025.011-.146.046-.18.032-.03.14-.023.156-.054.059-.113.07-.29.185-.356.032-.018.128.015.134.006.012-.02-.044-.087-.041-.105.014-.093.169-.098.224-.145.18-.154.334-.355.515-.507.115-.096.282-.278.427-.326.031-.01.092.064.11.047.02-.02-.014-.076-.009-.089.04-.088.136-.272.242-.283.02-.002.081.045.088.038.004-.004-.024-.048-.017-.063.065-.127.157-.173.264-.252.206-.151.35-.423.578-.57.05-.032.182.047.186.04.011-.014-.05-.094-.041-.137.03-.142.221-.177.269-.293.023-.057-.009-.202.012-.261.016-.047.127-.084.102-.138-.015-.032-.086-.114-.085-.134m.09 2.253c-.114-.13-.075.032.012.077.02.01.018-.043-.012-.077m-3.017 2.484.105.105-.02-.067-.075-.051zM26.612 19.977c0-.017-.058.016-.07.009-.054-.032-.101-.016-.157-.036-.084-.03-.192-.26-.511.06l-.01.009c-.06.061-.111.142-.178.213-.067.07-.511.512-.516.557-.003.063.181.02.192.04.007.015-.02.069-.013.09.021.067.074.06.004.21l.221-.125c-.005.048.102.003.11.02.008.014-.032.066-.023.079.01.014.077-.016.092.013.025.049-.088.174-.081.211s.106.009.093.08l-.028.05-.097.08c.001.029.068-.026.082-.013.017.014-.032.08-.021.09.009.008.066-.026.075-.012.012.02-.058.083-.062.104a1 1 0 0 0 .03.115c.025.03.119-.059.15-.044.083.04.072.176.101.261.013.038.045.06.085.07.193-.273.463-.366.065-.034.08-.024.002.094.045.104.028.007.09-.032.114-.006.041.047-.055.239.218-.009.006.098.145.048-.066.296-.001.027.17-.076.203-.08a1 1 0 0 1 .222.058c.021.014.056.041.05.076-.005.044-.23.295.081.05.016.061.038.067.107.07.012.001.054-.04.058-.036.008.008-.01.052 0 .07.018.029.118-.045-.018.085l-.021.113.093-.061-.06.108c.183-.202.127-.031-.002.06l.207-.03c.215-.223.09.039-.034.152l.01.01c.088-.03.067.045.142.042s.093-.028.204-.117l.009.042c-.232.32.238-.165.102.123.198-.15.166.002.154.094-.002.01-.035.044-.04.06-.01.04.072.036-.038.143l.134-.055-.026.092-.102.102c.137-.094.127-.015.172-.026.009-.002.056-.048.08-.05.026-.003.035.033.065.033l-.138.172c-.002.055.143-.073.17-.068a.3.3 0 0 1 .044.067c0 .045-.123.155-.034.194.016.007.065-.024.077-.015.021.015-.015.162-.095.25.128-.083.144.02.192.006.014-.004.083-.07.113-.068.025.001.005.089.03.096.028.008.09-.042.103-.038.01.004-.028.056-.017.066.033.03.135-.014.162.01.038.034-.065.201-.094.291.016 0 .052-.023.06-.015.103.094.238.18.365.249.06.032.356-.038.02.238-.038.069.2.061.224.081s-.013.092.003.11c.05.055.126.052.141.163.004.029-.043.111-.033.12.013.01.088-.04.107-.029.045.027.092.115.137.139.008.004.066-.049.092-.057.102-.032.136.013-.047.182.145-.055.095.078.132.125.076.1.278.219.28.37.003.095-.078.173.062.176.03 0 .067-.004.104-.003.088.003.275-.102.133.108.096.005.103.077.29-.037l-.094.122.015.02.11-.097c.052.035-.033.232.005.268.064.06.28.166.385.179.056.007-.016.082.153-.051l-.01.052-.087.113c.04.041.138.038.176.077.069.07.083.267.213.277.032.002.123-.044.14-.026.023.026-.084.146-.055.18.052.058.286.028.327.09.013.018-.022.068-.016.083.025.064.065.097.043.205.154-.063.29-.207.447-.335.117-.096.398-.31.496-.4.07-.062.141-.159.218-.226.003-.113-.084-.073-.23-.015l-.235-.26-.141.096c-.078.014.01-.1.017-.14.057-.385-.437-.534-.642-.69-.044-.033-.117-.212-.208-.174-.024.01-.086.068-.096.064l-.088-.305c-.23-.04-.29-.258-.411-.408-.328-.407-.643-.818-1.019-1.164-.073-.067-.116-.201-.213-.24-.041-.017-.15.07-.115-.041l-.08.078c-.001-.065.038-.145.007-.188a.6.6 0 0 0-.14-.139c-.02-.009-.064.046-.077.032-.022-.023-.002-.14-.033-.17-.028-.029-.132-.02-.146-.05-.049-.107-.05-.276-.156-.337-.029-.017-.123.018-.128.009-.01-.018.048-.084.046-.102-.008-.088-.156-.089-.206-.133-.163-.144-.298-.334-.462-.475-.104-.089-.253-.26-.39-.303-.028-.009-.091.064-.107.048-.018-.018.018-.073.013-.085-.032-.084-.113-.258-.214-.266-.02-.001-.08.044-.087.038-.003-.003.027-.047.02-.06-.054-.12-.139-.163-.237-.236-.188-.14-.31-.398-.519-.534-.045-.03-.176.05-.18.044-.01-.014.053-.092.047-.133-.02-.135-.2-.165-.24-.274-.018-.055.021-.195.005-.25-.013-.046-.116-.078-.09-.13.017-.032.09-.112.09-.131m-.222 2.163c.117-.128.07.028-.017.073-.02.01-.014-.04.017-.073m2.737 2.312-.106.103.022-.065.075-.05zM17.627 57.48c-.003.016-.049-.033-.061-.03-.055.013-.094-.016-.15-.014-.081.002-.227.182-.448-.21l-.006-.012c-.042-.075-.072-.166-.117-.252s-.354-.632-.35-.675c.01-.059.169.037.183.02.01-.01-.004-.068.006-.086.034-.056.08-.034.049-.194l.173.183c.005-.046.093.028.104.015.01-.01-.016-.07-.005-.08.012-.011.066.038.086.015.032-.037-.043-.188-.03-.22.015-.034.099.024.102-.046l-.016-.055-.07-.104c.007-.026.056.044.071.037.019-.008-.012-.084 0-.09.01-.005.055.044.065.034.015-.015-.035-.095-.034-.116 0-.008.048-.094.051-.097.03-.02.095.09.125.086.084-.011.103-.142.147-.212.02-.031.053-.041.091-.039.118.313.342.481.052.052.067.046.021-.088.063-.084.027.003.075.057.102.04.046-.03 0-.238.194.075.026-.089.14 0 .002-.295.005-.026.138.122.167.135s.19.022.213.015.059-.022.062-.056c.003-.042-.148-.344.083-.022.027-.051.048-.05.11-.033.012.003.041.054.045.051.009-.005.003-.05.016-.064.021-.022.096.077.001-.085l.004-.11.071.084-.03-.119c.122.243.107.068.01-.057l.18.092c.148.272.09-.01.001-.152l.012-.005c.073.053.07-.023.137.003s.078.054.16.17l.016-.036c-.142-.368.18.225.118-.083.147.198.15.049.158-.04.001-.011-.022-.053-.022-.07 0-.04.072-.01-.005-.143l.11.091-.005-.093-.07-.125c.104.128.111.052.149.076.008.004.04.062.061.07.024.012.04-.02.066-.01l-.088-.203c.01-.05.114.112.139.115a.3.3 0 0 0 .054-.048c.009-.042-.079-.182.01-.191.016-.002.054.042.066.038.023-.008.02-.155-.033-.262.098.117.134.026.174.053.013.008.06.09.088.098.023.006.023-.081.048-.08.027 0 .073.066.084.066s-.013-.06-.001-.067c.036-.018.12.055.148.04.042-.02-.016-.206-.024-.299.015.006.043.037.052.033.112-.056.252-.095.381-.12.06-.013.313.142.068-.216-.02-.076.194.004.22-.007.025-.012.007-.09.025-.102.056-.035.124-.01.162-.108.01-.026-.016-.117-.005-.122.014-.006.071.064.09.06.047-.012.107-.08.153-.088.009 0 .05.066.071.081.086.061.126.03-.004-.183.12.095.102-.044.145-.076.09-.07.297-.12.331-.259.022-.088-.034-.184.092-.145.028.009.06.024.094.034.08.024.226.178.143-.06.087.025.109-.04.254.123l-.06-.142.018-.015.078.124c.055-.016.02-.225.062-.247a.84.84 0 0 1 .384-.05c.052.011.003-.08.128.095l.002-.052-.055-.131c.044-.027.133.006.175-.018.077-.045.13-.223.25-.193.03.007.102.078.12.066.028-.017-.044-.16-.01-.183.058-.039.263.06.314.015.015-.013-.006-.07.002-.082.037-.052.08-.07.082-.177.126.105.22.28.333.446.086.125.295.41.365.522.05.079.094.19.15.277-.022.106-.091.042-.212-.056l-.266.17-.107-.132c-.067-.037-.012.097-.015.136-.028.375-.506.363-.724.445-.046.017-.15.162-.224.1-.02-.017-.063-.09-.073-.09l-.144.258c-.215-.033-.316.15-.456.253-.381.279-.752.565-1.164.773-.08.04-.146.152-.243.159-.04.002-.12-.11-.112.002l-.056-.096c-.014.06.004.146-.033.177a.5.5 0 0 1-.156.086c-.02.002-.047-.062-.062-.053-.024.015-.03.13-.066.149-.03.017-.123-.023-.142 0-.066.086-.103.243-.21.267-.03.007-.108-.054-.115-.047-.013.013.026.093.02.108-.025.08-.16.036-.214.062-.177.084-.339.219-.516.3-.113.052-.283.166-.415.164-.028 0-.07-.088-.087-.077-.02.01 0 .073-.006.083-.046.068-.156.206-.25.182-.017-.005-.063-.066-.07-.062-.003.002.014.052.006.062-.074.096-.16.11-.264.148-.198.073-.363.275-.58.338-.047.013-.149-.1-.154-.096-.011.01.03.102.016.139-.047.12-.216.092-.274.182-.029.044-.023.187-.049.234-.021.037-.121.037-.108.093.008.034.057.131.053.149m.253-2.077c.079.154.068-.005 0-.074-.015-.015-.02.034 0 .074m2.956-1.318-.075-.128.007.067.057.07zM44.747 74.389c-.012.01.053.026.056.038.015.053.06.073.086.12.038.072-.048.283.403.283h.013c.086 0 .18-.019.277-.021s.724-.001.76-.026c.046-.037-.115-.126-.108-.146.005-.013.062-.03.072-.047.033-.056-.009-.085.146-.135l-.245-.06c.038-.026-.07-.066-.064-.082.005-.013.07-.02.073-.034s-.066-.038-.056-.066c.017-.045.186-.054.207-.08.022-.03-.07-.073-.01-.109l.055-.014.126.01c.02-.018-.066-.026-.068-.042-.002-.02.08-.03.08-.043-.001-.011-.066-.026-.062-.04.005-.02.1-.016.117-.027a1 1 0 0 0 .06-.09c.003-.035-.126-.038-.137-.066-.03-.077.074-.156.113-.227.017-.032.01-.065-.01-.097-.33.05-.587-.06-.071-.02-.074-.034.066-.06.042-.093-.015-.022-.087-.037-.085-.067.004-.055.207-.115-.16-.131.065-.064-.069-.12.256-.143.02-.017-.174-.06-.2-.078a.8.8 0 0 1-.117-.175c-.005-.022-.01-.06.018-.08.036-.023.372-.04-.021-.08.032-.05.02-.066-.026-.111-.008-.008-.066-.01-.066-.014 0-.01.043-.027.048-.044.009-.029-.114-.046.074-.042q.047-.03.094-.057l-.109-.02.119-.03c-.272.011-.111-.06.044-.037l-.168-.11c-.31.005-.036-.081.132-.074v-.013c-.083-.036-.016-.07-.07-.115-.056-.045-.086-.041-.228-.055l.024-.031c.39-.056-.285-.046.014-.141-.244-.03-.116-.105-.042-.155.009-.006.056-.006.071-.013.035-.02-.026-.067.128-.066l-.133-.05.083-.04h.144c-.163-.027-.1-.07-.14-.091-.008-.005-.074-.005-.092-.019-.021-.015-.002-.043-.022-.062l.22-.021c.039-.033-.154-.044-.17-.063a.3.3 0 0 1 .016-.07c.033-.028.197-.02.162-.1-.006-.015-.063-.026-.065-.039-.005-.023.124-.092.244-.097-.15-.028-.089-.102-.132-.124-.013-.006-.108-.008-.128-.028-.017-.016.06-.059.047-.08-.014-.022-.094-.03-.1-.04-.005-.009.06-.017.06-.03-.003-.04-.107-.076-.109-.107-.003-.046.188-.086.273-.124-.013-.01-.053-.019-.054-.029a1.5 1.5 0 0 0-.082-.383c-.019-.058-.278-.2.155-.162.075-.02-.099-.163-.102-.19-.002-.028.075-.05.076-.072.004-.065-.052-.11.015-.19.018-.02.11-.042.109-.054-.002-.015-.09-.03-.096-.05-.013-.044.016-.128.001-.171-.003-.008-.081-.011-.105-.022-.096-.044-.087-.093.162-.085-.142-.056-.013-.108-.005-.16.016-.11-.042-.312.063-.408.066-.06.177-.059.081-.148-.021-.02-.05-.04-.076-.064-.06-.056-.266-.108-.017-.15-.065-.063-.02-.113-.232-.16l.153-.016.004-.023-.146-.007c-.013-.055.187-.124.186-.17a.8.8 0 0 0-.146-.354c-.035-.039.07-.04-.145-.063l.045-.027.14-.016c.002-.05-.07-.11-.07-.158.002-.088.13-.219.046-.307-.021-.022-.118-.05-.117-.07.002-.032.162-.04.165-.08.005-.068-.181-.196-.167-.26.004-.02.064-.029.07-.042.027-.056.022-.102.115-.155-.154-.058-.352-.053-.553-.07-.15-.014-.5-.055-.633-.061-.093-.004-.213.011-.315.005-.082.07.008.098.152.154l-.017.31.167.027c.065.04-.079.057-.111.078-.313.205-.068.607-.033.832.008.049-.068.207.023.24.024.009.11.011.114.02l-.154.246c.134.169.023.343.002.512-.055.46-.123.914-.103 1.366.004.088-.06.198-.019.284.018.035.156.05.053.097l.112.002c-.045.04-.13.067-.139.112a.5.5 0 0 0 .002.175c.007.018.077.011.076.028 0 .028-.097.089-.097.128 0 .035.08.094.069.122-.042.097-.16.204-.129.308.01.029.1.066.097.075-.005.017-.093.023-.104.035-.057.06.047.153.051.212.014.192-.025.395-.008.586.01.12-.006.322.06.433.014.024.11.018.11.038 0 .022-.064.034-.07.045-.036.072-.102.232-.036.3.013.013.088.023.088.03 0 .004-.051.013-.056.026-.047.109-.017.189 0 .296.034.205-.062.443-.01.658.011.047.16.08.159.086-.003.014-.103.024-.128.053-.082.098.025.229-.025.322-.024.046-.152.109-.18.154-.022.036.028.121-.028.137-.034.01-.142.014-.156.026m1.687-1.214c-.174.006-.03-.061.063-.036.021.006-.018.034-.063.036m-.301-3.16.148.002-.062.027-.089-.015zM72.942 57.09c.007.015.045-.04.06-.038.058.007.094-.027.15-.033.086-.007.266.154.43-.266q0-.006.004-.012c.03-.08.046-.175.079-.266.032-.092.262-.675.249-.718-.02-.058-.167.058-.184.043-.012-.01-.008-.07-.022-.085-.043-.052-.087-.025-.081-.189l-.15.205c-.012-.045-.09.04-.104.028-.011-.01.005-.073-.008-.08-.014-.01-.062.046-.086.025-.04-.033.013-.193-.006-.224-.02-.031-.097.037-.112-.032l.007-.057.055-.114c-.011-.025-.05.052-.067.047-.02-.006-.001-.086-.015-.09-.01-.004-.049.05-.061.041-.019-.013.02-.099.015-.12a1 1 0 0 0-.068-.09c-.034-.017-.084.102-.115.102-.089-.002-.13-.13-.187-.194-.025-.029-.061-.035-.1-.028-.07.327-.274.523-.045.058-.062.055-.037-.085-.079-.076-.027.006-.068.067-.098.053-.054-.024-.04-.237-.189.1-.04-.086-.145.016-.05-.295-.01-.025-.123.139-.15.156a.8.8 0 0 1-.218.04c-.024-.003-.064-.013-.073-.047-.01-.042.095-.362-.089-.011-.037-.05-.058-.045-.12-.02-.01.004-.033.059-.038.057-.01-.004-.01-.05-.026-.063-.026-.019-.087.09-.016-.084l-.022-.11-.06.093.013-.122c-.087.258-.1.08-.02-.056l-.172.114c-.107.29-.094.002-.026-.152l-.012-.004c-.067.062-.077-.014-.142.02s-.071.064-.136.191l-.023-.035c.086-.385-.15.248-.136-.068-.119.217-.147.068-.17-.02-.003-.011.015-.055.012-.072-.006-.04-.076-.002-.019-.144l-.098.105-.01-.094.052-.134c-.086.141-.106.066-.142.094-.007.006-.032.067-.051.079-.023.014-.045-.015-.07-.003l.058-.213c-.019-.05-.1.126-.125.132a.3.3 0 0 1-.064-.041c-.016-.041.052-.192-.041-.19-.017 0-.05.049-.063.046-.024-.005-.046-.152-.009-.265-.081.128-.133.042-.17.074-.012.01-.048.098-.076.109-.022.009-.037-.078-.062-.075-.027.005-.064.076-.076.077s.003-.062-.01-.066c-.04-.014-.114.069-.146.058-.047-.014-.018-.208-.025-.302-.014.008-.038.043-.048.04a1.7 1.7 0 0 0-.413-.074c-.064-.004-.3.182-.106-.206.008-.078-.2.028-.228.02s-.022-.09-.043-.099c-.064-.028-.13.006-.184-.088-.014-.024-.003-.118-.015-.122-.015-.004-.063.073-.084.07-.05-.005-.123-.065-.172-.067-.009 0-.04.07-.06.09-.079.07-.125.044-.026-.184-.107.11-.113-.031-.162-.059-.105-.058-.327-.082-.385-.217-.037-.085.005-.188-.119-.133-.027.012-.057.031-.09.046-.079.034-.205.206-.158-.042-.086.035-.12-.027-.242.154l.038-.15-.021-.012-.06.133c-.06-.009-.057-.222-.104-.239a.9.9 0 0 0-.406-.002c-.051.018-.016-.08-.116.11l-.01-.051.034-.138c-.05-.021-.135.023-.183.004-.087-.035-.171-.206-.29-.162-.03.012-.092.091-.113.082-.031-.014.02-.166-.02-.185-.066-.03-.261.093-.321.055-.018-.012-.005-.07-.016-.082-.046-.047-.094-.06-.114-.167-.113.12-.18.308-.27.487-.068.136-.237.446-.29.567-.038.085-.066.203-.11.296.04.103.102.03.21-.082l.303.136.089-.145c.063-.045.028.096.037.134.091.371.582.3.82.354.052.012.182.144.248.072.017-.018.051-.098.062-.098l.19.239c.217-.06.35.112.513.197.44.23.87.47 1.329.627.088.03.176.133.276.128.042-.002.107-.125.117-.011l.042-.104c.024.058.02.147.062.173a.6.6 0 0 0 .176.067c.02 0 .039-.068.055-.06.028.011.053.125.092.14.036.013.124-.038.147-.017.083.077.146.229.262.24.032.002.102-.067.11-.061.016.011-.01.095-.003.11.04.077.17.016.231.035.197.062.386.177.583.236.125.038.32.13.455.112.03-.004.058-.096.078-.088.022.008.01.074.02.083.058.062.194.185.287.15.017-.007.054-.073.062-.07.004.001-.006.053.004.063.093.085.183.088.297.114.217.048.42.23.654.265.052.008.138-.118.144-.114.013.008-.014.105.007.14.068.114.238.065.312.148.037.04.054.184.09.228.027.035.13.021.126.08-.003.035-.037.137-.03.155m-.602-2.045c-.057.164-.072.004-.013-.073.013-.017.027.031.013.073m-3.269-.948.056-.138.004.068-.047.078z"/></svg>