<svg xmlns="http://www.w3.org/2000/svg" width="91" height="91" fill="none" viewBox="0 0 91 91"><g clip-path="url(#a)"><path fill="#d0e1ff" fill-opacity=".6" d="M0 24.658C0 11.04 11.04 0 24.658 0h41.426c13.618 0 24.658 11.04 24.658 24.658v41.426c0 13.618-11.04 24.658-24.658 24.658H24.658C11.04 90.742 0 79.702 0 66.084z"/><path fill="#e1ebfb" d="m49.15 103.215 22.795-19.303c2.735-2.316 4.145-5.258 3.92-8.18l-.21-2.722-57.161 17.372v4.58c0 3.2 1.932 6.152 5.3 8.096l3.697 2.135c6.37 3.678 16.02 2.797 21.658-1.978"/><path fill="#3784ff" d="M42.338 105.83c.162-.058.42-.081.616-.143.814-.264 1.128-.349 1.837-.64 1.132-.375 3.634-2.245 3.97-2.063l.01.007c.067.051-.064.274-.016.351s.603.386.3.662c-.434.41-1.822 1.117-2.12 1.273-.198.116-.413.288-.676.43-.854.452-1.35.619-2.128 1.043q-.57.095-1.136.158c-.437.168-1.17.261-1.448.327-.229.056-.348.136-.59.187-.273.058-.707.08-1.206.159-.819.125-.954.27-1.458.33-.524.06-1.334.017-2.002.055l-.256.041.167.108c-.341.009-.476-.067-.784-.083-.361-.02-.562.032-.806.01-.2-.017-.454-.097-.71-.125-.372-.042-.318.044-.523.03-.086.006-1.563-.222-1.64-.253-.616-.14-.61-.258-1.076-.4-1.29-.401-2.599-.854-3.656-1.405l-.196-.105a21 21 0 0 1-1.101-.654c.916.169-.367-.852-.204-.195-.416-.32-.856-.421-1.285-.695-.277-.177-.423-.339-.837-.576l-.176-.097c-.743-.393-1.534-.802-1.417-1.137-.848-.571-1.282-1.232-1.826-1.33-.19-.173-.389-.741-.511-.966-.17-.2-.98-1.859-1.03-2.148-.105-.277-.252-.77-.34-1.005-.11-.29-.55-.46-.166-1.06a4 4 0 0 1-.064-.93c.008-.147.021-.306.04-.51.01-.103.077-.118.077-.179 0-.124-.05-.334-.056-.556-.01-.364.132-.58-.084-.529l-.109-.717.125-.26-.136-.38c.312.137.128-.761-.051-.458l.135-.987.008-.36.455-.133.573-.13c.034.26 1.36-.382 1.175-.472l.21-.064c.647-.124 1.186-.347 1.956-.533s.712-.141.995-.103l.52-.18c.773-.575.871-.015 2.34-.723.6.032 1.798-.445 2.596-.752.093-.036.077-.073.2-.123.299-.122 1.122-.318 1.035-.426l.883-.152.646-.27-.06-.107c.52-.015 1.211-.28 1.58-.358.073-.015.114.03.34-.023.263-.061.731-.22 1.043-.297l.27-.274c.529-.195.795-.108 1.12-.193a87 87 0 0 0 1.158-.366c.45-.165.255-.25 1.608-.63.24-.067.456-.083.672-.147.382-.112 1.48-.559 1.523-.676.52-.028 1.732-.45 2.112-.527.115-.024.177.04.522-.047.28-.07.956-.342 1.308-.438.373-.101.536-.08.703-.127.158-.043.277-.136.49-.2.664-.2 1.305-.304 1.83-.462.76-.228 1.356-.576 1.957-.833.163-.039.333-.055.498-.105 2.045-.616 4.363-1.29 6.428-1.881.958-.275 3.424-.798 2.625-.933.3-.158 2.772-.756 3.23-.893s.79-.306 1.149-.416c1.083-.332 1.867-.522 3.16-.974.335-.117.664-.297.866-.358.244-.072.54-.085.857-.176.756-.219 2.143-.666 2.87-.873.132-.038.209.007.406-.032.77-.15 1.587-.406 1.345-.55.865-.155 1.598-.45 2.345-.701l1.193-.35.05.882q.018.127.03.255c.058.654.118 1.563.187 2.468.09 1.082-.069 2.17-.192 2.859-.166.817-.003.83-.666 1.983-.155.253-.327.5-.543.797-.51.7-1.202 1.23-1.424 1.83-.485.464-.907.864-1.366 1.187a5 5 0 0 1-.69.41l-.063.243-.269.232-.21-.002c-.66.543-1.312 1.342-1.863 1.806-.923.78-3.363 2.749-4.292 3.455-.494.375-.43.45-.878.565l-.273.287-.075.236c-.593.505-1.361 1.065-1.927 1.546-1.032.875-2.473 2.254-3.582 3.09-.279.209-.687.435-.94.651-.37.315-.323.473-.79.873-.807.688-2.476 1.872-3.23 2.528-.224.195-.28.315-.431.452-.636.572-1.181 1.027-1.734 1.609-.81.497-.921.346-1.303.422-.288.058-1.077.294-1.26.285-.127-.006-.048-.221-.204-.215.743-.73 1.162-.974 1.945-1.459l3.642-3.106.477-.196c.523-.363.598-.605.823-.835 2.15-2.206 7.116-6.11 9.807-8.345.58-.481 2.38-2.1 2.851-2.386.122-.074.224-.055.336-.144l2.773-2.538.2-.154c1.964-1.511 3.16-3.55 3.57-5.535.164-.764.211-1.533.144-2.29l-.24-2.72.978.419a2126 2126 0 0 1-16.005 4.91c-1.457.44-3.279 1.05-4.72 1.451-.601.168-.903.139-1.644.454l-.068-.077c-.664.241-1.067.438-1.828.676-.641.201-2.342.723-2.916.885-.298.085-.215-.001-.49.083-.47.143-1.44.522-2.09.72-.588.178-1.611.42-2.06.566-1.613.526-3.342 1.156-5.092 1.66-.483.139-1.135.258-1.284.305-.292.094-.345.186-.538.255-.98.347-2.58.743-3.564 1.038-3.204.962-6.577 2.02-9.768 2.976-1.37.41-3.349 1.016-5.068 1.524l.54-.574c-.01.616-.025 1.186-.049 1.641-.016.306-.127.23-.127.486 0 .284.075.434.081.566.02.45.05 1.17.064 1.887.012.705.132 1.396.198 1.81.024.154-.03.281-.002.373.014.046.103.139.158.28.504 1.246 1.016 2.124 1.968 3.182.696.754 1.604 1.468 2.671 2.074 1.23.699 2.491 1.411 3.717 2.119.6.347 1.231.656 1.878.925.662.276 1.079.535 1.181.566.225.065.414.033.882.131 1.54.342 3.709.652 5.288.549.778-.036 1.827-.237 2.561-.377.592-.095 1.982-.369 2.212-.492.143-.068.174-.17.35-.234m-19.341-2.485c.216-.053-.794-.543-.534-.266.057.065.475.282.534.266m29.916-23.762-.089-.103-.419.182.284-.009z"/><path fill="#e1ebfb" d="M22.856 99.566c-6.434-3.714-7.104-10.676-1.498-15.55l23.685-20.588c5.607-4.874 15.366-5.813 21.8-2.1l4.081 2.357c6.433 3.715 7.103 10.676 1.497 15.55L48.736 99.822c-5.606 4.874-15.366 5.814-21.799 2.099z"/><path fill="#3784ff" d="M16.582 89.79c.02-.166.147-.393.203-.585.25-.804.421-1.093.788-1.792.393-1.087 2.92-3.91 3.392-3.623l.011.007c.063.052-.094.31-.04.389.053.078.627.356.361.66-.409.43-1.443 1.454-1.589 1.718-.112.173-.19.403-.31.63-.375.729-.59 1.117-.643 1.812a10 10 0 0 0-.495.793c-.038.362-.227.91-.23 1.132-.006.182.064.286.066.473.003.21-.07.54-.013.92.1.624.328.702.442 1.06.12.368.221.969.51 1.408l.146.153.075-.162c.134.22.093.344.21.55.139.24.303.328.408.484.086.128.142.326.272.487.191.232.246.137.366.252.033.056.921.893.99.93.397.346.324.448.66.72.39.309.829.586 1.297.835.703.377 1.41.735 2.058 1.084.493.265.988.559 1.451.849-1.003-.218.471.913.237.214q.165.122.33.214c.352.198.71.304 1.088.501.32.164.504.32 1.006.512.893.344 2.015.444 2.142.794 1.166.214 2.186.429 2.683.199.306.013 1.069.212 1.424.234.325.066 2.914-.033 3.334-.135.422-.056 1.152-.192 1.49-.296.43-.131.601-.454 1.498-.382.854-.301 1.157-.406 1.948-.698.142-.054.19-.02.27-.056.165-.075.42-.234.699-.381.46-.242.794-.314.619-.404q.41-.28.79-.578.184-.061.37-.128.172-.184.334-.369c.058.277.892-.559.45-.397q.24-.162.472-.332l1.112-.82c.2.214 1.093-.904.852-.906l.167-.144c.555-.38.942-.8 1.58-1.286s.61-.423.912-.508l.396-.374c.391-.829.847-.38 1.836-1.614.611-.225 1.483-1.144 2.071-1.748.068-.07.028-.095.117-.19.216-.232.9-.75.745-.808l.77-.502.463-.507-.127-.07c.5-.23 1.01-.752 1.322-.975.063-.044.132-.021.32-.162.22-.164.578-.5.835-.698l.09-.353c.394-.393.712-.427.977-.639.048-.038.863-.764.904-.805.337-.333.09-.325 1.177-1.225.193-.16.394-.264.566-.41.304-.26 1.097-1.11 1.064-1.231.493-.242 1.415-1.12 1.739-1.347.098-.069.2-.038.483-.26.23-.178.72-.7 1.004-.931.303-.245.476-.296.61-.406.128-.104.186-.235.354-.38.525-.454 1.088-.814 1.503-1.172l.019-.016c.571-.5.846-1.05 1.14-1.53.108-.109.239-.206.333-.326 1.184-1.49 1.95-3.377 2.034-5.065.125-.782-.044-2.75-.417-2.15-.089-.255-.698-2.133-.982-2.45-.216-.33-.49-.55-.692-.791-.627-.724-1.085-1.249-2.17-1.937-.284-.177-.657-.305-.825-.406a2 2 0 0 1-.148-.103c-.153-.117-.3-.257-.51-.383-.67-.4-1.957-1.112-2.597-1.498-.116-.07-.1-.146-.25-.26a7 7 0 0 0-.545-.373c-.413-.255-.797-.383-.827-.218-.743-.523-1.675-.762-2.556-1.019-1.829-.633-5.637-.953-7.428-.599-1.121.193-1.071.248-2.703.533-.36.07-.721.143-1.153.254-1.005.257-2.004.48-2.546.982-1.04.445-1.73.927-2.54 1.268q-.054.124-.102.25-.153.115-.303.237l-.214-.003a5 5 0 0 0-.397.346c-.596.571-1.182 1.247-1.681 1.68-1.027.888-3.732 3.143-4.76 3.955-.546.43-.484.507-.965.656l-.307.324-.095.258c-.66.576-1.508 1.222-2.137 1.77-1.147 1-2.76 2.563-3.987 3.523-.308.241-.753.507-1.035.754-.411.359-.372.526-.893.982-.897.786-2.737 2.153-3.577 2.9-.25.222-.316.355-.485.51-.71.65-1.315 1.171-1.938 1.828-.887.579-.994.423-1.401.526-.308.079-1.155.376-1.346.377-.135 0-.037-.235-.201-.22.833-.827 1.29-1.112 2.15-1.678l4.05-3.543.516-.238c.576-.42.672-.684.925-.944 2.417-2.493 7.918-6.969 10.907-9.523.645-.55 2.653-2.391 3.17-2.726.133-.087.24-.071.363-.174l1.705-1.588q.725-.675 1.573-1.276c2.743-1.697 6.202-2.944 9.758-3.243 4.121-.366 8.308.459 11.415 2.25q2.055 1.17 4.1 2.34c2.689 1.529 4.569 3.752 5.252 6.2.384 1.267.493 2.96.125 4.245-.152.536-.363.737-.522 1.442l-.132.001c-.203.602-.302 1.003-.699 1.652-.304.556-1.446 1.921-1.933 2.325-.238.215-.213.1-.433.3l-.148.136c-.39.362-.998.984-1.45 1.378-.464.403-1.316 1.043-1.663 1.359-1.249 1.137-2.545 2.413-3.942 3.587-.386.325-.95.702-1.067.806-.227.204-.22.308-.365.449-.74.714-2.06 1.732-2.838 2.402-2.533 2.185-5.17 4.526-7.695 6.7-1.241 1.07-3.105 2.699-4.587 3.953-.445.378-.886.702-1.278.963-.386.253-.358.127-.678.337-.359.231-.515.388-.688.494-1.14.779-4.2 2.003-5.641 2.208-.27.05-.48.03-.64.062-.08.015-.25.092-.505.141-2.25.409-3.97.441-6.161.219-2.521-.268-5.164-1.017-7.304-2.248a263 263 0 0 1-3.992-2.315l-.081-.05c-.681-.416-.987-.811-1.077-.873-.207-.148-.425-.18-.838-.489-1.4-1.017-2.549-2.8-3.07-4.112-.286-.641-.648-1.55-.734-2.23-.105-.543.037-1.841.034-2.086-.015-.149-.127-.223-.107-.403m13.54 12.882c-.206.101 1.023.347.636.144-.089-.043-.584-.167-.636-.144m44.949-27.563-.173-.005q-.044.184-.098.368l.192-.18z"/><path fill="#3784ff" d="m56.72 85.64-.973-.56 1.6-1.392q.6-.522.545-.933-.057-.412-.905-.901l-3.676-2.123q-1.308-.755-.728-1.668l-.053-.03q-1.146.586-2.453-.17l-3.57-2.06q-.849-.49-1.447-.456-.615.023-1.216.545l-1.6 1.392-.937-.541 1.631-1.418q2.08-1.807 4.536-.39l3.5 2.02q.619.359 1.15.33.514-.037 1.132-.549l.972.561q-.568.52-.513.907.052.364.67.721l3.606 2.082q1.29.745 1.332 1.527.06.791-.973 1.689z"/><path fill="#3784ff" d="M55.915 85.717a9 9 0 0 1-.54-.314l-.425-.236.37-.334q.146-.116.275-.216c.074-.058.062-.014.114-.053.103-.075.178-.157.28-.231.035-.025.033.03.068.003.192-.143.348-.293.534-.442l.461-.376c.29-.235.51-.505.485-.722-.021-.24-.388-.53-.766-.755l-.195-.116c-.33-.198-.709-.458-1.067-.647-.042-.022-.046.016-.056.014-.155-.04-.06-.065-.13-.117a8 8 0 0 0-.94-.573c-.132-.07-.06.052-.157-.05-.007-.006.055-.013.023-.036-.072-.052-.228-.135-.288-.172-.114-.073-.134-.084-.246-.15-.153-.088-.32-.207-.492-.296-.037-.02-.02.034-.082.006l-.019-.009a1.4 1.4 0 0 1-.239-.158c-.043-.04.005-.045.002-.055-.02-.085-.248-.163-.27-.181-.389-.296-.53-.715-.417-1.123a1.4 1.4 0 0 1 .163-.38l.06.205-.053-.03.296.001c-.188.1-.4.184-.613.232-.493.11-.935.05-1.347-.069-.043-.013-.016.039-.07.023a3.4 3.4 0 0 1-.744-.334q-.328-.196-.642-.404c-.04-.027.046-.022.007-.05-.239-.176-.596-.471-.89-.444-.173-.108-.385-.238-.518-.355-.086-.075.048-.046-.093-.107-.032-.014-.024.034-.07.011-.192-.095-.38-.217-.574-.307-.04-.018-.056.01-.072.009-.125-.016-.205-.156-.232-.178-.146-.12-.284-.2-.432-.283l-.18-.098c-.051-.027-.025.037-.075.013a3.8 3.8 0 0 0-.801-.302c-.06-.012.008-.037-.02-.045-.11-.026-.157.018-.235.026l-.053.001c-.025 0-.013-.03-.018-.033-.084-.041-.137.041-.153.046-.219.073-.416.087-.614.23-.023.016.063.005 0 .052a3 3 0 0 0-.22.177c-.349.306-.722.614-1.088.897-.07.053-.052-.004-.06-.002-.12.026-.09.106-.108.126-.13.138-.314.231-.373.354l-.11.1-.137-.076a.4.4 0 0 0-.07-.009c-.287-.18-.583-.351-.879-.522l-.145-.08.127-.114c.444-.386.885-.772 1.377-1.128.01-.007.03.028.05.013.22-.164.145-.17.197-.307l.012-.027c.02-.043.216-.087.233-.091.059-.016.072.048.088.04.135-.058-.05-.158.102-.267.005-.003.014.033.03.026.049-.021.077-.057.126-.075.116-.043.217-.001.321-.12.015-.015-.094-.076.066-.153.062-.033.354-.164.446-.186.09-.025.047.024.054.023.25-.039.172.006.31.031.134.029.05-.1.094-.126.045-.028.232-.027.277-.02s-.005.032.034.034c.254.016.104-.083.19-.113.21-.067.364.044.536.07.047.008.015-.02.059-.018.175.011.261.06.461.073.032.002.22-.02.286.054.009.01-.045.023.017.05.095.04.259.107.365.142.078.025.029-.05.11.002.035.023-.06.012.008.054.069.041.253.13.323.168.069.036.06-.012.068-.01a1 1 0 0 1 .2.074c.566.322 1.033.666 1.597.967.044.023.048-.021.055-.018.16.073-.04.08.033.165.05-.065.1-.02.21.034.053.025.052-.012.059-.012.112.01.114.082.117.099.012.06.11.053.118.094.008.04-.105.028-.005.085.05-.004.038-.1.124-.065.322.132.805.48 1.029.617l.1.06c.148.087.221.12.334.176.25.115.19.035.365.056.175.012.048.114.063.144.017.03.057.008.087.025.032.018-.051.029.033.041a.6.6 0 0 0 .203-.02c.073-.02.13-.049.139-.064.039-.07-.067-.101.117-.132.011-.002-.007.038.036.027.3-.079.568-.259.809-.434l.027-.024.033.019.09.06c.037.026-.031.034-.01.049.216.155.186.058.378.08-.111.054-.089.139.09.243.109.063.126.021.22.04.03.005.082.071.112.065.08-.017.09-.08.168-.043l.117.065-.099.093a.5.5 0 0 1-.075.063c-.008.006-.023-.033-.048-.012-.154.134-.102.184-.202.343-.068.108-.188.288-.178.43q0 .03.007.058c-.144.02-.049.17.079.182.058.088.153.17.234.248.029.027-.022.031-.021.037.013.083.128.065.152.077l.149.08c.204.116.362.241.604.328.011.004.09-.043.11.036.002.006-.11-.018.007.053s.309.231.504.302c.048.017.2.03.242.113.006.01-.024.02-.019.038.018.057.11.017.115.1.006.081.089.188.294.252.007.002.097-.02.149.012.083.05.192.128.28.178.042.025.047-.019.055-.015.3.148.473.289.764.474.053.034.256.09.33.18.059.075-.076.13-.027.203.017.026.055.054.133.087.115.049.464-.027.523.186.361.237.553.54.725.865.007.014.105.048.113.087.011.058-.024.094-.022.135l.002.05c.008.15.017.295-.031.445-.021.062-.053.035-.082.108-.03.072 0 .13-.077.222-.058.07-.2.111-.274.196.093.035.048.097-.018.216-.013.023.037.013.033.025-.018.047-.077.074-.094.119-.004.011.025.025.023.035-.015.085-.186.157-.215.168-.112.044-.109.094-.18.134-.073.04-.01-.045-.085.006l-.002.002c-.155.106-.323.259-.461.377-.056.047.019.036.012.043-.104.104-.258.181-.248.278-.268-.04-.05.07-.25.19-.016.009-.122-.029-.086-.08.036-.05.138-.098.186-.169.011-.017.02-.145.027-.16.058-.108.207-.043.22-.043.138-.005.16-.156.183-.185.1-.125.222-.21.314-.31l.02-.025c.059-.07-.025-.126.03-.173.18-.159.375-.164.39-.379.002-.046-.133-.049.046-.145.011-.006.16-.079.138-.15-.003-.01-.037-.018-.035-.028.016-.066.064-.101.08-.172.014-.07.02-.153.048-.23.018-.045.094-.104.113-.128.05-.061-.015-.123.016-.166a.03.03 0 0 1 .012-.014c.055-.047.155.03.18-.09-.097.008-.197.01-.294.018a1.14 1.14 0 0 0-.313-.628c-.023-.023-.044.023-.07-.001-.109-.102-.183-.21-.328-.303-.112-.073-.271-.124-.4-.19 0-.049-.042-.094-.102-.136-.077-.052-.176-.101-.25-.15-.047-.03-.024-.045-.053-.07-.11-.098-.112-.006-.159-.019-.2-.053-.068-.187-.257-.29-.01-.006-.207-.008-.229-.013-.136-.034.01-.034-.05-.077-.11-.078-.174-.142-.338-.204-.047-.018-.194-.032-.236-.11-.006-.011.026-.03.019-.036-.128-.11-.213-.043-.327-.07-.115-.026-.194-.152-.205-.182-.03-.077.072.017.08.015.094-.015-.012-.065-.083-.112.068-.075-.042-.131-.074-.048-.004.009.062.036.074.048-.144.03-.269-.029-.324-.165-.026-.064.07-.066-.126-.158-.089-.042-.111.024-.199-.005-.2-.067-.364-.235-.543-.327-.065-.033-.034.028-.08.006-.084-.041-.148-.091-.22-.136a1 1 0 0 0-.11-.061c-.011-.006-.017.037-.055.014-.282-.182-.518-.387-.625-.732a.837.837 0 0 1 .09-.63c.12-.202.34-.384.515-.531l.035.305a2 2 0 0 0-.16-.093c-.142-.072-.144-.027-.222-.042-.153-.029-.276-.206-.291-.232 0 0 .123.06.077.01-.003-.05-.076-.009-.077-.01a2 2 0 0 0-.286-.177c-.024-.01-.038.012-.05.016l.509-.044q0 .002-.002.005c-.274.258-.613.54-1.214.644-.01.001-.004-.036-.028-.033l-.145.014c-.254.011-.438.02-.648-.005-.247-.033-.403-.112-.461-.213a1.2 1.2 0 0 1-.276-.164l-.1-.083c-.077-.067-.154-.019-.164-.023-.297-.112-.408-.23-.667-.388a10 10 0 0 0-.527-.284c-.114-.058-.164-.108-.273-.157-.015-.007-.03.026-.035.024-.145-.034-.022-.064-.032-.088-.038-.088-.066-.138-.23-.202-.037-.015-.233.018-.299-.012-.085-.038-.02-.053-.11-.092-.007-.003-.028.017-.077-.013-.23-.139-.47-.297-.715-.435-.034-.019-.026.037-.075.01a11 11 0 0 1-.31-.177q-.18-.108-.347-.204c-.048-.029.006-.036.002-.048-.033-.075-.19-.058-.208-.064-.421-.13-.717-.278-1.164-.264-.027 0-.203.077-.283.02-.005-.003-.095-.061-.158-.006-.004.004.05.03-.034.04-.086.01-.21.06-.34.06-.04 0-.166-.03-.243.059-.009.006-.084.173-.197.135-.02-.007-.076-.083-.165.018-.016.02.041.012-.01.055-.075.065-.215.123-.283.224-.014.018-.031.111-.135.128-.016.003-.027-.03-.062-.008-.075.048-.14.103-.207.161-.09.079-.179.158-.28.228-.063.045-.084-.008-.156.035s-.203.14-.242.206c-.04.067.106.054.02.137-.296.29-.636.55-.967.816l-.048-.496q.139.088.28.172c.067.04.035-.014.136.044.15.085.346.192.544.305l-.745.072c.254-.225.527-.455.73-.58.273-.168.027.099.218-.04.092-.066.09-.197.108-.216.166-.186.342-.281.505-.441.034-.033-.038-.023-.01-.051q.03-.03.062-.056c.1-.085.217-.164.327-.24.061-.044.025-.056.089-.093.152-.087.312-.154.508-.199.017-.003-.073.066.063.018.17-.056.396-.092.62-.104.062-.005.133-.008.202-.01.083-.003.11-.067.267 0 .031.016-.042.076.168.054.035-.007.384 0 .468.102.023.026.06.112.134.134.01.003 0-.042.059-.019.16.063.308.142.453.22l.12.062c.047.024.012-.042.081-.006.193.1.415.24.586.352.063.042-.01.038-.007.043.032.085.14.058.17.07.181.073.275.17.43.248.043.022.044-.02.055-.018.11.026-.006.036.041.072.134.1.303.195.458.28.057.03.029-.036.08-.008.3.166.604.346.873.528.05.035-.01.038-.004.05.035.081.207.097.239.108.144.047.167.094.277.151l.198.105c.433.243.953.404 1.328.345.185-.022.36-.078.528-.157l.313-.154.26.156.052.032.272.164-.154.231c-.174.25-.214.484-.054.732.017.025.05-.018.064.002.133.185.352.364.622.52q.183.105.371.208c.036.02.019-.038.078-.008.12.063.265.149.372.226.052.037-.053.018 0 .055.123.086.264.171.407.246.06.032.006-.049.083-.005.52.296 1.035.584 1.514.925.033.023-.004.101.085.134.025-.013.047-.033.07-.05q.35.196.69.396c.42.269.92.534 1.05 1.131a.9.9 0 0 1-.07.45c-.016.04.067-.02.032.058-.138.29-.35.514-.586.709q-.168.136-.355.27c-.036.024-.093-.033-.175.055-.015.015-.145.143-.165.184-.003.005.057.003.013.043-.257.231-.54.466-.823.681-.046.035-.038-.025-.07 0a3 3 0 0 0-.127.1l-.037-.39c.2.121.426.234.593.365.137.107.024.122.053.218.004.013.1.07.073.1-.067.077-.201.126-.267.211-.014.018.136.076.014.07-.008 0-.117-.042-.155-.042-.027 0-.03.044-.076.037-.046-.008-.056-.052-.126-.07s-.083.028-.197-.031M50.3 76.764c-.056-.076-.181.014-.061.045a.2.2 0 0 0 .06-.045m8.639 5.232c.006-.116-.142-.13-.145-.049-.007.08.141.083.145.049m.201 1c.094-.115-.143-.149-.128-.026 0 .007.123.031.128.025m-2.895 2.236c0 .002.068.043.07.043.074-.01-.063-.093-.07-.043m2.274-1.239c.06-.019.121-.128.049-.103-.058.02-.122.126-.049.103m-12.827-9.65c0-.001-.065-.009-.066.002-.004.033.087.032.066-.001m11.12 11.15c.26-.218.566-.264.272-.033-.053.041.06-.122-.018-.075-.141.087-.123.21-.294.284-.03.013.024-.165.04-.177m-6.426-8.875a1 1 0 0 0-.072-.043c-.073.01.064.092.072.043m-7.974-.926c-.007.001-.151.12-.152.127-.006.102.284-.14.151-.127m11.439 2.557c.07.05.11.108.082.179a.6.6 0 0 1-.082-.18M52.792 89.054q-2.079 1.807-4.536.39l-3.605-2.082q-.619-.357-1.166-.316-.531.027-1.134.525l-.955-.55q.568-.52.516-.884-.054-.387-.672-.745l-3.5-2.02q-1.29-.745-1.332-1.527-.06-.791.972-1.689l1.632-1.418.936.541-1.6 1.391q-.615.535-.542.957.09.41.938.898l3.552 2.051q1.325.765.746 1.679l.035.02q1.164-.577 2.471.179l3.676 2.122q.849.49 1.413.46.598-.034 1.214-.57l1.6-1.39.973.56z"/><path fill="#3784ff" d="M52.782 89.649a3.8 3.8 0 0 1-1.075.556c-.118.038-.072-.003-.154.02-.16.045-.31.096-.479.12-.056.007.003-.04-.055-.031-.314.043-.618.07-.93.044-.841-.074-1.504-.377-2.066-.712l-1.355-.811c-.33-.197-.708-.458-1.067-.646-.042-.022-.045.016-.055.013-.156-.039-.06-.064-.131-.117a8 8 0 0 0-.938-.572c-.125-.063-.058.051-.149-.04-.006-.007.052-.017.022-.037a2 2 0 0 0-.286-.128 1.2 1.2 0 0 0-.256-.073 1.4 1.4 0 0 0-.314-.026.8.8 0 0 0-.206.032c-.034.01.025.029-.026.05-.05.018-.192.074-.245.094-.053.018-.053-.012-.067-.013-.114-.002-.214.156-.23.171l-.173.148-.169.144-.202-.112c-.322-.177-.586-.365-.896-.544l-.04-.023-.175-.096.148-.14c.218-.2.399-.439.44-.628a.4.4 0 0 0 .01-.125c-.017-.181-.145-.351-.357-.502-.027-.02-.035.031-.069.008a3 3 0 0 0-.186-.116 19 19 0 0 1-1.058-.647c-.04-.027.046-.022.008-.051-.24-.175-.596-.47-.89-.443-.174-.108-.386-.239-.519-.355-.085-.075.05-.047-.093-.107-.031-.014-.024.033-.07.01-.191-.094-.38-.216-.574-.306-.04-.019-.056.01-.071.008-.1-.012-.17-.103-.209-.15l-.024-.028c-.21-.174-.393-.276-.593-.436-.046-.038-.033.034-.08-.002-.236-.185-.444-.413-.553-.662-.023-.056.047-.02.038-.047-.034-.117-.13-.122-.145-.243-.003-.025.04-.018.043-.023.05-.08-.054-.126-.059-.145a.4.4 0 0 1-.01-.069c-.017-.193.083-.33.13-.522.007-.026-.062.026-.039-.047.15-.46.54-.88.965-1.212l.091-.07c.07-.054.052.002.06 0 .12-.025.09-.105.108-.125.146-.156.364-.255.389-.404.334-.27.65-.55.97-.827l.122-.11.15.084c.313.18.623.363.92.556l.125.07-.109.098a11 11 0 0 1-.357.269c-.01.007-.03-.028-.05-.013-.233.173-.136.17-.208.333-.018.04-.21.087-.225.091-.058.018-.075-.045-.091-.037-.131.064.063.153-.067.267-.005.003-.02-.03-.035-.023-.044.023-.064.06-.109.083-.102.05-.216.024-.282.154-.008.017.116.056-.005.154l-.148.126c-.063.054-.125.111-.154.135-.055.046-.057-.005-.062-.002-.177.117-.146.056-.281.103-.134.051.06.091.06.127-.003.035-.108.133-.135.16-.027.025-.038-.015-.058.01-.12.168.072.086.089.141.028.067.003.119-.02.18-.02.048-.034.106-.012.16.013.03.03-.004.05.02.075.096.088.174.234.257.024.015.185.049.201.13.003.012-.052.011-.01.05.063.06.194.155.288.2.07.032.038-.046.105.012.029.025-.055.008-.006.05l.005.004c.059.046.233.145.3.182s.06-.01.068-.008c.044.008.185.068.196.074.565.322 1.032.665 1.596.966.044.024.048-.02.055-.017.16.073-.04.08.033.165.05-.066.1-.02.21.033.054.026.052-.012.059-.011.112.009.114.082.117.098.012.061.11.054.118.095.008.04-.105.028-.005.085.05-.004.038-.1.124-.065.21.086.487.263.717.414.128.083.233.164.304.22.203.16.264.217.35.33.139.209.142.109.251.24.097.138-.1.107-.127.135-.028.027.016.04.003.068-.013.027-.051-.019-.044.037.01.053.083.2.117.223.075.045.175-.032.117.137-.004.01-.041-.025-.054.011q-.067.19-.192.368l-.017-.057.034.021h-.08c.178-.081.37-.146.566-.178.052-.009.018.035.048.03.31-.03.185-.068.368-.149-.04.093.056.132.277.15.135.015.124-.025.224-.037.031-.004.114.042.14.029.088-.042.035-.133.257-.04.01.005-.043.025-.01.038.212.086.282.04.512.14.07.03.154.08.236.137.12.083.248.177.35.241-.095.078.092.155.222.139.111.068.238.136.34.207.034.025-.017.033-.015.039.028.08.14.056.166.068.29.134.46.3.76.407.011.004.09-.043.111.037.001.005-.112-.019.006.053.117.07.309.23.504.3.048.018.201.032.242.114.006.011-.024.02-.019.038.018.057.11.017.116.1.005.081.088.188.293.252.007.002.097-.019.149.012.083.05.192.128.28.178.042.025.047-.018.054-.015l.04.02c.276.137.452.269.784.39.066.025.276.03.4.077.118.04.006.159.197.177a.6.6 0 0 0 .186-.023c.187-.05.24-.29.531-.31.194-.12.367-.242.528-.372.174-.142.347-.284.5-.448.013-.014-.002-.092.034-.122.053-.045.112-.053.151-.084.165-.13.283-.27.438-.399.059-.049.07-.014.14-.072.07-.059.075-.121.187-.19.044-.028.107-.045.17-.065l-.099.01a.3.3 0 0 0 .096.115c.074-.059.146-.015.294.044.029.01.027-.026.041-.022.061.017.085.06.145.075.014.003.039-.017.052-.016.113.014.186.135.198.156.048.08.119.075.169.124.05.05-.064.01.003.06l.001.001-.003-.03c-.155.106-.323.26-.461.378-.055.047.019.036.012.043-.104.104-.258.181-.248.278-.268-.041-.05.07-.25.19-.016.008-.122-.03-.086-.08s.139-.098.186-.17c.011-.016.02-.145.027-.159.058-.108.207-.043.22-.043.138-.006.16-.156.183-.185.1-.125.222-.211.314-.311l.016.168-.032-.014c-.097-.04-.182.023-.246-.018-.215-.135-.186-.273-.488-.314-.065-.008-.104.09-.2-.06-.003-.006-.029-.058-.075-.096l.383-.037c-.032.02-.059.045-.064.073-.003.01.026.025.018.035-.052.067-.118.093-.18.163-.063.07-.134.155-.227.221-.056.04-.172.066-.21.08-.104.037-.116.135-.203.146s-.072-.1-.212-.02c.069.045.134.097.2.145-.225.193-.466.373-.69.567l-.064.055c-.034.028.04.023.004.054-.154.132-.33.22-.536.34-.16.09-.352.21-.593.265a1 1 0 0 0-.257-.022c-.168-.001-.35-.013-.482-.044-.075-.017-.06-.037-.107-.056-.173-.074-.125.014-.184.01-.248-.028-.152-.177-.368-.268-.011-.004-.217.001-.24-.005-.148-.032.005-.034-.062-.077-.062-.04-.11-.078-.164-.114a1 1 0 0 0-.185-.093c-.047-.017-.194-.032-.236-.11-.006-.011.025-.03.019-.036-.128-.11-.213-.042-.327-.07-.114-.026-.194-.152-.205-.182-.03-.077.072.017.08.016.094-.016-.012-.066-.083-.113.068-.074-.042-.13-.074-.048-.004.01.062.037.074.048-.143.03-.269-.028-.324-.165-.026-.064.07-.066-.126-.158-.089-.041-.111.024-.198-.005-.2-.066-.365-.235-.544-.327-.065-.033-.034.028-.08.006-.12-.058-.197-.135-.322-.19-.01-.005-.017.036-.052.017-.27-.151-.483-.303-.76-.464-.096-.055-.253-.133-.385-.204q-.076-.04-.133-.072c-.218-.125-.491-.283-.721-.31-.147-.017-.127.023-.192.04-.12.03-.305-.043-.34-.05 0-.001.121-.017.055-.03-.04-.034-.054.03-.054.03a1 1 0 0 0-.309.048c-.024.01.004.036-.008.041a3 3 0 0 0-.314.15l-.263.124-.215-.13-.037-.019-.231-.139.131-.197q.115-.203.142-.398c.001-.004.051 0 .053-.009.022-.137-.068-.213-.152-.3-.087-.088-.138-.163-.12-.258-.078-.068-.17-.186-.23-.253-.062-.068-.144-.022-.151-.025a2 2 0 0 1-.195-.093c-.155-.084-.265-.176-.45-.289a10 10 0 0 0-.527-.285c-.114-.057-.164-.108-.273-.157-.015-.006-.03.026-.035.025-.145-.034-.022-.064-.032-.088-.038-.088-.065-.139-.229-.202-.038-.015-.234.017-.3-.012-.085-.038-.02-.053-.11-.092-.007-.004-.028.017-.077-.013-.229-.139-.47-.297-.715-.435-.033-.019-.026.037-.075.01a8 8 0 0 1-.675-.41c-.05-.035.008-.037.004-.05-.008-.025-.03-.042-.056-.054-.063-.03-.15-.036-.163-.043-.44-.248-.744-.478-.965-1.008l-.004-.009-.002-.01c-.03-.046-.112-.27.004-.357.008-.008.124-.09.103-.18 0-.006-.075.042-.02-.056.054-.097.13-.254.272-.345.046-.03.192-.073.234-.195.001-.004.008-.056.034-.108.021-.052.06-.103.132-.1.022 0 .105.061.169-.062.012-.024-.047-.002-.004-.058.066-.086.204-.17.268-.285.011-.02.027-.123.137-.15.017-.005.029.029.065.002.174-.127.318-.282.498-.408.064-.045.085.009.157-.035s.203-.14.242-.206c.026-.044-.028-.053-.044-.078l.047.484c-.02.006-.043.006-.081-.014-.31-.156-.591-.334-.872-.513l.713-.069q-.229.181-.452.367c-.06.051.017.025-.07.101-.299.263-.78.715-1.12.945l-.067.043c-.25.157-.034-.096-.208.036-.085.066-.061.19-.073.207-.122.179-.26.279-.341.44-.016.032.047.013.034.04-.046.093-.111.186-.136.275-.011.04.027.036.015.071a3 3 0 0 1-.092.242c-.003.009-.05-.042-.051.023l-.002.061c-.004.094.002.2.07.286.026.031.105.008.088.096-.003.017-.111.032.023.086.022.01.224.095.22.189-.003.025-.03.105.02.136.007.004.023-.037.059-.009.125.099.257.206.411.296.041.024.018-.04.078-.004.091.054.193.117.294.18.091.056.18.113.257.164.062.042-.01.038-.008.043.032.085.14.057.17.07.182.073.275.17.431.248.043.022.044-.02.054-.018.11.026-.005.036.042.072.133.1.302.195.457.279.057.03.03-.035.08-.007.3.165.605.345.874.528.05.034-.01.037-.005.05.036.08.207.097.24.107.144.047.167.095.277.152.199.103.41.22.62.342.382.219.78.556.828.984l.005.065c-.027.532-.387.808-.663 1.07l-.052-.457c.242.148.486.294.76.447.038.022.035-.03.069-.012l.157.088-.711.061c.341-.271.762-.597 1.507-.662l-.016.001q.102-.008.204-.008c.068 0-.026-.039.085-.037.23.004.489.063.657.133.082.034-.053.023.029.057a7 7 0 0 1 .531.257c.05.021.003-.05.076-.009.521.296 1.036.585 1.515.925.033.024-.005.102.084.134.026-.013.048-.033.07-.05.634.353 1.237.723 1.853 1.09.12.07.24.137.369.198.03.015.01-.044.07-.016.347.16.702.265 1.072.347.037.008-.003.077.118.075.02.001.2-.004.244-.022.006-.003-.023-.034.03-.037.316-.016.639-.085.95-.196.05-.018.022.034.058.021.263-.094.492-.267.728-.398.16-.09.167-.01.301-.031.02-.003.105-.072.146-.054.102.044.158.139.271.181.025.01.123-.108.102-.016-.001.007-.073.091-.08.12-.003.02.061.018.043.054s-.084.046-.122.1c-.04.054.024.063-.088.15m-10.73-5.016c-.055-.077-.18.014-.06.044a.2.2 0 0 0 .06-.044m10.122 3.75c-.156.052-.139.159-.025.124.113-.035.072-.14.025-.125m.978-.911c-.16.074.006.195.092.067.005-.008-.083-.072-.092-.067m-.984 1.915a1 1 0 0 0 .071-.046c-.001-.051-.136.035-.071.046m1.95-1.865c-.019-.043-.162-.09-.138-.037.02.043.163.09.139.037m-16.27-5.724c.001-.002-.02-.047-.033-.042-.043.016.004.076.033.042m15.038 7.108c.26-.217.566-.263.272-.033-.053.042.06-.122-.017-.074-.142.087-.124.21-.294.283-.031.014.023-.164.039-.177m-10.748-4.42a1 1 0 0 0-.07-.043c-.074.01.063.093.07.043m-2.295-5.026c.007 0 .15-.12.152-.127.006-.102-.284.14-.152.127m6.166 7.142c.112.012.207.06.222.135q-.11-.068-.222-.135"/><path fill="#e1ebfb" d="m47.467 65.287 22.796-19.303c2.734-2.316 4.144-5.258 3.92-8.18l-.21-2.722-57.162 17.372v4.58c0 3.2 1.933 6.152 5.3 8.096l3.698 2.135c6.37 3.678 16.019 2.797 21.658-1.978"/><path fill="#3784ff" d="M40.656 67.902c.161-.058.42-.081.615-.143.814-.263 1.128-.35 1.837-.64 1.132-.375 3.635-2.245 3.97-2.063l.011.007c.066.051-.065.274-.017.35.048.078.603.388.3.663-.433.41-1.822 1.118-2.12 1.273-.198.116-.413.288-.676.43-.854.452-1.349.619-2.127 1.043q-.571.095-1.136.158c-.438.168-1.17.261-1.448.327-.23.056-.349.136-.591.187-.273.058-.707.08-1.206.16-.818.124-.954.269-1.458.329-.524.06-1.333.017-2.002.055l-.256.041.167.108c-.341.01-.476-.066-.783-.083-.362-.02-.563.032-.807.01-.2-.017-.454-.097-.71-.125-.372-.042-.317.044-.523.03-.086.006-1.563-.222-1.64-.253-.616-.14-.61-.258-1.076-.4-1.29-.401-2.598-.854-3.656-1.405l-.195-.105a21 21 0 0 1-1.102-.654c.916.169-.367-.852-.204-.195-.416-.32-.855-.421-1.284-.695-.278-.177-.424-.34-.838-.576l-.176-.097c-.742-.393-1.534-.801-1.416-1.137-.849-.571-1.283-1.232-1.827-1.33-.19-.173-.388-.741-.51-.966-.17-.2-.98-1.858-1.03-2.148-.106-.277-.252-.77-.34-1.005-.111-.29-.55-.46-.167-1.06a4 4 0 0 1-.064-.93c.008-.147.022-.306.04-.51.01-.103.077-.118.077-.178 0-.125-.05-.334-.055-.556-.01-.365.13-.58-.085-.53l-.108-.717.125-.26-.137-.38c.313.137.128-.761-.05-.458q.067-.494.135-.987l.007-.36.455-.133.573-.13c.034.26 1.361-.382 1.175-.472l.211-.064c.647-.124 1.185-.347 1.956-.533s.712-.142.994-.103l.52-.18c.774-.575.872-.015 2.34-.723.6.032 1.798-.445 2.597-.752.093-.036.076-.072.199-.123.3-.122 1.123-.318 1.036-.426l.882-.152.646-.27-.059-.107c.52-.015 1.21-.28 1.579-.358.073-.015.114.03.34-.023.263-.061.731-.22 1.044-.297l.27-.274c.528-.195.794-.108 1.12-.193a87 87 0 0 0 1.157-.366c.45-.165.256-.25 1.608-.63.241-.067.456-.083.672-.147.383-.112 1.48-.559 1.524-.676.52-.028 1.731-.45 2.112-.527.115-.024.176.04.522-.047.28-.07.955-.342 1.307-.438.374-.101.536-.08.704-.127.158-.043.276-.136.49-.2.663-.2 1.304-.304 1.83-.462.759-.228 1.355-.576 1.957-.833.162-.039.333-.055.498-.104 2.045-.617 4.363-1.29 6.427-1.882.958-.275 3.424-.798 2.625-.933.301-.158 2.772-.756 3.23-.893s.79-.306 1.15-.416c1.082-.332 1.867-.522 3.16-.974.334-.117.664-.297.866-.358.243-.072.54-.085.857-.176.755-.218 2.143-.666 2.869-.873.133-.038.21.007.407-.032.769-.15 1.587-.406 1.345-.55.865-.155 1.597-.45 2.344-.701l1.193-.35.05.882q.018.128.03.255c.059.654.118 1.563.187 2.468.09 1.082-.068 2.17-.192 2.859-.166.817-.002.83-.666 1.983-.155.253-.327.5-.542.797-.51.7-1.203 1.23-1.424 1.83-.486.464-.907.864-1.367 1.187-.22.153-.445.291-.69.41q-.03.122-.063.243l-.269.232-.21-.002c-.66.543-1.312 1.342-1.863 1.806-.923.78-3.362 2.749-4.292 3.455-.494.375-.43.45-.878.565l-.273.287-.075.236c-.593.505-1.36 1.066-1.927 1.546-1.032.875-2.472 2.254-3.582 3.09-.278.209-.686.435-.94.651-.37.315-.322.473-.79.873-.807.689-2.476 1.872-3.23 2.528-.224.195-.28.315-.43.452-.636.572-1.182 1.027-1.735 1.61-.81.496-.92.345-1.302.421-.289.058-1.077.294-1.26.285-.128-.006-.048-.221-.204-.215.743-.73 1.161-.974 1.944-1.46l3.642-3.105.477-.196c.523-.363.599-.605.823-.835 2.15-2.206 7.116-6.11 9.807-8.345.58-.481 2.38-2.1 2.852-2.386.122-.074.224-.055.335-.144l2.773-2.538.2-.154c1.965-1.511 3.16-3.55 3.57-5.535.164-.764.212-1.533.144-2.29l-.24-2.72.978.419a2116 2116 0 0 1-16.004 4.91c-1.457.44-3.28 1.05-4.72 1.451-.602.168-.903.139-1.645.454l-.068-.077c-.664.241-1.067.438-1.828.677-.64.2-2.342.722-2.916.885-.298.084-.215-.002-.49.082-.47.144-1.439.522-2.089.72-.589.178-1.612.42-2.06.566-1.614.526-3.343 1.156-5.092 1.66-.483.139-1.136.258-1.285.305-.291.093-.345.186-.538.255-.979.347-2.58.743-3.563 1.038-3.204.962-6.578 2.02-9.769 2.977-1.37.41-3.348 1.016-5.067 1.523l.539-.574c-.01.616-.024 1.187-.049 1.641-.016.306-.126.23-.126.486 0 .284.074.434.08.566.021.451.05 1.17.065 1.887.011.705.132 1.396.198 1.81.023.155-.03.282-.002.373.013.046.102.139.157.28.505 1.247 1.017 2.124 1.968 3.182.696.754 1.604 1.468 2.672 2.074 1.23.7 2.49 1.411 3.716 2.12.6.346 1.232.655 1.878.924.663.276 1.08.535 1.182.566.225.065.413.033.881.131 1.54.342 3.71.652 5.289.55.777-.037 1.826-.237 2.56-.378.593-.095 1.982-.369 2.213-.492.142-.068.173-.17.349-.234m-19.342-2.485c.216-.053-.794-.543-.534-.266.058.065.475.282.534.266M51.23 41.655q-.046-.05-.088-.103l-.42.182.284-.009z"/><path fill="#e1ebfb" d="M21.735 61.55c-6.433-3.714-7.103-10.675-1.497-15.549l23.685-20.589C49.53 20.54 59.29 19.6 65.722 23.313l3.916 2.26c6.432 3.715 7.103 10.676 1.497 15.55L47.449 61.712c-5.606 4.873-15.365 5.813-21.798 2.099z"/><path fill="#3784ff" d="M15.466 51.758c.02-.166.147-.392.204-.583.25-.803.421-1.09.788-1.788.394-1.084 2.916-3.898 3.387-3.612l.011.007c.063.052-.093.31-.04.388.054.078.628.356.362.66-.407.427-1.44 1.449-1.586 1.712-.112.173-.19.403-.31.628-.374.728-.589 1.115-.643 1.808q-.268.385-.496.79c-.039.362-.228.908-.233 1.13-.006.18.064.285.066.472.003.209-.07.538-.016.918.099.622.326.7.439 1.057.119.368.217.968.505 1.406q.07.078.144.153l.076-.162c.132.22.091.344.207.55.137.24.301.328.405.484.086.127.14.325.27.485.19.233.244.138.364.253.032.055.915.893.982.93.395.347.322.449.655.72.4.32.852.605 1.333.86.686.367 1.374.716 2.007 1.057.492.264.986.558 1.447.847-1-.218.47.911.237.213q.11.082.22.149c.383.236.78.34 1.195.553.322.162.508.315 1.01.503.897.337 2.018.43 2.15.778 1.165.206 2.186.415 2.68.182.304.011 1.068.205 1.422.225.325.064 2.91-.048 3.327-.153.42-.058 1.148-.197 1.484-.303.428-.132.595-.456 1.49-.388.851-.304 1.152-.41 1.939-.705.14-.055.189-.022.269-.058.164-.075.416-.235.693-.383.458-.244.79-.316.614-.406q.408-.281.783-.58.185-.061.368-.128.172-.184.331-.37c.061.276.885-.56.446-.398q.206-.141.407-.288l1.174-.864c.2.213 1.09-.903.85-.905l.166-.143c.554-.38.94-.799 1.577-1.284.637-.484.607-.42.91-.506l.394-.373c.39-.827.846-.378 1.833-1.61.61-.224 1.48-1.14 2.065-1.743.068-.07.028-.095.117-.19.215-.232.897-.748.743-.806l.768-.501.462-.506-.127-.07c.499-.23 1.008-.75 1.32-.972.061-.044.13-.022.318-.162.219-.164.576-.499.833-.696l.09-.353c.393-.391.71-.425.975-.636.047-.038.86-.763.901-.803.336-.333.09-.326 1.174-1.223.193-.16.394-.264.565-.41.303-.258 1.093-1.106 1.06-1.228.493-.24 1.412-1.116 1.735-1.343.098-.068.2-.038.483-.258.23-.18.718-.699 1.002-.93.301-.245.474-.295.609-.405.127-.104.184-.234.351-.38.524-.452 1.086-.81 1.5-1.168l.02-.016c.57-.498.843-1.048 1.137-1.527.107-.108.238-.204.332-.325 1.182-1.486 1.949-3.367 2.037-5.05.126-.78-.036-2.745-.411-2.147-.088-.254-.689-2.13-.97-2.445-.215-.331-.486-.55-.688-.791-.622-.724-1.075-1.248-2.155-1.938-.282-.177-.654-.306-.82-.407a2 2 0 0 1-.185-.133c-.138-.11-.278-.236-.468-.35-.668-.4-1.952-1.11-2.59-1.495-.117-.07-.1-.146-.251-.26a7 7 0 0 0-.435-.304c-.45-.293-.902-.456-.932-.276-.748-.517-1.682-.749-2.564-.999-1.833-.619-5.637-.916-7.422-.553-1.116.198-1.065.253-2.69.546-.36.072-.72.146-1.15.259-1 .26-1.995.487-2.53.991-1.035.448-1.72.933-2.525 1.275a9 9 0 0 0-.1.25q-.151.118-.3.238l-.214-.002q-.174.137-.34.297c-.615.58-1.22 1.282-1.733 1.727a208 208 0 0 1-4.749 3.946c-.545.43-.482.506-.962.655l-.306.322-.095.258c-.658.575-1.504 1.22-2.132 1.766-1.144.997-2.753 2.557-3.977 3.514-.307.24-.751.506-1.033.752-.41.358-.37.525-.89.98-.895.784-2.731 2.147-3.569 2.893-.249.221-.315.354-.483.508-.708.65-1.312 1.169-1.933 1.824-.886.578-.993.422-1.4.524-.307.079-1.152.375-1.344.375-.134 0-.036-.234-.2-.22.83-.825 1.287-1.109 2.144-1.673l4.041-3.535.515-.237c.575-.419.67-.682.922-.942 2.41-2.487 7.899-6.951 10.88-9.5.643-.549 2.647-2.385 3.162-2.719.134-.086.24-.07.363-.173l1.756-1.636c.464-.43.962-.838 1.502-1.226 2.722-1.703 6.162-2.964 9.708-3.281 4.161-.393 8.401.43 11.54 2.238q1.97 1.123 3.932 2.246c2.699 1.533 4.582 3.766 5.26 6.225.378 1.264.483 2.952.114 4.235-.153.534-.364.735-.523 1.438l-.132.001c-.203.6-.303 1-.7 1.647-.303.555-1.443 1.917-1.93 2.32-.236.214-.211.1-.431.3q-.067.059-.148.134c-.39.362-.995.982-1.446 1.375-.463.402-1.313 1.04-1.659 1.355-1.246 1.135-2.538 2.408-3.932 3.58-.385.323-.948.7-1.064.803-.227.203-.22.307-.365.447-.738.713-2.055 1.728-2.83 2.397-2.527 2.18-5.159 4.515-7.677 6.684-1.255 1.08-3.147 2.735-4.635 3.993-.42.356-.835.663-1.205.913-.383.254-.357.128-.674.339-.357.231-.51.389-.682.495-1.132.782-4.173 2.017-5.61 2.23-.267.05-.479.031-.637.064-.08.016-.25.094-.503.144-2.24.42-3.957.46-6.147.253-2.566-.257-5.263-1.01-7.436-2.262a249 249 0 0 1-3.907-2.267c-.71-.428-1.023-.84-1.116-.903-.205-.148-.422-.18-.833-.49-1.392-1.018-2.53-2.798-3.045-4.109-.283-.64-.642-1.547-.726-2.227-.103-.54.042-1.836.039-2.08-.015-.149-.127-.223-.106-.403M28.952 64.6c-.205.102 1.025.34.636.14-.088-.043-.584-.163-.636-.14M73.78 37.008l-.174-.005a8 8 0 0 1-.097.367l.192-.18z"/><path fill="#3784ff" d="M50.498 43.784c-.006-.01.057.016.066.012.038-.014.086 0 .131-.006.066-.01.092-.14.482.086l.011.007c.074.043.147.097.23.147s.627.362.645.39c.023.038-.158-.006-.161.006-.002.008.04.043.04.055.002.04-.047.03.063.128l-.24-.098c.02.03-.091-.008-.094.002-.002.007.05.043.047.05s-.075-.017-.08 0c-.006.026.136.114.142.135.005.023-.094-.005-.06.04l.042.033.113.059c.008.017-.07-.023-.079-.017-.01.007.055.052.049.057s-.07-.022-.072-.014c-.005.01.079.056.089.07.004.005.01.064.009.066-.013.016-.126-.047-.149-.041-.063.016-.01.1-.01.149.001.022-.021.032-.054.034-.262-.185-.536-.269-.07-.027-.08-.023.029.057-.007.06-.024 0-.093-.03-.106-.016-.022.025.126.15-.2-.027.026.06-.116.015.154.187.01.017-.178-.063-.21-.068a1 1 0 0 0-.183.013c-.014.006-.037.02-.021.041.02.028.303.203-.057.023.005.035-.013.037-.074.032-.01 0-.062-.03-.064-.027-.005.004.025.032.021.042-.006.016-.12-.039.044.054l.055.07-.104-.046.089.072c-.23-.141-.125-.032.021.037l-.198-.04c-.265-.156-.069.016.08.097l-.006.005c-.089-.026-.047.021-.115.012-.07-.01-.093-.026-.223-.092l.006.026c.312.217-.268-.124-.053.064-.227-.11-.15-.015-.11.042.005.007.046.03.055.041.022.026-.053.015.08.09l-.139-.046.054.059.124.072c-.154-.07-.12-.022-.164-.033-.008-.002-.066-.035-.088-.038-.026-.005-.022.017-.048.014l.18.118c.019.033-.154-.058-.176-.058-.004 0-.021.033-.02.036.016.028.162.107.094.122-.013.003-.067-.021-.075-.017-.015.007.065.1.166.162-.143-.063-.125-.003-.172-.015-.015-.004-.098-.051-.125-.053-.022-.002.024.054.003.056s-.095-.035-.105-.034c-.008.002.043.037.037.042-.02.016-.128-.022-.144-.01-.02.02.123.13.178.187-.015-.002-.055-.019-.06-.015a.9.9 0 0 1-.251.116c-.043.014-.334-.058.058.143.056.046-.163.017-.178.027s.042.058.033.067c-.028.028-.098.02-.076.085.005.017.074.072.068.077-.008.005-.093-.033-.106-.028-.033.012-.047.06-.08.07-.007.002-.076-.035-.102-.043-.103-.03-.119-.005.1.115-.148-.047-.061.039-.079.064-.038.053-.182.106-.137.198.029.057.126.113 0 .1q-.042-.005-.095-.011c-.078-.007-.28-.09-.086.053-.085-.007-.069.036-.275-.051l.125.083-.008.011-.13-.07c-.036.016.104.145.08.163a.7.7 0 0 1-.29.071c-.05-.001.04.052-.156-.046l.026.033.114.077c-.022.022-.113.01-.135.03-.04.036.01.154-.104.148-.03-.002-.126-.04-.135-.03-.013.014.122.097.106.115-.028.03-.25-.01-.268.023-.005.01.042.043.041.052-.002.036-.028.053.027.12-.16-.053-.33-.154-.511-.247-.138-.07-.46-.228-.578-.292-.082-.045-.178-.11-.27-.16-.038-.069.053-.035.204.014l.13-.135.159.072c.075.016-.042-.062-.06-.087-.175-.24.226-.282.363-.357.029-.016.038-.118.132-.086.025.008.1.05.108.048l-.018-.177c.195-.002.181-.128.243-.208.168-.216.323-.435.553-.61.044-.033.04-.11.117-.125.032-.006.158.057.091-.013l.098.055c-.02-.04-.081-.092-.067-.115.012-.02.055-.064.083-.071.015-.004.072.034.08.027q.002-.003.001-.007c0-.021-.042-.08-.026-.094s.114.002.117-.015c.01-.061-.043-.164.034-.19.021-.008.117.022.119.017.003-.01-.07-.056-.074-.066-.021-.053.113-.04.144-.061.102-.072.164-.174.268-.244.066-.044.147-.134.256-.146.024-.003.104.048.113.04.01-.01-.04-.047-.04-.054.003-.048.021-.146.11-.14.018 0 .087.034.09.03.003 0-.038-.03-.036-.038.01-.068.074-.085.14-.12.125-.068.154-.212.3-.275.032-.013.176.048.178.045.004-.008-.078-.062-.086-.086-.025-.08.13-.08.13-.144 0-.03-.08-.12-.084-.153-.002-.026.081-.035.04-.07-.024-.02-.116-.077-.122-.088m.89 1.339c-.148-.09-.054.01.038.046.02.009 0-.023-.038-.046m-1.746 1.14.13.074-.041-.042-.085-.038zm-.383-6.483c-.057-.02-.075-.101-.129-.136-.224-.145-.277-.225-.47-.365-.19-.137-.69-.395-.911-.639-.114-.126-.149-.245-.035-.346l.01-.009c.068-.055.217-.072.302-.129s.547-.474.688-.431a.4.4 0 0 1 .059.025c.19.1.422.376.506.418.063.031.18.036.264.074.272.12.37.223.708.25l.082.314c.145.042.24.214.314.25.062.031.144.008.207.041.07.037.121.142.252.206.215.106.377.016.514.072.143.058.268.23.473.284l.102-.002.052-.107c.095.034.065.11.138.154.086.051.192.023.25.057.048.028.064.109.129.142.095.049.146-.024.208-.008.025.007.425.18.445.192.158.087.074.18.189.258.319.218.748.352 1.094.509.155.07.296.16.422.255-.471.088-.174.54.032.095.101.139.318.111.448.213.066.05.089.114.161.177a.5.5 0 0 0 .075.052c.246.137.677.167.466.449.347.135.489.392.89.305.106.055.136.363.172.477q.014.029.05.112c.118.23.125.762.092.86-.01.11-.051.289-.069.4l-.005.039c-.01.13.273.365-.281.43-.152.234-.235.294-.452.44-.04.026-.095.002-.114.02-.038.035-.065.115-.129.179-.105.105-.276.1-.1.182l-.14.24-.172.014-.007.071-.008.09c-.19-.175-.327.145-.102.145l-.573.287c-.248-.172-.344.254-.17.314l-.05.042c-.214.083-.286.23-.508.354-.221.123-.231.094-.407.069l-.102.119c.123.381-.423.011-.532.48-.33-.02-.508.296-.635.5-.015.023.026.047.009.08-.042.081-.281.212-.142.283l-.308.101-.085.179.125.071c-.247.01-.359.186-.474.238-.023.01-.084-.02-.15.015-.078.041-.172.147-.26.198l.108.181c-.092.13-.304.072-.391.129-.016.01-.247.229-.257.242-.079.11.094.166-.247.418-.061.045-.155.055-.207.098l-.017.016c-.093.093-.227.36-.152.435-.236.019-.493.309-.634.365-.042.017-.125-.03-.237.03-.088.048-.254.246-.405.313-.154.07-.26.04-.333.067-.059.02-.092.074-.163.11a.2.2 0 0 1-.04.017c-.292.092-.587.058-.814.079-.306.028-.605.157-.919.193l-.075.005c-.081-.023-.145-.072-.224-.091-.886-.256-1.317-.637-1.824-.948l-.129-.085c-.239-.159-.673-.692-.831-.312-.145 0-.654-.485-.773-.557-.12-.072-.275-.076-.372-.13-.29-.165-.452-.32-.854-.478-.104-.04-.27-.037-.324-.068-.063-.039-.066-.137-.145-.19-.19-.123-.585-.319-.765-.44-.033-.022.014-.08-.018-.125-.123-.175-.348-.296-.497-.11-.144-.237-.472-.286-.71-.415-.502-.272-1.35-.825-1.855-1.003-.32-.112-.397-.034-.72-.326-.072-.065-.138-.135-.225-.213-.205-.184-.278-.451-.656-.398-.227-.2-.479-.298-.529-.55l-.002-.009-.188.058-.106-.057.078-.114c-.234-.15-.703-.204-.927-.355-.167-.12-.53-.346-.76-.782-.203-.4-.166-.844-.085-1.062.053-.15.03-.209.09-.262a.45.45 0 0 1 .18-.085 1 1 0 0 1 .029-.16 2 2 0 0 1-.089-.133c.191-.283.507-.48.694-.655.192-.178.4-.408.616-.623.174-.172.354-.334.538-.447.104-.063.294-.108.376-.18.12-.107.01-.213.162-.348.261-.233.917-.57 1.155-.795.071-.066.054-.127.1-.174.192-.202.374-.353.5-.579.356-.116.509 0 .75.04l.029.004c.199.03.624.065.753.111.096.034.14.144.25.177a1 1 0 0 1-.175.19c-.144.116-.309.166-.547.247l-1.182 1.049-.254.01c-.21.102-.15.23-.204.318-.199.322-.579.7-1.023 1.086-.488.428-1.133.902-1.234 1.135a.7.7 0 0 0-.07.412.6.6 0 0 0 .105.233c.072.114.318.281.352.37.012.036-.05.095-.016.121.318.155.671.307 1.023.462l.15.065c.647.52 1.503.894 2.272 1.315 2.081 1.14 4.15 2.261 6.14 3.433.275.161.63.33.936.504.123.07.238.14.336.209.142.1.106.23.382.27l-.075.078c.209.063.38.064.555.127.082.03.214.07.308.08.112.016.22.02.278.023.066.004.04.063.106.058.116-.007.32-.12.445-.17l.005-.001c.073-.02.316-.075.409-.156.273-.233.539-.589.882-.892q.084-.075.174-.144c.119-.093.34-.172.373-.203.064-.062.008-.124.044-.17.183-.23.635-.492.867-.688.754-.639 1.507-1.341 2.26-1.976.475-.4 1.238-1.083 1.726-1.424l.007-.005c.101-.067.159-.001.235-.067.086-.075.075-.147.11-.185.257-.263.74-.808.795-.89a.1.1 0 0 1 .02-.012c.036-.022.099-.038.103-.057.003-.011-.049-.041-.05-.076a1.1 1.1 0 0 0-.114-.483.8.8 0 0 0-.219-.252c-.263-.215-.695-.447-1.116-.68-.583-.32-1.184-.645-1.714-.984-.2-.128-.23-.308-.261-.324-.066-.035-.183.007-.332-.052-.495-.197-.997-.604-1.447-.809-.223-.101-.598-.18-.82-.276-.177-.078-.517-.329-.63-.333-.068-.003-.17.057-.232.036m6.663 2.006c-.16.096.252.178.209.051-.01-.028-.168-.077-.209-.051M45.871 51.42l-.098.105q.087.014.175.026l-.01-.099zm2.469-14.324c.022-.003-.002.052.011.062.055.04.045.083.078.126.05.064.3.113-.037.41l-.01.008c-.065.057-.15.11-.224.173s-.54.479-.586.492c-.062.014-.01-.129-.03-.132-.014-.002-.068.03-.087.03-.062.002-.055-.038-.192.055q.066-.094.126-.19c-.042.02.001-.068-.014-.069-.012 0-.056.045-.066.044-.011 0 .014-.058-.01-.056-.012 0-.03.013-.048.03-.044.038-.094.101-.114.109-.028.011-.013-.067-.065-.028l-.033.041-.05.1c-.019.013.014-.056.005-.06-.012-.004-.051.06-.058.057-.006-.002.011-.055 0-.053-.014.001-.046.077-.059.09l-.068.039c-.019 0 .018-.104.004-.116-.027-.023-.076.014-.115.047q-.017.02-.03.034c-.015.014-.028.007-.042-.01.06-.272 0-.484-.005-.058-.017-.06-.04.055-.06.036-.015-.012-.025-.07-.05-.068-.044.006-.087.177-.118-.124-.056.058-.12-.047-.122.221-.015.018-.07-.137-.091-.157a.8.8 0 0 0-.19-.078c-.023-.002-.064-.002-.082.023-.01.016-.014.098-.025.13-.01.028-.026.013-.062-.14-.05.031-.068.024-.12-.01-.009-.005-.014-.053-.02-.052-.01 0-.024.038-.042.044-.03.01-.057-.09-.039.064l-.053.083-.03-.087-.022.1c-.009-.223-.072-.085-.035.04l-.13-.126c-.02-.253-.089-.021-.068.115l-.013.001c-.046-.063-.076-.005-.128-.045s-.05-.066-.076-.18l-.031.023c-.028.324-.07-.229-.148.025-.051-.197-.12-.084-.167-.018-.005.007-.002.046-.009.059-.017.03-.072-.014-.059.11l-.063-.103-.036.073.011.117c-.042-.13-.082-.075-.108-.105-.005-.006-.01-.06-.026-.073-.018-.016-.047.003-.068-.012l-.005.181c-.031.036-.058-.12-.08-.13a.4.4 0 0 0-.073.019c-.026.03-.005.163-.093.142-.016-.003-.032-.048-.046-.05-.025 0-.087.112-.084.21-.04-.119-.114-.061-.14-.094-.009-.01-.018-.088-.04-.103-.02-.011-.058.055-.081.047-.025-.01-.04-.074-.05-.077s-.015.05-.028.05c-.043.003-.089-.078-.122-.076-.049.002-.076.162-.11.235-.01-.01-.024-.042-.034-.041-.13.008-.28-.007-.413-.028-.061-.01-.232-.207-.158.143-.015.064-.181-.064-.21-.063-.03 0-.046.066-.07.069-.068.01-.12-.032-.199.032-.02.016-.036.093-.049.094-.016 0-.04-.071-.06-.074-.048-.006-.135.027-.182.019-.008-.002-.017-.066-.031-.084-.054-.074-.106-.062-.077.14-.07-.109-.115.002-.17.014-.115.024-.333-.003-.426.092-.057.058-.05.144-.138.09l-.013-.008q-.033-.026-.073-.056c-.063-.043-.134-.206-.157.001-.07-.046-.115-.004-.18-.172l-.002.126-.021.005-.022-.118c-.055-.005-.096.166-.132.17a.5.5 0 0 1-.256-.077q-.012-.006-.014-.001c-.01.007-.007.018-.076-.099l-.002.04.044.11c-.03.01-.098-.032-.129-.02-.057.023-.057.144-.155.111-.026-.008-.104-.063-.116-.055q-.005.005.003.02c.02.033.082.097.072.105-.018.016-.227-.046-.258-.005-.008.01.035.047.033.057-.01.04-.044.062 0 .137-.167-.048-.334-.151-.517-.243-.138-.07-.468-.222-.586-.285-.083-.045-.175-.115-.267-.163-.018-.085.082-.06.248-.021.076-.07.16-.144.264-.222l.157.077c.087.012 0-.085.001-.12a.2.2 0 0 1 .032-.106c.11-.211.529-.286.81-.306l.184-.019c.072-.01.27-.104.321-.035.014.018.028.087.04.089l.264-.158c.136.062.26.03.383-.006.055-.017.111-.035.167-.045.481-.093.957-.195 1.437-.224.092-.005.205-.07.298-.044.04.01.066.122.108.033l.01.091c.04-.04.06-.113.108-.125a.7.7 0 0 1 .186-.016c.019.004.017.062.035.06.03-.004.086-.09.127-.093.038-.004.107.056.135.044.1-.044.203-.152.316-.137.031.005.077.075.087.072.018-.006.017-.078.028-.089.06-.053.166.023.23.02.203-.008.415-.06.619-.066.128-.004.34-.038.462.005.027.01.027.088.049.086s.031-.056.042-.062c.063-.031.192-.087.276-.073a.1.1 0 0 1 .04.013c.014.01.03.07.038.07.004-.001.01-.044.023-.05.113-.049.201-.033.323-.029.204.008.476-.078.79-.038q.046.007.09.018c.065.016.068.143.076.142.02 0 .06-.08.108-.093.16-.046.296.076.437.07.049-.001.134-.036.208-.057a.4.4 0 0 1 .093-.013c.068.002.152.085.207.054.034-.018.11-.093.135-.095m-1.857 1.076c.003-.143-.054-.02-.029.054.006.017.029-.017.03-.054m-3.326.067.014.12.023-.052-.023-.072zm3.647-.41c-.001-.015.068.006.082-.002.06-.032.115-.025.18-.048.094-.035.204-.238.594-.013l.012.007c.073.044.139.104.22.155.082.05.627.362.635.4.008.05-.208.037-.22.056-.007.012.028.053.022.072-.02.058-.082.06.009.175l-.264-.077c.01.038-.118.015-.127.03-.007.012.042.05.033.062-.01.013-.09-.004-.106.022-.025.043.114.133.109.165s-.123.02-.103.077l.036.038.117.055c.001.024-.08-.013-.096-.002-.018.014.043.063.031.072-.01.009-.079-.013-.087 0-.013.018.072.062.078.079a1 1 0 0 1-.027.098c-.027.028-.142-.034-.175-.019-.094.043-.073.155-.101.23-.012.032-.048.053-.093.067-.243-.203-.561-.247-.078-.02-.095-.01.004.078-.045.092-.032.008-.107-.016-.133.008-.044.044.08.191-.253.02 0 .08-.164.056.097.236.003.022-.202-.042-.24-.041-.038 0-.23.06-.254.074s-.062.04-.054.069c.006.02.094.084.106.11.01.02-.028.015-.196-.059-.014.052-.04.06-.118.071-.014.002-.066-.026-.07-.023-.009.008.014.042.003.058-.017.026-.138-.023.027.07l.031.09-.111-.04.075.084c-.224-.146-.15-.01.006.05h-.245c-.26-.16-.103.044.047.124l-.013.01c-.104-.014-.078.047-.167.054s-.11-.012-.243-.076l-.01.037c.273.248-.28-.115-.124.116-.23-.108-.197.017-.19.097 0 .009.038.035.041.05.008.034-.092.037.028.123l-.16-.037q.01.04.016.081l.107.085c-.155-.074-.162-.003-.218-.01-.012-.002-.06-.041-.089-.043-.034-.002-.058.032-.096.033q.059.078.114.157c-.024.053-.163-.065-.2-.062a1 1 0 0 0-.097.06c-.026.042.077.154-.087.184-.03.005-.076-.03-.1-.023-.037.009-.101.141-.07.235-.104-.099-.212-.019-.265-.044-.015-.008-.044-.082-.083-.09-.032-.008-.086.067-.126.063s-.07-.066-.087-.068-.02.052-.042.055c-.07.008-.143-.07-.194-.066-.074.005-.135.166-.208.239-.018-.01-.034-.043-.052-.042a2.2 2.2 0 0 1-.668-.106c-.114-.03-.228-.292-.361.06-.079.05-.233-.16-.264-.177-.038-.017-.117.027-.148.016-.096-.036-.12-.102-.265-.102-.038 0-.128.05-.143.042-.017-.01.025-.08.007-.095-.045-.036-.163-.067-.2-.103-.006-.006.047-.06.052-.084.022-.09-.037-.112-.21.059.042-.128-.107-.073-.169-.098-.128-.055-.289-.21-.464-.198-.107.008-.187.077-.208-.02l-.003-.012c-.003-.026-.001-.056-.006-.087-.011-.072.093-.237-.138-.099-.013-.078-.098-.077.016-.243l-.132.09-.025-.01.102-.1c-.045-.04-.265.05-.31.023a.8.8 0 0 1-.243-.299c-.013-.045-.094.022.045-.132l-.06.014-.123.083c-.051-.028-.056-.11-.105-.137-.088-.05-.317-.04-.34-.147-.007-.027.039-.106.016-.118-.032-.017-.16.084-.203.063-.072-.037-.06-.233-.135-.26-.022-.01-.076.025-.094.021-.077-.014-.119-.044-.242-.014.059-.134.213-.261.347-.403.1-.107.323-.36.417-.45.066-.064.172-.134.243-.204.13-.014.092.062.039.188l.323.168-.099.126c-.01.065.116-.02.162-.028.44-.087.659.306.857.459.043.033.258.074.223.153-.01.02-.072.078-.066.086l.362.041c.046.127.181.18.322.228q.1.033.188.07c.492.22 1.024.46 1.323.557.04.014.095-.002.133 0a.12.12 0 0 1 .063.018c.024.016.014.131.071.049l-.016.092c.046-.035.078-.105.116-.112a.5.5 0 0 1 .148-.005c.015.005.014.063.028.061.027-.003.068-.087.098-.092.028-.004.095.051.117.037.066-.044.104-.137.167-.16a.1.1 0 0 1 .022-.003c.017.002.084.058.09.053.007-.008-.038-.07-.038-.08-.004-.053.117-.013.164-.037.144-.072.282-.221.454-.343.11-.077.268-.23.42-.28.034-.011.111.041.129.026s-.027-.058-.022-.068c.026-.062.088-.18.178-.228a.2.2 0 0 1 .052-.017c.022-.003.096.027.102.02.004-.002-.033-.035-.027-.047.055-.106.15-.151.26-.223.207-.14.331-.367.564-.504.05-.03.208.02.212.014.01-.013-.069-.07-.064-.104.014-.115.221-.16.259-.256.018-.047-.037-.159-.022-.207.012-.039.13-.078.095-.118-.02-.024-.11-.082-.112-.098m.402 1.763c-.144-.092-.079.031.024.058.023.007.014-.035-.024-.059m-3.916 1.775-.018.122.053-.05-.013-.074zm4.322.75c-.006-.01.058.015.067.012.038-.014.086 0 .13-.007.067-.01.092-.138.482.087l.012.007c.074.043.146.097.23.147.082.05.626.362.645.39.022.038-.159-.006-.162.006-.002.008.04.043.04.055.003.04-.047.03.063.128l-.24-.098c.02.03-.091-.008-.093.002-.002.007.05.043.046.05s-.075-.017-.079 0c-.007.026.135.114.141.135.006.023-.094-.005-.06.04l.042.033.113.059c.009.017-.07-.023-.078-.017-.011.007.054.052.048.057-.006.004-.069-.022-.072-.014-.005.01.079.056.09.07a.3.3 0 0 1 .008.066c-.013.016-.126-.047-.149-.041-.062.016-.01.1-.009.149 0 .022-.022.031-.054.034-.263-.185-.537-.269-.07-.027-.08-.023.028.057-.008.06-.023 0-.092-.03-.105-.016-.023.025.125.15-.2-.027.025.06-.117.015.154.187.01.017-.178-.063-.21-.068a1 1 0 0 0-.183.013c-.015.006-.038.02-.022.041.02.027.304.203-.057.023.005.035-.013.037-.074.032-.01 0-.062-.03-.064-.027-.005.004.025.032.021.042-.006.016-.12-.039.044.054l.055.07-.103-.046.088.072c-.23-.141-.124-.032.022.037l-.198-.04c-.266-.156-.07.016.08.097l-.007.005c-.088-.026-.046.021-.115.012s-.093-.026-.222-.092l.006.026c.311.217-.268-.124-.054.064-.227-.11-.15-.015-.11.042.005.007.046.03.056.041.021.026-.054.015.08.09l-.14-.046.054.059.124.072c-.154-.07-.12-.022-.163-.033-.01-.002-.067-.035-.088-.038-.026-.005-.023.017-.05.014l.18.118c.02.033-.153-.059-.175-.058-.004 0-.021.033-.02.036.016.028.162.107.094.122-.012.003-.067-.021-.075-.017-.014.007.065.1.166.162-.142-.064-.125-.003-.172-.015-.015-.004-.098-.051-.125-.053-.022-.002.024.054.004.056-.023.002-.096-.035-.105-.034-.01.002.043.037.036.042-.02.015-.127-.022-.144-.01-.02.02.123.13.178.187-.015-.002-.055-.019-.06-.015a.9.9 0 0 1-.251.116c-.043.014-.334-.058.058.143.056.046-.162.017-.178.027s.042.058.033.067c-.028.028-.097.02-.076.085.005.017.075.072.068.077-.008.005-.092-.033-.106-.028-.032.012-.046.06-.08.07-.006.002-.075-.035-.102-.043-.103-.03-.119-.005.101.115-.149-.047-.062.038-.08.064-.037.053-.182.106-.137.197.03.058.127.113.001.102-.028-.003-.062-.01-.095-.012-.079-.007-.282-.09-.087.053-.085-.007-.069.036-.274-.051l.124.083-.007.011-.13-.07c-.037.016.103.145.08.163a.7.7 0 0 1-.292.071c-.048-.001.041.052-.155-.046l.026.033.114.077c-.022.022-.113.01-.135.03-.04.036.01.154-.104.148-.029-.002-.126-.04-.135-.03-.013.014.122.097.106.115-.028.03-.25-.01-.268.023-.005.01.042.043.042.052-.003.036-.028.053.026.12-.16-.053-.33-.154-.511-.247-.137-.07-.46-.228-.577-.292-.083-.045-.18-.11-.27-.16-.039-.069.052-.035.203.014l.13-.135.16.072c.074.016-.043-.062-.06-.088-.176-.24.226-.282.362-.356.03-.016.038-.118.132-.086.025.008.1.05.108.048l-.017-.177c.195-.002.18-.128.243-.208.167-.216.322-.435.552-.61.045-.033.041-.11.117-.125.032-.006.159.057.091-.013l.098.055c-.02-.04-.08-.092-.067-.115.012-.02.055-.064.084-.071.014-.004.071.034.079.027l.002-.007c-.002-.021-.043-.08-.026-.094s.114.001.116-.015c.01-.061-.042-.164.034-.19.021-.008.117.022.119.017.004-.01-.07-.056-.074-.066-.021-.053.113-.04.145-.061.101-.072.164-.174.267-.244.066-.044.147-.134.256-.146.024-.003.104.047.114.04.01-.01-.04-.047-.04-.054.002-.048.02-.146.11-.14.017 0 .087.034.09.03.002-.001-.038-.03-.037-.038.011-.068.075-.086.14-.12.125-.068.154-.213.3-.275.032-.013.176.048.178.045.004-.008-.078-.062-.086-.086-.024-.08.13-.08.13-.144 0-.03-.08-.12-.083-.153-.003-.026.08-.036.04-.07-.025-.02-.117-.077-.123-.088m.89 1.339c-.147-.09-.054.01.038.046.021.008 0-.023-.038-.046m-1.745 1.14.129.074-.041-.042-.084-.039z"/><path fill="#e1ebfb" d="M44.666 27.087 67.462 7.783c2.735-2.315 4.145-5.257 3.92-8.179l-.21-2.723-57.161 17.373v4.579c0 3.2 1.932 6.153 5.3 8.096l3.698 2.136c6.37 3.678 16.019 2.796 21.657-1.979"/><path fill="#3784ff" d="M37.855 29.702c.162-.058.42-.081.616-.143.814-.264 1.128-.35 1.837-.64 1.132-.375 3.635-2.245 3.97-2.063l.011.007c.066.051-.065.274-.017.35.048.077.603.387.3.663-.434.41-1.822 1.117-2.12 1.273-.198.115-.413.287-.676.43-.854.451-1.35.619-2.128 1.043q-.57.094-1.135.158c-.438.168-1.17.261-1.449.327-.228.056-.348.136-.59.187-.273.057-.707.08-1.206.159-.818.125-.954.27-1.458.33-.524.06-1.334.017-2.002.055l-.256.041q.082.054.167.107c-.341.01-.476-.066-.784-.082-.361-.02-.562.031-.806.01-.2-.017-.454-.098-.71-.125-.372-.042-.317.043-.523.03-.086.006-1.563-.222-1.64-.253-.616-.14-.61-.258-1.076-.4-1.29-.401-2.598-.855-3.656-1.405l-.196-.105a21 21 0 0 1-1.101-.654c.916.169-.367-.852-.204-.195-.416-.32-.855-.422-1.285-.695-.277-.177-.423-.34-.837-.576l-.176-.098c-.743-.392-1.534-.8-1.417-1.136-.848-.571-1.282-1.232-1.826-1.33-.19-.174-.389-.741-.511-.966-.17-.2-.98-1.859-1.03-2.148-.105-.278-.252-.77-.34-1.005-.11-.29-.55-.461-.166-1.06a4 4 0 0 1-.064-.93c.008-.148.022-.306.04-.51.01-.104.077-.118.077-.179 0-.124-.05-.334-.056-.556-.01-.365.132-.58-.084-.529l-.109-.718.125-.26-.136-.38c.312.137.128-.76-.051-.458l.136-.986.007-.36.455-.133.573-.13c.034.26 1.36-.382 1.175-.472l.211-.064c.647-.125 1.185-.347 1.955-.533s.712-.142.995-.104l.52-.179c.773-.575.872-.015 2.34-.723.6.031 1.798-.445 2.597-.753.093-.035.076-.072.198-.122.3-.122 1.123-.319 1.037-.426l.882-.152.646-.27-.059-.107c.519-.015 1.21-.28 1.579-.358.073-.015.114.03.34-.023.263-.061.731-.22 1.043-.298l.27-.273c.529-.196.795-.108 1.12-.194a87 87 0 0 0 1.158-.365c.45-.165.255-.25 1.608-.63.24-.068.456-.083.672-.147.382-.113 1.48-.559 1.523-.677.52-.027 1.732-.449 2.112-.527.115-.023.177.042.522-.046.28-.07.956-.342 1.308-.438.374-.102.536-.081.703-.127.158-.043.277-.136.49-.2.664-.2 1.305-.304 1.83-.462.76-.228 1.356-.576 1.957-.833.163-.039.333-.055.498-.105 2.045-.616 4.363-1.29 6.428-1.881.958-.275 3.424-.798 2.625-.933.301-.158 2.772-.756 3.23-.893s.79-.306 1.149-.416c1.083-.332 1.868-.522 3.16-.974.335-.117.664-.297.867-.358.243-.073.54-.085.856-.176.756-.219 2.144-.666 2.87-.873.132-.038.209.007.406-.032.77-.15 1.587-.406 1.346-.55.864-.156 1.597-.45 2.344-.702l1.193-.349.05.882q.018.127.03.255c.058.654.118 1.563.187 2.467.09 1.082-.069 2.17-.192 2.86-.166.817-.003.83-.666 1.983-.155.253-.327.5-.543.797-.51.7-1.202 1.23-1.424 1.83-.485.464-.907.863-1.366 1.187-.22.153-.445.291-.69.41l-.063.243-.269.232-.21-.003c-.66.543-1.312 1.343-1.863 1.807-.923.779-3.363 2.749-4.292 3.455-.494.375-.43.45-.878.565l-.273.286-.075.237c-.593.505-1.361 1.065-1.927 1.545-1.032.876-2.473 2.255-3.582 3.09-.279.21-.687.436-.94.652-.37.314-.323.472-.79.872-.807.69-2.476 1.873-3.23 2.529-.224.195-.28.315-.431.451-.636.572-1.18 1.028-1.734 1.61-.81.496-.921.346-1.303.422-.288.058-1.077.293-1.26.285-.127-.006-.048-.221-.204-.216.743-.73 1.162-.973 1.945-1.459l3.642-3.105.476-.196c.524-.364.6-.605.824-.835 2.15-2.206 7.116-6.11 9.807-8.345.58-.482 2.38-2.1 2.851-2.386.123-.075.224-.055.336-.145l2.773-2.537.2-.155c1.964-1.51 3.16-3.549 3.57-5.534a7.7 7.7 0 0 0 .144-2.29l-.24-2.72.978.418a2121 2121 0 0 1-16.004 4.911c-1.457.44-3.28 1.05-4.72 1.451-.602.168-.904.138-1.645.454l-.068-.077c-.664.24-1.067.437-1.828.676-.64.201-2.342.723-2.916.885-.298.084-.215-.002-.49.082-.47.144-1.44.523-2.09.72-.588.18-1.611.42-2.06.566-1.613.527-3.342 1.157-5.091 1.66-.484.14-1.136.258-1.285.306-.292.093-.345.186-.538.255-.98.347-2.58.743-3.564 1.038-3.203.962-6.577 2.02-9.768 2.976-1.37.41-3.349 1.016-5.068 1.524l.54-.574a45 45 0 0 1-.049 1.64c-.016.307-.127.23-.127.487 0 .283.075.434.081.566.02.45.05 1.17.064 1.887.012.704.133 1.396.198 1.81.024.154-.03.281-.002.373.014.046.103.138.158.28.505 1.246 1.016 2.124 1.968 3.181.696.755 1.604 1.47 2.672 2.075 1.23.699 2.49 1.411 3.716 2.12.6.346 1.231.655 1.878.924.662.276 1.079.534 1.181.566.225.065.414.033.882.131 1.54.342 3.71.652 5.288.549.778-.037 1.827-.237 2.561-.378.592-.094 1.982-.368 2.213-.491.142-.068.173-.17.348-.234m-19.341-2.485c.216-.053-.794-.543-.534-.266.058.064.475.282.534.266M48.43 3.455l-.089-.103-.419.181.284-.008z"/><path fill="#e1ebfb" d="M18.373 23.35c-6.433-3.715-7.104-10.676-1.498-15.55L40.56-12.788c5.607-4.873 15.366-5.813 21.8-2.099l3.976 2.297C72.77-8.877 73.44-1.916 67.834 2.958L44.148 23.547c-5.606 4.873-15.365 5.813-21.798 2.099z"/><path fill="#3784ff" d="M12.102 13.564c.019-.166.146-.393.203-.584.25-.804.422-1.092.788-1.79.394-1.085 2.918-3.902 3.39-3.616l.01.007c.063.052-.093.31-.04.388s.628.357.362.66c-.408.428-1.442 1.451-1.587 1.714-.113.174-.19.403-.31.63-.375.727-.59 1.115-.644 1.809a10 10 0 0 0-.495.792c-.039.36-.227.907-.232 1.13-.006.181.064.285.066.472.003.21-.07.539-.015.92.1.622.327.7.44 1.056.12.37.22.969.507 1.408l.145.153.076-.162c.132.22.092.344.207.55.139.24.302.328.407.484.086.127.14.325.27.486.19.232.245.137.365.252.033.056.917.893.985.93.396.347.323.449.657.72a8.6 8.6 0 0 0 1.32.851c.692.37 1.387.723 2.026 1.067.492.265.986.558 1.448.847-1-.218.47.912.237.214q.13.096.26.173c.372.221.755.327 1.156.534.321.163.507.317 1.009.506.895.34 2.017.435 2.146.785 1.166.208 2.187.42 2.682.187.305.012 1.069.208 1.423.229.325.064 2.91-.043 3.33-.147.42-.057 1.149-.195 1.485-.3.43-.132.598-.455 1.494-.386.852-.303 1.153-.408 1.941-.702.142-.055.19-.021.27-.057.165-.075.417-.235.695-.382.459-.244.792-.316.616-.406q.408-.28.786-.579.184-.061.369-.128.172-.184.332-.37c.06.277.887-.56.447-.398q.219-.148.432-.304l1.15-.848c.2.214 1.091-.903.851-.905l.166-.143c.555-.38.941-.8 1.579-1.285.637-.485.608-.421.91-.506l.395-.374c.39-.828.846-.379 1.834-1.612.61-.224 1.48-1.142 2.068-1.745.068-.07.028-.095.116-.19.216-.232.898-.748.744-.806l.77-.502.46-.506-.126-.07c.5-.23 1.009-.75 1.32-.973.063-.044.132-.021.32-.162.219-.164.576-.5.834-.697l.089-.352c.394-.393.712-.427.976-.638.047-.038.861-.763.902-.804.337-.333.09-.325 1.175-1.224.193-.16.394-.263.566-.41.303-.258 1.094-1.107 1.062-1.228.493-.242 1.412-1.117 1.736-1.345.098-.068.2-.038.483-.259.23-.179.718-.699 1.002-.93.302-.245.475-.295.61-.405.127-.104.184-.235.352-.38.524-.453 1.087-.812 1.501-1.17l.02-.016c.57-.498.844-1.049 1.138-1.528.107-.108.238-.205.332-.325 1.183-1.488 1.95-3.371 2.036-5.056.126-.78-.039-2.747-.413-2.148-.088-.254-.692-2.13-.975-2.447-.215-.33-.487-.55-.69-.791-.623-.724-1.078-1.248-2.16-1.938-.283-.176-.654-.305-.822-.406a2 2 0 0 1-.17-.122c-.144-.112-.287-.244-.485-.363-.668-.4-1.953-1.11-2.592-1.496-.117-.07-.1-.145-.25-.26a7 7 0 0 0-.476-.33c-.437-.278-.863-.428-.893-.254-.746-.519-1.68-.753-2.561-1.006-1.831-.624-5.638-.93-7.425-.57-1.117.196-1.067.251-2.695.541-.36.072-.72.145-1.15.257-1.003.26-1.999.485-2.537.988-1.036.447-1.723.93-2.53 1.273a9 9 0 0 0-.1.249q-.154.117-.302.238l-.214-.002a5 5 0 0 0-.361.314c-.608.578-1.206 1.27-1.714 1.71-1.025.888-3.726 3.14-4.753 3.95-.545.43-.483.506-.963.655l-.307.323-.094.258c-.66.575-1.506 1.22-2.134 1.767-1.146.998-2.756 2.56-3.981 3.518-.307.24-.752.506-1.034.752-.41.359-.371.526-.89.981-.896.785-2.734 2.15-3.573 2.896-.249.222-.315.354-.484.509-.708.65-1.313 1.17-1.934 1.825-.887.578-.993.422-1.4.525-.308.078-1.154.375-1.345.376-.135 0-.037-.235-.201-.22.832-.826 1.289-1.11 2.146-1.676l4.045-3.537.515-.238c.576-.42.671-.683.923-.943 2.413-2.489 7.906-6.957 10.891-9.508.643-.55 2.649-2.387 3.164-2.721.134-.087.24-.071.363-.174l1.737-1.618q.707-.656 1.529-1.245c2.73-1.7 6.176-2.956 9.726-3.267 4.147-.383 8.367.44 11.493 2.243q2.003 1.14 3.995 2.28c2.695 1.532 4.577 3.762 5.257 6.217.38 1.265.487 2.954.118 4.238-.152.535-.364.735-.522 1.44h-.132c-.203.602-.303 1.002-.7 1.65-.304.555-1.444 1.918-1.93 2.32-.238.215-.213.101-.433.301l-.148.135c-.39.362-.996.983-1.448 1.376-.463.403-1.313 1.041-1.66 1.357-1.247 1.135-2.54 2.41-3.935 3.582-.386.324-.95.7-1.066.805-.226.203-.219.307-.364.447-.74.714-2.058 1.73-2.834 2.4-2.53 2.18-5.163 4.518-7.683 6.689-1.25 1.076-3.131 2.722-4.617 3.978-.43.364-.854.678-1.233.932-.384.253-.357.128-.675.338-.358.231-.512.388-.684.494-1.135.781-4.183 2.012-5.621 2.222-.269.05-.48.031-.638.063-.08.017-.25.094-.504.143-2.245.416-3.962.454-6.153.241-2.55-.262-5.226-1.012-7.387-2.257a251 251 0 0 1-3.915-2.27l-.054-.033c-.698-.424-1.01-.83-1.101-.892-.206-.148-.423-.18-.835-.49-1.395-1.017-2.537-2.799-3.054-4.11-.284-.64-.644-1.547-.729-2.228-.104-.542.04-1.838.037-2.082-.015-.15-.127-.223-.106-.403M25.608 26.42c-.206.101 1.024.343.636.141-.088-.043-.584-.164-.636-.141M70.481-1.161l-.174-.005q-.044.184-.098.367.098-.09.192-.18.042-.09.08-.182"/><path fill="#3784ff" d="M48.686 9.155c-.009-.008.05.022.056.022.023-.001.065.018.096.023.047.007.012-.07.403.155l.011.007q.11.066.236.142c.083.049.627.362.652.384.034.03-.122-.037-.12-.03.002.005.048.036.054.044.018.025-.024.01.1.095l-.223-.113c.028.023-.072-.024-.07-.018.002.004.056.038.056.041 0 .005-.064-.026-.06-.017.006.016.15.102.163.117s-.073-.023-.029.013l.046.03.11.06c.014.013-.062-.028-.067-.026s.064.044.06.046c-.001.002-.06-.028-.06-.024.001.006.084.053.097.063l.034.045c-.003.007-.115-.057-.13-.058-.041-.003.034.062.055.094.01.014-.004.015-.027.01-.277-.173-.52-.283-.065-.032-.07-.03.046.043.02.037-.018-.005-.083-.038-.087-.032-.007.011.158.123-.164-.059.044.043-.082-.014.195.152.014.012-.161-.077-.188-.088a1 1 0 0 0-.134-.03c-.008.002-.02.005.001.023.026.021.315.192-.034.002.018.024.005.021-.043.006-.008-.003-.06-.032-.06-.031-.002.001.032.025.034.031.002.009-.108-.05.055.044l.072.056-.098-.051.096.064c-.233-.138-.107-.046.032.028l-.167-.066c-.266-.155-.046-.004.101.078l-.003.002c-.078-.035-.026.004-.082-.016s-.082-.036-.207-.105l.015.018c.327.203-.255-.135-.015.03-.217-.118-.12-.041-.065.004.006.005.047.029.059.037.027.021-.035-.002.098.075l-.125-.059.065.049.124.072c-.146-.078-.1-.04-.137-.055-.008-.003-.066-.036-.084-.043-.021-.008-.01.006-.03-.001l.185.113c.029.025-.14-.07-.157-.074-.003 0-.003.017 0 .02.023.02.167.101.121.097-.008-.001-.06-.028-.064-.027a1 1 0 0 0 .193.138c-.134-.07-.095-.027-.137-.046-.012-.005-.095-.052-.116-.06-.018-.005.04.04.025.037-.016-.003-.086-.042-.093-.043s.048.033.045.035c-.01.005-.106-.041-.114-.037-.01.006.147.108.213.157-.012-.005-.05-.024-.052-.023a.3.3 0 0 1-.143.022c-.027 0-.278-.106.104.104.061.04-.117-.023-.124-.02-.008.004.055.046.052.05-.009.012-.066-.008-.022.039.011.012.087.061.083.063-.004.001-.084-.04-.092-.04-.02 0-.01.029-.031.028-.004 0-.072-.038-.096-.049-.09-.04-.093-.028.125.095-.133-.061-.031.012-.034.024-.007.026-.095.03-.023.098.046.043.143.098.043.065l-.078-.028c-.062-.02-.25-.115-.043.016-.068-.022-.038.01-.23-.09l.129.08-.001.005-.128-.071c-.022.002.138.113.128.12-.016.012-.121.006-.192-.015-.038-.011.052.041-.137-.062l.033.027.12.073c-.009.009-.083-.018-.091-.01-.016.015.072.101-.018.073-.023-.007-.112-.05-.115-.046-.005.005.133.087.128.095-.009.014-.194-.059-.194-.041 0 .005.05.036.053.042.013.023 0 .028.07.082-.144-.067-.315-.167-.491-.264-.134-.074-.445-.242-.56-.307-.082-.046-.182-.108-.272-.159-.058-.052.025-.011.16.052l.044-.06.15.08c.064.026-.058-.05-.082-.069-.232-.19.055-.133.128-.152.016-.005-.02-.068.065-.028.022.01.097.053.102.053l-.087-.117c.148.04.085-.044.099-.082.038-.103.065-.211.167-.275.02-.012-.015-.062.038-.055.021.002.144.07.063.01l.097.056c-.03-.03-.1-.076-.098-.088 0-.01.015-.03.034-.028.01 0 .069.037.071.034.005-.005-.067-.063-.06-.07.007-.006.087.025.082.015-.017-.037-.1-.114-.053-.115.013 0 .099.039.098.036-.001-.005-.076-.05-.084-.058-.038-.038.07-.001.085-.009.047-.024.053-.077.102-.1.032-.014.056-.055.134-.04.017.003.1.052.103.049.004-.004-.05-.038-.052-.043-.019-.03-.045-.089.025-.067.013.005.08.04.082.04 0-.001-.042-.028-.045-.033-.02-.041.022-.04.057-.048.067-.017.03-.103.115-.113.018-.002.153.067.153.066 0-.004-.085-.056-.1-.073-.053-.057.065-.025.038-.065-.012-.02-.11-.094-.127-.115-.012-.017.047-.006.002-.037-.028-.018-.12-.073-.13-.082m1.232 1.042c-.149-.088-.037-.005.049.038.019.009-.01-.015-.049-.038m-.854.366.129.074-.049-.036-.08-.042zm1.313-2.879c-.008-.007.051.023.056.022.023 0 .066.018.097.023.046.008.012-.07.402.156l.012.007q.11.066.235.141c.084.05.627.362.653.384.033.03-.122-.036-.12-.03s.048.036.053.044c.018.026-.023.01.101.095l-.223-.113c.028.024-.073-.024-.07-.018.001.004.056.038.056.042s-.065-.027-.06-.017c.005.016.15.101.163.116.014.016-.074-.023-.03.013l.047.03.11.061c.014.013-.062-.029-.067-.027s.063.045.06.047c-.002.001-.06-.029-.06-.025.001.007.083.053.097.063l.034.045c-.003.008-.115-.056-.13-.058-.041-.002.034.063.055.094.009.014-.004.016-.028.01-.276-.173-.52-.283-.064-.031-.07-.031.045.042.019.036-.017-.004-.082-.037-.087-.031-.007.01.158.122-.163-.06.044.044-.082-.014.195.152.014.013-.162-.077-.188-.087a1 1 0 0 0-.134-.03c-.008.001-.02.005 0 .022.027.022.316.193-.033.003.018.023.005.02-.043.005-.009-.003-.06-.032-.06-.031-.002.002.032.026.033.031.002.01-.107-.05.056.044l.071.056-.098-.05q.05.03.097.064c-.233-.138-.107-.046.032.028l-.167-.066c-.266-.156-.046-.005.1.078l-.002.001c-.078-.035-.026.004-.083-.016-.056-.02-.08-.036-.207-.104l.016.017c.327.204-.256-.135-.015.03-.218-.118-.12-.041-.065.004l.059.038c.026.02-.035-.002.098.074l-.125-.058.065.048.124.072c-.146-.077-.1-.039-.138-.055-.007-.003-.065-.036-.083-.043-.021-.008-.01.006-.03 0l.185.112c.028.025-.141-.07-.158-.074-.002 0-.002.017 0 .02.024.02.167.101.122.097-.008-.001-.06-.028-.064-.027a1 1 0 0 0 .193.138c-.134-.07-.096-.027-.137-.045-.013-.006-.095-.053-.117-.06-.017-.005.041.04.026.037s-.087-.042-.093-.043c-.007-.002.047.032.045.034-.01.005-.106-.04-.114-.036-.011.005.147.107.213.156-.013-.005-.05-.024-.052-.022a.3.3 0 0 1-.143.022c-.027 0-.278-.107.103.103.062.041-.116-.022-.123-.02-.008.004.055.046.052.05-.01.013-.066-.008-.023.039.012.012.087.062.084.063-.004.002-.084-.04-.092-.04-.02.001-.01.03-.032.029-.004 0-.072-.039-.095-.05-.09-.04-.093-.028.124.095-.133-.061-.03.012-.034.024-.006.026-.094.03-.022.098.046.043.143.099.043.065l-.078-.027c-.062-.021-.25-.116-.044.016-.067-.023-.037.008-.23-.09l.13.079-.001.006-.128-.072c-.022.002.138.114.128.12-.016.012-.121.006-.192-.015-.038-.01.052.042-.137-.062q.016.014.033.027l.119.073c-.008.01-.082-.017-.09-.01-.016.016.071.102-.019.074-.022-.007-.111-.051-.114-.047-.005.006.133.087.128.095-.009.014-.194-.058-.194-.04 0 .004.05.036.053.041.013.023 0 .028.07.083-.144-.068-.315-.168-.491-.265-.134-.073-.445-.242-.56-.307-.082-.046-.183-.108-.272-.158-.058-.052.025-.012.16.05l.044-.058.15.079c.064.026-.058-.049-.082-.069-.232-.19.055-.133.128-.152.016-.004-.02-.068.065-.028.022.01.097.053.102.054l-.087-.117c.148.04.085-.045.099-.083.038-.103.064-.21.167-.274.02-.013-.015-.063.037-.056.022.003.145.07.064.01l.097.056c-.031-.03-.1-.076-.099-.088.002-.01.016-.03.035-.028.01.001.068.037.071.034.004-.005-.068-.063-.06-.07.006-.005.087.025.082.015-.017-.037-.1-.114-.053-.115.013 0 .098.04.098.037-.001-.006-.076-.05-.084-.058-.038-.039.07-.002.084-.01.048-.024.053-.076.103-.1.032-.014.056-.055.134-.04.017.003.099.053.103.05.004-.004-.05-.039-.053-.043-.018-.03-.045-.09.026-.067.013.004.08.04.081.039s-.042-.028-.044-.033c-.02-.04.021-.039.057-.048.067-.016.03-.103.114-.112.019-.003.154.067.154.065 0-.004-.085-.056-.1-.073-.053-.056.064-.024.038-.065-.013-.02-.11-.093-.127-.115-.012-.017.047-.006.001-.037-.027-.018-.12-.073-.13-.082m1.233 1.042c-.149-.088-.037-.005.048.038.02.01-.01-.015-.048-.038m-.855.366.13.074-.05-.035-.08-.043zm-1.034-.55c.025.002-.001.058.015.07.07.057.065.104.118.162.079.087.462.215.122.51l-.01.01c-.066.055-.164.1-.242.162s-.547.475-.612.476c-.09-.002-.104-.185-.139-.197-.024-.009-.092.014-.125.006-.109-.027-.121-.08-.314-.022l.094-.213c-.068.002-.046-.103-.075-.113-.023-.008-.083.027-.106.017-.026-.01-.009-.076-.059-.094-.08-.028-.22.075-.277.065-.06-.01-.057-.108-.156-.1l-.062.024-.08.09c-.043-.002.01-.065-.014-.08-.028-.02-.104.026-.124.014-.016-.01.011-.065-.013-.075-.035-.014-.1.052-.13.053-.011.001-.173-.036-.18-.039-.056-.028.037-.115.003-.147-.093-.087-.291-.088-.428-.124a.26.26 0 0 1-.139-.091c.325-.173.352-.438.025-.063.002-.08-.141-.01-.174-.054-.021-.03.01-.09-.038-.115-.085-.045-.33.036-.076-.22-.146-.013-.13-.149-.41.044-.04-.001.042-.165.034-.199a1.2 1.2 0 0 0-.176-.229c-.03-.022-.084-.06-.133-.057-.062.002-.341.21-.107-.085-.097-.022-.115-.044-.148-.113-.006-.013.036-.052.03-.056-.016-.009-.073.005-.104-.007-.05-.02.018-.114-.119.012l-.157.012.052-.089-.135.051c.223-.167-.006-.124-.089-.002l-.04-.207c.242-.198-.094-.094-.21.023l-.019-.012c.007-.086-.095-.071-.121-.146-.027-.076.002-.092.089-.197l-.066-.012c-.378.208.146-.226-.223-.113.139-.187-.072-.168-.202-.163-.016.001-.052.032-.074.035-.055.007-.082-.075-.195.027l.025-.13-.124.018-.108.095c.082-.131-.03-.127-.033-.171 0-.01.048-.053.042-.077-.007-.027-.065-.039-.077-.068l-.198.125c-.079-.003.05-.14.032-.166a1 1 0 0 0-.117-.05c-.067-.003-.18.111-.274.018-.017-.016.009-.064-.009-.076-.031-.023-.233.002-.33.075.07-.122-.088-.147-.088-.194 0-.014.07-.078.054-.109-.012-.025-.134-.012-.155-.038-.023-.029.025-.088.014-.1-.01-.012-.072.023-.09.011-.059-.036-.035-.135-.081-.164-.066-.042-.271.049-.393.071-.005-.016.012-.051-.002-.06a4 4 0 0 1-.518-.388c-.072-.062-.09-.356-.36-.04-.086.033-.173-.207-.212-.233-.04-.025-.13.007-.164-.011-.1-.055-.128-.131-.298-.156-.044-.006-.147.035-.164.023-.021-.013.022-.085-.002-.105-.059-.048-.207-.102-.26-.15-.01-.009.044-.062.045-.088.006-.1-.074-.138-.25.033.022-.142-.154-.103-.238-.143-.18-.086-.439-.3-.663-.314-.141-.01-.223.065-.285-.076-.014-.032-.022-.068-.039-.105-.04-.089.038-.27-.214-.143-.046-.097-.156-.11-.065-.29l-.14.085-.038-.017.099-.102c-.073-.057-.33.014-.398-.028-.116-.07-.36-.295-.423-.403-.033-.057-.115.01.013-.15l-.073.006-.131.078c-.078-.043-.113-.142-.186-.184-.133-.075-.429-.105-.497-.237-.017-.033.014-.12-.02-.139-.048-.026-.18.073-.243.04-.107-.057-.16-.29-.268-.337-.032-.015-.09.017-.116.01-.105-.031-.17-.074-.32-.06.029-.151.186-.277.31-.424.094-.111.296-.377.387-.469.064-.064.177-.13.246-.202.166.007.141.091.117.234l.48.259-.084.134c.011.077.145-.003.202-.005.545-.027.968.484 1.281.704.068.047.363.135.345.224-.005.023-.066.081-.055.092l.487.113c.153.235.5.314.771.449.736.363 1.474.715 2.14 1.123.13.078.345.133.443.234.04.043-.041.147.107.12l-.082.074c.096.007.2-.026.275.008.064.029.222.114.263.153.021.02-.041.06-.016.075.043.024.207.013.266.047.053.03.083.135.132.151.18.058.43.073.563.185.037.031.024.123.04.129.03.012.105-.041.13-.038.135.015.197.165.283.219.28.176.615.328.892.505.174.112.489.277.607.417.026.03-.056.088-.026.105.034.02.101-.012.12-.007.138.04.429.136.482.239.01.02-.033.077-.02.084.005.003.057-.023.08-.016.2.065.298.154.446.26.285.2.716.345 1.002.566.063.049-.001.175.01.18.024.01.114-.048.177-.038.209.031.326.216.504.264.088.024.28-.005.369.016.071.017.162.124.228.101.04-.014.129-.08.157-.08m-3.106.049c.14-.109-.07-.073-.102.01-.008.019.065.018.102-.01M42.07 5.639l-.11.099.088-.017.044-.072zm-9.711.222c.017-.003-.02.046-.014.054.03.033.01.071.027.109.025.056.249.092-.091.387l-.01.009c-.066.056-.15.11-.225.172-.076.063-.547.475-.593.487-.063.014-.009-.13-.029-.134-.014-.002-.07.028-.09.027-.067-.003-.057-.043-.212.037l.14-.187c-.049.013.003-.074-.014-.077-.013-.003-.068.036-.08.032-.015-.004.02-.06-.009-.065-.047-.009-.18.098-.216.1-.038.002-.002-.077-.074-.054l-.053.03-.087.088c-.028.004.03-.055.019-.064-.013-.01-.082.04-.092.034-.008-.005.03-.054.017-.058-.02-.005-.088.059-.11.065a1 1 0 0 1-.112 0c-.03-.013.065-.098.053-.118-.025-.04-.106-.032-.18-.027-.315-.312-.551-.739-.095-.986q-.002-.03.003-.055c.005-.027.034-.042.072-.05.253.193.548.258.074.024.087.016-.018-.068.025-.075.027-.005.1.023.118.004.033-.033-.104-.17.225.006-.014-.07.138-.035-.128-.21-.006-.02.19.053.225.055a1 1 0 0 0 .216-.042c.019-.01.049-.03.036-.054-.015-.031-.296-.209.073-.036.004-.043.025-.048.094-.05.013-.001.064.028.067.025.007-.006-.02-.037-.013-.05.012-.02.13.032-.036-.06l-.044-.08.107.043-.082-.077c.227.143.135.022-.015-.043l.219.021c.264.158.084-.028-.067-.108l.01-.007c.095.02.059-.033.136-.03.078.001.1.019.233.082v-.03c-.301-.227.276.116.08-.088.232.105.17-.002.138-.068-.003-.007-.044-.031-.052-.043-.018-.028.066-.025-.068-.1l.148.037-.045-.065-.125-.071c.16.066.134.01.181.017.01.002.068.034.092.036.028.001.03-.025.06-.025l-.176-.122c-.013-.038.162.052.188.048a.2.2 0 0 0 .032-.047c-.01-.032-.157-.11-.074-.139.015-.005.072.017.082.011.019-.01-.048-.115-.147-.178.147.06.143-.014.195-.005.016.003.099.05.13.049.025-.002-.013-.064.011-.07.027-.005.101.03.113.027.01-.002-.04-.04-.031-.046.028-.022.142.01.164-.008.033-.024-.106-.143-.155-.207.017 0 .059.016.066.01a1.5 1.5 0 0 1 .323-.178c.054-.023.372.025-.028-.17-.052-.048.194-.044.214-.058s-.033-.066-.02-.079c.04-.038.119-.037.113-.116-.002-.02-.067-.079-.058-.085.01-.008.098.028.115.02.04-.02.07-.082.112-.1.008-.002.077.035.106.041.111.022.137-.01-.085-.13.16.04.082-.055.11-.089.058-.071.241-.157.214-.264-.018-.068-.115-.123.027-.126.031 0 .07.003.107.002.09-.002.302.071.115-.078.097-.003.09-.055.304.025l-.121-.086.012-.015.13.07c.048-.026-.079-.165-.047-.191a1 1 0 0 1 .358-.13c.056-.004-.033-.058.167.037l-.021-.038-.111-.08c.031-.03.134-.027.165-.055.056-.05.03-.19.162-.198.033-.002.135.03.148.018.019-.019-.115-.103-.091-.128.04-.041.286-.021.316-.065.01-.014-.036-.048-.033-.06.013-.045.047-.069.003-.145.17.044.339.146.524.236.14.068.47.219.589.282.083.044.176.113.269.16.026.08-.071.052-.233.012l-.189.186-.163-.068c-.082-.01.031.072.045.1.137.274-.34.381-.519.493-.038.024-.077.152-.177.125-.026-.007-.103-.048-.112-.045l-.029.217c-.226.03-.245.185-.34.292-.253.29-.493.585-.808.833-.061.048-.078.143-.17.171-.039.012-.169-.048-.11.03l-.098-.055c.012.046.068.103.046.134a.4.4 0 0 1-.117.099c-.018.006-.074-.032-.084-.023-.018.017.026.1 0 .122-.023.02-.132.014-.14.036-.028.076.005.196-.091.24-.027.012-.13-.012-.133-.006-.007.013.065.06.067.072.01.063-.142.065-.184.096-.138.103-.239.239-.378.34-.088.064-.207.186-.337.217-.029.007-.108-.045-.12-.034-.016.013.033.053.03.061-.016.06-.064.184-.166.19-.02.001-.091-.031-.096-.027-.003.003.036.034.032.043-.031.086-.11.117-.195.17-.148.09-.222.247-.37.348l-.073-.753q.023.017.042.036c.026.028-.062.14-.055.142.013.004.095-.057.136-.06.135-.012.154.116.262.123.053.004.197-.052.252-.05.044 0 .07.07.125.04.033-.018.118-.087.137-.09m-1.744-.268c.146.09.066-.02-.032-.052-.021-.008-.006.029.032.052m2.34-1.657-.13-.073.036.046.087.036zm9.555-6.899c.017-.003-.02.046-.014.054.029.033.01.071.027.109.025.056.249.092-.092.387l-.01.01c-.065.055-.15.109-.224.171-.076.063-.547.475-.593.487-.063.014-.009-.13-.03-.134-.013-.002-.069.028-.09.027-.066-.003-.056-.043-.211.037l.14-.187c-.049.014.002-.074-.014-.077-.014-.003-.068.036-.08.032-.015-.004.02-.06-.009-.065-.047-.009-.18.098-.217.1s-.002-.077-.074-.054l-.052.031-.087.087c-.029.005.03-.055.019-.063-.014-.01-.083.039-.092.033s.03-.054.016-.058c-.02-.005-.087.059-.109.065a1 1 0 0 1-.113 0c-.029-.013.066-.098.054-.118-.026-.04-.106-.032-.18-.027l1.382-.133a.2.2 0 0 1-.002.055c-.006.027-.034.042-.073.05-.253-.193-.548-.258-.074-.024-.087-.017.018.067-.025.075-.027.005-.1-.023-.118-.004-.033.033.104.17-.225-.006.014.07-.138.035.128.21.006.02-.19-.053-.224-.055a1 1 0 0 0-.217.041c-.018.01-.049.03-.036.055.015.031.296.209-.072.036-.005.043-.026.048-.095.05-.013.001-.064-.028-.067-.025-.007.006.02.037.013.05-.011.02-.129-.032.036.06l.044.08-.107-.043.083.077c-.228-.143-.136-.022.014.043l-.218-.021c-.265-.158-.084.028.066.108l-.01.007c-.095-.02-.059.033-.136.03-.077-.001-.1-.019-.233-.082v.03c.301.227-.276-.116-.08.088-.232-.105-.17.002-.138.068.004.007.045.031.052.043.019.028-.066.025.068.1l-.148-.037.045.065.125.071c-.16-.066-.133-.01-.181-.017-.01-.002-.067-.034-.092-.036-.028-.002-.03.025-.06.025l.176.122c.013.038-.162-.052-.187-.048a.2.2 0 0 0-.033.047c.01.032.158.11.074.138-.015.005-.072-.016-.082-.01-.019.01.048.115.148.177-.148-.058-.144.015-.196.005-.015-.002-.099-.05-.13-.048-.024.002.014.064-.011.07-.027.005-.101-.03-.112-.028-.011.003.039.04.03.047-.028.022-.141-.01-.164.008-.032.024.106.143.155.207-.017 0-.059-.016-.066-.01a1.5 1.5 0 0 1-.323.178c-.054.023-.371-.025.028.17.052.048-.193.044-.214.058s.033.066.02.078c-.04.04-.119.038-.112.117.002.02.067.079.058.085-.011.008-.098-.028-.116-.02-.04.02-.07.082-.112.1-.008.002-.077-.035-.106-.041-.111-.023-.136.01.085.13-.16-.04-.082.055-.11.089-.058.071-.24.157-.213.264.017.068.115.123-.027.126q-.05-.002-.108-.002c-.089.002-.301-.071-.114.078-.097.003-.09.054-.305-.025l.121.086-.011.015-.132-.07c-.047.026.08.165.048.191a1 1 0 0 1-.358.13c-.056.004.033.058-.167-.037l.021.038.111.08c-.031.03-.133.027-.164.055-.057.05-.031.19-.162.198-.033.002-.135-.03-.148-.018-.02.019.114.103.09.128-.04.041-.286.021-.316.065-.01.013.037.048.033.06-.013.045-.047.069-.002.145-.171-.044-.34-.146-.525-.236-.14-.068-.47-.22-.589-.282-.083-.044-.176-.113-.269-.16-.025-.08.072-.052.233-.012l.189-.186.163.068c.083.01-.03-.072-.045-.1-.136-.274.34-.382.52-.493.038-.024.076-.152.177-.125.026.007.102.048.111.045l.029-.217c.227-.03.245-.185.34-.292.253-.29.494-.585.809-.833.06-.048.078-.143.17-.171.038-.012.168.048.11-.03l.097.055c-.012-.046-.068-.103-.045-.134a.4.4 0 0 1 .116-.099c.018-.006.074.032.084.023.018-.017-.026-.1 0-.122.023-.02.132-.014.14-.036.028-.076-.005-.196.091-.24.027-.012.13.012.133.005.007-.012-.065-.06-.067-.071-.01-.063.142-.065.184-.096.138-.103.239-.239.379-.34.088-.064.206-.186.337-.217.028-.007.107.045.12.033.015-.012-.033-.052-.031-.06.016-.06.064-.184.166-.19.02-.001.092.031.096.026.003-.002-.036-.033-.032-.042.032-.086.11-.117.196-.17.147-.09.221-.247.37-.349.19-.28.678-.22 1.057-.101q.023.017.041.036c.027.028-.06.14-.055.142.014.004.096-.057.137-.06.135-.012.154.116.261.123.054.004.197-.052.253-.05.044 0 .07.07.125.04.032-.018.118-.087.137-.09m-1.039.843c-.146-.09-.065.02.032.052.022.007.006-.029-.032-.052m-2.34 1.657.13.073-.035-.046-.087-.036z"/></g><defs><clipPath id="a"><path fill="#fff" d="M0 24.658C0 11.04 11.04 0 24.658 0h41.426c13.618 0 24.658 11.04 24.658 24.658v41.426c0 13.618-11.04 24.658-24.658 24.658H24.658C11.04 90.742 0 79.702 0 66.084z"/></clipPath></defs></svg>