<svg xmlns="http://www.w3.org/2000/svg" width="1102" height="156" fill="none" viewBox="0 0 1102 156"><path fill="#231f20" d="M0 6.139h13.392v108.707H0zM32.326 6.139h13.392v19.857C51.537 15.56 69.639 3.922 89.404 3.922c7.204 0 14.316 1.016 19.857 3.14 5.45 2.125 10.16 5.265 13.947 9.421s6.65 9.42 8.682 15.794c1.939 6.28 2.955 13.576 2.955 21.797v60.772h-13.392V55.551c0-6.65-.739-12.376-2.217-17.271-1.477-4.895-3.694-8.959-6.557-12.284s-6.465-5.726-10.806-7.296c-4.249-1.57-9.144-2.31-14.686-2.31-6.372 0-12.099.924-17.178 2.864s-9.421 4.618-13.023 8.127a35 35 0 0 0-8.22 12.377c-1.94 4.71-2.863 10.067-2.863 15.886v59.295H32.51V6.139zM253.492 37.541c2.771-6.927 6.558-12.93 11.453-18.01 4.895-4.987 10.714-8.867 17.456-11.545s14.223-4.064 22.351-4.064 15.516 1.386 22.259 4.156c6.742 2.771 12.561 6.65 17.456 11.545 4.987 4.988 8.774 10.899 11.452 17.918s4.064 14.778 4.064 23.275v4.248h-99.194V53.242h88.757l-2.863 7.482c0-6.65-1.016-12.746-3.14-18.195q-3.186-8.174-8.589-14.132c-3.695-3.971-8.036-6.926-13.208-9.05s-10.806-3.141-16.902-3.141-11.914 1.108-17.086 3.233-9.606 5.172-13.3 9.05c-3.695 3.88-6.65 8.498-8.774 13.947-2.125 5.45-3.141 11.36-3.141 17.918s1.109 12.653 3.233 18.103c2.124 5.449 5.172 10.067 8.959 13.946s8.312 6.834 13.484 9.051c5.173 2.124 10.899 3.233 17.179 3.233 9.791 0 18.103-2.494 25.03-7.389s11.822-11.822 14.87-20.596l13.023 4.433c-3.787 11.083-10.345 19.857-19.488 26.323-9.236 6.465-20.227 9.697-33.158 9.697-8.22 0-15.885-1.385-22.72-4.064-6.927-2.678-12.838-6.557-17.826-11.544-4.987-4.988-8.866-10.991-11.637-17.918s-4.248-14.593-4.248-23.183 1.385-15.885 4.156-22.905zM375.409 37.541c2.77-6.927 6.557-12.93 11.452-18.01s10.714-8.867 17.456-11.545 14.224-4.064 22.351-4.064c8.128 0 15.517 1.386 22.259 4.156 6.742 2.771 12.561 6.65 17.456 11.545 4.987 4.988 8.774 10.899 11.453 17.918 2.678 7.02 4.063 14.778 4.063 23.275v4.248h-99.194V53.242h88.758l-2.863 7.482c0-6.65-1.016-12.746-3.141-18.195-2.124-5.45-4.987-10.16-8.681-14.132-3.695-3.971-8.036-6.926-13.208-9.05s-10.806-3.141-16.902-3.141-11.914 1.108-17.086 3.233-9.606 5.172-13.3 9.05c-3.695 3.88-6.65 8.498-8.774 13.947-2.125 5.45-3.141 11.36-3.141 17.918s1.109 12.653 3.233 18.103c2.124 5.449 5.172 10.067 8.959 13.946s8.312 6.834 13.484 9.051c5.173 2.124 10.899 3.233 17.179 3.233 9.791 0 18.103-2.494 25.03-7.389s11.822-11.822 14.87-20.596l13.023 4.433c-3.787 11.083-10.252 19.857-19.488 26.323-9.236 6.465-20.227 9.697-33.158 9.697-8.22 0-15.885-1.385-22.72-4.064-6.927-2.678-12.838-6.557-17.733-11.544-4.988-4.988-8.867-10.991-11.637-17.918-2.864-6.927-4.249-14.593-4.249-23.183s1.385-15.885 4.156-22.905zM496.405 6.139h13.392v24.567c4.526-8.035 10.067-13.669 18.103-18.933 7.943-5.172 17.363-7.85 28.262-7.85 7.758 0 14.685 1.292 21.058 3.97 6.28 2.68 11.637 6.373 16.07 11.176 4.434 4.803 7.759 10.714 10.16 17.733s3.602 14.962 3.602 23.737-1.201 16.717-3.602 23.644c-2.401 7.02-5.726 12.93-10.16 17.733-4.433 4.895-9.697 8.589-15.978 11.175-6.188 2.587-13.207 3.88-20.966 3.88-10.806 0-20.319-2.679-28.354-7.943-8.035-5.265-13.669-11.915-18.195-18.842V155.3h-13.392zM513.03 78.64c2.124 5.45 5.172 10.16 9.051 14.039 3.879 3.88 8.497 6.835 13.946 8.959 5.45 2.124 11.268 3.14 17.456 3.14s11.638-1.016 16.625-2.955c4.988-1.94 9.236-4.803 12.746-8.682s6.095-8.405 8.035-13.854c1.94-5.45 2.863-11.545 2.863-18.472s-1.016-13.3-2.955-18.842c-1.94-5.449-4.711-10.16-8.128-14.038-3.417-3.88-7.666-6.743-12.746-8.774-4.987-1.94-10.529-2.956-16.624-2.956-6.096 0-12.192 1.016-17.456 3.14-5.265 2.125-9.883 5.08-13.762 8.96-3.879 3.878-6.835 8.496-9.051 13.946s-3.233 11.545-3.233 18.287 1.108 12.468 3.233 18.01z"/><path fill="#231f20" d="M252.327 3.922h-19.58l-68.531 60.68V3.923h-12.931v110.924h12.931v-33.25l.184.185 23.367-20.688 51.445 53.753h18.472l-60.219-62.343zM900.05 116.93V2.356h14.134v28.697h.428q5.568-14.99 17.347-22.915Q943.738 0 961.299 0q18.417 0 29.982 8.995t15.209 26.983h.42c3.29-11.564 9-20.416 17.14-26.555C1032.18 3.14 1042.54 0 1055.1 0q11.13 0 19.92 3.427c5.85 2.141 10.7 5.425 14.56 9.85q6 6.64 9.21 16.705 3.21 9.852 3.21 22.915v64.033h-14.13V54.396c0-6.996-.86-13.064-2.57-18.203-1.57-5.14-3.86-9.423-6.86-12.85-3-3.57-6.78-6.139-11.35-7.71q-6.855-2.57-15.63-2.57c-6.57 0-12.57 1-17.99 2.999q-7.92 2.998-13.71 8.566c-3.71 3.57-6.64 7.924-8.78 13.064q-3 7.496-3 16.704v62.534h-13.915V54.396q0-10.494-2.57-18.203-2.356-7.71-6.853-12.85-4.497-5.354-11.351-7.71-6.852-2.57-15.633-2.57-10.065 0-17.989 2.999t-13.706 8.566q-5.568 5.355-8.781 13.064-2.998 7.496-2.998 16.704v62.534zM768.313 59.75q0-13.278 4.497-24.2 4.497-11.136 12.421-19.06t19.06-12.207T828.705 0q13.492 0 24.628 4.283t19.06 12.207q7.925 7.925 12.207 18.846 4.497 10.922 4.497 24.414 0 13.063-4.497 24.2-4.283 10.922-12.421 18.846-7.924 7.709-19.06 12.206-10.921 4.284-24.414 4.284-13.492 0-24.628-4.284-11.137-4.283-19.06-12.206-7.924-7.924-12.421-18.846-4.284-10.922-4.283-24.2m14.134 0q0 10.28 3.212 19.06 3.428 8.565 9.423 14.777 6.211 5.995 14.777 9.423 8.567 3.212 18.846 3.212t18.846-3.212q8.566-3.427 14.563-9.637 6.21-6.21 9.637-14.777 3.426-8.566 3.426-18.846 0-10.495-3.426-19.06-3.427-8.781-9.637-14.777-5.997-6.21-14.563-9.423-8.567-3.426-18.846-3.426t-18.846 3.426q-8.566 3.213-14.777 9.423-5.995 6.21-9.423 14.777-3.212 8.566-3.212 19.06M644.394 59.536q0-13.065 4.498-23.986 4.497-11.136 12.421-19.06t18.846-12.207T704.144 0q10.708 0 19.917 2.998 9.423 2.998 16.704 8.567 7.496 5.568 12.635 13.491 5.14 7.925 7.71 17.775l-13.92 3.213q-1.928-7.71-5.997-13.706-3.854-6.21-9.637-10.494-5.567-4.283-12.635-6.425-6.853-2.355-14.777-2.355-10.065 0-18.417 3.426t-14.563 9.637q-5.997 5.997-9.423 14.563-3.212 8.566-3.212 18.846 0 10.493 3.212 19.06 3.426 8.565 9.423 14.777 6.21 5.996 14.563 9.423 8.352 3.426 18.417 3.426 8.78 0 16.276-2.57 7.495-2.784 13.278-7.71 5.782-5.14 9.637-12.206 3.855-7.282 5.14-16.062l13.706 3.212q-1.713 11.137-6.639 20.13a54 54 0 0 1-12.635 15.206q-7.496 6.21-17.347 9.637t-21.63 3.427q-13.063 0-23.986-4.284t-18.845-12.206q-7.71-7.924-12.207-18.846t-4.498-24.414M614.25 116.93V97.013h19.703v19.917z"/></svg>