<svg xmlns="http://www.w3.org/2000/svg" width="1102" height="156" fill="none" viewBox="0 0 1102 156"><path fill="#231f20" d="M0 6.138h13.392v108.7H0zM32.324 6.138h13.391v19.856c5.818-10.436 23.92-22.072 43.683-22.072 7.204 0 14.315 1.016 19.856 3.14 5.449 2.124 10.159 5.264 13.946 9.42s6.649 9.42 8.681 15.792c1.939 6.28 2.955 13.576 2.955 21.796v60.769h-13.391V55.548c0-6.65-.739-12.376-2.217-17.27-1.477-4.895-3.694-8.959-6.557-12.284-2.863-3.324-6.464-5.725-10.805-7.296-4.248-1.57-9.143-2.308-14.684-2.308-6.373 0-12.099.923-17.178 2.863s-9.42 4.617-13.022 8.127a35 35 0 0 0-8.22 12.375C46.824 44.465 45.9 49.822 45.9 55.64v59.291H32.509V6.138zM253.475 37.539c2.771-6.927 6.557-12.93 11.452-18.01 4.895-4.986 10.713-8.865 17.455-11.544 6.742-2.678 14.222-4.063 22.349-4.063s15.516 1.385 22.258 4.156 12.56 6.65 17.454 11.544c4.988 4.987 8.774 10.898 11.452 17.917 2.679 7.018 4.064 14.776 4.064 23.273v4.248h-99.188V53.239h88.752l-2.863 7.48c0-6.65-1.016-12.745-3.14-18.193q-3.186-8.175-8.589-14.13c-3.694-3.972-8.035-6.927-13.207-9.051-5.171-2.124-10.805-3.14-16.9-3.14-6.096 0-11.914 1.108-17.086 3.232s-9.604 5.172-13.299 9.05c-3.694 3.88-6.649 8.497-8.773 13.946-2.124 5.45-3.14 11.36-3.14 17.917s1.108 12.652 3.232 18.101c2.124 5.45 5.172 10.067 8.959 13.946s8.311 6.834 13.483 9.05c5.172 2.124 10.898 3.233 17.178 3.233 9.789 0 18.101-2.494 25.028-7.389s11.821-11.82 14.869-20.594l13.022 4.432c-3.787 11.083-10.344 19.857-19.487 26.321-9.235 6.465-20.226 9.697-33.155 9.697-8.219 0-15.885-1.385-22.719-4.063-6.927-2.678-12.837-6.557-17.824-11.544-4.987-4.988-8.866-10.99-11.637-17.917-2.77-6.927-4.248-14.592-4.248-23.18 0-8.59 1.385-15.885 4.156-22.904zM375.383 37.539c2.771-6.927 6.557-12.93 11.452-18.01 4.895-5.079 10.713-8.865 17.455-11.544 6.742-2.678 14.222-4.063 22.349-4.063s15.516 1.385 22.258 4.156 12.56 6.65 17.455 11.544c4.987 4.987 8.773 10.898 11.451 17.917 2.679 7.018 4.064 14.776 4.064 23.273v4.248h-99.188V53.239h88.752l-2.863 7.48c0-6.65-1.016-12.745-3.14-18.193-2.124-5.45-4.987-10.16-8.681-14.13-3.694-3.972-8.035-6.927-13.207-9.051s-10.805-3.14-16.901-3.14c-6.095 0-11.913 1.108-17.085 3.232s-9.605 5.172-13.299 9.05c-3.694 3.88-6.649 8.497-8.773 13.946-2.125 5.45-3.14 11.36-3.14 17.917s1.108 12.652 3.232 18.101c2.124 5.45 5.172 10.067 8.958 13.946s8.312 6.834 13.484 9.05c5.172 2.124 10.898 3.233 17.178 3.233 9.789 0 18.101-2.494 25.027-7.389s11.822-11.82 14.869-20.594l13.022 4.432c-3.786 11.083-10.251 19.857-19.486 26.321s-20.226 9.697-33.155 9.697c-8.22 0-15.885-1.385-22.719-4.063-6.927-2.678-12.837-6.557-17.732-11.544-4.987-4.988-8.866-10.99-11.637-17.917-2.863-6.927-4.248-14.592-4.248-23.18 0-8.59 1.385-15.885 4.156-22.904zM496.371 6.138h13.392v24.566c4.525-8.034 10.066-13.668 18.101-18.932 7.942-5.172 17.363-7.85 28.26-7.85 7.758 0 14.684 1.293 21.057 3.971 6.28 2.678 11.636 6.373 16.069 11.175s7.758 10.713 10.159 17.732 3.602 14.961 3.602 23.735-1.2 16.716-3.602 23.642c-2.401 7.019-5.726 12.93-10.159 17.732-4.433 4.895-9.697 8.589-15.977 11.175-6.187 2.586-13.206 3.879-20.964 3.879-10.805 0-20.318-2.679-28.353-7.943s-13.668-11.913-18.193-18.84v65.109h-13.392zm16.624 72.498c2.124 5.449 5.172 10.159 9.051 14.038s8.496 6.834 13.945 8.958 11.267 3.14 17.455 3.14 11.637-1.016 16.624-2.955 9.235-4.803 12.744-8.682c3.51-3.878 6.096-8.404 8.035-13.853s2.863-11.544 2.863-18.47c0-6.927-1.016-13.3-2.955-18.84-1.94-5.45-4.71-10.16-8.127-14.038s-7.666-6.742-12.745-8.774c-4.987-1.94-10.528-2.955-16.624-2.955s-12.19 1.016-17.455 3.14-9.881 5.08-13.76 8.958c-3.879 3.88-6.834 8.497-9.051 13.946-2.216 5.448-3.232 11.544-3.232 18.286 0 6.741 1.108 12.467 3.232 18.009z"/><path fill="#231f20" d="M252.31 3.922h-19.579l-68.526 60.676V3.922h-12.93v110.917h12.93V81.591l.184.185 23.366-20.687 51.441 53.75h18.471l-60.215-62.34zM899.989 116.922V2.356h14.133V31.05h.428q5.568-14.99 17.346-22.914Q943.674 0 961.233 0q18.417 0 29.98 8.994t15.207 26.982h.43q4.92-17.346 17.13-26.554Q1036.175 0 1055.03 0c7.42 0 14.06 1.142 19.91 3.426 5.86 2.142 10.71 5.425 14.56 9.85q6 6.64 9.21 16.704c2.14 6.567 3.22 14.205 3.22 22.913v64.029h-14.14v-62.53c0-6.995-.85-13.062-2.57-18.202-1.57-5.14-3.85-9.422-6.85-12.848-3-3.57-6.78-6.14-11.35-7.71q-6.855-2.57-15.63-2.57c-6.57 0-12.57 1-17.99 2.999q-7.92 2.998-13.71 8.565c-3.71 3.57-6.63 7.924-8.78 13.063-1.99 4.997-2.99 10.565-2.99 16.703v62.53h-13.923v-62.53q0-10.492-2.569-18.202-2.356-7.71-6.853-12.848-4.497-5.355-11.35-7.71-6.852-2.57-15.632-2.57-10.065 0-17.988 2.999T925.9 24.626q-5.568 5.355-8.78 13.063-2.998 7.496-2.998 16.703v62.53zM768.26 59.746q0-13.277 4.497-24.198 4.498-11.136 12.421-19.059 7.923-7.922 19.058-12.206T828.649 0q13.491 0 24.626 4.283t19.059 12.206 12.206 18.845q4.497 10.92 4.497 24.412 0 13.062-4.497 24.198-4.283 10.92-12.42 18.845-7.923 7.709-19.059 12.206-10.921 4.283-24.412 4.283t-24.627-4.283q-11.135-4.284-19.058-12.206-7.924-7.924-12.421-18.845-4.283-10.92-4.283-24.198m14.134 0q0 10.278 3.212 19.059 3.426 8.565 9.422 14.775 6.21 5.996 14.776 9.423 8.566 3.212 18.845 3.212t18.844-3.212q8.567-3.427 14.562-9.637 6.21-6.21 9.636-14.776 3.427-8.565 3.427-18.844 0-10.492-3.427-19.059-3.426-8.78-9.636-14.776-5.995-6.21-14.562-9.422-8.565-3.426-18.844-3.426t-18.845 3.426q-8.566 3.212-14.776 9.422-5.996 6.21-9.422 14.776-3.212 8.566-3.212 19.059M644.351 59.532q0-13.063 4.497-23.984 4.497-11.136 12.42-19.059 7.923-7.922 18.844-12.206T704.096 0q10.708 0 19.916 2.998 9.422 2.998 16.703 8.566 7.495 5.567 12.634 13.49 5.14 7.925 7.709 17.775l-13.919 3.212q-1.927-7.71-5.996-13.705-3.855-6.21-9.636-10.493-5.568-4.283-12.635-6.425-6.852-2.355-14.776-2.355-10.064 0-18.416 3.426t-14.562 9.636q-5.996 5.997-9.422 14.562-3.212 8.565-3.212 18.845 0 10.493 3.212 19.058 3.426 8.565 9.422 14.776 6.21 5.996 14.562 9.423t18.416 3.426q8.781 0 16.275-2.57 7.496-2.783 13.277-7.709 5.782-5.14 9.637-12.206 3.854-7.281 5.139-16.06l13.705 3.211q-1.713 11.136-6.638 20.13a54 54 0 0 1-12.635 15.204q-7.494 6.21-17.345 9.636-9.85 3.427-21.629 3.427-13.062 0-23.984-4.283-10.921-4.284-18.844-12.206-7.71-7.924-12.206-18.845-4.497-10.92-4.497-24.412M614.208 116.922V97.007h19.702v19.915z"/></svg>