<svg xmlns="http://www.w3.org/2000/svg" width="248" height="159" fill="none" viewBox="0 0 248 159"><path stroke="#231f20" stroke-width="10" d="M49.898 7.782a9 9 0 0 0-7.795 4.5L6.206 74.458a9 9 0 0 0 0 9l35.897 62.177a9 9 0 0 0 7.795 4.5h71.795a9 9 0 0 0 7.794-4.5l35.898-62.177a9 9 0 0 0 0-9l-35.898-62.176a9 9 0 0 0-7.794-4.5z"/><path stroke="#231f20" stroke-width="9.8" d="M196.339 6.431c21.519 5.538 19.067 17.75 27.991 42.59 5.725 15.936 33.406 35.697 8.11 74.11-7.549 11.464-31.823 25.065-49.387 28.837-38.697 8.183-61.497-10.388-81.724-41.007-15.176-23.16-9.813-56.503 13.204-72.876C136.346 22.612 168.051-1.4 196.339 6.431Z"/></svg>