<svg xmlns="http://www.w3.org/2000/svg" width="248" height="159" fill="none" viewBox="0 0 248 159"><path stroke="#231f20" stroke-width="10" d="M49.932 7.787a9 9 0 0 0-7.8 4.503L6.21 74.51a9 9 0 0 0 0 9.006l35.923 62.22a9 9 0 0 0 7.8 4.503h71.845a9 9 0 0 0 7.799-4.503l35.923-62.22a9 9 0 0 0 0-9.006l-35.923-62.22a9 9 0 0 0-7.799-4.503z"/><path stroke="#231f20" stroke-width="9.8" d="M196.475 6.436c21.534 5.541 19.081 17.762 28.011 42.619 5.729 15.947 33.429 35.722 8.116 74.162-7.555 11.471-31.846 25.082-49.422 28.857-38.723 8.189-61.54-10.395-81.781-41.035-15.186-23.177-9.82-56.543 13.214-72.927 21.827-15.485 53.554-39.513 81.862-31.676Z"/></svg>