<svg xmlns="http://www.w3.org/2000/svg" width="244" height="332" fill="none" viewBox="0 0 244 332"><path fill="#d5e5ff" d="M44.916 35.603a9 9 0 0 0-7.798 4.501L1.206 102.306a9 9 0 0 0 0 9.003l35.912 62.202a9 9 0 0 0 7.798 4.501h71.824a9 9 0 0 0 7.797-4.501l35.912-62.202a9 9 0 0 0 0-9.003l-35.912-62.202a9 9 0 0 0-7.797-4.501z"/><path fill="#69a3ff" d="M191.415 34.252c21.528 5.54 19.075 17.756 28.002 42.606 5.728 15.943 33.42 35.711 8.114 74.14-7.552 11.468-31.836 25.074-49.407 28.848-38.712 8.187-61.522-10.392-81.757-41.023-15.181-23.169-9.817-56.526 13.21-72.905 21.821-15.48 53.539-39.5 81.838-31.666"/></svg>