<svg xmlns="http://www.w3.org/2000/svg" width="50" height="50" fill="none" viewBox="0 0 50 50"><path fill="#3784ff" d="M9.513 14.439c.467-.71 1.01-1.235 1.687-1.76h.001q.146-.113.31-.23c.84-.6 1.947-1.248 3.612-2.01.533-.242.988-.423 1.478-.603a13 13 0 0 1 2.987-.69c.18-.02.363-.052.822-.144.298-.059.703-.14 1.287-.242.31-.054.672-.113 1.096-.175 1.404-.206 3.596-.498 5.684-.539 1.27-.022 2.493.031 3.543.29.203.052.422.117.636.2 2.019.948 2.087 2.667 2.318 3.833.182 1.333.187 2.663.28 4.139.076 1.12.084 2.2.3 3.124.027.114.06.23.095.335q.084.255.201.459c.406.645.883 1.279 1.44 1.939 1.057 1.267 2.517 2.684 2.134 4.637l.011-.12c.005.21.011.416.018.629.022.685.052 1.4.067 2.181.002 1.235.077 3.046-.447 4.933q-.07.24-.158.478l-.001.003c-.345.965-1.01 1.88-1.8 2.437-.628.455-1.306.674-1.866.789-2.057.314-2.726.124-3.322.16-.22-.002-.421-.004-.658-.009-.845-.01-2.128-.103-3.095.282l-.011.005c-.157.062-.328.028-.395-.093-.067-.12.02-.297.209-.372.593-.238 1.247-.31 1.837-.331.026-.12.187-.215.384-.213.483-.054 2.03.158 4.397-.13a5 5 0 0 1-.418-.029 6 6 0 0 1-.338-.048c-.192-.033-.317-.056-.541-.079-.52-.027-1.34-.098-2.223-.15-.222-.013-.4-.132-.395-.27s.198-.243.424-.23h.013c.89.054 1.724.126 2.247.152l.332.02c.069.004.153.009.2.015l.033.006c.008.002.049.01.093.028a.4.4 0 0 1 .05.026l.018.003c.08.012.16.023.248.031.331.012.916.13 1.9-.318q.113-.055.233-.131c.921-.508 1.822-2.038 1.959-4.16a16 16 0 0 1-.08.46c-.073.382-.162.761-.276 1.126-.044.141-.09.275-.143.411q-.126.329-.288.63a4 4 0 0 1-.24.39v.002a3.7 3.7 0 0 1-.551.633 3.2 3.2 0 0 1-.485.366 1.444 1.444 0 0 1-.497.21q-.003 0-.009.002l-.075.017-.07.016-.068.016-.09.022-.099.024-.209.05a5 5 0 0 1-.222.043.4.4 0 0 1-.248-.034.21.21 0 0 1-.122-.157.23.23 0 0 1 .069-.185.4.4 0 0 1 .2-.114l.063-.016.037-.01a5 5 0 0 0 .197-.057l.098-.032.202-.067.078-.025.075-.024.07-.022.007-.003a2 2 0 0 0 .112-.043l.043-.021q.054-.032.111-.07a2.7 2.7 0 0 0 .518-.476q.164-.195.297-.42.097-.164.18-.345a5 5 0 0 0 .214-.564q.058-.184.105-.377c.083-.337.145-.695.192-1.065s.082-.752.11-1.142c.028-.388.05-.798.075-1.2.017-.293.043-.6.07-.882l.04-.45v-.002q.019-.194.035-.386a40 40 0 0 0 .117-1.848l.014-.15q.055-.222.06-.434c.006-.194-.019-.379-.078-.572a2.8 2.8 0 0 0-.4-.768 8 8 0 0 0-.65-.784l-.26-.277v-.001l-.505-.521q-.398-.407-.796-.84a19 19 0 0 1-.876-1.028 4.1 4.1 0 0 1-.613-1.11 7 7 0 0 1-.318-1.15 11 11 0 0 1-.053-.294 21 21 0 0 1-.171-1.335q-.064-.645-.122-1.281-.059-.636-.127-1.273a31 31 0 0 0-.16-1.256 14 14 0 0 0-.23-1.205 9 9 0 0 0-.176-.634 4 4 0 0 0-.213-.538 2 2 0 0 0-.096-.177 1.3 1.3 0 0 0-.142-.196.54.54 0 0 0-.209-.155.4.4 0 0 0-.085-.021 3 3 0 0 0-.228-.048 4 4 0 0 0-.482-.042 27 27 0 0 0-1.242-.033q-.588.001-1.183.026c-.401.016-.796.038-1.198.065a62 62 0 0 0-2.409.207 84 84 0 0 0-1.903.215l-.67.085q-.326.044-.63.093a14 14 0 0 0-.588.109 11 11 0 0 0-1.477.419 19 19 0 0 0-1.082.412 11 11 0 0 0-1.161.573q-.254.139-.491.281c-.256.155-.558.317-.782.441a41 41 0 0 0-.778.438c-.17.1-.312.186-.478.292q-.297.189-.547.373a8 8 0 0 0-.503.395c-.15.129-.309.276-.442.415a4.5 4.5 0 0 0-.384.46c-.125.169-.221.326-.31.496-.083.16-.147.319-.188.458a2 2 0 0 0-.081.414c-.012.135-.012.274.003.43.015.153.047.33.093.509.074.29.194.616.35.96.154.344.34.705.547 1.083.205.377.429.77.657 1.186.23.417.462.853.684 1.332q.074.158.144.322c.168.39.322.803.445 1.258l.003.009c.138.515.232 1.086.227 1.69l-.003-.097a7 7 0 0 1-.013.844 9 9 0 0 1-.063.607q-.041.297-.095.574a15 15 0 0 1-.233 1.025l-.012.046c-.047.183-.105.386-.163.569-.153.484-.306.928-.443 1.357-.138.43-.259.834-.344 1.211a7 7 0 0 0-.082.426c-.033.21-.05.407-.05.581a2 2 0 0 0 .125.744 7 7 0 0 0 .46 1.014c.183.33.395.655.627.96q.387.512.856.95.468.44 1 .78.531.341 1.106.563a5.5 5.5 0 0 0 1.188.31q.377.056.774.069.21-.022.404-.051c.958-.154 1.659-.37 2.578-.691.087-.034.157-.065.242-.104l.05-.023c.112-.052.239-.11.419-.186.359-.15.915-.363 1.675-.596.193-.06.366.002.387.143.015.098-.05.209-.16.287q.34-.135.677-.283a.5.5 0 0 1 .265-.041c.081.012.14.052.166.111s.016.134-.03.208a.5.5 0 0 1-.209.186 24 24 0 0 1-2.165.963 19 19 0 0 1-1.486.498 15 15 0 0 1-.756.192c-.489.11-.985.193-1.477.237a8.4 8.4 0 0 1-1.469.01 6.483 6.483 0 0 1-1.415-.279 7 7 0 0 1-1.335-.583 8 8 0 0 1-1.213-.838 9 9 0 0 1-.828-.788 10.132 10.132 0 0 1-1.14-1.313 7.6 7.6 0 0 0 1.394 1.67c.582.523 1.185.978 2.06 1.455.623.333 1.222.54 1.77.66 1.673.33 2.856.079 3.635-.042 1.047-.197 1.498-.32 1.94-.368.627-.068 1.766-.471 2.307-.743.197-.096.406-.076.469.047s-.049.306-.251.404c-.583.293-1.845.746-2.612.823-.341.033-.714.132-1.784.334-.797.12-2.009.386-3.806.035a7.4 7.4 0 0 1-1.906-.71 10.8 10.8 0 0 1-2.308-1.662v-.001a7.9 7.9 0 0 1-2.017-3.058c-.756-2.459.734-5.074.738-5.751.035-.154.066-.303.095-.46.08-.503.236-1.106.17-2.204v-.021a4 4 0 0 0-.084-.664 6.2 6.2 0 0 0-.37-1.13c-.324-.598-.71-1.154-1.038-1.654-.285-.43-.582-.816-.87-1.202l-.25-.34a10 10 0 0 1-.99-1.664c-.496-.984-.938-2.95.242-4.722 1.213-1.778 2.644-2.534 3.786-3.19a17 17 0 0 0-2.063 1.258q-.157.114-.295.221c-.657.516-1.118.98-1.523 1.593a5.2 5.2 0 0 0-.788 3.91c.194.93.487 1.497.804 2.053.17.29.372.59.592.897.439.614.958 1.255 1.41 1.959.419.656.87 1.37 1.091 2.155v.001a3.4 3.4 0 0 1 .103.519v.033c.164 1-.046 2.177-.343 3.302q-.048.185-.115.443c-.157.926-.978 2.563-.426 4.699q.056.176.119.353c.168.466.365.944.646 1.465q.129.237.283.487a8.4 8.4 0 0 0 2.212 2.383 8 8 0 0 0 2.962 1.344q.377.081.762.126c.72.084 1.455.074 2.165.001 2.145-.235 3.989-.907 5.733-1.72l.001-.001c.205-.097.418-.077.475.049s-.066.312-.276.412c-1.784.829-3.664 1.516-5.892 1.76-.729.073-1.494.085-2.255-.003a8 8 0 0 1-.812-.133 8.5 8.5 0 0 1-3.177-1.444 8.9 8.9 0 0 1-2.356-2.559 10 10 0 0 1-.305-.534 11 11 0 0 1-.759-1.823c-.609-2.388.248-3.989.399-4.93l.119-.46c.297-1.116.494-2.247.341-3.152l-.006-.039-.002-.06a3 3 0 0 0-.071-.352v-.001c-.18-.668-.599-1.362-1.012-2.01-.423-.66-.89-1.236-1.32-1.827-.233-.318-.457-.64-.665-.989-.351-.602-.682-1.224-.906-2.255-.22-.983-.23-2.715.846-4.327M25.56 37.65c-.48.15-.859.29-1.137.4a21 21 0 0 0 1.137-.4M13.374 24.154q.062.114.121.232a10 10 0 0 0-.301-.66 17 17 0 0 0-.421-.781c.225.413.432.818.6 1.209m-2.919-9.062c-1 1.52-.711 3.131-.27 4.094a9 9 0 0 0 .599 1.132c-.292-.64-.498-1.276-.586-1.821-.254-1.665.352-2.603.804-3.228a6 6 0 0 1 .442-.519 6 6 0 0 1 .357-.448c.195-.218.38-.408.598-.605.222-.201.416-.364.649-.542.241-.183.44-.324.68-.483a17 17 0 0 1 .686-.43c.223-.132.471-.272.659-.379.202-.115.376-.214.53-.309q.295-.18.579-.343a19 19 0 0 1 1.21-.632 12 12 0 0 1 .295-.133c-.234.083-.476.174-.713.272q-.291.12-.575.243c-.6.26-1.27.557-1.989.927-1.193.658-2.691 1.38-3.955 3.204m13.64-6.137a33 33 0 0 0-1.07.174h.007l.668-.07a75 75 0 0 1 2.399-.203q.604-.04 1.204-.069a45 45 0 0 1 1.595-.046q-.436-.019-.905-.018c-.255 0-.513.002-.793.008l-.382.006a22 22 0 0 0-2.724.218m8.16.036q.105.03.203.065a2.456 2.456 0 0 1 1.008.696c.158.18.282.367.389.556q.064.116.12.233c.064.135.115.257.164.387-.235-.685-.703-1.554-1.662-1.924a5 5 0 0 0-.581-.183l-.038-.009c.14.057.26.112.398.18"/></svg>