<svg xmlns="http://www.w3.org/2000/svg" width="42" height="27" fill="none" viewBox="0 0 42 27"><path stroke="#231f20" stroke-width="1.667" d="M8.456 1.319c-.545 0-1.048.29-1.32.762L1.051 12.62a1.53 1.53 0 0 0 0 1.525L7.135 24.68c.273.472.776.763 1.321.763h12.168c.545 0 1.048-.291 1.32-.763l6.084-10.537a1.53 1.53 0 0 0 0-1.526L21.945 2.081a1.53 1.53 0 0 0-1.321-.762z"/><path stroke="#231f20" stroke-width="1.633" d="M33.274 1.09c3.647.938 3.231 3.008 4.744 7.218.97 2.7 5.661 6.05 1.374 12.56-1.28 1.942-5.393 4.247-8.37 4.886-6.558 1.387-10.422-1.76-13.85-6.95-2.571-3.924-1.663-9.575 2.238-12.35 3.697-2.622 9.07-6.691 13.864-5.364Z"/></svg>