<svg xmlns="http://www.w3.org/2000/svg" width="40" height="40" fill="none" viewBox="0 0 40 40"><g transform="translate(2.286, 2.859) scale(0.857396)"><path stroke="#171213" stroke-width="1.667" d="M8.316 8.055a1.5 1.5 0 0 0-1.299.75L1.034 19.168a1.5 1.5 0 0 0 0 1.5l5.983 10.363a1.5 1.5 0 0 0 1.3.75h11.965a1.5 1.5 0 0 0 1.3-.75l5.982-10.363a1.5 1.5 0 0 0 0-1.5L21.581 8.805a1.5 1.5 0 0 0-1.299-.75z"/><path stroke="#171213" stroke-width="1.633" d="M32.723 7.83c3.587.923 3.178 2.959 4.665 7.099.955 2.656 5.568 5.949 1.352 12.351-1.258 1.91-5.304 4.178-8.231 4.806-6.45 1.364-10.25-1.73-13.62-6.834-2.53-3.86-1.636-9.417 2.2-12.146 3.635-2.58 8.92-6.58 13.634-5.276Z"/></g></svg>