<svg xmlns="http://www.w3.org/2000/svg" width="40" height="40" fill="none" viewBox="0 0 40 40"><g transform="translate(2.295, 8.885) scale(0.898343)"><path stroke="#3784ff" stroke-width="1.556" d="M7.833 1.244c-.505 0-.971.27-1.224.707L.974 11.71a1.41 1.41 0 0 0 0 1.413l5.635 9.76c.253.437.719.706 1.224.706h11.27c.504 0 .97-.27 1.223-.706l5.635-9.76a1.41 1.41 0 0 0 0-1.413l-5.635-9.76a1.41 1.41 0 0 0-1.223-.707z"/><path fill="#3784ff" d="M35.067 5.196c.245.533.527 1.56.716 2.12l.003.01.005.014c.03.094.07.19.126.306.134.282.358.665.918 1.619q.268.403.527.837c2.032 2.779 1.468 7.221-.58 9.712a6 6 0 0 1-.76.867l-.105.104a11 11 0 0 1-2.222 1.655c-.782.429-1.336.663-1.792.848-1.148.514-2.332.944-3.601 1.192-1.536.286-3.143.374-4.716.1a10.4 10.4 0 0 1-2.58-.802 11.5 11.5 0 0 1-2.119-1.279c-.392-.276-.75-.555-1.071-.827-.453-.382-.83-.745-1.124-1.061-.711-.762-1.384-1.72-1.851-2.44l-.214-.334-.038-.054a8.8 8.8 0 0 1-.982-1.87l-.027-.146c-.1-.618-.314-1.344-.379-2.528a8.7 8.7 0 0 1 .1-1.808c.075-.446.17-.664.246-.839l.065-.148c.07-.167.098-.355.142-.578.056-.288.136-.64.378-1.041.791-1.256 1.191-1.757 1.468-2.181.085-.12.165-.228.256-.33.25-.286.664-.605 1.045-.825l.17-.096c.307-.169.856-.6 1.267-.94.156-.13.379-.284.646-.465.274-.186.596-.402.932-.643A31 31 0 0 1 21.944 2c.326-.197.74-.43 1.17-.649A23 23 0 0 1 24.59.666c1.113-.383 2.299-.649 3.524-.665.63-.01 1.239.131 1.644.346.408.215.583.462.533.644-.05.184-.314.295-.708.369-.395.073-.893.113-1.413.15-1.05.068-2.095.362-3.104.768-1.233.497-2.418 1.157-3.582 1.872a62 62 0 0 0-2.42 1.582l-.248.17c-.36.283-.722.567-1.053.822a9 9 0 0 0-.596.512c-.307.288-.533.499-.722.686-.13.13-.24.249-.336.383-.051.071-.119.17-.196.294-.324.498-.76 1.411-1.023 2.301-.121.393-.243.86-.315 1.319-.107.654-.107 1.285-.05 1.594.094.543.219 1.161.395 1.692.164.506.37.93.53 1.142.096.129.178.25.264.383.09.138.182.29.293.469.157.253.35.56.642.957.336.456.573.783.776 1.054.29.384.515.667.925 1.012.455.383.938.758 1.312 1.059.169.137.373.282.59.422.288.186.6.366.882.53.234.137.422.262.592.37q.08.05.155.094.304.12.614.217l.111.014c.196.024.433.046.721.087.459.065.852.14 1.28.195.331.042.684.07 1.083.053.277-.011.587-.046.894-.092.458-.068.905-.164 1.217-.21a1.7 1.7 0 0 1 .325-.014h.022c.74-.184 1.472-.455 2.184-.77l.18-.095c.293-.156.572-.316.742-.442.186-.135.682-.41 1.183-.73.328-.21.657-.438.911-.64.149-.116.308-.2.47-.29.15-.082.304-.17.448-.296q.106-.095.217-.215l.201-.218c.067-.072.228-.208.41-.394a3.4 3.4 0 0 0 .339-.408c.294-.475.562-.975.774-1.472q.045-.173.04-.3a1 1 0 0 0-.024-.167c-.014-.077-.03-.156-.032-.253a.43.43 0 0 1 .043-.203.3.3 0 0 1 .042-.054c.016-.017.03-.032.037-.054q.006-.023 0-.056a.4.4 0 0 1 .008-.144c.062-.23.126-.493.168-.752.047-.286.067-.569.058-.79-.008-.251-.009-.603-.057-.965a4.5 4.5 0 0 0-.152-.721 3.6 3.6 0 0 0-.272-.624c-.129-.242-.268-.472-.36-.687-.02-.043-.023-.108-.029-.19a2 2 0 0 0-.022-.2c-.156-.263-.32-.524-.492-.793l-.03-.022c-.22-.172-.525-.399-.75-.904-.057-.129-.072-.223-.086-.31-.014-.085-.023-.157-.07-.255-.053-.11-.135-.226-.225-.368a2.5 2.5 0 0 1-.217-.407 1.5 1.5 0 0 1-.08-.256l-.01-.048a4.3 4.3 0 0 1-.096-.648c-.204-.675-.378-1.363-.548-2.017-.29-1.1-.572-2.08-1.277-2.644-.34-.286-.74-.549-1.048-.8-.306-.249-.48-.472-.436-.654.048-.179.31-.307.759-.307.448.004 1.067.151 1.639.559.961.665 1.477 1.76 1.796 2.646l.058.14c.14.35.283.656.427.959z"/></g></svg>