<svg xmlns="http://www.w3.org/2000/svg" width="40" height="40" fill="none" viewBox="0 0 40 40"><g transform="translate(3, 9.354) scale(0.850652)"><path fill="#d5e5ff" d="M7.542.484c-.54 0-1.039.288-1.309.756L.203 11.685a1.51 1.51 0 0 0 0 1.512l6.03 10.445c.27.468.77.756 1.31.756h12.06c.54 0 1.04-.288 1.31-.756l6.03-10.445c.27-.468.27-1.044 0-1.512L20.913 1.24a1.51 1.51 0 0 0-1.31-.756z"/><path fill="#69a3ff" d="M32.143.257c3.615.93 3.203 2.982 4.702 7.155.962 2.677 5.612 5.996 1.363 12.45-1.268 1.925-5.346 4.21-8.297 4.844-6.5 1.374-10.33-1.745-13.729-6.889-2.55-3.89-1.648-9.492 2.218-12.242 3.665-2.6 8.99-6.633 13.743-5.318"/></g></svg>