<svg xmlns="http://www.w3.org/2000/svg" width="41" height="40" fill="none" viewBox="0 0 41 40"><path fill="#231f20" fill-opacity=".2" d="M16.572 1.624c-.25.012-.3-.033-.1-.037.058 0 .132.024.1.037m-1.77.043c-.281.006-.134-.046-.087-.048.198-.005.369.05.437-.018.12-.005.006.023.08.025.14.004.278-.028.422-.03h.03c.016.015.055.03.05.045-.153.018-.863.024-.933.026m1.195-.02c-.07-.004-.04-.026-.17-.014-.028-.018.099-.034.163-.034.002 0-.007.014.008.014.114.001.286-.014.29.024-.113-.021-.222.015-.291.01m1.441-.001c.03-.026.082-.023.162-.007-.006.005-.008.011-.015.017zm.298.005c.061-.03.392-.013.334.002q-.167 0-.334-.002M6.968 29.284c.153.158.489.856.574 1.008.397.698.725 1.235 1.091 1.879.234.41.436.798.667 1.206q-.01.18-.016.364c-.029-.06-.039-.095-.076-.161-.039-.067-.121-.23-.171-.256.007.075.124.291.16.356.073.125.053.031.109.114.055.083.102.246.175.344.174.229-.07-.245-.125-.327.076-.005.124.24.217.295a.6.6 0 0 0-.08-.23c-.038-.042-.03.053-.08-.056-.006-.087-.016-.183-.022-.27.068.098.138.264.191.355.33.562.645 1.116.958 1.673q.36.707.717 1.412l-.003-.017-.006-.03h-.002q-.005-.02-.02-.049a.3.3 0 0 1-.023-.066l.028.039.06.088.004.098-.71-.411.012.006.497.027.024.01.025.008.04.004c.069.008.154.014.222.019l.053.003.123.01h.013l.007.006c.024.013.057.013.091.005l.01-.002.052.004q.088.006.205.018l.14.016h.002l.2.023q.06.006.14.01c.11.002.547.014.758.021a.6.6 0 0 0 .222-.026l.16.008.014-.005.062-.006c.047-.004.101-.007.105-.02h-.153l-.01-.001c-.035-.01.148-.036.211-.023.05.01.033.048.014.069l.075.004.017-.01c.008-.007.017-.014.037-.02.099-.027.356-.005.25.03.068.004.077-.003.088-.012.012-.01.025-.022.113-.023.105 0 .147.009.186.017q.03.008.07.012c.027.003.072.004.124.005.112.002.254.004.285.026.036.025-.022.032-.072.036l.402.022.001-.023c.18-.005.214.012.184.033l.51.028.101-.01c-.012-.009-.05-.01-.087-.01-.03 0-.06 0-.07-.005-.071-.044.284-.09.22-.03-.016.014-.034.03-.002.042.024.01.12.015.155.012l-.002.002.013-.004.022-.009a.5.5 0 0 1 .14-.038c.315-.055.071-.029.395.015q.04.004.08.003l.065.001.093.013c.055.008.108.017.185.016q.002 0-.009-.004c-.161-.058.12.016.13.017l.013.003c.003.01-.062.015-.137.02-.072.006-.152.012-.195.023l.092.005a.4.4 0 0 1 .11-.003c.01.002.01.005.008.009l.082.004q.006-.005.005-.006l.001-.002c.047-.004.242.003.265.014q.01.003.01.008l.218.01.023-.002a.2.2 0 0 1 .053.006l.108.006.001-.003q.002-.008.011-.012c-.19 0-.153-.012-.112-.027.018-.006.038-.013.037-.02s-.038-.01-.072-.012c-.042-.003-.081-.006-.049-.02.106.013.178.008.25.002.229-.02.267.029.102.026a.5.5 0 0 0-.097.004c-.03.006-.039.02-.046.032l-.013.015h.006c.007-.002.165-.012.18-.012.093 0 .09.003.085.01-.003.004-.007.009.001.014l.027.003c.015.002.03.003.029.006q-.003.005-.016.009l.07.003.036-.006.115.013.696.031.006.002.01.002.028.009c.034.01.085.025.133.037a1.3 1.3 0 0 0 .563.007.25.25 0 0 0 .109-.045q.005-.005.004-.01l.03-.012c.06-.01.06 0 .061.01v.004c.005.005.022.025.029.036l.774.028a45 45 0 0 0 1.306.026c-.015-.008-.022-.017.028-.027.072-.014.262.007.29.01q.009 0 .02-.006a.3.3 0 0 1 .082-.019c.095-.008.534-.096.636-.08l.258-.002.091.002.034.01c.142.028.419.05.576.085-.042.01-.092.018-.137.027l.098.033-.018.015.302.025v-.002c.036-.004.052 0 .062.007l.148.012.048-.008.034-.04.08.023a.5.5 0 0 1 .21.008l.139-.004a1 1 0 0 1 .098-.004c.048-.017.193-.116.413-.13l-.02.103.195-.017.05-.065.023.051.374-.008h.036l.051-.002-.008.044h.006a.5.5 0 0 0 .103-.006l-.04-.02.5-.045.064.029.022-.001.003.012.026.011h.01l.112-.081.28-.003.21.013.348.053a.2.2 0 0 1 .038-.026l.069.006.018-.018c.055.005.13.022.28-.007l-.02.095.049.013.46-.101.204.14.508.023.055-.003-.164-.057.158-.127.305.101q.151-.014.295-.01l-.192.111c.194-.319.397-.525.189-.48l-.08.187.052-.27.18-.172.122-.274.103-.038.063-.243.202-.117.573-1.048c.372-.473.121-.299.296-.677l.353-.459.048-.215.126-.143.45-.761-.185.09.062-.154.337-.304.133-.319.26-.4.082.025-.031-.219.317-.6q-.074.19-.147.383l.221-.273.153-.342.008-.124.431-.642.46-.799c.077-.268.416-.619.276-.738l.41-.63q.03-.079.056-.157l.105-.04.104-.307.225-.384-.027.146.686-1.06-.084-.123.268-.392-.04-.094.375-.682.488-.638c.102-.322.393-.989.614-1.054l.576-1.124.036.099.075-.085-.058-.139.293-.338-.02.173-.087.157.195-.176-.004.01c.217-.333.418-.613.6-.86l.043-.058c.215-.28.354-.376.428-.387q.024-.004.042.005c.051.03.049.153-.021.363l-.019.053c-.104.29-.244.588-.383.863q.054-.069.103-.12c-.009.035-.021.075-.032.111l.07-.056c.002.01.007.016.009.03-.09.161-.175.396-.256.542-.073.134-.147.19-.207.291-.059.101-.2.451-.229.352-.012.016-.029.04-.042.054.058.055-.066.157-.136.303-.032.068-.086.297-.083.07-.014.02-.022.027-.035.044-.02.23-.096.298-.242.49-.082.108-.236.333-.112.263-.027.142-.177.258-.222.346-.044.088.057-.008-.004.11-.01.02-.102.181-.134.226s-.027-.026-.067.053c-.176.346-.296.688-.484 1.047-.555 1.062-1.116 2.05-1.729 3.137-.101.18-.62 1.112-.704 1.204-.285.318.12-.47-.212.03.134.264-.106.535-.353.972-.182.322-.449.858-.632 1.119-.195.279-.085.028-.231.177.02.168-.043.32-.177.566-.14.258-.314.497-.473.759-.054.088-.104.22-.17.319-.083.122-.115.06-.168.135-.052.074.045.04.006.13-.018.041-.171.312-.227.357-.013.01-.002-.05-.026-.05-.013 0-.084-.043-.115.026.03.096.093.137-.02.345-.178.328-.384.617-.586.958-.045.077-.102.286-.205.338-.03.015-.085-.034-.152.09-.058.108-.04.14-.07.245-.012.04-.048.032-.068.108-.02.077-.035.195-.136.194.018.022.038.035.056.054-.063.119-.262.27-.172.276l-.206.361-.111.02c.016-.086.113-.179.073-.219l-.19.304c.143.046.02.406-.071.258-.005-.008-.018.006-.033.032l-.187.313-.346-.005a2 2 0 0 0-.238.019c-.053.01-.067.069-.175.031-.062-.021-.1-.056-.248-.016l.277.055c-.135-.007-.31.014-.43-.018-.03-.007.087-.03.032-.042s-.28-.005-.233.052c-.104-.112-.09-.02-.308-.016-.028 0-.25-.106-.35-.05-.036.02.03.096-.143.064-.127-.024.004-.088-.138-.125.066.086-.155.136-.285.138-.23.004-.196-.05-.27-.074-.132-.043-.247.029-.321-.037q.057-.004.112-.01l-.248-.025.011.107c-.14.011-.198-.032-.314-.04-.016-.002 0 .024-.017.024-.133.002-.176-.011-.275.04-.006-.09-.179-.03-.317-.07-.038-.012-.06-.058-.056.04-.262-.021-.459-.013-.67-.088.078.098-.222.1-.396.072-.047-.007-.088-.076-.186-.064l.085.094c-.2.01-.156-.081-.325-.072-.074.005-.027.106-.168.061-.08-.026-.127-.15-.157.002-.113.007-.043-.042-.122-.048-.05-.003-.105.053-.181.046-.145-.014-.34-.12-.35-.01-.102.008-.028-.038-.121-.032-.125.008-.435.08-.487-.007-.102.051-.435.033-.354-.044.176.021.312-.062.134-.06-.178 0-.225-.01-.247-.04-.09.015-.137.042-.263.046-.09.003-.213-.013-.322-.011 0 .014-.005.026-.03.033-.067.02-.284-.023-.356-.022h-.004c-.014.014-.011.036-.085.046-.021.002-.071-.018-.132-.031q-.079.009-.153.01-.028 0-.06-.002c-.097.017-.26.045-.33.045-.043 0-.125-.027-.142-.029-.055-.003-.03.037-.078.04-.357.024-.787.014-1.133.028l-.844.033c-.311.01-.563.085-.329-.128-.256-.02-.156.037-.194.088-.023.03-.091.005-.105.011-.046.02.062.04.026.054-.148.058-.807.02-.95.022-.66.013-1.165.044-1.772.057-.387.009-.755 0-1.14.008l-.35-.185c.057.004.09.012.152.01.063-.002.217.004.24-.027-.072-.029-.276-.03-.337-.028-.118.003-.028.03-.106.04-.078.008-.233-.029-.325-.011-.215.042.233.054.31.045.008.069-.227-.005-.276.05.038.015.179.05.219.038s-.053-.051.05-.042c.085.035.177.072.26.108-.092.012-.25-.006-.336-.003-.956.037-1.892.044-2.857.057a4 4 0 0 1-.351-.006c-.067-.008-.054-.055-.117-.04-.006.002.026.031-.059.039a4 4 0 0 1-.222.013l-.492-.008-.225-.408a19 19 0 0 1-.244-.403c-.892-1.512-1.776-2.989-2.617-4.556-.044-.083-.218-.386-.236-.45-.054-.19.02-.192-.123-.237-.056-.086.023-.048.01-.096-.005-.019-.126-.089-.129-.145-.007-.128.093.038.15.084-.056-.164-.19-.287-.265-.413-.02-.036.024-.068.02-.076-.069-.159-.153-.091-.188-.062l.115.232c-.098-.138-.133-.262-.205-.418-.018-.037-.033.036-.063-.055q.024-.064.049-.127c-.135-.175-.192-.232-.103.032l-.161-.285c.05.017.072-.06-.011-.137-.02-.017-.02.058-.046.036a2 2 0 0 1-.142-.249c-.065-.17-.013-.234-.125-.348.025.04.092.239.006.132-.095-.119-.364-.678-.441-.842-.132-.28-.19-.42-.273-.678-.016-.05.028-.07-.004-.164-.043-.126-.148-.34-.194-.483.024.021.05.048.075.071l-.022-.1c.008 0 .015-.003.025-.001.097.157.25.328.338.468.08.127.101.232.16.333.06.101.285.375.2.379.008.02.022.047.029.066.06-.052.1.127.19.253.042.06.201.193.028.12.012.023.015.035.024.056.17.093.199.203.301.436.058.13.183.38.167.211.101.076.144.289.198.369s.01-.07.083.038c.012.019.108.176.132.228s-.028.023.02.095c.211.313.437.56.655.89l.242.373c-.123-.296-.157-.547-.534-.81l-.424-.679.005-.057a13 13 0 0 1-.22-.352 77 77 0 0 1-.529-.884c-.413-.7-.945-1.613-1.505-2.585l-.01-.018-.01-.018-.053-.094c-.009-.018-.047-.088-.082-.164-.01-.021-.076-.163-.097-.273l-.007-.047-.1-.238.041-.02-.105-.18-.028-.015-.346-.554-.06-.174-.292-.503-.062.001-.099-.283q-.143-.25-.258-.458l-.012.023-.348-.476-.077-.232-.128-.14-.403-.683-.02-.212-.127-.196.045.187-.342-.564q-.04.014-.08.026.055.082.098.154c.024.041-.01.047-.006.055.085.17.148.154.174.146l-.136-.255c.107.167.157.29.244.46.021.04.024-.014.064.078q-.01.044-.023.085c.145.217.203.293.085.023l.185.324c-.047-.04-.054.017.03.123.02.025.01-.04.036-.008.025.031.154.265.162.284.084.178.048.206.163.36-.028-.048-.116-.25-.025-.116.102.149.423.761.517.94.158.306.23.454.344.717.02.05-.015.045.028.142.057.129.182.364.245.51l-.026-.033a8 8 0 0 1-.207-.367c-.287-.368-.544-.83-.633-.973l.008.002-.035-.07c-.02.006-.042-.022-.069-.069l-.043-.084v.005a2 2 0 0 0-.09-.156l-.054-.13.007.006c-.014-.025-.019-.037-.03-.06l-.002-.001-.004-.01-.015-.033c-.027-.061-.058-.133-.09-.2a3 3 0 0 0-.126-.235l-.091-.15c.079.077.035-.107-.122-.374-.042-.026.028.068.017.075s-.057-.102-.056-.053c.09.169.069.078.146.201-.03-.022-.034.023-.057.006-.036-.026-.067-.104-.086-.113l-.018-.029-.126-.224c-.054-.068-.163-.378-.22-.527l.017.022-.033-.062-.011-.025a.3.3 0 0 1-.024-.078q.009.008.012.003l-.175-.314q.006-.002.014.004a52 52 0 0 0-.946-1.561l-.11-.198.11-.183.118-.226-.02-.046c-.008-.004-.017-.01.022-.057l.025-.02q.004.003.01.001a.26.26 0 0 0 .094-.071 1.31 1.31 0 0 0 .307-.626l.008-.03.002-.009.001-.006.317-.618c0-.003.046-.102.049-.107a.2.2 0 0 1 .023-.03l.032-.061q-.011.01-.016.009c-.003 0 .004-.014.01-.027l.01-.026c0-.009-.006-.008-.01-.008-.01.002-.015.002.032-.078l.103-.155-.042.006a.1.1 0 0 0-.028.02.5.5 0 0 0-.052.083c-.029.053-.056.103-.08.08.037-.077.073-.13.108-.18.041-.06.082-.12.123-.218.028-.022.011.014-.007.052-.015.03-.03.062-.025.068.005.004.021-.01.036-.023.033-.028.062-.052-.033.112q.007-.006.016-.004h.003l.05-.096a.2.2 0 0 1 .02-.049l.014-.019.099-.194q-.003-.004-.002-.013a1.4 1.4 0 0 1 .12-.236h.001q0 .002.008-.001l.038-.074c-.004 0-.008-.001-.004-.012a.4.4 0 0 1 .057-.093l.042-.083a1.4 1.4 0 0 0-.117.158c-.042.062-.079.116-.086.11l.005-.015c.01-.026.03-.075-.044-.006.111-.218.098-.144.093-.114q-.003.011-.001.01c.039-.067.058-.117.078-.169q.014-.04.035-.087.012-.025.03-.056a1 1 0 0 0 .039-.072c.008-.019.022-.073.037-.126.015-.057.03-.113.036-.12.026-.003.069-.055.11-.104q.027-.034.052-.06a1 1 0 0 1 .05-.042l.02-.015.01-.01-.004.002a.6.6 0 0 0 .068-.14c.004-.026-.008-.028-.023-.025l-.03.008c-.012.003-.019-.001-.006-.028.058-.125.154-.199.155-.15 0 .01-.014.036-.03.063-.017.031-.035.065-.034.08l.059-.083.23-.456c-.034.015-.032-.022.062-.176l.021.01.181-.36c-.029.042-.064.089-.067.045-.004-.038.064-.162.119-.26.024-.046.046-.086.057-.11a.5.5 0 0 0 .034-.095l.111-.204a.1.1 0 0 1 .033-.024c.013-.005.025-.01.055-.071-.032.028-.036.012-.024-.024l.093-.173.03-.035c.014-.014.024-.018.034-.022l.018-.01.033-.066a.07.07 0 0 1-.042-.003l.042-.076a.4.4 0 0 0 .062-.079c.014-.02.027-.04.036-.05l.011-.01.072-.143a.6.6 0 0 0 .134-.18l.127-.236c.01-.002.026-.014.071-.075a1 1 0 0 1 .016-.088l.144-.27a2 2 0 0 0 .11-.234l.032-.077.053-.124c.131-.228.272-.456.408-.694.06-.103.125-.247.195-.363.089-.146.103-.1.158-.189s-.028-.02.02-.12c.022-.046.194-.357.247-.42.012-.014-.008.047.01.038.011-.005.06.009.097-.068-.006-.078-.048-.094.08-.331.203-.374.42-.722.644-1.118.05-.088.135-.307.226-.393.027-.025.061 0 .138-.142.065-.122.057-.146.101-.255.017-.042.043-.048.074-.127.03-.08.064-.197.144-.232-.01-.014-.023-.02-.034-.03.072-.136.258-.352.187-.323l.231-.417.092-.06c-.029.088-.123.21-.099.234l.208-.357c-.105.01.06-.373.104-.268.009.02.13-.229.154-.283s-.004-.077.079-.18c.047-.058.089-.09.147-.245l-.186.269c.079-.134.164-.312.25-.428.02-.028-.031.092.007.038.038-.053.159-.279.099-.24.124-.087.06-.086.18-.306.016-.027.202-.233.225-.342.008-.039-.074.016.042-.152.085-.125.05.016.15-.12-.087.053.007-.175.078-.305.125-.23.138-.189.193-.259.1-.126.121-.251.202-.316l-.057.114.153-.244-.07-.005c.071-.142.13-.194.2-.308.009-.016-.015-.004-.006-.02.073-.134.105-.175.13-.28.056.006.117-.176.218-.308.028-.037.067-.052.006-.062.078-.127.143-.24.209-.345l.259-.436.48.008c.127.004.249.012.378.033-.106-.056.237-.061.441-.048.055.003.113.043.224.035l-.113-.054c.227-.008.192.046.383.038.085-.004.014-.063.183-.039.096.014.17.086.18-.003.127-.006.055.024.147.026.057.002.11-.032.2-.029.167.006.41.066.4 0 .116-.005.04.023.145.018.14-.007.484-.054.558-.003.108-.031.493-.026.413.02-.206-.01-.347.042-.144.038.332-.005.27.012.348.071.012.01.106.013.087.024s-.221.024-.108.048c.022.004.126-.015.147.01.021-.006.031-.012.048-.018.185.054.203.072-.138.08l.027-.036c-.048.015-.09.03-.143.045-.374 0-.877.047-1.214.033-.295-.013.11-.022.117-.024.075-.024-.061-.033-.064-.048-.002-.016.164-.04.015-.031-.02.001-.217.048-.224.054-.032.033.01.046-.033.056.945.018 1.712.037 2.455.052l.586.01a65 65 0 0 1 1.678.052l.418-.025.138.02.728.002.031.03c.406-.095.524.115.875-.051l.444-.017.099.07.04-.02.39.025.29-.052c.07.07.832-.032.684.029l.328-.005-.078.028.05.02.243-.035c.117.104.253.022.31.015.091-.012.261-.014.272-.017.017-.003-.139-.03-.008-.047l.208.05.024-.028.142.017-.002.032.083.012.048-.029.362-.013.268.05.14-.006.03-.057.38.07.208-.013-.049-.03-.075.018-.015-.024.325-.037.132.027.102-.023.44-.005.108.049.129-.007-.103-.03.366-.01.014-.062.162.012.009.034.666.061.026-.065c.302.034.614.005.884.013.114.003.262.062.24.003l.66.02.191-.034.286.05c.143-.044.878-.072.857-.007.165-.015.151-.002.35-.024l.151.038.25.004.114.207.114.213.195.271.058.224.047-.014.111.162c.158.115-.147.044.212.48l-.122-.22.002-.115.197.294q.052.112.107.225l.118.172.241.497.272.445.014.1.153.175.039.083-.015.04.222.35.12.266.019-.024.66 1.16.002.003c-.003.056.172.224.075.247l.045.022.057.134-.033.008.053.095.04-.012-.037-.12.14.273-.045-.023c.042.127.334.412-.003.263l-.082-.198.008.132-.058-.004-.068-.183-.077-.07.017.07-.082-.087-.2-.33-.015-.069-.324-.584.072.051-.086-.153-.058-.033-.095-.148.074-.002.125.124-.052-.132-.054.002-.098-.177.018.101-.059-.022-.157-.239.01-.04q-.066-.083-.134-.165l-.034-.1-.039-.03-.116-.21-.045-.144-.1-.116-.42-.795c-.151-.148-.31-.6-.345-.548l-.376-.667-.052-.145-.382-.634-.043-.078-.095-.002h-.027l-.955-.05.096.058-.3-.003-.18-.042-.171.036c-.077-.1-.278.017-.536-.016-.136.085-.34-.06-.504.03l.024-.029-.162-.002-.335.033-.01-.038-.144-.007.079-.032-.125-.01-.45.04-.116-.031-.062.029-.265-.024.019.029.12.002-.007.028-.399-.005.032.02-.338-.005.007.002c.044.016.01.076.244.075.2-.001.234-.029.41-.048.068-.008.083.021.21.005.128-.016.313-.054.383.022.02-.023.025-.043.04-.064.221-.003.588.083.53.013l.684.004.11.075c-.14.022-.346-.01-.378.035l.587.015c-.035-.123.585-.18.432-.053-.028.025.376.007.463 0 .088-.009.117-.058.29-.025.1.018.158.048.405.016-.145-.015-.3-.033-.447-.05.22.008.51-.007.703.02.048.007-.146.024-.057.035.02.003.057.005.1.006h.04l.018.033c.067.12.177.291.182.226-.004.184.057.134.236.446.023.04.117.39.243.515.045.045.05-.074.165.184.084.19-.073.023.013.237.015-.121.232.18.338.364.188.327.118.295.159.407.073.204.222.345.23.472-.033-.055-.066-.104-.098-.156l.18.362.075-.05c.122.195.135.292.221.461.012.024.019-.008.033.016.11.19.133.256.252.38-.065.038.122.267.201.476.023.059.004.104.078.067.193.38.358.659.469.985.014-.143.258.285.377.543.032.069.01.149.099.286l.005-.15c.168.281.062.247.206.486.063.104.105.005.183.22.045.124-.015.23.128.225.097.159.001.074.06.189.038.072.126.133.182.244.107.211.18.525.274.502.09.144-.007.053.073.183.106.176.414.597.387.699.122.129.377.611.25.52-.125-.26-.3-.426-.156-.173.236.415.168.34.13.45-.006.015.053.135.023.113s-.188-.274-.147-.127c.008.028.109.156.085.188.024.024.04.036.06.055.045.242.03.268-.217-.158l.073.028c-.056-.058-.106-.107-.166-.171-.255-.468-.673-1.087-.882-1.512-.182-.37.107.13.117.141.087.09.009-.082.03-.088.022-.006.172.198.057.012a4 4 0 0 0-.236-.269c-.114-.055-.027.115-.267-.27-.086-.139-.324-.543-.414-.696-.1-.168-.147-.324-.208-.423-.061-.1-.028.008-.1-.11-.14-.233-.315-.586-.44-.804-.142-.247-.215-.3-.352-.539-.095-.165-.198-.402-.315-.583-.008-.054.105-.006.03-.128-.092-.148-.01.085-.073.02-.098-.147-.007-.055-.009-.06-.03-.083-.112-.206-.159-.303l.069.21c-.124-.267-.096-.111-.22-.309-.034-.051-.054-.2-.172-.376-.029-.042-.307-.456-.385-.596-.033-.06-.067-.17-.078-.192-.04-.078-.064-.053-.106-.123-.309-.519-.635-1.13-.922-1.63l-.36-.624.451.262h-.681c-.518.001-.99.056-.43-.115-.399-.025-.285.026-.39.068-.062.024-.152.001-.18.006-.091.015.068.034-.003.045-.289.045-1.332-.007-1.568-.009-1.085-.008-1.935.003-2.937-.003-.638-.004-1.229-.022-1.863-.027l-.415-.165c.09.005.136.012.24.013s.35.01.414-.016c-.093-.026-.425-.033-.526-.033-.195 0-.071.025-.206.03-.134.005-.357-.03-.52-.018-.386.029.334.052.466.047-.044.057-.366-.012-.492.033.049.013.248.048.324.038s-.042-.044.12-.033l.331.097c-.16.008-.403-.012-.546-.011-1.589.002-3.121-.019-4.705-.036a12 12 0 0 1-.566-.016c-.103-.008-.042-.047-.156-.037-.013.001.016.027-.13.031a39 39 0 0 1-1.15 0c-1.48-.017-2.947-.031-4.411-.054l.31-.179q-.763 1.282-1.537 2.557l.057-.056-.061.207-.333.612-.092.086-.614 1.037.014-.16-.16.276.001.119-.142.283-.072-.113.052-.199-.003.003c-.017.02-.098.271-.147.313l-.02.014-.095.158.142-.12.018.112-.229.462-.072.02-.134.36-.124.143-.012.088-.22.372-.182.202-.09.261-.855 1.38c-.093.369-.65 1.028-.538 1.034l-.697 1.195q-.09.105-.179.214l-.66 1.213-.937 1.449.178-.098-.275.466-.228.246-.097.3c-.224.03-.222.448-.505.823.01.287-.39.475-.405.804l.013-.012q.007.017.014.035c-.03.037-.063.08-.093.12-.015-.053.01-.093.062-.14l-.02-.056-.149.253-.248.553-.07-.018-.09.143q.013 0 .013.02c-.12.24-.206.23-.1.044a.2.2 0 0 1 .046-.05l.012-.09-.129.187-.153.332V19.9l.216.309c.008-.017.017-.032.033-.033.063.078.215.335.338.548h.002l.064.114.109.19a1 1 0 0 1 .048.093l.115.208.013.018.001-.063q.15.267.297.535c.06.066.098.066.03-.052-.176-.306-.116-.257-.054-.357.009-.015-.032-.105-.003-.092s.151.195.135.078c-.003-.022-.089-.11-.057-.142-.02-.016-.035-.023-.053-.036-.003-.196.02-.222.204.092l-.074-.009c.05.038.095.07.147.112.188.347.522.791.667 1.11.126.28-.092-.09-.1-.096-.077-.058-.026.071-.05.081s-.148-.134-.06 0c.012.018.191.18.205.183.113.024.051-.103.238.177.067.1.246.397.316.51.076.123.096.246.143.318.048.072.032-.012.087.074.109.17.23.436.323.596.107.181.175.212.278.388.071.122.138.302.23.433-.002.044-.115.027-.057.115.071.108.028-.074.083-.031.077.105-.002.046-.002.05.017.064.082.152.114.225q-.016-.079-.034-.164c.083.202.082.075.18.218.026.038.02.16.114.286.023.03.245.327.303.43.024.046.04.132.047.149.027.058.06.032.091.083.236.38.472.836.688 1.203l.525.894c.194.33.426.6.04.344.123.27.133.166.216.209.048.025.058.096.073.111.05.05.01-.064.049-.025m8.185-27.416c-.131.045-.004.061-.287.021.272-.048-.118-.074-.12-.115 0-.023.132-.01.172-.022.061-.019-.03-.049.044-.061.072-.012.328.01.41.008.158-.002.293-.018.424-.02.132-.002.34.017.424.018.085.002.167-.003.181-.006.08-.015.024-.048.139-.05.015.033.185.083.02.104.026 0 .057.007.08.006.11-.005.039-.05.09-.057.084-.014.032.02.033.023.093.026.042-.005.077-.019.018-.007.181-.024.217-.023.035 0-.005.018.019.019.102.003.207.006.307.002.1-.005.15-.036.159.008 0 .007-.055.014-.033.03.007.005.095.03-.015.046a1 1 0 0 1-.101.008l.034-.019h-.082q.018-.024.032-.047c-.04-.016-.074.006-.08.006-.096-.006-.095-.038-.151 0l.193.017.002.024h-.038l.025.019a3 3 0 0 1-.27-.022l.08-.029c-.108.009-.049-.011-.128-.021-.012.038-.057.03-.122.027s.024.025-.04.03c-.133.007-.37-.036-.392.02-.178-.033.03-.04.039-.053.037-.057-.31-.03-.357.001-.053-.017-.059-.043-.189-.035-.176.01.217.039-.025.046-.162.005-.144-.023-.226-.028-.152-.01-.415.005-.313.043.04.015.15-.006.198.01.025.008-.013.087.113.025.012-.006-.068-.034.045-.036.032 0 .145.025.235.016.04-.004.2-.04.305-.028.113.012-.053.021-.01.033.045.012.181.01.182.036-.067.03-.086-.015-.11-.013-.091.009-.006.053-.142.049-.025-.024.082-.09-.113-.071 0 0 .05.015-.013.021a6 6 0 0 1-.457.018c.017.036.184.032.274.056-.183.008-.385.02-.527-.012l.205-.017-.243.007c.027-.015.201-.055.07-.062-.002.04-.181.048-.244.07m-.988-.194c.09-.03.23-.024.377-.024-.025.031-.266.018-.377.024m3.841.078c.11.05-.273.049-.427.043h.107q-.026-.017-.054-.032l.117-.006q-.072-.016-.14-.034c.088-.048.103-.018.252-.013.095.004.127-.013.243-.015.543-.012 1.096-.04 1.657-.038.011.04.001.05-.1.056v-.035q-.1.006-.197.016l.192.02-.119.005c-.035.002-.04.018-.09.017-.105-.003-.254-.05-.365-.036-.064.008.037.052-.125.041.086-.034.144-.063-.097-.047.15.027.035.017-.013.033-.03.01.177.004.048.024-.028.004-.438.027-.429 0 .022-.06.044-.053-.215-.017.345.02.046.063-.11.048-.079-.008.045-.037-.135-.03m2.024-.065c-.105-.001-.125.026-.207.009-.007-.002.055-.03.105-.032s.376.007.387.01c.108.048-.248.014-.285.013m.328 0 .382-.006-.011.018zm-6.665.055c.027-.04-.098-.044-.145-.043-.171.005-.278-.029-.344.012.106.022.173-.005.223-.003.111.006.12.039.266.034m-.658-.005c-.046-.008-.029-.029-.091-.034a2.4 2.4 0 0 0-.31-.003c-.065.008-.048.038-.1.05zm-.968.018c.097.002.203-.04-.014-.03-.01 0-.084.027-.152.01-.044-.01-.014-.022-.072-.034-.059-.013-.184.046.238.054m-2.52.983c.023-.04.03-.093.017-.075-.11.143-.119.26-.016.075m10.109-1.024h.005zm-9.885.643-.104.232.097-.13zm.146-.09c-.018-.02-.045-.02-.11.065.013.027.06-.016.11-.065m-.721 1.151c-.081.096-.025.199.02.028.005-.016-.014-.035-.02-.028M17.34 1.77h.003q0 .002-.003.005zM9.863 37.592c-.008-.093-.138-.121-.135-.103.015.09.14.169.135.103m1.819-35.715c.291.036.326-.042.345-.05.102-.04.146.027.172.026.12-.002-.04-.074-.056-.075-.265-.018-.186.038-.21.056-.051.039-.234.01-.251.043m5.646-.09h.064l-.008.005.124.009-.146.013zm-9.63 4.348c.136-.138.378-.685.164-.342-.037.059-.004.034-.025.071-.02.039-.24.374-.14.271m6.107-4.312c-.056-.025-.143-.015-.247-.01l.038.027zm-2.125 36.31c-.09.01-.25-.01-.242.042l.221.018zm.938-.094c-.084.017.008.048-.023.073-.033.024-.303.014-.118.074.058.019.376-.034.48.007.05-.12-.13-.034-.261-.084-.04-.014.069-.071-.078-.07M7.395 6.649l-.11.226.124-.214zm-5.328 9.316.016-.044.067-.118.046-.037zm4.518-7.79c.085-.117.145-.3.072-.216-.087.1-.21.407-.072.217m.376-.744c-.163.268-.216.485-.033.125.01-.02-.003-.06.033-.125m-5.277 9.227c.085-.087-.117.357-.199.472l.008-.135.024-.053.12-.217c.023-.034.046-.065.048-.067zm14.564 21.487c-.294-.11-.362-.005-.17.02.023.003.175.003.17-.02M10.845 1.901c.01.012-.085.077.083.026.058-.018.044-.035.214-.04-.157.007-.14-.042-.157-.045-.143-.028-.285.031-.255.056.01.007.105-.008.115.003m6.974-.063h.254l-.023.026zm-2.765 36.127c-.017.034.223.167.257.176.22.056.336-.024.543.015-.06-.089-.21-.031-.335-.074-.038-.013.098-.089-.094-.11-.062-.008-.285.017-.371-.007M1.385 17.297c.042-.05.031.087-.075.178q-.006.003-.007-.005-.003-.006-.007-.004c-.01.01-.04.054-.076.106-.073.107-.17.245-.153.184l.12-.218.042-.037c.019-.015.037-.03.057-.053a1 1 0 0 0 .1-.15m16.5 20.557a.5.5 0 0 0-.208-.003c-.012.013.012.025.033.035l.06.005-.05.001c.021.012.032.022-.02.033l-.45-.006.053.076.088-.028.091.023c-.084.143-.354-.01-.584.059q-.001-.045-.001-.09c-.403-.03-.128.004-.099.077.017.042-.119.005-.142.012-.16.05.255.107.385.105.129-.003.31-.058.454-.062.086-.001.098.03.185.028.129-.003.358-.001.47-.023.04-.008.001-.064-.01-.07-.029-.016-.084.014-.117.01-.033-.005-.011-.029-.054-.03a3 3 0 0 0-.283.016c-.085.028.052.056-.067.053-.153-.194.242-.078.297-.09.123-.027.101-.042.053-.054a1.4 1.4 0 0 1-.165-.017c-.04-.04.011-.045.078-.039.009-.008.016-.015.005-.02zm4.72.19c.245-.004.104.08.063.082-.173.005-.31-.09-.386.022-.105.006.001-.04-.063-.045-.129-.01-.266.05-.4.042-.01-.025-.041-.052-.033-.077.137-.027.756-.023.818-.024M12.887 1.852l-.337.033c.163-.006.222-.01.327.02zM7.807 6.065c.011-.012.152-.275.135-.284-.032.045-.211.36-.135.284M21.051 38.08c.22-.015.254.063.078.064-.05 0-.109-.043-.078-.064M6.636 31.793c-.013-.025-.2-.346-.224-.29l.291.544c.008-.018-.007-.076-.016-.104-.022-.07-.003-.06-.05-.15m14.922 6.259c.06.01.028.046.145.028l.002.01c-.01.026-.104.045-.153.043-.002 0 .01-.023-.003-.024-.1-.004-.253.018-.247-.045.093.037.197-.022.256-.012M12.09 1.934c.127.001.198-.036.173-.06l-.25.016zM5.556 29.928l.042.106-.046-.052.034.091.116.053zm10.552 7.917c-.102-.033-.065.074-.008.085.056.01.165-.015.214.028-.076.021-.163-.006-.26.007-.112.016.012.068.042.054.06-.029-.008-.07.14-.035.126.03-.007.124.099.13.134.006.081-.052.032-.087l.248-.027c-.248.001-.278-.068-.327-.155-.105-.01-.007.05-.116.042-.038-.003-.055-.04-.064-.042m-4.12.216c-.201.002-.199.07-.028.037.036-.007.034-.022.028-.037m.518-36.158-.206-.002-.004.018.206.002zm1.366.001c-.091.006-.249-.013-.251.016l.246.011zM7.96 5.844l-.026.044.026-.045m6.284-3.937-.21.016.205.011zM.284 19.352a1.5 1.5 0 0 1-.122.197c-.036.055-.07.106-.087.135-.022-.161.216-.353.21-.332m5.838 11.241c-.227-.422-.28-.142-.084.188.048.003-.02-.069-.005-.085.016-.017.049.091.059.028-.075-.154-.07-.052-.14-.155.033.008.048-.053.074-.049.048.009.07.118.096.073m12.96 7.355h.004c.072.02.085.125.099.129.155.027.234-.07.139-.107-.056-.022-.148.043-.15-.024.115.014.157.005.17-.008zm3.744.13c.03-.053.237-.025.335-.033-.087.049-.207.036-.335.033M11.218 1.92c-.16.001-.124.022-.15.034l.11.002zm15.676 36.106c-.04 0-.089.032-.07.038.15.044.254-.039.07-.038m-8.362-.043c-.12.027-.364-.007-.344.07.213.046.13.019.223-.021.063-.027.17.02.121-.049m-12.155-6.65.084.164.006-.08zM.482 19.111c.022.044-.242.428-.224.36.1-.159.084-.157.063-.154-.01.001-.02.003-.02-.013.006-.086.164-.23.181-.193M12.33 1.964l-.141-.019-.055.026.129.002zm7.249 35.991c.171.082.2.137.212.068-.036-.007-.054-.017-.036-.025l.039.002.003-.041zm5.429-.003c-.084-.005-.187.064.005.053.008 0 .079-.045.134-.016.036.02.008.037.055.06.048.024.171-.074-.194-.097m-.408-.002c-.149.003-.291.008-.44.013.038.014.018.05.071.059.054.01.21.024.27.012.058-.013.051-.065.099-.084M.8 21.126c.039.06.127.191.092.173a.3.3 0 0 1-.05-.078c-.021-.039-.038-.073-.042-.048.045.144.115.252.21.398l.008.013q.002.001 0-.014c-.004-.024-.01-.066.011-.05l.011.028c.03.071.012.053.068.154l.036.062.015.04q.016.037.04.081c.025.048.053.1.063.137-.026-.013-.073-.116-.11-.2-.024-.052-.044-.096-.055-.109a.1.1 0 0 0-.023-.01c-.018-.006-.043-.014-.056-.026q.006.015.029.048c.026.04.058.09.042.09h-.005c-.026 0-.068.002-.123-.092a.1.1 0 0 1-.007-.024.1.1 0 0 0-.011-.038l-.044-.071c-.02-.033-.042-.065-.055-.095q-.007-.015-.009-.032a.2.2 0 0 0-.014-.05.3.3 0 0 0-.038-.048.6.6 0 0 1-.094-.135c-.017-.037-.014-.12.031-.056.028.038.028.05.028.06q-.001.008.004.02.016.03.038.063c.032.05.063.098.038.111.03.052.053.032.05.014a4 4 0 0 0-.266-.536v.006c.001.017.005.056-.068-.015-.055-.055-.1-.136-.12-.173l-.011-.02q-.003-.002-.005.016c-.005.041-.017.13-.118-.138-.02-.028-.024-.019-.027-.01-.003.005-.005.01-.012 0a2 2 0 0 1-.099-.154l.01-.032.021.032c.038.058.114.174.125.16a1.3 1.3 0 0 1-.166-.33L0 19.991l.142-.24.012-.012c.028-.028.07-.07.059-.108-.002-.008-.017.012-.033.035-.022.03-.047.064-.048.039.046-.079.062-.126.081-.182l.004-.01c.018-.016.013.005.008.024-.003.013-.006.025-.001.023l.095-.106c.014-.02.043-.07.071-.12l.054-.093c.015-.026.037-.058.055-.083l.03-.044q.012-.026.021-.054a.4.4 0 0 1 .031-.071.3.3 0 0 1 .03-.037l-.009.035-.012.051-.022.09-.018.014c-.033.01-.094.11-.175.263-.02.037-.017.043-.014.048q.004.002-.001.017a4 4 0 0 1-.103.199l-.061.114-.124.209.124.225q.038.061.074.112c.007-.008-.016-.043-.035-.071l-.02-.033c-.002-.008 0-.019.007-.023l-.116-.21.116-.194-.115.195.116.209c.008-.005.022 0 .042.027.068.097.073.14.077.179a.2.2 0 0 0 .014.063c.063.163.198.36.179.23.057.135.063.136.073.137q.005-.002.019.013a.5.5 0 0 1 .112.163c.01.021.021.047.043.087zM23.588 37.94c-.034.067.074.077.116.076.15-.004.235.054.301-.013-.086-.04-.15.005-.194 0-.095-.012-.095-.068-.223-.063m-3.417.071c-.018.007-.087-.005-.2-.006l.072.004c-.016.013-.047.02-.083.023a.7.7 0 0 0 .208-.015zq.007-.001.006-.007h-.001zM5.448 29.538l-.011.087.098.022zM.634 18.82c-.027.038-.057.074-.062.065a.7.7 0 0 0 .071-.148v.007zm.246-.39a.3.3 0 0 1-.028.042l.002-.021a.3.3 0 0 0-.001-.066c.02-.036.042-.072.053-.09.024 0 .028.039-.026.136m38.462 4.75.055.005c-.012-.006-.024-.022-.037-.038zm-7.498 12.992c-.085.09-.118.272-.04.214.094-.07.18-.362.04-.214M11.467 38.01c-.103-.056-.392-.07-.18-.01.053.014.123.008.18.01m15.043-.001.227-.037-.136-.036zm3.773-.044c-.151-.088-.684.003-.336.038.06.006.03-.022.068-.022s.38.05.268-.016m-2.714.021c.102.04.179-.127.02-.054-.016.008-.028.05-.02.054m3.957-1.146c.155-.224.168-.452.013-.129-.008.019.022.073-.013.13m-.385.678.091-.203-.114.183zM.543 19.01c.021-.044.053-.1.086-.152l-.004.023-.005.03q-.039.048-.077.1M20.632 37.98l.01.003h.003zm-.106-.038c-.044.012.015.02.106.038-.01-.007.015-.028-.002-.03zm.51-.046q-.04 0-.075.003c-.008.024-.003.052-.029.059l-.023.005c.035.01.086.015.137.015-.02-.03-.035-.06-.01-.082m5.363-.029c-.013.044-.006.083.082.11.021-.042-.027-.075-.082-.11m-5.522.05c-.023.015-.013.03.015.04-.006-.011.017-.038.016-.04l-.014-.007zm.712-.015c-.027.002-.05.008-.056.02-.011.02.039.029.088.03.084-.009.003-.032-.032-.05m-.36-.01-.085.003c-.006.03.025.043.07.047q.023-.018.015-.05m15.29-25.201c-.044-.083-.158-.213-.152-.261.058.08.029-.083-.033-.158-.056-.073-.061-.054-.039.019-.154-.271-.354-.573-.449-.803.029.039.044.04.06.04-.048-.086-.055-.144-.12-.241-.009.024 0 .062.011.1-.116-.223-.325-.508-.371-.682.096.169.164.296.196.223q-.066-.102-.13-.203c-.029-.126.115.072.049-.056-.083-.11-.07-.154-.151-.262-.042.016-.058.066-.046.198-.23-.382-.465-.768-.687-1.145.099.108.167.261.208.323.037.056.052.034.087.081-.006-.007.066.163.077.12q-.03-.09-.064-.18c-.091-.17-.085-.066-.165-.202-.015-.084-.21-.45-.207-.322.045.075.135.182.095.2-.084-.124-.102-.203-.203-.34-.017-.075.092.054.018-.08-.035-.052-.032-.002-.062-.041.01-.146-.148-.403-.274-.64.093.108.231.212.298.383.002-.05.044.014.066.02.056.13.268.42.199.361-.024-.02-.08-.136-.083-.101.061.161.283.367.122.082l.13.2c.005.123-.092-.037-.11.017a.7.7 0 0 0 .16.221c-.125-.21-.005-.023-.034-.158.112.22.217.295.307.501a.8.8 0 0 0-.26-.243c.046.107.191.273.225.242.06.1.101.214.134.18a1 1 0 0 1-.069-.16c.259.344.48.767.856 1.328.042.088.065.164.117.26.1.107.187.324.224.4.035.076.108.183.125.22.104.237.102.393.148.58l.002.003c-.089-.066-.124.02-.205-.024M21.93 37.934c.1.006.328-.092.063-.043l-.024-.041-.005-.002zm.148-.01.005-.002h-.011zm.972-.072c-.064-.006-.137-.02-.193 0l.086.07a.4.4 0 0 1 .12-.036zM3.753 13.586c-.078.069-.246.348-.106.173.036-.044.073-.118.106-.173M24.88 37.83c.014.037.06.08.067.082.193.03.182-.036.19-.074l-.095.003c-.034.018-.057.01-.075-.004l-.044-.002zm-5.833.07-.118.002c.006.015.045.02.146.01zm-2.056-.008.058.023.074-.073-.072-.002zm2.96.013c-.045-.004-.076.002-.11.01l.14-.005zM2.404 24.085l.093.138-.003-.069zM30.198 37.86c-.012-.007-.276.002-.28.035.046.01.364.015.28-.035m1.764-2.235c.035-.001.111.044.153-.005.066-.078.08-.182.015-.153-.02.008-.136.163-.168.158m-14.52 2.257c.006-.008.06-.008.07-.012l-.062-.005zM5.516 10.548l-.07.12q.016-.024.034-.056zm-.152.387c0-.018-.042.022.012-.063l.043-.045q.042-.087.087-.175l-.103.094c-.113.196-.192.336-.249.438a4 4 0 0 0 .21-.345c.028.032-.13.222-.14.303.015-.016.052-.061.084-.106q.016-.03.033-.059.012-.02.023-.042m.575-1.049q.086-.168.178-.338a1 1 0 0 1-.045.061c-.006.007-.008.002-.009-.006l-.037.064-.165.286zM26.919 2.13l-.1.02.089.006zM4.066 13.1c-.114.2-.09.238-.004.049.018-.04.012-.046.004-.05M6.58 8.717l-.073.124v.002zm26.433 25.19c-.062.06-.102.183-.044.144s.121-.217.044-.144M18.83 37.691c-.031.016-.12.08-.114.107.009.042.117.076.197.054.003-.012.011-.023.04-.025.009-.026-.01-.067.117-.037l.042.02c.07-.007.196-.015.267-.008.014-.016.022-.032.007-.052-.024-.034-.183-.015-.25-.023-.03-.003-.046-.031-.051-.032-.068-.01-.09.02-.152.022-.03.002-.07-.041-.102-.026M2.185 23.593l.159.242-.054-.111.049.067-.044-.095zm29.02 13.478-.06.067.044.017.045-.174-.055.045zm-5.234.71-.015.001c.012.02.01.043.016.046.103.044.22-.024.236-.07a2 2 0 0 1-.14.01l.006-.06c-.035.025-.064.049-.103.074m4.353-.183-.513.01c.014.067-.132.09-.116.148.01.034.175.019.24.028.027.003.03.032.035.033.063.01.099-.017.162-.019.03 0 .05.043.09.028.038-.015.155-.077.161-.104.011-.047-.109-.087-.205-.048-.046.018-.012.088-.15.049-.019-.006-.096-.077-.164-.073.084-.043.359-.042.475-.03q.002-.014-.015-.022m-14.22.087c-.109-.017-.188.024-.112.065.023.013.225.032.25.063-.032-.03-.07-.118-.138-.129m8.814.098q-.04.002-.041.023l.06-.005q-.01-.017-.018-.018m-10.575-.023c-.076-.028-.246.008-.131.036.092.023.207-.007.131-.036m6.687.024c-.117-.025-.131-.05-.262-.035.068.024.204.073.262.035M1.079 21.512l-.052-.068q.028.061.064.122l-.022-.045zm21.89 16.206c0 .034-.017.098.084.026q.014-.011.023-.023c-.024 0-.08.013-.107-.003m2.982.018a.4.4 0 0 1-.105.012c.046-.003.074.005.09.016l.021.002zm-8.197.003.076.023.008-.045.095.017-.028-.046zM.517 20.393l.094.166c.051.093.25.439.276.502.076.19.013.156.144.264.062.102-.012.03.006.078.004.01.035.045.067.083l.01-.01-.5-1.097zm24.428 17.266c-.058.02-.09.059-.078.088l.102-.01c-.017-.008-.033-.016-.036-.024-.01-.025.114-.062.012-.054M20.988 2.326q.105.002.23-.003l-.03-.02-.11.008.003-.037-.152-.013-.143.055.055.006zm3.337 35.41.104.002-.005-.02-.033-.01-.059-.001zm7.442-2.104c.056-.04.1-.017.15.005.06-.082-.029-.05.032-.137.022-.03.055-.012.06-.017.074-.058-.014-.12-.05-.081s-.075.153-.128.157c.026-.084.088-.134.128-.227q.017-.041.012-.055l-.06.106c.003.016-.001.03-.04.07zM18.874 2.317q.076-.01.163-.016l-.042-.03q-.045 0-.09-.004.003.014-.007.029a.1.1 0 0 1-.024.021m9.445 35.41c-.057-.024-.17-.076-.244-.04.104.029.107.054.244.04m-4.172-.062q.009.006.01.012c-.002.026-.153.063-.021.052.006 0 .034-.01.067-.024a.04.04 0 0 0-.008-.046zM14.391 2.387a.7.7 0 0 1 .145-.057l-.159-.04.015-.015h-.008a1 1 0 0 1-.1.025c.133.033-.106.055-.23.074l.238.016zm8.318-.052.044-.038-.238.016-.085-.03-.098.037-.21-.042-.067.057.036-.004c.05-.002.296-.002.484.006zm-15 4.706-.029.044.01-.009zm6.997-4.746-.05-.014h-.014l.031.019zm14.605 35.31-.296.002c-.046.037.073.037.174.037l-.143-.031.223.001-.006.03q.033.001.045.005c.042.016.023.093.14.059.043-.013-.009-.05-.063-.054.196-.037.151-.058.039-.067zm4.973-6.227c.09-.038.246-.274.1-.145-.037.033-.069.098-.1.145m-2.794 4.974.038-.06-.002-.098-.045.03zm-.516.661c.018-.003.064-.063.085-.081.037-.03.006.073.032.06v-.001a.5.5 0 0 0 .11-.175c-.006-.05-.1.065-.06-.045l.235-.38-.04-.01q-.183.317-.362.632M21.902 2.39c.134.007.046-.04.152-.054l-.247-.032.065.034-.071.03c.022.01.047.019.1.022m2.762 35.293.04.012.042.002-.006-.03q-.035-.002-.07-.003zM9.77 36.37c-.066-.058-.12-.106.024.17l.005-.001c-.052-.103-.07-.168-.029-.169M6.815 8.713a.3.3 0 0 0 .023-.049q-.023.044-.047.087a1 1 0 0 0-.11.162c.053-.075.103-.143.134-.2m19.293 28.944.008.006.01-.009q-.006 0-.018.002m-2.49-35.318.003.002h.025zm-.599 35.32.004-.003h-.002zm-4.183-.003h.002a1 1 0 0 0 .115-.002zM25.638 2.36l-.03.005.066.001zM16.63 37.612a.323.323 0 0 0 .238.008zm8.096-35.248-.016.005.078.002zm7.494 32.479q.02-.006.059-.055c.036-.047.135-.258.194-.31q-.006-.016-.04-.012-.106.188-.213.377M22.847 2.467c.05-.026.082-.052.13-.073l-.243-.001.004-.017c-.01.005-.018.01-.012.016.01.01-.004.08.121.075M2.635 23.917l.033.036-.033-.063zm5.178 9.032.01.017.001-.004zm23.718 3.106c.138-.192.132-.192.092-.172l-.096.166zm1.093-1.928c.057-.06.14-.194.166-.24.046-.083.016-.067.019-.095zm1.08-2.07-.159.328a.2.2 0 0 1 .046-.047c.03-.02.01.123.085-.004.032-.087-.036-.035-.035-.084 0-.04.093-.188.062-.193M.62 20.378l.12.138-.071-.144zm13.388-17.98h-.005zm19.975 29.38c.102-.174.058-.231-.009-.056-.014.037-.003.047.01.055m-1.116 1.906c.044-.06.1-.127.124-.191.016-.043.02-.063.016-.068zm1.88-3.418c.001.021.009.033.025.025.044-.024.052-.1.048-.15zm-8.463-27.68c.197.026.488-.024.346-.058-.17-.04-.664.016-.346.058m10.707 11.266c-.132-.187-.628-1.073-.678-1.16-.202-.351-.021-.177.013-.119.144.247.177.471.328.544.09.15-.033.012.016.106.096.187.252.363.354.557-.01.024-.007.075-.033.072m-4.149-7.283c.032.056.097.116.086.086-.086-.228-.235-.35-.086-.086m4.75 8.329c-.19-.31-.156-.383-.013-.132.041.072.054.17.012.132m-.431-.716c-.04-.087.014-.054-.094-.215l.002-.005c.019-.015.12.127.161.203.001.003-.026-.007-.016.013.077.142.218.354.163.366-.046-.145-.176-.274-.216-.362M27.499 2.547c-.442-.022-.785.062-.197.043.032-.001.09-.044.197-.043m2.13.033c.238.076 1.122.004.556-.029-.097-.006-.053.018-.115.018s-.618-.046-.441.01m-.847-.026-.367.016.352.009zm5.522 6.733c.063.12.202.247.038-.024-.007-.012-.1-.099-.121-.187-.013-.058.024-.022.004-.098-.02-.075-.197-.22.08.309m1.857 3.076c-.065-.025-.21-.33-.295-.467.108.107.194.283.295.467m-1.165-1.868c-.02-.06.024-.042-.011-.122a3 3 0 0 0-.207-.387c-.057-.08-.093-.054-.147-.116zM33.14 7.122l-.212-.312.082.206zm-.87-1.504c-.05-.159-.246-.215-.059-.01.018.019.062.021.059.01m3.169 5.7c.08.026 0-.13-.034-.19-.123-.213-.146-.353-.252-.427.037.136.126.214.156.278.068.14.023.157.13.339M25.39 2.723c-.026-.025-.014-.1-.116-.11-.162-.017-.326.014-.238.051.027.011.34.034.354.06m7.726 4.603c.045.005.07-.017.02-.152-.05-.016-.037.063-.02.152m-11.02-4.675c.132.021.343 0 .243-.026-.099-.027-.407-.001-.244.026M36.246 13.17c-.16-.156-.098.005-.23-.356.26.331.032-.162.094-.173.036-.005.107.165.153.212.07.072.055-.046.123.043s.21.412.268.515c.112.197.228.362.322.526.093.165.206.428.262.535s.12.209.134.225c.078.098.09.02.17.164-.039.024 0 .248-.144.045.016.031.028.072.046.101.082.137.102.04.149.1.08.105-.012.045-.013.048.023.12.036.051.081.092.024.021.162.223.186.267s-.032-.003-.017.027c.065.128.132.26.207.385.076.124.158.18.096.2-.01.002-.058-.065-.068-.035-.003.01.02.125-.08-.01a1 1 0 0 1-.083-.126l.053.04q-.03-.052-.057-.103c.033.011.066.024.095.03-.003-.052-.06-.09-.064-.098-.057-.122-.007-.125-.104-.188q.055.124.106.245-.018.002-.035.006l-.026-.047-.012.035a3 3 0 0 1-.152-.343l.1.096c-.087-.134-.016-.064-.055-.165-.066-.008-.084-.066-.126-.148s-.02.036-.071-.044c-.103-.164-.2-.468-.3-.486-.072-.23.08.03.107.038.114.036-.166-.393-.247-.446-.008-.07.027-.082-.075-.243-.137-.219.09.278-.087-.023-.118-.2-.065-.185-.112-.288-.088-.192-.292-.517-.28-.383.005.055.112.188.12.25.005.033-.143 0 .038.146.018.014.006-.091.086.049.023.04.062.186.137.297.032.049.2.244.253.377.057.143-.07-.063-.058-.006.012.058.108.227.069.233-.092-.078-.035-.11-.055-.14-.077-.112-.085.004-.172-.167.02-.037.192.084.032-.155-.003 0 .01.065-.042-.012a10 10 0 0 1-.342-.57c-.042.03.078.237.103.354-.137-.226-.295-.477-.342-.66l.166.252q-.09-.15-.178-.303c.042.03.222.241.143.075-.061.006-.197-.216-.272-.29M8.2 33.14l.006-.012q-.093-.162-.179-.326zm30.037-16.97c-.025-.059-.057-.125-.086-.186.06.033.092.099.122.201-.012-.006-.023-.007-.036-.015M29.757 2.67c.017.006.451.002.461-.026-.073-.01-.593-.018-.461.026m8.816 14.107-.225-.416c.089.07.289.487.225.416M7.9 7.493c.021-.044.042-.087.055-.12q-.035.046-.068.099zM28.076 2.69l.14.017-.006-.04-.289.039.105.022zm-1.025 34.595c-.061.006-.149.012-.242.016l.198.028.108-.04zM5.125 27.359c-.033.09-.166-.05-.255-.176l.012.066.016.027.132.108.09.265.068.114.115.042.077.188c-.023-.097-.063-.253-.143-.311-.04-.03-.07.073-.144-.124-.054-.145.083-.034.032-.2m28.73-18.53c.143.37.286.399.312.422.132.12.06.188.077.22.086.148.087-.064.078-.085-.154-.335-.187-.225-.23-.251-.094-.057-.175-.292-.238-.306M4.715 26.78l-.099-.035.125.187c-.014-.055.002-.073-.004-.115zM29.968 3.03c.23.028.439-.05.315-.084-.072-.02-.277.031-.224-.025.34.028.311-.02.307-.029-.027-.052.16-.072.2-.11l-.21-.121q.011.004.019-.004l.002-.008.188.109c-.043-.022-.287-.013-.383-.02-.045-.004-.047-.028-.055-.03-.102-.009-.164.014-.268.015-.048 0-.078-.037-.143-.025-.066.013-.265.064-.278.086-.023.04.169.074.33.043.08-.015.03-.074.253-.04.03.005.148.067.261.064-.143.036-.594.031-.782.02-.023.041.294.028.414.05.102.018.034.106.053.11M7.395 31.582l.015.006c.015-.025.034-.059-.013-.147q0 .07-.002.14m-1.922-3.405-.039-.053.04.098zM17.445 2.75c-.12-.05-.582-.069-.287-.014.075.014.195.01.287.014m6.583 34.538.035.001.014-.005zm-17.76-7.794c.036.003-.134-.245-.174-.296-.018-.023-.04-.034-.061-.05l-.002.02.075.124.126.204a.1.1 0 0 1 .036-.003m32.11-12.777c-.002.148-.262-.332-.36-.526l.075.134c.003-.026.009-.048.013-.074l.087.145c-.017-.063-.028-.121-.044-.182.136.101.1.126.193.313.06.12.107.157.19.302.39.677.813 1.364 1.194 2.066-.054.021-.076.01-.155-.115l.055-.006-.16-.244.1.243-.089-.146c-.027-.045-.055-.048-.087-.11-.068-.132-.098-.328-.195-.464-.057-.079-.054.057-.149-.148.11.1.195.167.006-.13.06.19-.003.046-.059-.01-.036-.036.115.221-.004.064-.024-.032-.343-.544-.294-.537.106.016.111.045-.123-.273.207.437-.064.07-.147-.127-.042-.1.087.05-.047-.175M1.226 20.647c-.045-.093-.121-.178-.188-.267l.026.096.1.07.06.13c.008 0 .015-.004.002-.029m32.017-12.86c-.011.014-.176-.092.018.109.068.069.084.047.207.259-.118-.195-.03-.182-.038-.205-.055-.184-.242-.35-.26-.308-.005.013.084.13.073.144M6.38 29.736l.008.013-.005-.011zm-4.99-8.799c-.035-.09-.063-.164-.134-.194l.11.24zM25.29 2.977c.214.01.177-.04.126-.071l.426-.016c-.404-.006-.395-.064-.401-.138-.164-.012-.053.041-.225.032-.06-.004-.057-.035-.069-.038-.139-.03-.167.06-.084.07.084.011.281-.006.324.031-.142.015-.26-.01-.428-.002-.198.01-.04.058.021.046.122-.022.047-.058.258-.024.18.029-.117.102.052.11M40.078 19.59c.002.144-.19-.309-.214-.354-.07-.132-.125-.151-.155-.257a.4.4 0 0 1 .12.125c.038.063.248.47.249.486m-39.2.339c.027.066-.025.049.061.165l-.003.004c-.024.017-.106-.084-.137-.14 0-.003.028 0 .02-.014l-.035-.064v.24c.054-.097.11-.205.151-.17-.058.05-.084.13-.107.195v-.29a.3.3 0 0 1 .05.074m3.04 5.375c-.001-.014-.008-.02-.038-.008l.026.06zm31.473-13.83c0-.075-.074-.18-.153-.31l-.016.05zm-8.585-8.7h-.001l-.116-.004-.143.042.076.02zm13.282 16.872q.136.24.273.477l-.036-.01zM26.408 3.03c.214.002.555-.039.793-.037.141 0 .136.027.279.028.212.001.585.01.785-.006.073-.005.056-.053.043-.059-.035-.013-.15.01-.2.005-.05-.004.006-.024-.062-.027s-.448.002-.475.006c-.164.02.036.049-.155.042-.085-.166.46-.058.56-.066.371-.032.069-.047-.003-.062s.104-.034.066-.048h-.002a1.5 1.5 0 0 0-.336-.009c-.07.025.167.047-.025.063l-.73-.018.023.065.167-.021.13.022c-.259.116-.57-.019-1.001.032q.035-.038.072-.075c-.63-.038-.213 0-.226.061-.008.036-.199.001-.243.006-.302.037.328.097.54.098m4.136.1c-.418-.597.188.479.253.537.122.11-.174-.359-.196-.425-.021-.066.055-.062-.066-.218-.045-.059-.032.027.009.107m.917 1.5c.026.09.075.267.165.361-.062-.158-.045-.17-.165-.361m8.106 14.142.004.007h-.002zM6.603 29.978l.08.143h.004l-.09-.172q.002.015.006.029M19.72 2.945c.182-.098-.185-.032-.356-.077-.05-.014.173-.058-.069-.061-.15.012-.026.04-.098.06s-.505.003-.255.059c.078.017.643-.018.778.02m-1.469-.138c-.329-.004-.383.052-.076.03.065-.005.073-.017.076-.03m1.651 34.257c.226.007 2.018-.156 1.556.06q-.006.002-.004.003c.195.053.667-.226.92.004q.015.014.02.015a1 1 0 0 0 .122-.007c.092-.009.204-.02.229-.003a1 1 0 0 1-.15.013l-.09.005c-.034.004-.056.01-.077.018a.4.4 0 0 1-.133.02c-.172-.001-.098-.03-.064-.044q.014-.005.013-.006h-.016c-.175-.01-.302-.017-.45.015-.02.015.018.014.062.012.037-.001.079-.003.093.005.034.022-.125.01-.196.006l-.03-.002c-.046 0-.074.003-.097.005a.5.5 0 0 1-.197-.016c-.015-.003-.018-.007-.021-.01-.006-.008-.01-.013-.156.005.123-.048-.115-.067-.287-.041-.027.004-.044.011-.062.02-.037.015-.075.032-.194.021-.063-.006-.046-.038-.027-.04h.037c.034.003.076.005.078-.005a4 4 0 0 0-.262-.012c-.081-.003-.16-.005-.223-.01-.012-.001-.014-.004-.016-.007-.018-.029-.337-.016-.364.008l-.02.01-.09-.026-.05-.015-.034-.01c.079-.018.101.007.18.01m14.817-26.732-.281-.415c.12.203.168.277.192.413zM24.471 2.998c-.024-.075-.316-.032-.483-.071-.05-.012.235-.07-.06-.095h-.001c-.095-.008-.478.006-.599-.016-.056.028.223.146.271.155.31.053.568-.01.872.027m13.425 12.889.002.005-.01-.004zM7.438 31.228c-.047-.14-.207-.297-.19-.186.022.134.265.415.19.186m7.737-28.342c.113.028.386-.026.312-.051-.104-.036-.334.045-.312.05m18.87 6.464c.085.159.191.24.211.204l-.196-.31zM1.678 20.608c.143.101.106-.024.18.257-.218-.23-.066.145-.135.166-.04.011-.084-.119-.125-.15-.062-.048-.068.05-.125-.012s-.149-.309-.192-.385c-.084-.145-.178-.263-.248-.384-.046-.08-.093-.195-.132-.287v.374q.048-.062.074-.101c.049-.075.088-.156.092-.171.024-.091-.048-.08.012-.186.05.026.207-.066.143.109.014-.022.039-.043.05-.065.054-.105-.04-.096-.023-.151.029-.093.045-.003.048-.002.083-.051.017-.044.018-.092 0-.026.069-.194.089-.226.02-.03.02.028.034.008.06-.089.122-.18.17-.276.05-.096.037-.179.098-.132.01.007-.012.066.02.066.011 0 .09-.05.05.07a1 1 0 0 1-.045.101l-.005-.054-.045.074a1 1 0 0 0-.042-.086c-.043.016-.033.074-.037.08-.06.08-.099.037-.081.135q.063-.078.127-.153l.03.028-.02.034h.038c-.052.08-.116.155-.176.218l.007-.109c-.048.108-.041.03-.097.09.041.057.006.087-.032.144s.045.008.015.071c-.063.13-.246.29-.189.38-.138.12-.033-.076-.045-.1-.052-.105-.208.242-.193.323l-.022.009v-.446c-.01.041-.03.07.038.169.107.158-.043-.219.09.002.09.147.035.144.066.222.059.146.218.382.23.27.006-.045-.085-.137-.082-.188.002-.028.155-.029-.013-.116-.017-.009-.024.078-.083-.025-.017-.03-.032-.146-.092-.226-.015-.02-.067-.07-.116-.13v.49a.5.5 0 0 1 .077-.145c.078-.086-.001.075.038.05.04-.025.11-.15.144-.12 0 .098-.067.06-.077.083-.038.094.064.07-.015.189-.04-.006-.064-.15-.129-.035v-.534l.03.045c.003.002.002-.054.044.002.072.097.192.29.261.416.052-.032-.039-.185-.043-.28.105.165.229.348.244.494l-.132-.182.135.222c-.04-.017-.194-.16-.14-.036.066-.016.17.146.239.194m.52 1.415c-.083-.007-.026.111 0 .154.092.157.09.272.191.313-.014-.108-.095-.157-.116-.205-.046-.106.005-.13-.075-.262m35.66-6.148.044.08-.01-.009.07.156-.12-.18zM6.185 29.095c-.009-.177-.336-.618-.273-.426l.075.13c.007.002.014.005.023.02v.001c.023.04.182.422.175.275m.758 1.379c.142.296.359.468.12.102-.014-.02-.082-.032-.12-.102m-.47-.822.154.225-.122-.23zm-2.589-4.518.058.077v-.002l.008.012.104.137-.049-.16q-.06-.03-.12-.064M17.687 2.858c-.153.006-.398-.016-.431.028l.346.022zM3.037 23.525c-.046-.09-.172-.17-.046.028.006.009.089.064.095.135.001.017-.003.024-.008.03l.053.05a1 1 0 0 0-.094-.243M32.972 7.684c.115.133.197.27.295.466l.203.107c-.163-.295-.102-.051-.24-.31-.036-.024.055.116.03.095-.118-.099-.151-.301-.276-.46zM1.93 18.363q-.09.15-.184.297c-.005-.093.197-.37.184-.297m1.583 6.106c.073-.183-.105-.408-.182-.355l.114.201zM34.379 9.864l-.14-.258-.029-.001.139.258zM4.539 26.241c.024.125.225.135.061-.002-.015-.013-.063-.007-.061.002m-1.745-3.147c-.092-.155-.182-.304-.276-.459.005.023-.003.033-.01.044l.168.282.044.102c.024.006.049.008.074.03m1.153 1.862c-.047.005-.079.029-.051.134.051.004.053-.061.051-.134m31.365-13.382c-.07-.114-.15-.315-.196-.312l.152.31zm-3.15-5.341c.073.14.365.499.1.104l.031-.025zm2.002 3.422-.068-.18-.158-.132zm1.399 2.385-.169-.26.124.258zm-7.2-9.06c.31.045.194.02.38-.01.125-.021.259.022.24-.037-.22.019-.588-.017-.62.047m2.991 1.752c-.15-.159.188.53.305.511-.076-.124-.234-.436-.305-.511M7.914 31.718c-.018.032-.1.069-.072.14.043.114.137.2.142.122.001-.024-.092-.237-.07-.262M2.02 18.542c.124-.038-.088.306-.18.439l.059-.098q-.036.005-.07.009l.057-.112q-.06.043-.12.085c-.013-.14.033-.116.122-.243.056-.082.053-.131.113-.24.282-.504.55-1.038.859-1.542.056.04.063.061.016.161l-.045-.045-.087.198.13-.148-.058.113c-.018.035 0 .059-.028.102-.062.091-.203.168-.246.286-.024.068.086.03-.016.162.004-.118 0-.206-.112.03.115-.1.04-.01.034.052-.004.04.101-.154.056-.013-.01.03-.205.43-.234.387-.064-.093-.043-.106-.139.174.214-.287.104.036 0 .157-.053.062-.022-.086-.11.086M6.23 28.96c-.001-.016-.166-.29-.199-.28.017.053.203.39.199.28M31.866 5.669c-.06-.041.083.215.107.24.095.098-.047-.198-.107-.24m-7.037-2.656c.036.003.283.007.294-.012-.386-.1-.586-.014-.294.012M3.437 23.825c-.085-.286-.234-.282-.258-.297-.12-.075-.028-.148-.042-.171-.065-.11-.107.071-.1.087.102.254.159.154.2.168.092.03.135.213.2.213m5.628 10.042c-.027-.097-.127-.22-.118-.14.01.078.151.26.118.14m-5.88-17.504c.12-.04-.119.24-.139.272-.06.093-.035.144-.102.197-.007.005-.008-.086.017-.134.025-.047.213-.33.225-.335m15.95 20.667c-.166-.002-.138-.091.03-.013l.019.01a.3.3 0 0 1-.05.002M6.878 30.022l-.036-.1-.038.028.147.162-.016-.08zM3.226 16.34l.2-.354.017.033zm3.3 12.271c-.057-.163-.217-.25-.206-.152.006.059.136.16.058.159-.098-.235-.137-.187-.144-.179-.052.056-.165-.097-.21-.055-.026.025.087.194.118.265.013.03-.01.046-.01.052h.001c.028.072.074.096.114.162.018.031-.01.072.028.107.037.034.164.131.192.126.05-.009.015-.152-.078-.237-.045-.041-.089.025-.135-.138-.007-.021.013-.134-.032-.204.09.07.254.361.312.489.052-.01-.08-.206-.103-.296-.019-.075.098-.085.094-.099m-2.627-4.02c.015-.015.174.043.001-.09-.06-.045-.082-.024-.174-.179.09.142-.001.148.001.166.025.146.197.25.224.21.008-.011-.066-.093-.052-.108m-1.025-7.585L2.877 17v.001zM2.28 21.88c-.015.064.045.14.106.234l.027-.047zm-.6-2.717.002-.004.004.01zM10.9 36.78c-.007.107.146.413.093.191-.014-.056-.062-.13-.093-.191m-2.687-5.15c-.07-.143-.108-.089-.121-.038q-.089-.132-.175-.264c.145.263.08.291.005.34.05.111.064.009.118.125.019.04-.015.057-.014.066.02.107.125.07.105.011s-.112-.175-.09-.224c.07.08.088.172.159.274.084.12.074-.008.04-.04-.07-.066-.08.004-.123-.151-.037-.132.15.013.096-.1m-5.425-8.913.225.297c-.091-.149-.129-.202-.13-.313zm-1.093-3.52.034-.059.001.012.079-.1-.064.148zm5.742 11.587.04.076.096.066-.006-.061zM5.225 26.92c-.011-.07-.03-.212-.109-.274.037.122.015.136.11.274M3.33 23.42c-.062-.118-.161-.167-.19-.132l.154.224zm2.602 4.595c.338.424-.112-.371-.171-.407-.112-.069.119.271.13.323.01.051-.072.064.03.172.038.04.04-.03.01-.088m1.92 2.87c-.077-.137-.247-.331-.334-.484-.052-.091-.022-.103-.075-.195-.077-.137-.208-.38-.298-.499-.032-.043-.076-.003-.077.008 0 .03.066.09.08.125.013.034-.028.01-.005.055.022.046.169.285.183.301.082.092.037-.052.101.074-.14.153-.231-.26-.277-.319-.171-.218-.075-.015-.063.04.011.054-.074-.047-.075-.014h.001a.7.7 0 0 0 .116.221c.052.03-.013-.135.074-.021l.253.477.059-.054-.083-.094q-.014-.048-.026-.096c.217.096.193.375.406.621q-.052 0-.105-.002c.196.425.08.136.149.108.04-.015.074.127.096.152.15.171-.021-.267-.1-.404m-4.785-7.836.101.192.032-.006-.1-.191zm1.106 1.575a1 1 0 0 1-.23-.338l-.2-.05c.121.217.102.022.201.216.035.013-.037-.088-.015-.076.11.06.108.227.212.336zm4.368 7.518c-.07.06.085.222.106.351.006.04-.16-.107-.075.096.027.065.184.302.206.392.05.019.069-.23.06-.265-.06-.23-.223-.357-.297-.574m1.716 3.069c-.17-.058.036.137.053.274.005.04-.125-.077-.039.08.07.088.053-.008.1.027s.191.32.156.128c-.011-.06-.258-.4-.27-.51m.404 1.02c.118.214.197.214.06.032-.03-.039-.046-.037-.06-.031m-8.277-14.45c.055.082.102.237.153.225l-.105-.233zm-.183-.348.133.187-.085-.194zm1.059 1.751.039.139.146.081zm1.512 2.512c-.051-.105-.298-.35-.088-.068q-.018.014-.038.027zm6.152 10.865c.063.095.132.264.19.259l-.107-.234zM5.36 26.813c.133.105-.101-.413-.232-.374.059.09.17.324.232.374m-.374-.695c.057.023-.048-.166-.07-.183-.085-.064.013.159.07.183m2.087 3.548c-.07-.224-.053-.136-.153-.236-.068-.069-.074-.18-.128-.132.101.129.202.386.28.368m1.35 2.24c-.01-.025-.098-.187-.121-.182.039.307.203.383.121.181"/><path fill="#3784ff" d="M27.325 18.048c.003.035-.002.173-.002.233-.02-.068-.005-.357.002-.233m-1.664 4.06-.039-.096a2 2 0 0 0 .088.308c.005.014-.024-.017-.011.017.013.033.029.018.052.064.022.052.146.287.21.355.218.267.523.457.848.56-.34-.102-.01.04.093.05.023-.003.022-.012.376.013h.012c.276.013.276.046.334.065.053.035.173.01.59.258-.312-.218-.325-.202-.17-.14.15.068.449.263.63.577.03.049.189.332.183.682l-.002.394c.001.069.021.174.022.265 0 .062-.01.11-.01.203q.003.448.002.895c0 .254-.064.513-.187.74.082-.232.038-.144-.034-.003a1.7 1.7 0 0 1-.23.329c-.075.064.048-.058.13-.186.084-.127.138-.248.051-.099a1.53 1.53 0 0 1-1.183.743c.195-.022.073.016-.126.027a2 2 0 0 1-.304.005c.04.046-1.179-.04-1.364-.025-.039.004.214.026-.373.016-.063-.001-.04-.015-.072-.014-.02.001-.141.045-.27.02-.047-.008.254-.037-.406-.026.262.045-.916.025-1.133.014l.13.018c-.214-.017-.253-.001-.301-.002-.195-.004-.462-.019-.643-.018-.212.002-.213.03-.46.02q.087.007.175.018l-.512-.005c.396-.037-.085-.002-.117 0-.05 0 .022-.015-.062-.013-.009 0 .004.015-.127.017-.272.003-.229-.015-.343-.015-.01 0 .026.013-.171.016-.627.01.003-.01.027-.012.032-.002-.183-.056.35-.037-.18-.006-.197-.03-.218-.03l-.344.004c-.153.008-.019.024-.048.027-.025.002-.398-.019-.486.03-.178-.045.103-.041.403-.048.044-.01-.285-.018-.303-.018-.424 0-.19.037-.282.06-.049.013-.221-.012-.062.021-.385.004-.151-.016-.176-.018-.038-.005-.173.005-.19.003-.024-.001.062-.013-.036-.017-.016 0-.173.02.03.029-.271-.003-.25.014-.341-.02-.187.064-.135-.038-.209-.042-.195-.01-.139.041-.149.044-.071.015-.612-.002-.746.005.053-.036.429 0 .513-.007.28-.024-.395-.018-.192-.064l-.256.038c-.156-.03.066-.043-.355-.032-.07.025.297-.004.224.016-.043.012-.288.014-.292.02-.005.008.216 0 .18.01-.05.017-.42.012-.486.003q-.038-.003 0-.005a3 3 0 0 1 .219-.01c-.089 0-.155-.012-.22-.023a5 5 0 0 1-.34-.05c-.088-.015.107.05.147.069.019.01-.003.019-.126 0-.118-.024-.356-.067-.66-.31-.027-.014.532.308.564.281.022.004-.073-.079-.09-.089-.026-.013-.377-.13-.635-.437-.272-.297-.37-.76-.35-.968l.004-.038c-.03.07-.005-.624-.014-.7-.003-.02-.022.055-.024.034-.011-.134.022-.497.023-.665 0-.189-.015-.165-.015-.175 0-.083.011-.017.011-.067v-.146c.002.04.021.055.012.047 0 0-.011.016-.018.014-.006 0 .03-.014-.049-.04-.095-.018.05.047.002.055-.033-.05-.048-.016-.057-.02l-.017-.013c-.1-.008-.24-.022-.388-.039a3 3 0 0 0 .414.012l-.026-.004a3 3 0 0 1-.513-.044c-.072-.015-.01-.024-.163-.056-.032-.01-.177.028.237.074.03.024-.163-.017-.254-.034-.014-.002-.075.019-.184-.033-.022-.025.282.02-.469-.21-.024-.009.051.04.028.031a4 4 0 0 1-.215-.11c-.021-.01.059.049.034.038-.13-.055-.26-.193-.015-.047a3 3 0 0 1-.233-.164c.063.089-.132-.073-.233-.157-.625-.566-.228-.167-.343-.257-.173-.163-.011-.065-.239-.328-.012-.032.178.352-.242-.361q.088.16.193.31c-.014-.075-.231-.373-.24-.402-.137-.295-.054-.091-.22-.546-.014-.041-.029-.134-.051-.224-.098-.372.1.497.122.518a2.93 2.93 0 0 1-.21-.959c.002-.14.053.433.063.32 0-.015-.04-.234-.04-.513-.015-.429.135-.983.207-1.133.123-.292.246-.384.195-.415.092-.05.1-.134.123-.168.28-.393.289-.39.587-.677.069-.06.14-.094.164-.116.014-.013-.025-.007.046-.066.087-.105.793-.432.859-.42.055-.012-.303.12-.232.112.253-.107.509-.184.783-.222.114-.015.057.005.106-.001.016-.003.245-.027.349-.03q.009-.002.008-.004l-.008-.002c-.238-.048-1.165.193-.888.105.06-.023.281-.046.24-.07q.322-.064.648-.061a.2.2 0 0 0 .114-.032c.024-.021-.01.014-.007.058l.008-.876c.014.278.013.576.01.876-.004-.049.03-.068-.013-.036-.01.01-.07.026-.058.039.097-.02.095-.086.08-.003 0-.154.002-.303.006-.439 0-.014.015.036.017-.014.004-.095-.02-.4-.013-.453.001-.008.02.166.033.113.032-.136-.038-.17-.038-.288 0-.068.02-.436.02-.675 0-.136.018-.248.027-.313.028-.152-.05.069-.051.313-.003.122-.005.25-.014.228l-.007-.229c-.014-.635.433-1.219.988-1.417.013-.004-.098.02.055-.037.265-.083.35-.055.476-.055h.006c.08.003.36 0 .398.008a.3.3 0 0 1-.06.022c-.123.009-.166-.018-.178-.018-.041-.001-.082.009-.12.008l-.046-.002c-.071-.003-.135-.006-.246.011-.104.019 0 .017-.1.037-.037-.006-.429.112-.433.18-.003.014.3-.21.779-.207.54.009 1.386.014 1.506.007l-.46-.015c.308.012.677-.021.71.027v.001c-.018 0-.027.02.007-.018a.3.3 0 0 0 .057-.164 3.09 3.09 0 0 1 1.238-2.458c.214-.144.107-.05.47-.26q-.152.059-.299.136c.17-.151 1.087-.46 1.248-.45.02-.001.044-.042.286-.058q.082-.004.135 0c.103.006.142.02.227.03.094.01.202.018.23.024.021.004.028.018.08.03.16.038.037-.026.187.052l-.117-.02c.194.044.443.146.163.074-.049-.011-.004-.013-.04-.022-1.438-.17-.281-.09.206.067.128.036.775.37.783.405.024.024-.085-.036.038.07.05-.006.717.688.463.45-.044-.056-.373-.375-.47-.433.196.172.636.59.666.659.156.228-.34-.407.02.098.243.408.037.01.14.164.07.083.24.6.263.577.056.18.005.08.01.102.01.02.095.38.09.5.001.015-.023-.028-.023-.013 0 .018.013.166.013.276 0 .023.004.043.005.044.001.003.016-.03.021-.017.001.014.032.14.044.142.005.008-.04-.14-.013-.118.001.07.071.17.103.174-.008 0-.04-.044-.048-.065.03.005.088.073.052.065.021.005.017-.008.031-.011.004 0 .016.008.019.003 0 0-.002-.015.004-.018.019-.001-.002-.008-.004-.004-.003.008.008.02 0 .03 0 .002-.005.025-.001.027-.001.024-.012.005-.018.024q.006.009.014.016c-.013.038-.123-.067-.16-.12.087.159.148.141.14.198-.003.023-.049.023-.05.027 0 .025.07.017.072.015l.003.004c0 .017-.1.002-.11-.004-.015.004.02.064.018.072-.002.006-.1-.04-.076-.01.024.04.119.067.122.066.018.021-.155-.031-.162-.043-.006.003.08.07.083.072a.5.5 0 0 1-.118-.03c-.03-.006.032.047.02.04-.015.007-.18-.159-.181-.176-.012-.014.008.042 0 .037-.011-.006-.049-.078-.047-.067-.016.016.167.284.174.281-.02.028-.26-.263-.056.031a1 1 0 0 0 .082.043c.045.036-.233-.06.097.074-.594-.302-.1.005-.201-.014-.053 0-.257-.204-.251-.21 0 .034.07.097.088.124.003.022-.172-.176-.146-.123.002.036.207.244.225.244.092.075-.036.005-.02.025.008.02.177.109.184.107a1 1 0 0 1-.278-.132c-.036-.022.08.084.056.067-.166-.088-.338-.423-.164-.104.01.02.116.113.121.115.06.069-.147-.099-.18-.132-.073-.046.198.229-.03.003a.86.86 0 0 0 .575.366c-.438-.093-.597-.354-.647-.38-.033-.054-.03.141.42.379-.282-.147-.254-.126-.328-.182-.06-.032-.264-.406-.22-.203 0 .03.187.232.118.179-.376-.533-.034.002-.02 0-.026.019-.39-.417-.369-.931a1.8 1.8 0 0 0-.038-.418c-.04-.153-.123-.27-.135-.3-.044-.101.008-.024.004-.049.001-.03-.182-.29-.194-.299-.029-.054.023-.015.02-.02-.024-.078-.328-.384-.43-.45-.002.012.179.166.052.086-.148-.087-.127-.135-.128-.14a1.9 1.9 0 0 0-1.073-.328 1.9 1.9 0 0 0-1.171.401c.017.005.454-.271.475-.257.037 0-.151.071-.336.196-.187.12-.357.298-.395.336q.087-.086.185-.158c-.081.112-.315.313-.394.5-.026.058.045-.042.045-.04-.025.068-.084.166-.062.081-.061.164-.067.133-.114.26-.002.006.028-.044.002.058-.017.047-.068.305-.054.341.003.014.075-.107.032-.13.083-.269-.003-.093.027-.2.008-.015.007.025.103-.233.015.065-.115.349-.113.407-.017.107.116-.323.133-.41.018.052.016-.027.068-.116.058-.096.043-.048.075-.099.094-.134.033-.096.138-.186-.145.053.15-.187.25-.227q-.2.166-.344.381l.027-.017a2 2 0 0 0-.076.11l.002-.024c-.1.21-.134.255-.144.272a1.7 1.7 0 0 0-.134.672q0 .103-.014.202c-.033.08.096.058-.22.634-.125.173-.018 0-.17.192-.183.264-.233.218-.312.273-.254.152-.457.178-.483.184q-.079.01-.168.011c-.17.001-.386 0-.554.002-.004 0 .098.015-.03.01-.044-.001-.443-.068-.792-.046l.272.014a10 10 0 0 0-.652.015q-.016.007-.004.013l.004.001c.121.006.368-.031.396.008a11 11 0 0 0-.396-.004c-.076-.008-.128.095-.121.123l-.002.053c0 .01-.008-.035-.013-.052q-.003-.003-.003-.001c-.002.039.001.33-.004.37-.003.024-.011-.115-.016-.103-.003.01-.01.403.008.425-.007-.096-.001-.368.013-.225.002.018-.01.113-.007.135.02.206.016-.41.016-.506.022.388-.004.987.01 1.436-.014.181-.021-.269-.033-.064-.024.426.02.114.021.127a1 1 0 0 1-.007.162c-.003.308-.194.61-.16.624-.18.254-.117.193-.421.451q.066-.04.131-.088c-.23.264-.791.399-1.045.352-.04-.009-.061-.015-.054-.017a.3.3 0 0 1 .054-.007c.211.006.506-.065.534-.08.026-.012.072-.042.178-.106.104-.07.28-.152.511-.425.064-.135-.09.114-.264.242-.17.13-.318.203-.09.042-.13.102-.468.283-.869.275a1.5 1.5 0 0 0-.547.081c-.01.007.053.023-.116.063-.081.02.106-.05.068-.044-.057.001-.484.148-.793.495a1.93 1.93 0 0 0-.47.963c-.003.02-.013.01-.016.03-.008.045-.013.18-.009.291l.002.096c.014-.222.03.207.064.31.035.16.016.156.034.226.068.278.363.602.496.774.018-.04.275.26.446.33.126.064.326.096.159.016.216.087.462.122.682.118h.014c.079.002-.03.01.104.017.011.001.03-.014.143.003.46.096.546.225.566.234.018.02-.046-.013.025.042.078.062.132.116.172.157a1.46 1.46 0 0 0-1.024-.415q-.068 0-.1-.002.024.012.1.014c.368-.033 1.004.289 1.14.558.006.01-.031-.014-.024-.004.061.056.247.449.231.668.004.054.009.082.015.051l.003-.05c.01-.151-.055-.505-.282-.756.079.092.037.01.05.026.11.117.267.437.252.73l-.008.218c0 .03.012.027.012.032-.003.114-.037.067-.002.185-.042.207-.006-.389-.034-.347-.02.032-.01 1.356.024 1.352a.2.2 0 0 0-.013.06c-.006.04-.008.148-.007.256 0 .04.012.075.019.084.002.003.032-.009.034-.005-.007.007.058.144.122.14a.2.2 0 0 1-.057-.055c.127.09.114.045.073.026q-.003-.001-.006-.004a.2.2 0 0 1-.053-.061c.002 0 .095.063.144.064.064.003.09.008.044.016h-.044c-.031.003-.09-.024-.053.006.005.003.03.008.053.006h.13c.04.007-.034.014-.13.021-.045.014-.108.003-.1.02.032-.002.064.004.1.005q.102 0 .2-.002c.077-.003.095-.019.105-.02.14-.004.062.014.109.013.025 0 .303-.037.25.014.916-.037.254-.037-.308-.034.177-.019.525-.01.681-.014.056-.002.023-.018.118-.022.195-.007 1.124.013 1.366.017-.148.006-.105.024.01.023s.018-.026.04-.028c.025-.003.563.009.653.005-.406.01-.314.027.03.03l-.15.015c.202-.007.627.02.743.012.018-.001-.047-.017-.037-.017.102-.007.45.009.466.004.014-.005-.134-.017-.08-.024.012-.001.155.02.296.015.053-.002.021-.017.034-.018.11-.007.045.018.246.014.147-.003.257-.027.46-.019-.667-.03-.107-.018.172-.027.045-.001.007-.027.274-.015-.569.048.162.025.311.026.009 0 .011.017.085.017.006 0-.003-.011.065-.012.646-.009.233.005.356.016.052.005.366-.011.45-.012.02 0 .011.012.086.012.133-.001.253-.014.34-.015.01 0 .011.02.178.013.047-.002.1-.009.033-.014-.22-.018-.64.013-.889-.005-.227-.017.49-.018.527-.018.014 0-.126.01.016.011.122.002.344-.031.525-.024.014 0 .158.029.152.03s-.229.007-.196.015c.004.002.145.001.163.007.023.008.084.08.114.082.077.004.027-.012.077-.011.107.002.48.024.492-.001l-.185-.005c.342-.002.196-.013.245-.018.052-.005.037.017.153.02.025 0 .508-.005.499-.014-.267.015-.168-.013-.18-.013-.047-.002-.107.013-.17.013-.441-.002.004-.026-.1-.033-.036-.002-.108.011-.123.01-.05-.002-.05-.019-.083-.017-.077.003.013.027.007.028-.069.015-.338-.003-.17-.03-.101-.009-.113.023-.193.01-.159-.025.08-.019.143-.023.232-.015.3-.003.627-.007.118-.001.258-.017.313-.018.034 0 .36.054.369-.03l.082.009c.027.019.076.044.104.028.028-.018.002-.039.004-.041.003-.003.033-.023.037-.036.006-.013-.007-.016.001-.034.015-.046.038-.035.043-.04.038-.057-.013-.037-.015-.05v-.011c.001-.185.013-.788.003-.93l.019.197c.019-.117-.012-.241.022-.243-.055-.024-.019-.266-.02-.338 0-.03-.01-.027-.01-.063-.001-.09.001-.255.002-.38v.01c-.006.013-.024.015-.037-.01-.011.176-.02.394-.02.426 0-.063-.003-.267-.009-.426-.006.029-.003.061-.028.025-.003-.007.003-.018.01-.025q.008.045.01.067c.006.202-.016.043-.018.059-.004.027.018.16.015.195 0 .012-.02-.064-.021.129a4 4 0 0 1-.01-.45c.002.03.015.056.015.06-.007-.009-.026.04.004.016l-.006.01a.2.2 0 0 0-.095-.028q-.105 0-.212-.006c.038-.006.225-.015-.01-.023-.137-.009-.038.019-.05.018-.058 0-.65-.05-1.198-.343-.556-.275-.993-.779-1.111-.951a4 4 0 0 1-.313-.485c-.1-.158-.276-.789-.28-.92-.014-.08-.02 0-.029-.073-.007-.067.017 0 .015-.02-.004-.05-.023-.201-.024-.397-.022-.446.162-1.104.267-1.284-.113.157-.26 1.058-.22 1.041 0-.004.036-.22.04-.264.023-.07.036-.33.09-.462.007-.014.004.05.094-.18.031-.079.103-.294.238-.475.075-.143.372-.564.758-.854.379-.3.812-.459.862-.49.003-.003-.224.079-.077.008.2-.088.031.018.271-.054.032-.029.72-.146.745-.131.21-.04-.402-.007-.394.002.017-.017.452-.065.538-.056h.001l-.001.003c-.06.007-.26.032 0 .023l.016-.003-.016-.008-.055-.003.055-.002c.021-.003.03.014.04.014.033-.003.049-.052.085-.027.011.006.017.019.018.02.018.005-.017-.022.005.005.003.003.026-.015.014.03l-.007-.014q-.004.004-.008.019c-.003-.15-.005-.364-.003-.403.004-.17.026-.022.024-.192-.03.109-.034-.409-.008-.38-.033-.072-.008-.511-.007-.718v-.064c-.003-.029-.025-.056-.026-.061-.003-.009.019-.017.012-.036-.002-.007-.046-.039-.086-.073-.006-.007-.024-.049 0-.053.048-.01.097.065.108.049.019-.023-.09-.073-.12-.073l-.041-.008c-.278-.015-.067-.036-.078-.043-.031-.018-.285-.018-.296-.02-.044-.007.136-.022.14-.033.002-.015-.243-.042-.187-.047.08-.007.305.016.32.015.185-.015-.07-.05-.14-.066-.021-.005.064-.014.046-.015-.27-.023-.057.048-.236.043-.16-.004.046-.027.04-.028-.008-.001-.2-.002-.229-.01-.015-.004.482-.048.461-.068l-.475.013c-.013-.025.215-.006.239-.01.047-.004-.085-.017-.08-.026.004-.005.159-.023.019-.03-.049-.003-.15.015-.325-.004.61-.023.187-.037.17-.047-.018-.009.273-.03-.08-.026-.016-.05.007-.016.107-.025.124-.01-.161-.027.29-.014-.026-.024-.388-.022-.407-.024-.017-.002.063-.013.035-.017-.34-.045-.107-.024-.205-.053-.009-.003-.33-.014-.085-.018.445-.007.63.026.706-.045-.33-.03-.729.015-.829.016-.153 0 .006-.013-.013-.018h-.14c-.095-.055.587-.002.802-.011l-.173-.024.235-.001c-.372-.016-.014-.006.08-.05.02-.01-.224.007.054-.02-.205-.007-.14-.016-.326-.003.005-.017.38-.035.56-.045v-.002c-.543-.017-.23.044-.726.011-.094.022.147.018.127.021-.07.013-.235-.007-.434.038-.033.007.104.03-.099.029-.022 0-.152-.02-.15-.021.017-.016.145-.01.15-.016s-.137-.003-.138-.004c-.004-.02.12-.008.102-.014-.04-.013-.553-.054.118-.042-.558.022-.072.021.145.013.056-.002.07-.013.148-.017.102-.005.22 0 .273-.002.056-.002-.264-.03.2-.021-.236-.027-.653.002-.885-.017-.468-.038.326-.046.409-.05.022-.001-.052-.017-.038-.018.024-.001.475.006.52-.007.044-.012-.166.001-.18-.012-.009-.01.535-.025.24-.031-.202-.004-.576.031-.64-.007l.858-.01q.028 0 .055.002l-.055-.005-.452-.04c.158-.003.306 0 .452 0 .244.002.486.073.702.207-.238-.17-.37-.188-.385-.203-.017-.01.069.004.185.051.244.08.519.386.518.396.023-.008-.302-.366-.386-.393.203.084.53.405.632.687.1.274.137.422.057.021a2.4 2.4 0 0 1 .097.481l.005-.015a1.3 1.3 0 0 0-.059-.437c-.05-.162-.12-.279-.083-.23.091.125.14.343.155.574l.004.093c.017.615.12.457.103 1.118l.011-.04-.005.678c-.041.976-.872 1.418-1.551 1.417a2 2 0 0 0-.25.015c-.203.042-.685.27-.87.46-.042.03-.227.211-.238.228-.028.025.097-.132.03-.07-.025.006-.262.384-.221.368.02-.044.09-.184.108-.202.082-.105-.296.501-.256.926 0 .147.02.253.025.27l.006-.09q.009.125.037.25m1.717-3.573-.002.002c-.015-.08-.003-.254-.008-.358-.007-.151-.079-.408-.007-.298l.017.656zm-2.483 1.014c.14-.136.063 0-.05.109-.011.013-.132.082.05-.11m1.74-.989-.177.042c-.151.02.343-.094.177-.042m.727 6.3c-.036-.011-.02.032.002.025.002 0 .001-.025-.002-.026m-.025-.01c-.012-.022-.04-.013-.047 0-.041.01-.053.018 0 .02h.007zm-1.92-5.753c-.011.022-.172.14-.237.195-.007-.011.169-.146.237-.195m-.673 4.497a10 10 0 0 1-.373-.629c.034.106.35.636.373.63m1.405 1.046c-.016-.006-.236-.1-.233-.09.1.062.305.125.233.09m1.234.814c.002.01.058-.128.021.2-.005.047-.02-.124-.022-.107a1 1 0 0 0-.006.086 5 5 0 0 1-.003-.325c.016-.072.01.142.01.146m.032 1.172c.008.009-.014.037-.023.04-.001 0-.016-.019-.023-.009-.007.009.023.015.002.028-.021.01-.006-.022-.01-.021-.002 0-.023.026-.028.012-.004-.009.024-.018.028-.026.005-.01-.015-.013-.004-.021.007-.005.03.016.032.015.004-.002.003-.043.026-.018m-.004-8.155c-.005-.008-.022-.01-.02.02.01-.001.024-.024.02-.02m-.008 7.345c-.008.226-.018.06-.025-.141.006.063.027.065.025.14m-3.238-4.644q-.008.018-.015.02c.011-.032.015-.034.015-.02m-.047.679c.026.175.01-.052.007-.172a.2.2 0 0 0-.006-.066 2.232 2.232 0 0 0 0 .238m3.28 3.029c-.004-.004.07-.021-.014-.026.032.026-.007.01-.01.015.003.013.044.032.025.021.02-.013.007.004-.002-.01m-1.7 1.819c.044-.014.188-.01.285-.009-.045.014-.189.01-.286.009m-7.155-10.038c-.665.013-.752-.045-.143-.022.012 0 .183.016.143.022m-2.995 3.278c-.05-.016.1-.049.2-.043.023.001.106.024.012.033.002-.032-.147-.032-.212.01m11.87 6.005c.018.066.006.268.003.375a2.4 2.4 0 0 1-.002-.375m-10.072-9.191c-.004.013.017.023.02.02.008-.007-.005-.03-.02-.02m10.076 8.536c.01-.009.02.26-.006.278.002-.057 0-.271.006-.278m-1.542 1.418c.042.005-.174.014-.24.009a1.3 1.3 0 0 1 .24-.01m-8.53-8.945c-.001.063-.002.22.007.237.011.021.008-.208-.006-.237m6.618-3.472c0 .006-.113-.131-.156-.196-.076-.13.163.183.156.196m-6.563 2.355c.044 0-.003.003.011.02.018-.014.074-.024.03-.035-.01-.002-.03.01-.04.015m-.033.019c0 .008.003.042.015.024.005-.007.003-.039-.015-.024m5.808-3.118c-.101-.087.405.231.401.264l.01.016c.021.01.102.088.099.11-.021-.027-.088-.09-.095-.098l-.006-.008a5 5 0 0 0-.409-.284m-.956-.195c.149-.04.178.014.164.014-.16.024-.057-.015-.062-.017-.011-.003-.125.022-.101.003m.774.11c.006 0 .121.048.125.052.087.053-.235-.08-.125-.053m4.195 13.285c-.122-.005-.002-.023.08-.016.006 0 .028.02-.08.016m-9.83-10.064a.13.13 0 0 0-.039.099c.002.112.007.193.016.178v-.178c-.003-.052.05-.108.022-.099m-2.785 3.73c.068-.066.012.023-.028.053-.016.01.011-.037.028-.054m12.867 4.515c-.014-.132.033-.105.017.01 0 .005-.017-.005-.017-.01m-12.24-4.913c-.281.152-.263.02.153-.092l-.035.022c.477-.1.03-.015-.078.037-.042.017-.002.017-.039.033m-.924.79c-.199.254.113-.27.249-.384-.1.139-.225.31-.027.095-.255.34-.159.193-.174.203-.013.016-.04.076-.048.087m.548-.606c.013-.013.134-.076.177-.1-.053.045-.268.178-.177.1m6.452-6.456c0-.018.013-.047.106-.103-.024.025-.075.07-.106.103m6.178 4.665c.001-.1.007-.3-.009-.24-.001.008 0 .24.01.24m-10.142-.055v.185c.008.316-.165.634-.056.41a1.2 1.2 0 0 0 .072-.41c0-.144-.006-.294-.016-.185m.18-1.745h-.004c-.013-.002-.049.008-.048.013.001.01.038-.002.048-.012zm9.978 1.294a3 3 0 0 0-.009-.286c-.014.064.004.33.01.286m-.726 8.881c-.025.001-.06-.016-.068-.016-.02 0-.49.006-.31-.015.03-.004.704.004.792.006.034.023-.255.002-.325.004-.012 0-.02.02-.088.021m-4.993-13.327c.005-.03.403-.135.403-.107q-.209.03-.403.107m-.19.081c-.082.031.099-.066.158-.08.003.006-.146.074-.157.08m-4.292 3.178c-.001.014.033-.02.034-.009 0 .006-.017.032-.01.043 0 .002.026-.02.028-.027.003-.011-.016-.006-.01-.019.017-.04.055-.064.089-.082.003-.002-.028.002 0-.013.005-.003.036 0 .07-.006l.018-.01c.322-.035.58.007 1.002-.01a11 11 0 0 0-.377-.018 42 42 0 0 0-.625-.008.23.23 0 0 0-.195.108c-.014.024.003.017-.002.028-.003.008-.019-.01-.022.023m10.197 1.746c.02-.048.007-.216.008-.323-.018.038-.004.218-.008.323m-6.898-3.472c-.003.033-.01.122-.008.16q0 .03.002.036a.654.654 0 0 0 .006-.196m3.532 11.789c-.005 0-.134 0-.14-.002-.114-.016.273-.012.14.002m-3.09-.004c-.098.002-.197.009-.23-.008.062.003.241-.004.23.008m-3.677-.075c-.016.018-.043-.055-.04-.069.008.005.047.057.04.069M21.227 13.7c.108-.083.068-.091.149-.128.014-.005.086.025-.05.087-.024.013.05-.065-.1.04m-5.802 6.205a.6.6 0 0 1 .208-.047c-.015.011-.158.032-.208.047m12.066-2.558c.02-.085.006-.475-.008-.379-.001.014.01.324.008.379m-.008 9.055c.016.16.021-.172.006-.277 0 .047-.007.266-.006.277m-9.708.383-.186-.002c-.14-.016.343-.012.186.002m4.256.014a4 4 0 0 1-.556-.01c.087-.02.632-.006.556.01m-1.176-12.68q.08-.12.179-.213c-.008.018-.17.206-.18.213m-3.447 12.65-.006-.005zM19 16.556c-.108-.005-.086.016-.079.016.081.007.2-.011.079-.016m8.5 1.78c.017-.038.003-.219.008-.323-.015.03-.01.239-.009.323m-13.389 2.761c-.056.091.071-.312.14-.377.005-.002-.143.361-.14.377m13.399 4.805c.014-.011-.003-.242-.01-.193-.004.031 0 .2.01.193M14.378 20.55c.02-.035.09-.096.076-.066-.019.038-.081.074-.076.066m2.874-3.22c-.002.022.012.326.026.2.01-.087-.01-.1-.01-.121 0-.023.025-.512-.016-.08m-2.486 5.844a1.4 1.4 0 0 1-.215-.184c.03.022.19.156.215.184m12.74 3.462a.14.14 0 0 0 .013-.06c0-.197-.002-.418-.013-.138l-.002.139c0 .034-.012.07.002.06M20.534 15.04c-.005-.021-.014.046-.013.108 0 .06-.003.116-.005.147.004.015.016-.059.016-.147.001-.049.003-.105.002-.107m-5.998 7.956c-.042-.033-.102-.109-.142-.16.012.004.131.139.142.16m2.711 3.574c.006-.138.004-.307-.008-.31l.006-.02c.002-.011-.004-.159 0-.223.013-.215.016.278.01.56 0 .056-.003.092-.023 0l-.006-.16zm5.33.256c.078.014.297-.003.24-.009-.04-.004-.318-.005-.24.01m-3.003.009c.023.002.236-.008.242-.015-.123-.008-.348.003-.242.015m3.603.008a.24.24 0 0 0 .106-.022c-.05-.008-.188.01-.106.022m-2.203-12.99a.8.8 0 0 0-.152.232.3.3 0 0 0-.044.047c-.02.015-.208.348-.252.596-.04.247-.07.36.051-.11.01-.03-.017.006.025-.111.003-.008.015-.008.024-.031.016-.057.163-.328.197-.381q.003 0 .012-.008c.052-.055.17-.264.14-.235m-1.823 12.984c.043.004.178 0 .193-.01-.068-.005-.293 0-.193.01m8.396-.197c.008-.013.01-.043.005-.062-.004-.05-.009-.08-.012-.049l-.002.049c.002.03-.004.085.01.062m-7.035.191c-.501-.011-.12.002-.196.016zm2.102-13.553c-.061-.01.015-.032.08-.005.02.008-.046.01-.08.005m1.672 1.959c.004-.108.078.417.023.217a2 2 0 0 1-.023-.217m-.88-1.699c-.046-.007-.069-.022-.171-.08.156.079.022-.014.17.08m-6.169 12.724.002-.002zm6.412.576c.063.015.239.014.186 0a1 1 0 0 0-.186 0m-2.827-12.753q.009-.006 0 .01zm1.882 12.765c.006-.01-.262-.015-.273-.013-.154.018.162.014.273.013M27.57 25c-.001-.014-.03.075-.018.13.008.042.022-.078.018-.13m-3.844-11.217c.048.046.11.116.11.138-.025-.036-.117-.132-.11-.138m.574 1.305c-.016-.078-.035-.254-.06-.365.025-.007.06.29.06.365m-3.192-1.358c-.006.002-.129.116-.102.11.036-.012.14-.136.102-.11m6.447 11.683c.01.095.038-.124.016-.224-.012-.052-.018.208-.016.224m-3.356 1.445c.125-.009-.186-.023-.23-.008.058 0 .185.01.23.008m-4.272.014c.395.041.18-.034.11-.027a1 1 0 0 0-.11.027m7.612-10.23c-.013-.013-.002.057.011.061.011.003 0-.052-.011-.06m-10.655 7.36q.03.03.059.064zm8.454 2.911c-.278-.058-.249-.013-.273-.014-.052 0-.174-.016-.273-.014l.34-.02a21 21 0 0 0-.88-.015c-.024.013.22.009.227.01.01.002.048.04.07.04.038.003.686.004.79.013m-4.584-.047c-.064-.005-.082-.02-.111-.016-.01.001-.012.015-.046.019zm5.083-.006c.079.018-.275.011-.286.01-.06-.012.222-.024.286-.01m-3 .003c.013 0 .285.006.283-.003-.072-.008-.435-.01-.283.003m-2.283.007c-.095-.002-.275-.016-.255.005zm7.046-1.131c.034-.177-.009-.093-.02.063.015.048.015-.034.02-.063m.025-.566c.004-.029.003-.218-.002-.352q-.008-.027-.018-.019-.002.004.002.02c.004.09.01.197.008.205-.002.02-.021-.073-.017.083.006-.01.025.08.027.063m-.003.42c.026-.176-.022-.216-.022-.084 0 .052.018.108.022.083m-.004.717a2 2 0 0 0-.005-.348l-.004.466c.009.018.005-.063.009-.119m-2.428-9.99c-.217-.09.3.076.328.046.07.016-.231.01-.328-.045m1.877-.258c-.038-.005-.064-.023-.15-.013l.258.039c.067-.03-.065-.02-.108-.026m-.328-.11c.012 0-.054-.046.103-.015.106.02-.47.04-.574.02.115-.01.367.002.471-.004m-1.008-.2c-.007-.003.212-.008.237-.006.133.014-.201.027-.237.007m.698.01c-.103-.01.124-.015.192-.01.007.009-.176.01-.192.01m-1.378-1.09c.008-.127-.083-.219-.03-.039.002.009.03.044.03.039m.894 1.034c.102.01-.125.015-.192.01a1 1 0 0 1 .192-.01m-.837-1.134c-.015-.169-.077-.092-.075-.072.013.083.086.364.094.424-.061-.431-.019-.272-.02-.352m-.303-.701c-.077-.131.088.22.128.284a3 3 0 0 0-.128-.284m-.545-.748c-.057-.06-.247-.218-.29-.23.078.048.258.214.29.23m-.12-.15c-.093-.094-.146-.074-.019.006.005.004.023-.002.02-.006m-.62-.397c-.072-.052-.18-.045-.052.008.038.017.06-.002.052-.008m1.615 1.77c-.029-.124-.112-.265-.033-.01a3 3 0 0 0-.107-.26c.107.33.128.298.155.395.03.138-.012.134-.029.11.033.072.081.324.082.567a.6.6 0 0 0 .027.154.5.5 0 0 1-.011-.154c.009-.206-.01-.432-.04-.59-.014-.069-.04-.132-.056-.19-.025-.093.014-.015.012-.022m-2.556-2c-.253-.032-.094.017.049.02a.2.2 0 0 0-.049-.02m3.072 3.22c.296.02.08.045.7.007-.26.027-.014.02-.065.03-.04.009-.193.002-.105.02-.116-.02-.623-.014-.645-.018-.013-.001.02-.045.115-.038m-1.31-2.532c-.028-.1-.11-.057-.216-.197-.213-.094.483.405.48.545-.594-.69.339.5.002-.044.292.442.112.133.17.193.063.064.199.336.208.314a3 3 0 0 0-.302-.47c.074.17-.14-.136-.21-.25a3 3 0 0 0-.132-.09m.586.85c-.001-.02-.21-.357-.208-.327.037.04.299.533.208.326m.35 1.47c-.029-.063-.037-.168-.05-.206v-.008.008c-.004.067.018.179.05.206m-5.04-2.066c-.112.143.27-.263.148-.156a3 3 0 0 0-.148.156m3.773-.507c-.147-.117-.101-.024.019.042.007.004-.013-.036-.02-.042m1.881 2.779c.01-.013.44-.004.516-.004-.043.012-.528.02-.516.004m-.514-.134c-.03-.099-.093-.234-.098-.278l-.002-.028c.001-.043.023.024.023.014a3.5 3.5 0 0 0-.047-.498c-.004-.015-.018.07-.044-.02.025.082.06.31.06.532-.003.11.049.218.055.224.01.01-.018-.092.053.054m-.096-.413c-.006.113-.024-.203-.036-.28-.012-.17.044.264.036.28m-.125-.756c-.004-.037-.125-.345-.154-.362.057.145.174.442.154.362m-2.776-2.011c-.086-.001-.32.007-.333.023.085-.015.32-.013.333-.024m5.018 3.214c-.196-.026.262.003.38.079.007-.002-.362-.09-.38-.08m-3.351-2.792a2.855 2.855 0 0 0-1.168-.45c.07.014.365.074.629.185.266.107.495.258.516.27.012.006.028 0 .023-.005m1.265 1.852c.037.092.026.159.027.17.02.12.037.37.016.315.008-.214-.119-.667-.043-.486m-3.008-2.353c-.213.015-.056.011.087.013.099.001.19.006.154-.004a2 2 0 0 0-.24-.009m1.843.565c.037.017.27.188.467.412.2.22.357.49.396.564-.097-.12-.144-.235-.27-.397-.035-.043-.035-.024-.039-.029-.06-.073-.005-.026-.043-.072-.007-.046-.602-.541-.51-.478m1.188 1.84c.017.038.072.365.067.576 0 .027.005.05.004.052-.002.028-.016-.006-.018-.052a4 4 0 0 0-.053-.576m-1.255-1.915c.12.031.51.4.224.173-.027-.021-.135-.123-.223-.173m-1.738-.52c-.017-.006-.397.02-.401.036.054-.017.604-.032.401-.036m.198-.03c-.01 0 .08.022-.099.014-.007 0-.017-.005-.05-.01a1 1 0 0 0-.218.004.5.5 0 0 0-.11.026c.079.002.207-.007.328-.01.243-.007.46-.006.15-.024m2.814 2.474c.002-.038.045.043.043.124-.001.035-.024-.026-.043-.124m-4.184-2.196c.194-.11-.436.192-.454.232.02-.012.43-.23.454-.232m6.718 3.076c.237.125.082.062.094.067.455.328.325.253.399.304.122.146.09.132.237.415-.257-.459-.023-.04-.036-.02-.015.038-.066-.127-.187-.3a1.25 1.25 0 0 0-.434-.397c-.03-.02.187.137.106.09-.23-.19-1.172-.425-.178-.159m-2.48-.696c.014.043.033.229.028.383-.004.039 0 .078-.012.053a.2.2 0 0 1-.008-.053c.002-.197-.035-.465-.008-.383m-9.345 11.449c-.014-.128-.03.168-.02.223.006.027.026-.167.02-.223m1.859 1.852c.151-.003.311-.06.122-.05-.02 0-.14.042-.122.05m-4.617-8.128c-.127.156-.087.166-.01.043.03-.043.014-.048.01-.043m2.733 4.898q.004.008.014 0c.009.004-.016-.017-.014 0m-2.701-4.954c-.062.101.073-.051.146-.178-.046.058-.14.168-.146.178M23.77 12.38c-.095-.033-.352-.145-.508-.185-.01-.03.407.128.508.185m-6.66 15.614c.25.053-.272-.11-.227-.09.004.008.215.092.227.09m-1.085-11.001c.012.104.028-.227.007-.136zm1.385-1.669c-.15-.03-.716.204-.492.125.029-.031.48-.13.492-.125m10.99.512c-.026-.079.233.289.239.358.014.018-.185-.274-.238-.358m-15.588 5.297c-.019.102-.049.369-.037.417-.002-.127.062-.447.037-.417m3.397 6.155c.079.219.38.477.327.39-.29-.302-.02.083-.327-.39m-2.447-7.92c-.063.055-.088.12-.08.115.07-.055.15-.162.08-.115m.916 5.177c0 .016.253.101.222.08-.01-.003-.222-.088-.222-.08m5.8-11.835c-.104.066.187-.172.292-.214.053-.016-.282.2-.292.214m-4.615 5.856q0-.004-.004-.007c-.085-.01-.355.02-.216.021.033 0 .161-.007.216-.01zm.186-2.205c-.036.203.022-.127.203-.388.174-.266.44-.44.255-.314a1.482 1.482 0 0 0-.458.702m1.907-1.069c-.038-.002-.019-.062.139-.039.02.003-.076.019-.06.022.01.003.354.01.37.01.016-.002-.004-.021.014-.023.02-.003.23.014.34.014.21 0 .232-.015.249-.015.05 0 .133.01.234.01h.006c-.03-.003-.07.029-.045.005a.3.3 0 0 0 .045-.127c.003-.246.039-.468.084-.632-.05.21-.07.422-.069.632a.26.26 0 0 1-.033.136c-.024-.02-.012.05-.024.01-.004.008.002-.003.042-.004-.496.005-1.206.006-1.291.001m.563 12.791c-.093.02.386.016.426-.007a9 9 0 0 0-.426.007m-2.57-1.309c-.006-.046-.025-.09-.034-.195a1 1 0 0 1 0-.217c.005-.068.015.01.018-.003.002-.005.022-.217.025-.04.005.268-.03.025-.03.168l.006.092c.003.159.058.358.058.338a2 2 0 0 1-.032-.18c0-.095.016-.05.015-.063 0-.008-.003-.043-.004-.095-.004-.121-.015-.413 0-.464.004-.013.01.253.014.464.001.238.067.432.071.45.008.03-.029.029-.02.062-.016.027.26.488.324.525l.03.036c-.057-.055.309.253.3.243-.014.006-.276-.2-.278-.216l-.01-.01c.021.029-.176-.154-.29-.374-.119-.217-.159-.443-.141-.319-.079-.325.03.042-.021-.202m-.033-.926.011.054c-.009-.303.009-.654.009-1.003 0-.081-.019-.004-.017-.077v.007c.007.028.036.047.037.033 0-.001-.011-.021-.014-.04l-.003.125c.004.28.023.21.023.226 0 .018-.013.194-.012.29.002.243.013.354-.002.685-.012-.191-.04-.087-.032-.3m.04-7.536c-.011-.011 0-.21-.002-.282.012.011.001.21.003.282m9.967 4.406c-.046-.02.164.228.12.152-.012-.015-.097-.12-.12-.152m1.224.683c.043 0-.128-.032-.13-.02a1 1 0 0 0 .13.02m-13.342.719a3 3 0 0 1-.175-.166c-.096-.107.438.37.175.166m15.047 1.815c-.013-.214-.019.428-.002.232zm-.068 1.112c.028-.07.081-.343.073-.468a.1.1 0 0 0-.002-.033q-.003 0-.006.033c.003.133-.06.43-.065.468m-15.028-7.772c-.042.002.273-.233.39-.302.037-.002-.294.204-.39.302m-1.098 2.146c.08-.829.31-1.105.275-1.051-.01.055-.222.457-.27 1.15-.015.001-.012.005-.005-.099m.833-1.906c-.031.053-.155.192-.229.295.003-.026.167-.228.229-.295m12.264 2.864c.034.043.14.26.112.227-.011-.005-.133-.24-.112-.227M13.69 24.042c.009.047-.331-.318-.343-.357-.087-.127.3.343.343.357m2.174-5.577c.006-.016.04-.014.057-.023 0 .018-.045.025-.057.023m-1.103.18c.008-.007.223-.074.234-.074.179-.04-.425.151-.234.073m12.8-3.452c.011-.003.259.062.265.07.213.073-.522-.114-.266-.07"/></svg>