<svg xmlns="http://www.w3.org/2000/svg" width="75" height="48" fill="none" viewBox="0 0 75 48"><g fill="#fff" clip-path="url(#a)"><path d="M3.16 24.287a1.2 1.2 0 0 1 0-1.2L13.93 4.434a1.2 1.2 0 0 1 1.04-.6h21.538a1.2 1.2 0 0 1 1.04.6l10.768 18.653a1.2 1.2 0 0 1 0 1.2L37.548 42.94a1.2 1.2 0 0 1-1.04.6H14.97a1.2 1.2 0 0 1-1.04-.6zm8.172 20.153a4.2 4.2 0 0 0 3.637 2.1h21.539a4.2 4.2 0 0 0 3.637-2.1l10.77-18.653a4.2 4.2 0 0 0 0-4.2L40.144 2.934a4.2 4.2 0 0 0-3.637-2.1H14.969a4.2 4.2 0 0 0-3.637 2.1L.562 21.587a4.2 4.2 0 0 0 0 4.2z"/><path d="M29.17 34.094c-4.967-7.579-3.24-18.476 4.338-23.867h.002c3.231-2.294 7.357-5.34 11.745-7.492C49.625.593 54.517-.8 59.268.505c1.742.448 3.113 1.06 4.202 1.918 1.103.869 1.829 1.92 2.38 3.102.535 1.148.925 2.468 1.328 3.867.411 1.428.854 3.007 1.505 4.817.359 1 1.08 2.098 2.026 3.575.902 1.408 1.94 3.07 2.67 4.986.739 1.938 1.17 4.148.876 6.675-.293 2.521-1.297 5.268-3.295 8.302-1.326 2.013-3.958 4.033-6.775 5.656-2.858 1.647-6.14 3.018-8.96 3.624h-.003l-.002.001c-6.114 1.293-11.1.486-15.369-1.947-4.214-2.402-7.595-6.315-10.679-10.983l-.001-.002zm6.04-21.47c-6.23 4.433-7.72 13.537-3.585 19.854 2.985 4.517 6.057 7.983 9.682 10.05 3.57 2.034 7.807 2.785 13.3 1.625l.231-.052c2.404-.552 5.295-1.757 7.879-3.245 2.707-1.56 4.848-3.3 5.787-4.726 1.797-2.728 2.6-5.044 2.83-7.024.23-1.975-.099-3.707-.702-5.289-.612-1.604-1.498-3.041-2.399-4.448-.858-1.34-1.818-2.776-2.317-4.166-.689-1.916-1.158-3.59-1.563-4.997-.414-1.435-.746-2.533-1.168-3.44-.407-.872-.875-1.515-1.534-2.033-.672-.53-1.63-.998-3.116-1.38l-.013-.004-.013-.004c-3.727-1.032-7.823.002-11.96 2.03-4.124 2.023-8.027 4.9-11.338 7.249"/></g><defs><clipPath id="a"><path fill="#fff" d="M0 0h75v48H0z"/></clipPath></defs></svg>