<svg xmlns="http://www.w3.org/2000/svg" width="80" height="80" fill="none" viewBox="0 0 80 80"><path fill="#fff" d="M6.294 40.294a1.2 1.2 0 0 1 0-1.2l10.77-18.654a1.2 1.2 0 0 1 1.039-.6h21.539a1.2 1.2 0 0 1 1.039.6l10.77 18.653a1.2 1.2 0 0 1 0 1.2L40.68 58.948a1.2 1.2 0 0 1-1.04.6H18.104a1.2 1.2 0 0 1-1.04-.6zm8.172 20.152a4.2 4.2 0 0 0 3.637 2.1h21.539a4.2 4.2 0 0 0 3.637-2.1l10.77-18.652a4.2 4.2 0 0 0 0-4.2L43.278 18.94a4.2 4.2 0 0 0-3.637-2.1H18.103a4.2 4.2 0 0 0-3.637 2.1L3.696 37.594a4.2 4.2 0 0 0 0 4.2z"/><path fill="#fff" d="M32.303 50.1c-4.966-7.579-3.24-18.476 4.339-23.866l.001-.002c3.232-2.292 7.358-5.338 11.746-7.49 4.369-2.143 9.262-3.535 14.012-2.23 1.743.448 3.114 1.06 4.203 1.918 1.103.868 1.828 1.919 2.38 3.101.535 1.149.924 2.468 1.328 3.867.41 1.428.854 3.007 1.504 4.817.36 1 1.081 2.098 2.027 3.575.902 1.409 1.94 3.07 2.67 4.986.739 1.938 1.17 4.148.876 6.676-.293 2.52-1.297 5.268-3.295 8.302-1.326 2.013-3.958 4.032-6.776 5.656-2.857 1.646-6.139 3.018-8.96 3.623h-.002l-.002.001c-6.114 1.293-11.1.486-15.369-1.947-4.214-2.402-7.595-6.314-10.68-10.983v-.002zm6.041-21.47c-6.23 4.433-7.72 13.537-3.585 19.854 2.984 4.517 6.057 7.983 9.682 10.05 3.57 2.034 7.807 2.785 13.3 1.625l.231-.051c2.404-.552 5.295-1.757 7.878-3.246 2.707-1.56 4.849-3.3 5.788-4.726 1.796-2.728 2.6-5.043 2.83-7.024.23-1.974-.1-3.706-.702-5.288-.612-1.605-1.498-3.042-2.4-4.45-.857-1.339-1.817-2.774-2.317-4.165-.688-1.916-1.157-3.59-1.562-4.997-.414-1.435-.746-2.532-1.168-3.439-.407-.872-.876-1.515-1.534-2.034-.672-.529-1.63-.998-3.116-1.38l-.013-.003-.013-.004c-3.728-1.032-7.824.001-11.96 2.03-4.125 2.022-8.027 4.899-11.339 7.248"/></svg>