<svg xmlns="http://www.w3.org/2000/svg" width="1388" height="171" fill="none" viewBox="0 0 1388 171"><path fill="#d5e5ff" d="M47.133 2.88a9 9 0 0 0-7.795 4.5l-35.9 62.18a9 9 0 0 0 0 9.001l35.9 62.18a9 9 0 0 0 7.795 4.5h71.799a9 9 0 0 0 7.795-4.5l35.899-62.18a9 9 0 0 0 0-9L126.727 7.38a9 9 0 0 0-7.795-4.5z"/><path fill="#69a3ff" d="M193.581 1.53c21.521 5.538 19.069 17.75 27.993 42.592 5.726 15.937 33.408 35.699 8.111 74.114-7.549 11.464-31.825 25.066-49.39 28.838-38.699 8.184-61.5-10.388-81.728-41.008-15.177-23.162-9.814-56.507 13.204-72.88 21.814-15.475 53.521-39.487 81.81-31.656"/><path fill="#fff" d="M286.015 21.05h13.392v108.706h-13.392zM318.34 21.05h13.392v19.857c5.819-10.437 23.921-22.074 43.686-22.074 7.204 0 14.316 1.016 19.857 3.14 5.449 2.125 10.16 5.265 13.946 9.42 3.787 4.157 6.65 9.421 8.682 15.794 1.94 6.28 2.956 13.577 2.956 21.797v60.772h-13.392V70.462c0-6.65-.739-12.377-2.217-17.272s-3.694-8.958-6.558-12.283-6.465-5.726-10.805-7.297c-4.249-1.57-9.144-2.308-14.686-2.308-6.372 0-12.098.923-17.178 2.863s-9.421 4.618-13.023 8.127a35 35 0 0 0-8.22 12.376c-1.939 4.71-2.863 10.067-2.863 15.886v59.294h-13.392V21.05zM539.504 52.452c2.771-6.927 6.557-12.93 11.452-18.01 4.895-4.988 10.714-8.867 17.456-11.545 6.742-2.679 14.223-4.064 22.351-4.064s15.516 1.385 22.258 4.156 12.561 6.65 17.456 11.545c4.987 4.987 8.774 10.898 11.453 17.918 2.678 7.019 4.063 14.777 4.063 23.274v4.248H546.8V68.153h88.757l-2.863 7.48c0-6.65-1.016-12.745-3.141-18.194q-3.186-8.175-8.589-14.13c-3.694-3.972-8.035-6.928-13.207-9.052s-10.806-3.14-16.902-3.14c-6.095 0-11.914 1.108-17.086 3.232s-9.605 5.172-13.3 9.051c-3.694 3.88-6.65 8.497-8.774 13.947s-3.14 11.36-3.14 17.917 1.108 12.653 3.233 18.102c2.124 5.45 5.172 10.068 8.958 13.947s8.313 6.834 13.485 9.051c5.172 2.124 10.898 3.232 17.178 3.232 9.79 0 18.103-2.493 25.03-7.388s11.821-11.822 14.869-20.596l13.023 4.433c-3.787 11.083-10.344 19.857-19.488 26.322-9.236 6.465-20.226 9.698-33.157 9.698-8.219 0-15.885-1.386-22.72-4.064-6.927-2.679-12.838-6.558-17.825-11.545s-8.866-10.991-11.637-17.918-4.249-14.592-4.249-23.181 1.386-15.886 4.157-22.905zM661.419 52.452c2.77-6.927 6.557-12.93 11.452-18.01s10.714-8.867 17.456-11.545c6.742-2.679 14.223-4.064 22.351-4.064s15.516 1.385 22.258 4.156 12.561 6.65 17.456 11.545c4.987 4.987 8.774 10.898 11.452 17.918s4.064 14.777 4.064 23.274v4.248h-99.193V68.153h88.756l-2.863 7.48c0-6.65-1.016-12.745-3.14-18.194-2.124-5.45-4.987-10.16-8.682-14.13-3.694-3.972-8.035-6.928-13.207-9.052s-10.806-3.14-16.901-3.14-11.915 1.108-17.087 3.232-9.605 5.172-13.299 9.051c-3.695 3.88-6.65 8.497-8.774 13.947-2.125 5.449-3.141 11.36-3.141 17.917s1.109 12.653 3.233 18.102c2.124 5.45 5.172 10.068 8.959 13.947s8.312 6.834 13.484 9.051c5.172 2.124 10.898 3.232 17.179 3.232 9.79 0 18.102-2.493 25.029-7.388s11.822-11.822 14.87-20.596l13.022 4.433c-3.787 11.083-10.252 19.857-19.487 26.322-9.236 6.465-20.227 9.698-33.157 9.698-8.22 0-15.886-1.386-22.72-4.064-6.927-2.679-12.838-6.558-17.733-11.545-4.988-4.987-8.867-10.991-11.637-17.918-2.864-6.926-4.249-14.592-4.249-23.181s1.385-15.886 4.156-22.905zM782.413 21.05h13.392v24.567c4.526-8.035 10.067-13.669 18.103-18.933 7.942-5.173 17.363-7.851 28.261-7.851 7.758 0 14.685 1.293 21.058 3.972 6.28 2.678 11.637 6.372 16.07 11.175 4.434 4.803 7.759 10.714 10.16 17.733s3.602 14.962 3.602 23.736-1.201 16.717-3.602 23.644c-2.401 7.019-5.726 12.93-10.16 17.732-4.433 4.896-9.697 8.59-15.978 11.176-6.188 2.586-13.207 3.879-20.965 3.879-10.806 0-20.319-2.678-28.354-7.943s-13.669-11.914-18.195-18.841v65.113h-13.392zm16.625 72.501c2.124 5.45 5.172 10.16 9.051 14.039s8.497 6.834 13.946 8.958 11.268 3.141 17.456 3.141 11.637-1.016 16.624-2.956c4.988-1.939 9.236-4.803 12.746-8.682s6.096-8.404 8.035-13.853c1.94-5.45 2.863-11.545 2.863-18.472s-1.016-13.3-2.955-18.841c-1.94-5.45-4.711-10.16-8.128-14.039s-7.666-6.742-12.745-8.774c-4.988-1.94-10.529-2.955-16.625-2.955-6.095 0-12.191 1.016-17.456 3.14s-9.882 5.08-13.761 8.959-6.835 8.497-9.051 13.946-3.233 11.545-3.233 18.287 1.109 12.468 3.233 18.01z"/><path fill="#fff" d="M538.339 18.833h-19.58l-68.53 60.68v-60.68h-12.931v110.923h12.931v-33.25l.184.185 23.367-20.688 51.444 53.753h18.472l-60.218-62.342zM1186.05 131.839V17.267h14.14v28.696h.42c3.72-9.994 9.5-17.632 17.35-22.914q11.775-8.138 29.34-8.138c12.28 0 22.27 2.998 29.98 8.994q11.565 8.995 15.21 26.984h.43q4.92-17.346 17.13-26.555 12.21-9.423 31.05-9.423 11.13 0 19.92 3.426c5.85 2.142 10.7 5.426 14.56 9.852q6 6.637 9.21 16.704 3.21 9.85 3.21 22.914v64.032h-14.13V69.306c0-6.995-.86-13.063-2.57-18.203-1.57-5.14-3.86-9.423-6.86-12.85-3-3.568-6.78-6.138-11.35-7.709q-6.855-2.57-15.63-2.57c-6.57 0-12.56 1-17.99 2.999q-7.92 2.997-13.71 8.566c-3.71 3.569-6.63 7.923-8.78 13.063-1.99 4.997-2.99 10.565-2.99 16.704v62.533h-13.92V69.306c0-6.995-.86-13.063-2.57-18.203-1.57-5.14-3.86-9.423-6.86-12.85-2.99-3.568-6.78-6.138-11.35-7.709q-6.855-2.57-15.63-2.57c-6.71 0-12.71 1-17.99 2.999-5.28 1.998-9.85 4.854-13.7 8.566-3.72 3.569-6.64 7.923-8.79 13.063-1.99 4.997-2.99 10.565-2.99 16.704v62.533zM1054.32 74.66c0-8.852 1.5-16.918 4.49-24.2 3-7.423 7.14-13.777 12.43-19.06 5.28-5.282 11.63-9.35 19.06-12.206 7.42-2.855 15.56-4.283 24.41-4.283q13.485 0 24.63 4.283c7.42 2.855 13.77 6.924 19.06 12.207 5.28 5.282 9.35 11.564 12.2 18.845q4.5 10.923 4.5 24.414 0 13.063-4.5 24.2-4.275 10.922-12.42 18.845c-5.28 5.14-11.63 9.209-19.06 12.207-7.28 2.855-15.42 4.283-24.41 4.283-9 0-17.2-1.428-24.63-4.283-7.42-2.856-13.78-6.924-19.06-12.207q-7.92-7.923-12.42-18.845c-2.86-7.282-4.28-15.348-4.28-24.2m14.13 0q0 10.28 3.21 19.06c2.29 5.71 5.43 10.636 9.43 14.776 4.14 3.998 9.06 7.139 14.77 9.423 5.71 2.142 12 3.213 18.85 3.213q10.275 0 18.84-3.213c5.72-2.284 10.57-5.496 14.57-9.637q6.21-6.21 9.63-14.776c2.29-5.711 3.43-11.993 3.43-18.846 0-6.996-1.14-13.349-3.43-19.06q-3.42-8.78-9.63-14.776c-4-4.14-8.85-7.282-14.57-9.423q-8.565-3.427-18.84-3.427c-6.85 0-13.14 1.142-18.85 3.427-5.71 2.141-10.63 5.282-14.77 9.423-4 4.14-7.14 9.066-9.43 14.776q-3.21 8.566-3.21 19.06M930.401 74.446q0-13.064 4.497-23.985 4.497-11.136 12.421-19.06 7.923-7.925 18.845-12.207 10.923-4.283 23.986-4.283 10.709 0 19.92 2.998c6.28 1.999 11.85 4.854 16.7 8.566 5 3.712 9.21 8.21 12.64 13.492 3.42 5.282 5.99 11.207 7.7 17.775l-13.92 3.212c-1.28-5.14-3.28-9.708-5.99-13.706-2.57-4.14-5.78-7.638-9.64-10.493q-5.565-4.284-12.63-6.425-6.856-2.355-14.78-2.356-10.066 0-18.418 3.427t-14.562 9.637q-5.997 5.996-9.423 14.562-3.212 8.566-3.212 18.846 0 10.494 3.212 19.06 3.426 8.566 9.423 14.776 6.21 5.997 14.562 9.423t18.418 3.427q8.78 0 16.28-2.57c4.99-1.856 9.42-4.426 13.27-7.71 3.86-3.426 7.07-7.495 9.64-12.207 2.57-4.854 4.28-10.208 5.14-16.061l13.71 3.212c-1.15 7.424-3.36 14.134-6.64 20.131a54.2 54.2 0 0 1-12.64 15.205q-7.5 6.21-17.34 9.636-9.856 3.427-21.634 3.427-13.063 0-23.986-4.283t-18.845-12.207q-7.71-7.923-12.207-18.845-4.497-10.923-4.497-24.414M900.257 131.839v-19.916h19.702v19.916z"/></svg>