<svg xmlns="http://www.w3.org/2000/svg" width="81" height="25" fill="none" viewBox="0 0 81 25"><g clip-path="url(#a)"><path fill="#f4ebf5" d="M34.722 11.75c-1.746-.184-3.108.71-5.235.601s-2.44-.574-4.882-.452c-2.42.122-4.869-.182-5.95.017-1.064.2-1.209-.38-2.737-.242-1.53.14-2.457.07-3.817-.11-1.328-.18-5.475-.307-6.984-.057-1.49.248-3.221-.13-4.249-.205a6 6 0 0 1-.755-.097C.036 11.19 0 11.152 0 11.115c-.001-.046.05-.093.15-.1.476-.04 1.272-.13 2.167-.312 1.68-.336 1.858.007 4.156-.177 2.28-.182 3.62-.513 6.324-.325 2.65.189 3.295-.683 7.063-.216 3.776.467 4.18-.442 7.937-.59 3.765-.148 8.522.31 10.793.244 2.265-.065 5.316-.205 8.534-.134 3.219.072 7.185-.3 10.733-.18 3.534.127 8.555.21 10.887.22 1.407.015 2.275-.008 3.111-.128a11.5 11.5 0 0 0 1.87-.436c.293-.096.605-.201.916-.335.153-.067.304-.142.432-.223.063-.04.122-.086.157-.12.018-.017.03-.035.023-.018.002.02-.032-.001-.001.175.01.037.051.155.192.219a.34.34 0 0 0 .315-.018c.086-.057.091-.086.105-.107-.347.503-.71.858-1.102 1.23-.116.12-.315.233-.508.22-.19-.01-.314-.085-.422-.127-.286-.135-.44.034-.456-.065-.004-.038.022-.127.162-.209.142-.088.382-.06.545-.034.2.019.196-.011.291-.12.364-.48.725-.929.849-1.257.02-.036.03-.06.083-.113.046-.033.12-.149.38-.104a.416.416 0 0 1 .3.335c.013.071.007.117.004.15-.022.136-.053.189-.08.249-.055.11-.11.187-.154.257-.968 1.161-1.532 1.344-3.039 1.424-.26.005-.49.024-.708.054-.975.13-1.541.533-2.272.543-.809-.009-.874-.282-5.116.156-4.26.42-6.588.526-8.229.628-1.587.098-4.996-.11-7.623.03-2.624.145-7.984.12-10.137.304-2.159.186-2.164-.172-3.91-.355"/><path fill="#231f20" fill-opacity=".4" d="M34.722 11.75c-1.746-.184-3.108.71-5.235.601s-2.44-.574-4.882-.452c-2.42.122-4.869-.182-5.95.017-1.064.2-1.209-.38-2.737-.242-1.53.14-2.457.07-3.817-.11-1.328-.18-5.475-.307-6.984-.057-1.49.248-3.221-.13-4.249-.205a6 6 0 0 1-.755-.097C.036 11.19 0 11.152 0 11.115c-.001-.046.05-.093.15-.1.476-.04 1.272-.13 2.167-.312 1.68-.336 1.858.007 4.156-.177 2.28-.182 3.62-.513 6.324-.325 2.65.189 3.295-.683 7.063-.216 3.776.467 4.18-.442 7.937-.59 3.765-.148 8.522.31 10.793.244 2.265-.065 5.316-.205 8.534-.134 3.219.072 7.185-.3 10.733-.18 3.534.127 8.555.21 10.887.22 1.407.015 2.275-.008 3.111-.128a11.5 11.5 0 0 0 1.87-.436c.293-.096.605-.201.916-.335.153-.067.304-.142.432-.223.063-.04.122-.086.157-.12.018-.017.03-.035.023-.018.002.02-.032-.001-.001.175.01.037.051.155.192.219a.34.34 0 0 0 .315-.018c.086-.057.091-.086.105-.107-.347.503-.71.858-1.102 1.23-.116.12-.315.233-.508.22-.19-.01-.314-.085-.422-.127-.286-.135-.44.034-.456-.065-.004-.038.022-.127.162-.209.142-.088.382-.06.545-.034.2.019.196-.011.291-.12.364-.48.725-.929.849-1.257.02-.036.03-.06.083-.113.046-.033.12-.149.38-.104a.416.416 0 0 1 .3.335c.013.071.007.117.004.15-.022.136-.053.189-.08.249-.055.11-.11.187-.154.257-.968 1.161-1.532 1.344-3.039 1.424-.26.005-.49.024-.708.054-.975.13-1.541.533-2.272.543-.809-.009-.874-.282-5.116.156-4.26.42-6.588.526-8.229.628-1.587.098-4.996-.11-7.623.03-2.624.145-7.984.12-10.137.304-2.159.186-2.164-.172-3.91-.355"/><path fill="#f4ebf5" d="M74.712 9.423c-.883-.475-1.878.146-2.992-.323-1.113-.47-1.15-.97-2.495-1.278-.641-.148-1.255-.391-1.788-.608-.592-.24-1.084-.45-1.424-.46-.649-.023-.517-.588-1.388-.775-.87-.193-1.35-.474-1.977-.97a10 10 0 0 0-.747-.513l-.02-.01c-.834-.594-2.045-1.348-2.668-1.534-.85-.25-1.484-1.134-1.849-1.636a2 2 0 0 1-.097-.144c.004-.002-.028-.029.013-.005l.024.011c.023-.006.047.062.178-.056.062-.134.017-.122.023-.136l-.008-.02c-.005-.01-.007-.011-.008-.012q-.003-.002-.002.001l.005.014.025.064q.026.064.045.12a.1.1 0 0 1-.027.111.1.1 0 0 1-.135-.009l-.084-.081-.048-.048-.016-.019-.007-.01c.002-.026-.023.056-.008-.117.058-.105.134-.076.148-.076q.031.01.032.012l.016.01.011.007.037.027c.212.167.501.317.876.431.93.266.834.607 2.009 1.127.8.347 1.434.5 2.142.852l-.036-.02c.336.146.686.329 1.09.582 1.28.774 1.89.078 3.717 1.22.259.16.487.278.705.37 1.325.558 1.93.027 3.701.462 2.059.505 4.486 1.753 5.73 2.094l.194.053c.305.083.627.17.977.27q.26.075.549.17c.101.034.194.064.334.121a2 2 0 0 1 .239.118c.054.039.1.038.303.245.06.068.16.185.24.387.13.254.102.86-.145 1.155-.25.32-.381.343-.49.405-.118.052-.153.058-.208.074-.18.042-.22.037-.273.042-.09.005-.128.003-.162.004-.7-.024-1.333.086-2.126.256-1.057.229-2.21.854-3.351 1.496a24 24 0 0 1-1.857.967c-1.813.815-4.35 2.098-5.548 2.648-1.2.55-1.49.688-2.488 1.463a7.8 7.8 0 0 1-2.278 1.196c-.42.131-.428-.058-.112-.356.462-.435.934-.648 1.093-.995.318-.693.463-.973 1.275-1.212.811-.238.841-.9 1.275-1.103.434-.201.593.067 2.504-1.424 1.916-1.489 3.034-2.219 3.81-2.732.274-.182.684-.39 1.16-.611.879-.412 1.984-.84 2.924-1.254.816-.361 2.311-.843 3.76-.778l-.027.001c-.043.01-.039-.019-.306.067-.093.041-.188.06-.407.255-.244.187-.466.787-.34 1.163.096.34.184.405.26.505.055.064.091.096.126.126.207.16.17.112.191.13l-.012-.004a5 5 0 0 0-.211-.074 13 13 0 0 0-.504-.154 12 12 0 0 0-.897-.225l-.189-.035c-1.202-.198-1.103-.54-1.986-1.015"/><path fill="#231f20" fill-opacity=".4" d="M74.712 9.423c-.883-.475-1.878.146-2.992-.323-1.113-.47-1.15-.97-2.495-1.278-.641-.148-1.255-.391-1.788-.608-.592-.24-1.084-.45-1.424-.46-.649-.023-.517-.588-1.388-.775-.87-.193-1.35-.474-1.977-.97a10 10 0 0 0-.747-.513l-.02-.01c-.834-.594-2.045-1.348-2.668-1.534-.85-.25-1.484-1.134-1.849-1.636a2 2 0 0 1-.097-.144c.004-.002-.028-.029.013-.005l.024.011c.023-.006.047.062.178-.056.062-.134.017-.122.023-.136l-.008-.02c-.005-.01-.007-.011-.008-.012q-.003-.002-.002.001l.005.014.025.064q.026.064.045.12a.1.1 0 0 1-.027.111.1.1 0 0 1-.135-.009l-.084-.081-.048-.048-.016-.019-.007-.01c.002-.026-.023.056-.008-.117.058-.105.134-.076.148-.076q.031.01.032.012l.016.01.011.007.037.027c.212.167.501.317.876.431.93.266.834.607 2.009 1.127.8.347 1.434.5 2.142.852l-.036-.02c.336.146.686.329 1.09.582 1.28.774 1.89.078 3.717 1.22.259.16.487.278.705.37 1.325.558 1.93.027 3.701.462 2.059.505 4.486 1.753 5.73 2.094l.194.053c.305.083.627.17.977.27q.26.075.549.17c.101.034.194.064.334.121a2 2 0 0 1 .239.118c.054.039.1.038.303.245.06.068.16.185.24.387.13.254.102.86-.145 1.155-.25.32-.381.343-.49.405-.118.052-.153.058-.208.074-.18.042-.22.037-.273.042-.09.005-.128.003-.162.004-.7-.024-1.333.086-2.126.256-1.057.229-2.21.854-3.351 1.496a24 24 0 0 1-1.857.967c-1.813.815-4.35 2.098-5.548 2.648-1.2.55-1.49.688-2.488 1.463a7.8 7.8 0 0 1-2.278 1.196c-.42.131-.428-.058-.112-.356.462-.435.934-.648 1.093-.995.318-.693.463-.973 1.275-1.212.811-.238.841-.9 1.275-1.103.434-.201.593.067 2.504-1.424 1.916-1.489 3.034-2.219 3.81-2.732.274-.182.684-.39 1.16-.611.879-.412 1.984-.84 2.924-1.254.816-.361 2.311-.843 3.76-.778l-.027.001c-.043.01-.039-.019-.306.067-.093.041-.188.06-.407.255-.244.187-.466.787-.34 1.163.096.34.184.405.26.505.055.064.091.096.126.126.207.16.17.112.191.13l-.012-.004a5 5 0 0 0-.211-.074 13 13 0 0 0-.504-.154 12 12 0 0 0-.897-.225l-.189-.035c-1.202-.198-1.103-.54-1.986-1.015"/></g><defs><clipPath id="a"><path fill="#fff" d="M0 0h81v25H0z"/></clipPath></defs></svg>