<svg xmlns="http://www.w3.org/2000/svg" width="157" height="183" fill="none" viewBox="0 0 157 183"><g fill="#ffcb83" clip-path="url(#a)"><path d="M99.833 50.486c-1.592-5.102-1.877-9.616-5.26-15.434-3.594-5.64-4.657-6.163-9.689-11.725-5.196-5.51-12.007-9.185-14.724-10.95-2.895-1.846-3.45-1.31-7.72-3.383-4.324-2.008-7.06-2.823-11.064-3.77-3.887-1.07-16.509-3.45-20.819-4.202-4.644-.954-9.684-.86-12.913-.948a38 38 0 0 0-2.401 0c-.26.008-.382.052-.385.101-.003.062.179.132.51.16 1.602.13 3.967.385 6.639.85 4.814.89 5.792.484 12.37 1.708 6.848 1.382 10.782 2.609 18.46 4.673 7.8 2.42 9.112 3.778 19.172 8.871 9.665 5.8 10.044 7.679 16.535 16.432 6.484 9.005 10.162 22.909 10.429 29.691.524 6.749.066 15.897-1.41 25.457-1.402 9.575-5.005 21.039-8.397 31.205-3.28 10.219-9.242 24.257-12.177 30.641l-.472 1.047c-2.633 5.429-3.294 7.418-7.619 11.901a7.7 7.7 0 0 1-1.029.781 2.8 2.8 0 0 1-.549.272.7.7 0 0 1-.182.042c.003.001.01-.003.061.013.019.015.22.042.282.365.013.287-.111.341-.13.371-.034.029-.04.027-.042.029 1.779-.927 3.402-2.127 5.047-3.391a47 47 0 0 0 3.748-3.279c1.642-1.596 1.106-1.421-.716-.026-1.296.987-2.469 1.888-3.527 2.628-1.12.784-2.102 1.401-2.916 1.767-.877.389-1.674.741-2.27.923-.101.045-.177.077-.316.186-.07.058-.14.124-.217.233a1.07 1.07 0 0 0-.197.611c.016.71.55.968.696 1.028.19.078.321.09.415.1.378.024.564-.035.749-.078.36-.095.65-.234.902-.368a7.1 7.1 0 0 0 1.39-1.008c.85-.779 1.644-1.765 2.515-3.147 2.326-3.85 3.818-5.336 4.975-7.688.248-.525.418-.945.613-1.432.58-1.547 1.522-3.636 5.869-12.654 5.576-11.774 7.97-18.52 9.648-23.163 1.692-4.652 4.321-14.646 5.999-22.542 2.008-7.85 3.205-24.349 2.537-31.05-.442-6.666-.988-6.661-2.42-11.849"/><path d="M59.177 164.608c.754-4.51 2.716-7.737 3.807-13.2 1.088-5.461.672-6.412 2.21-12.604 1.17-4.729 1.98-9.552 2.636-12.784.206-1.01.395-1.855.582-2.501.786-2.756.1-3.19.931-7.146.804-3.975 1.017-6.452 1.037-10.013.005-1.295.04-3.554-.011-6.09l-.001-.035c-.364-4.427-.798-9.719-.87-12.235-.101-3.96-1.211-8.442-2.405-10.941a13 13 0 0 0-.36-.72l-.031-.065c-.01-.006-.022-.108-.018.014-.006.025-.01.124-.152.172-.133.022-.16-.031-.165-.028a.1.1 0 0 1-.026-.023q-.003-.006.002 0l.02.023.046.06q.093.13.18.255.172.249.319.456c.125.176.217.239.26.215.054-.03.032-.194-.096-.44q-.112-.218-.243-.464c-.043-.082-.087-.165-.14-.254l-.044-.072c-.014-.017-.003-.017-.062-.067-.008-.002-.02-.024-.095-.032-.088-.01-.167.08-.172.117-.02.086-.007.066-.009.086.004.028.005.03.008.042.018.069.034.11.052.163.485 1.147.851 2.662 1.02 4.425.343 4.36.821 4.801 1.156 10.73.157 3.296.14 5.84.221 8.68l-.001-.069c-.088 2.262-.175 4.663-.338 7.761-.463 6.793-1.837 8.276-3.065 17.495q-.043.304-.086.625c-1.384 9.813-2.828 10.561-5.17 20.134-1.628 6.61-3.199 14.5-4.403 20.69-.538 2.806-1.002 5.201-1.295 7.143-.045.341-.095.626-.102 1.136.006.131-.012.264.077.623.037.123.056.211.188.441a1.626 1.626 0 0 0 1.025.741c.561.118.946-.071 1.106-.152.202-.11.266-.172.348-.24.257-.238.307-.334.39-.442.074-.102.128-.184.178-.26 2.742-4.654 8.453-8.933 14.73-12.939 2.777-1.768 5.96-3.48 9.344-5.13 5.108-2.487 10.603-4.916 15.638-7.354 8.363-4.059 20.33-9.52 25.841-12.095 5.512-2.577 6.855-3.195 12.314-5.31 3.138-1.215 7.384-3.065 10.88-4.853 1.758-.9 1.262-.931-.608-.267-2.737.97-4.894 1.977-6.379 2.299-2.963.641-4.218.936-7.574 2.679-3.356 1.744-5.27 1.764-7.266 2.691-1.987.93-1.803 1.288-12.212 5.36-10.404 4.087-16.04 6.519-19.94 8.199-2.71 1.172-7.412 3.502-12.071 5.893a402 402 0 0 0-5.89 3.095c-5.54 2.87-16.083 9.768-19.543 15.973-.041.06-.077.11-.095.132-.002.011-.072.043.166-.165.063-.048.188-.153.455-.248.286-.123 1.005-.15 1.482.206.415.298.52.587.57.687.054.123.078.224.086.259.037.188.022.147.028.137.008-.117.046-.398.088-.632.762-3.717.917-4.966 1.103-6.93a48 48 0 0 1 .414-3.037"/></g><defs><clipPath id="a"><path fill="#fff" d="M0 0h157v183H0z"/></clipPath></defs></svg>