<svg xmlns="http://www.w3.org/2000/svg" width="15" height="18" fill="none" viewBox="0 0 15 18"><path fill="#ffcb83" d="M9.825 8.607c.039-.467.97-.35 1.118-.864s-.22-.8.164-1.273c.384-.474.396-1.144.693-1.288.295-.143-.196-.437.1-.707q.053-.048.093-.093c.212-.234.247-.457.244-.789-.002-.152.054-.397.147-.654a3.6 3.6 0 0 1 .26-.564c.017-.031.034-.06.055-.101.012-.028.021-.028.045-.122-.008-.045.063-.04-.059-.282-.074-.132-.305-.164-.338-.147-.066.009-.094.023-.112.03-.07.033-.072.04-.09.048a1.1 1.1 0 0 1-.315.158c-.178.046-.288.172-.36.323-.111.229-.124.503-.176.657a.6.6 0 0 0-.032.216c.001.027.024.057.053.08.036.028.08.044.1.027.1-.08.277-.184.541-.238a.7.7 0 0 0 .237-.082c.167-.097.189-.356.438-.45-.002.003-.003.005-.018.016-.027.009.008.028-.195.07-.046.004-.15.015-.278-.05a.47.47 0 0 1-.223-.253c-.05-.173-.026-.173-.027-.22.006-.058.011-.069.013-.08-.305.244-.81.499-.933 1.142-.056.274-.227.39-.413.506-.269.165-.563.32-.577.934-.024 1.038-.86.703-1.416 1.451S7.87 8.002 7.558 8.465c-.31.463-.772 1.06-1.064 1.796-.16.405-.462.798-.743 1.205-.23.333-.447.677-.567 1.054-.266.842-.7 2.008-.865 2.576-.164.568-.21.706-.608 1.097-.23.225-.428.614-.447 1.044-.01.217.148.272.318.163.249-.161.314-.387.56-.391.494-.008.692-.023.698-.446.004-.424.544-.273.609-.48.063-.21-.199-.37.582-1.134.778-.767 1.133-1.236 1.393-1.55.129-.156.243-.449.375-.765.133-.318.284-.66.492-.918.416-.514.996-1.703 1.4-2.088.405-.386.096-.555.134-1.021"/><path fill="#ffcb83" d="M11.821 2.741a.5.5 0 0 1 0 .16c-.085.488-.87.793-.89 1.437-.02.713.415.895.15 1.674-.257.759-.11 1.587-.333 1.94l-.02.029c-.252.34.313.451.11.954-.2.509-.161.851.003 1.325.068.194.133.553.196.93l.002.029c.125.515.21 1.102.125 1.421-.144.543.37 1.058.638 1.34q.042.046.083.077c0-.005.002-.003.003-.004q.001 0 .001-.003l-.002-.01-.004-.015c.008-.02-.035.011.03-.126.051-.074.158-.069.176-.057.026.01.024.011.032.015l.016.013.007.008q.002.004 0 .004h-.006l-.037-.016-.072-.03c-.03-.01-.068.003-.099.025-.038.028-.064.07-.048.102l.028.06q.008.017.018.037l.01.015c.005.004 0 .004.026.023.014-.004-.003.04.126.006.118-.09.064-.136.074-.137-.004-.022-.005-.023-.007-.028-.008-.025-.008-.026-.01-.036-.046-.152-.043-.34.025-.576.18-.575-.165-.554-.121-1.31.025-.366.102-.67.14-.981l.004.056c.065-.312.094-.605.017-1.03-.122-.753.579-.921.53-1.832a2.5 2.5 0 0 0-.049-.376c-.254-1.293.668-1.28 1.035-2.477.2-.649.245-1.42.27-2.128.007-.214.011-.417.017-.624l.008-.336c0-.077.008-.108-.006-.326-.015-.072.02-.11-.113-.432a1.1 1.1 0 0 0-.294-.381c-.162-.165-.62-.309-.878-.253-.552.113-.581.258-.68.321-.229.237-.193.24-.226.283-.088.163-.08.156-.133.215-.312.34-1.126.82-1.934 1.41-.21.155-.453.29-.715.416-.765.367-1.671.66-2.402 1.172-.984.69-2.414 1.62-3.054 2.1s-.8.593-1.524.794a2.9 2.9 0 0 0-1.306.823c-.187.208-.073.334.188.304.382-.045.632-.237.883-.127.503.219.71.296 1.062-.115.351-.412.763-.011.997-.182s.109-.457 1.508-.819c1.4-.364 2.144-.642 2.662-.82.457-.16 1.22-.746 1.975-1.119.111-.055.214-.102.323-.147.877-.346 2.458-1.41 3.246-2.2.16-.141.314-.366.323-.392l-.034.045c-.015.018-.036.046-.077.09-.053.051-.088.115-.328.264a1.4 1.4 0 0 1-.744.189 1.3 1.3 0 0 1-.59-.163 1.2 1.2 0 0 1-.348-.283c-.273-.355-.24-.456-.274-.546-.03-.156-.022-.187-.023-.226.009-.105.024-.073.037-.067.026.027.058.082.092.138.07.115.149.258.185.486"/></svg>