<svg xmlns="http://www.w3.org/2000/svg" width="521" height="78" fill="none" viewBox="0 0 521 78"><path fill="#231f20" d="M141.89.057c-1.166.02-1.407-.051-.464-.057.268-.001.614.037.464.057m-8.286.068c-1.313.01-.624-.073-.404-.075.925-.008 1.727.078 2.045-.029.563-.007.029.037.379.04.652.006 1.298-.044 1.972-.047h.137c.076.023.259.047.235.07-.713.03-4.038.039-4.364.041m5.594-.03c-.323-.008-.183-.042-.794-.023-.132-.028.462-.054.764-.053.008 0-.033.022.038.022.533.001 1.338-.022 1.355.037-.527-.033-1.038.024-1.363.017m6.746-.003c.141-.04.384-.035.757-.011-.028.009-.037.018-.069.027-.219-.007-.461-.011-.688-.016m1.395.009c.286-.049 1.832-.022 1.56.002q-.78 0-1.56-.002M13.236 36.837c.86.343 4.086 1.17 4.854 1.156.548.05 1.078.073 1.6.072 2.971-.002 5.517-.022 8.435-.018 2.208.002 4.254.03 6.447.034l1.44.307c-.31-.009-.472-.022-.83-.022s-1.214-.015-1.434.033c.32.048 1.469.059 1.82.059.674 0 .248-.047.712-.058.465-.011 1.237.053 1.806.029 1.333-.058-1.16-.095-1.62-.085.155-.108 1.267.019 1.704-.066-.168-.026-.858-.088-1.12-.07-.261.02.145.083-.414.065-.37-.06-.78-.122-1.148-.182.555-.015 1.394.02 1.888.018 3.045-.01 6.03-.007 9.02.002q3.708.06 7.401.126l-.075-.01a2 2 0 0 0-.133-.014l-.007.002c-.06-.006-.151-.009-.245-.012a4 4 0 0 1-.32-.02l.219-.007.497-.013.469.081 2.322.042q.044.009.116.016l.116.012.185.008c.321.012.72.022 1.041.03l.245.005.577.014.06.002q.012.005.034.009a1.9 1.9 0 0 0 .475.004l.24.006a90 90 0 0 1 1.618.055h.005l.38.015c.18.008.374.015.562.021.176.006.406.012.65.014.519.005 2.558.023 3.547.035.438.005.871-.014 1.041-.043l.75.015a1 1 0 0 1 .065-.009c.063-.004.172-.007.288-.01.222-.005.473-.011.493-.03l-.718-.002h-.048c-.161-.015.695-.057.99-.036.235.016.155.074.066.108l.35.007c.034-.005.057-.011.08-.018.037-.01.078-.021.17-.03.466-.043 1.667-.009 1.17.047.32.007.365-.005.415-.02.054-.015.116-.033.53-.035.49 0 .686.014.87.027.098.007.194.015.329.019.122.004.336.005.576.007.527.003 1.189.007 1.336.042.168.038-.102.05-.34.056l1.882.035a.1.1 0 0 0 .006-.036c.846-.009 1.002.019.86.052l2.392.044c.166-.007.333-.012.468-.016a3 3 0 0 0-.406-.015c-.143 0-.279 0-.325-.01-.338-.068 1.326-.14 1.024-.047-.074.023-.157.05-.006.068.113.014.56.023.724.018l-.008.004.06-.007.1-.014c.09-.013.2-.028.289-.036.107-.009.235-.017.366-.024 1.475-.087.335-.045 1.851.024.12.005.253.004.379.004.11 0 .217 0 .3.002.16.006.299.013.435.02.256.014.504.027.865.025.01 0-.01-.002-.041-.006-.754-.09.565.026.604.028.037.001.065.003.067.004.01.015-.293.023-.646.032-.332.009-.71.018-.911.036l.43.008c.144-.008.32-.011.514-.005.052.003.045.008.038.014l.388.007c.022-.005.022-.01.021-.01l.004-.003c.22-.007 1.133.004 1.24.021a.14.14 0 0 1 .05.014l1.02.016q.051-.004.105-.004.123 0 .25.01l.505.008.004-.003c.01-.008.02-.017.052-.02-.889.002-.718-.019-.527-.042.088-.01.18-.021.174-.03-.01-.014-.177-.017-.335-.021-.198-.005-.382-.009-.228-.03.495.02.831.01 1.17.001 1.068-.03 1.248.047.473.042a7 7 0 0 0-.454.006c-.143.01-.18.03-.215.05a.2.2 0 0 1-.058.024l.028-.001c.032-.002.77-.018.843-.017.433-.002.42.005.394.016-.014.006-.03.013.008.02.016.003.07.005.125.006a.7.7 0 0 1 .133.01.3.3 0 0 1-.073.013l.327.005q.09-.008.17-.01c.025.001.547.017.55.019l-.01.002 3.255.05q.015 0 .028.002l.048.004.13.014c.16.016.397.04.62.058q.242.02.62.038a18 18 0 0 0 2.017-.026c.31-.026.457-.055.51-.072q.022-.008.02-.015c.077-.01.133-.019.139-.02.283-.015.285.002.286.015q-.001.005.004.008c.019.007.097.039.131.056l3.624.044a610 610 0 0 0 6.109.041c-.068-.013-.102-.026.133-.042.334-.021 1.224.011 1.36.016l.086-.01c.077-.01.187-.024.387-.03.444-.012 2.5-.151 2.978-.125l1.204-.005.428.005q.065.008.159.014c.664.045 1.96.079 2.697.135-.197.015-.431.028-.643.042l.458.053q-.043.01-.082.023l1.413.039-.002-.003c.169-.006.244 0 .29.01l.695.02.222-.012.161-.064.374.037c.371-.016.736-.02.987.013l.645-.006c.144-.006.304-.009.46-.008.223-.026.904-.182 1.934-.204l-.095.162.914-.027.234-.102.106.08 1.752-.012v-.002a2 2 0 0 1 .168 0l.239-.001-.039.069.028.001c.168.003.325-.002.482-.011l-.183-.03 2.338-.072.299.045.103-.002c.005.001.005.01.013.02l.122.018h.045l.523-.129 1.316-.005.983.02q.811.044 1.623.086.096-.028.179-.042l.323.009.083-.029c.26.01.612.035 1.308-.01l-.09.15q.101.006.228.02l2.152-.159.957.222 2.379.035.255-.005-.767-.089.737-.2 1.428.159c2.34-.084 4.607.178 3.768-.134l-.944.036 1.219-.14 1.118.111 1.394-.048.393.111 1.136-.103.948.184 5.587-.038c2.786.138 1.495-.068 3.434-.126l2.686.123.987-.104.871.06 4.138.019-.798-.181.772-.036 2.019.221 1.603-.067 2.23.04.09.134.815-.215 3.178-.038-1.899.1 1.624.09 1.742-.061.523-.085 3.61.086 4.314.002c1.27-.104 3.482.084 3.639-.201l3.509.069.772-.048.4.111 1.493-.098 2.083.006-.653.078 5.898.107.304-.212 2.217.06.284-.13 3.643-.02 3.726.167c1.546-.113 4.929-.238 5.708.013l5.903-.093-.316.127.518.037.43-.189 2.054.135-.749.11-.84.003 1.167.128-.051.003c1.862.035 3.465.091 4.886.146l.339.014c1.636.073 2.35.188 2.57.28q.074.031.074.062c0 .094-.506.187-1.521.256l-.258.016c-1.422.084-2.955.127-4.398.152.267.014.523.03.727.048-.16.015-.351.028-.523.043l.39.051c-.035.012-.049.023-.097.035-.87.004-2.019.072-2.8.077-.714.004-1.115-.053-1.662-.055-.549-.002-2.3.079-1.964-.037-.092-.005-.226-.01-.314-.016-.091.123-.795.033-1.548.051-.354.01-1.407.115-.478-.058-.115-.002-.163-.009-.262-.013-.982.152-1.431.102-2.552.052-.629-.027-1.9-.061-1.327.054-.642.074-1.462-.04-1.923-.032-.458.008.165.07-.454.08-.102.002-.973.003-1.232-.006-.256-.01.046-.057-.372-.05-1.809.03-3.48.135-5.374.16-5.604.073-10.923.081-16.761.094-.964.003-5.957.022-6.526-.018-1.952-.141 2.187-.206-.613-.268-.762.39-2.419.275-4.768.28-1.732.003-4.529.059-6.015.013-1.585-.048-.311-.095-1.256-.178-.637.16-1.403.193-2.711.202-1.375.01-2.748-.04-4.181-.052-.483-.004-1.141.031-1.692.017-.688-.017-.514-.109-.936-.122-.423-.014-.058.093-.518.11-.209.007-1.664.01-1.976-.03-.073-.01.199-.044.142-.076-.032-.017-.02-.148-.375-.137-.315.117-.34.235-1.445.243-1.746.013-3.396-.041-5.253-.05-.416-.001-1.401.085-1.85-.016-.131-.029-.06-.142-.722-.136-.57.005-.659.056-1.155.095-.188.015-.242-.039-.598-.007-.359.031-.872.104-1.101-.035-.047.042-.055.08-.088.12-.631.007-1.71-.148-1.521-.02q-.974.002-1.948.003l-.338-.138c.387-.044.988.015 1.059-.071l-1.678-.02c.148.23-1.6.345-1.213.104.072-.046-1.072-.007-1.32.008-.246.016-.312.109-.819.05-.289-.034-.466-.09-1.157-.025.419.026.866.057 1.294.086-.631-.01-1.452.021-2.013-.028-.138-.012.408-.047.151-.066-.258-.02-1.311-.008-1.09.081-.486-.175-.418-.03-1.443-.025-.131 0-1.167-.167-1.639-.078-.167.032.145.151-.667.1-.597-.038.018-.139-.645-.196.309.135-.728.213-1.335.216-1.077.006-.916-.079-1.26-.116-.622-.067-1.158.045-1.506-.058.183-.003.349-.011.525-.016l-1.161-.04c.016.057.036.113.051.169-.652.018-.926-.05-1.469-.063-.076-.002.001.037-.077.038-.627.003-.828-.018-1.288.062-.029-.142-.839-.048-1.484-.11-.181-.017-.283-.09-.264.065-1.224-.035-2.145-.022-3.134-.14.365.154-1.04.156-1.855.114-.218-.011-.409-.12-.869-.101.124.046.265.1.398.147-.935.015-.729-.128-1.521-.112-.347.007-.127.167-.787.096-.378-.041-.595-.235-.735.002-.529.012-.201-.066-.57-.075-.232-.005-.491.083-.848.072-.678-.02-1.594-.189-1.634-.015-.48.013-.134-.06-.57-.05-.584.012-2.036.126-2.279-.011h-.002c-.477.08-2.035.051-1.654-.07.825.033 1.459-.097.63-.096-.837.002-1.056-.013-1.159-.063-.422.025-.639.067-1.228.074-.419.005-1-.02-1.508-.018.001.022-.024.042-.144.053-.31.03-1.327-.037-1.664-.036h-.019c-.066.023-.051.058-.398.073-.097.004-.331-.029-.617-.05-.247.009-.482.016-.714.017q-.133 0-.282-.004c-.453.028-1.217.071-1.549.072-.195 0-.582-.043-.658-.045-.26-.006-.139.057-.365.062-1.673.039-3.685.023-5.305.044-1.54.02-2.375.033-3.946.052-1.459.018-2.635.135-1.542-.201-1.197-.032-.73.058-.91.139-.107.047-.425.008-.49.017-.213.03.291.062.12.085-.688.091-3.776.03-4.445.035-3.083.02-5.449.07-8.292.09-1.811.014-3.53 0-5.331.012l-1.641-.292c.268.006.419.019.712.016s1.015.006 1.122-.042c-.334-.046-1.29-.048-1.576-.045-.55.005-.131.048-.495.062s-1.094-.044-1.522-.016c-1.004.067 1.092.085 1.454.072.036.107-1.066-.01-1.295.077.176.024.837.08 1.024.06.185-.02-.247-.08.238-.065.392.055.824.113 1.215.17-.431.018-1.172-.01-1.574-.004-4.472.058-8.854.069-13.37.09-.414.001-1.238.004-1.642-.01-.315-.013-.254-.087-.547-.065-.029.004.12.05-.275.063-.747.023-2.406.034-3.245.037-8.217.035-16.27.086-24.59.007-.437-.005-2.074-.004-2.375-.029-.898-.076-.737-.178-1.247-.019-.482.009-.144-.068-.368-.089-.09-.007-.653.103-.888.064-.536-.091.369-.099.693-.14-.802-.052-1.614.036-2.297.038-.194 0-.222-.085-.262-.088-.805-.029-.726.14-.689.21l1.209.026c-.527.016-.965 0-1.436-.02-.25-.01-.506-.025-.787-.043-.202-.014.07.077-.393.024-.146-.063-.283-.13-.42-.196-1.082-.051-1.476-.07-.128.157a20 20 0 0 1-1.621-.206c.204-.025-.063-.153-.594-.202-.123-.011.182.11.025.097-.161-.004-1.304-.288-1.396-.326-.856-.286-.952-.45-1.697-.65.215.083 1.171.465.52.286-.75-.148-3.534-1.525-4.25-2.08-1.272-.863-1.84-1.355-2.762-2.293-.17-.18-.108-.222-.433-.577-.436-.471-1.203-1.347-1.604-1.945.102.103.225.231.339.343a21 21 0 0 1-.261-.396c.021.007.031.002.061.02.563.694 1.364 1.44 1.952 1.974.536.49.876.845 1.322 1.194.436.368 1.897 1.221 1.682 1.212.084.058.207.137.289.193-.001-.143.679.37 1.362.68.318.153 1.218.433.49.299.11.053.161.082.259.13.8.177 1.262.424 2.42.824.645.23 1.964.534 1.26.267.558.053 1.517.325 1.98.364.46.042-.255-.098.366-.043.104.013.99.075 1.261.087.272.016.027.06.445.058q.158 0 .313-.005c1.635-.048 3.089-.153 4.834-.189l2.075-.04c-1.49-.063-2.587-.213-4.529.097l-2.38.03c-.469.005-.93-.005-1.398-.033l-.219-.068-.23-.017c-.506-.04-1.099-.109-1.738-.222a19 19 0 0 1-4.689-1.482C7.89 36.54 3.766 33.044 1.7 28.022l-.038-.091a18 18 0 0 1-.222-.574 14 14 0 0 1-.275-.835c-.034-.106-.234-.825-.297-1.334a3 3 0 0 1-.021-.207 19 19 0 0 1-.196-1.208l.074.005a19 19 0 0 1-.144-.977l-.041-.125a19.658 19.658 0 0 1-.136-3.095q.047-.428.112-.852c.086-.953.24-1.864.445-2.719l-.05-.156q.21-.67.468-1.321c.282-.863.607-1.64.931-2.312l-.058.045q.55-1.281 1.282-2.477.348-.454.72-.886.24-.37.495-.73c.8-.976 1.696-1.873 2.67-2.677q.402-.24.812-.458.438-.336.894-.649-.39.205-.771.429a19.4 19.4 0 0 1 2.67-1.65l.017-.154c-.274.144-.534.288-.77.419-.198.11-.171.038-.212.06-.8.442-.807.585-.812.634.395-.247.789-.473 1.198-.69-.822.468-1.37.781-2.12 1.3-.176.126.026.031-.367.305-.104.039-.199.069-.298.105-.955.808-1.273 1.13-.172.263q-.692.559-1.332 1.181c.175-.213-.024-.108-.45.374-.1.114.128-.07.003.074a41 41 0 0 0-1.04 1.168c-.604.715-.68.7-1.167 1.474.14-.224.79-1.05.353-.414-.544.674-2.142 3.574-2.419 4.512C.863 15.324.671 16.095.39 17.43c-.048.256-.082.144-.164.645-.1.596-.19 1.666-.206 2.437l-.007.282L0 20.596v-.083a17 17 0 0 1 .1-1.956c.08-2.254.925-4.724 1.243-5.473l-.002.03c.044-.104.107-.253.153-.35-.02-.03.04-.195.147-.435q.077-.162.201-.413l-.012.014c.119-.24.258-.51.399-.78.12-.198.244-.403.357-.583l-.017.04c.07-.121.105-.172.169-.275l.005-.01.03-.046.095-.144c.18-.27.398-.58.61-.867.225-.305.442-.601.78-1.031.143-.18.319-.398.544-.662-.295.431.303-.22 1.375-1.256.128-.174-.265.233-.28.221-.013-.017.41-.39.235-.275-.67.639-.335.367-.813.88.097-.137-.055-.034.018-.139.114-.165.41-.438.455-.51l.116-.116q.451-.435.925-.841c.295-.3 1.597-1.187 2.268-1.55l-.112.08q.143-.092.287-.181l.116-.066c.167-.097.268-.142.341-.173-.027.02-.04.034-.027.032.484-.285.998-.559 1.527-.81q.001.008-.035.035a20 20 0 0 1 5.99-1.818q1.244-.172 2.5-.188l1.192-.015c.034-.017.111-.048.13-.055q.007-.003.007-.008c0-.014 0-.031.284-.015l.138.02q0 .007.021.014c.053.018.202.047.51.072a18.192 18.192 0 0 0 2.637-.012c.222-.018.46-.042.619-.058l.133-.013.045-.005.028-.002L28.69.77q-.012-.002-.01-.003c.012-.002.523-.017.55-.018q.08.001.172.01l.325-.005a.3.3 0 0 1-.073-.014 1 1 0 0 1 .133-.009c.054-.002.109-.004.125-.006.037-.008.021-.015.008-.02-.026-.012-.038-.018.394-.016.078-.001.808.015.843.017l.028.001-.125-.053a.7.7 0 0 0-.148-.022 7 7 0 0 0-.454-.006c-.285.002-.55.004-.51-.047.398-.01.692-.002.983.006.339.01.674.019 1.17-.002.153.022-.03.026-.228.03-.158.004-.325.008-.336.02-.005.01.089.022.177.032.19.023.358.043-.53.042.032.002.043.011.052.02q.003 0 .005.003l.507-.008a3 3 0 0 1 .355-.006L33.119.7a.2.2 0 0 1 .052-.013c.105-.017 1.02-.028 1.238-.021l.005.002s-.004.005.021.01l.387-.006h-.002c-.006-.006-.011-.012.041-.014.193-.007.368-.004.512.004l.432-.007c-.201-.018-.58-.028-.912-.036-.351-.01-.652-.017-.643-.032a1 1 0 0 1 .067-.005c.133-.006.373-.018-.08-.065 1.145-.018.817.021.682.037-.03.004-.05.007-.04.007.36.001.608-.012.864-.025.136-.008.276-.015.434-.02a8 8 0 0 1 .301-.003c.126 0 .26.001.379-.004.096-.004.352-.026.6-.048.267-.024.528-.047.572-.046.073.035.38.053.68.07l.365.024c.088.008.196.024.286.037l.103.014q.043.005.062.006l-.01-.003c.165.005.611-.005.724-.018.113-.014.095-.033.048-.05L40.183.46c-.039-.015-.038-.026.1-.03.645-.02 1.165.054.974.094-.046.009-.184.01-.327.01-.169 0-.348.001-.405.015.135.003.305.009.471.015l2.39-.043c-.142-.034.014-.061.86-.053a.1.1 0 0 0 .006.037L46.136.47c-.239-.007-.51-.018-.342-.056.147-.035.809-.04 1.335-.043.241-.001.455-.003.577-.007.134-.004.231-.011.329-.018l.135-.01 1.09-.008a.7.7 0 0 1 .175.026c.05.014.094.027.415.02-.19-.021-.13-.04.04-.052l.919-.008c.078.003.151.007.21.013.093.008.133.02.17.03a1 1 0 0 0 .08.017l.349-.007c-.045-.016-.084-.039-.087-.06l.405-.002c.07.013.278.018.466.023.117.003.228.005.29.01a1 1 0 0 1 .063.008l.749-.014c.17.029.605.047 1.042.042L55.8.362c.028.011.12.024.471.038q.182-.027.392-.047l1.432-.014c.243-.002.472-.008.65-.014a69 69 0 0 0 .941-.036h.004l.626-.025c1.233 0 2.484.014 3.768.015.554 0 1.29-.024 1.929-.018.796.007.641.061 1.13.067.492.006.02-.055.538-.067.237-.006 1.902-.014 2.278.008.086.006-.209.027-.127.045.045.01.098.087.497.079.303-.07.274-.14 1.533-.15 1.991-.016 3.905.008 6.034.004.476 0 1.561-.056 2.125 0 .164.017.14.084.895.078.648-.006.724-.037 1.273-.062.208-.01.296.022.688.001.395-.02.946-.065 1.277.016.033-.025.025-.047.043-.071.719-.007 2.026.078 1.746.003l2.228-.01.456.08c-.42.027-1.138-.005-1.176.046l1.931.004c-.283-.134 1.654-.21 1.331-.067-.058.027 1.232-.001 1.508-.011.273-.01.302-.066.911-.033.347.018.578.05 1.338.009-.493-.013-1.019-.03-1.522-.045.727.004 1.65-.02 2.316.007.164.007-.442.03-.138.04.305.01 1.502-.002 1.206-.053.643.1.492.015 1.663.008.147-.001 1.415.092 1.911.037.175-.02-.239-.088.717-.062.702.02.048.082.836.113-.42-.078.727-.13 1.419-.134 1.228-.009 1.087.042 1.499.062.744.037 1.304-.032 1.753.028-.208.002-.394.008-.594.011l1.347.018-.14-.099c.737-.014 1.083.025 1.712.03.086.001-.02-.022.068-.023.716-.005.954.007 1.441-.042.104.083.986.024 1.755.057.215.01.366.052.269-.04 1.417.015 2.464.004 3.653.068-.493-.089 1.111-.097 2.065-.076.255.006.528.068 1.047.055l-.527-.085c1.061-.013.896.072 1.794.06.394-.006.063-.1.851-.06.453.021.798.135.841-.006.599-.01.263.038.691.041.267.002.52-.05.933-.046.787.01 1.92.104 1.879.001.541-.01.181.035.673.027.662-.01 2.267-.084 2.613-.004h.002c.505-.05 2.305-.04 1.929.032-.961-.015-1.622.065-.673.06 1.555-.008 1.268.018 1.633.112.053.013.494.02.404.038s-1.036.036-.506.074c.103.007.59-.023.691.016.097-.009.145-.018.223-.027.867.083.951.113-.647.125l.127-.056c-.227.023-.421.046-.671.07-1.749 0-4.102.074-5.679.052-1.38-.02.515-.035.548-.038.348-.037-.286-.052-.299-.076-.01-.024.767-.061.069-.048-.093.001-1.015.075-1.047.085-.153.051.043.072-.157.088 4.423.029 8.014.058 11.49.082l2.744.017c3.285.02 5.79.052 7.851.081l1.955-.04.645.033 3.406.002.149.048c1.9-.15 2.452.18 4.094-.081L158.86.74l.462.11.191-.03 1.82.037 1.357-.082c.326.11 3.895-.05 3.202.046l1.535-.008-.366.044.239.03q.567-.026 1.133-.054c.549.165 1.183.036 1.448.024.43-.018 1.226-.022 1.277-.026.077-.006-.649-.049-.039-.075l.975.08.111-.045.667.027-.013.05.392.019.223-.045 1.693-.021L176.42.9l.658-.01.142-.09 1.772.111.977-.021-.228-.046-.353.028-.071-.039 1.52-.057.62.042.479-.036 2.058-.008.504.077.604-.011-.48-.048 1.712-.014.062-.098.76.018.043.054 3.116.097.124-.104c1.41.054 2.869.008 4.134.02.533.006 1.227.099 1.124.006l3.093.03.89-.052 1.34.08c.668-.07 4.107-.115 4.01-.013.768-.024.707-.002 1.637-.038l.662.06 1.172.012 1.557-.054 1.045.096.052-.076.918-.024c.831-.125-.167.235 2.441.087l-1.183-.007-.456-.092 1.65-.038 1.163.03.972-.027 2.581.06 2.436-.024.437.06 1.071-.072.428.012.124.051 1.942-.03 1.357.047-.054-.046 6.247.006h.016c.219.049 1.31-.059 1.178.092l.196-.045q.336.014.673.027l-.043.052.509.002.046-.065-.572-.043 1.432.022-.198.045c.613.04 2.452-.135 1.06.21l-.993-.044.55.093-.146.076-.903-.05-.463.05.323.032-.544.043-1.809.014-.312-.032-3.124-.016.376-.058-.826-.002-.266.053-.822.015.162-.103.795-.074-.656-.033-.12.076-.944-.005.454.055-.231.063q-.666.014-1.333.027l-.142-.046-.98.055-.482-.032-.215.03-1.123-.006-.688-.05-.703.045-4.206-.049c-.952.09-3.156-.046-3.026.042l-3.585-.01-.712-.042q-1.793.014-3.587.027l-4.468-.081.451.093-1.406-.006-.845-.066-.798.057c-.359-.157-1.299.026-2.508-.026-.637.135-1.592-.093-2.357.047l.112-.044-2.324.048-.05-.06-.671-.011.368-.051-.587-.016-2.103.062-.544-.047-.289.045-1.243-.037.091.046.559.002-.03.045-1.867-.008.151.03-1.585-.007.034.003c.205.026.051.121 1.14.119.935-.002 1.098-.045 1.925-.076.313-.012.382.034.976.008.599-.025 1.467-.084 1.796.034.091-.035.116-.067.185-.1 1.036-.004 2.751.13 2.485.021l3.196.006.512.118c-.648.035-1.618-.017-1.763.055l2.746.024c-.165-.194 2.736-.285 2.019-.083-.13.038 1.76.01 2.17-.002s.546-.09 1.359-.039c.462.03.734.077 1.89.026-.678-.024-1.399-.052-2.09-.078 1.032.012 2.385-.012 3.288.032.224.01-.683.037-.267.055.417.017 2.143.012 1.813-.065.737.15.676.027 2.359.028.214 0 1.856.145 2.66.071.284-.026-.186-.128 1.129-.081.968.034-.075.117.994.168-.461-.115 1.266-.177 2.262-.178 1.766 0 1.473.07 2.024.103.996.06 1.916-.033 2.451.055-.3.002-.574.008-.864.012l1.89.037c-.008-.047-.022-.095-.028-.142 1.077-.013 1.502.046 2.387.06.125.001.012-.032.14-.033 1.029 0 1.35.019 2.131-.047.001.12 1.365.043 2.402.099.29.015.43.076.452-.054 1.996.034 3.507.027 5.09.13-.548-.131 1.758-.128 3.082-.09.354.011.628.104 1.391.09-.187-.04-.399-.085-.6-.126 1.168-.007 1.225.06 1.759.09.169.008.384.015.695.023.567.024.276-.144 1.324.016.605.101.861.312 1.201.166.861.149.29.106.881.238.368.087.827.122 1.383.3 1.066.326 2.328 1.043 2.499.968.717.332.158.125.798.443.876.396 2.928 1.715 3.108 2.056.705.417 2.461 2.28 1.92 1.87-.897-.995-1.797-1.605-.8-.697 1.559 1.57 1.172 1.311 1.306 1.651.02.05.391.535.273.427-.107-.116-1.009-1.125-.611-.578.079.102.574.644.57.739.103.11.162.167.246.259.505.94.568.964-.828-.76q.117.077.235.16a20 20 0 0 0-.757-.725c-1.587-1.826-4.464-3.658-6.43-4.462-1.714-.719.717.228.764.284.512.188-.242-.2-.208-.218.039-.026 1.093.429.192.012-.116-.067-1.449-.506-1.519-.502-.487-.035.339.195-1.631-.344-.701-.206-2.787-.531-3.587-.538q-.556-.028-1.024-.046c-.441-.016-.821-.034-1.135-.03-.546.006-.033.044-.678.05-1.274.01-3.113-.028-4.288-.028-1.333.001-1.718.058-3.006.059-.893 0-2.094-.044-3.101-.027-.238-.03.218-.148-.452-.14-.816.009.32.08-.088.115-.827.018-.239-.034-.267-.036-.404-.023-1.095-.008-1.595-.02.331.025.653.046 1.006.07-1.367-.039-.671.045-1.763.061-.287.004-.935-.084-1.927-.06-.236.005-2.564.062-3.316.058-.322-.001-.845-.042-.959-.044-.41-.007-.368.047-.749.049-2.823.016-6.064-.018-8.758-.016l-6.566.005c-2.421 0-4.632.087-2.008-.183-1.87-.039-1.335.042-1.828.107-.293.038-.711.003-.841.01-.428.023.317.054-.017.072-1.349.07-6.233-.012-7.336-.015-5.078-.012-9.056.005-13.743-.006-2.986-.006-5.753-.034-8.718-.042l-1.944-.26c.421.009.637.02 1.12.02.484.002 1.643.016 1.94-.024-.433-.04-1.987-.052-2.46-.053-.913 0-.334.04-.964.048s-1.67-.048-2.438-.029c-1.805.046 1.564.082 2.187.074-.21.09-1.714-.018-2.304.052.227.022 1.161.076 1.517.06.353-.014-.198-.069.556-.052.5.05 1.057.103 1.553.154-.751.011-1.887-.02-2.555-.019-7.435.005-14.606-.029-22.018-.056-.681-.003-2.029-.008-2.65-.025-.482-.013-.197-.074-.729-.058-.062.002.074.043-.606.049-1.277.012-4.01.005-5.385 0-11.628-.045-23.088-.078-34.597-.181l.359.034-.983.078-3.26.026-.563-.059-5.636-.027.677-.106-1.488-.002-.482.095-1.48.026.29-.186.93-.085-.022-.002c-.123-.007-1.326.08-1.61.044l-.106-.017-.858-.005.815.1-.412.113-2.41.05-.25-.083-1.768.098-.873-.057-.385.052-2.024-.01-1.243-.09-1.269.081-7.589-.087c-1.717.162-5.688-.084-5.453.075l-6.471-.017-1.286-.076-6.462.048-8.062-.146.81.167-2.533-.01-1.527-.12-1.44.103c-.648-.281-2.34.048-4.52-.046-1.14.24-2.835-.16-4.207.077l.08.01c-.042.015-.065.03-.11.045-.222-.013-.473-.022-.706-.033.184-.062.405-.059.714-.024l.18-.07-1.371-.007-2.824.095-.09-.11-.791-.013c.016.013.005.026-.048.035-1.254.022-1.416-.1-.415-.102.109 0 .222.01.31.024l.398-.055-1.06-.03-1.704.051q-.869.027-1.723.132c.05.019.09.04.06.066-.448.057-1.8.234-2.886.52q0 .002-.003.005a17.985 17.985 0 0 0-1.533.455c-.192.068-.337.118-.448.155q-.509.189-1.007.408-.043.022-.09.044l.247-.053c-.852.366-1.678.798-2.466 1.29-.317.238-.364.327.16-.004 1.376-.819 1.13-.588 1.424-.567.043.003.444-.177.355-.1-.093.07-.944.547-.482.38.087-.033.538-.312.616-.271.091-.06.136-.098.21-.15.763-.165.802-.174-.625.54q.063-.087.13-.173c-.21.148-.385.282-.608.45-1.54.806-3.36 2.424-4.41 3.532-.926.965.321-.445.36-.467.232-.32-.217.091-.235.054-.02-.042.524-.67.031-.151-.07.064-.667.896-.676.942-.109.351.272-.132-.6 1.048-.319.417-1.127 1.697-1.377 2.212-.293.558-.57.993-.712 1.342-.14.35.037.041-.124.454-.321.815-.73 2.017-.891 2.81-.183.9-.153 1.171-.246 2.05-.048.498-.118 1.14-.117 1.74q0 .202.01.39c-.032.166-.183-.145-.157.319.037.562.086-.224.14.054.051.563-.031.174-.034.186-.013.283.044.754.072 1.1.002-.23.006-.453.016-.697.04.938.09.456.207 1.193.034.19-.007.651.17 1.312.028.165.518 1.684.71 2.159.073.208.161.559.189.632.1.262.147.21.254.448.789 1.76 2.017 3.64 3.3 4.97 1.225 1.25 1.973 1.862 3.473 2.827 1.407.871 2.863 1.36 1.09.874 1.138.619.852.352 1.191.424.204.038.453.185.54.21.282.08-.178-.14.042-.076M135.252.443c-.615.071-.022.096-1.344.033 1.27-.076-.555-.117-.564-.182-.003-.036.62-.015.807-.034.286-.03-.137-.077.204-.097.34-.019 1.537.016 1.922.014.738-.004 1.367-.029 1.983-.032.616-.004 1.586.026 1.985.029.397.002.78-.006.845-.01.376-.024.111-.076.65-.078.068.05.867.13.099.163.115.001.263.01.372.009.512-.008.18-.078.415-.09.395-.022.153.033.159.036.432.041.197-.007.359-.03.087-.01.85-.037 1.017-.036.164 0-.025.029.086.03.478.004.97.01 1.439.003.468-.008.701-.057.742.013.005.01-.255.022-.153.047.034.009.446.047-.071.072q-.22.01-.473.013l.161-.029h-.387c.056-.025.116-.051.151-.075-.185-.025-.344.01-.375.01-.449-.01-.441-.06-.705 0q.46.013.905.027l.007.037h-.176l.118.03a36 36 0 0 1-1.269-.034c.123-.014.261-.03.381-.046-.507.013-.232-.018-.602-.034-.057.06-.267.047-.572.043-.305-.003.116.04-.188.046-.618.013-1.727-.054-1.834.032-.832-.05.141-.061.183-.082.174-.09-1.45-.048-1.669.002-.247-.028-.274-.069-.884-.056-.827.017 1.012.06-.118.072-.756.008-.676-.035-1.058-.044-.711-.017-1.94.009-1.465.068.192.023.705-.01.925.015.122.014-.058.138.531.04.057-.009-.317-.053.209-.056.151 0 .68.038 1.101.025.185-.006.941-.064 1.428-.045.526.02-.25.034-.045.053.207.02.846.016.849.056-.314.048-.402-.024-.514-.02-.428.014-.027.083-.664.077-.12-.038.382-.14-.527-.112-.001.002.23.025-.063.034-.511.016-1.502.028-2.141.028.081.056.861.05 1.283.088-.854.012-1.802.032-2.464-.02l.959-.026-1.137.012c.125-.024.941-.087.326-.098-.007.061-.846.075-1.139.109m-4.626-.307C131.051.09 131.704.1 132.389.1c-.116.05-1.245.028-1.763.037m17.976.124c.514.08-1.277.077-2 .068l.503-.001c-.087-.017-.167-.034-.254-.05l.547-.009c-.229-.017-.435-.036-.654-.053.412-.077.483-.03 1.178-.02.445.005.595-.022 1.138-.025 2.54-.019 5.13-.063 7.754-.06.052.063.005.079-.471.089.005-.019.002-.038.005-.057q-.468.012-.923.027l.895.03-.553.009c-.167.002-.188.028-.419.026-.494-.004-1.192-.079-1.712-.056-.301.012.175.081-.583.064.399-.053.67-.099-.453-.073.696.042.159.026-.063.05-.14.016.826.007.224.039-.129.006-2.051.043-2.007 0 .101-.094.207-.084-1.008-.026 1.617.03.215.098-.512.074-.37-.012.21-.058-.632-.046m9.473-.103c-.492-.002-.585.041-.97.014-.033-.003.257-.047.49-.05.235-.003 1.758.01 1.811.017.506.074-1.159.02-1.331.02m1.533.001 1.789-.011h-.002l-.052.029zm-31.191.086c.129-.063-.456-.07-.679-.068-.8.007-1.302-.045-1.607.018.493.036.807-.008 1.043-.004.518.01.561.061 1.243.054M125.34.235c-.217-.012-.137-.045-.43-.053a34 34 0 0 0-1.447-.005c-.305.013-.228.061-.469.08.792-.006 1.553-.014 2.346-.022m-4.531.03c.452.003.951-.064-.067-.05-.044.001-.39.044-.709.019-.207-.018-.067-.035-.34-.055s-.858.072 1.116.086M110.652.239c.213-.001.449-.033.342-.038-.836-.037-1.329.042-.342.038m45.668-.04h.023V.2zm-43.601.047-1.183.039.755.03zm.707.128c.037-.04-.028-.076-.524-.1-.078.04.205.07.524.1M107.072.29c-.578-.035-.862.123-.065.05.076-.006.107-.047.065-.05m38.416-.004h.017l-.017.008zM52.995 40.614c-.394-.062-.812.095-.731.105.397.049 1.011-.06.731-.105M119.007.456c1.362.057 1.523-.065 1.615-.078.476-.064.684.042.802.041.56-.004-.182-.117-.26-.119-1.238-.028-.872.061-.981.089-.241.06-1.097.015-1.176.067m26.423-.14h.299l-.037.006.577.015-.682.02zM92.556.372c.878.078 3.66-.02 1.772-.044-.326-.004-.147.021-.348.023h-.002c-.203 0-2.074-.038-1.422.02m36.386 0c-.262-.04-.667-.025-1.155-.017l.175.043zM59.266 40.585c-.418.015-1.169-.017-1.133.067l1.036.027zm4.389-.149c-.389.028.04.077-.108.115-.15.039-1.415.022-.55.118.27.029 1.761-.054 2.247.01.234-.188-.612-.054-1.223-.132-.183-.023.322-.113-.366-.11M89.765.361 88.59.387l1.159.002q.007-.015.015-.028m-50.22.016.215-.011.636-.001.254.034zM81.683.45c.675.025 1.554-.037 1.045-.071-.612-.041-2.14.032-1.045.071M85.58.381c-1.467-.014-2.473.085-.585.052.104-.002.237-.051.585-.052M35.837.397c.552.049-1.72.121-2.378.099L34.027.4c.082-.002.176-.006.27-.01.24 0 .65-.003 1.16-.006l.385.014zm44.807 40.207c-1.376-.175-1.694-.008-.796.031.11.005.821.004.796-.03M115.09.495c.045.018-.399.121.389.04.272-.028.206-.056 1-.062-.735.01-.653-.066-.735-.072-.67-.044-1.335.05-1.192.089.044.01.491-.013.538.005m32.636-.1h1.189l-.11.04c-.361-.013-.73-.025-1.079-.04M75.055 40.32c-.076.054 1.047.264 1.206.278 1.026.088 1.57-.038 2.538.022-.284-.14-.984-.048-1.566-.116-.177-.02.46-.14-.44-.174h-.003c-.29-.011-1.33.027-1.735-.01M32.547.49c.299.019-.28.11-.897.038-.021-.004-.009-.01.003-.015.01-.005.02-.01.002-.012-.059-.006-.311-.013-.607-.021-.604-.017-1.391-.04-1.105-.065l1.17-.006c.091.008.17.018.245.028a5 5 0 0 0 .346.036 14 14 0 0 0 .867.017zm55.759 39.656c-.15-.025-.914-.028-.974-.006-.055.021.056.04.155.056l.277.008h-.232c.1.02.15.036-.09.053l-2.108-.01.25.12.408-.043.428.035c-.396.226-1.657-.015-2.733.093-.001-.047-.012-.096-.007-.141-1.885-.049-.6.006-.462.121.078.066-.557.008-.667.02-.75.077 1.196.168 1.802.163.606-.004 1.451-.09 2.127-.096.401-.003.46.046.865.043.604-.004 1.678-.002 2.202-.035.19-.013.004-.102-.05-.112-.134-.023-.392.023-.546.016-.153-.007-.054-.045-.254-.048a46 46 0 0 0-1.322.026c-.401.044.24.09-.316.084-.714-.305 1.132-.123 1.389-.141.58-.043.475-.067.252-.085-.38-.01-.752-.022-.773-.028-.19-.063.05-.07.364-.061.042-.012.075-.023.021-.033zm22.083.298c1.151-.006.493.128.299.13-.812.008-1.449-.144-1.804.035-.495.009.004-.064-.299-.071-.601-.016-1.242.077-1.869.065-.049-.039-.195-.08-.157-.12.641-.044 3.541-.037 3.83-.039M124.65.417l-1.577.053c.764-.01 1.041-.016 1.529.032q.025-.042.048-.085m-31.556.05c.074.005 1.472-.008 1.466-.039-.254-.009-1.953-.006-1.466.039M103.123 40.5c1.029-.024 1.188.098.363.1-.235.001-.51-.067-.363-.1m-81.18-.02c-.132-.001-1.868.003-1.702.08l2.89.028c-.057-.024-.325-.05-.46-.06-.335-.024-.248-.042-.729-.047m83.552-.024c.276.015.131.073.677.045l.009.017c-.043.04-.485.07-.714.068-.009-.001.045-.037-.018-.038-.462-.007-1.18.028-1.152-.073.435.06.92-.034 1.198-.019M120.917.547c.591.002.926-.057.808-.095l-1.172.026zM11.685 38.83q.25.122.503.238-.16-.051-.318-.107c.14.07.286.138.429.203q.257.04.518.073-.572-.187-1.132-.407M79.99 40.13c-.479-.052-.303.117-.039.134.265.017.775-.023 1 .045-.355.033-.763-.01-1.21.012-.53.024.05.107.191.084.281-.045-.036-.11.656-.055.588.048-.034.195.462.203.63.01.38-.08.15-.136l1.162-.042c-1.16.002-1.3-.107-1.531-.245-.493-.015-.03.08-.542.067-.18-.004-.26-.062-.299-.067m-19.281.341c-.94.003-.93.11-.131.058.17-.011.158-.034.13-.058M122.863.498l-.966-.003q-.007.015-.015.028l.964.002q.008-.013.017-.027m6.393.002c-.429.008-1.166-.021-1.176.025l1.152.017zM94.352.5a5 5 0 0 0-.243 0h.245zm36.646.003-.981.026.957.016zM21.644.596c-.123.011-.623 0-1.086-.012-.305-.008-.594-.015-.753-.015.605-.156 1.94.02 1.84.027M15.76 39.852c-2.259-.565-1.338.021.53.366.138-.04-.332-.084-.358-.126-.023-.038.498.095.271-.01-.817-.173-.393-.015-.993-.132.118-.01-.081-.128.004-.14.16-.021.65.137.546.042m78.148.44.017.002c.337.03.4.196.463.202.726.043 1.094-.109.649-.168-.261-.034-.693.068-.703-.038.54.022.737.008.8-.012zm17.52.206c.137-.083 1.107-.039 1.565-.051-.404.076-.967.055-1.565.05M116.835.524c-.75.002-.581.035-.703.054q.26 0 .518.003zm13.629 39.892c-.186 0-.416.051-.325.06.701.07 1.189-.061.325-.06m-39.13-.067c-.563.042-1.706-.012-1.613.109 1 .072.607.03 1.043-.033.296-.042.795.033.57-.076m-71.872.125.227.005.645.01-.314-.071zM23.082.677C22.954.741 20.78.682 21.1.654c.876.012.83-.01.772-.035-.027-.012-.058-.026.006-.037.362-.061 1.312.042 1.205.095m98.955-.083-.658-.03-.256.04.602.004zM96.23 40.304c.804.13.94.215.992.107-.165-.011-.252-.026-.168-.038l.183.001q.008-.028.017-.064zm25.406-.005c-.391-.008-.873.102.024.084.041-.001.371-.071.63-.026.168.032.034.06.258.096.223.036.798-.117-.912-.154m-1.907-.003-2.06.02c.179.023.086.078.335.094.251.015.983.038 1.258.018.274-.02.243-.101.467-.132M14.502 1.62c-.33.094-1.05.344-.91.264a3 3 0 0 1 .428-.143c.203-.058.38-.104.282-.102-.698.148-1.287.356-2.062.688l-.07.03c-.007.004.02-.004.062-.015.104-.028.293-.076.187-.017l-.134.048c-.346.128-.24.068-.754.296-.032.014-.151.068-.313.147a4 4 0 0 0-.19.079c-.109.049-.248.117-.391.19-.232.116-.479.25-.646.327.088-.082.572-.331.977-.514.25-.115.467-.206.535-.242a1 1 0 0 0 .079-.063c.054-.047.128-.11.205-.153a5 5 0 0 0-.25.114c-.213.101-.465.23-.44.192l.005-.006.003-.005.002-.001c.038-.057.096-.157.58-.375a1 1 0 0 1 .114-.039c.043-.012.094-.026.175-.06.116-.047.246-.103.377-.158.172-.072.348-.143.5-.194a2 2 0 0 1 .152-.04c.07-.017.15-.035.234-.063.064-.021.16-.06.276-.107.207-.081.48-.185.761-.255.191-.049.54-.07.179.04-.219.068-.268.074-.312.078a.5.5 0 0 0-.093.017 7 7 0 0 0-.339.107c-.275.091-.538.189-.548.145-.27.095-.227.132-.15.114.204-.082 2.576-.694 2.805-.72.007-.002-.006-.002-.025 0-.074.003-.251.01.206-.123a7.5 7.5 0 0 1 1.006-.192l.11-.015c.012-.003-.016-.006-.057-.01-.166-.012-.527-.078.86-.15.163-.02.133-.03.106-.038-.019-.006-.035-.012.021-.019.156-.024.82-.071.896-.067l.111.035-.183.01c-.336.017-1.013.084-.979.109a9.5 9.5 0 0 1 1.8-.048l.077.006c.18.016.447.04.578-.004.028-.01-.09-.014-.22-.019-.172-.006-.366-.013-.268-.034.424.001.653-.014.927-.031l.052-.004c.104.012.005.022-.082.03-.06.007-.116.012-.095.017.015.004.618.045.652.047.113.003.385.003.656.003h.499c.142.001.32.007.466.011.112.003.205.006.248.006q.13-.003.268-.012a5 5 0 0 1 .36-.014q.095 0 .219.012l-.164.015-.234.024a20 20 0 0 1-.415.04l-.099-.014c-.119-.036-.664-.042-1.477-.033-.193.002-.212.011-.226.019-.01.005-.019.01-.071.011-.292.009-.666.012-1.047.015l-.605.006c-.233.003-.454.012-.646.024.012.016.218.006.38 0 .081-.002.153-.004.184-.003.04.002.08.014.082.026v.003c-.003.014-.057.03-.216.036-.572.026-.754.014-.934-.002a3 3 0 0 0-.303-.011c-.835.011-1.971.23-1.375.214-.701.077-.718.099-.744.114a.3.3 0 0 1-.095.034c-.568.149-.7.18-.924.225-.11.023-.241.05-.454.105zm100.496 38.66c-.159.107.346.122.542.12.701-.005 1.098.087 1.41-.019-.402-.064-.706.008-.909 0-.445-.02-.444-.107-1.043-.1m-15.991.114c-.085.01-.406-.009-.94-.01l.34.006c-.074.02-.219.032-.387.037.522.001.856-.004.972-.024zc.019-.002.034-.006.028-.012h-.005zm-88.97-2.559q.128.12.258.236.177.028.35.052a20 20 0 0 1-.608-.288M24.617.658c-.214-.008-.435-.021-.41-.035a9 9 0 0 0 .76-.017l-.009.002-.01.001zm2.154.03q-.134 0-.235-.005l.093-.014c.128-.02.203-.038.264-.055.195 0 .389.002.486.004.06.031-.09.069-.608.07M226.05 40.331l.104.08c-.005-.022.035-.052.068-.08zm-70.198-.068c-.569-.045-1.38.052-.963.114.503.073 1.887-.039.963-.114m-97.58.128c-.483-.089-1.837-.109-.847-.016.251.023.579.012.847.016m70.396-.002 1.063-.058-.639-.056zm17.656-.07c-.708-.138-3.202.006-1.575.061.279.01.144-.034.319-.035h.002c.178 0 1.778.078 1.254-.026m-12.703.034c.477.064.839-.2.092-.084-.071.011-.127.08-.092.084m18.778 0c1.271.035 2.225-.126.552-.083-.093.003-.245.085-.552.083m-3.652.004 1.041-.035-1.009-.013zM23.637.68c.228-.005.53-.006.818-.002l-.101.013-.131.016zm77.522 39.663a.2.2 0 0 0 .045.005h.016zm-.496-.06c-.207.02.069.031.496.06-.045-.012.072-.045-.008-.047q-.243-.008-.488-.013m2.391-.072c-.123 0-.245.002-.353.005-.038.037-.017.08-.137.092l-.11.007c.164.015.403.025.645.025-.093-.048-.168-.095-.045-.13m25.094-.046c-.062.069-.03.13.385.173.097-.067-.13-.118-.385-.173m-25.842.079c-.108.024-.059.046.073.063-.029-.018.077-.06.073-.063l-.065-.012a1 1 0 0 0-.081.012m3.333-.025c-.128.004-.234.013-.263.03-.052.034.182.047.411.05.392-.014.013-.05-.148-.08m-1.686-.014c-.1.002-.242.004-.398.004-.029.045.115.068.325.074.072-.02.104-.046.073-.078m154.845-28.67c-.198-.394-.655-1.054-.715-1.231.256.384-.054-.293-.334-.653-.262-.342-.241-.274-.064.028-.826-1.227-1.999-2.473-2.827-3.292.172.147.215.161.258.173h.001c-.339-.324-.504-.521-.939-.87.043.076.168.202.294.333-.879-.809-2.287-1.698-2.968-2.164.796.465 1.349.874 1.218.659-.324-.214-.646-.41-.974-.6-.478-.355.542.204-.044-.157-.58-.305-.684-.422-1.271-.687-.061.049.069.174.529.518a19.3 19.3 0 0 0-5.952-2c.673.059 1.436.267 1.778.353.304.075.264.026.53.092-.042-.014.776.283.65.194a18 18 0 0 0-.841-.317c-.887-.249-.472-.066-1.2-.232-.357-.152-2.311-.438-1.792-.268.413.043 1.06.112 1.029.178-.699-.1-1.06-.187-1.856-.221-.347-.062.443-.053-.279-.107-.3-.011-.089.037-.319.035a4.5 4.5 0 0 0-.883-.11c-.672-.03-1.549-.028-2.361-.036.652-.042 1.397-.15 2.245-.109-.14-.029-.004-.04.116-.054a1 1 0 0 0 .127-.018c.676.007 2.39.11 1.974.122-.146-.002-.755-.067-.62-.023.807.098 2.205.162.639-.045.384.036.758.08 1.141.137.506.176-.385.032-.216.13.321.068 1.062.181 1.29.201-1.148-.236-.102-.038-.712-.227 1.163.25 1.731.32 2.746.697a6.7 6.7 0 0 0-1.618-.307c.538.146 1.543.401 1.519.323.532.176 1.053.422 1.024.334-.28-.12-.55-.228-.77-.324 1.961.622 4.093 1.649 6.607 3.752.345.326.6.606.965.983.529.454 1.222 1.35 1.458 1.68.244.327.618.825.724.995.662 1.058.861 1.693 1.185 2.522l.008.018c-.28-.406-.259-.107-.5-.405M107.239 40.272c.467.008 1.537-.146.296-.07l-.116-.064-.021-.002zm.692-.017.022-.002-.052-.001zm4.548-.113c-.297-.01-.642-.032-.903.001l.402.11q.258-.044.566-.058a1 1 0 0 0-.065-.053M53.127.82c-.462-.052-1.987-.063-.95-.01.263.014.648.008.95.01m67.911 39.289a1 1 0 0 0 .316.129c.903.048.85-.057.886-.117l-.43.002-.01.003a.8.8 0 0 1-.353-.006 17 17 0 0 1-.409-.011m-27.298.109c-.184.003-.372.004-.548.004.025.023.21.031.684.015zm-9.621-.012.275.037.346-.117-.337-.001zm13.853.021c-.211-.007-.355.003-.518.014.224 0 .454-.003.66-.008zM2.15 11.504q-.174.362-.333.728l.17-.246q.08-.244.163-.482m143.777 28.65c-.056-.01-1.29.003-1.308.055.214.017 1.699.025 1.308-.054m12.421-.159c.085.048.079.187.374.206.47.03.927-.032.66-.1-.079-.02-.983-.057-1.034-.106m-72.119.194c.031-.013.288-.012.332-.02l-.293-.007zM69.566.849h-.651c.09.001.188.002.31.001zm-1.924.096c.073-.015-.187-.04.281-.033l.284.023c.297-.006.607-.014.912-.018l-.62-.068c-1.059 0-1.812.002-2.358.005.238.017 1.58.021 1.89.015-.067.064-1.207-.004-1.557.047.1.008.37.022.626.03h.542m5.595-.037q.881-.013 1.785-.021a8 8 0 0 1-.353-.014c-.04-.002-.025-.008.007-.016h-.346L72.783.853c.153.02.32.04.453.054M190.308.856l-.467.03.418.01zM55.828.865c-1.077.002-1.174.065-.209.034.206-.007.216-.02.21-.034m23.649.004V.868l-.678-.002-.004.003zm88.291 39.219c-.385-.038-.978.004-.686.052.294.047 1.162-.004.686-.052m-75.039-.2c-.15.026-.563.127-.537.169.043.066.551.119.922.085.016-.02.055-.037.19-.04.04-.041-.047-.105.544-.058.03.002.105.015.198.03.331-.01.916-.022 1.251-.011.064-.025.1-.05.032-.082-.113-.053-.858-.024-1.174-.035-.135-.005-.21-.05-.236-.052-.315-.015-.421.03-.712.035-.135.002-.328-.065-.478-.04M3.561 9.322q-.388.582-.732 1.188.158-.251.323-.498a19 19 0 0 0-.198.344q.136-.211.278-.416.158-.31.33-.618m147.147 30.77-.408-.028.034.072.809-.074-.308-.04zm-24.569-.06h-.071c.059.032.044.067.078.072.48.07 1.031-.038 1.103-.111q-.243.01-.656.016l.03-.095c-.164.04-.3.078-.484.117m20.37-.29q-1.21.006-2.4.015c.066.106-.615.142-.542.234.043.053.82.03 1.12.043.128.006.144.05.168.053.293.017.461-.028.757-.03.137-.001.238.068.419.044.182-.024.728-.122.757-.164.051-.075-.51-.136-.959-.076-.219.029-.057.14-.705.077-.088-.008-.448-.121-.768-.115.393-.068 1.681-.065 2.223-.045.01-.016-.017-.028-.07-.036m-66.545.136c-.506-.026-.879.038-.525.103.108.02 1.056.051 1.17.099-.147-.047-.325-.185-.645-.202m41.251.155c-.132 0-.186.016-.196.037l.282-.009a.2.2 0 0 0-.086-.028m-49.49-.035c-.354-.046-1.153.012-.614.056.433.035.968-.011.615-.056m31.29.037c-.546-.04-.612-.08-1.221-.055.316.037.951.115 1.221.055M12.37 2.423c.139-.061.273-.119.37-.163-.201.07-.409.15-.616.238l.224-.087zm99.727 37.507c-.003.055-.081.155.391.042.05-.013.078-.025.108-.036-.111-.002-.378.02-.499-.006m13.954.03c-.107.009-.254.016-.49.018.215-.004.344.007.423.025l.097.003q-.014-.023-.03-.047m-38.358.003.357.037.037-.07.443.025-.13-.072zM18.2 1.171q-.455.032-.909.087c-.503.033-2.376.417-2.687.51-.942.222-.682.084-1.373.417-.537.199-.104-.006-.334.065-.047.015-.25.108-.465.208l.024.014a19.2 19.2 0 0 1 5.586-1.147zm103.142 38.667c-.27.03-.417.092-.364.138l.48-.017a.6.6 0 0 1-.172-.036c-.045-.04.533-.098.056-.085m41.214-38.674c.322.002.692-.001 1.08-.005l-.142-.031-.516.012.013-.058-.712-.02-.667.087.256.01zM118.441 39.96l.486.003-.02-.032a3 3 0 0 1-.157-.017l-.275-.001zm39.422-.225c.291.046.301.122.331.209.471.018.135-.079.628-.063.174.005.177.064.211.069.407.054.453-.114.213-.133-.242-.018-.8.017-.936-.052.398-.03.747.014 1.22-.003.142-.005.217-.015.249-.026h-.572c-.055.016-.121.022-.374 0zm-5.201-38.584q.358-.017.765-.026l-.2-.046-.421-.007c.01.014.003.03-.03.045a.6.6 0 0 1-.114.034M137.13 39.946c-.266-.039-.792-.121-1.142-.063.49.044.503.084 1.142.063m-19.52-.1c.024.007.042.014.041.02-.006.041-.713.099-.094.082.031 0 .157-.017.312-.037q.044-.04-.037-.074zM131.682 1.26q.306-.054.682-.09l-.745-.063.069-.022h-.036q-.253.027-.465.038c.619.052-.499.087-1.081.116l1.113.026zm38.928-.082.206-.059-1.116.025-.398-.048-.456.058-.985-.065-.311.089.167-.005c.234-.004 1.383-.004 2.265.008zm-81.705-.082-.246-.003.058.006zm44.252.02-.234-.022h-.065l.146.029zm8.618 38.636-1.385.003c-.214.06.343.059.815.058l-.67-.048 1.042.002-.025.048c.097 0 .174.002.208.006.198.026.107.147.652.093.206-.02-.037-.077-.293-.084.92-.059.711-.092.183-.105zm39.216.09c.364.092 1.686.122.822.023-.22-.025-.559-.017-.822-.023m-26.696.08.336.003.389-.079-.224-.038zm-3.886-.19c.059.023.405.038.53.054.209.026-.283.064-.17.09h.006c.118.026.872.034.961.012.19-.047-.495-.085.045-.117l2.089.024-.05-.063zm16.422-38.469c.627.012.218-.062.714-.085l-1.157-.05.306.053-.334.049c.102.016.221.029.471.033m-46.801 38.61q.089.008.187.02l.196.003-.028-.048-.332-.005q-.01.015-.023.03m-72.209-.09c-.391.046-.71.08.744.102l.007-.008c-.537-.01-.841-.036-.75-.093M80.036 1.187c.127-.001.206-.003.252-.007l-.463.004c-.487-.025-.75-.03-.914-.024.429.014.821.029 1.125.027m46.748 38.648c.011.003.028.006.037.01.021-.004.032-.009.047-.014a1 1 0 0 0-.084.004m48.082-38.65.012.004h.117zm-62.535 38.653.019-.004h-.013zm-19.578-.005.01.002c.032.004.275.003.538-.005q-.272.002-.548.003m91.564-38.614-.14.008.305.001zM82.433 39.764a4.372 4.372 0 0 0 1.114.012c-.385-.006-.763-.01-1.114-.012m97.615-38.54-.075.008.368.003zm-17.927 38.511c.053.015.163.029.359.038.275.013 1.361-.018 1.714.023.037-.013.011-.037-.047-.064q-1.01.003-2.026.003m9.134-38.35c.23-.04.383-.08.606-.114l-1.133-.002.017-.026c-.049.008-.083.017-.056.026.046.015-.017.125.566.117M2.616 11.579q-.045.103-.087.207.079-.152.159-.295zm26.76 28.2h.09l-.012-.005zm126.22-.034c1.1.037 1.088.029.912-.01h-.899zm10.372-.018c.374.032 1.114.039 1.364.038.443 0 .307-.03.425-.047zm10.916-.146q-.842.023-1.701.04c.106.005.211.012.297.026.151.025-.473.11.217.114.424-.025.059-.077.258-.114.16-.03.98-.02.929-.066M18.027 1.338q-.418.063-.835.145c.25-.027.504-.049.753-.066zm111.87-.06-.105-.01c.006.003.03.006.081.01zm48.776 38.467c.941.004 1.071-.102.207-.056-.184.01-.203.032-.207.056m-10.339-.032c.344.013.75.037 1.066.02.211-.012.3-.023.31-.032zm18.251-.11c-.081.02-.113.04-.043.054.2.042.529-.007.72-.05zm.76-38.029c.918.041 2.283-.038 1.619-.092-.8-.064-3.11.025-1.619.092m73.108 15.535c-.06-1.084-1.766-5.506-2.13-5.856-.964-1.618-.295-.714-.128-.442.686 1.151.955 2.114 1.332 2.653.301.762-.057-.006.112.462.326.92.694 1.942.875 2.953l.001.004c-.019.073-.015.295-.062.226M229.032 1.544c.305.001.698-.041.552-.05-1.125-.06-1.968.048-.552.05m31.602 21.164c.144-1.681.224-1.905.142-.55-.032.384-.145.803-.142.55m.024-3.882c-.031-.442.055-.194-.087-1.085l.005-.018c.037-.023.173.782.198 1.183 0 .013-.038-.084-.031.017.04.506.074 1.204.053 1.59-.009.19-.027.3-.054.274q.012-.135.016-.274c.021-.629-.077-1.3-.1-1.687M193.024 1.512c-2.066-.034-3.673.098-.922.068.151-.002.426-.07.922-.068m9.968.052c1.113.12 5.251.008 2.604-.045-.457-.01-.249.028-.538.028h-.002c-.289 0-2.891-.072-2.064.017m-3.964-.041-1.718.025 1.649.015zm44.424.224c.627.066 1.463.071-.002-.072-.064-.006-.632.01-1.034-.04-.263-.034-.032-.053-.386-.09h.004a2 2 0 0 0-.207-.005c-.234.007-.446.047 0 .083.267.024.762.04 1.625.124M257.476 9.8c-.188-.177-1.096-1.455-1.624-1.995.508.465 1.078 1.185 1.624 1.995m-7.812-6.42c-.253-.135-.076-.108-.441-.281-.361-.18-1.471-.609-1.916-.717-.441-.114-.436-.039-.805-.11 1.096.28 2.128.64 3.162 1.109m-17.697-1.806-1.759.044 1.028.05q.365-.045.731-.094m-8.133.01c-.761-.055-1.444.167-.178.072.12-.01.234-.067.178-.071m29.497 4.067c.288.109-.35-.403-.614-.583-.938-.654-1.445-1.019-1.965-1.203.532.349 1.003.571 1.275.756.589.41.526.445 1.304 1.03m-70.169-3.86c-.123-.041-.066-.158-.544-.175-.761-.027-1.529.023-1.114.08.128.018 1.589.054 1.658.095m49.584-.027c.124-.058.094-.11-.572-.148-.182.057.171.101.572.148m-65.003-.088c.619.034 1.607 0 1.142-.041s-1.906-.002-1.142.04m90.949 11.353c-.504-.84-.168-.137-.9-1.693.996 1.612-.119-.584-.012-.539.079.022.471.767.625 1.017.243.383.074-.103.327.345.268.443.833 1.977.983 2.503.324.995.561 1.902.703 2.765.153.864.196 2.188.189 2.744v.342c-.001.429-.012.794-.011.87-.002.572.098.296.028 1.058-.073.004-.301.965-.218-.17-.017.157-.053.348-.07.502-.089.726.057.398.02.75-.074.597-.075.14-.08.149-.154.515-.042.285-.062.552-.004.142-.236 1.246-.312 1.468-.066.22-.016-.096-.06.05a25 25 0 0 1-.683 1.899c-.25.623-.375 1.02-.436.918-.008-.018.139-.366.064-.292-.026.026-.289.462-.001-.247l.253-.635q-.033.137-.069.273.106-.248.205-.499c-.011.125-.025.258-.027.354.117-.186.172-.47.186-.508.225-.572.257-.453.324-.932-.138.393-.286.768-.445 1.135l-.029-.072.088-.228-.08.089c.211-.542.416-1.105.579-1.603-.033.194-.072.41-.109.601.193-.704.111-.268.266-.739-.036-.2.051-.453.147-.866.092-.411-.074.082.004-.345.171-.867.401-2.284.284-2.593.121-1.066.078.303.091.404.061.26.144-.581.12-1.343-.011-.447-.052-.857-.086-1.001.023-.3.097-.274-.007-1.148-.158-1.182.053 1.32-.136-.276-.155-1.06-.08-.886-.161-1.4-.144-.965-.739-2.642-.644-2.073.042.226.302.954.329 1.223.013.147-.26-.267.094.664.033.092.007-.36.157.366.042.207.103.877.186 1.482.044.264.214 1.415.175 2.068l-.005.095c-.015.235-.025.14-.034 0-.011-.16-.025-.377-.038-.248-.006.057-.01.145-.014.248-.014.36-.047.885-.091.832-.044-.519.054-.515.052-.677a3 3 0 0 0-.006-.155c-.033-.393-.102-.113-.118-.894.047-.106.242.763.131-.552-.004-.006-.016.284-.06-.138a23 23 0 0 0-.519-2.975c-.069.033.179 1.093.194 1.616-.192-1.185-.579-2.467-.788-3.27q.245.642.44 1.298a18 18 0 0 0-.496-1.517c.115.186.573 1.345.335.541-.112-.086-.531-1.192-.772-1.593M31.058 39.399l-.037-.017c-.584 0-1.161-.005-1.74-.011zm227.573-10.412c.145-.26.298-.561.433-.844-.059.272-.208.575-.463.989.014-.055.014-.085.03-.145M203.589 1.704c.083.01 2.114.004 2.162-.04-.343-.016-2.776-.028-2.162.04m53.35 29.997q.66-.88 1.216-1.822c-.157.476-1.438 2.2-1.216 1.822M87.513 1.713c.23-.006.453-.012.617-.02a21 21 0 0 0-.56-.015zm108.212.025q.327.014.658.026l-.03-.061-1.353.06.489.034zm-64.526 37.51c-.288.01-.698.018-1.135.025l.927.045.509-.064zM3.939 30.333c.052.302-.475-.383-.825-1.006l.11.277.069.122q.225.3.458.59.295.558.629 1.1.18.25.367.491.182.136.366.266.273.374.564.735c-.261-.358-.657-.954-.953-1.249-.146-.149-.052.207-.559-.612-.357-.61.14-.03-.227-.714m236.621-28.4c.529.027.942.032 1.267.025.79-.013 1.044-.077 1.154-.085.786-.035.876.142 1.04.159.784.098-.028-.177-.136-.19-1.69-.203-1.334-.007-1.537.014a4 4 0 0 1-.521.034c-.507.013-1.121-.009-1.267.044M2.38 27.51q-.119-.15-.235-.304.196.481.418.95c-.079-.239-.061-.29-.108-.465q-.038-.09-.075-.181M204.577 2.273c1.075.043 2.054-.08 1.477-.134-.339-.031-1.296.05-1.05-.038 1.596.044 1.459-.032 1.437-.046-.145-.096 1.051-.123.961-.203-.053-.045-1.336-.028-1.823-.04-.209-.006-.22-.045-.258-.046-.477-.016-.765.021-1.252.022-.225 0-.365-.058-.671-.039s-1.237.1-1.299.136c-.109.063.789.117 1.546.068.369-.024.141-.118 1.183-.063.139.007.693.105 1.222.1-.669.056-2.78.049-3.663.03-.108.067 1.379.046 1.94.08.475.028.159.168.25.173M22.854 39.278l.058-.016c-.063-.04-.158-.092-.623-.097zM6.309 33.612a7 7 0 0 1-.215-.207q.158.181.32.36zm139.667-31.78c-.565-.08-2.726-.11-1.344-.023.351.022.915.016 1.344.022m-28.925 37.42h.164l.064-.007zM12.113 37.58c.103.006-1.153-.552-1.415-.695-.116-.056-.21-.085-.314-.125l.058.053a18 18 0 0 0 1.583.784.2.2 0 0 1 .088-.017m245.045-6.565c-.412.418.981-1.638 1.381-2.549q-.152.315-.316.622c.065-.07.122-.126.186-.197q-.171.347-.358.686c.165-.24.311-.453.459-.689-.234.68-.297.672-.81 1.48-.338.513-.449.749-.906 1.367-2.147 2.882-5.232 5.235-8.721 6.428.004-.1.089-.142.719-.403-.026.04-.044.076-.068.114q.625-.262 1.214-.566c-.37.161-.746.309-1.115.44.189-.08.427-.183.719-.319.215-.1.267-.165.554-.301.612-.291 1.405-.614 2.029-1.062.357-.263-.143-.03.709-.602-.485.432-.813.77.469-.219-.757.491-.163.081.093-.165.163-.149-.914.68-.227.107.174-.08 2.168-1.968 2.085-1.854-.126.301-.178.424.94-.99-1.499 1.617-.159.035.44-.722.308-.385-.16.373.524-.606M15.659 2.321c.467-.092.962-.22 1.461-.31q-.22.01-.442.026-.245.081-.486.168-.322.051-.644.114c-.017.017-.014.027.111.002m219.248-.369c.031.027-.783.17.486.06.437-.037.39-.077 1.533-.079-1.066.009-.811-.1-.918-.109-.877-.07-1.99.057-1.856.115.04.017.721-.014.755.013M13.241 38.08l.063.023-.052-.022zm.942-35.376c.423-.104.775-.178 1.028-.317a19 19 0 0 0-1.171.291zm168.51-.514c1.002.015.826-.063.59-.112l1.993-.024c-1.894-.01-1.848-.102-1.88-.22-.766-.017-.247.067-1.051.051-.283-.005-.267-.054-.321-.059-.65-.047-.783.095-.393.112.391.016 1.316-.011 1.514.047-.662.025-1.22-.015-2.002-.002-.927.015-.188.09.099.072.571-.035.22-.092 1.206-.039.839.046-.544.162.245.174m61.895 36.774c-.589-.008 1.634-.299 1.855-.389.665-.166.838-.287 1.318-.399.043-.009-.4.203-.72.295-.317.128-2.385.52-2.453.493M19.281 1.976c-.324-.006-.137-.076-.793-.012l-.01-.008c-.015-.046.572-.112.866-.112.01 0-.063.038.011.038l.334-.002c.517-.001 1.09-.008 1.041.074-.34-.04-.724-.012-1.04.006-.16.01-.3.019-.409.016m-18.182 18c.01-.063.007-.102-.043-.122l-.019.293zM253.618 6.118c-.192-.234-.666-.59-1.244-.978l.102.146c.389.261.773.54 1.142.832m-63.837-4.25h-.004l-.542-.005-.669.066q.178.016.357.033zm54.557 37.1a19 19 0 0 1-2.511.166h.002q.06-.02.123-.04 1.195.012 2.386-.127M187.923 2.273c.998.002 2.593-.062 3.708-.06.661.002.636.043 1.303.045.995.003 2.74.015 3.677-.008.339-.009.261-.085.198-.094-.161-.02-.701.016-.933.009-.231-.008.028-.038-.291-.043-.32-.004-2.096.003-2.223.009-.766.033.169.076-.725.067-.398-.262 2.156-.092 2.619-.105 1.739-.05.323-.075-.015-.098-.335-.023.488-.053.31-.075h-.009a21 21 0 0 0-1.574-.014c-.327.039.784.074-.114.098l-3.415-.028q.056.051.108.102l.778-.032.609.034c-1.21.184-2.663-.03-4.686.05.115-.039.217-.08.34-.117-2.95-.06-.997-.001-1.06.096-.037.056-.928.002-1.134.01-1.416.057 1.531.152 2.529.154m21.8-.28c-3.396.102 2.377.117 2.767.074.73-.082-1.862-.044-2.182-.066-.317-.022-.125-.124-1.037-.08-.346.016.035.064.452.071m8.221-.08c.424.035 1.259.106 1.851.058-.788-.039-.796-.072-1.851-.057m30.879 35.833q-.016.008-.031.013l.003-.002zm-234.15.672q.36.102.724.19l.011-.003c-.284-.07-.572-.15-.855-.234zM156.617 2.14c.85-.154-.865-.05-1.667-.122h.004c-.239-.021.805-.091-.324-.096-.704.02-.122.064-.461.095-.341.03-2.361.004-1.193.092.363.028 3.008-.027 3.641.031m-6.873-.218c-1.541-.007-1.792.083-.359.047.306-.007.344-.027.359-.047M97.74 38.9c1.054.01 9.444-.245 7.282.094-.019.003-.03.005-.022.005.916.084 3.122-.355 4.31.007a1 1 0 0 0 .092.024c.073.005.304-.003.57-.012.429-.014.954-.031 1.069-.005-.178.015-.449.018-.701.021-.156.002-.306.004-.422.008-.156.006-.257.017-.359.028-.15.017-.3.033-.624.032-.805-.002-.455-.048-.296-.07a.3.3 0 0 0 .06-.01h-.075c-.817-.015-1.415-.026-2.106.025-.091.024.086.022.291.019.173-.003.368-.006.436.007.155.034-.586.017-.918.01l-.144-.004c-.213.001-.344.005-.452.01-.224.007-.353.011-.922-.027-.071-.004-.085-.01-.097-.016-.028-.012-.048-.02-.729.008.572-.075-.541-.105-1.346-.065-.124.007-.206.019-.291.031-.171.025-.351.052-.905.034-.297-.01-.216-.059-.129-.064.029-.001.098 0 .176.002.157.004.355.008.366-.009a52 52 0 0 0-1.226-.02c-.382-.002-.755-.006-1.047-.014-.053-.002-.062-.007-.071-.012-.085-.045-1.578-.024-1.705.014l-.097.014c-.154-.013-.281-.026-.415-.04l-.235-.023q-.088-.008-.163-.016c.37-.028.476.01.845.014M248.379 3.12a18 18 0 0 0-2.198-.615c1.045.254 1.424.387 1.958.653q.12-.02.24-.039m-69.524-.896c-.113-.12-1.48-.05-2.258-.113-.236-.019 1.097-.111-.286-.149h-.002c-.446-.012-2.237.01-2.803-.026-.261.045 1.044.23 1.269.244 1.449.084 2.656-.016 4.08.044m80.329 24.912-.009.023.003-.037zM21.516 38.943c-.68-.048-1.687.05-1.195.113.592.075 2.299-.036 1.195-.113M135.355 2.046c.525.045 1.804-.04 1.458-.08-.486-.056-1.562.07-1.458.08m107.728.077c.812.063 1.382.074 1.291.003a19 19 0 0 0-1.668-.127q.19.06.377.124M14.979 3.155c-.643.308-.091.173-1.302.454 1.253-.549-.457-.063-.429-.178.019-.076.602-.242.796-.335.298-.145-.08-.115.267-.253.345-.147 1.51-.365 1.9-.429.746-.142 1.416-.26 2.047-.31.422-.034.98-.03 1.431-.01.236.01.442.018.583.021.417.008.835-.002.908-.009.426-.037.213-.128.785-.128.006.088.745.23-.112.28.12.003.265.02.382.018.552-.008.293-.13.558-.15.445-.034.114.059.118.064.402.074.217-.01.417-.048.105-.018.947-.057 1.123-.054.171.003-.064.05.049.052.498.012 1.012.026 1.516.018.504-.01.812-.091.764.028-.008.019-.295.036-.22.08.026.015.41.084-.17.122a9 9 0 0 1-.516.018l.209-.048-.407-.004c.092-.042.184-.085.252-.126-.164-.046-.378.014-.407.013-.462-.02-.384-.105-.741-.005q.466.025.918.054-.022.032-.041.064l-.187-.002.086.052a21 21 0 0 1-1.293-.07c.149-.023.312-.05.458-.075-.55.019-.217-.033-.589-.063-.138.102-.342.078-.66.07-.317-.009.07.067-.256.075-.669.017-1.75-.107-1.976.04-.813-.095.229-.104.299-.14.302-.153-1.467-.094-1.764-.01l-.086-.024c-.14-.044-.208-.098-.75-.065-.857.06.953.075-.204.132-.776.054-.643-.021-1.021-.004-.707.027-1.96.31-1.538.336.167.008.714-.137.908-.118.108.011-.198.259.489.01.067-.023-.263-.067.27-.124.153-.016.643.011 1.082-.024.11-.01.423-.053.764-.073.271-.016.556-.024.768-.008.529.04-.31.056-.116.09.194.035.87.034.82.104-.395.078-.392-.045-.515-.04-.47.02-.137.142-.8.126-.07-.059.46-.204-.157-.202a5 5 0 0 0-.243.007c-.012.002.207.042-.104.06-.533.027-1.54.11-2.175.201.023.092.807-.01 1.184.036-.861.073-1.811.254-2.412.288q.481-.12.968-.215c-.382.063-.756.137-1.13.223.141-.078 1.003-.34.406-.252-.063.114-.897.313-1.204.46M8.853 5.667c.108-.213-.38.125-.56.27-.646.516-1.038.755-1.255 1.1.38-.266.617-.565.806-.711.414-.314.448-.234 1.009-.659m250.339 21.33-.153.388.014-.057q-.154.354-.324.701.191-.454.354-.912zM10.629 36.612c-.589-.422-2.637-1.8-1.954-1.221q.277.205.561.4a.4.4 0 0 1 .116.06l.002.001c.159.137 1.739 1.152 1.275.76m6.739 2.27c1.486.21 2.66.059.682-.01-.11-.007-.319.06-.682.01m-4.176-1.029q.586.202 1.182.363a18 18 0 0 1-1.118-.39q-.032.014-.064.027M1.222 19.23c-.004.144-.006.292-.006.434l.003-.008-.003.065q0 .387.018.777.03-.372.073-.736c-.031-.174-.06-.355-.086-.532M147.108 2.003c-.719.009-1.865-.026-2.019.044l1.622.034zM3.681 11.416c.235-.39.449-.961-.077-.036-.024.043-.16.43-.335.67-.043.056-.061.067-.077.073l-.112.3c.109-.163.285-.476.6-1.007M233.86 2.242c.808-.052 1.557-.056 2.578-.037l.907-.195c-1.576-.007-.445.1-1.819.085-.18.03.6.016.46.033-.676.085-1.578-.028-2.509.019zM29.491 2.07q-.821-.007-1.638-.018c.364-.08 1.962-.02 1.638.018M1.793 15.812c.364-.481.714-1.698.575-1.72q-.184.492-.34.995-.124.36-.235.725M245.841 2.465q-.652-.15-1.313-.253l-.073.029q.658.1 1.308.248zM1.762 25.035c.074.55.467.948.116.106-.033-.08-.12-.145-.116-.106M4.911 9.543c.484-.658.99-1.263 1.557-1.856-.078.064-.106.065-.14.074q-.51.543-.977 1.123-.165.19-.328.383c-.024.08-.038.15-.112.276m-3.418 9.15c-.06-.094-.128-.081-.21.391.057.135.127-.114.21-.391M253.667 6.4c-.465-.39-1.223-1-1.339-.995q.631.461 1.219.973zm-27.581-4.19c.74.012 2.871-.106.655-.054l-.03-.061zm18.444.144q-.419-.086-.842-.152c-.292.008-.589.023-.882.046q.866.013 1.724.106m10.851 5.717a19 19 0 0 0-1.001-.973q.461.454.885.936zm-58.316-5.877c1.45.07.912.031 1.78-.017.588-.032 1.213.035 1.121-.058-1.024.03-2.75-.026-2.901.075m21.044-.055c-.993.081 2.589.159 2.787-.016-.681.006-2.318-.021-2.787.016M24.611 38.676c.09.048.05.189.404.208.563.03 1.13-.03.824-.099-.093-.02-1.177-.06-1.228-.109m4.364-36.34c.44.139-1.449.12-2.2.098l.531.003c-.07-.03-.128-.06-.198-.09l.588-.008c-.22-.032-.415-.066-.624-.097.536-.128.55-.046 1.27-.025.464.013.657-.03 1.235-.033 2.704-.01 5.495-.062 8.26-.035-.028.109-.1.135-.617.148.03-.032.054-.064.082-.096q-.51.016-1.009.037l.903.06q-.231.006-.595.01c-.18.003-.235.046-.475.041-.515-.012-1.157-.145-1.734-.111-.333.02.08.14-.697.105.49-.087.836-.163-.382-.13.678.079.133.047-.134.087-.166.026.862.018.185.067-.145.01-2.22.057-2.114-.017.229-.16.328-.141-1.032-.053 1.666.067.1.17-.636.123-.375-.024.297-.098-.607-.085M10.342 36.252c-.056-.03-1.268-.81-1.319-.799.178.177 1.65 1.101 1.319.8M223.105 2.176c-.305.05 1.067.055 1.224.041.618-.054-.913-.09-1.224-.041m-42.575.07c.17.006 1.326.012 1.374-.017-1.804-.16-2.741-.024-1.374.018M3.042 13.404c.618-1.138.618-1.493.645-1.603.18-.546.383-.516.443-.618.295-.489-.193-.075-.235-.009-.663 1.038-.377.89-.409 1.037-.06.328-.473 1.023-.444 1.193m32.975 25.382c-.458-.04-1.189.003-.845.051.344.049 1.411-.002.845-.05M40.532 2.22c.44.13-1.253.025-1.43.022-.516-.008-.669.065-1.039.014-.033-.005.332-.078.583-.081a62 62 0 0 1 1.886.045M94.15 38.846c-.774-.003-.64-.143.142-.02l.09.014a4 4 0 0 1-.232.006m-78.622-.56a19 19 0 0 1-.447-.142q.002.04.003.077.475.085.95.144-.166-.054-.328-.112zm25.19-36.03 1.903-.004h-.004l-.09.049zM10.113 35.313c-.59-.441-1.213-.736-.932-.446.167.172.772.464.572.456-.883-.67-.843-.56-.844-.533.01.157-.672-.335-.682-.224-.009.069.72.61.998.815.115.088.098.13.118.148l.004.002c.269.206.461.28.755.46.136.083.185.195.385.285.2.093.824.32.883.3.102-.032-.426-.375-.91-.598-.234-.11-.164.075-.744-.377-.077-.061-.335-.374-.635-.587.41.235 1.644 1.031 2.186 1.325.102-.03-.82-.51-1.123-.76-.259-.206.017-.228-.031-.266M1.925 17.21c.037-.016.098.574.135-.32.02-.308-.045-.29.152-1.07-.176.728-.252.527-.28.597-.225.592-.193 1.4-.11 1.315.022-.025.066-.504.103-.522M37.196 2.298h.024V2.3zM9.286 5.63c-.216.066-.551.333-.938.654l.141-.017q.39-.33.798-.637m16.37-3.276h.02l-.03.012q.006-.006.01-.012M52.12 38.559c.418.093 2.017.126.993.024-.26-.026-.676-.018-.993-.024m-27.163-.362c-.741-.016-.611.078-.436.135l-1.476.033c1.402.008 1.366.119 1.39.259.568.02.185-.08.78-.063.209.006.198.065.237.07.481.056.579-.115.29-.134-.29-.019-.971.016-1.118-.054.49-.03.901.016 1.48 0 .684-.021.14-.109-.072-.087-.423.043-.164.111-.894.05-.622-.054.403-.196-.18-.209M6.063 8.576q-.516.646-.97 1.332c.453-.63.636-.855.98-1.124zm19.493-6.172q.16.003.316.002l-.045.01.587.03-.746.029zm-5.84 36.19.403.005.494-.08-.266-.038zM3.62 28.804c-.104-.284-.28-.843-.495-1.202.182.523.142.548.495 1.201m.364-16.938c.29-.51.427-.9.333-.876q-.305.521-.572 1.061zm3.14 21.491c1.807 1.533-1.107-1.24-1.245-1.48-.408-.324.806 1.023.96 1.183.138.174-.047.172.453.578.19.15.033-.072-.169-.28m13.965 4.75c-.384-.002-.888.02-1.399.04-.441.02-.882.02-1.251-.006-.454-.036-.43-.083-.886-.136-.677-.073-1.851-.316-2.476-.464-.227-.05-.2.05-.161.072.1.055.473.106.626.15.153.046-.03.04.184.095.214.066 1.426.266 1.516.262.529.027-.105-.102.506-.02.24.354-1.5-.085-1.807-.16-1.188-.21-.24.043-.012.117.224.076-.35-.01-.233.043h.006c.117.06.971.234 1.083.225.235-.01-.527-.176.098-.105.77.131 1.576.214 2.368.241l-.072-.124q-.27.012-.542.017-.21-.032-.419-.069c.444-.08.913-.044 1.472-.018.553.022 1.177.057 1.898.01-.085.046-.16.095-.251.14 2.183.066.737-.001.785-.117.028-.067.687-.003.838-.013 1.049-.072-1.132-.18-1.87-.18m-16.1-27.972q-.284.39-.545.792l.014.067q.26-.402.54-.79zm-2.836 7.85c.017-.561.103-1.075.29-1.754-.025-.22-.045-.448-.063-.67-.29 1.067.025.327-.203 1.259.009.13.106-.406.106-.307-.005.48-.254 1.071-.278 1.72.048-.08.098-.168.148-.249M27.796 38.15c.083.142 1.097.057 1.673.13.17.023-.812.136.21.179.331.013 1.655-.016 2.074.025.192-.054-.776-.274-.94-.29-1.072-.097-1.964.025-3.017-.044m16.451.06c-.628.186.641.059 1.234.142.176.025-.598.11.235.115.52-.025.092-.077.342-.115.252-.037 1.749-.01.883-.113-.268-.032-2.224.039-2.694-.03m5.086.247c1.14.006 1.324-.101.264-.056-.226.01-.253.032-.264.056M9.54 5.724c-.356.253-.944.634-.946.738q.453-.332.924-.635.012-.053.022-.103m1.48-.89q-.431.26-.847.543.403-.233.815-.443zm-6.425 6.17q-.188.246-.366.496-.1.307-.189.616.258-.563.555-1.112M2.173 23.331c-.077-.502-.367-1.956-.13-.435l-.07.03c.065.136.131.268.2.405m49.108 15.025c.532-.012 1.38.027 1.493-.057l-1.198-.037zm-47.476-9.78c.38.572-.597-1.683-.802-1.756.166.443.605 1.489.802 1.756M2.58 25.352c.11.187-.13-.725-.164-.83-.161-.403.04.64.164.83m12.178 12.17c-.93-.369-.588-.218-1.172-.36-.396-.101-.764-.343-.748-.215.663.248 1.785.67 1.92.575m11.801.604c-.123-.006-.984-.012-1.017.024 1.334.187 2.027.022 1.017-.024"/><circle cx="19.248" cy="20.224" r="5.562" stroke="#231f20" stroke-width="2"/><path stroke="#231f20" stroke-linecap="round" stroke-width="2" d="m23.22 24.992 3.974 3.973"/></svg>