<svg xmlns="http://www.w3.org/2000/svg" width="22" height="601" fill="none" viewBox="0 0 22 601"><g stroke="#3784ff" clip-path="url(#a)"><path fill="#f7f4ed" stroke-width="3" d="M11 21c5.523 0 10-4.477 10-10S16.523 1 11 1 1 5.477 1 11s4.477 10 10 10Z"/><path stroke-width="4" d="M11 21v124"/><path fill="#f7f4ed" stroke-width="3" d="M11 166c5.523 0 10-4.477 10-10s-4.477-10-10-10-10 4.477-10 10 4.477 10 10 10Z"/><path stroke-width="4" d="M11 166v124"/><path fill="#f7f4ed" stroke-width="3" d="M11 311c5.523 0 10-4.477 10-10s-4.477-10-10-10-10 4.477-10 10 4.477 10 10 10Z"/><path stroke-width="4" d="M11 311v133"/><path fill="#f7f4ed" stroke-width="3" d="M11 465c5.523 0 10-4.477 10-10s-4.477-10-10-10-10 4.477-10 10 4.477 10 10 10Z"/><path stroke-width="4" d="M11 465v114"/><path fill="#f7f4ed" stroke-width="3" d="M11 600c5.523 0 10-4.477 10-10s-4.477-10-10-10-10 4.477-10 10 4.477 10 10 10Z"/></g><defs><clipPath id="a"><path fill="#fff" d="M0 0h22v601H0z"/></clipPath></defs></svg>