<svg xmlns="http://www.w3.org/2000/svg" width="129" height="9" fill="none" viewBox="0 0 129 9"><g clip-path="url(#a)"><path fill="#3784ff" d="M124.19.004c.162-.024.366.067.561.065.767-.006 1.052.052 1.736.057.112.001.289-.004.431-.012l.04-.002c-.006.003.064-.014-.088.018-.028.007-.064.015-.128.038a1.3 1.3 0 0 0-.221.105c-.018.02-.27.124-.476.512-.104.195-.17.502-.12.78.047.282.179.49.287.616.227.25.364.29.453.335.189.076.179.06.198.068l.07.015c.065.011.074.01.075.01l-.026-.003a9 9 0 0 0-.274-.012c-.413-.015-.895-.027-1.34-.058-.891-.062-1.66-.198-1.66-.536l.001-.02c.011-.129.271-.27.31-.415.039-.146.01-1.086.381-1.139.538-.07 1.828.175 2.122.17.102-.003.215-.024.333-.045.068-.01.118-.022.198-.028.035-.004.071-.007.121-.007a.928.928 0 0 1 .172.018l.053.013c.043.014.096.024.217.095.059.039.145.093.243.228a.86.86 0 0 1 .145.626c-.108.484-.395.564-.399.585a1 1 0 0 1-.179.08c-.049.017-.077.023-.101.028-1.057.152-1.319.067-2.081.336-.296-.111-.599-.223-.886-.335-.386.07-.961-.073-1.19-.056-.098.006-.176.036-.257.065a.7.7 0 0 1-.238.059c-.22.013-.565-.081-.966-.053-.66.046-.772.302-1.165.346-.406.046-1.044-.072-1.575.033-.068.03-.128.06-.192.089l.143.184c-.256.037-.373-.088-.616-.083-.291.006-.431.133-.62.138-.155.004-.371-.087-.578-.075-.304.018-.227.157-.385.188-.059.012-1.243.127-1.305.13-.505.022-.565-.17-.96-.174-1.135-.01-2.252.182-3.301.276-.452.04-.939.046-1.403.03.706-.518-.903-.85-.28-.096-.509-.093-.884.13-1.36.11-.313-.012-.533-.112-.988-.094-.783.033-1.661.37-1.9-.174-.932.131-1.746-.04-2.066.46-.243.038-.871-.229-1.14-.258-.259-.028-2.219-.085-2.548-.08-.32.006-.877.02-1.148.073-.338.066-.56.58-1.182.014-.697.075-.962.07-1.609.027-.118-.008-.135-.095-.204-.092-.142.005-.382.08-.637.098-.422.03-.665-.144-.607.136l-.818.175-.297-.15-.438.196c.153-.415-.865-.13-.521.089l-1.615-.185c.056-.466-1.172-.002-1.057.245l-.185.007c-.547-.1-1.021.022-1.681-.03-.66-.054-.6-.102-.807-.306l-.456.057c-.775.62-.694-.396-2.04.115-.457-.347-1.539-.103-2.25.042-.083.017-.081.089-.192.116-.27.066-.976.008-.939.236q-.363-.083-.73-.164l-.585.154.014.215c-.413-.225-1.027-.1-1.337-.144-.061-.009-.08-.107-.27-.124-.224-.021-.638.029-.907.011l-.123.144-.169.2c-.468.083-.649-.197-.928-.206a34 34 0 0 0-1.015.075c-.399.07-.27.31-1.438.318-.209.001-.382-.075-.57-.069-.332.011-1.316.257-1.386.44-.416-.203-1.485-.054-1.804-.102-.097-.014-.126-.156-.421-.17-.239-.012-.853.135-1.151.133-.32-.004-.442-.117-.586-.118-.136 0-.255.103-.44.113-.58.028-1.112-.099-1.566-.077-.658.032-1.23.35-1.774.508-.137-.01-.275-.064-.418-.057-1.78.09-3.787.152-5.571.194-.833.02-2.908-.25-2.323.366-.285.13-2.384-.008-2.786.012-.4.02-.704.154-1.017.174-.942.06-1.614.017-2.753.187-.295.044-.605.2-.781.21-.212.01-.449-.11-.722-.101-.65.02-1.87.137-2.496.152-.114.002-.162-.112-.327-.138-.645-.104-1.36-.048-1.21.317-.833-.162-1.571.077-2.33.135-1.597.122-4.517.216-5.902.46-.872.153-.839.319-2.143.255-.289-.014-.577-.04-.928-.055-.822-.04-1.592-.3-2.19.11-.911-.04-1.633.075-2.324-.2l-.223.243-.333.027-.118-.212c-.798.031-1.79.394-2.464.435-1.132.068-4.05.137-5.128.108-.572-.016-.593.142-.94-.158l-.377.091-.226.226c-.729.05-1.602-.004-2.298.042-1.266.083-3.158.399-4.439.354-.321-.012-.73-.13-1.042-.109-.454.032-.55.279-1.126.32-.995.072-2.865-.088-3.804-.006-.279.024-.404.122-.596.144-.806.093-1.47.129-2.237.317-.847-.177-.794-.478-1.072-.761-.21-.214-.843-.7-.941-.892-.069-.135.143-.329.05-.477.989-.186 1.417-.079 2.24.085l4.486-.316.425.225c.58.06.81-.17 1.117-.24 2.936-.659 8.797-.667 12.065-.823.706-.033 2.986-.292 3.479-.187.127.028.17.155.303.152l3.55-.456c2.458.046 4.973-.278 7.432-.462 6.657-.498 13.248-1 19.806-1.353 1.268-.067 2.873-.257 4.112-.266.52-.003.75.191 1.42-.002l.032.167c.589-.101.958-.25 1.626-.3.561-.043 2.04-.134 2.539-.14.257-.003.168.106.407.093.408-.025 1.277-.217 1.844-.248.513-.028 1.378.045 1.775.007 1.416-.139 2.952-.399 4.468-.43.42-.008.963.1 1.093.089.254-.021.322-.156.494-.182.549-.082 1.291-.078 1.975-.072.411.003.802.007 1.12-.007 2.787-.118 5.736-.316 8.51-.417 1.757-.064 4.67-.214 6.29-.182.351.006.264.154.558.142.325-.014.495-.118.646-.132 1.054-.1 3.364-.29 4.364-.23.19.012.332.12.445.115.057-.003.183-.085.361-.1 1.593-.13 2.741-.129 4.305-.16 2.972-.059 6.435-.32 9.566-.344.675-.005 1.16.204 1.254.198.212-.01.33-.165.763-.216 1.413-.166 3.333-.065 4.674-.18.673-.059 1.567-.277 2.23-.34.233-.022.651-.028 1.013-.035.451-.01.848-.022.974-.071.139-.055.188-.22.365-.246m-17.546 3.095c.085-.263-.889-.013-.515.113.085.029.494-.045.515-.113M60.777 4.778l.04.22.379-.114-.224-.121z"/></g><defs><clipPath id="a"><path fill="#fff" d="M0 0h129v9H0z"/></clipPath></defs></svg>