<svg xmlns="http://www.w3.org/2000/svg" width="78" height="30" fill="none" viewBox="0 0 78 30"><path fill="#231f20" d="M35.994 20.097v-7.385h.13l5.32 7.385h1.675V9.251h-1.86v7.368h-.13L35.808 9.25h-1.675v10.846zm12.39.168c2.456 0 3.963-1.6 3.963-4.279 0-2.66-1.507-4.279-3.963-4.279-2.437 0-3.962 1.619-3.962 4.279.018 2.679 1.506 4.279 3.962 4.279m0-1.563c-1.302 0-2.046-.986-2.046-2.716 0-1.712.744-2.716 2.046-2.716s2.047 1.004 2.047 2.716c0 1.73-.745 2.716-2.047 2.716m5.656-8.837v2.065h-1.303v1.489h1.303v4.483c0 1.6.744 2.233 2.642 2.233.353 0 .706-.038.985-.093V18.59c-.223.02-.372.038-.632.038-.781 0-1.135-.354-1.135-1.172v-4.037h1.767V11.93H55.9V9.865zm4.744 10.232h1.86v-8.223h-1.86zm.93-9.58A1.12 1.12 0 0 0 60.83 9.4c0-.632-.502-1.135-1.116-1.135s-1.116.503-1.116 1.135a1.12 1.12 0 0 0 1.116 1.116m6.028 9.748c2.455 0 3.962-1.6 3.962-4.279 0-2.66-1.507-4.279-3.962-4.279-2.438 0-3.963 1.619-3.963 4.279 0 2.679 1.488 4.279 3.963 4.279m0-1.563c-1.303 0-2.047-.986-2.047-2.716 0-1.712.744-2.716 2.047-2.716 1.283 0 2.046 1.004 2.046 2.716-.019 1.73-.763 2.716-2.046 2.716m5.06 1.395h1.86v-4.78c0-1.21.707-1.973 1.805-1.973 1.135 0 1.656.633 1.656 1.88v4.873h1.86v-5.32c0-1.972-1.005-3.07-2.828-3.07-1.228 0-2.046.558-2.437 1.488h-.13v-1.32h-1.805c.019 0 .019 8.222.019 8.222"/><path fill="#231f20" fill-rule="evenodd" d="M5.632 5.903c.875.707 1.191.65 2.828.54l15.423-.931c.335 0 .056-.335-.056-.372L21.26 3.298c-.484-.372-1.154-.818-2.4-.707L3.94 3.69c-.54.056-.652.335-.428.54zm.93 3.59v16.223c0 .874.428 1.19 1.414 1.135l16.949-.986c.986-.056 1.097-.651 1.097-1.358V8.396c0-.707-.279-1.098-.874-1.042L7.437 8.396c-.651.055-.874.39-.874 1.097m16.726.875c.111.483 0 .986-.484 1.041l-.819.168v11.98c-.707.373-1.358.596-1.916.596-.874 0-1.098-.279-1.749-1.098l-5.34-8.39v8.111l1.694.372s0 .986-1.358.986l-3.758.224c-.112-.224 0-.763.372-.875l.986-.279V12.49l-1.358-.112c-.112-.484.167-1.19.93-1.247l4.037-.279 5.563 8.484v-7.498l-1.414-.167c-.112-.595.335-1.042.874-1.098zM2.693 2.2l15.534-1.135c1.898-.168 2.4-.056 3.59.818l4.95 3.48c.818.595 1.097.762 1.097 1.413v19.106c0 1.191-.428 1.898-1.953 2.01L7.883 28.99c-1.153.056-1.693-.111-2.288-.874L1.93 23.372c-.65-.875-.93-1.526-.93-2.288V4.098c0-.986.446-1.786 1.693-1.897" clip-rule="evenodd"/></svg>