<svg xmlns="http://www.w3.org/2000/svg" width="207" height="28" fill="none" viewBox="0 0 207 28"><g clip-path="url(#a)"><mask id="b" width="207" height="28" x="0" y="0" maskUnits="userSpaceOnUse" style="mask-type:luminance"><path fill="#fff" d="M206.532.467H.468v27.067h206.064z"/></mask><g fill="#231f20" mask="url(#b)"><path d="M176.909 14.742a8.2 8.2 0 0 0-1.801-2.791 8.3 8.3 0 0 0-2.694-1.91 7.8 7.8 0 0 0-3.419-.774c-.413 0-.763 0-1.107.047l4.122-7.479h-4.053l-6.777 12.08a8.24 8.24 0 0 0-1.091 4.06 8.47 8.47 0 0 0 1.35 4.748 9.06 9.06 0 0 0 3.343 3.155A8.5 8.5 0 0 0 168.911 27a8.2 8.2 0 0 0 4.297-1.238 9.46 9.46 0 0 0 3.182-3.263 8.8 8.8 0 0 0 1.151-3.805 8.9 8.9 0 0 0-.632-3.928zm-2.946 3.318a5.16 5.16 0 0 1-.679 2.614 4.95 4.95 0 0 1-1.862 1.84 4.97 4.97 0 0 1-5.103-.017 5.05 5.05 0 0 1-1.834-1.924 5.2 5.2 0 0 1-.68-2.598 4.97 4.97 0 0 1 .702-2.513 5.14 5.14 0 0 1 1.855-1.849 4.79 4.79 0 0 1 5.06 0 5.14 5.14 0 0 1 1.877 1.91c.441.77.67 1.647.664 2.537m29.38-9.087c-.091-.232-.206-.487-.327-.773-.193.36-.431.693-.71.99a4.3 4.3 0 0 1-2.29 1.214 8.8 8.8 0 0 1 .664 3.418 9.4 9.4 0 0 1-.687 3.519 9.1 9.1 0 0 1-1.991 3.054 8.65 8.65 0 0 1-2.939 1.95 9.2 9.2 0 0 1-3.449.657 8.85 8.85 0 0 1-5.468-1.897 9.06 9.06 0 0 1-3.172-4.893c-.4-1.56-.378-3.2.061-4.749a9 9 0 0 1 2.358-4.137 8.6 8.6 0 0 1 2.961-1.964 9.6 9.6 0 0 1 3.381-.688c1.106.01 2.2.225 3.229.634a4.34 4.34 0 0 1 1.206-2.374q.42-.414.931-.704c-.207-.1-.42-.209-.626-.294a12.6 12.6 0 0 0-4.816-.913 12.3 12.3 0 0 0-4.832.954 12.5 12.5 0 0 0-4.09 2.774 12.94 12.94 0 0 0-3.35 5.815 13.5 13.5 0 0 0-.046 6.612 12.73 12.73 0 0 0 3.255 5.813 12.5 12.5 0 0 0 5.721 3.328c1.035.268 2.099.403 3.166.402a13 13 0 0 0 3.389-.448 12.7 12.7 0 0 0 5.119-2.8 12.9 12.9 0 0 0 3.36-4.81c.617-1.538.938-3.18.947-4.841a12.7 12.7 0 0 0-.955-4.849m-45.447 6.674a9.3 9.3 0 0 0-1.115-2.42 9.4 9.4 0 0 0-1.831-1.98l-.115-.07a10.7 10.7 0 0 0-1.77-1.114l4.625-8.158h-13.517v3.68h7.243l-3.747 6.582 2.29.61c1.097.3 2.116.848 2.976 1.602q.073.105.168.193c.439.446.794.97 1.045 1.547.268.614.408 1.277.413 1.948a5.1 5.1 0 0 1-.703 2.676 4.84 4.84 0 0 1-1.824 1.91 4.92 4.92 0 0 1-5.021 0 5.26 5.26 0 0 1-1.893-1.894 4.9 4.9 0 0 1-.703-2.568v-1.206h-3.678v1.222a9.1 9.1 0 0 0 1.175 4.454 8.94 8.94 0 0 0 3.198 3.279 8.65 8.65 0 0 0 4.389 1.199 8.64 8.64 0 0 0 4.388-1.2 8.8 8.8 0 0 0 3.198-3.208 8.75 8.75 0 0 0 1.198-4.478 9.3 9.3 0 0 0-.389-2.606"/><path d="M199.211 3.746a2.28 2.28 0 0 0-1.611.68c-.374.38-.607.88-.658 1.415-.052.534.081 1.07.377 1.516a2.3 2.3 0 0 0 1.241.93 2.26 2.26 0 0 0 1.541-.08c.49-.207.893-.58 1.142-1.054a2.345 2.345 0 0 0-.577-2.886 2.27 2.27 0 0 0-1.455-.521M2.042 1.812h7.174c5.166 0 8.708 3.155 8.708 8.004s-3.542 7.996-8.708 7.996H2.042zM9.04 14.773c3.13 0 5.182-1.895 5.182-4.957S12.17 4.851 9.04 4.851H5.697v9.922zm10.644-4.957c0-4.756 3.656-8.275 8.64-8.275 4.983 0 8.639 3.496 8.639 8.275 0 4.78-3.679 8.275-8.64 8.275-4.96 0-8.639-3.527-8.639-8.275m13.577 0a5.1 5.1 0 0 0-.376-1.915 5 5 0 0 0-1.07-1.623 4.9 4.9 0 0 0-1.602-1.084 4.88 4.88 0 0 0-5.381 1.084 5 5 0 0 0-1.07 1.623 5.06 5.06 0 0 0 1.07 5.453 4.9 4.9 0 0 0 1.602 1.085 4.88 4.88 0 0 0 5.381-1.085 5 5 0 0 0 1.07-1.623 5.1 5.1 0 0 0 .376-1.915m5.464 0c0-4.825 3.655-8.274 8.57-8.274a8.06 8.06 0 0 1 3.566.664 8.16 8.16 0 0 1 2.93 2.166l-2.344 2.196a5.1 5.1 0 0 0-1.774-1.395 5 5 0 0 0-2.195-.484 4.8 4.8 0 0 0-1.964.335 4.8 4.8 0 0 0-1.666 1.107 4.9 4.9 0 0 0-1.085 1.693 5 5 0 0 0-.322 1.992 5 5 0 0 0 .326 1.996 4.9 4.9 0 0 0 1.092 1.693 4.8 4.8 0 0 0 1.672 1.104 4.8 4.8 0 0 0 1.97.327c.76.007 1.513-.16 2.2-.49a5.05 5.05 0 0 0 1.769-1.413l2.343 2.197a8.1 8.1 0 0 1-2.933 2.193 8 8 0 0 1-3.585.668c-4.915 0-8.57-3.457-8.57-8.275m17.262.959V1.812h3.656v8.824c0 3.039 1.305 4.3 3.518 4.3s3.518-1.261 3.518-4.3V1.812h3.61v8.963c0 4.71-2.663 7.316-7.15 7.316-4.489 0-7.152-2.606-7.152-7.316m32.247 7.037V8.2l-4.648 7.903h-1.649L77.312 8.37v9.442h-3.419v-16h3.053l5.915 9.945 5.815-9.945h3l.045 16zm19.435-2.969v2.97H95.458V1.811h11.937v2.97h-8.32v3.48h7.335v2.876h-7.335v3.705zm17.393-13.031v16h-3L114.185 8.1v9.713h-3.602v-16h3.053l7.815 9.713V1.812zm7.016 3.016h-5.052V1.812h13.738v3.016h-5.06v12.984h-3.648z"/></g></g><defs><clipPath id="a"><path fill="#fff" d="M0 0h207v28H0z"/></clipPath></defs></svg>