<svg xmlns="http://www.w3.org/2000/svg" width="130" height="28" fill="none" viewBox="0 0 130 28"><path fill="#03363d" d="M99.715 19.89a4.18 4.18 0 0 0 3.011-1.165l1.493 1.628c-.986 1.016-2.353 1.772-4.48 1.772-3.643 0-5.997-2.421-5.997-5.701a5.62 5.62 0 0 1 1.627-4.06 5.6 5.6 0 0 1 4.041-1.657c3.619 0 5.671 2.76 5.491 6.587h-8.556c.305 1.588 1.416 2.604 3.366 2.604m2.607-4.428c-.233-1.487-1.115-2.579-2.886-2.579-1.644 0-2.791.932-3.087 2.579zm-58.776 4.302 6.585-6.703H43.7v-2.117h9.481v2.16l-6.584 6.7h6.672v2.106h-9.725zm17.118.12a4.18 4.18 0 0 0 3.012-1.165l1.495 1.626c-.986 1.016-2.353 1.772-4.48 1.772-3.643 0-5.997-2.421-5.997-5.701a5.63 5.63 0 0 1 1.628-4.06 5.6 5.6 0 0 1 4.04-1.657c3.62 0 5.671 2.76 5.491 6.587h-8.556c.305 1.588 1.416 2.604 3.366 2.604m2.607-4.428c-.232-1.487-1.115-2.579-2.886-2.579-1.644 0-2.791.932-3.087 2.579zm16.798.94c0-3.496 2.61-5.697 5.488-5.697a4.72 4.72 0 0 1 3.644 1.643v-6.46h2.326v16.007h-2.326v-1.525a4.68 4.68 0 0 1-3.665 1.73c-2.791 0-5.466-2.21-5.466-5.694m9.262-.02c-.082-3.075-3.803-4.536-5.957-2.333s-.584 5.904 2.488 5.903c1.997 0 3.468-1.6 3.468-3.557m17.09 3.176 2.107-1.095a3.13 3.13 0 0 0 2.81 1.6c1.318 0 1.998-.678 1.998-1.445 0-.89-1.273-1.075-2.656-1.36-1.861-.38-3.797-1.01-3.797-3.264 0-1.731 1.644-3.33 4.233-3.308 2.028 0 3.557.813 4.419 2.124l-1.952 1.075a2.84 2.84 0 0 0-2.459-1.25c-1.251 0-1.902.613-1.902 1.315 0 .787 1.009 1.007 2.591 1.359 1.8.38 3.841.986 3.841 3.265 0 1.524-1.318 3.547-4.433 3.526-2.281 0-3.883-.921-4.807-2.54m15.555-2.541-1.844 2.016v2.845h-2.326V5.9h2.326v10.473l4.938-5.433h2.833l-4.282 4.7L128 21.904h-2.633zM73.021 10.73c-2.766 0-5.07 1.798-5.07 4.777v6.398h2.37V15.78c0-1.798 1.03-2.871 2.791-2.871s2.637 1.074 2.637 2.87v6.103h2.358v-6.398c0-2.98-2.326-4.777-5.07-4.777M17.03 7.396V28H0zm0-7.396a8.55 8.55 0 0 1-2.494 6.036 8.5 8.5 0 0 1-6.02 2.502 8.5 8.5 0 0 1-6.022-2.502A8.55 8.55 0 0 1 .001 0zm2.805 27.998a8.55 8.55 0 0 1 2.494-6.033 8.5 8.5 0 0 1 6.02-2.5c2.258 0 4.423.9 6.02 2.5a8.55 8.55 0 0 1 2.494 6.032zm0-7.396V.002h17.03z"/></svg>