<svg xmlns="http://www.w3.org/2000/svg" width="107" height="28" fill="none" viewBox="0 0 107 28"><g clip-path="url(#a)"><mask id="b" width="107" height="28" x="0" y="0" maskUnits="userSpaceOnUse" style="mask-type:luminance"><path fill="#fff" d="M106.758.241H.242V27.76h106.516z"/></mask><g mask="url(#b)"><path fill="#231f20" fill-rule="evenodd" d="m25.298 15.113 2.02 2.029c.16.16.25.38.25.606v1.142c0 3.057-.317 4.166-.912 5.284a6.2 6.2 0 0 1-2.582 2.594c-1.114.596-2.218.915-5.263.915h-5.347a.171.171 0 0 1-.12-.293v.001l2.019-2.028a.85.85 0 0 1 .604-.252h2.472c2.283 0 3.111-.238 3.946-.687a4.67 4.67 0 0 0 1.937-1.945c.44-.825.677-1.642.684-3.85v-3.395a.172.172 0 0 1 .292-.12M.534 13.397l2.02 2.029c.16.16.251.38.251.606v2.482c0 2.294.237 3.126.685 3.964a4.67 4.67 0 0 0 1.936 1.945c.835.449 1.663.687 3.947.687h3.267a.171.171 0 0 1 .121.293l-2.02 2.029a.85.85 0 0 1-.604.251H9c-3.045 0-4.149-.319-5.262-.916a6.2 6.2 0 0 1-2.583-2.593C.568 23.07.251 21.977.242 19.015v-5.497a.172.172 0 0 1 .292-.12M40.5 7.884q1.194 0 2.15.443.954.444 1.627 1.216a5.3 5.3 0 0 1 1.02 1.819q.347 1.046.347 2.251a6.7 6.7 0 0 1-.369 2.251 5.7 5.7 0 0 1-1.03 1.819 4.8 4.8 0 0 1-1.596 1.216 4.7 4.7 0 0 1-2.04.443q-.74 0-1.303-.159a4.4 4.4 0 0 1-.998-.41 4 4 0 0 1-.738-.533 4 4 0 0 1-.5-.557.065.065 0 0 0-.065.065v5.506a1 1 0 0 1-.997.999h-.61a1 1 0 0 1-.997-.999V9.155c0-.55.446-.998.996-.998h.66c.452 0 .818.366.818.818v.775c0 .024.02.043.043.043q.564-.999 1.52-1.455a4.7 4.7 0 0 1 2.061-.454m-19.471 2.94 2.02 2.031c.16.161.25.38.25.607v6.505a3.423 3.423 0 0 1-3.416 3.43H17.72a.171.171 0 0 1-.124-.29l2.632-2.766c.183-.183.315-.396.398-.625.073-.194.11-.4.11-.606v-8.164a.172.172 0 0 1 .292-.121M4.8 17.67l2.755 2.643a1.7 1.7 0 0 0 .622.4c.187.07.391.11.604.11h8.13a.171.171 0 0 1 .12.292l-2.023 2.03a.85.85 0 0 1-.603.25H7.928A3.42 3.42 0 0 1 5.51 22.39a3.43 3.43 0 0 1-.999-2.424v-2.172a.171.171 0 0 1 .29-.123m98.628-9.786q1 0 2.009.398.384.152.907.542a.997.997 0 0 1 .125 1.491l-.403.422a.996.996 0 0 1-1.335.096 3 3 0 0 0-.282-.198 2 2 0 0 0-1.021-.296 2.91 2.91 0 0 0-2.246 1c-.269.306-.476.66-.608 1.046-.138.395-.207.81-.206 1.227q0 .638.206 1.228.206.592.608 1.046c.271.305.599.553.966.728a2.9 2.9 0 0 0 1.28.273q.609 0 1.129-.261.106-.054.229-.145a.994.994 0 0 1 1.335.141l.396.446a.952.952 0 0 1-.234 1.456 6 6 0 0 1-2.03.739q-.477.08-.825.08a6 6 0 0 1-2.214-.41 5.3 5.3 0 0 1-1.802-1.16 5.5 5.5 0 0 1-1.204-1.807q-.445-1.058-.445-2.353t.445-2.353a5.5 5.5 0 0 1 1.204-1.807 5.3 5.3 0 0 1 1.802-1.16 6 6 0 0 1 2.214-.41m-36.707 0q1.042 0 2.063.375.368.135.824.503a.998.998 0 0 1 .057 1.505l-.324.306a.995.995 0 0 1-1.273.077q-.795-.584-1.411-.584-.522 0-1.021.273-.5.273-.5.887 0 .5.413.728.412.226 1.042.386.63.159 1.356.33.728.17 1.358.522t1.042.967.412 1.682q0 .977-.401 1.648a3.2 3.2 0 0 1-1.043 1.08c-.443.28-.931.48-1.443.591a7.3 7.3 0 0 1-1.607.182q-1.215 0-2.236-.363-.4-.143-.959-.573a1 1 0 0 1-.09-1.506l.27-.265a.995.995 0 0 1 1.356-.037q.239.21.411.323.576.375 1.4.375.282 0 .586-.068.306-.07.565-.227.26-.16.424-.398a.97.97 0 0 0 .162-.557q0-.57-.413-.841a3.6 3.6 0 0 0-1.042-.444q-.673-.18-1.356-.318a5 5 0 0 1-1.356-.478 2.9 2.9 0 0 1-1.043-.92q-.411-.592-.412-1.637 0-.91.357-1.58a3.25 3.25 0 0 1 .945-1.103 4 4 0 0 1 1.347-.637 6 6 0 0 1 1.54-.204m27.244.273c.551 0 .997.447.997.998v8.916a1 1 0 0 1-.997.998h-.61a1 1 0 0 1-.997-.998V9.155c0-.55.446-.998.997-.998zm-8.575-.273q1.042 0 1.758.363c.464.231.864.575 1.161 1q.445.637.64 1.49.196.853.196 1.83v5.503a1 1 0 0 1-.997.999h-.611a.997.997 0 0 1-.997-.999v-5.185q0-.5-.086-.966a2.4 2.4 0 0 0-.305-.818 1.57 1.57 0 0 0-.586-.557q-.369-.205-.955-.205-.607 0-1.03.239a2.05 2.05 0 0 0-.695.636 2.7 2.7 0 0 0-.391.91q-.12.51-.12 1.034v4.913a.997.997 0 0 1-.996.998h-.612a1 1 0 0 1-.997-.998v-5.504q.001-1.023-.412-1.626-.412-.601-1.367-.602-.651 0-1.097.227a2.1 2.1 0 0 0-.737.615 2.5 2.5 0 0 0-.425.886q-.13.515-.129 1.046v4.958a1 1 0 0 1-.997.998h-.612a.997.997 0 0 1-.996-.998V9.155c0-.55.446-.998.996-.998h.482c.55 0 .996.447.996.998v.707a4.3 4.3 0 0 1 1.162-1.376q.771-.602 2.073-.602 2.453 0 3.256 2.023.564-1.045 1.411-1.535.846-.488 2.019-.488m-31.259 0q.24 0 .467.046a.58.58 0 0 1 .467.569v1.497a.547.547 0 0 1-.64.537 3.5 3.5 0 0 0-.62-.057q-.912 0-1.464.352-.555.352-.847.808a2.8 2.8 0 0 0-.391.908q-.097.455-.097.682v4.845a1 1 0 0 1-.997.998h-.612a.997.997 0 0 1-.996-.998V9.155c0-.55.446-.998.996-.998h.746c.476 0 .863.386.863.863v.821c0 .024.019.044.043.044q.433-.956 1.237-1.478.802-.523 1.845-.523m4.691.273c.55 0 .996.447.996.998v8.916a.997.997 0 0 1-.996.998h-.611a1 1 0 0 1-.997-.998V9.155c0-.55.445-.998.996-.998zM10.09 4.529a.171.171 0 0 1 .124.29L7.58 7.586a1.7 1.7 0 0 0-.397.625c-.073.193-.11.399-.11.606v8.164a.171.171 0 0 1-.292.12l-2.02-2.03a.86.86 0 0 1-.25-.607V7.96a3.423 3.423 0 0 1 3.416-3.43zm29.89 5.81a2.91 2.91 0 0 0-2.248 1c-.27.306-.476.66-.608 1.046-.137.395-.207.81-.205 1.227q0 .638.205 1.228.206.592.609 1.046a2.91 2.91 0 0 0 2.246 1 2.9 2.9 0 0 0 2.247-1q.4-.454.608-1.046.205-.59.205-1.227t-.205-1.227a3.1 3.1 0 0 0-.608-1.047 3 3 0 0 0-.967-.727 2.9 2.9 0 0 0-1.28-.273M24.073 1.157c1.1.586 2 1.49 2.582 2.594.587 1.102.904 2.196.913 5.158v5.497a.171.171 0 0 1-.292.121l-2.02-2.028a.86.86 0 0 1-.25-.607V9.41c0-2.294-.239-3.125-.685-3.964a4.67 4.67 0 0 0-1.937-1.945c-.834-.449-1.663-.687-3.946-.687H15.17a.171.171 0 0 1-.12-.293L17.07.493a.85.85 0 0 1 .604-.252h1.136c3.045 0 4.15.319 5.263.916M14.347.241a.171.171 0 0 1 .12.293l-2.02 2.028a.85.85 0 0 1-.603.252H9.372c-2.283 0-3.112.238-3.947.687a4.67 4.67 0 0 0-1.937 1.945c-.446.839-.684 1.67-.684 3.964v3.28a.172.172 0 0 1-.292.122L.493 10.784a.86.86 0 0 1-.25-.607V9.036c0-3.058.316-4.167.912-5.285a6.2 6.2 0 0 1 2.582-2.594C4.835.568 5.925.25 8.874.241zm5.536 4.288a3.423 3.423 0 0 1 3.416 3.43v2.172a.171.171 0 0 1-.29.123l-2.753-2.643a1.7 1.7 0 0 0-.623-.399 1.7 1.7 0 0 0-.604-.11h-8.13a.171.171 0 0 1-.12-.293l2.023-2.03c.16-.16.376-.25.603-.25zm38.612-1.715q.717 0 1.205.466.488.465.488 1.17T59.7 5.621t-1.205.467-1.183-.489a1.6 1.6 0 0 1-.466-1.149q0-.658.466-1.147.468-.49 1.183-.49m35.145 0q.716 0 1.205.466.488.465.488 1.17t-.488 1.171q-.49.467-1.205.467-.717 0-1.183-.489a1.6 1.6 0 0 1-.467-1.149q0-.658.467-1.147.466-.49 1.183-.49" clip-rule="evenodd"/></g></g><defs><clipPath id="a"><path fill="#fff" d="M0 0h107v28H0z"/></clipPath></defs></svg>