<svg xmlns="http://www.w3.org/2000/svg" width="127" height="28" fill="none" viewBox="0 0 127 28"><path fill="#231f20" d="M18.387 1.437a2.966 2.966 0 0 0-5.082 0L9.126 8.602A20.48 20.48 0 0 1 20.4 25.552h-2.934a17.6 17.6 0 0 0-9.82-14.445l-3.868 6.695a10.12 10.12 0 0 1 5.862 7.737H2.901a.483.483 0 0 1-.393-.705l1.867-3.18a6.8 6.8 0 0 0-2.134-1.207L.392 23.626a2.89 2.89 0 0 0 1.074 3.967c.438.247.932.378 1.435.381h9.23A12.34 12.34 0 0 0 7.048 16.97l1.467-2.543a15.18 15.18 0 0 1 6.542 13.548h7.82A22.82 22.82 0 0 0 12.453 7.756l2.967-5.086a.49.49 0 0 1 .666-.171c.337.184 12.888 22.106 13.123 22.36a.483.483 0 0 1-.432.718h-3.023q.057 1.214 0 2.423h3.036a2.914 2.914 0 0 0 2.934-2.931c0-.51-.135-1.01-.394-1.45zM78.93 17.98 69.556 5.862h-2.338v16.244h2.37V9.657l9.641 12.45h2.07V5.861h-2.368zm-23.61-3.014h8.404v-2.11h-8.41v-4.89h9.483v-2.11H52.902v16.25h12.017v-2.11h-9.604zm-9.883-2.06c-3.27-.788-4.185-1.411-4.185-2.924 0-1.36 1.2-2.283 2.991-2.283a7.66 7.66 0 0 1 4.49 1.622l1.271-1.8a8.95 8.95 0 0 0-5.716-1.907c-3.214 0-5.456 1.907-5.456 4.622 0 2.925 1.905 3.935 5.373 4.781 3.087.712 4.033 1.373 4.033 2.855s-1.27 2.397-3.232 2.397a7.83 7.83 0 0 1-5.272-2.073l-1.43 1.71a10.12 10.12 0 0 0 6.619 2.448c3.48 0 5.716-1.875 5.716-4.775-.019-2.454-1.467-3.77-5.202-4.673m78.831-7.044-4.885 7.63-4.852-7.63h-2.833l6.409 9.823v6.428h2.439v-6.505L127 5.862zm-41.051 2.2h5.316v14.05h2.44V8.063h5.316v-2.2H83.224zm24.352 7.705c2.452-.68 3.811-2.396 3.811-4.85 0-3.122-2.28-5.087-5.958-5.087h-7.215V22.1h2.414v-5.837h4.096l4.116 5.85h2.82l-4.446-6.244zm-6.955-1.59V8.012h4.554c2.376 0 3.735 1.125 3.735 3.077s-1.454 3.09-3.709 3.09z"/></svg>