<svg xmlns="http://www.w3.org/2000/svg" width="88" height="28" fill="none" viewBox="0 0 88 28"><g fill="#231f20" clip-path="url(#a)"><path fill-rule="evenodd" d="M9.618 9.333h9.617V0H.193v.095zM9.618 9.333 0 9.334v9.333h19.043v-.095z" clip-rule="evenodd"/><path fill-rule="evenodd" d="M.094 18.572h9.522V28z" clip-rule="evenodd"/><path d="M32.314 18.571v-5.143h5.674v-2.38h-5.674V7.619h6.155V5.143h-8.944v13.333h2.789zM45.586 8.858c-.193-.095-.577-.19-1.058-.19a2.69 2.69 0 0 0-2.212 1.142v-.952h-2.693v9.714h2.693v-6c.192-.857.962-1.333 1.827-1.333.481 0 .962.095 1.347.286V8.858zM54.629 18.572v-6.19c0-2.286-1.539-3.715-4.135-3.715-2.212 0-3.847 1.334-4.136 3.143h2.597c.192-.571.673-.952 1.443-.952 1.057 0 1.634.666 1.634 1.524v.666c-.384-.285-1.346-.571-2.211-.571-2.117 0-3.751 1.238-3.751 3.143 0 2 1.634 3.143 3.654 3.143 1.058 0 2.02-.381 2.405-.667v.476zm-2.597-2.666c-.288.476-.961.857-1.73.857-.866 0-1.732-.381-1.732-1.239 0-.857.866-1.238 1.731-1.238.77 0 1.54.286 1.731.857zM64.245 9.906c-.577-.762-1.443-1.239-2.597-1.239-1.057 0-2.02.381-2.5 1.048v-.762h-2.693v9.714h2.693v-6.285c.192-.857.866-1.238 1.539-1.238.961 0 1.346.666 1.346 1.714v5.81h2.693v-6.286c.193-.857.77-1.238 1.539-1.238.962 0 1.442.666 1.442 1.714v5.81h2.694v-6.382c0-2.19-1.251-3.619-3.27-3.619-1.25 0-2.212.572-2.886 1.239M78.191 15.43c-.192.856-.865 1.237-1.827 1.237-1.25 0-2.02-.857-2.116-2.285h6.54v-.857c0-2.858-1.538-4.858-4.424-4.858-2.693 0-4.713 2.19-4.713 5.048 0 2.952 1.924 5.048 4.713 5.048 2.5 0 3.943-1.334 4.328-3.429h-2.5zm-1.827-4.572c1.154 0 1.731.762 1.731 1.81h-3.75c.288-1.143.961-1.81 2.02-1.81M88 8.858c-.192-.095-.577-.19-1.058-.19-.962 0-1.731.476-2.212 1.142v-.952h-2.693v9.714h2.693v-6c.192-.857.962-1.333 1.827-1.333.48 0 .962.095 1.346.286V8.858z"/></g><defs><clipPath id="a"><path fill="#fff" d="M0 0h88v28H0z"/></clipPath></defs></svg>