<svg xmlns="http://www.w3.org/2000/svg" width="139" height="28" fill="none" viewBox="0 0 139 28"><g fill="#231f20" clip-path="url(#a)"><path d="M18.036 5.923v5.506l1.953 1.205h.21l8.288-5.56c0-.681-.633-1.151-.95-1.151z"/><path d="m18.036 13.475 1.743 1.205c.263.16.526 0 .526 0-.316.16 8.129-5.4 8.129-5.4V19.35c0 1.102-.687 1.572-1.477 1.572h-8.921zM47.434 24.642c-2.956 0-5.279-.943-7.072-2.883s-2.64-4.457-2.64-7.5c0-3.304.897-5.98 2.694-7.92 1.792-1.993 4.276-2.99 7.388-2.99 2.85 0 5.172.944 6.915 2.884s2.64 4.404 2.64 7.5c0 3.357-.896 6.029-2.693 7.969-1.796 1.997-4.222 2.94-7.232 2.94m.21-19.087c-2.163 0-3.96.788-5.333 2.36q-2.06 2.36-2.06 6.136c0 2.516.687 4.562 2.007 6.135s3.063 2.308 5.172 2.308q3.407 0 5.382-2.202c1.32-1.466 1.953-3.566 1.953-6.188q0-4.09-1.9-6.294c-1.262-1.52-3.001-2.255-5.221-2.255M72.348 24.328h-2.376V22.02h-.054q-1.503 2.673-4.592 2.675c-3.536 0-5.28-2.099-5.28-6.294v-8.81h2.377v8.443c0 3.092 1.213 4.668 3.59 4.668q1.742 0 2.849-1.258c.74-.837 1.11-1.94 1.11-3.357V9.59h2.376zM83.274 24.173q-.871.472-2.216.473c-2.586 0-3.906-1.417-3.906-4.3V11.64h-2.533V9.648h2.533v-3.62l2.376-.787v4.354h3.746v1.993h-3.746v8.284c0 .996.16 1.678.527 2.099.316.42.896.629 1.69.629.58 0 1.11-.16 1.53-.474zM8.904 10.906c-.58 0-1.056.261-1.426.837s-.527 1.311-.527 2.202c0 .943.16 1.679.527 2.201.37.523.793.838 1.373.838q.87 0 1.426-.788c.37-.523.527-1.258.527-2.202 0-.996-.16-1.732-.527-2.308-.316-.466-.79-.78-1.373-.78"/><path d="M.565 3.145v21.448L16.983 28V0zm10.978 14.366c-.686.89-1.583 1.364-2.693 1.364s-1.953-.42-2.64-1.311c-.686-.89-1.002-2.046-1.002-3.46 0-1.466.37-2.675 1.056-3.619.687-.943 1.636-1.364 2.746-1.364s1.953.42 2.64 1.311c.686.89 1.003 2.047 1.003 3.46-.053 1.523-.423 2.675-1.11 3.619M88.816 2.516h-2.377v21.816h2.377zM99.058 24.643q-3.325 0-5.226-2.047c-1.32-1.364-1.952-3.198-1.952-5.453q0-3.694 2.06-5.82c1.373-1.417 3.219-2.1 5.541-2.1 2.217 0 3.96.683 5.173 2.047s1.846 3.251 1.846 5.612c0 2.36-.687 4.248-2.006 5.661-1.37 1.418-3.166 2.1-5.436 2.1m.16-13.422c-1.529 0-2.746.523-3.642 1.52-.897 1.049-1.32 2.462-1.32 4.247 0 1.732.477 3.145 1.373 4.142s2.113 1.52 3.59 1.52c1.529 0 2.693-.474 3.536-1.467s1.212-2.414 1.212-4.195c0-1.834-.423-3.251-1.212-4.248-.794-.996-1.953-1.52-3.536-1.52M115.683 24.643q-3.326 0-5.227-2.047c-1.319-1.364-1.952-3.198-1.952-5.453q0-3.694 2.059-5.82c1.374-1.417 3.22-2.1 5.543-2.1 2.216 0 3.959.683 5.172 2.047s1.846 3.251 1.846 5.612c0 2.36-.687 4.248-2.006 5.661-1.37 1.418-3.166 2.1-5.435 2.1m.213-13.422c-1.53 0-2.746.523-3.643 1.52-.896 1.049-1.319 2.462-1.319 4.247 0 1.732.476 3.145 1.373 4.142.896.997 2.113 1.52 3.589 1.52 1.53 0 2.693-.474 3.536-1.467s1.213-2.414 1.213-4.195c0-1.834-.423-3.251-1.213-4.248-.847-.996-2.006-1.52-3.536-1.52M138.431 24.328h-3.322l-6.546-7.079h-.053v7.079h-2.376V2.516h2.376V16.36h.053l6.229-6.764h3.113l-6.862 7.131z"/></g><defs><clipPath id="a"><path fill="#fff" d="M0 0h139v28H0z"/></clipPath></defs></svg>