<svg xmlns="http://www.w3.org/2000/svg" width="67" height="28" fill="none" viewBox="0 0 67 28"><g fill="#231f20" clip-path="url(#a)"><path fill-rule="evenodd" d="M66.996 14.463c0-4.784-2.307-8.558-6.718-8.558-4.43 0-7.11 3.774-7.11 8.52 0 5.625 3.165 8.466 7.706 8.466 2.214 0 3.889-.505 5.154-1.215V17.94c-1.265.635-2.717 1.028-4.559 1.028-1.805 0-3.406-.636-3.61-2.84h9.1c0-.244.037-1.215.037-1.664m-9.193-1.775c0-2.112 1.284-2.99 2.456-2.99 1.136 0 2.345.878 2.345 2.99zM45.985 5.905c-1.823 0-2.996.86-3.647 1.457l-.242-1.158h-4.094v21.788l4.652-.99.019-5.288c.67.486 1.656 1.177 3.294 1.177 3.331 0 6.365-2.691 6.365-8.615-.02-5.419-3.09-8.371-6.347-8.371M44.87 18.78c-1.098 0-1.75-.393-2.196-.878l-.019-6.933c.484-.542 1.154-.916 2.215-.916 1.693 0 2.866 1.906 2.866 4.354 0 2.504-1.154 4.373-2.866 4.373M31.6 4.802l4.671-1.009V0L31.6.99z" clip-rule="evenodd"/><path d="M36.271 6.223H31.6v16.35h4.671z"/><path fill-rule="evenodd" d="m26.594 7.605-.298-1.383h-4.02v16.351h4.653v-11.08c1.098-1.44 2.959-1.178 3.536-.973V6.222c-.596-.224-2.773-.635-3.871 1.383m-9.305-5.438-4.541.972-.019 14.968c0 2.766 2.066 4.803 4.82 4.803 1.526 0 2.643-.28 3.257-.617V18.5c-.596.242-3.536 1.102-3.536-1.663v-6.634h3.536v-3.98H17.27zM4.708 10.969c0-.729.596-1.01 1.582-1.01 1.415 0 3.201.43 4.616 1.197V6.764c-1.545-.616-3.071-.86-4.616-.86-3.778 0-6.29 1.982-6.29 5.29 0 5.157 7.072 4.334 7.072 6.558 0 .86-.745 1.14-1.787 1.14-1.544 0-3.517-.635-5.08-1.495v4.448a12.9 12.9 0 0 0 5.08 1.065c3.871 0 6.532-1.925 6.532-5.27-.018-5.569-7.109-4.578-7.109-6.671" clip-rule="evenodd"/></g><defs><clipPath id="a"><path fill="#fff" d="M0 0h67v28H0z"/></clipPath></defs></svg>