<svg xmlns="http://www.w3.org/2000/svg" width="137" height="28" fill="none" viewBox="0 0 137 28"><path fill="#231f20" d="M8.495 19.514A7.46 7.46 0 0 1 6.119 14c0-2.197.868-4.118 2.283-5.513a3.067 3.067 0 0 0 0-4.392c-1.233-1.236-3.15-1.236-4.383 0C1.576 6.635 0 10.136 0 14.001s1.576 7.366 4.11 9.905c1.232 1.235 3.15 1.235 4.385 0a3.294 3.294 0 0 0 0-4.392"/><path fill="#231f20" d="M8.492 8.488C9.884 7 11.825 6.13 13.994 6.13c2.17 0 4.11.87 5.502 2.289 1.234 1.235 3.152 1.235 4.385 0a3.07 3.07 0 0 0 0-4.393C21.346 1.58 17.853 0 13.994 0S6.642 1.579 4.107 4.117c-1.232 1.237-1.232 3.158 0 4.393a3.304 3.304 0 0 0 4.385-.022m11.004 11.024c-1.392 1.488-3.333 2.356-5.502 2.356-2.17 0-4.11-.868-5.502-2.287-1.234-1.235-3.152-1.235-4.385 0s-1.232 3.157 0 4.393C6.642 26.42 10.135 28 13.994 28s7.352-1.579 9.887-4.119a3.07 3.07 0 0 0 0-4.391 3.304 3.304 0 0 0-4.385.022"/><path fill="#707070" d="M6.3 9.356c1.69 0 3.06-1.373 3.06-3.065A3.063 3.063 0 0 0 6.3 3.225a3.063 3.063 0 0 0-3.06 3.066A3.063 3.063 0 0 0 6.3 9.356m0 15.419c1.69 0 3.06-1.373 3.06-3.066a3.06 3.06 0 0 0-3.06-3.065 3.06 3.06 0 0 0-3.06 3.065 3.063 3.063 0 0 0 3.06 3.066"/><path fill="#231f20" d="M37.63 16.883c.866-.71 1.05-.252 1.758.434.342.344 1.392 1.053.706 1.579-1.392 1.143-2.625 1.67-4.452 1.67-4.018 0-6.918-3.065-6.736-7.022.091-1.831.777-3.501 2.192-4.645 1.303-1.052 2.877-1.579 4.544-1.487.868 0 1.576.184 2.352.435.526.183 1.05.434 1.485.777.866.71.433 1.054-.184 1.761-.182.185-.25.345-.433.436-.342.343-.617.617-1.05.252-.868-.619-2.1-.961-3.151-.71-3.494.87-3.335 7.091.959 7.091.684.138 1.483-.113 2.01-.571m97.178 3.432c-.617 0-1.05-.436-1.05-1.053V5.492c0-.619.433-1.053 1.05-1.053h1.142c.617 0 1.05.434 1.05 1.052v13.771c0 .617-.433 1.052-1.05 1.052zm-6.028-1.58c-1.234 1.144-2.444 1.762-4.201 1.762-3.585 0-5.252-2.974-5.252-6.222V8.67c0-.618.434-1.052 1.05-1.052h1.141c.617 0 1.052.434 1.052 1.052v5.605c0 1.83.958 3.248 2.967 3.248 1.918 0 3.152-1.67 3.152-3.408V8.67c0-.618.433-1.052 1.05-1.052h1.142c.617 0 1.05.434 1.05 1.052v10.592c0 .617-.433 1.052-1.05 1.052h-.959c-.617 0-.959-.526-1.051-1.052zM115.126 7.687h2.191c.617 0 1.051.525 1.051 1.052v.71c0 .616-.434 1.052-1.051 1.052h-2.191v8.761c0 .617-.435 1.052-1.05 1.052h-1.142c-.617 0-1.05-.435-1.05-1.052V7.252c0-2.63 1.483-4.735 4.201-4.986h1.667c.616 0 1.05.525 1.05 1.052v.708c0 .618-.434 1.052-1.05 1.052h-.868c-1.301 0-1.827.961-1.827 2.197v.434h.069zm-7.969 0h2.443c.617 0 1.05.434 1.05 1.052v.71c0 .616-.433 1.052-1.05 1.052h-2.443v5.33q0 1.578 1.575 1.578h.526c.617 0 1.05.434 1.05 1.053v.776c0 .619-.433 1.053-1.05 1.053h-1.485c-2.625-.183-3.767-1.83-3.767-4.46V5.49c0-.618.434-1.052 1.051-1.052h1.141c.616 0 1.05.434 1.05 1.052v2.196zm-35.073 0h2.444c.616 0 1.05.434 1.05 1.052v.71c0 .616-.434 1.052-1.05 1.052h-2.444v5.33c0 1.052.526 1.67 1.576 1.67h.526c.615 0 1.05.434 1.05 1.052v.71c0 .616-.434 1.051-1.05 1.051h-.708c-2.877 0-4.545-1.236-4.545-4.461V5.513c0-.617.435-1.051 1.05-1.051h1.142c.617 0 1.052.434 1.052 1.052v2.195c0-.022-.093-.022-.093-.022M57.836 9.173c1.142-1.143 2.443-1.761 4.02-1.761 3.584 0 5.434 2.882 5.434 6.223v5.627c0 .617-.435 1.052-1.05 1.052h-1.143c-.616 0-1.05-.435-1.05-1.052v-5.605c0-1.83-.96-3.248-2.969-3.248-1.917 0-3.15 1.578-3.15 3.408v5.445c0 .617-.434 1.052-1.05 1.052h-1.142c-.617 0-1.05-.435-1.05-1.052V8.648c0-.618.433-1.052 1.05-1.052h.959c.617 0 .96.525 1.05 1.052zm35.165 0c1.141-1.143 2.442-1.761 4.018-1.761 3.584 0 5.434 2.882 5.434 6.223v5.627c0 .617-.434 1.052-1.05 1.052h-1.142c-.617 0-1.05-.435-1.05-1.052v-5.605c0-1.83-.96-3.248-2.969-3.248-1.918 0-3.15 1.578-3.15 3.408v5.445c0 .617-.435 1.052-1.05 1.052h-1.143c-.616 0-1.05-.435-1.05-1.052V8.648c0-.618.434-1.052 1.05-1.052h.959c.617 0 .959.525 1.05 1.052zM47.059 7.344c-3.859 0-6.554 2.814-6.554 6.656 0 3.843 2.718 6.657 6.554 6.657 3.928 0 6.645-2.722 6.645-6.657 0-3.866-2.786-6.656-6.645-6.656m32.036 7.8c.251 1.761 2.01 2.54 3.675 2.54.777 0 1.667-.183 2.353-.527.091-.092.251-.092.342-.183.433-.252.777-.343 1.142 0l1.141 1.143c.526.71.184.87-.433 1.237-1.302.87-2.969 1.303-4.545 1.303-4.2 0-7.01-2.54-7.01-6.748 0-4.026 2.81-6.658 6.737-6.658 4.11 0 6.392 2.358 6.485 6.498 0 1.143.091 1.487-1.05 1.487h-8.837zm-32.036-4.826c2.01 0 3.333 1.76 3.333 3.682 0 2.013-1.232 3.592-3.333 3.592S43.726 16.013 43.726 14s1.324-3.682 3.333-3.682m32.103 2.105h6.554c-.25-1.67-1.576-2.289-3.15-2.289-1.645 0-2.947.8-3.404 2.288"/></svg>