<svg xmlns="http://www.w3.org/2000/svg" width="134" height="28" fill="none" viewBox="0 0 134 28"><path fill="#231f20" d="M60.035 14.133a3.366 3.366 0 0 0 3.536 3.189 4.96 4.96 0 0 0 3.694-1.701.35.35 0 0 1 .557-.052l1.276 1.379q.066.05.107.123a.39.39 0 0 1 .028.318.4.4 0 0 1-.083.141c-.266.435-2.1 2.763-5.877 2.763s-6.886-2.496-6.886-6.74a6.52 6.52 0 0 1 4.018-6.187 6.5 6.5 0 0 1 2.55-.503c4.146 0 6.22 2.497 6.22 6.85a.44.44 0 0 1-.27.402.4.4 0 0 1-.167.033h-8.71zm5.77-2.044c-.05-1.233-.822-2.444-2.713-2.444-1.542 0-2.714.77-3.005 2.444zm58.967 1.998a3.37 3.37 0 0 0 3.545 3.184 4.97 4.97 0 0 0 3.694-1.7.35.35 0 0 1 .557-.053l1.275 1.38a.4.4 0 0 1 .156.279.4.4 0 0 1-.104.303c-.265.435-2.1 2.763-5.876 2.763s-6.886-2.497-6.886-6.741a6.5 6.5 0 0 1 1.871-4.715 6.54 6.54 0 0 1 4.688-1.952c4.147 0 6.219 2.496 6.219 6.85a.44.44 0 0 1-.268.402.4.4 0 0 1-.168.033h-8.71zm5.766-2.035c-.052-1.233-.823-2.445-2.714-2.445-1.541 0-2.713.77-3.006 2.445zm-48.763 8.045a1.1 1.1 0 0 1-.915-.308 1.09 1.09 0 0 1-.308-.914V17.76h-.079c-.37.904-1.438 2.522-4.042 2.522-3.706 0-5.954-2.763-5.954-6.689 0-4.301 2.526-6.784 5.978-6.784 2.527 0 3.725 1.379 3.92 1.858h.052V7.419q-.009-.075.017-.148a.335.335 0 0 1 .353-.222h2.392a.35.35 0 0 1 .35.225.3.3 0 0 1 .02.145v9.839h.995a.3.3 0 0 1 .268.096.3.3 0 0 1 .072.127.3.3 0 0 1 .004.147v2.08a.33.33 0 0 1-.087.264c-.067.07-.16.124-.247.105h-2.788zM80.17 13.62c0-2.496-1.355-3.77-3.048-3.77-1.887 0-3.163 1.487-3.163 3.796 0 2.31 1.356 3.7 3.163 3.7 1.615 0 3.049-1.248 3.049-3.718zm-24.615-3.47a7.64 7.64 0 0 1 2.118-2.68.27.27 0 0 0 .06-.25.27.27 0 0 0-.181-.186 9.7 9.7 0 0 0-1.812-.182c-4.333 0-5.372 3.453-5.372 3.453h-.104v-2.96a.37.37 0 0 0-.37-.37H45.94a.37.37 0 0 0-.37.37v2.07q-.009.076.015.148.027.071.08.126a.34.34 0 0 0 .275.096h1.306v7.457h-.964a.326.326 0 0 0-.37.37v2.07a.35.35 0 0 0 .224.349.4.4 0 0 0 .146.021h5.402a.37.37 0 0 0 .37-.37v-2.07a.37.37 0 0 0-.37-.37h-.92v-3.24c0-1.804 2.178-3.875 4.525-3.653a.28.28 0 0 0 .274-.188zm42.918 7.064V3.217a.33.33 0 0 0-.37-.37h-3.92a.34.34 0 0 0-.292.086.34.34 0 0 0-.108.284v2.07a.345.345 0 0 0 .4.37h.87v1.912l.052 1.085h-.052c-.239-.493-1.275-1.884-3.668-1.884-3.705 0-6.062 2.763-6.062 6.664 0 4.327 2.526 6.784 5.978 6.784 2.5 0 3.803-1.619 4.014-2.149h.052v1.305a.68.68 0 0 0 .68.678h1.872a.535.535 0 0 0 .537-.535v-2.282zm-6.484.025c-1.913 0-3.163-1.54-3.163-3.824s1.354-3.663 3.162-3.663c1.621 0 3.049 1.196 3.049 3.7s-1.32 3.797-3.049 3.797zm28.558.01h-.98v-5.763c0-2.736-1.542-4.671-4.413-4.671-2.87 0-3.775 1.83-4.013 2.174-.64-1.326-1.943-2.174-3.83-2.174-2.965 0-3.881 2.044-4.015 2.282h-.077V7.559a.475.475 0 0 0-.347-.552.5.5 0 0 0-.236-.005h-1.916a.58.58 0 0 0-.578.579v11.681a.8.8 0 0 0 .801.8h3.681a.37.37 0 0 0 .37-.37v-2.074a.327.327 0 0 0-.37-.37h-.923v-5.631a2.37 2.37 0 0 1 2.338-1.74c1.704 0 2.178 1.114 2.178 2.736v7.125a.305.305 0 0 0 .308.313h4.19a.35.35 0 0 0 .35-.224.3.3 0 0 0 .02-.146v-2.06a.326.326 0 0 0-.37-.37h-.954v-5.338a3 3 0 0 0-.078-.506 2.275 2.275 0 0 1 2.21-1.513c1.675 0 2.177 1.113 2.177 2.736v6.21a1.23 1.23 0 0 0 .359.865 1.2 1.2 0 0 0 .865.357h3.266a.37.37 0 0 0 .37-.37v-2.074a.3.3 0 0 0-.013-.153.326.326 0 0 0-.366-.215zM35.347 0h-9.348c-1.564 0-3.082.53-4.303 1.505a6.87 6.87 0 0 0-2.418 3.86A6.89 6.89 0 0 0 12.556 0H3.214A3.213 3.213 0 0 0 0 3.207v16.426a3.214 3.214 0 0 0 3.214 3.207h6c6.838 0 8.894 1.643 9.857 5.024q.016.061.067.1a.18.18 0 0 0 .114.035h.036a.18.18 0 0 0 .181-.135c.984-3.38 3.027-5.024 9.857-5.024h6a3.213 3.213 0 0 0 3.214-3.208V3.207A3.21 3.21 0 0 0 35.347 0M16.192 17.727a.23.23 0 0 1-.232.231H5.23a.233.233 0 0 1-.231-.23V16.2a.23.23 0 0 1 .231-.23h10.73a.23.23 0 0 1 .232.23zm0-4.068a.23.23 0 0 1-.232.231H5.23a.233.233 0 0 1-.23-.23v-1.528a.23.23 0 0 1 .231-.23h10.73a.23.23 0 0 1 .232.23zm0-4.068a.23.23 0 0 1-.232.231H5.23a.23.23 0 0 1-.23-.23V8.063a.23.23 0 0 1 .231-.23h10.73a.23.23 0 0 1 .232.23zm17.348 8.141a.23.23 0 0 1-.232.231h-10.73a.23.23 0 0 1-.231-.23v-1.54a.23.23 0 0 1 .231-.23h10.73a.23.23 0 0 1 .231.23zm0-4.068a.23.23 0 0 1-.232.231h-10.73a.233.233 0 0 1-.231-.23v-1.528a.23.23 0 0 1 .231-.23h10.73a.23.23 0 0 1 .231.23zm0-4.068a.23.23 0 0 1-.232.231h-10.73a.23.23 0 0 1-.231-.23V8.063a.23.23 0 0 1 .231-.23h10.73a.23.23 0 0 1 .232.23z"/></svg>