<svg xmlns="http://www.w3.org/2000/svg" width="110" height="28" fill="none" viewBox="0 0 110 28"><g clip-path="url(#a)"><path fill="#000" d="m35.231 21.937 1.37-3.175c1.48 1.103 3.445 1.676 5.389 1.676 1.436 0 2.341-.551 2.341-1.39-.022-2.336-8.592-.506-8.658-6.37-.022-2.977 2.628-5.27 6.383-5.27 2.231 0 4.462.551 6.053 1.808l-1.282 3.24c-1.457-.925-3.269-1.587-4.992-1.587-1.17 0-1.943.552-1.943 1.257.022 2.293 8.658 1.036 8.747 6.636 0 3.043-2.585 5.181-6.296 5.181-2.717 0-5.212-.639-7.112-2.006m52.548-4.321a3.98 3.98 0 0 1-3.446 2.006 3.946 3.946 0 1 1 0-7.893c1.48 0 2.761.816 3.446 2.007l3.777-2.095c-1.413-2.513-4.13-4.233-7.223-4.233-4.572 0-8.283 3.704-8.283 8.268 0 4.563 3.711 8.267 8.283 8.267a8.24 8.24 0 0 0 7.223-4.233zM50.54.55h4.726v23.084h-4.727zm42.873 0v23.084h4.727v-6.923l5.61 6.923h6.052l-7.134-8.224 6.604-7.672h-5.787l-5.345 6.371V.551zM69.313 17.66c-.684 1.124-2.098 1.962-3.689 1.962a3.946 3.946 0 1 1 0-7.893c1.59 0 3.005.882 3.69 2.029zm0-9.921v1.874c-.773-1.301-2.695-2.205-4.704-2.205-4.153 0-7.422 3.66-7.422 8.246s3.269 8.29 7.422 8.29c2.01 0 3.931-.904 4.704-2.205v1.874h4.727V7.739z"/><path fill="#e01e5a" d="M6.008 17.638a2.91 2.91 0 0 1-2.916 2.91 2.91 2.91 0 1 1 0-5.82h2.916zm1.458 0a2.91 2.91 0 0 1 2.916-2.91 2.91 2.91 0 0 1 2.915 2.91v7.275a2.91 2.91 0 0 1-2.915 2.91 2.91 2.91 0 0 1-2.916-2.91z"/><path fill="#36c5f0" d="M10.382 5.953a2.91 2.91 0 1 1 0-5.82 2.91 2.91 0 0 1 2.915 2.91v2.91zm0 1.477a2.91 2.91 0 1 1 0 5.82H3.07a2.91 2.91 0 1 1 0-5.82z"/><path fill="#2eb67d" d="M22.067 10.34a2.91 2.91 0 0 1 2.915-2.91 2.91 2.91 0 1 1 0 5.82h-2.915zm-1.458 0a2.91 2.91 0 0 1-2.916 2.91 2.91 2.91 0 0 1-2.916-2.91V3.043a2.91 2.91 0 0 1 2.916-2.91 2.91 2.91 0 0 1 2.916 2.91z"/><path fill="#ecb22e" d="M17.693 22.003a2.91 2.91 0 1 1 0 5.82 2.91 2.91 0 0 1-2.916-2.91v-2.91zm0-1.455a2.91 2.91 0 1 1 0-5.82h7.311a2.91 2.91 0 1 1 0 5.82z"/></g><defs><clipPath id="a"><path fill="#fff" d="M0 0h110v28H0z"/></clipPath></defs></svg>