<svg xmlns="http://www.w3.org/2000/svg" width="109" height="28" fill="none" viewBox="0 0 109 28"><g clip-path="url(#a)"><mask id="b" width="109" height="28" x="0" y="0" maskUnits="userSpaceOnUse" style="mask-type:luminance"><path fill="#fff" d="M109 .28H0v27.44h109z"/></mask><g mask="url(#b)"><path fill="#231f20" d="M35.196 10.992c0-1.954-1.901-4.03-5.192-4.03-3.695 0-7.754 2.709-8.374 8.112-.634 5.457 2.765 7.882 6.19 7.882s5.218-1.334 7.052-3.112c-1.577-1.98-3.614-1.065-4.005-.863-.431.216-.984.512-2.117.512-1.321 0-2.67-.592-2.67-3.058 8.469-.835 9.116-3.49 9.116-5.443m-4.194.323c-.054.606-.296 1.644-4.585 2.223.904-3.207 2.63-3.45 3.425-3.45.742 0 1.214.58 1.16 1.227m-14.348.525s-1.82 5.713-1.969 6.185c-.054-.485-1.389-10.739-1.389-10.739-3.101 0-4.76 2.21-5.636 4.54l-2.4 6.212c-.014-.444-.338-6.144-.338-6.144C4.733 9.038 2.117 7.3 0 7.3l2.562 15.535c3.25-.014 5.003-2.21 5.92-4.54 0 0 1.956-5.053 2.036-5.282.014.215 1.403 9.822 1.403 9.822 3.263 0 5.016-2.062 5.96-4.312L22.453 7.3c-3.223 0-4.922 2.196-5.799 4.54m30.517-4.904c-2.01 0-3.547 1.091-4.841 2.695v-.014L43.49.28c-2.67 0-4.842 2.317-5.26 5.767l-2.022 16.667c1.537 0 3.168-.445 4.045-1.577.782 1.01 1.955 1.82 3.695 1.82 4.504 0 7.592-5.229 7.592-10.133-.027-4.473-2.198-5.888-4.37-5.888m-.418 8.017c-.472 2.735-1.996 4.594-3.466 4.594-1.483 0-2.117-.66-2.117-.66.283-2.398.459-3.867.998-5.133.54-1.267 1.82-3.288 3.155-3.288 1.308 0 1.902 1.738 1.43 4.487M62.787 7.3h-3.142l.013-.162c.216-2.048.701-3.126 2.306-3.301 1.092-.108 1.578-.674 1.7-1.294.094-.485.39-2.169.39-2.169-6.311-.04-8.293 2.681-8.806 6.831l-.013.095h-.068c-1.024 0-2.157 1.158-2.346 2.627l-.067.539h2.103l-1.766 14.579-.54 2.614c.068 0 .149.013.216.013 2.953-.108 4.841-2.439 5.26-5.82l1.375-11.386h.984c.971 0 2.104-.97 2.306-2.587zm16.344-.27c-3.628 0-7.053 2.668-8.105 6.858s.54 9.15 5.88 9.15c5.326 0 8.4-5.161 8.4-9.46 0-4.27-2.899-6.548-6.175-6.548m1.47 7.788c-.19 1.9-1.025 4.783-3.318 4.783-2.306 0-1.982-3.368-1.753-4.972.242-1.71 1.2-4.15 3.263-4.15 1.848 0 2.023 2.197 1.807 4.34m22.628-2.978s-1.821 5.713-1.97 6.185c-.053-.485-1.388-10.739-1.388-10.739-3.102 0-4.76 2.21-5.637 4.54l-2.4 6.212c-.014-.444-.338-6.144-.338-6.144-.188-2.856-2.804-4.594-4.922-4.594l2.549 15.535c3.25-.014 5.003-2.21 5.92-4.54 0 0 1.955-5.053 2.023-5.282.013.215 1.402 9.822 1.402 9.822 3.263 0 5.016-2.062 5.961-4.312L109 7.3c-3.21 0-4.908 2.196-5.771 4.54M65.754.374 63.11 21.676l-.539 2.628c.067 0 .148.013.216.013 2.845-.04 4.868-2.533 5.245-5.672l1.524-12.221c.459-3.732-1.766-6.05-3.802-6.05"/></g></g><defs><clipPath id="a"><path fill="#fff" d="M0 0h109v28H0z"/></clipPath></defs></svg>