<svg xmlns="http://www.w3.org/2000/svg" width="97" height="28" fill="none" viewBox="0 0 97 28"><path fill="#231f20" d="M0 5.22h3.382v7.48h7.135V5.22h3.385v18.363h-3.385v-7.638H3.382v7.638H0zM24.617 17.601a2.8 2.8 0 0 1-2.802 2.788c-1.544 0-2.8-1.25-2.8-2.788V9.694h-3.209v7.907c0 3.298 2.696 5.981 6.01 5.981 3.312 0 6.008-2.683 6.008-5.981V9.694h-3.207zM36.78 9.788c-1.592 0-2.703.46-3.775 1.508V5.22h-3.218v11.262c0 4.215 3.062 7.101 6.5 7.101 3.824 0 7.175-2.938 7.175-6.897 0-3.909-3.09-6.898-6.682-6.898m.079 10.83c-2.18 0-3.847-1.811-3.847-3.932s1.667-3.935 3.847-3.935c1.848 0 3.517 1.814 3.517 3.935s-1.669 3.933-3.517 3.933M48.835 10.676c0-1.61 1.078-2.12 2.258-2.12.95 0 2.207.714 3.027 1.584l2.104-2.453c-1.051-1.404-3.181-2.375-4.925-2.375-3.491 0-6.006 2.018-6.006 5.364 0 6.208 7.673 4.24 7.673 7.715 0 1.072-1.052 2.018-2.257 2.018-1.899 0-2.516-.92-3.388-1.89l-2.336 2.4c1.49 1.815 3.336 2.734 5.544 2.734 3.31 0 5.979-2.043 5.979-5.237 0-6.897-7.673-4.751-7.673-7.74M65.01 9.608c-3.439 0-6.501 2.885-6.501 7.1V28h3.218v-6.106c1.072 1.048 2.182 1.508 3.774 1.508 3.592 0 6.683-2.989 6.683-6.897 0-3.96-3.352-6.897-7.174-6.897m.571 10.831c-2.18 0-3.847-1.816-3.847-3.934 0-2.121 1.667-3.934 3.847-3.934 1.847 0 3.516 1.813 3.516 3.934 0 2.118-1.669 3.934-3.516 3.934M95.87 20.619c-1.897 0-2.437-.817-2.437-2.07v-5.542h2.95v-2.81h-2.95V6.493l-3.258 1.455v11.291c0 2.888 2.002 4.344 4.746 4.344.41 0 .976-.027 1.284-.102L97 20.568c-.359.025-.77.051-1.13.051"/><path fill="#231f20" d="M87.384 13.17c-.617-1.056-1.484-1.903-2.57-2.541a6.9 6.9 0 0 0-2.598-.896V6.376a2.48 2.48 0 0 0 1.535-2.32 2.547 2.547 0 0 0-2.55-2.552 2.564 2.564 0 0 0-2.57 2.552c0 1.033.554 1.92 1.5 2.32v3.358a7.5 7.5 0 0 0-2.26.706c-1.467-1.108-6.273-4.744-9.085-6.867.067-.24.118-.487.118-.747 0-1.56-1.27-2.826-2.838-2.826a2.83 2.83 0 0 0-2.838 2.826 2.83 2.83 0 0 0 2.84 2.826c.535 0 1.029-.155 1.456-.41l.593.446 8.154 5.85c-.431.393-.833.841-1.153 1.345-.651 1.025-1.048 2.153-1.048 3.383v.256c0 .864.164 1.679.445 2.445a6.4 6.4 0 0 0 1.057 1.827l-2.707 2.7a2.19 2.19 0 0 0-2.304.504 2.17 2.17 0 0 0-.643 1.545c0 .583.228 1.131.644 1.544.414.413.965.64 1.55.64.587 0 1.137-.227 1.553-.64a2.17 2.17 0 0 0 .54-2.2l2.798-2.785a7.2 7.2 0 0 0 1.243.678 7.3 7.3 0 0 0 2.908.607h.195a6.9 6.9 0 0 0 3.319-.834 6.86 6.86 0 0 0 2.6-2.439c.652-1.038 1.01-2.184 1.01-3.446v-.063c0-1.24-.288-2.385-.894-3.434m-3.418 5.842c-.759.84-1.63 1.357-2.617 1.357h-.163c-.563 0-1.114-.155-1.654-.437-.608-.31-1.071-.752-1.449-1.313-.391-.55-.604-1.152-.604-1.789v-.193c0-.626.121-1.22.425-1.781a3.87 3.87 0 0 1 1.35-1.47 3.3 3.3 0 0 1 1.868-.56h.064c.619 0 1.205.12 1.758.403.562.3 1.022.71 1.38 1.25a4 4 0 0 1 .619 1.756c.01.132.015.267.015.396 0 .86-.33 1.657-.992 2.381"/></svg>