<svg xmlns="http://www.w3.org/2000/svg" width="110" height="28" fill="none" viewBox="0 0 110 28"><path fill="#231f20" d="M35.52 10.95c0-1.998-1.92-4.119-5.24-4.119-3.73 0-7.825 2.769-8.45 8.291-.64 5.578 2.79 8.058 6.245 8.058 3.458 0 5.268-1.364 7.118-3.182-1.593-2.025-3.647-1.088-4.042-.881-.435.22-.994.523-2.136.523-1.335 0-2.694-.606-2.694-3.126 8.546-.854 9.199-3.568 9.199-5.565m-4.233.33c-.054.62-.299 1.68-4.627 2.272.912-3.278 2.653-3.525 3.457-3.525.748 0 1.225.592 1.17 1.253m-14.48.537s-1.837 5.84-1.986 6.322c-.055-.496-1.402-10.977-1.402-10.977-3.13 0-4.805 2.259-5.69 4.641 0 0-2.23 5.854-2.421 6.35-.014-.455-.34-6.28-.34-6.28C4.777 8.952 2.136 7.175 0 7.175l2.586 15.88c3.28-.014 5.05-2.26 5.975-4.642 0 0 1.973-5.165 2.054-5.399.015.22 1.416 10.04 1.416 10.04 3.294 0 5.062-2.107 6.014-4.407L22.66 7.176c-3.253 0-4.967 2.245-5.852 4.641m30.798-5.013c-2.029 0-3.58 1.115-4.887 2.754v-.014L43.89 0c-2.696 0-4.887 2.369-5.308 5.895l-2.041 17.037c1.55 0 3.198-.455 4.082-1.612.79 1.033 1.974 1.86 3.728 1.86 4.546 0 7.662-5.344 7.662-10.357-.027-4.573-2.218-6.02-4.408-6.02m-.423 8.194c-.476 2.796-2.014 4.697-3.497 4.697-1.497 0-2.137-.675-2.137-.675.286-2.451.462-3.953 1.007-5.247s1.837-3.36 3.185-3.36c1.32 0 1.918 1.776 1.442 4.586m16.182-7.822h-3.172l.014-.166c.217-2.093.708-3.195 2.327-3.374 1.103-.11 1.592-.689 1.715-1.322.094-.496.394-2.218.394-2.218-6.369-.04-8.37 2.741-8.886 6.983l-.013.097h-.068c-1.035 0-2.178 1.184-2.369 2.685l-.068.551h2.123l-1.783 14.902-.544 2.672c.068 0 .15.014.218.014 2.98-.11 4.885-2.493 5.307-5.95l1.388-11.638h.993c.98 0 2.124-.991 2.328-2.644zM79.857 6.9c-3.661 0-7.117 2.727-8.178 7.01-1.062 4.284.544 9.352 5.933 9.352 5.375 0 8.478-5.275 8.478-9.668 0-4.366-2.926-6.694-6.233-6.694m1.484 7.96c-.191 1.943-1.035 4.89-3.349 4.89-2.326 0-2-3.443-1.769-5.082.245-1.75 1.212-4.242 3.294-4.242 1.865 0 2.041 2.245 1.824 4.435m22.835-3.043s-1.838 5.84-1.987 6.322c-.055-.496-1.401-10.977-1.401-10.977-3.13 0-4.804 2.259-5.689 4.641l-2.422 6.35c-.014-.455-.34-6.28-.34-6.28-.191-2.92-2.832-4.697-4.968-4.697l2.572 15.88c3.28-.014 5.048-2.26 5.975-4.642 0 0 1.973-5.165 2.041-5.399.013.22 1.415 10.04 1.415 10.04 3.293 0 5.063-2.107 6.015-4.407L110 7.176c-3.239 0-4.953 2.245-5.824 4.641M66.356.097 63.69 21.87l-.545 2.686c.068 0 .15.014.219.014 2.87-.042 4.912-2.59 5.293-5.799L70.195 6.28c.463-3.815-1.783-6.184-3.838-6.184"/></svg>