<svg xmlns="http://www.w3.org/2000/svg" width="123" height="28" fill="none" viewBox="0 0 123 28"><g clip-path="url(#a)"><path fill="#231f20" d="M13.037 27.573q-5.557 0-9.127-3.81Q.377 19.917.377 14.02q0-5.934 3.46-9.816Q7.295.32 13 .32q4.71 0 7.544 2.491 2.871 2.454 3.312 6.337h-5.3q-.367-2.015-1.84-3.187-1.434-1.172-3.716-1.172-3.497 0-5.337 2.564t-1.84 6.666q0 4.065 1.95 6.63 1.988 2.565 5.263 2.564 2.319 0 3.864-1.246 1.546-1.28 1.804-3.37h5.226q-.222 3.7-2.908 6.19-2.98 2.785-7.986 2.785m29.61-.55h-4.82v-2.198h-.11q-1.032 1.392-2.282 2.052-1.215.66-3.129.659-3.09 0-4.82-1.832-1.73-1.83-1.73-4.944V8.233h4.968v11.684q0 3.407 3.128 3.407 1.73 0 2.76-1.173 1.03-1.17 1.03-3.076V8.233h5.006zm10.525.55q-4.049 0-6.33-1.759-2.281-1.794-2.502-4.871h4.637q.479 3.113 4.121 3.113 1.656 0 2.54-.586.92-.586.92-1.575 0-.366-.147-.66-.11-.292-.442-.512a3.5 3.5 0 0 0-.552-.403q-.22-.146-.81-.293-.588-.146-.92-.22-.294-.073-1.067-.183a26 26 0 0 1-1.03-.22 27 27 0 0 1-2.54-.586 13 13 0 0 1-2.024-.915q-1.067-.623-1.62-1.649-.514-1.062-.514-2.527 0-2.93 2.134-4.469 2.172-1.538 5.557-1.538 3.644 0 5.705 1.685 2.097 1.649 2.392 4.542h-4.527q-.294-2.748-3.643-2.747-1.51 0-2.392.55-.847.548-.847 1.537 0 .33.11.623.148.257.442.476.331.184.626.33.294.11.846.256.552.11.957.22.405.073 1.104.22.699.11 1.104.183 1.177.257 1.914.476.773.183 1.766.66.994.439 1.546 1.025.588.55.994 1.538.441.953.441 2.235 0 2.784-2.208 4.432-2.17 1.611-5.741 1.612m8.376-16.044V8.233h2.613v-5.86h4.894v5.86h3.238v3.296h-3.238v9.963q0 1.868 1.877 1.868l1.472-.036v3.662q-1.14.075-3.128.074-2.171 0-3.644-1.026-1.47-1.062-1.471-3.48V11.53zm28.821 13.223q-2.76 2.82-7.103 2.82-4.342 0-7.103-2.82-2.76-2.856-2.76-7.106 0-4.249 2.76-7.069 2.76-2.857 7.103-2.857t7.103 2.857q2.76 2.82 2.76 7.07 0 4.248-2.76 7.105m-7.103-.989q2.245 0 3.496-1.648 1.29-1.685 1.289-4.469 0-2.784-1.289-4.468-1.251-1.686-3.496-1.685-2.282 0-3.533 1.685-1.25 1.648-1.25 4.468 0 2.784 1.25 4.469 1.251 1.648 3.533 1.648m11.822 3.26V8.233h4.82v2.527h.111q1.803-3.04 5.484-3.04 1.766 0 3.128.916a5.5 5.5 0 0 1 2.097 2.38h.074q2.061-3.296 5.667-3.296 2.944 0 4.564 1.795 1.656 1.758 1.656 4.871v12.637h-5.005V15.229q0-3.223-2.907-3.223-1.583 0-2.503 1.135-.883 1.1-.883 2.967v10.915h-5.005V15.229q0-3.223-2.907-3.223-1.51 0-2.466 1.135-.92 1.1-.92 2.967v10.915z"/></g><defs><clipPath id="a"><path fill="#fff" d="M0 0h123v28H0z"/></clipPath></defs></svg>