<svg xmlns="http://www.w3.org/2000/svg" width="104" height="28" fill="none" viewBox="0 0 104 28"><g clip-path="url(#a)"><mask id="b" width="104" height="28" x="0" y="0" maskUnits="userSpaceOnUse" style="mask-type:luminance"><path fill="#fff" d="M103.765.064H.235v27.872h103.53z"/></mask><g mask="url(#b)"><path fill="#231f20" d="M31.845 5.997a1.6 1.6 0 0 1 1.177.491c.321.315.498.746.49 1.194.008.442-.167.869-.485 1.18a1.58 1.58 0 0 1-1.16.488 1.6 1.6 0 0 1-1.185-.496 1.66 1.66 0 0 1-.49-1.207c0-.908.74-1.645 1.656-1.647zm-1.303 5.62h2.606v10.777h-2.606zm11.336 1.706-1.616 1.603q-.986-.978-1.793-.978a1.13 1.13 0 0 0-.687.185.554.554 0 0 0-.091.843q.35.304.778.486l.956.473q1.508.74 2.073 1.506c.9 1.284.706 3.03-.452 4.09q-1.018.92-2.728.919a4.35 4.35 0 0 1-3.619-1.76l1.616-1.733c.302.35.667.641 1.077.857.327.194.697.306 1.077.329a1.3 1.3 0 0 0 .832-.246.71.71 0 0 0 .315-.569q0-.597-1.136-1.164l-.878-.435q-2.52-1.26-2.52-3.153c-.007-.8.34-1.564.95-2.088a3.47 3.47 0 0 1 2.423-.868 4.23 4.23 0 0 1 3.42 1.704zm12.143.644-2.17 1.183a3.7 3.7 0 0 0-1.21-.881 3.7 3.7 0 0 0-1.4-.246 3.28 3.28 0 0 0-2.366.865 2.92 2.92 0 0 0-.905 2.216c-.026.802.29 1.578.87 2.136.616.576 1.44.882 2.286.85q1.75 0 2.724-1.183l2.058 1.396q-1.672 2.154-4.717 2.155-2.742 0-4.292-1.602a5.33 5.33 0 0 1-1.51-4.581 5.36 5.36 0 0 1 2.815-3.929 6.3 6.3 0 0 1 3.035-.729 6.2 6.2 0 0 1 2.779.612c.806.4 1.496.998 2.003 1.738m6.421-2.35a5.55 5.55 0 0 1 2.766.73 5.33 5.33 0 0 1 2.746 4.677 5.37 5.37 0 0 1-.73 2.726 5.25 5.25 0 0 1-1.984 1.987 5.54 5.54 0 0 1-2.779.716 5.2 5.2 0 0 1-3.815-1.579 5.2 5.2 0 0 1-1.58-3.831c-.014-2.969 2.391-5.392 5.384-5.426zm.044 2.435a2.7 2.7 0 0 0-2.022.839 2.96 2.96 0 0 0-.808 2.136 3.01 3.01 0 0 0 .808 2.179 2.68 2.68 0 0 0 2.022.833c.77.02 1.511-.287 2.038-.844.55-.587.84-1.368.807-2.168a2.97 2.97 0 0 0-.807-2.155 2.7 2.7 0 0 0-2.038-.82m7.062-2.168h2.636v4.961a6.8 6.8 0 0 0 .2 2.014c.116.352.342.658.645.875.323.216.707.326 1.096.313a1.9 1.9 0 0 0 1.107-.307c.317-.223.553-.54.676-.905q.16-.447.161-1.904v-5.047h2.606v4.366q0 2.7-.43 3.693a4.04 4.04 0 0 1-1.549 1.869 4.77 4.77 0 0 1-2.598.648q-1.71 0-2.765-.758a4 4 0 0 1-1.483-2.112q-.302-.945-.302-3.418zm10.853 0h2.235v1.298c.207-.469.54-.872.964-1.164.388-.261.848-.4 1.317-.398.37.008.732.099 1.06.267l-.807 2.227a1.8 1.8 0 0 0-.754-.227q-.603 0-1.018.74-.414.74-.414 2.896v4.665h-2.588zm12.957 1.44-1.616 1.602q-.983-.978-1.785-.978a1.13 1.13 0 0 0-.686.185.554.554 0 0 0-.092.843q.352.3.778.478l.956.473q1.507.74 2.073 1.506a3.12 3.12 0 0 1-.452 4.09q-1.018.92-2.728.919a4.35 4.35 0 0 1-3.629-1.762l1.615-1.733c.302.35.667.64 1.077.857.332.195.708.306 1.093.326.298.014.591-.072.832-.246a.71.71 0 0 0 .294-.556q0-.597-1.136-1.164l-.878-.435q-2.52-1.26-2.52-3.153c-.007-.8.34-1.564.95-2.088a3.47 3.47 0 0 1 2.424-.868 4.23 4.23 0 0 1 3.419 1.704zm12.382 4.458h-8.373a2.76 2.76 0 0 0 .97 1.747 3.06 3.06 0 0 0 2.01.649 3.49 3.49 0 0 0 2.512-1.012l2.198 1.022a5.2 5.2 0 0 1-1.968 1.71 6.2 6.2 0 0 1-2.723.552q-2.445 0-3.982-1.53a5.18 5.18 0 0 1-1.526-3.826 5.36 5.36 0 0 1 1.531-3.917 5.17 5.17 0 0 1 3.845-1.557q2.454 0 3.993 1.557 1.54 1.556 1.538 4.114zm-2.606-2.037a2.6 2.6 0 0 0-1.007-1.399 2.98 2.98 0 0 0-1.763-.534 3.14 3.14 0 0 0-1.915.606c-.424.36-.752.82-.956 1.335zM14.201.064C6.62.064.235 6.16.235 13.681v14.1L14.2 27.77c7.582 0 13.731-6.331 13.731-13.85S21.775.064 14.201.064"/><path fill="#f0ece3" d="M14.335 5.335a8.53 8.53 0 0 0-7.31 4.123 8.38 8.38 0 0 0-.172 8.338l-1.54 4.913 5.53-1.239a8.565 8.565 0 0 0 9.39-1.605 8.39 8.39 0 0 0 2.003-9.238c-1.295-3.196-4.42-5.29-7.893-5.292z"/><path fill="#8b8b8b" d="M20.99 18.998c-2.417 3.025-6.596 4.037-10.147 2.458l-5.53 1.255 5.63-.66c3.732 2.169 8.51 1.215 11.106-2.216a8.386 8.386 0 0 0-.961-11.195 8.38 8.38 0 0 1-.098 10.358"/><path fill="#4e4e4e" d="M20.514 17.395c-2.086 3.258-6.135 4.697-9.833 3.495l-5.368 1.821 5.53-1.241c3.939 1.764 8.586.32 10.804-3.358a8.39 8.39 0 0 0-2.126-11.028 8.384 8.384 0 0 1 .993 10.311"/><path fill="#6a6a6a" d="M7.361 17.983c-1.54-3.685-.27-7.936 3.046-10.193a8.566 8.566 0 0 1 10.686.848c-2.697-3.51-7.666-4.368-11.4-1.966-3.734 2.401-4.972 7.25-2.84 11.124l-1.54 4.913z"/><path fill="#717171" d="M6.853 17.796a8.39 8.39 0 0 1 1.962-10.44 8.57 8.57 0 0 1 10.706-.272c-3.056-3.192-8.072-3.518-11.523-.75a8.39 8.39 0 0 0-1.67 11.331l-1.012 5.047z"/></g></g><defs><clipPath id="a"><path fill="#fff" d="M0 0h104v28H0z"/></clipPath></defs></svg>