<svg xmlns="http://www.w3.org/2000/svg" width="119" height="28" fill="none" viewBox="0 0 119 28"><g clip-path="url(#a)"><mask id="b" width="119" height="28" x="0" y="0" maskUnits="userSpaceOnUse" style="mask-type:luminance"><path fill="#fff" d="M118.731 0H.269v28h118.462z"/></mask><g mask="url(#b)"><path fill="#231f20" fill-rule="evenodd" d="M13.71 0C6.297 0 .27 6.08.27 13.552c0 7.474 6.028 13.554 13.44 13.554 7.409 0 13.439-6.08 13.439-13.554C27.149 6.08 21.119 0 13.709 0m0 26.486C6.637 26.486.885 20.684.885 13.552.886 6.423 6.638.622 13.709.622c7.069 0 12.822 5.801 12.822 12.93 0 7.133-5.753 12.934-12.822 12.934m.2-11.917-3.459 10.138a11.44 11.44 0 0 0 7.086-.187 1 1 0 0 1-.081-.158zM2.18 13.552c0 4.603 2.652 8.581 6.496 10.465L3.177 8.822a11.7 11.7 0 0 0-.998 4.73m21.645-5.578q.076.557.077 1.197c0 1.18-.218 2.505-.877 4.165l-3.52 10.266a11.64 11.64 0 0 0 5.732-10.048c0-2.022-.511-3.924-1.412-5.58M107.53 19.76c-1.042 0-1.955-.551-2.345-.893-.132.131-.365.525-.417.893h-.496v-3.625h.522c.213 1.734 1.407 2.758 2.943 2.758.842 0 1.518-.472 1.518-1.26 0-.683-.601-1.21-1.666-1.708l-1.482-.709c-1.047-.5-1.826-1.366-1.826-2.522 0-1.261 1.176-2.339 2.789-2.339.86 0 1.587.316 2.029.684.13-.105.259-.394.339-.71h.494v3.1h-.546c-.182-1.235-.861-2.26-2.24-2.26-.728 0-1.406.42-1.406 1.077 0 .684.546 1.051 1.798 1.63l1.432.71c1.249.604 1.743 1.577 1.743 2.364 0 1.654-1.434 2.81-3.174 2.81zm-58.614 0c-2.865 0-5.21-2.128-5.21-4.729 0-2.574 2.345-4.702 5.21-4.702 2.866 0 5.21 2.128 5.21 4.702 0 2.6-2.344 4.729-5.21 4.729m66.635 0c-1.041 0-1.953-.551-2.342-.893-.132.131-.365.525-.416.893h-.497v-3.625h.522c.213 1.734 1.406 2.758 2.943 2.758.833 0 1.518-.472 1.518-1.26 0-.683-.596-1.21-1.666-1.708l-1.484-.709c-1.042-.5-1.823-1.366-1.823-2.522 0-1.261 1.172-2.339 2.786-2.339.86 0 1.589.316 2.033.684.13-.105.259-.394.339-.71h.494v3.1h-.546c-.182-1.235-.861-2.26-2.24-2.26-.731 0-1.406.42-1.406 1.077 0 .684.546 1.051 1.795 1.63l1.434.71c1.25.604 1.745 1.577 1.745 2.364 0 1.654-1.434 2.81-3.179 2.81zm-34.802-.867v.527h-5.966v-.527c1.746 0 2.059-.446 2.059-3.074v-4.204c0-2.626-.313-3.046-2.059-3.046v-.526h5.394c2.682 0 4.169 1.392 4.169 3.259 0 1.812-1.487 3.231-4.169 3.231h-1.486v1.286c0 2.628.313 3.074 2.058 3.074m-31.833-7.75c-2.397 0-3.23 2.18-3.23 3.888 0 1.735.833 3.889 3.23 3.889 2.423 0 3.256-2.154 3.256-3.889 0-1.708-.833-3.888-3.256-3.888m20.06-.472h-4.664v.498c1.459 0 1.692.316 1.692 2.18v3.364c0 1.865-.233 2.207-1.692 2.207-1.12-.157-1.876-.762-2.918-1.917l-1.198-1.314c1.614-.29 2.474-1.315 2.474-2.47 0-1.445-1.223-2.548-3.516-2.548h-4.585v.498c1.459 0 1.694.316 1.694 2.18v3.364c0 1.865-.235 2.207-1.694 2.207v.5h5.185v-.5c-1.459 0-1.694-.342-1.694-2.207v-.946h.442l2.892 3.653h7.581c3.726 0 5.34-1.997 5.34-4.389 0-2.39-1.614-4.36-5.34-4.36m33.266 6.28-.132.472c-.231.866-.518 1.181-2.37 1.181h-.36c-1.351 0-1.585-.315-1.585-2.18v-1.208c2.033 0 2.188.183 2.188 1.55h.497V12.85h-.498c0 1.367-.156 1.55-2.188 1.55v-2.942h1.432c1.851 0 2.138.315 2.373 1.181l.13.5h.416l-.183-2.47h-7.663v.5c1.458 0 1.694.315 1.694 2.18v3.363c0 1.706-.201 2.136-1.351 2.197-1.094-.168-1.842-.769-2.87-1.907l-1.2-1.314c1.616-.29 2.474-1.315 2.474-2.47 0-1.445-1.222-2.548-3.517-2.548h-4.581v.498c1.458 0 1.694.316 1.694 2.18v3.364c0 1.865-.233 2.207-1.694 2.207v.5h5.185v-.5c-1.46 0-1.694-.342-1.694-2.207v-.946h.444l2.891 3.653h10.704l.158-2.47h-.394m-33.188 1.653h-.183c-.938 0-1.067-.235-1.067-1.445v-5.7h1.249c2.71 0 3.204 1.997 3.204 3.546 0 1.604-.494 3.6-3.203 3.6m-28.995-2.679 1.798-5.36c.52-1.55.287-1.996-1.381-1.996v-.526h4.898v.526c-1.642 0-2.033.394-2.684 2.31l-2.97 8.987h-.338l-2.658-8.224-2.708 8.224h-.339l-2.893-8.986c-.623-1.917-1.042-2.311-2.552-2.311v-.526h5.784v.526c-1.538 0-1.955.368-1.408 1.995l1.745 5.361 2.632-7.882h.494zm18-.972h1.07c1.172 0 1.695-.814 1.695-1.734 0-.947-.523-1.76-1.694-1.76h-1.068v3.494zm30.374 0h1.07c1.173 0 1.693-.814 1.693-1.734 0-.947-.52-1.76-1.694-1.76h-1.068zm-8.255-5.964h-1.487v4.572h1.486c1.459 0 2.136-1.025 2.136-2.26 0-1.261-.676-2.312-2.135-2.312m-58.685 3.978c0-1.437-.513-2.432-.953-3.207-.583-.958-1.132-1.768-1.132-2.725 0-1.07.803-2.065 1.936-2.065.052 0 .1.008.15.01a11.44 11.44 0 0 0-7.785-3.053c-4.028 0-7.572 2.085-9.632 5.242.27.007.524.013.74.013 1.207 0 3.073-.147 3.073-.147.622-.038.696.883.074.957 0 0-.624.075-1.32.11l4.2 12.595 2.523-7.631L11.569 8.1c-.62-.037-1.208-.11-1.208-.11-.622-.037-.548-.995.072-.957 0 0 1.905.147 3.037.147 1.205 0 3.073-.147 3.073-.147.622-.038.696.883.074.957 0 0-.626.073-1.32.11l4.167 12.5 1.15-3.876c.499-1.609.878-2.764.878-3.76z" clip-rule="evenodd"/></g></g><defs><clipPath id="a"><path fill="#fff" d="M0 0h119v28H0z"/></clipPath></defs></svg>