<svg xmlns="http://www.w3.org/2000/svg" width="128" height="28" fill="none" viewBox="0 0 128 28"><g clip-path="url(#a)"><path fill="#231f20" d="M42.943 22.784h-3.918V5.218h4.796l4.796 12.874 4.772-12.874h4.795v17.566h-3.918V11.943l-4.044 10.841h-3.239L42.94 11.943v10.841zm19.709-14.63q-.956 0-1.632-.653-.653-.678-.653-1.656c0-.653.217-1.17.653-1.607a2.27 2.27 0 0 1 1.632-.653c.635 0 1.197.217 1.631.653q.654.653.653 1.607a2.32 2.32 0 0 1-.653 1.656q-.654.654-1.631.653m1.934 14.63h-3.867V9.483h3.867zm2.307 0V9.483h3.113l.327 1.882q.553-1.053 1.707-1.707 1.182-.653 2.637-.653 2.11 0 3.366 1.355 1.28 1.355 1.28 3.638v8.783h-3.866v-8.582q0-.854-.553-1.355-.552-.502-1.507-.502-1.131 0-1.884.679-.753.678-.753 1.756v8.005h-3.868zm20.475 0q-2.386 0-3.666-1.105-1.256-1.105-1.256-3.211v-5.723h-2.184V9.483h2.184V4.94h3.867v4.543h3.265v3.262h-3.265v5.296q0 .728.376 1.105.378.377 1.08.376h1.532v3.262h-1.935zm7.685 0h-3.867V3.963h3.866zm4.264-14.63q-.955 0-1.631-.653-.655-.678-.654-1.656c0-.653.218-1.17.654-1.607a2.27 2.27 0 0 1 1.631-.653c.635 0 1.197.217 1.632.653q.654.653.653 1.607a2.32 2.32 0 0 1-.653 1.656q-.654.654-1.632.653m1.935 14.63h-3.867V9.483h3.867zm3.788 0V12.745h-2.184V9.483h2.184V8.028q0-1.982 1.206-3.011 1.206-1.053 3.491-1.054h2.838v3.262h-2.436q-1.23 0-1.23 1.23v1.028h3.416v3.262h-3.416v10.04h-3.869m8.935 5.019V24.54h2.686q1.356 0 1.708-.953l.301-.803h-.578l-5.274-13.301h4.144l3.316 8.96 3.316-8.96h4.018l-5.624 15.083q-.602 1.63-1.883 2.434-1.28.804-3.44.803h-2.69"/><mask id="b" width="27" height="27" x="0" y="0" maskUnits="userSpaceOnUse" style="mask-type:luminance"><path fill="#fff" d="M26.756.197H.388v26.35h26.368z"/></mask><g fill="#231f20" mask="url(#b)"><path d="M7.337 9.813a9.65 9.65 0 0 1 2.776-6.7h-.004L3.306 9.912h.003a1 1 0 0 0-.07.065 9.7 9.7 0 0 0-.913 12.687l6.87-6.866.072-.067a9.64 9.64 0 0 1-1.933-5.916zm16.516 7.034a9.73 9.73 0 0 1-10.07 2.217 9.5 9.5 0 0 1-2.552-1.373l-.072.071-6.87 6.862a9.73 9.73 0 0 0 12.694-.912l.067-.067z"/><path d="M26.77 9.91V.197h-9.72a9.7 9.7 0 0 0-6.87 2.847l-.068.067A9.65 9.65 0 0 0 7.647 7.45a10 10 0 0 1 2.363-.316 9.67 9.67 0 0 1 5.92 1.935 9.7 9.7 0 0 1 3.334 4.513c.654 1.84.74 3.835.247 5.725a9.6 9.6 0 0 0 4.341-2.464l.067-.066a9.7 9.7 0 0 0 2.847-6.87z"/></g></g><defs><clipPath id="a"><path fill="#fff" d="M0 0h128v28H0z"/></clipPath></defs></svg>