<svg xmlns="http://www.w3.org/2000/svg" width="132" height="28" fill="none" viewBox="0 0 132 28"><g clip-path="url(#a)"><mask id="b" width="132" height="28" x="0" y="0" maskUnits="userSpaceOnUse" style="mask-type:luminance"><path fill="#fff" d="M131.428 0H.573v28h130.855z"/></mask><g fill="#231f20" mask="url(#b)"><path d="M14.643 13.38h-5.65v2.695h5.514c.327 0 .625-.135.87-.35.217-.216.353-.54.353-.944a1.6 1.6 0 0 0-.3-.97c-.217-.27-.46-.431-.787-.431m.19-3.26c.245-.163.354-.513.354-.971 0-.404-.11-.7-.3-.89a1.1 1.1 0 0 0-.706-.269H8.993v2.425h5.08c.271 0 .543-.134.76-.296"/><path d="M23.12.175H1.795C1.117.175.573.714.573 1.36v21.182c0 .647.544 1.051 1.195 1.051H4.92v4.231l3.912-4.204h14.29c.651 0 1.059-.404 1.059-1.078V1.388c0-.647-.408-1.186-1.087-1.186zm-3.586 17.167c-.271.485-.679.889-1.168 1.186-.516.323-1.087.62-1.738.754-.652.162-1.358.296-2.092.296H4.919V4.487H15.84c.543 0 1.005.108 1.44.35.407.216.788.512 1.086.862.609.736.936 1.662.924 2.615 0 .7-.19 1.374-.543 2.02a3.4 3.4 0 0 1-1.63 1.456c.869.243 1.548.674 2.064 1.294.49.646.733 1.482.733 2.533 0 .674-.135 1.24-.407 1.724zM38.904 19.47c-.95 0-1.874-.134-2.798-.43a6.4 6.4 0 0 1-2.336-1.348l1.222-2.048c.68.458 1.332.808 1.983 1.078.584.25 1.213.38 1.848.377.434 0 .788-.08 1.032-.242.245-.135.353-.378.353-.674 0-.27-.136-.54-.462-.7a7 7 0 0 0-1.602-.54l-1.902-.62c-.516-.216-.924-.431-1.25-.674a2 2 0 0 1-.706-.808 2.6 2.6 0 0 1-.217-1.078 3.48 3.48 0 0 1 1.277-2.749c.38-.323.87-.566 1.412-.754.544-.19 1.141-.27 1.766-.27q1.263 0 2.363.323c.734.243 1.44.647 2.12 1.24l-1.332 2.021a9 9 0 0 0-1.684-.943 3.7 3.7 0 0 0-1.467-.296c-.353 0-.68.054-.924.215-.272.135-.38.378-.38.7 0 .324.136.54.408.702s.815.323 1.548.512q1.022.255 2.01.62c.544.215.978.458 1.331.7a2.4 2.4 0 0 1 .978 2.102c0 1.105-.407 1.968-1.25 2.614-.814.647-1.901.97-3.34.97m13.447-.781q-.785.318-1.603.539c-.597.162-1.195.27-1.82.27-.434 0-.815-.055-1.195-.162a2.7 2.7 0 0 1-1.005-.54c-.272-.215-.49-.538-.652-.888a3.4 3.4 0 0 1-.272-1.375v-5.794h-1.412V8.206h1.44v-3.53H49.2v3.503h2.282v2.56H49.2v4.635c0 .35.081.62.272.809.19.134.434.215.706.215s.543-.027.788-.134c.271-.081.516-.162.706-.27l.652 2.695zm6.357.781a6.6 6.6 0 0 1-2.527-.458 5.3 5.3 0 0 1-1.854-1.225 5.3 5.3 0 0 1-1.188-1.874 6.15 6.15 0 0 1 0-4.366c.258-.7.663-1.339 1.188-1.873a5.3 5.3 0 0 1 1.854-1.226c.734-.296 1.576-.458 2.527-.458a5.7 5.7 0 0 1 2.392.4 5.7 5.7 0 0 1 2.008 1.352c.517.512.897 1.131 1.169 1.805a6 6 0 0 1 0 4.393 5.32 5.32 0 0 1-3.016 3.072c-.811.321-1.68.477-2.553.458m-2.445-5.713c0 .862.217 1.563.68 2.075q.732.81 1.792.809a2.24 2.24 0 0 0 1.766-.809c.224-.273.4-.583.516-.916.136-.35.19-.755.19-1.159 0-.89-.245-1.59-.706-2.102a2.24 2.24 0 0 0-1.766-.808 2.32 2.32 0 0 0-1.766.808c-.217.27-.407.54-.543.916a3.5 3.5 0 0 0-.163 1.186m17.196-2.668c-.816 0-1.576.135-2.255.404-.597.2-1.107.6-1.44 1.132v6.657h-3.396V8.206h3.125v2.21c.38-.755.869-1.348 1.493-1.752.599-.431 1.223-.647 1.902-.674h.353l.218.027zm1.494 9.837c.472.163.966.254 1.466.27q.612 0 .979-.405c.217-.27.407-.808.597-1.51L73.757 8.207h3.505l2.58 8.165 2.255-8.165h3.178L81.01 21.06c-.668 2.183-2.911 3.494-5.161 3.018a4.2 4.2 0 0 1-.896-.27zm18.363-1.456c-.841 0-1.602-.161-2.227-.538a3.9 3.9 0 0 1-1.521-1.483v1.833h-2.961V3.867h3.422v6.144A4.04 4.04 0 0 1 91.57 8.5a4.07 4.07 0 0 1 2.1-.509c.707 0 1.36.135 1.957.458.597.27 1.086.7 1.548 1.213a7.02 7.02 0 0 1 .978 6.36c-.272.7-.652 1.32-1.114 1.832a5.03 5.03 0 0 1-3.722 1.617m-.95-2.83a2.58 2.58 0 0 0 2.445-1.724 3.32 3.32 0 0 0-.517-3.207 2.2 2.2 0 0 0-1.793-.862c-.516 0-1.005.188-1.467.539a3.85 3.85 0 0 0-1.032 1.401v2.318c.216.45.554.83.977 1.096s.913.41 1.414.413zm7.823-12.773h3.396V15.32c0 .863.353 1.267 1.086 1.267.388.001.77-.091 1.114-.27l.462 2.507a7.8 7.8 0 0 1-3.015.646c-.978 0-1.739-.27-2.255-.754-.544-.54-.815-1.24-.815-2.21V3.866zm12.469 15.603a6.6 6.6 0 0 1-2.527-.458 5.4 5.4 0 0 1-1.868-1.223 5.3 5.3 0 0 1-1.201-1.876 6.16 6.16 0 0 1 1.141-6.198 5.9 5.9 0 0 1 1.901-1.267c.734-.296 1.576-.458 2.527-.458a5.74 5.74 0 0 1 4.401 1.752c.543.512.896 1.131 1.168 1.805a6.038 6.038 0 0 1-1.141 6.198 5.2 5.2 0 0 1-1.902 1.267 6.6 6.6 0 0 1-2.526.458zm-2.472-5.713c0 .862.218 1.563.679 2.075q.734.81 1.793.809a2.27 2.27 0 0 0 1.765-.809c.226-.273.401-.583.517-.916.136-.35.19-.755.19-1.159 0-.89-.245-1.59-.707-2.102a2.23 2.23 0 0 0-1.765-.808 2.32 2.32 0 0 0-1.766.808c-.217.27-.407.54-.543.916-.136.378-.163.755-.163 1.186m17.631 5.525-2.907-4.474-1.195 1.24v3.234h-3.397V3.867h3.397v8.92l3.775-4.581h3.614l-4.021 4.77 4.346 6.306z"/></g></g><defs><clipPath id="a"><path fill="#fff" d="M0 0h132v28H0z"/></clipPath></defs></svg>