<svg xmlns="http://www.w3.org/2000/svg" width="141" height="28" fill="none" viewBox="0 0 141 28"><g clip-path="url(#a)"><mask id="b" width="141" height="28" x="0" y="0" maskUnits="userSpaceOnUse" style="mask-type:luminance"><path fill="#fff" d="M140.681 0H.319v28H140.68z"/></mask><g fill="#231f20" mask="url(#b)"><path d="m38.916 5.27-.05.017v7.48H31.78v-7.48l-.05-.016a7.6 7.6 0 0 0-3.125 0l-.05.016v17.2l.05.017c.518.1 1.036.168 1.554.168s1.036-.05 1.57-.168l.05-.017V15.51h7.085v6.978l.05.016a7.6 7.6 0 0 0 3.125 0l.05-.017v-17.2l-.05-.016a8.2 8.2 0 0 0-3.124 0m10.978 4.836c-3.71 0-5.916 2.342-5.916 6.274 0 2.042.468 3.665 1.404 4.786 1.02 1.221 2.54 1.84 4.562 1.84 3.425 0 5.18-2.041 5.397-4.066v-.05l-.05-.017c-.87-.284-1.671-.35-2.624-.217h-.033v.033c-.2 1.205-1.203 1.925-2.657 1.925-2.038 0-3.04-1.122-3.074-3.43h8.622v-.05c.25-2.276-.2-4.117-1.304-5.372-1.019-1.07-2.506-1.656-4.327-1.656m-.034 2.225c.852 0 1.57.268 2.056.787.5.535.751 1.338.701 2.292h-5.714c.05-1.958 1.136-3.079 2.957-3.079m7.753-7.06-.05.016v17.2l.05.017c.485.1.97.168 1.47.168.485 0 .987-.05 1.471-.168l.05-.017v-17.2l-.05-.016c-.969-.218-1.955-.201-2.94 0m11.446 4.835c-1.286 0-2.64.502-3.926 1.456l-.184-.904-.034-.017c-.735-.217-1.336-.217-2.055 0l-.033.017v17.117l.05.016c.484.1.969.168 1.47.168s.986-.05 1.47-.168l.05-.016v-5.723c1.02.653 2.106.954 3.326.954 3.375 0 5.397-2.392 5.397-6.425-.017-4.1-2.022-6.475-5.53-6.475m-3.242 3.397c.903-.62 1.738-.904 2.641-.904 2.055 0 3.175 1.422 3.175 4.032 0 2.56-1.103 3.916-3.209 3.916-.902 0-1.754-.285-2.607-.887zm21.656-.268c-.518-.2-.985-.368-1.437-.519-2.339-.836-3.743-1.338-3.776-2.61-.017-.586.167-1.088.568-1.506.585-.602 1.57-.92 2.773-.92 1.187 0 2.106.318 2.658.903.467.502.668 1.188.618 2.042v.05l.05.017c1.02.2 2.038.184 3.141-.067l.05-.017v-.05c.067-1.44-.367-2.694-1.253-3.631-1.102-1.171-2.874-1.79-5.113-1.807h-.067c-4.16 0-6.666 1.857-6.7 4.97-.017 3.095 2.823 4.132 4.528 4.734l.251.1c.568.202 1.103.386 1.57.553 2.307.803 3.693 1.288 3.743 2.51q.025.953-.55 1.556c-.553.569-1.522.853-2.808.836-1.42 0-2.507-.368-3.125-1.037-.451-.502-.635-1.138-.568-1.907v-.05l-.05-.017a7.6 7.6 0 0 0-3.125.05l-.034.017v.05c-.083 1.388.335 2.627 1.237 3.58 1.203 1.289 3.175 1.958 5.715 1.941 2.49 0 6.583-.67 6.617-5.02-.05-2.894-2.523-3.83-4.913-4.751m12.382-.636c2.055 0 2.54 1.339 2.64 2.125v.05h.05c.953.15 1.855.084 2.724-.167l.05-.017v-.05a4.59 4.59 0 0 0-1.454-3.079c-.969-.886-2.356-1.372-3.993-1.372-3.91 0-6.066 2.293-6.066 6.459 0 4.15 2.139 6.441 6.015 6.441 1.671 0 3.075-.485 4.061-1.405a4.56 4.56 0 0 0 1.42-2.928v-.05l-.05-.017c-.818-.284-1.721-.335-2.707-.167h-.033v.033c-.267 1.874-2.089 2.008-2.64 2.008-2.106 0-3.091-1.255-3.091-3.949-.018-2.66.969-3.915 3.074-3.915m12.866-2.493c-3.843 0-5.965 2.292-5.965 6.458 0 4.15 2.122 6.442 5.965 6.442s5.966-2.292 5.966-6.442c0-4.166-2.123-6.458-5.966-6.458m3.058 6.475c0 2.66-1.003 3.949-3.058 3.949s-3.058-1.288-3.058-3.949c0-2.71.969-3.982 3.058-3.982 2.055 0 3.058 1.305 3.058 3.982m12.532-5.923-.05.017v8.567c-.969.836-1.855 1.204-2.874 1.204-1.437 0-2.056-.82-2.056-2.76v-7.028l-.049-.017a6.25 6.25 0 0 0-2.942 0l-.049.017v7.714c0 2.928 1.57 4.617 4.327 4.617 1.471 0 2.757-.568 4.144-1.84l.284 1.338.034.017a4.2 4.2 0 0 0 2.138 0l.051-.017V10.659l-.051-.017a5.9 5.9 0 0 0-2.907.017m12.215 9.537-.017-.05-.05.017c-1.17.268-1.855.25-2.256-.067-.334-.268-.484-.736-.484-1.473v-5.488h2.372l.017-.05a6 6 0 0 0 0-2.443l-.017-.05h-2.372V7.345l-.051-.016a6.6 6.6 0 0 0-2.924 0l-.05.016.017 3.246h-1.504l-.016.05a5.45 5.45 0 0 0 0 2.443l.016.05h1.504l.017 5.27c0 1.473.083 2.962 1.103 3.816.551.452 1.353.686 2.389.686.635 0 1.37-.084 2.222-.251h.033l.018-.034a4.44 4.44 0 0 0 .033-2.426M1.973 16.263l8.12-8.131a5.73 5.73 0 0 0 1.705-4.083A5.78 5.78 0 0 0 10.144 0l-8.12 8.132a5.73 5.73 0 0 0-1.705 4.082c0 1.59.635 3.012 1.654 4.05m19.667-4.752-8.12 8.132a5.73 5.73 0 0 0-1.705 4.082c0 1.573.635 3.012 1.654 4.05l8.121-8.132a5.73 5.73 0 0 0 1.704-4.083c0-1.589-.635-3.011-1.654-4.049m-.05-3.363a5.73 5.73 0 0 0 1.704-4.082A5.78 5.78 0 0 0 21.64.016L2.023 19.644a5.77 5.77 0 0 0-1.704 4.1c0 1.572.635 3.011 1.654 4.048z"/></g></g><defs><clipPath id="a"><path fill="#fff" d="M0 0h141v28H0z"/></clipPath></defs></svg>