<svg xmlns="http://www.w3.org/2000/svg" width="103" height="28" fill="none" viewBox="0 0 103 28"><g clip-path="url(#a)"><mask id="b" width="103" height="28" x="0" y="0" maskUnits="userSpaceOnUse" style="mask-type:luminance"><path fill="#fff" d="M102.97 0H.025v28H102.97z"/></mask><g mask="url(#b)"><path fill="#231f20" fill-rule="evenodd" d="M23.737 27.469c-.399 0-.708-.144-.708-.64V10.064c0-.22.2-.448.422-.448h4.857c.22 0 .402.18.402.403v16.803c0 .413-.12.647-.599.647zm59.21-17.815h-4.83c-.22 0-.403.181-.403.405v12.429s-1.227.88-2.97.88-2.22-.784-2.22-2.479V10.06a.41.41 0 0 0-.402-.413h-4.905a.403.403 0 0 0-.401.405v11.651c0 5.039 2.822 6.274 6.709 6.274 3.188 0 5.758-1.752 5.758-1.752s.121.921.177 1.03a.43.43 0 0 0 .354.218l3.119-.011a.4.4 0 0 0 .402-.405V10.06a.4.4 0 0 0-.402-.407zm11.307 13.712c-1.678-.05-2.814-.808-2.814-.808v-8.025s1.12-.685 2.496-.807c1.741-.144 3.419.368 3.419 4.512 0 4.35-.756 5.215-3.105 5.146l.003-.016zM42.704 9.614H39.05l-.005-4.8c0-.182-.096-.272-.306-.272h-4.978c-.193 0-.297.083-.297.269v4.96s-2.494.6-2.654.648a.41.41 0 0 0-.29.386v3.12a.4.4 0 0 0 .402.403h2.558v7.498c0 5.57 3.928 6.118 6.577 6.118 1.212 0 2.662-.4 2.9-.48a.39.39 0 0 0 .226-.368v-3.424a.42.42 0 0 0-.402-.412c-.21 0-.756.086-1.319.086-1.791 0-2.4-.832-2.4-1.904v-7.118h3.652a.41.41 0 0 0 .402-.407v-3.904a.407.407 0 0 0-.402-.405l-.016.005zm-22.838 2.549h-8.65a.4.4 0 0 0-.402.4v4.208a.4.4 0 0 0 .402.402h3.374V22.4s-.756.256-2.853.256c-2.471 0-5.921-.896-5.921-8.448S9.4 5.66 12.778 5.66c2.911 0 4.182.512 4.97.759.252.077.483-.173.483-.395l.965-4.056a.37.37 0 0 0-.153-.316c-.322-.232-2.308-1.336-7.319-1.336C5.952.312.024 2.757.024 14.504.025 26.248 6.805 28 12.522 28c4.729 0 7.6-2.012 7.6-2.012.123-.064.137-.229.137-.304V12.565a.4.4 0 0 0-.402-.402h.012zM64.44 1.72a.4.4 0 0 0-.402-.405H59.17a.403.403 0 0 0-.402.405v9.361h-7.592V1.72a.4.4 0 0 0-.402-.405h-4.87a.403.403 0 0 0-.402.405v25.345c0 .224.18.408.402.408h4.87a.403.403 0 0 0 .402-.406V16.235h7.59l-.012 10.843c0 .224.18.408.402.408h4.882a.4.4 0 0 0 .401-.406zm31.716 7.365c-2.743 0-4.609 1.216-4.609 1.216V1.72a.404.404 0 0 0-.402-.405h-4.883a.403.403 0 0 0-.402.405v25.345c0 .224.18.408.401.408h3.39c.153 0 .266-.08.354-.216.082-.136.203-1.168.203-1.168s1.998 1.882 5.779 1.882c4.439 0 6.982-2.24 6.982-10.053s-4.07-8.833-6.812-8.833h-.007zm-67.1-4.04a3.144 3.144 0 0 0-3.139-3.154 3.145 3.145 0 0 0-3.14 3.154 3.15 3.15 0 0 0 3.139 3.156 3.15 3.15 0 0 0 3.14-3.156" clip-rule="evenodd"/></g></g><defs><clipPath id="a"><path fill="#fff" d="M0 0h103v28H0z"/></clipPath></defs></svg>