<svg xmlns="http://www.w3.org/2000/svg" width="145" height="28" fill="none" viewBox="0 0 145 28"><path fill="#231f20" d="M23.223 0A29.6 29.6 0 0 1 30.7 2.345c4.101 6.114 6.14 13.01 5.388 20.963C32.95 25.65 29.904 27.07 26.911 28a23 23 0 0 1-1.964-3.228 19.3 19.3 0 0 0 3.1-1.505 18 18 0 0 1-.759-.599c-5.892 2.784-12.37 2.784-18.336 0a15 15 0 0 1-.756.6 19.4 19.4 0 0 0 3.092 1.501A23 23 0 0 1 9.323 28c-2.99-.93-6.03-2.352-9.17-4.691-.64-6.861.642-13.82 5.374-20.958A29.5 29.5 0 0 1 13.01 0c.324.581.709 1.363.969 1.984q4.105-.625 8.286 0c.26-.621.635-1.403.958-1.984m71.914 8.956q2.994 0 4.969 1.281v3.723a6.2 6.2 0 0 0-1.625-.794 6.3 6.3 0 0 0-1.986-.305q-1.855 0-2.903.692c-.698.463-1.048 1.063-1.048 1.81q0 1.098 1.018 1.802 1.015.703 2.952.703.996 0 1.967-.294a7.2 7.2 0 0 0 1.664-.723v3.6q-2.192 1.344-5.087 1.344c-1.625-.006-3.011-.29-4.154-.861q-1.716-.854-2.582-2.319t-.866-3.295q0-1.832.896-3.275.9-1.443 2.636-2.266 1.734-.824 4.15-.823m-14.986-.003q1.675 0 3.073.366c.933.244 1.701.556 2.316.936v3.193c-.628-.38-1.347-.68-2.167-.906a9.6 9.6 0 0 0-2.526-.334q-1.876 0-1.876.652 0 .302.292.455.29.153 1.066.317l1.994.366q1.956.345 2.913 1.208.96.863.959 2.556 0 1.85-1.585 2.94-1.587 1.09-4.502 1.09a13.1 13.1 0 0 1-3.33-.43 10.5 10.5 0 0 1-2.914-1.241v-3.376q.978.77 2.625 1.271 1.645.498 3.183.497.72.001 1.086-.191.368-.193.368-.459a.7.7 0 0 0-.2-.509q-.2-.203-.777-.346l-2.394-.55q-2.056-.486-2.922-1.353-.868-.862-.867-2.267-.002-1.18.758-2.054.757-.877 2.155-1.351c.933-.32 2.02-.48 3.272-.48M145 6.737V21.38h-4.89v-2.664q-.619 1.504-1.883 2.29-1.268.781-3.125.782-1.657 0-2.894-.822-1.234-.824-1.907-2.259-.668-1.433-.67-3.245-.02-1.87.711-3.357.728-1.487 2.056-2.318 1.325-.835 3.024-.835 3.433 0 4.646 2.987l.042.105V6.737zM109.165 8.95q2.374-.001 4.09.814 1.715.814 2.615 2.237c.599.951.898 2.04.898 3.276q0 1.829-.898 3.316-.9 1.485-2.625 2.338-1.728.855-4.083.855-2.356.002-4.079-.852-1.727-.854-2.634-2.338-.908-1.487-.909-3.316 0-1.832.909-3.267c.607-.955 1.479-1.706 2.625-2.25q1.716-.814 4.091-.813M71.68 12.286v9.16h-4.874v-9.16c1.494.657 3.347.686 4.874 0m55.26-3.067q1.057 0 1.817.486V14.1c-.507-.34-1.163-.51-1.976-.51-1.063 0-1.884.33-2.454.986q-.86.987-.859 3.063v3.742h-4.888V9.483h4.789v3.783q.398-2.073 1.289-3.062.887-.984 2.282-.984M56.483 7.143q2.812.001 4.76.895t2.914 2.491q.967 1.595.968 3.652 0 2.015-1.009 3.65-1.007 1.639-3.072 2.592-2.063.956-5.12.956h-7.223V7.142zM12.1 11.687c-1.822 0-3.259 1.671-3.259 3.702s1.469 3.7 3.259 3.7c1.822 0 3.262-1.669 3.259-3.7.031-2.034-1.437-3.702-3.259-3.702m12.04 0c-1.82 0-3.258 1.671-3.258 3.702s1.469 3.7 3.259 3.7c1.821 0 3.258-1.669 3.258-3.7.032-2.034-1.437-3.702-3.258-3.702m85.022 1.012q-1.277 0-2.007.724-.727.722-.726 1.94 0 1.22.726 1.963c.485.492 1.155.743 2.007.743q1.258-.004 1.983-.743.729-.743.73-1.962.001-1.222-.73-1.941-.725-.724-1.983-.724m28.254.062q-1.235 0-1.974.723-.74.722-.739 1.88-.002 1.16.739 1.891.737.733 1.955.733 1.236-.004 1.984-.745c.5-.492.747-1.135.747-1.92q0-1.141-.726-1.85c-.485-.474-1.151-.712-1.986-.712m-81.289-1.997h-2.434v6.998h2.152q1.895-.002 2.913-.966 1.018-.966 1.018-2.635 0-1.547-.907-2.47c-.603-.617-1.52-.927-2.742-.927m13.12-4.478c1.345 0 2.436.999 2.436 2.232 0 1.232-1.091 2.231-2.437 2.231-1.347 0-2.439-.999-2.439-2.231 0-1.233 1.092-2.232 2.44-2.232"/></svg>