<svg xmlns="http://www.w3.org/2000/svg" width="67" height="28" fill="none" viewBox="0 0 67 28"><g clip-path="url(#a)"><mask id="b" width="67" height="28" x="0" y="0" maskUnits="userSpaceOnUse" style="mask-type:luminance"><path fill="#fff" d="M67 0H0v28h67z"/></mask><g fill="#231f20" mask="url(#b)"><path d="M34.29 5.367h2.498v12.248c0 3.23-1.486 5.484-4.93 5.484-1.296 0-2.308-.213-3.003-.457v-2.346c.758.305 1.675.457 2.592.457 2.117 0 2.844-1.219 2.844-2.986zm7.078-.945c.98 0 1.675.58 1.675 1.615 0 1.005-.695 1.615-1.675 1.615s-1.675-.579-1.675-1.615c0-1.005.696-1.615 1.675-1.615m-1.232 5.15h2.402v13.405h-2.402zm8.346 13.405h-2.339V9.57h2.339v2.346c.822-1.584 2.212-2.711 4.93-2.559v2.255c-3.065-.305-4.93.578-4.93 3.442zm16.15-2.407c-.885 1.767-2.56 2.681-4.71 2.681-3.697 0-5.562-3.016-5.562-6.977 0-3.778 1.96-6.977 5.847-6.977 2.023 0 3.603.884 4.425 2.62V9.573h2.402v13.405h-2.402zm-4.077.548c2.149 0 4.045-1.31 4.045-4.295v-1.067c0-2.985-1.738-4.296-3.792-4.296-2.687 0-4.077 1.707-4.077 4.814.032 3.23 1.359 4.844 3.824 4.844M21.744 2.625H10.809c0 2.62 2.212 4.753 4.93 4.753h2.023v1.858c0 2.62 2.212 4.753 4.93 4.753V3.539c0-.518-.442-.914-.948-.914"/><path d="M16.338 7.88H5.403c0 2.62 2.212 4.753 4.93 4.753h2.023v1.859c0 2.62 2.212 4.752 4.93 4.752V8.794c0-.518-.443-.914-.948-.914"/><path d="M10.935 13.136H0c0 2.62 2.212 4.753 4.93 4.753h2.023v1.858c0 2.62 2.212 4.753 4.93 4.753V14.05c0-.518-.442-.914-.948-.914"/></g></g><defs><clipPath id="a"><path fill="#fff" d="M0 0h67v28H0z"/></clipPath></defs></svg>