<svg xmlns="http://www.w3.org/2000/svg" width="113" height="28" fill="none" viewBox="0 0 113 28"><g clip-path="url(#a)"><mask id="b" width="113" height="28" x="0" y="0" maskUnits="userSpaceOnUse" style="mask-type:luminance"><path fill="#fff" d="M112.697.01H.307v27.98h112.39z"/></mask><g fill="#222326" mask="url(#b)"><path d="m1.204 11.225 15.934 15.872a.402.402 0 0 1-.203.685q-.81.15-1.648.207a.42.42 0 0 1-.32-.121L.43 13.388a.41.41 0 0 1-.121-.32q.056-.835.207-1.64c.06-.323.456-.435.688-.203m-.449 6.426c-.106-.395.363-.644.653-.355l9.635 9.598c.29.289.04.756-.356.65-4.832-1.29-8.636-5.08-9.932-9.893M2.152 7.023a.41.41 0 0 1 .646-.079L21.436 25.51a.407.407 0 0 1-.08.644q-.591.34-1.217.623a.415.415 0 0 1-.463-.086L1.613 8.697a.41.41 0 0 1-.087-.461q.285-.624.626-1.213M14.337.01c7.765 0 14.06 6.27 14.06 14.005 0 4.106-1.774 7.8-4.6 10.362a.414.414 0 0 1-.57-.018L3.952 5.16a.41.41 0 0 1-.017-.567A14.05 14.05 0 0 1 14.337.01M56.95 7.717a1.825 1.825 0 1 0-.065-.001zm-15.629 15.91V4.069h3.243v16.696h8.743v2.861zm23.08-7.98v7.98h-3.137V9.766h3.098v2.376l.04-.026q.471-1.116 1.522-1.864 1.05-.762 2.679-.762 1.443 0 2.625.643 1.182.63 1.89 1.851.71 1.221.71 2.993v8.65H70.69V15.41q0-1.575-.84-2.389-.828-.827-2.219-.827a3.6 3.6 0 0 0-1.628.368q-.736.367-1.168 1.129-.435.76-.434 1.955M96.803 9.49q1.313 0 2.362.342 1.051.327 1.786.945.749.616 1.142 1.457.394.84.394 1.85v9.543h-3.006V21.67h-.052q-.315.59-.854 1.09-.525.498-1.339.8-.814.288-1.956.289-1.392 0-2.468-.46A3.94 3.94 0 0 1 91.105 22q-.63-.931-.63-2.31 0-1.194.446-1.956.447-.76 1.208-1.22a6.3 6.3 0 0 1 1.76-.696q.984-.237 2.047-.354l.582-.066q.894-.104 1.466-.184.762-.106 1.077-.328.328-.223.328-.696v-.105q0-.63-.315-1.102t-.906-.748q-.577-.276-1.405-.276-.827 0-1.457.276-.63.263-.998.735a2 2 0 0 0-.42 1.076h-3.033a4.25 4.25 0 0 1 .801-2.31q.736-1.024 2.035-1.628 1.314-.617 3.112-.617m2.6 7.443a1.4 1.4 0 0 1-.393.176l-.068.02q-.3.093-.734.184l-.933.17q-.498.08-1.024.158-.722.092-1.339.328a2.6 2.6 0 0 0-.997.644q-.368.406-.368 1.063 0 .84.67 1.325.669.473 1.798.473 1.116 0 1.878-.407.76-.42 1.128-1.09.381-.681.381-1.496zm5.822 6.694V9.766h3.019v2.284h.04q.381-1.182 1.194-1.798.828-.63 2.166-.63.33 0 .591.026l.327.017.133.01v2.821l-.071-.01a14 14 0 0 0-.533-.056q-.433-.039-.919-.039a2.9 2.9 0 0 0-1.418.354q-.643.355-1.024 1.09-.368.722-.368 1.824v7.967zm-49.85 0V9.766h3.138v13.86zM82.486 9.45q1.485 0 2.692.525 1.221.525 2.087 1.496a6.7 6.7 0 0 1 1.34 2.284q.472 1.312.472 2.914v.84H78.985q.036 1.084.43 1.943a3.36 3.36 0 0 0 1.26 1.457q.84.525 2.008.525.867 0 1.523-.263a3 3 0 0 0 1.09-.722q.445-.472.643-1.09h2.954a5.15 5.15 0 0 1-1.143 2.39q-.878 1.023-2.205 1.614-1.313.578-2.915.578-2.074 0-3.584-.932a6.2 6.2 0 0 1-2.324-2.56q-.813-1.64-.814-3.74 0-2.114.84-3.754t2.325-2.573 3.413-.932m.04 2.52q-1.077 0-1.877.486a3.3 3.3 0 0 0-1.234 1.378q-.318.645-.403 1.47h7.041a4.3 4.3 0 0 0-.402-1.47 3.2 3.2 0 0 0-1.234-1.378q-.801-.486-1.89-.486"/></g></g><defs><clipPath id="a"><path fill="#fff" d="M0 0h113v28H0z"/></clipPath></defs></svg>