<svg xmlns="http://www.w3.org/2000/svg" width="122" height="28" fill="none" viewBox="0 0 122 28"><path fill="#231f20" d="M31.718 20.34c-1.135-1.269-1.713-2.96-1.713-5.05v-2.224c0-2.091.578-3.781 1.713-5.071 1.134-1.268 2.847-1.913 5.093-1.913 2.558 0 4.538 1.134 5.627 2.913.534.89.824 1.869.89 2.937h-2.891c-.2-1.891-1.424-3.292-3.626-3.292-2.491 0-3.714 1.668-3.714 4.27v2.536c0 2.602 1.223 4.27 3.714 4.27 2.202 0 3.425-1.4 3.626-3.292h2.891c-.11 2.136-1.223 4.004-3.158 5.05-.957.533-2.091.8-3.359.8-2.246 0-3.959-.645-5.093-1.935M45.952 5.726h3.025v6.05c.623-1 1.824-1.646 3.27-1.646 2.513 0 4.093 1.69 4.093 4.426v7.407h-3.026v-6.917c0-1.402-.689-2.291-2.113-2.291-1.4 0-2.224.823-2.224 2.358v6.85h-3.025zm12.767 12.901c0-2.425 1.801-3.67 4.67-3.67 1.246 0 2.292.444 2.937.978v-1.579c0-1.09-.779-1.868-2.002-1.868-1.001 0-1.668.444-2.002 1.09H59.52c.646-2.225 2.447-3.448 4.96-3.448 2.892 0 4.872 1.78 4.872 4.448v7.385h-2.914v-1.068c-.267.378-.712.712-1.357.957a5.5 5.5 0 0 1-1.98.378c-2.646 0-4.381-1.38-4.381-3.603m7.607-.112c0-1-.957-1.623-2.358-1.623-1.446 0-2.313.578-2.313 1.646 0 1.045.912 1.69 2.224 1.69 1.357 0 2.447-.734 2.447-1.713m9.652 3.448c-2.158 0-3.27-1.179-3.27-3.292v-5.828h-1.646v-2.446h1.646V7.238h3.047v3.159h2.47v2.446h-2.47v5.606c0 .778.29 1.067 1.09 1.067h1.223v2.447zm4.27-6.673v-2.269c0-4.204 2.535-6.94 6.74-6.94 3.958 0 6.427 2.358 6.516 5.606h-2.958c-.067-1.713-1.335-3.047-3.47-3.047-2.469 0-3.737 1.601-3.737 4.27v2.447c0 2.758 1.18 4.426 3.76 4.426 2.201 0 3.514-1.335 3.514-3.114v-.222H87.12V13.91h6.54v2.024c0 3.715-2.647 6.34-6.606 6.34-4.515 0-6.806-3.048-6.806-6.985m16.371-8.896h6.472c3.537 0 5.783 2.113 5.783 5.227s-2.335 5.316-5.783 5.316h-3.358v5.027h-3.114zm6.272 7.985c1.891 0 2.869-1.134 2.869-2.758 0-1.601-.978-2.67-2.869-2.67h-3.159v5.428zm11.455-5.405h-4.405v-2.58h11.923v2.58h-4.405v12.99h-3.113zm-88.544 2.481a6.97 6.97 0 0 0-.597-5.727 7.07 7.07 0 0 0-7.595-3.385A7 7 0 0 0 12.348 0a7.08 7.08 0 0 0-6.733 4.883A7 7 0 0 0 .95 8.268a7.05 7.05 0 0 0 .873 8.268 6.95 6.95 0 0 0 .597 5.718 7.07 7.07 0 0 0 7.605 3.394A6.98 6.98 0 0 0 15.276 28a7.08 7.08 0 0 0 6.733-4.883 6.96 6.96 0 0 0 4.655-3.385 7.04 7.04 0 0 0-.863-8.268zm-2.18-4.807a5.27 5.27 0 0 1 .625 3.508c-.038-.028-.113-.066-.16-.095L18.51 6.836a.94.94 0 0 0-.92 0l-6.533 3.774V7.842l5.395-3.12a5.245 5.245 0 0 1 7.169 1.925m-12.564 5.755 2.75-1.593 2.75 1.593v3.177l-2.75 1.593-2.75-1.593zm1.28-10.572c1.233 0 2.418.427 3.366 1.214-.038.019-.114.066-.17.095L9.957 6.353a.91.91 0 0 0-.455.796v7.548l-2.399-1.384v-6.24a5.25 5.25 0 0 1 5.244-5.252zM2.543 9.188a5.26 5.26 0 0 1 2.731-2.304v6.628c0 .332.17.625.455.796l6.524 3.764-2.409 1.394-5.385-3.11a5.25 5.25 0 0 1-1.916-7.168m1.47 12.165a5.2 5.2 0 0 1-.626-3.508c.038.028.114.066.161.095l5.576 3.223a.94.94 0 0 0 .92 0l6.523-3.773v2.768l-5.395 3.11c-2.513 1.442-5.718.588-7.168-1.915zm11.274 4.817a5.23 5.23 0 0 1-3.357-1.214 4 4 0 0 0 .171-.095l5.575-3.214a.89.89 0 0 0 .456-.796v-7.538l2.398 1.384v6.23a5.25 5.25 0 0 1-5.243 5.252zm9.804-7.358a5.23 5.23 0 0 1-2.73 2.295v-6.628a.91.91 0 0 0-.456-.797L15.372 9.91l2.4-1.385 5.394 3.11a5.24 5.24 0 0 1 1.916 7.169z"/></svg>