<svg xmlns="http://www.w3.org/2000/svg" width="111" height="28" fill="none" viewBox="0 0 111 28"><path fill="#231f20" d="M23.906 0c.446-.002.887.087 1.3.262s.788.432 1.105.757.567.711.74 1.137.262.882.264 1.344v21.008a3.7 3.7 0 0 1-.267 1.343 3.5 3.5 0 0 1-.742 1.136c-.318.324-.694.58-1.107.754a3.3 3.3 0 0 1-1.3.259H3.417a3.3 3.3 0 0 1-1.302-.26 3.4 3.4 0 0 1-1.108-.756 3.5 3.5 0 0 1-.741-1.138A3.6 3.6 0 0 1 0 24.5v-21c.002-.462.092-.92.266-1.346.172-.426.424-.813.741-1.138A3.4 3.4 0 0 1 2.115.26 3.3 3.3 0 0 1 3.417 0zM4.463 19.62a.9.9 0 0 0-.788.639.97.97 0 0 0 .056.707.9.9 0 0 0 .22.283c.141.124 3.498 3.025 9.692 3.025s9.573-2.916 9.693-3.04l.007.007a.94.94 0 0 0 .304-.63.95.95 0 0 0-.213-.669.903.903 0 0 0-1.285-.101c-.03.023-3.07 2.574-8.513 2.574-5.445 0-8.462-2.535-8.515-2.574a.9.9 0 0 0-.658-.222m89.419-10.8c2.88 0 4.126 1.98 4.126 5.162 0 3.223-1.26 5.163-4.126 5.163-2.92 0-4.139-1.94-4.139-5.163 0-3.125 1.233-5.162 4.139-5.162m-80.21-5.094c-.24 0-.47.099-.642.275a.96.96 0 0 0-.266.666V18.2c0 .25.096.489.266.665a.9.9 0 0 0 .642.276c.241 0 .473-.1.643-.276a.96.96 0 0 0 .267-.665V4.667A.96.96 0 0 0 14.315 4a.9.9 0 0 0-.643-.275M84.211 8.82c1.058 0 1.876.251 2.491.795.536.446.924 1.075 1.152 1.954.121.46-.187.92-.696 1.018-.483.084-.87-.237-1.017-.697-.162-.447-.376-.767-.63-.991-.35-.321-.778-.46-1.34-.46-.603 0-1.125.18-1.514.585-.562.586-.804 1.633-.804 2.958 0 1.312.229 2.358.817 2.944.39.405.898.586 1.487.586.616 0 1.084-.167 1.473-.544.201-.196.376-.446.496-.74.175-.433.536-.753 1.005-.642.468.113.763.586.616 1.047-.242.767-.657 1.381-1.219 1.8-.616.46-1.38.698-2.344.698-1.231 0-2.01-.377-2.6-.907-1.003-.935-1.459-2.4-1.459-4.242 0-1.856.443-3.306 1.434-4.227.616-.559 1.447-.935 2.652-.935m-12.401.152.053.001h3.173c2.184 0 3.094 1.48 3.094 2.986 0 1.413-.775 2.461-2.113 2.762l-.07.015 1.674 3.097c.228.404.08.92-.389 1.172a.866.866 0 0 1-1.156-.311l-.022-.037-1.862-3.586h-1.768l.014 3.042c0 .474-.348.865-.843.865-.468 0-.81-.367-.83-.821l-.001-.044v-8.037c0-.69.351-1.089.995-1.104zm-28.37 0c.843 0 1.192.475 1.527 1.173l1.66 3.39 1.42 3.294-.04-3.154-.014-3.808c0-.475.349-.865.845-.865.48-.001.83.39.83.864V17.4c0 1.018-.523 1.59-1.354 1.59h-.066c-.79 0-1.166-.474-1.5-1.172l-1.688-3.418-1.5-3.53.04 3.419.014 3.809c0 .474-.35.864-.845.864-.482 0-.83-.39-.83-.864v-7.536c0-.935.522-1.59 1.434-1.59zm-5.426.029c.482 0 .83.39.83.865v8.246c0 .475-.348.865-.843.865-.483 0-.831-.391-.831-.865V9.866c0-.475.348-.865.844-.865m71.513 0c.937 0 1.458.587 1.458 1.634l.015 7.464c0 .474-.349.864-.844.864-.482 0-.83-.39-.83-.864v-3.74l.039-3.642-1.165 3.698-1.178 3.642c-.201.642-.616.893-1.138.893-.55 0-.952-.265-1.166-.907l-1.206-3.627-1.112-3.642.04 3.586v3.74c0 .474-.349.864-.843.864-.482 0-.831-.39-.831-.865v-7.464c0-1.033.536-1.633 1.474-1.633.884 0 1.38.488 1.66 1.381l1.232 3.809.751 2.595.763-2.595 1.232-3.809c.282-.893.764-1.381 1.649-1.381m-51.074 0c.429 0 .777.336.777.824 0 .475-.348.809-.777.809h-2.075v7.465c0 .474-.349.864-.844.864-.483 0-.83-.39-.83-.864v-7.465h-2.077c-.428 0-.775-.335-.775-.823 0-.475.347-.81.775-.81zm4.06-.028h4.82c.429 0 .778.349.778.823 0 .475-.349.81-.777.81h-4.26v2.4h3.764c.415 0 .75.32.75.78 0 .461-.335.782-.75.782h-3.764v2.763h4.26c.428 0 .777.348.777.823 0 .474-.349.808-.777.808h-4.862c-.696.001-1.084-.403-1.059-1.143v-7.743c0-.726.388-1.13 1.1-1.103M9.144 4.24a.9.9 0 0 0-.659.242.96.96 0 0 0-.302.652v12.445c0 .25.096.489.267.665.17.177.401.276.642.276.24 0 .471-.1.642-.276a.96.96 0 0 0 .266-.665V5.133a.96.96 0 0 0-.262-.617.9.9 0 0 0-.594-.277m9.033-.047c-.241 0-.472.1-.643.276a.96.96 0 0 0-.266.665v12.445c0 .25.095.489.267.665.17.177.4.276.642.276.241 0 .471-.1.642-.276a.96.96 0 0 0 .266-.665V5.133a.96.96 0 0 0-.266-.665.9.9 0 0 0-.642-.276m75.69 6.26c-1.567 0-2.397 1.159-2.397 3.53 0 2.373.804 3.53 2.397 3.53 1.58 0 2.424-1.158 2.424-3.53s-.83-3.53-2.424-3.53M22.742 6.06c-.24 0-.472.1-.642.276a.96.96 0 0 0-.266.665v8.408c0 .25.096.489.266.665s.401.276.642.276.473-.1.643-.276a.96.96 0 0 0 .266-.665V7a.96.96 0 0 0-.266-.665.9.9 0 0 0-.643-.276m-18.154.047a.9.9 0 0 0-.659.241.96.96 0 0 0-.302.653v8.392c0 .25.096.49.266.666s.401.275.642.275.472-.099.642-.275a.96.96 0 0 0 .267-.666V7a.96.96 0 0 0-.263-.617.9.9 0 0 0-.593-.277m70.475 4.498h-2.64v2.89h2.653c.897 0 1.366-.6 1.366-1.452s-.496-1.438-1.38-1.438"/></svg>