<svg xmlns="http://www.w3.org/2000/svg" width="40" height="40" fill="none" viewBox="0 0 40 40"><path fill="#231f20" d="M31.311 15.742c-.227-.296-.744-.785-1.029-1.054l-.015-.015c-.068-.064-.13-.126-.204-.198a30 30 0 0 0-.923-.873l-.426-.43a295 295 0 0 0-4.68-4.554l-.058-.06c-.383-.389-.857-.872-1.17-1.16a63 63 0 0 0-.899-.812l-.924-.885a5.03 5.03 0 0 0-5.525-.97 5 5 0 0 0-1.335.875 5.4 5.4 0 0 0-.62.631 4.5 4.5 0 0 0-.56.856c-.314.621-.46 1.413-.455 1.993q0 .143.006.268c.005.46.074.922.206 1.367l.04.085c.18.353.354.807.81 1.412.12.157.259.32.428.489l.337.333c.193.189.306.272.398.34q.04.029.078.058c.086.067.156.158.24.265.108.14.238.307.451.486.68.572.918.884 1.1 1.12.052.069.1.132.153.192.171.197.446.447.662.627.171.143.471.471.692.727.083.097.205.219.348.363.149.148.32.32.497.512.445.483.683.74.874.945q.08.088.156.168c.16.173.361.385.565.6.244.256.491.516.676.718q.766.737 1.533 1.47c.263.252.543.466.779.594.235.128.407.16.48.087s.041-.245-.087-.48a4 4 0 0 0-.593-.779q-.76-.796-1.522-1.587-.93-.963-1.875-1.912-.663-.662-1.33-1.32l-.137-.135a61 61 0 0 0-.962-1.042 8 8 0 0 0-.52-.494c-.098-.087-.185-.164-.267-.248l-.176-.181a34 34 0 0 0-1.274-1.268 39 39 0 0 0-.71-.636l-.048-.042c-.304-.262-.538-.554-.631-.72a6 6 0 0 1-.467-1.006c-.11-.323-.162-.62-.162-.79 0-.204-.017-.375-.02-.632 0-.179.008-.4.064-.693.067-.338.138-.574.206-.772.098-.276.19-.484.393-.746.176-.226.376-.442.56-.623l.15-.146a3 3 0 0 1 .352-.29 6 6 0 0 1 .546-.346c.148-.085.27-.16.38-.223l.1-.055a4 4 0 0 1 .395-.121l.07-.007q.184-.015.46-.033c.29-.02.544-.038.815-.035a3.1 3.1 0 0 1 1.208.25c.266.108.512.245.685.337.065.035.124.057.184.08l.001.001.012.005q.373.254.685.58l.4.418.088.101c.144.165.283.325.365.438.09.122.346.397.617.687.177.19.36.387.506.55.085.096.18.173.278.252.091.074.185.15.275.244q.068.072.141.159.066.076.14.158c.046.05.158.154.303.285l.296.273q.395.413.791.823.073.098.112.176.025.055.043.108c.017.049.034.1.068.16a.4.4 0 0 0 .099.118q.023.017.042.025a.1.1 0 0 1 .04.025q.011.012.022.034a.3.3 0 0 0 .062.087c.127.129.274.272.419.412.16.156.318.308.439.433.136.14.343.327.55.515.145.13.29.26.41.376.12.113.234.239.345.361.134.147.262.288.386.394q.038.03.114.061.055.023.12.057.219.22.44.437l.01.02c.085.155.2.367.46.569a.8.8 0 0 0 .161.095c.045.021.084.04.13.08.05.046.1.11.155.18.076.1.161.21.271.296l.024.019c.08.063.197.156.326.236q.476.457.956.91a585 585 0 0 0 1.6 1.509c.26.244.535.452.767.577s.401.155.473.084.04-.24-.084-.472a4 4 0 0 0-.578-.767q-.597-.636-1.196-1.27l-.06-.07a9 9 0 0 1-.408-.508z"/><path fill="#231f20" d="M21.26 18.684c-.25-.318-.81-.85-1.117-1.143l-.017-.016c-.073-.07-.141-.136-.22-.215-.19-.187-.447-.44-1-.95l-.463-.465a300 300 0 0 0-3.866-3.787 5.1 5.1 0 0 0-1.536-1.022l-.092-.04c-.598-.273-1.413-.419-1.923-.397a4.7 4.7 0 0 0-1.415.246A5 5 0 0 0 7.45 12.21l-.067.069a5 5 0 0 0-1.202 4.917 5 5 0 0 0 .775 1.548q.211.297.44.544l.164.177c.264.288.5.544.7.75a55 55 0 0 0 1.664 1.628l.968.997q.037.029.075.058c.317.241.66.585 1.2 1.126.235.236.508.51.831.828.21.205.33.296.43.37l.083.065c.093.074.17.171.262.287.119.15.261.33.49.525.733.625.995.96 1.194 1.214.058.075.111.142.169.207.186.213.484.485.716.682.185.156.512.51.752.787.091.105.223.237.379.393.161.161.347.348.54.555l1.107 1.193c.12.14.225.345.252.57.038.268-.046.542-.162.705a1 1 0 0 1-.154.209q-.669.692-1.334 1.387a4.6 4.6 0 0 0-.652.837c-.143.25-.184.432-.111.505.073.072.254.032.505-.112.25-.143.551-.378.836-.651l1.388-1.335a2 2 0 0 0 .352-.464 1.965 1.965 0 0 0-.33-2.304l-.677-.681q-.72-.72-1.442-1.433l-.15-.147c-.384-.42-.769-.838-1.046-1.127a9 9 0 0 0-.563-.537 6 6 0 0 1-.48-.466c-.32-.33-.861-.89-1.382-1.376-.231-.216-.506-.46-.768-.693-.375-.333-.724-.643-.885-.816-.282-.303-.626-.63-.931-.919-.29-.275-.544-.516-.673-.669-.153-.182-.303-.32-.525-.524a26 26 0 0 1-.592-.56c-.288-.28-.5-.472-.68-.635a8 8 0 0 1-.696-.688q-.175-.197-.352-.39a8 8 0 0 1-.415-.493 3.4 3.4 0 0 1-.271-.413 6 6 0 0 1-.303-.633c-.072-.17-.133-.312-.184-.44l-.043-.117a4 4 0 0 1-.071-.443l.002-.076q.011-.2.034-.497c.025-.316.05-.591.104-.88a3.2 3.2 0 0 1 .503-1.238c.17-.261.37-.493.507-.655.051-.06.09-.118.129-.175l.001-.002.01-.013.056-.054a4.2 4.2 0 0 1 1.225-.826q.063-.025.127-.046a3 3 0 0 1 .55-.14c.149-.02.515-.094.905-.099.254-.005.517.017.727.056.123.022.242.029.364.041.114.012.232.028.354.069q.091.031.193.077l.187.087c.06.03.2.08.373.164.106.051.225.114.346.19q.335.233.617.53l.236.243q.08.104.124.188.028.058.049.114c.02.052.04.105.078.17.03.05.072.1.108.128q.025.017.045.027.024.01.043.027.013.015.024.037a.4.4 0 0 0 .068.093c.138.14.298.295.455.448.174.169.344.335.476.47.147.152.371.356.595.56.156.142.313.284.444.41.128.122.253.258.375.39.145.16.285.312.418.427.027.024.07.044.122.07q.057.025.128.064l.476.473.012.022c.095.165.225.391.503.612.071.057.125.083.173.107s.09.044.138.088c.055.05.11.12.17.195.083.107.177.225.295.32l.026.02c.085.07.212.172.35.26q.516.497 1.034.99.865.822 1.733 1.64c.281.266.577.495.824.635s.425.18.496.108.032-.25-.108-.497a4.6 4.6 0 0 0-.634-.824L21.87 19.43l-.066-.074c-.164-.184-.305-.366-.446-.547z"/><path fill="#231f20" d="M19.542 12.15c.199.266.661.701.916.94l.014.013.182.177c.156.153.367.36.825.775l.38.383a234 234 0 0 0 4.177 4.052l.053.054c.197.201.423.431.632.639.136.134.253.266.346.375.282.327.436.584.555.797.625 1.256.55 2.861-.235 4.064a4.16 4.16 0 0 1-1.963 1.618c-.227.08-.45.135-.657.17-.292.05-.554.064-.77.068a5 5 0 0 1-1.528-.197 4 4 0 0 1-.192-.064 4.2 4.2 0 0 1-.906-.517l-.064-.031a2 2 0 0 1-.501-.369c-.14-.134-.297-.292-.483-.478-.193-.194-.417-.418-.683-.68a2.6 2.6 0 0 0-.358-.3l-.07-.05c-.078-.06-.14-.141-.213-.238a2.3 2.3 0 0 0-.4-.435c-.611-.504-.82-.786-.979-1a3 3 0 0 0-.135-.173 5 5 0 0 0-.592-.556c-.154-.126-.42-.42-.615-.65a6 6 0 0 0-.31-.325 14 14 0 0 1-.441-.457l-.775-.847-.139-.15c-.142-.155-.32-.344-.502-.536-.216-.229-.436-.462-.6-.642q-.684-.656-1.37-1.308a3.1 3.1 0 0 0-.704-.52c-.216-.107-.377-.128-.45-.055-.072.073-.052.234.057.45.108.216.295.468.518.703q.675.711 1.354 1.418.826.862 1.669 1.707a212 212 0 0 0 1.308 1.296c.313.349.626.695.853.933.187.197.337.328.465.44.088.076.166.144.239.219q.06.06.156.162c.261.272.705.734 1.136 1.13.191.176.42.373.638.562.311.27.602.522.733.665q.095.104.2.209c.198.2.431.385.656.534.295.196.573.33.724.42.182.11.353.172.61.242.178.048.4.1.703.147.35.053.602.048.813.036.298-.019.518-.048.85-.08.37-.037.752-.138 1.032-.264.128-.057.274-.123.421-.2.196-.102.394-.225.56-.356.137-.108.236-.215.32-.31l.074-.088a5 5 0 0 0 .293-.288l.055-.044c.096-.079.212-.179.334-.323.192-.229.32-.461.436-.712a8 8 0 0 0 .424-1.187c.074-.284.117-.573.119-.775.001-.075-.01-.14-.021-.204v-.001l-.003-.013a5 5 0 0 0-.174-1.453l-.03-.125c-.05-.203-.113-.397-.15-.528-.038-.14-.188-.477-.399-.803a6 6 0 0 0-.435-.589 1 1 0 0 0-.123-.126q-.067-.056-.136-.11c-.082-.065-.166-.131-.247-.216q-.059-.063-.124-.143l-.123-.142c-.041-.045-.142-.136-.272-.253l-.265-.241-.704-.736a1 1 0 0 1-.096-.16q-.02-.05-.034-.1a1 1 0 0 0-.056-.147.3.3 0 0 0-.087-.107q-.02-.015-.04-.02-.02-.009-.035-.022-.01-.012-.02-.032a.3.3 0 0 0-.053-.078c-.113-.115-.245-.243-.374-.367a17 17 0 0 1-.392-.387c-.12-.125-.306-.29-.492-.456-.13-.115-.26-.23-.368-.333a6 6 0 0 1-.306-.323c-.118-.132-.232-.258-.343-.352q-.036-.026-.105-.051a2 2 0 0 1-.11-.048l-.392-.389-.01-.018a1.3 1.3 0 0 0-.403-.513c-.06-.045-.106-.064-.147-.082-.041-.017-.078-.032-.118-.068-.046-.04-.09-.1-.137-.163-.067-.089-.142-.188-.24-.264l-.022-.017a3 3 0 0 0-.296-.205L20 11.149q-.714-.672-1.432-1.34a3.1 3.1 0 0 0-.694-.504c-.212-.105-.37-.125-.442-.054s-.051.23.054.442c.105.213.287.462.504.694q.53.57 1.062 1.137l.054.062c.133.153.245.305.358.458z"/></svg>