<svg xmlns="http://www.w3.org/2000/svg" width="104" height="28" fill="none" viewBox="0 0 104 28"><path fill="#dae6fe" d="M33.78 24.18H10.132c-.924 0-1.697-.724-1.697-1.667V6.23c0-.92.752-1.689 1.697-1.689H33.78c.924 0 1.697.748 1.697 1.689v16.26c-.022.962-.773 1.69-1.697 1.69"/><path fill="#231f20" d="m11.81 24.18 10.116-7.369.064-.427-10.417-7.46-.021 14.89z" opacity=".1"/><path fill="#3c3c3c" d="M10.132 24.18c-.945 0-1.697-.725-1.697-1.667V6.207c0-.94.752-1.112 1.697-1.112s1.697.193 1.697 1.112v17.97z"/><path fill="#3c3c3c" d="M10.132 5.354c1.203 0 1.439.366 1.439.855v17.736h-1.44c-.38 0-.747-.151-1.016-.42a1.43 1.43 0 0 1-.422-1.012V6.209c-.022-.513.236-.855 1.439-.855m0-.235c-.945 0-1.697.192-1.697 1.09v16.282c0 .962.752 1.689 1.697 1.689h1.697V6.21c-.022-.92-.752-1.09-1.697-1.09m23.648.235c1.096 0 1.44.214 1.44.813v16.367c-.001.38-.153.744-.422 1.013-.27.268-.636.42-1.018.42h-1.439v-17.8c-.022-.62.343-.813 1.44-.813m0-.235c-.945 0-1.697.128-1.697 1.05v18.035h1.697c.945 0 1.697-.748 1.697-1.689V6.145c-.022-.92-.773-1.026-1.697-1.026"/><path fill="#3c3c3c" d="M33.78 24.18h-1.696V6.166c0-.94.752-1.05 1.697-1.05s1.697.129 1.697 1.05v16.368a1.69 1.69 0 0 1-1.697 1.646"/><path fill="#231f20" d="M26.54 24.18 8.584 6.914l.945.385 12.5 8.956 13.446-9.814v16.09c0 .92-.751 1.667-1.696 1.667z" opacity=".08"/><path fill="#3c3c3c" d="M21.924 16.833 9.166 7.62c-.752-.556-.967-1.625-.408-2.373a1.74 1.74 0 0 1 2.405-.363l10.78 7.802 10.847-7.91a1.68 1.68 0 0 1 2.365.386c.559.748.387 1.795-.386 2.351z"/><path fill="#3c3c3c" d="M33.779 4.713c.451 0 .902.213 1.181.598a1.453 1.453 0 0 1-.322 2.01l-12.715 9.213L9.314 7.427c-.644-.47-.816-1.389-.368-2.009.258-.385.712-.62 1.203-.62.323 0 .623.085.86.278l10.76 7.78.151.086.15-.085 10.826-7.91c.279-.149.558-.234.883-.234m0-.257c-.344 0-.711.086-.988.321l-10.85 7.908L11.14 4.862a1.67 1.67 0 0 0-1.01-.32c-.539.021-1.073.256-1.395.707-.54.749-.323 1.796.429 2.352l12.758 9.234 12.847-9.32a1.7 1.7 0 0 0 .387-2.351c-.343-.45-.86-.708-1.375-.708z"/><path fill="#231f20" d="M59.297 14.911q0 3.028-1.806 4.826-2.03 2.14-5.335 2.14-3.165 0-5.356-2.18t-2.191-5.37q0-3.191 2.19-5.371 2.193-2.18 5.357-2.18a8.1 8.1 0 0 1 3.022.564q1.42.566 2.33 1.595l-1.338 1.333q-.67-.808-1.735-1.262a5.8 5.8 0 0 0-2.282-.454q-2.371 0-4.017 1.636-1.623 1.655-1.623 4.138 0 2.484 1.623 4.14Q49.78 20.1 52.153 20.1q2.17 0 3.611-1.212 1.44-1.212 1.663-3.33h-5.274v-1.737h7.04q.099.541.1 1.09zm3.81 6.64h-1.863v-9.89h1.785v1.373h.08q.427-.727 1.31-1.212.881-.484 1.754-.484 1.096.001 1.927.505c.544.324.97.812 1.218 1.393q1.236-1.899 3.429-1.898 1.724 0 2.657 1.05t.933 2.988v6.175h-1.864V15.66q-.001-1.394-.507-2.01t-1.704-.615q-1.076 0-1.805.909-.73.909-.73 2.14v5.468h-1.865V15.66c0-.93-.172-1.599-.507-2.01s-.906-.615-1.704-.615q-1.076 0-1.805.909-.73.909-.73 2.14v5.468zm19.09-10.213q2.07 0 3.267 1.1t1.197 3.018v6.095h-1.786v-1.373h-.08q-1.158 1.696-3.084 1.696-1.644 0-2.749-.969-1.106-.97-1.106-2.423 0-1.536 1.167-2.443 1.167-.908 3.114-.908 1.664 0 2.738.605v-.424q0-.969-.77-1.645a2.65 2.65 0 0 0-1.806-.676c-1.042 0-1.864.437-2.477 1.312l-1.643-1.03q1.36-1.938 4.016-1.938zm-2.414 7.187q0 .727.619 1.212.618.483 1.45.484 1.177 0 2.1-.868.923-.87.923-2.04-.873-.686-2.434-.686-1.137 0-1.897.545t-.761 1.353M91.185 8.25a1.26 1.26 0 0 1-.386.929 1.27 1.27 0 0 1-.933.383q-.547 0-.933-.383a1.26 1.26 0 0 1-.385-.93 1.26 1.26 0 0 1 .385-.928 1.27 1.27 0 0 1 .933-.384 1.28 1.28 0 0 1 .933.384q.386.383.386.929m-.386 3.412v9.89h-1.864v-9.89zm4.3-4.56v14.45h-1.863V7.101z"/></svg>