<svg xmlns="http://www.w3.org/2000/svg" width="140" height="28" fill="none" viewBox="0 0 140 28"><g clip-path="url(#a)"><mask id="b" width="140" height="28" x="0" y="0" maskUnits="userSpaceOnUse" style="mask-type:luminance"><path fill="#fff" d="M140 0H0v28h140z"/></mask><g fill="#231f20" mask="url(#b)"><path d="M104.307 9.958v17.455h-5.71V7.224z"/><path d="m23.476 24.172 4.283 3.67 18.046-9.254-1.864-4.413zm75.116-11.247 14.516-7.419-2.459-4.178-12.057 5.896z"/><path d="M57.742 8.591v18.822H52.27V.586zM23.476 24.172l4.283 3.67 8.25-20.305L33.352.586z"/><path d="M33.356.586h5.632l10.43 26.827h-5.79zm25.224 0L70.597 18.9v8.513L52.274.586zm22.33 0h5.67v26.827h-5.67zm17.687 4.92h-8.725V.586h20.346l2.895 4.92H98.597M129.886 17.221v10.192h-5.632V17.221M133.772.586l-9.518 16.635h5.632L139.761.586z"/><path d="M124.258 17.221 114.422.586h6.187l6.624 11.403zM2.338 3.71c0 3.71 2.34 5.936 7.02 7.107l4.958 1.133c4.442 1.015 7.138 3.514 7.138 7.575.04 1.757-.555 3.476-1.626 4.881 0-4.06-2.141-6.248-7.257-7.575l-4.879-1.094C3.766 14.878.752 12.81.752 8.396c0-1.68.555-3.358 1.586-4.686M70.593 17.534V.586h5.473v26.827h-5.473z"/><path d="M16.777 18.51c2.101 1.327 3.053 3.202 3.053 5.896-1.784 2.226-4.838 3.437-8.447 3.437-6.068 0-10.391-2.968-11.303-8.084h5.83c.753 2.343 2.736 3.437 5.433 3.437 3.213.039 5.394-1.68 5.433-4.686M2.34 3.67C4.046 1.485 6.98.157 10.55.157c6.226 0 9.796 3.241 10.708 7.771h-5.632c-.634-1.796-2.181-3.202-4.997-3.202-3.054.04-5.116 1.757-5.235 4.49C3.35 8.107 2.261 5.936 2.34 3.672"/></g></g><defs><clipPath id="a"><path fill="#fff" d="M0 0h140v28H0z"/></clipPath></defs></svg>