<svg xmlns="http://www.w3.org/2000/svg" width="97" height="28" fill="none" viewBox="0 0 97 28"><g clip-path="url(#a)"><path fill="#231f20" fill-rule="evenodd" d="M37.274 6.991a4.55 4.55 0 0 0-2.437.71l-.199-.551h-2.192v12.88h.013v.016h2.567v-7.9c0-1.329 1.007-2.406 2.247-2.406 1.242 0 2.247 1.077 2.247 2.406v7.898h2.568v-7.898c0-2.847-2.155-5.155-4.814-5.155M67.36 20.044l-4.199-6.802 3.59-6.094h-2.874l-2.24 3.626L59.4 7.148h-2.875l3.59 6.094-4.2 6.802h3.238l2.485-4.216 2.485 4.216zM51.943 16.81c-.568.452-1.363.737-2.245.737-1.242 0-2.248-1.077-2.248-2.406v-.695h7.067v-2.3c0-2.847-2.156-5.155-4.814-5.155-2.66 0-4.815 2.308-4.815 5.155l-.005 2.995c0 2.847 2.155 5.155 4.814 5.155a8.3 8.3 0 0 0 3.07-.58zm-4.487-4.664c0-1.329 1.006-2.406 2.247-2.406s2.247 1.077 2.247 2.406v.055h-4.494zm49.15-.02c0-2.846-2.155-5.154-4.814-5.154-.748 0-1.865.206-2.355.335l.779 2.741a3.8 3.8 0 0 1 1.565-.326V9.72l.01.001c1.242 0 2.248.948 2.248 2.458 0 0-1.5-.068-2.57.027-2.455.2-4.24 1.652-4.24 3.845 0 2.33 2.026 4.217 4.695 4.217.867 0 1.646-.291 2.305-.733l.186.517h2.192zm-2.567 3.54c0 1.305-.964 2.101-2.095 2.101-1.158 0-2.098-.782-2.098-1.747s.949-1.605 2.098-1.747a6.9 6.9 0 0 1 2.095.077zm-17.245 1.702a3.7 3.7 0 0 1-1.207.178c-1.241 0-2.248-1.077-2.248-2.405V9.416h2.83V7.144h-2.83V3.271l-2.566 1.755v2.118h-1.501v2.272h1.5v5.725c0 2.847 2.156 5.155 4.815 5.155q.191-.001.379-.01zm10.027-9.822a4.53 4.53 0 0 0-4.59.146l-.195-.542h-2.192l-.005 12.894h2.567v-7.898c0-1.328 1.006-2.406 2.247-2.406.453 0 1.036.151 1.447.338zM14.161.303C6.555.303.392 6.436.392 14S6.557 27.697 14.16 27.697c7.604 0 13.768-6.133 13.768-13.697S21.764.303 14.16.303m-.009 24.273c-5.865 0-10.62-4.73-10.62-10.566 0-1.537.273-3.26.938-4.348.48-.786 1.687-2.494 3.19-1.71 1.042.542 1.126 1.432 1.126 3.54l-.009 7.381q.001.135.024.261c.04.373.206.721.478.99a1.65 1.65 0 0 0 1.177.486 1.657 1.657 0 0 0 1.665-1.657l.004-6.948a2.17 2.17 0 0 1 1.337-2.014c.261-.107.54-.162.823-.162.565 0 1.1.222 1.504.624.31.307.52.699.605 1.125q.03.18.03.367l.006 6.897q.002.131.023.257c.04.375.207.724.478.993a1.65 1.65 0 0 0 1.177.486c.446 0 .864-.172 1.178-.486a1.64 1.64 0 0 0 .488-1.171l.001-6.896c0-1.46-.57-2.83-1.607-3.863a5.46 5.46 0 0 0-3.883-1.6c-.64 0-1.179.118-1.776.315-.374.123-.723.29-1.167.27-.975-.047-1.694-1.075-1.001-2.186.644-1.032 2.254-1.495 3.81-1.518 5.865-.088 10.62 4.73 10.62 10.566.002 5.837-4.754 10.567-10.619 10.567m18.644-.32h.419c.393 0 .627.19.627.634 0 .456-.196.716-.534.716l-.512.006zm0 1.681h.545c.502 0 .883-.374.883-1.047 0-.618-.36-.96-1.003-.96h-.79v3.619h.365zm11.13.168h-.819l.404-1.692h.01zm.086.326.284 1.188.36-.097-.922-3.592h-.436l-.921 3.592.36.097.283-1.188zm9.451-2.175h.447c.37 0 .6.162.6.634 0 .488-.197.7-.513.722h-.535zm-.365 3.293h.366v-1.612h.408l.818 1.682.328-.157-.753-1.552c.447-.151.627-.575.627-1.02 0-.65-.453-.96-.813-.96h-.98zm10.912-3.293h-.785v-.326h1.92v.326h-.77v3.293h-.365zm9.56-.326h.458l1.08 3.044.01-.011-.016-.808v-2.226h.365v3.62h-.458l-1.08-3.05-.01.012.016.818v2.22h-.366zm10.503 0h1.771v.326h-1.406v1.193H85.6v.325h-1.162v1.45h1.406v.325h-1.771zm10.726.326h.447c.37 0 .6.162.6.634 0 .488-.197.7-.513.722h-.535zm-.365 3.293h.365v-1.612h.409l.818 1.682.327-.157-.753-1.552c.447-.151.628-.575.628-1.02 0-.65-.453-.96-.812-.96h-.982z" clip-rule="evenodd"/></g><defs><clipPath id="a"><path fill="#fff" d="M0 0h97v28H0z"/></clipPath></defs></svg>