<svg xmlns="http://www.w3.org/2000/svg" width="111" height="28" fill="none" viewBox="0 0 111 28"><g clip-path="url(#a)"><path fill="#231f20" d="M36.174 19.885h-5.186V8.028h5.185q5.605 0 5.607 5.605-.002 6.251-5.607 6.252m-2.97-1.909h2.634q3.723 0 3.722-4.344 0-3.7-3.722-3.7h-2.635zM44.1 19.885h-2.277l5.08-11.857h2.383l5.187 11.857h-2.383l-1.506-3.233h-3.832l.762-1.908h2.484l-1.957-4.453zm9.121-11.857h9.077v1.906h-3.43v9.95h-2.215v-9.95h-3.432zm10.216 11.857h-2.276L66.24 8.028h2.383l5.188 11.857h-2.387l-1.505-3.233h-3.832l.762-1.908h2.484l-1.956-4.453zm17.03 0h-5.185V8.028h5.186q5.606 0 5.606 5.605 0 6.251-5.606 6.252M77.5 17.976h2.635q3.722 0 3.724-4.344 0-3.7-3.724-3.7H77.5zm10.077-4.003q0-6.03 6.008-6.03 5.913 0 5.912 6.03 0 5.997-5.912 5.997-5.74 0-6.008-5.997m6.008 4.086q3.611 0 3.612-4.138 0-4.075-3.612-4.075-3.706.001-3.706 4.075 0 4.139 3.706 4.138m15.162-2.972v2.776a5.6 5.6 0 0 1-1.372.199q-4.065 0-4.064-4.27 0-3.943 4.308-3.942 1.798 0 3.346.664V8.523q-1.548-.58-3.514-.58-6.442 0-6.442 5.848 0 6.178 6.332 6.18 2.177 0 3.624-.631v-6.204h-3.581l-.748 1.95zm-86.717 4.73-2.34-1.53-1.95 3.235-2.269-.658-1.998 3.028.103.953 10.861-1.987-.63-6.74zM11.9 16.913l1.744-.238c.281.125.478.174.817.259.527.136 1.135.267 2.038-.185.21-.103.647-.5.824-.727l7.14-1.286.727 8.754-12.231 2.19zm13.263-3.155-.705.134L23.105 0 .035 2.656l2.843 22.905 2.7-.39c-.215-.305-.552-.676-1.125-1.15-.796-.655-.514-1.77-.044-2.474.62-1.188 3.819-2.7 3.637-4.6-.065-.692-.176-1.591-.822-2.208-.024.256.02.502.02.502s-.266-.336-.399-.794c-.131-.176-.234-.231-.374-.467-.1.271-.086.587-.086.587s-.216-.51-.252-.94c-.13.193-.161.558-.161.558s-.282-.803-.218-1.235c-.129-.376-.51-1.122-.402-2.819.704.49 2.255.373 2.858-.51.2-.294.338-1.093-.1-2.667-.282-1.01-.978-2.513-1.25-3.084l-.031.023c.142.46.438 1.423.552 1.89.342 1.418.434 1.91.273 2.563-.138.568-.465.94-1.297 1.355-.832.418-1.936-.597-2.006-.652-.809-.64-1.434-1.683-1.503-2.19-.072-.555.321-.888.521-1.341a5 5 0 0 0-.602.224s.379-.39.846-.725c.194-.127.307-.208.51-.376-.295-.004-.535.002-.535.002s.492-.264 1.003-.455c-.373-.017-.731-.003-.731-.003s1.098-.488 1.965-.846c.596-.242 1.178-.17 1.506.3.43.615.88.95 1.837 1.157.588-.259.765-.39 1.503-.59.649-.71 1.16-.802 1.16-.802s-.253.23-.321.592c.369-.288.772-.529.772-.529s-.156.192-.302.496l.033.05c.43-.256.935-.457.935-.457s-.144.181-.314.415c.325-.002.982.014 1.236.043 1.506.033 1.818-1.597 2.396-1.801.724-.256 1.047-.412 2.28.79 1.058 1.033 1.884 2.88 1.474 3.294-.344.343-1.024-.133-1.775-1.065a4 4 0 0 1-.84-1.817c-.119-.625-.58-.987-.58-.987s.267.593.267 1.117c0 .286.036 1.355.498 1.954-.046.088-.066.433-.118.5-.536-.645-1.69-1.106-1.877-1.243.636.518 2.1 1.708 2.66 2.848.532 1.078.218 2.067.487 2.323.077.073 1.143 1.393 1.348 2.056.358 1.156.021 2.37-.446 3.124l-1.308.202c-.191-.052-.32-.08-.492-.178.094-.166.283-.58.284-.666l-.073-.128c-.408.573-1.089 1.129-1.656 1.448-.742.418-1.596.353-2.152.182-1.58-.483-3.073-1.544-3.432-1.822 0 0-.01.222.057.273.398.446 1.31 1.253 2.192 1.815l-1.879.205.89 6.87c-.395.057-.456.084-.887.145-.38-1.333-1.106-2.205-1.9-2.712-.701-.447-1.668-.548-2.594-.366l-.06.069a3.36 3.36 0 0 1 2.183.516c.765.481 1.383 1.723 1.61 2.47.291.957.492 1.978-.291 3.062-.558.77-2.183 1.195-3.497.275.35.561.825 1.02 1.463 1.105.948.128 1.848-.036 2.466-.667.529-.54.81-1.669.735-2.857l.836-.12.303 2.133 13.85-1.656zm-8.427-5.794c-.039.088-.1.144-.008.43l.005.016.014.037.038.085c.165.334.345.649.646.81q.117-.019.242-.026c.283-.013.462.032.576.094.01-.057.012-.138.005-.26-.022-.422.085-1.141-.733-1.52-.31-.141-.742-.099-.886.08q.04.005.068.015c.22.075.073.15.033.239m2.293 3.945c-.106-.06-.608-.036-.96.005-.672.079-1.397.31-1.556.433-.289.222-.158.609.055.767.6.443 1.123.742 1.677.67.34-.045.639-.58.851-1.065.147-.334.147-.693-.067-.81m-5.944-3.422c.19-.18-.943-.413-1.822.182-.647.439-.668 1.38-.049 1.914q.092.076.161.121.272-.13.626-.247c.402-.129.735-.196 1.01-.23.13-.147.283-.403.245-.867-.052-.632-.533-.532-.17-.873"/></g><defs><clipPath id="a"><path fill="#fff" d="M0 0h111v28H0z"/></clipPath></defs></svg>