<svg xmlns="http://www.w3.org/2000/svg" width="138" height="28" fill="none" viewBox="0 0 138 28"><path fill="#231f20" d="M17.553 23.607c.69 0 1.104.548 1.104 1.098 0 .687-.551 1.098-1.104 1.098-.691 0-1.105-.55-1.105-1.098 0-.55.414-1.098 1.105-1.098m18.094-7.004c-.691 0-1.105-.549-1.105-1.099s.553-1.098 1.105-1.098c.69 0 1.104.548 1.104 1.098s-.551 1.098-1.104 1.098m0-4.669c-1.933 0-3.591 1.647-3.591 3.57 0 .412 0 .824.137 1.098l-11.74 6.18a3.6 3.6 0 0 0-2.9-1.51c-1.382 0-2.625.823-3.177 1.922L3.878 17.7c-1.105-.549-1.933-2.472-1.796-4.12 0-.823.414-1.51.83-1.785.275-.137.69-.137.966 0h.139c2.762 1.512 12.017 6.18 12.292 6.455.553.274.967.411 1.934-.137l18.924-9.75c.275-.138.551-.413.551-.824 0-.55-.551-.825-.551-.825-1.106-.549-2.763-1.235-4.283-2.06A741 741 0 0 0 23.768.4c-1.519-.824-2.625-.138-2.9 0l-.415.137c-7.735 3.846-18.094 8.925-18.647 9.2C.7 10.423.149 11.66.01 13.17c-.137 2.472 1.105 5.082 3.04 6.043l11.187 5.768c.277 1.785 1.797 3.02 3.453 3.02 1.935 0 3.592-1.51 3.592-3.433l12.293-6.591c.69.55 1.38.686 2.21.686 1.933 0 3.591-1.648 3.591-3.57-.276-1.648-1.795-3.158-3.73-3.158M62.58 21.27a7.5 7.5 0 0 1-2.9 1.787 13.1 13.1 0 0 1-4.144.687c-2.349 0-4.283-.687-5.664-2.198-1.381-1.374-2.21-3.433-2.21-5.905v-1.51c0-1.786.277-3.296.968-4.533.69-1.373 1.518-2.333 2.623-3.02s2.487-1.1 4.006-1.1c2.21 0 4.007.55 5.249 1.512 1.244.961 1.934 2.471 2.21 4.531h-4.143c-.14-.961-.416-1.648-.967-2.06a3.4 3.4 0 0 0-2.072-.686c-1.105 0-1.934.412-2.486 1.373s-.83 2.197-.967 3.845v1.098c0 1.786.276 3.16.967 3.983.552.823 1.519 1.373 2.9 1.373 1.105 0 1.934-.275 2.486-.686v-2.747h-3.04v-2.883h7.323v7.14zm2.487 2.197h4.144V10.285h-4.144zM64.93 6.852c0-.55.276-1.1.69-1.512s.967-.548 1.658-.548c.69 0 1.242.137 1.656.548.416.412.691.825.691 1.512 0 .548-.275 1.098-.69 1.51s-.966.55-1.657.55c-.69 0-1.244-.139-1.658-.55-.553-.412-.69-.824-.69-1.51m11.739.138v3.296h2.21v2.883h-2.21v6.043c0 .549.138.823.276 1.099.138.136.552.274 1.105.274.414 0 .69 0 .967-.138v2.885c-.69.273-1.52.412-2.348.412-1.381 0-2.486-.275-3.177-.962s-.967-1.648-.967-3.021v-6.592h-1.658v-2.883h1.658V6.99zm8.291 8.924v4.258h2.763c.828 0 1.381-.138 1.795-.55.415-.411.691-.823.691-1.51 0-1.511-.69-2.198-2.21-2.198zm0-2.746h2.21c.967 0 1.658-.137 2.072-.548.414-.275.553-.825.553-1.512s-.277-1.235-.69-1.647c-.416-.275-1.107-.55-2.073-.55H84.96zm-4.282 10.3V5.752h6.492c2.348 0 4.006.412 5.248 1.235 1.244.825 1.796 2.06 1.796 3.708 0 .962-.275 1.649-.69 2.335-.415.687-1.106 1.098-1.934 1.373.968.275 1.658.687 2.21 1.374.553.686.69 1.51.69 2.471 0 1.785-.551 3.022-1.657 3.983-1.105.823-2.763 1.373-4.972 1.373zm19.613-6.455c0 1.236.139 2.06.553 2.746q.622.825 1.657.825c1.519 0 2.21-1.098 2.21-3.433v-.412c0-2.335-.828-3.57-2.348-3.57-1.382 0-2.072.96-2.21 3.02zm-4.144-.274c0-1.373.276-2.473.83-3.57.551-.963 1.242-1.786 2.209-2.336.967-.548 2.072-.823 3.453-.823 1.934 0 3.591.55 4.697 1.785q1.657 1.854 1.656 4.944v.274c0 2.06-.551 3.708-1.795 4.944-1.105 1.235-2.763 1.785-4.696 1.785q-2.9 0-4.559-1.648c-1.104-1.098-1.795-2.608-1.795-4.531zm18.369.274c0 1.236.139 2.06.553 2.746q.621.825 1.658.825c1.519 0 2.209-1.098 2.209-3.433v-.412c0-2.335-.828-3.57-2.348-3.57-1.381 0-2.072.96-2.21 3.02zm-4.144-.274c0-1.373.277-2.473.83-3.57.551-.963 1.242-1.786 2.209-2.336.967-.548 2.072-.823 3.453-.823 1.935 0 3.591.55 4.697 1.785q1.657 1.854 1.657 4.944v.274c0 2.06-.552 3.708-1.796 4.944-1.105 1.235-2.762 1.785-4.695 1.785q-2.901 0-4.56-1.648c-1.104-1.098-1.795-2.608-1.795-4.531zm20.031 1.921-1.242 1.1v3.707h-4.144V4.792h4.144v9.886l.414-.549 3.176-3.844h4.972l-4.695 5.493 4.972 7.69h-4.695z"/></svg>