<svg xmlns="http://www.w3.org/2000/svg" width="168" height="28" fill="none" viewBox="0 0 168 28"><g clip-path="url(#a)"><path fill="#ea4335" d="m20.98 18.55 1.332 4.58 3.486 3.746c.48-.278.877-.677 1.153-1.156l3.244-5.6a3.15 3.15 0 0 0 .421-1.576l-4.976-.962z"/><path fill="#188038" d="M20.127.42a3.17 3.17 0 0 0-1.58-.42h-6.478a3.2 3.2 0 0 0-1.58.42l1.396 4.691 3.407 3.61 3.434-3.678z"/><path fill="#1967d2" d="m9.637 18.55-4.971-1.135-4.671 1.134a3.15 3.15 0 0 0 .42 1.576l3.245 5.6c.276.48.674.878 1.153 1.156l3.433-3.53z"/><path fill="#fbbc04" d="m25.74 9.272-4.455-7.701A3.16 3.16 0 0 0 20.132.415l-4.824 8.332 5.672 9.797h9.636a3.15 3.15 0 0 0-.421-1.576z"/><path fill="#4285f4" d="M20.98 18.55H9.637l-4.819 8.326c.48.276 1.026.42 1.58.42h17.82c.555 0 1.1-.144 1.58-.42z"/><path fill="#34a853" d="M15.308 8.747 10.49.42a3.16 3.16 0 0 0-1.153 1.15L.42 16.98A3.15 3.15 0 0 0 0 18.555h9.637z"/><path fill="#5f6368" d="M104.829 12.787a2.395 2.395 0 0 1 2.296 1.33l-5.476 2.258c0-2.538 1.801-3.588 3.18-3.588m.19 7.438a3.09 3.09 0 0 1-2.939-1.833l8.1-3.341-.269-.688c-.527-1.35-2.043-3.851-5.182-3.851-3.138 0-5.713 2.443-5.713 6.046a5.9 5.9 0 0 0 1.715 4.298 5.92 5.92 0 0 0 4.293 1.75 6.06 6.06 0 0 0 5.05-2.675l-2.064-1.371a3.46 3.46 0 0 1-2.981 1.665zM94.319 4.33h2.632v18.28h-2.633zM73.464 20.225a3.69 3.69 0 0 1-3.587-2.078 3.67 3.67 0 0 1 .623-4.092 3.69 3.69 0 0 1 4.044-.922 3.685 3.685 0 0 1 2.343 3.415 3.49 3.49 0 0 1-2.063 3.372c-.428.192-.89.295-1.36.305m0-9.708a6.07 6.07 0 0 0-3.361 1.03 6.033 6.033 0 0 0-.896 9.3 6.07 6.07 0 0 0 6.603 1.301 6.06 6.06 0 0 0 2.716-2.227 6.04 6.04 0 0 0 1.02-3.357 5.95 5.95 0 0 0-1.757-4.307 5.97 5.97 0 0 0-4.325-1.734zm13.165 9.708c-1.838 0-3.233-1.576-3.233-3.677s1.395-3.677 3.233-3.677 3.233 1.576 3.233 3.677-1.4 3.677-3.233 3.677m3.054-8.352h-.094a4.2 4.2 0 0 0-3.192-1.35c-3.022 0-5.66 2.626-5.66 6.046s2.633 6.047 5.66 6.047a4.15 4.15 0 0 0 3.192-1.372h.094v.841c0 2.311-1.242 3.546-3.233 3.546a3.37 3.37 0 0 1-3.054-2.154l-2.317.956a5.8 5.8 0 0 0 2.142 2.599 5.8 5.8 0 0 0 3.23.968c3.117 0 5.755-1.833 5.755-6.304V10.848h-2.523zM59.88 20.225a3.69 3.69 0 0 1-3.587-2.078 3.67 3.67 0 0 1 .622-4.092 3.69 3.69 0 0 1 4.045-.922 3.68 3.68 0 0 1 2.343 3.415 3.49 3.49 0 0 1-2.063 3.372c-.428.192-.89.295-1.36.305m0-9.708a6.07 6.07 0 0 0-3.362 1.03 6.033 6.033 0 0 0-.896 9.3 6.07 6.07 0 0 0 6.603 1.301 6.06 6.06 0 0 0 2.717-2.227 6.04 6.04 0 0 0 1.02-3.357 5.94 5.94 0 0 0-1.755-4.31 5.97 5.97 0 0 0-4.327-1.737M43.444 12.62v2.558h6.13a5.42 5.42 0 0 1-1.396 3.225 6.28 6.28 0 0 1-4.74 1.87 6.85 6.85 0 0 1-4.448-2.19 6.82 6.82 0 0 1 0-9.225 6.85 6.85 0 0 1 4.449-2.19A6.53 6.53 0 0 1 48.057 8.5l1.806-1.802a8.86 8.86 0 0 0-6.424-2.627 9.4 9.4 0 0 0-6.783 2.663 9.36 9.36 0 0 0-2.829 6.701 9.35 9.35 0 0 0 2.83 6.702 9.4 9.4 0 0 0 6.782 2.662 8.62 8.62 0 0 0 6.55-2.626c1.69-1.686 2.223-4.066 2.223-5.984a8 8 0 0 0-.137-1.576zm74.334 9.591V6.041h4.956q3.712 0 5.966 2.238a8.74 8.74 0 0 1 0 11.71q-2.254 2.222-5.966 2.222zm2.107-14.184V20.22h2.875q2.828 0 4.46-1.613t1.627-4.48q0-2.849-1.627-4.471-1.627-1.623-4.46-1.623zm15.061 14.183h-2.107V11.148h1.991v1.802h.089a3 3 0 0 1 1.301-1.502 3.6 3.6 0 0 1 1.938-.62 3.9 3.9 0 0 1 1.538.273l-.632 2.012a3.5 3.5 0 0 0-1.222-.158 2.7 2.7 0 0 0-2.048.951 3.14 3.14 0 0 0-.869 2.212zm9.083-14.882a1.464 1.464 0 0 1-1.191 1.427 1.474 1.474 0 0 1-1.637-.883 1.46 1.46 0 0 1 .544-1.776 1.47 1.47 0 0 1 1.852.182 1.41 1.41 0 0 1 .432 1.05m-.432 3.82V22.21h-2.106V11.148zm8.363 11.062h-2.107l-4.481-11.062h2.264l3.26 8.583h.047l3.307-8.583h2.217zm10.785.363a5.32 5.32 0 0 1-4.029-1.67 5.9 5.9 0 0 1-1.58-4.203 6 6 0 0 1 1.538-4.202 5.54 5.54 0 0 1 3.915-1.683 5.54 5.54 0 0 1 3.952 1.593q1.46 1.575 1.459 4.46v.226h-8.742a3.6 3.6 0 0 0 1.085 2.627 3.48 3.48 0 0 0 2.491.993q1.99 0 3.123-1.986l1.853.903a5.5 5.5 0 0 1-2.069 2.191c-.911.52-1.948.78-2.996.751m-3.329-7.228h6.362a2.75 2.75 0 0 0-.938-1.907 3.3 3.3 0 0 0-2.275-.757 3.02 3.02 0 0 0-2.027.725 3.45 3.45 0 0 0-1.122 1.939"/></g><defs><clipPath id="a"><path fill="#fff" d="M0 0h168v28H0z"/></clipPath></defs></svg>