<svg xmlns="http://www.w3.org/2000/svg" width="126" height="28" fill="none" viewBox="0 0 126 28"><g fill="#231f20" clip-path="url(#a)"><path d="M.038 19.46c-.105.269.038.325.071.372.315.224.634.385.956.565 1.706.889 3.317 1.148 5.002 1.148 3.432 0 5.563-1.79 5.563-4.673v-.056c0-2.665-2.405-3.632-4.662-4.331l-.293-.094c-1.702-.542-3.17-1.01-3.17-2.108v-.059c0-.94.858-1.632 2.188-1.632 1.478 0 3.232.482 4.361 1.094 0 0 .332.21.453-.105.067-.168.639-1.678.698-1.842.065-.177-.05-.308-.166-.379-1.29-.769-3.072-1.295-4.917-1.295l-.343.003c-3.141 0-5.334 1.86-5.334 4.528v.056c0 2.812 2.42 3.724 4.686 4.36l.364.11c1.652.497 3.075.925 3.075 2.066v.056c0 1.043-.925 1.819-2.417 1.819-.58 0-2.426-.012-4.42-1.249-.241-.138-.382-.238-.568-.348-.098-.06-.343-.166-.45.152zM50.276 19.46c-.105.269.038.325.072.372.314.224.633.385.955.565 1.707.889 3.318 1.148 5.003 1.148 3.431 0 5.562-1.79 5.562-4.673v-.056c0-2.665-2.405-3.632-4.662-4.331l-.293-.094c-1.701-.542-3.17-1.01-3.17-2.108v-.059c0-.94.859-1.632 2.188-1.632 1.478 0 3.232.482 4.361 1.094 0 0 .332.21.453-.105.067-.168.639-1.678.699-1.842.064-.177-.05-.308-.167-.379-1.29-.769-3.072-1.295-4.917-1.295l-.343.003c-3.14 0-5.333 1.86-5.333 4.528v.056c0 2.812 2.419 3.724 4.685 4.36l.364.11c1.652.497 3.077.925 3.077 2.066v.056c0 1.043-.927 1.819-2.419 1.819-.579 0-2.426-.012-4.42-1.249-.241-.138-.384-.233-.565-.348-.062-.04-.353-.15-.453.152zM84.574 13.814c0 1.63-.31 2.913-.92 3.82-.603.898-1.516 1.335-2.789 1.335-1.275 0-2.183-.435-2.776-1.335-.6-.905-.906-2.19-.906-3.82 0-1.627.305-2.908.906-3.806.593-.888 1.501-1.32 2.776-1.32 1.273 0 2.186.432 2.79 1.32.608.898.919 2.18.919 3.806m2.864-3.02a6.7 6.7 0 0 0-1.304-2.44 6.3 6.3 0 0 0-2.2-1.642c-.874-.4-1.909-.603-3.069-.603-1.162 0-2.197.204-3.072.603a6.3 6.3 0 0 0-2.202 1.641 6.8 6.8 0 0 0-1.303 2.44c-.28.929-.42 1.944-.42 3.021 0 1.078.14 2.095.42 3.02.283.93.72 1.753 1.306 2.44a6.14 6.14 0 0 0 2.2 1.628c.876.39 1.909.589 3.071.589 1.16 0 2.193-.199 3.07-.59a6.14 6.14 0 0 0 2.2-1.626 6.7 6.7 0 0 0 1.303-2.44c.281-.929.422-1.946.422-3.02 0-1.076-.14-2.093-.422-3.021M110.963 18.534c-.095-.274-.364-.17-.364-.17-.417.156-.86.3-1.332.373q-.722.11-1.571.11c-1.387 0-2.488-.405-3.277-1.204-.791-.8-1.234-2.092-1.229-3.84.004-1.593.395-2.79 1.098-3.701.698-.907 1.761-1.372 3.179-1.372 1.182 0 2.083.133 3.027.425 0 0 .226.096.334-.194.25-.682.436-1.171.703-1.921.076-.213-.11-.304-.177-.33-.371-.143-1.248-.374-1.911-.472a14.6 14.6 0 0 0-2.15-.143c-1.203 0-2.275.201-3.193.603-.915.4-1.692.952-2.307 1.639a6.9 6.9 0 0 0-1.394 2.44 9.5 9.5 0 0 0-.467 3.025c0 2.331.641 4.215 1.906 5.594 1.268 1.384 3.172 2.088 5.656 2.088 1.467 0 2.974-.292 4.056-.71 0 0 .207-.099.116-.335zM115.972 12.254c.136-.905.391-1.657.784-2.244.594-.89 1.499-1.38 2.772-1.38s2.114.492 2.717 1.38c.4.587.574 1.372.643 2.244zm9.645-1.99c-.243-.9-.847-1.809-1.242-2.225-.624-.659-1.234-1.12-1.84-1.376a7.2 7.2 0 0 0-2.778-.552c-1.211 0-2.31.199-3.201.61-.894.411-1.644.972-2.233 1.671a6.8 6.8 0 0 0-1.313 2.469 10.5 10.5 0 0 0-.427 3.036c0 1.097.148 2.118.441 3.037a6.3 6.3 0 0 0 1.406 2.417c.637.68 1.457 1.213 2.438 1.585.975.37 2.16.561 3.52.559 2.8-.01 4.276-.622 4.883-.952.108-.058.21-.161.082-.456l-.635-1.741c-.095-.26-.365-.164-.365-.164-.693.253-1.679.706-3.979.702-1.504-.003-2.619-.437-3.318-1.118-.717-.696-1.067-1.72-1.129-3.165l9.697.01s.255-.005.281-.248c.01-.103.334-1.955-.288-4.098M38.317 12.254c.138-.905.39-1.657.784-2.244.593-.89 1.499-1.38 2.771-1.38 1.273 0 2.114.492 2.72 1.38.397.587.571 1.372.64 2.244zm9.642-1.99c-.243-.9-.844-1.809-1.24-2.225-.624-.659-1.234-1.12-1.84-1.376a7.2 7.2 0 0 0-2.778-.552c-1.208 0-2.31.199-3.2.61-.894.411-1.645.972-2.234 1.671a6.8 6.8 0 0 0-1.313 2.469 10.6 10.6 0 0 0-.426 3.036c0 1.097.148 2.118.44 3.037a6.25 6.25 0 0 0 1.407 2.417c.636.68 1.456 1.213 2.438 1.585.974.37 2.159.561 3.52.559 2.8-.01 4.275-.622 4.883-.952.107-.058.21-.161.08-.456l-.63-1.741c-.099-.26-.368-.164-.368-.164-.693.253-1.678.706-3.982.702-1.501-.003-2.617-.437-3.315-1.118-.717-.696-1.068-1.72-1.13-3.165l9.697.01s.255-.005.282-.248c.01-.103.333-1.955-.291-4.098M17.353 18.482c-.379-.297-.431-.372-.56-.564-.19-.292-.288-.708-.288-1.236 0-.837.281-1.438.865-1.842-.007.002.834-.713 2.812-.687 1.39.018 2.63.22 2.63.22v4.324h.003s-1.232.26-2.619.341c-1.973.117-2.85-.559-2.843-.556m3.858-6.683a22 22 0 0 0-1.513-.045c-.832 0-1.635.103-2.388.302-.758.198-1.44.51-2.025.92a4.6 4.6 0 0 0-1.406 1.57c-.344.626-.518 1.364-.518 2.192 0 .841.148 1.573.444 2.172.295.6.722 1.1 1.265 1.486.539.386 1.204.669 1.976.84.76.17 1.623.257 2.566.257.994 0 1.986-.08 2.946-.241.95-.16 2.119-.39 2.443-.463.321-.075.679-.17.679-.17.24-.06.221-.312.221-.312l-.004-8.698c0-1.907-.52-3.322-1.542-4.198-1.018-.874-2.517-1.316-4.454-1.316-.727 0-1.897.098-2.598.236 0 0-2.119.402-2.99 1.07 0 0-.192.117-.087.38l.687 1.808c.086.234.317.155.317.155s.074-.028.16-.077c1.865-.996 4.225-.966 4.225-.966 1.048 0 1.854.206 2.397.615.53.397.799.998.799 2.265v.402c-.834-.117-1.6-.184-1.6-.184M99.426 6.897a.255.255 0 0 0-.145-.341c-.164-.063-.99-.234-1.626-.274-1.218-.072-1.894.13-2.5.396-.6.266-1.267.696-1.64 1.185V6.706c0-.162-.116-.29-.278-.29h-2.486c-.161 0-.278.128-.278.29v14.187c0 .159.133.29.295.29h2.548c.162 0 .293-.131.293-.29v-7.088c0-.951.107-1.9.322-2.497.21-.589.496-1.06.848-1.4a3 3 0 0 1 1.199-.706c.45-.135.948-.18 1.301-.18.507 0 1.065.129 1.065.129.186.02.291-.091.353-.257.167-.435.638-1.737.73-1.997"/><path d="M75.51.323a9 9 0 0 0-.958-.225A8 8 0 0 0 73.235 0c-1.753 0-3.136.486-4.105 1.445-.966.953-1.621 2.405-1.95 4.315l-.12.643h-2.201s-.267-.01-.324.276l-.36 1.98c-.026.187.057.306.314.306h2.143l-2.174 11.903c-.169.958-.364 1.746-.581 2.345-.212.589-.42 1.03-.677 1.353-.248.309-.481.538-.886.67-.334.11-.72.162-1.142.162a4.4 4.4 0 0 1-.777-.084 2.3 2.3 0 0 1-.524-.166s-.25-.093-.35.152c-.08.203-.651 1.744-.72 1.933-.067.19.028.337.15.381.286.098.498.164.886.255.54.124.994.131 1.42.131.892 0 1.707-.124 2.382-.362.676-.241 1.268-.66 1.792-1.225.565-.613.92-1.253 1.258-2.13.336-.865.624-1.94.853-3.193l2.186-12.125h3.193s.27.01.324-.278l.362-1.978c.024-.19-.057-.306-.317-.306h-3.1c.017-.068.157-1.139.513-2.146.152-.428.438-.776.679-1.015.238-.233.512-.4.812-.495a3.4 3.4 0 0 1 1.041-.145c.291 0 .58.032.797.077.3.063.417.096.495.12.318.093.36.001.422-.148L75.69.655c.077-.216-.112-.307-.178-.332M32.193 20.894a.28.28 0 0 1-.279.287h-2.571c-.162 0-.277-.128-.277-.287V.594c0-.16.115-.288.277-.288h2.571c.162 0 .28.129.28.288z"/></g><defs><clipPath id="a"><path fill="#fff" d="M0 0h126v28H0z"/></clipPath></defs></svg>