<svg xmlns="http://www.w3.org/2000/svg" width="210" height="28" fill="none" viewBox="0 0 210 28"><g clip-path="url(#a)"><path fill="#253858" d="M53.408 25.812c-1.436.974-3.712 1.404-6.091 1.404-7.56 0-11.832-4.683-11.832-12.136 0-7.204 4.273-12.247 11.764-12.247 2.24 0 4.48.434 6.127 1.637v3.136c-1.647-1.081-3.465-1.638-6.127-1.638-5.39 0-8.613 3.684-8.613 9.112 0 5.427 3.326 9.042 8.788 9.042a12.6 12.6 0 0 0 5.968-1.441zm2.2-7.99c0-5.403 3.08-9.328 8.331-9.328 5.252 0 8.264 3.925 8.264 9.328s-3.048 9.414-8.264 9.414-8.33-4.01-8.33-9.414m2.94 0c0 3.422 1.647 6.52 5.391 6.52s5.324-3.098 5.324-6.52-1.592-6.447-5.32-6.447-5.387 3.025-5.387 6.447zm32.043 9.042H87.58V15.988c0-3.241-1.261-4.682-4.13-4.682-2.785 0-4.727 1.907-4.727 5.546v10.012h-3.011V8.854h3.011v2.955a6.24 6.24 0 0 1 2.312-2.458 6 6 0 0 1 3.219-.857c4.026 0 6.337 2.865 6.337 7.818zm8.383-18.01h4.516v2.865h-4.516v15.145h-2.94V11.719h-2.837V8.854h2.837V6.873c0-3.348 1.822-5.62 5.57-5.62a7 7 0 0 1 2.029.287v2.865a9.7 9.7 0 0 0-1.89-.18c-1.854 0-2.785 1.117-2.785 2.738zm12.449 18.116c-2.872 0-4.691-1.404-4.691-4.72V1.328h3.012V21.89c0 1.637 1.051 2.198 2.348 2.198q.438.007.875-.037v2.775a6.2 6.2 0 0 1-1.544.143m4.094-18.116h3.012V19.73c0 3.241 1.261 4.682 4.13 4.682 2.785 0 4.726-1.907 4.726-5.546V8.854h3.02v18.01h-3.012v-2.955a6.24 6.24 0 0 1-2.312 2.458 6 6 0 0 1-3.218.857c-4.026 0-6.338-2.865-6.338-7.814zm27.798 18.37c-6.549 0-9.417-3.888-9.417-9.414 0-5.44 2.94-9.328 8.263-9.328 5.391 0 7.56 3.855 7.56 9.328v1.404h-12.776c.422 3.062 2.348 5.043 6.478 5.043a15.1 15.1 0 0 0 5.323-.975v2.866c-1.44.785-3.644 1.076-5.431 1.076m-6.405-10.642h9.767c-.175-3.348-1.647-5.26-4.655-5.26-3.187-.02-4.798 2.104-5.112 5.24zm31.263 10.282h-3.012V15.988c0-3.241-1.261-4.682-4.129-4.682-2.785 0-4.727 1.907-4.727 5.546v10.012h-3.012V8.854h3.012v2.955a6.24 6.24 0 0 1 2.312-2.458 6 6 0 0 1 3.218-.857c4.027 0 6.338 2.865 6.338 7.818zm16.563-.47c-1.051.576-2.662.818-4.273.818-6.231 0-9.151-3.889-9.151-9.414 0-5.44 2.904-9.329 9.151-9.329a9 9 0 0 1 4.165.864v2.865a8.6 8.6 0 0 0-3.954-.864c-4.552 0-6.406 2.956-6.406 6.447s1.89 6.488 6.473 6.488a10.8 10.8 0 0 0 3.979-.647zm11.796.83c-6.549 0-9.417-3.888-9.417-9.414 0-5.44 2.94-9.328 8.263-9.328 5.391 0 7.56 3.855 7.56 9.328v1.404H190.16c.421 3.062 2.347 5.043 6.477 5.043a15.1 15.1 0 0 0 5.323-.975v2.866c-1.436.785-3.641 1.076-5.427 1.076m-6.405-10.642h9.767c-.175-3.348-1.647-5.26-4.655-5.26-3.187-.02-4.798 2.104-5.112 5.24z"/><path fill="url(#b)" d="M.796 21.526c-.259.434-.55.937-.796 1.338a.84.84 0 0 0-.088.613c.05.208.177.388.355.5l5.172 3.275a.78.78 0 0 0 1.102-.278c.207-.356.473-.819.764-1.314 2.049-3.479 4.11-3.053 7.826-1.228l5.128 2.51a.78.78 0 0 0 .888-.144.8.8 0 0 0 .182-.266l2.463-5.73a.84.84 0 0 0 .014-.62.8.8 0 0 0-.412-.453 618 618 0 0 1-5.172-2.53c-6.97-3.483-12.895-3.258-17.426 4.327"/><path fill="url(#c)" d="M23.987 8.522c.258-.434.549-.937.795-1.338a.84.84 0 0 0 .088-.613.82.82 0 0 0-.354-.5l-5.172-3.275a.78.78 0 0 0-.624-.119.8.8 0 0 0-.51.39c-.207.355-.474.818-.764 1.313-2.05 3.48-4.11 3.053-7.826 1.228L4.508 3.11a.78.78 0 0 0-.888.144.8.8 0 0 0-.183.265L.975 9.25a.84.84 0 0 0-.015.62.8.8 0 0 0 .413.453c1.082.524 3.234 1.568 5.172 2.53 6.986 3.479 12.91 3.246 17.441-4.33"/></g><defs><linearGradient id="b" x1="23.652" x2="7.787" y1="28.943" y2="20.082" gradientUnits="userSpaceOnUse"><stop offset=".18" stop-color="#0052cc"/><stop offset="1" stop-color="#2684ff"/></linearGradient><linearGradient id="c" x1="1.13" x2="16.999" y1="1.101" y2="9.966" gradientUnits="userSpaceOnUse"><stop offset=".18" stop-color="#0052cc"/><stop offset="1" stop-color="#2684ff"/></linearGradient><clipPath id="a"><path fill="#fff" d="M0 0h210v28H0z"/></clipPath></defs></svg>