<svg xmlns="http://www.w3.org/2000/svg" width="141" height="28" fill="none" viewBox="0 0 141 28"><g clip-path="url(#a)"><mask id="b" width="141" height="28" x="0" y="0" maskUnits="userSpaceOnUse" style="mask-type:luminance"><path fill="#fff" d="M140.681 0H.319v28H140.68z"/></mask><g mask="url(#b)"><path fill="#231f20" d="M.319 2.924 16.669 0c.005 9.333 0 18.667 0 28-5.447-.965-10.893-1.948-16.35-2.913zm5.446 6.32c-.668.79-.876 1.885-.752 2.89.1.875.59 1.678 1.252 2.234.606.516 1.38.83 1.925 1.436.41.455.511 1.213.101 1.7-.325.394-.887.422-1.347.343-.775-.112-1.432-.589-1.943-1.167l.006 2.419c.752.572 1.724.774 2.65.769.657-.017 1.325-.169 1.858-.567.668-.488 1.056-1.285 1.151-2.093.135-.943-.022-1.96-.606-2.734-.511-.645-1.196-1.117-1.892-1.532-.376-.23-.752-.477-1.005-.847-.298-.506-.286-1.224.151-1.64.365-.353.921-.38 1.398-.325.584.062 1.135.326 1.59.685V8.413c-.759-.309-1.6-.342-2.404-.28-.814.106-1.611.476-2.133 1.11m12.487-4.552c.56-.55 1.341-.887 2.133-.814 1.128.062 2.122.943 2.403 2.026.112.41.118.836.05 1.252a7.35 7.35 0 0 1 4.004 4.125 2.66 2.66 0 0 1 2.262.628c.95.814 1.207 2.29.63 3.401-.517 1.044-1.753 1.667-2.898 1.432-.702 1.835-2.167 3.367-3.986 4.113.157.904-.118 1.875-.775 2.526-.68.702-1.774.96-2.7.645a2.6 2.6 0 0 1-1.112-.718v-3.856c.527-.55 1.28-.886 2.043-.847.725.017 1.398.381 1.887.892 1.533-.606 2.762-1.891 3.324-3.44-.455-.471-.78-1.078-.848-1.734-.112-.87.241-1.751.848-2.363-.562-1.555-1.797-2.851-3.341-3.457a2.68 2.68 0 0 1-1.735.903c-.808.09-1.622-.258-2.19-.83zm30.245-.011h1.942v7.762c.607-1 1.527-1.852 2.684-2.139 1.033-.258 2.156-.224 3.144.185.865.36 1.5 1.134 1.802 2.01.31.847.377 1.756.382 2.649v7.279H56.52v-6.65c-.017-.876-.05-1.78-.433-2.588-.263-.572-.758-1.06-1.375-1.246-.943-.297-2.044-.151-2.835.455-.932.712-1.438 1.891-1.455 3.047v6.97h-1.93c.005-5.903.01-11.819.005-17.734m69.103.275c.713-.258 1.589.23 1.667 1.004.135.668-.393 1.364-1.072 1.437-.606.101-1.291-.28-1.42-.904-.169-.617.201-1.34.825-1.537m-78.047.842c1.055-.433 2.212-.489 3.33-.421.847.056 1.717.168 2.475.566v2.234c-1.055-.825-2.442-1.1-3.756-1.021-.876.05-1.78.398-2.33 1.094-.573.735-.573 1.78-.264 2.621.421.904 1.342 1.403 2.156 1.914 1.32.774 2.718 1.476 3.784 2.604a3.94 3.94 0 0 1 1.118 2.868c.017 1.128-.399 2.284-1.247 3.047-1.005.949-2.414 1.342-3.762 1.404-1.083.09-2.178-.13-3.217-.45-.398-.128-.797-.269-1.14-.505l.006-2.357c.921.808 2.111 1.263 3.302 1.46.892.128 1.83.072 2.678-.27.55-.23 1.005-.701 1.173-1.285.247-.83.146-1.796-.398-2.492-.438-.55-1.04-.949-1.623-1.341-1.016-.68-2.134-1.196-3.1-1.948-.701-.544-1.38-1.184-1.706-2.026a4.62 4.62 0 0 1-.095-3.025c.376-1.246 1.426-2.194 2.616-2.671m52.63-.163h3.172c1.196.005 2.425-.073 3.605.258 1.14.297 2.212.988 2.829 2.01.68 1.133.792 2.525.59 3.799-.202 1.28-.943 2.441-1.988 3.193-.752.561-1.65.904-2.571 1.055-1.207.202-2.436.079-3.66.113v6.347h-1.983c.006-5.579.017-11.174.006-16.775m1.982 1.796v6.864c1.308-.04 2.661.129 3.936-.27.752-.241 1.454-.718 1.847-1.414.437-.791.517-1.74.381-2.621-.112-.702-.454-1.392-1.038-1.818-.758-.567-1.735-.713-2.65-.741zm41.559.073c.645-.202 1.285-.416 1.931-.623.006 1.184 0 2.363 0 3.547h3.02v1.661h-3.009v6.96c.017.47.073.976.336 1.38.242.382.702.561 1.135.59a2.26 2.26 0 0 0 1.55-.377v1.667c-.696.354-1.5.421-2.269.36-.662-.057-1.347-.281-1.819-.77-.623-.623-.831-1.532-.87-2.38v-7.441h-2.078v-1.65h2.078c-.005-.977-.017-1.948-.005-2.924M63.583 10.45c1.29-.359 2.706-.466 3.992-.017a3.27 3.27 0 0 1 1.982 1.982c.381.987.353 2.076.342 3.12v6.88h-1.931v-1.902c-.472.825-1.168 1.55-2.066 1.891-.977.382-2.078.382-3.077.113-1.084-.303-2.021-1.173-2.285-2.284-.208-.876-.157-1.836.202-2.678.27-.662.791-1.195 1.404-1.549.679-.392 1.442-.589 2.218-.701 1.207-.168 2.402-.337 3.61-.51-.017-.798-.119-1.668-.658-2.302-.437-.527-1.156-.735-1.83-.713-1.42-.022-2.813.55-3.89 1.46v-2.004c.6-.376 1.302-.584 1.987-.786m.982 6.41c-.668.151-1.437.325-1.847.931-.32.51-.36 1.15-.27 1.723.135.696.725 1.224 1.393 1.415.752.213 1.59.134 2.291-.203a3.38 3.38 0 0 0 1.701-2.155c.202-.718.1-1.476.129-2.211-1.128.185-2.263.32-3.397.5m17.023-5.602a5.08 5.08 0 0 1 3.235-1.11c1.072-.023 2.178.246 3.037.908.865.668 1.437 1.667 1.695 2.717.27 1.021.247 2.082.247 3.137-2.818 0-5.648-.006-8.472 0 .05.943.214 1.925.775 2.705.544.792 1.454 1.28 2.397 1.392 1.584.23 3.218-.28 4.464-1.28-.006.607 0 1.224 0 1.83-1.095.808-2.476 1.111-3.812 1.156-1.129.05-2.29-.129-3.273-.718-.983-.584-1.702-1.55-2.083-2.61-.422-1.15-.506-2.402-.433-3.614.118-1.712.865-3.43 2.223-4.513m1.286 1.207c-.864.68-1.358 1.74-1.51 2.812h6.445c-.005-.904-.202-1.858-.797-2.565-.505-.617-1.32-.92-2.1-.91a3.03 3.03 0 0 0-2.038.663m25.125-2.267c1.421-.152 2.947-.023 4.183.752 1.325.814 2.139 2.273 2.397 3.782.241 1.443.203 2.97-.309 4.35-.55 1.499-1.757 2.761-3.284 3.283-1.291.438-2.723.472-4.042.135-1.404-.36-2.623-1.347-3.291-2.627-.701-1.29-.83-2.812-.701-4.254.118-1.319.572-2.632 1.476-3.631.893-1.044 2.213-1.639 3.571-1.79m.185 1.644a3.56 3.56 0 0 0-2.498 1.55c-.736 1.116-.87 2.513-.769 3.821.095 1.212.617 2.458 1.644 3.171.798.572 1.82.74 2.785.657.781-.062 1.567-.354 2.123-.904.606-.567.949-1.364 1.111-2.172.175-.904.175-1.83.057-2.739-.152-1.11-.663-2.25-1.64-2.873-.819-.539-1.858-.623-2.813-.511m16.939-.651a4.2 4.2 0 0 1 2.358-1.033c.949-.09 1.959 0 2.779.511.921.561 1.471 1.572 1.696 2.593.241 1.033.174 2.093.185 3.132v6.01h-1.931v-6.886c-.022-.875-.112-1.796-.562-2.57a2.23 2.23 0 0 0-1.487-1.084c-.725-.157-1.516-.09-2.179.259-1.174.617-1.852 1.93-1.87 3.232-.005 2.357 0 4.703 0 7.06h-1.931V10.418h1.931v2.02c.293-.443.601-.887 1.011-1.246m-48.84-.438c.808-.606 1.909-.656 2.852-.381v2.026c-.584-.399-1.342-.472-2.022-.337-.814.174-1.414.853-1.773 1.571-.455.932-.567 1.987-.534 3.02v5.764h-1.931V10.428h1.942v2.508c.27-.841.724-1.66 1.466-2.183m40.739-.325h1.942V22.42h-1.932z"/></g></g><defs><clipPath id="a"><path fill="#fff" d="M0 0h141v28H0z"/></clipPath></defs></svg>