<svg xmlns="http://www.w3.org/2000/svg" width="94" height="28" fill="none" viewBox="0 0 94 28"><g clip-path="url(#a)"><path fill="#231f20" d="M93.835 19.179 91 15.572l2.588-2.035a.6.6 0 0 0 .257-.505.58.58 0 0 0-.375-.561.6.6 0 0 0-.238-.04.56.56 0 0 0-.434.175l-3.715 2.966V9.058a.6.6 0 0 0-.2-.434.64.64 0 0 0-.453-.168.6.6 0 0 0-.44.17.58.58 0 0 0-.172.432v10.509a.62.62 0 0 0 .652.601.6.6 0 0 0 .44-.17.6.6 0 0 0 .173-.431v-2.54l.87-.678 2.865 3.548a.72.72 0 0 0 .513.291.6.6 0 0 0 .44-.17.58.58 0 0 0 .173-.431.47.47 0 0 0-.099-.407zm-10.098-3.51c-.949-.329-1.719-.6-1.719-1.272 0-.671.87-.853 1.344-.853a2.28 2.28 0 0 1 1.718.64.55.55 0 0 0 .435.175.57.57 0 0 0 .388-.163.55.55 0 0 0 .165-.38.7.7 0 0 0-.137-.388 3.1 3.1 0 0 0-1.146-.83 3.1 3.1 0 0 0-1.403-.236c-1.601 0-2.589.814-2.589 2.036 0 1.532 1.384 1.988 2.589 2.424.909.29 1.718.543 1.718 1.221 0 .679-1.027 1.066-1.64 1.066a2.66 2.66 0 0 1-1.997-.756.84.84 0 0 0-.434-.213.57.57 0 0 0-.388.163.55.55 0 0 0-.166.38c.005.14.053.276.138.389.36.396.807.707 1.306.912a3.7 3.7 0 0 0 1.58.27c1.818 0 2.885-.853 2.885-2.21 0-1.358-1.443-1.96-2.648-2.367zm-7.47-2.21c1.297 0 1.946.717 1.996 2.113h-4.208c.138-1.357.909-2.113 2.212-2.113m3.242 2.113a3.75 3.75 0 0 0-.612-2.035c-.3-.4-.699-.718-1.159-.925a3 3 0 0 0-1.47-.258c-2.193 0-3.458 1.435-3.458 3.937s1.245 3.974 3.636 3.974a3.8 3.8 0 0 0 2.628-.93.53.53 0 0 0 .217-.427.55.55 0 0 0-.166-.38.57.57 0 0 0-.387-.163.5.5 0 0 0-.336.136 3.06 3.06 0 0 1-1.897.679c-1.423 0-2.332-.93-2.372-2.424h4.644c.731-.078.731-.756.731-1.183zM68.066 19.14c-1.463 0-2.194-.93-2.194-2.831s.731-2.831 2.194-2.831a2.5 2.5 0 0 1 1.215.388c.364.232.66.552.86.93v2.211c-.02 1.319-.791 2.133-2.095 2.133zm2.687-10.722a.6.6 0 0 0-.44.17.58.58 0 0 0-.173.43v4.15a3.03 3.03 0 0 0-2.107-.853q-3.36 0-3.36 3.937c0 2.637 1.206 3.974 3.459 3.974s3.32-1.221 3.32-3.257V9.057a.7.7 0 0 0-.233-.452.74.74 0 0 0-.48-.188zm-10.494 3.896a2.6 2.6 0 0 0-1.142.21 2.55 2.55 0 0 0-.932.683v-4.15a.6.6 0 0 0-.185-.46.63.63 0 0 0-.468-.181.6.6 0 0 0-.455.183.57.57 0 0 0-.157.457v10.51a.6.6 0 0 0 .17.444.64.64 0 0 0 .695.153.63.63 0 0 0 .356-.35.6.6 0 0 0 .044-.247V15.61q0-2.152 2.074-2.152c1.384 0 1.858.601 1.858 2.036v4.072a.6.6 0 0 0 .185.458.63.63 0 0 0 .468.182.6.6 0 0 0 .455-.183.58.58 0 0 0 .157-.457v-4.283c-.04-1.959-1.067-2.966-3.142-2.966zm-7.469 3.355c-.948-.33-1.718-.601-1.718-1.273 0-.67.87-.853 1.344-.853a2.28 2.28 0 0 1 1.718.64.6.6 0 0 0 .83 0 .54.54 0 0 0 .178-.426.67.67 0 0 0-.138-.388 3.1 3.1 0 0 0-1.145-.83 3.1 3.1 0 0 0-1.404-.236c-1.6 0-2.588.815-2.588 2.036 0 1.532 1.383 1.988 2.588 2.424.91.291 1.719.543 1.719 1.222s-1.028 1.065-1.641 1.065a2.66 2.66 0 0 1-1.996-.755.84.84 0 0 0-.434-.213.57.57 0 0 0-.388.163.55.55 0 0 0-.166.38c.004.14.052.276.138.388.35.404.786.729 1.278.95a3.8 3.8 0 0 0 1.567.33c1.819 0 2.886-.854 2.886-2.211 0-1.358-1.443-1.988-2.648-2.404zm-7.43-2.211c1.296 0 1.945.717 1.996 2.114h-4.23c.139-1.358.91-2.114 2.214-2.114zm3.182 2.114a3.75 3.75 0 0 0-.613-2.036c-.3-.4-.699-.718-1.158-.925a3 3 0 0 0-1.47-.258c-2.194 0-3.459 1.435-3.459 3.937s1.245 3.994 3.617 3.994a3.79 3.79 0 0 0 2.628-.93.53.53 0 0 0 .217-.426.55.55 0 0 0-.166-.38.57.57 0 0 0-.387-.163.5.5 0 0 0-.336.136 3.06 3.06 0 0 1-1.897.678c-1.424 0-2.332-.93-2.372-2.424h4.664c.73-.097.73-.775.73-1.202zm-7.655-3.217a2.55 2.55 0 0 0-1.208.237 2.5 2.5 0 0 0-.947.771v-.329a.63.63 0 0 0-.19-.453.66.66 0 0 0-.923 0 .63.63 0 0 0-.191.453v6.535a.6.6 0 0 0 .184.459.63.63 0 0 0 .468.181.62.62 0 0 0 .474-.175.6.6 0 0 0 .178-.465V15.96c0-1.531.83-2.424 2.155-2.424a.6.6 0 0 0 .44-.17.58.58 0 0 0-.014-.843.62.62 0 0 0-.426-.168m-4.941-3.51c-2.154 0-2.945 1.493-2.945 2.89v.853h-.414a.62.62 0 0 0-.504.13.6.6 0 0 0-.22.461.6.6 0 0 0 .22.462.62.62 0 0 0 .504.13h.434v5.855a.6.6 0 0 0 .185.459.63.63 0 0 0 .467.181.63.63 0 0 0 .475-.175.6.6 0 0 0 .178-.465v-5.914h1.383a.62.62 0 0 0 .498-.133.6.6 0 0 0 .218-.459.6.6 0 0 0-.217-.46.61.61 0 0 0-.499-.132h-1.387v-.853c0-.755.296-1.686 1.679-1.686a.59.59 0 0 0 .561-.323.5.5 0 0 0 .052-.22.64.64 0 0 0-.205-.427.66.66 0 0 0-.448-.174zM14.382 1.444h9.88a3.312 3.312 0 0 1 2.356.946 3.182 3.182 0 0 1 .964 2.311v9.696a12.75 12.75 0 0 1-3.841 9.095 13.24 13.24 0 0 1-9.27 3.77h-.074a13.3 13.3 0 0 1-5.022-.976A13.1 13.1 0 0 1 5.117 23.5a12.9 12.9 0 0 1-2.846-4.175 12.65 12.65 0 0 1-.999-4.926c0-7.13 5.86-12.879 13.11-12.952z"/><path fill="#e9dcfa" d="M14.384 7.194c-1.598 0-3.13.623-4.26 1.731a5.86 5.86 0 0 0-1.765 4.18v4.02c.012.517.227 1.01.6 1.377a2.07 2.07 0 0 0 1.404.588h1.704v-4.612H9.766v-1.291c.14-2.431 2.19-4.332 4.671-4.332s4.539 1.909 4.672 4.332v1.29h-2.332v4.613h1.54v.073c-.008.48-.206.939-.552 1.278-.345.34-.812.534-1.302.541h-1.84c-.148 0-.313.073-.313.22a.33.33 0 0 0 .314.308h1.853a2.43 2.43 0 0 0 1.687-.692 2.34 2.34 0 0 0 .705-1.655v-.146c.44-.098.832-.341 1.112-.688a1.92 1.92 0 0 0 .428-1.219v-3.931c.083-3.33-2.607-5.985-6.025-5.985"/></g><defs><clipPath id="a"><path fill="#fff" d="M0 0h94v28H0z"/></clipPath></defs></svg>